<svg xmlns="http://www.w3.org/2000/svg" fill="none" viewBox="0 0 343 115" height="115" width="343">
<rect stroke-width="2" stroke="black" fill="#FFF4E4" rx="11" height="109" width="326" y="1" x="16"></rect>
<path fill="black" d="M104.144 25.552H114.536V22.6H116.288V25.552H126.656V27.304H104.144V25.552ZM114.536 43.36V36.208H107.144V30.016H123.704V36.208H116.288V43.648H114.8V45.136H110.096V43.36H114.536ZM121.952 34.456V31.744H108.872V34.456H121.952ZM104.144 41.872H107.144V40.408H108.608V38.92H110.096V37.432H111.848V39.16H110.36V40.648H108.872V42.136H107.384V43.648H104.144V41.872ZM119 37.432H120.728V38.92H122.216V40.408H123.704V41.872H125.168V43.648H123.44V42.136H121.952V40.648H120.464V39.16H119V37.432ZM132.584 36.208H131.36V37.696H129.584V35.944H131.096V34.456H134.048V32.968H135.536V31.744H129.584V30.016H134.048V27.304H131.096V25.552H134.048V22.6H135.8V25.552H139.976V24.088H141.728V27.304H140.24V28.792H138.752V30.016H143.216V31.744H137.288V33.232H135.8V34.456H141.728V45.136H139.976V43.648H134.312V45.136H132.584V36.208ZM144.44 24.088H152.096V27.304H150.608V30.28H149.144V32.968H150.608V34.456H152.096V39.16H150.608V40.648H147.392V38.92H150.344V34.72H148.88V33.232H147.392V30.016H148.88V27.04H150.344V25.816H146.168V45.136H144.44V24.088ZM137.024 30.016V28.528H138.512V27.304H135.8V30.016H137.024ZM139.976 37.432V36.208H134.312V37.432H139.976ZM139.976 41.872V39.16H134.312V41.872H139.976ZM155.024 41.872H156.536V38.92H158.264V41.872H159.488V38.92H161.24V41.872H162.464V38.92H164.192V42.136H162.728V43.36H165.416V37.696H156.536V24.088H165.68V25.816H162.728V28.528H165.68V30.28H162.728V31.504H165.68V33.232H162.728V35.944H167.168V41.872H168.392V24.088H176.048V33.232H173.096V35.944H174.584V40.408H176.048V43.36H177.536V45.136H175.784V43.648H174.32V40.648H172.832V36.208H171.344V33.232H170.12V42.136H168.656V45.136H166.904V43.648H165.68V45.136H160.976V42.136H159.752V45.136H158.024V42.136H156.8V45.136H155.024V41.872ZM174.32 31.504V25.816H170.12V31.504H174.32ZM160.976 28.528V25.816H158.264V28.528H160.976ZM160.976 31.504V30.28H158.264V31.504H160.976ZM160.976 35.944V33.232H158.264V35.944H160.976ZM190.112 27.064H193.328V30.304H190.112V27.064ZM190.112 38.944H193.328V42.16H190.112V38.944ZM207.416 24.088H209.144V27.04H214.832V22.6H216.56V27.04H223.712V24.088H225.464V28.792H207.416V24.088ZM207.416 43.36V38.92H208.904V30.016H223.976V38.92H225.464V43.36H226.664V38.92H228.416V43.648H226.928V45.136H225.2V43.648H223.712V39.16H222.224V31.744H221V33.232H218.048V34.72H216.56V35.944H221V41.872H222.488V45.136H220.76V42.136H219.536V43.648H215.072V45.136H208.904V43.648H207.68V45.136H205.904V43.36H207.416ZM217.784 32.968V31.744H210.632V32.968H217.784ZM214.832 35.944V34.72H210.632V35.944H214.832ZM219.272 38.92V37.696H216.56V38.92H219.272ZM214.832 38.92V37.696H212.12V38.92H214.832ZM214.832 43.36V40.648H210.368V39.16H209.144V43.36H214.832ZM219.272 41.872V40.648H216.56V41.872H219.272ZM232.088 27.04H233.816V40.408H240.968V22.6H242.72V40.408H251.336V27.04H253.088V45.136H251.336V42.136H233.816V45.136H232.088V27.04Z"></path>
<path fill="black" d="M49.748 68.704H50.492V61.276H54.2V59.8H55.064V61.276H58.028V62.152H56.552V63.508H58.028V64.372H56.552V65.86H52.712V64.372H51.356V68.824H50.624V71.068H49.748V68.704ZM49.004 61.408H48.272V60.664H47.528V59.8H48.392V60.544H49.136V61.276H49.88V62.152H49.004V61.408ZM55.676 63.508V62.152H53.588V63.508H55.676ZM52.712 63.508V62.152H51.356V63.508H52.712ZM49.004 64.372H48.272V63.64H47.528V62.764H48.392V63.508H49.136V64.252H49.88V65.116H49.004V64.372ZM55.676 64.984V64.372H53.588V64.984H55.676ZM53.456 70.18V69.436H54.2V68.824H53.456V68.08H52.712V67.348H51.968V66.472H57.284V67.348H56.552V68.08H55.808V68.824H55.064V69.436H55.808V70.18H58.028V71.068H55.676V70.324H54.932V69.568H54.32V70.324H53.588V71.068H51.236V70.18H53.456ZM47.528 70.18V69.436H48.272V67.96H49.004V66.472H49.88V68.08H49.136V69.568H48.392V70.324H47.66V71.068H46.772V70.18H47.528ZM54.32 67.96V68.704H54.932V67.96H55.676V67.348H53.588V67.96H54.32ZM61.592 70.18V68.704H62.324V67.216H63.068V60.544H69.872V70.324H69.128V71.068H66.032V70.18H68.996V66.604H63.944V67.348H63.2V68.824H62.456V70.324H61.712V71.068H60.848V70.18H61.592ZM68.996 63.508V61.408H63.944V63.508H68.996ZM68.996 65.728V64.372H63.944V65.728H68.996ZM77.156 64.252H77.888V63.508H78.632V62.896H77.156V62.02H79.376V61.408H77.888V60.544H80.12V59.8H82.472V60.664H80.24V62.02H83.948V62.896H82.472V63.508H83.204V64.252H83.948V65.116H83.072V64.372H82.472V65.86H78.632V64.372H78.02V65.116H77.156V64.252ZM74.192 65.86H73.58V68.08H72.692V65.728H73.448V64.252H74.192V63.64H72.692V62.764H74.192V59.8H75.056V62.764H76.544V63.64H75.056V64.252H75.8V64.984H76.544V66.604H75.668V65.116H75.056V71.068H74.192V65.86ZM81.596 63.508V62.896H79.508V63.508H81.596ZM81.596 64.984V64.372H79.508V64.984H81.596ZM77.156 66.472H83.948V70.324H83.204V71.068H81.596V70.324H78.632V67.96H82.472V70.18H83.072V67.348H78.02V71.068H77.156V66.472ZM81.596 69.436V68.824H79.508V69.436H81.596ZM89 65.872H88.256V65.128H86.912V65.872H86.024V64.996H86.78V64.264H88.256V62.908H87.524V60.556H88.388V62.776H89.132V63.52H90.488V62.776H91.964V61.42H91.22V59.812H92.096V61.288H92.84V62.776H95.06V63.52H95.804V64.264H96.536V66.616H95.804V67.36H94.316V68.092H91.22V67.228H94.184V66.484H95.672V64.384H94.928V63.652H90.608V64.384H89.132V65.74H89.876V68.716H90.608V71.08H89.744V68.836H89V65.872ZM100.112 70.18V69.436H101.588V68.704H102.332V67.96H103.076V66.472H103.808V65.86H99.368V64.984H103.808V62.152H98.612V61.276H109.868V62.152H104.684V64.984H109.124V65.86H104.684V66.472H105.428V67.96H106.16V68.704H106.904V69.436H108.392V70.18H109.868V71.068H108.26V70.324H106.772V69.568H106.04V68.824H105.296V68.08H104.552V66.604H103.94V68.08H103.196V68.824H102.464V69.568H101.72V70.324H100.232V71.068H98.612V70.18H100.112ZM117.512 64.252H120.476V63.64H117.512V59.8H118.388V61.276H122.084V62.152H118.388V62.764H121.352V65.116H118.388V65.728H121.352V66.604H118.388V67.216H121.352V68.08H118.388V68.704H121.352V69.568H118.388V70.18H121.952V68.704H122.828V70.324H122.084V71.068H118.256V70.324H117.512V64.252ZM111.572 63.508H113.072V62.896H112.328V62.152H111.572V61.276H113.804V59.8H114.68V61.276H116.9V62.152H116.156V62.896H115.424V63.508H116.9V64.372H111.572V63.508ZM114.548 63.508V62.764H115.292V62.152H113.192V62.764H113.936V63.508H114.548ZM112.328 64.984H116.156V70.324H115.424V71.068H113.804V70.18H115.292V68.824H113.192V71.068H112.328V64.984ZM115.292 66.472V65.86H113.192V66.472H115.292ZM115.292 67.96V67.348H113.192V67.96H115.292ZM124.532 65.728H131.96V64.372H124.532V63.508H129.728V62.152H126.032V61.276H129.728V59.8H130.604V61.276H134.312V62.152H130.604V63.508H135.788V64.372H132.824V65.728H135.788V66.604H132.824V70.324H132.08V71.068H129.728V70.18H131.96V66.604H128.384V67.216H129.116V67.96H129.86V68.824H128.996V68.08H128.252V67.348H127.508V66.604H124.532V65.728ZM137.876 67.972H138.74V68.716H139.484V69.448H140.228V71.08H139.352V70.336H138.62V69.58H137.876V67.972ZM150.452 65.728H151.208V64.252H151.952V62.764H152.684V61.276H153.428V59.8H154.304V61.408H153.56V62.764H156.524V63.508H157.136V61.276H157.88V59.8H158.744V61.408H158V62.764H161.708V63.64H160.232V70.324H159.488V71.068H157.136V70.18H159.356V63.64H157.268V65.116H156.524V66.604H155.648V64.984H156.392V63.64H155.036V71.068H154.172V63.64H152.816V64.372H152.072V65.86H151.34V66.604H150.452V65.728ZM167.876 67.96H168.608V67.216H169.352V65.728H170.096V64.252H170.84V63.64H168.608V62.764H170.84V59.8H171.704V62.764H173.924V63.64H172.448V64.984H173.192V66.472H173.924V67.96H174.668V68.824H173.792V68.08H173.06V66.604H172.316V65.116H171.704V71.068H170.84V65.86H170.228V67.348H169.484V68.08H168.74V68.824H167.876V67.96ZM163.412 67.216H164.168V65.728H164.912V64.252H165.644V63.64H163.412V62.764H165.644V59.8H166.52V62.764H167.996V63.64H166.52V64.252H167.264V64.984H167.996V65.728H168.74V66.604H167.876V65.86H167.132V65.116H166.52V71.068H165.644V65.86H165.032V67.348H164.3V68.08H163.412V67.216ZM177.5 68.836H176.744V64.996H177.5V63.52H178.244V62.776H178.976V62.032H180.464V61.288H184.292V62.032H185.78V62.776H186.524V64.264H187.256V68.092H186.524V69.58H185.78V70.336H184.292V71.08H181.94V70.192H184.172V69.448H185.648V67.972H186.392V64.384H185.648V62.908H184.172V62.164H182.816V64.384H182.072V66.616H181.328V68.092H180.596V69.58H179.852V70.336H178.244V69.58H177.5V68.836ZM178.364 68.716V69.448H179.72V67.972H180.464V66.484H181.208V64.264H181.94V62.164H180.596V62.908H179.108V63.652H178.364V65.128H177.632V68.716H178.364ZM194.528 70.18V59.8H195.404V70.324H194.66V71.068H191.564V70.18H194.528ZM189.332 67.96H190.088V66.472H190.832V64.984H191.564V62.764H192.44V65.116H191.696V66.604H190.952V68.08H190.22V68.824H189.332V67.96ZM198.236 65.116H197.492V62.764H198.368V64.984H199.112V66.472H199.844V67.216H200.588V68.08H199.712V67.348H198.98V66.604H198.236V65.116ZM202.292 62.764H203.792V62.02H204.524V60.544H205.268V59.8H206.144V60.664H205.4V62.152H204.656V62.896H203.912V63.64H202.292V62.764ZM206.012 64.984H207.488V64.252H208.976V63.64H208.232V62.152H207.488V61.408H206.756V60.544H212.072V62.152H211.328V62.896H210.584V64.252H211.328V64.984H213.548V65.86H211.196V65.116H210.452V64.372H209.108V65.116H207.62V65.86H206.012V64.984ZM209.72 63.508V62.764H210.452V62.02H211.196V61.408H208.364V62.02H209.108V63.508H209.72ZM204.524 65.86H203.912V66.604H202.292V65.728H203.792V64.984H204.524V64.252H205.268V62.764H206.144V64.372H205.4V71.068H204.524V65.86ZM206.012 69.436H208.976V68.08H206.756V67.216H208.976V65.728H209.84V67.216H212.804V68.08H209.84V69.436H213.548V70.324H206.012V69.436ZM215.624 67.972H216.368V66.484H217.1V64.996H217.844V63.52H218.588V62.908H215.624V62.032H218.588V61.288H219.332V59.812H220.196V61.42H219.452V62.032H221.684V62.908H219.452V63.652H218.72V65.128H217.976V66.616H217.232V68.092H216.488V68.836H215.624V67.972ZM222.296 62.032H225.38V62.776H226.124V63.652H225.248V62.908H222.296V62.032ZM218.588 67.972H219.332V67.228H222.296V64.264H223.16V67.972H223.904V68.716H224.648V69.448H225.38V70.336H224.516V69.58H223.772V68.836H223.16V69.58H222.416V70.336H221.684V71.08H219.332V70.336H218.588V67.972ZM221.552 70.192V69.448H222.296V68.092H219.452V70.192H221.552ZM229.328 68.836H228.584V66.484H229.328V65.74H230.06V64.996H231.548V59.812H232.412V64.264H233.768V63.52H237.608V64.384H233.9V65.128H231.68V65.872H230.192V66.616H229.448V68.716H230.936V69.448H237.608V70.336H230.804V69.58H229.328V68.836ZM237.476 60.676H236.732V59.812H237.608V60.556H238.34V61.288H239.084V62.164H238.208V61.42H237.476V60.676ZM235.988 61.42H235.256V60.556H236.12V61.288H236.864V62.032H237.608V62.908H236.732V62.164H235.988V61.42ZM241.544 68.716H242.288V67.228H243.02V64.996H243.764V63.652H241.544V62.776H244.508V59.812H245.372V62.776H247.604V63.52H248.336V68.092H247.604V69.58H246.86V70.336H243.764V69.448H246.728V67.972H247.472V63.652H244.64V65.128H243.896V67.36H243.152V68.836H242.408V70.336H241.544V68.716ZM249.692 61.42H248.948V60.556H249.692V59.812H250.568V60.556H251.3V61.288H252.044V62.164H251.3V62.908H250.436V62.164H249.692V61.42ZM250.436 61.288V60.676H249.824V61.288H250.436ZM251.168 62.032V61.42H250.568V62.032H251.168ZM248.216 62.032H249.08V62.776H249.824V63.52H250.568V64.264H251.3V65.74H252.044V66.616H251.168V65.872H250.436V64.384H249.692V63.652H248.948V62.908H248.216V62.032ZM254.504 66.484H255.26V65.74H256.004V64.996H256.736V64.264H258.224V62.164H255.26V61.288H258.224V59.812H259.088V61.288H264.284V62.164H259.088V63.52H261.32V64.264H261.932V63.52H262.664V62.776H263.54V63.652H262.796V64.264H263.54V64.996H264.284V65.74H265.016V68.836H264.284V69.58H263.54V70.336H262.796V71.08H260.444V70.192H262.664V69.448H263.408V68.716H264.152V65.872H263.408V65.128H262.052V65.872H261.32V67.36H260.576V68.092H259.832V68.836H259.088V69.448H259.832V70.336H258.968V69.58H257.612V70.336H255.26V69.58H254.504V66.484ZM259.7 67.972V67.228H260.444V65.74H261.188V64.384H259.088V67.972H259.7ZM257.48 69.448V68.716H258.224V65.128H256.868V65.872H256.124V66.616H255.392V69.448H257.48ZM272.276 70.192V69.448H274.508V68.716H275.24V67.228H275.984V62.908H275.24V61.42H272.408V62.164H271.664V62.908H270.932V64.384H270.188V65.872H269.444V67.36H268.58V62.032H269.312V60.556H270.188V62.164H269.444V64.264H270.056V62.776H270.8V62.032H271.544V61.288H272.276V60.556H275.372V61.288H276.116V62.776H276.86V67.36H276.116V68.836H275.372V69.58H274.628V70.336H272.408V71.08H269.312V70.192H272.276ZM281.168 67.972H281.912V67.228H285.608V65.128H281.168V64.264H285.608V62.908H281.168V62.032H285.608V59.812H286.484V62.032H290.192V62.908H286.484V64.264H290.192V65.128H286.484V67.972H287.96V68.716H288.704V69.448H289.448V70.192H290.192V71.08H289.316V70.336H288.572V69.58H287.84V68.836H286.484V70.336H285.74V71.08H281.912V70.336H281.168V67.972ZM285.608 70.192V68.092H282.032V70.192H285.608ZM297.848 70.192V69.448H298.58V68.716H299.324V67.36H298.712V68.092H296.36V67.36H295.616V64.996H296.36V64.264H298.712V64.996H299.324V62.908H293.384V62.032H299.324V59.812H300.2V62.032H303.896V62.908H300.2V68.836H299.456V69.58H298.712V70.336H297.968V71.08H296.36V70.192H297.848ZM298.58 67.228V66.484H299.324V65.872H298.58V65.128H296.492V67.228H298.58ZM306.356 67.972H307.1V67.228H309.452V67.972H310.184V70.336H309.452V71.08H307.1V70.336H306.356V67.972ZM309.32 70.192V68.092H307.22V70.192H309.32ZM79.172 78.276H84.368V76.8H85.244V78.276H90.428V79.152H79.172V78.276ZM84.368 87.18V83.604H80.672V80.508H88.952V83.604H85.244V87.324H84.5V88.068H82.148V87.18H84.368ZM88.076 82.728V81.372H81.536V82.728H88.076ZM79.172 86.436H80.672V85.704H81.404V84.96H82.148V84.216H83.024V85.08H82.28V85.824H81.536V86.568H80.792V87.324H79.172V86.436ZM86.6 84.216H87.464V84.96H88.208V85.704H88.952V86.436H89.684V87.324H88.82V86.568H88.076V85.824H87.332V85.08H86.6V84.216ZM93.632 83.604H93.02V84.348H92.132V83.472H92.888V82.728H94.364V81.984H95.108V81.372H92.132V80.508H94.364V79.152H92.888V78.276H94.364V76.8H95.24V78.276H97.328V77.544H98.204V79.152H97.46V79.896H96.716V80.508H98.948V81.372H95.984V82.116H95.24V82.728H98.204V88.068H97.328V87.324H94.496V88.068H93.632V83.604ZM99.56 77.544H103.388V79.152H102.644V80.64H101.912V81.984H102.644V82.728H103.388V85.08H102.644V85.824H101.036V84.96H102.512V82.86H101.78V82.116H101.036V80.508H101.78V79.02H102.512V78.408H100.424V88.068H99.56V77.544ZM95.852 80.508V79.764H96.596V79.152H95.24V80.508H95.852ZM97.328 84.216V83.604H94.496V84.216H97.328ZM97.328 86.436V85.08H94.496V86.436H97.328ZM106.22 85.836H105.464V81.996H106.22V80.52H106.964V79.776H107.696V79.032H109.184V78.288H113.012V79.032H114.5V79.776H115.244V81.264H115.976V85.092H115.244V86.58H114.5V87.336H113.012V88.08H110.66V87.192H112.892V86.448H114.368V84.972H115.112V81.384H114.368V79.908H112.892V79.164H111.536V81.384H110.792V83.616H110.048V85.092H109.316V86.58H108.572V87.336H106.964V86.58H106.22V85.836ZM107.084 85.716V86.448H108.44V84.972H109.184V83.484H109.928V81.264H110.66V79.164H109.316V79.908H107.828V80.652H107.084V82.128H106.352V85.716H107.084ZM118.052 86.436H118.808V84.216H119.552V77.544H127.832V87.18H128.432V84.216H129.308V87.324H128.564V88.068H127.7V87.324H127.088V88.068H126.212V87.324H120.284V86.436H123.248V84.348H121.028V81.252H123.248V80.64H121.028V79.764H123.248V79.02H126.344V79.896H124.124V81.252H126.344V84.348H124.124V86.436H125.48V84.96H126.344V87.18H126.956V78.408H120.416V84.348H119.672V86.568H118.94V88.068H118.052V86.436ZM123.248 83.472V82.116H121.904V83.472H123.248ZM125.48 83.472V82.116H124.124V83.472H125.48ZM131.012 81.252H136.208V80.64H133.244V76.8H140.048V80.64H137.084V81.252H142.268V82.116H131.012V81.252ZM139.172 78.276V77.664H134.12V78.276H139.172ZM139.172 79.764V79.152H134.12V79.764H139.172ZM133.244 82.728H140.048V85.08H137.084V87.324H136.34V88.068H134.732V87.18H136.208V85.08H133.244V82.728ZM139.172 84.216V83.604H134.12V84.216H139.172ZM131.012 86.436H133.244V85.704H134.864V86.568H133.376V87.324H131.012V86.436ZM138.44 85.704H140.048V86.436H141.524V87.324H139.916V86.568H138.44V85.704ZM145.088 83.484H145.832V82.74H146.564V81.996H148.052V76.812H148.916V81.264H150.272V80.52H154.112V81.384H150.404V82.128H148.184V82.872H146.696V83.616H145.952V85.716H147.44V86.448H154.112V87.336H147.308V86.58H145.832V85.836H145.088V83.484ZM156.932 86.436H157.688V83.472H158.432V77.544H168.188V78.408H165.968V79.764H168.188V80.64H166.712V81.252H167.444V81.984H168.188V82.86H167.312V82.116H166.58V81.372H165.968V84.348H165.092V81.372H164.48V82.116H163.748V82.86H162.872V82.116H162.26V84.348H161.396V81.372H160.784V82.116H160.04V82.86H159.296V83.604H158.552V86.568H157.82V88.068H156.932V86.436ZM165.092 79.764V78.408H162.26V79.764H165.092ZM161.396 79.764V78.408H159.296V79.764H161.396ZM163.004 81.252V81.984H163.616V81.252H164.36V80.64H162.26V81.252H163.004ZM159.908 81.984V81.252H160.652V80.64H159.296V81.984H159.908ZM160.652 87.18V84.96H161.516V87.18H163.616V83.472H164.48V84.96H167.444V85.824H164.48V87.18H168.188V88.068H159.164V87.18H160.652ZM172.124 87.18V86.436H173.612V85.704H174.356V85.08H173.612V84.348H172.124V83.472H173.744V84.216H175.088V82.86H171.392V79.02H175.088V76.8H175.964V79.02H180.404V82.86H175.964V84.348H175.22V85.704H176.708V86.436H178.928V87.18H181.148V88.068H178.796V87.324H176.576V86.568H175.088V85.824H174.476V86.568H173.744V87.324H172.256V88.068H169.892V87.18H172.124ZM179.54 81.984V79.896H175.964V81.984H179.54ZM175.088 81.984V79.896H172.256V81.984H175.088ZM183.596 84.228H184.34V82.74H185.072V81.996H185.816V80.52H186.56V79.908H183.596V79.032H187.304V76.812H188.168V79.032H191.876V79.908H187.424V80.52H188.912V81.264H189.656V82.74H190.268V81.996H191.744V81.264H193.352V82.128H191.876V82.872H190.388V83.616H189.656V86.58H188.78V84.36H187.424V85.092H186.692V87.192H192.62V88.08H186.56V87.336H185.816V84.972H186.56V84.228H187.304V83.484H188.78V81.384H186.692V82.128H185.948V82.872H185.204V84.36H184.46V85.092H183.596V84.228ZM200.276 83.604H198.788V82.728H201.008V79.152H199.532V78.276H201.008V76.8H201.884V78.276H204.716V76.8H205.592V78.276H207.068V79.152H205.592V82.728H207.068V83.604H204.848V84.96H206.192V84.216H207.068V85.08H206.324V85.824H204.716V85.08H203.972V83.604H203.36V85.08H202.628V85.824H201.14V86.436H207.068V87.324H201.14V88.068H200.276V83.604ZM195.812 85.704H197.312V81.372H195.812V80.508H197.312V76.8H198.176V80.508H199.664V81.372H198.176V84.96H199.664V85.824H197.432V86.568H195.812V85.704ZM204.716 79.764V79.152H201.884V79.764H204.716ZM204.716 81.252V80.64H201.884V81.252H204.716ZM204.716 82.728V82.116H201.884V82.728H204.716ZM202.496 84.96V83.604H201.14V84.96H202.496ZM215.456 76.8H216.32V78.276H217.676V77.544H219.284V78.408H217.808V79.152H216.32V81.252H219.152V79.764H220.028V81.372H219.284V82.116H216.2V81.372H215.456V76.8ZM208.772 79.764H209.528V78.276H210.272V76.8H211.136V78.408H210.392V79.764H211.748V79.02H212.492V77.544H213.356V79.02H214.1V80.64H213.236V79.896H211.88V80.64H208.772V79.764ZM209.528 81.252H214.1V87.324H213.356V88.068H211.748V87.18H213.236V85.08H210.392V88.068H209.528V81.252ZM213.236 82.728V82.116H210.392V82.728H213.236ZM215.456 82.728H216.32V84.216H217.676V83.472H219.284V84.348H217.808V85.08H216.32V87.18H219.152V85.704H220.028V87.324H219.284V88.068H216.2V87.324H215.456V82.728ZM213.236 84.216V83.604H210.392V84.216H213.236ZM224.708 81.996H225.452V81.264H226.196V80.52H226.928V79.776H227.672V79.164H221.732V78.288H232.244V79.164H229.28V79.908H227.804V80.652H227.06V81.384H226.316V82.128H225.584V84.972H226.316V85.716H227.06V86.448H230.768V87.336H226.928V86.58H225.452V85.092H224.708V81.996ZM230.636 79.776H231.512V80.52H232.244V81.264H232.988V82.128H232.112V81.384H231.38V80.652H230.636V79.776ZM229.16 80.52H230.024V81.264H230.768V81.996H231.512V82.872H230.636V82.128H229.892V81.384H229.16V80.52ZM236.552 84.228H237.284V83.484H242.48V82.872H241.736V82.128H235.808V81.264H240.992V80.652H240.248V79.908H235.808V79.032H239.516V78.42H238.772V76.812H239.636V78.288H240.38V79.032H241.736V78.288H244.088V79.164H241.868V79.908H241.124V80.52H241.868V81.264H242.48V80.52H244.832V81.384H242.6V82.74H243.344V83.484H244.088V84.228H244.832V85.092H243.212V84.36H237.416V86.448H244.088V87.336H237.284V86.58H236.552V84.228ZM248.768 84.972H249.512V84.228H253.208V82.128H248.768V81.264H253.208V79.908H248.768V79.032H253.208V76.812H254.084V79.032H257.792V79.908H254.084V81.264H257.792V82.128H254.084V84.972H255.56V85.716H256.304V86.448H257.048V87.192H257.792V88.08H256.916V87.336H256.172V86.58H255.44V85.836H254.084V87.336H253.34V88.08H249.512V87.336H248.768V84.972ZM253.208 87.192V85.092H249.632V87.192H253.208ZM265.448 87.192V86.448H266.18V85.716H266.924V84.36H266.312V85.092H263.96V84.36H263.216V81.996H263.96V81.264H266.312V81.996H266.924V79.908H260.984V79.032H266.924V76.812H267.8V79.032H271.496V79.908H267.8V85.836H267.056V86.58H266.312V87.336H265.568V88.08H263.96V87.192H265.448ZM266.18 84.228V83.484H266.924V82.872H266.18V82.128H264.092V84.228H266.18ZM273.956 84.972H274.7V84.228H277.052V84.972H277.784V87.336H277.052V88.08H274.7V87.336H273.956V84.972ZM276.92 87.192V85.092H274.82V87.192H276.92Z"></path>
</svg>
