<svg xmlns="http://www.w3.org/2000/svg" fill="none" viewBox="0 0 82 13" height="13" width="82">
<path fill="white" d="M0.116 10.436H9.008V8.348H0.86V7.472H9.008V6.116H0.116V5.252H4.556V0.8H5.432V5.252H9.872V12.068H9.008V11.324H0.116V10.436ZM2.336 3.152H1.592V2.408H0.86V1.544H1.724V2.276H2.468V3.02H3.212V4.64H2.336V3.152ZM6.788 3.764H7.52V3.02H8.264V1.544H9.14V3.152H8.396V3.896H7.652V4.64H6.788V3.764ZM14.72 5.996H15.464V5.264H16.208V4.52H16.94V3.776H17.684V3.164H11.744V2.288H22.256V3.164H19.292V3.908H17.816V4.652H17.072V5.384H16.328V6.128H15.596V8.972H16.328V9.716H17.072V10.448H20.78V11.336H16.94V10.58H15.464V9.092H14.72V5.996ZM26.336 8.972H27.08V8.228H30.788V4.652H26.336V3.776H30.788V1.556H31.652V3.776H33.872V4.652H31.652V8.972H32.396V9.716H33.14V10.448H33.872V11.336H33.008V10.58H32.264V9.836H31.652V10.58H30.908V11.336H27.08V10.58H26.336V8.972ZM24.116 3.032H24.86V1.556H25.724V3.164H24.98V11.336H24.116V3.032ZM30.788 10.448V9.092H27.212V10.448H30.788ZM36.488 8.972H37.232V8.228H40.928V6.128H36.488V5.264H40.928V3.908H36.488V3.032H40.928V0.812H41.804V3.032H45.512V3.908H41.804V5.264H45.512V6.128H41.804V8.972H43.28V9.716H44.024V10.448H44.768V11.192H45.512V12.08H44.636V11.336H43.892V10.58H43.16V9.836H41.804V11.336H41.06V12.08H37.232V11.336H36.488V8.972ZM40.928 11.192V9.092H37.352V11.192H40.928ZM49.592 1.556H54.176V2.288H55.652V3.164H54.044V2.42H49.592V1.556ZM49.592 10.448H54.788V9.716H56.264V7.616H55.52V6.872H51.944V7.616H50.468V8.36H48.86V5.264H49.592V3.776H50.468V5.384H49.724V7.484H50.336V6.74H51.824V5.996H55.652V6.74H56.396V7.484H57.14V9.836H56.396V10.58H54.908V11.336H49.592V10.448ZM59.744 8.972H60.488V7.484H61.22V5.996H61.964V4.52H62.708V3.908H59.744V3.032H62.708V2.288H63.452V0.812H64.316V2.42H63.572V3.032H65.804V3.908H63.572V4.652H62.84V6.128H62.096V7.616H61.352V9.092H60.608V9.836H59.744V8.972ZM66.416 3.032H69.5V3.776H70.244V4.652H69.368V3.908H66.416V3.032ZM62.708 8.972H63.452V8.228H66.416V5.264H67.28V8.972H68.024V9.716H68.768V10.448H69.5V11.336H68.636V10.58H67.892V9.836H67.28V10.58H66.536V11.336H65.804V12.08H63.452V11.336H62.708V8.972ZM65.672 11.192V10.448H66.416V9.092H63.572V11.192H65.672ZM72.86 9.092H72.116V2.288H72.98V8.972H73.724V10.448H75.824V9.716H76.556V8.228H77.432V9.836H76.688V10.58H75.944V11.336H73.592V10.58H72.86V9.092ZM80.264 5.384H79.52V3.908H78.788V2.288H79.652V3.776H80.396V5.264H81.14V7.484H81.872V9.836H81.008V7.616H80.264V5.384Z"></path>
</svg>
