<svg xmlns="http://www.w3.org/2000/svg" fill="none" viewBox="0 0 746 159" height="159" width="746">
<path fill="black" d="M0.968 14.656H4.904V12.704H8.872V10.72H12.808V8.736H16.776V6.752H20.712V4.768H25.032V7.104H21.064V9.088H17.128V11.072H13.16V13.024H9.224V15.008H5.256V18.624H9.224V20.608H13.16V22.592H17.128V24.576H21.064V26.528H25.032V28.896H20.712V26.88H16.776V24.896H12.808V22.912H8.872V20.96H4.904V18.976H0.968V14.656ZM29.992 20.576H33.992V18.592H35.944V11.04H32.36V16.96H29.992V10.688H32.008V2.784H34.312V8.704H35.944V0.799999H38.28V8.704H42.216V10.688H49.8V7.072H43.848V4.736H49.8V0.799999H52.104V4.736H58.024V7.072H52.104V10.688H60.008V12.992H56.072V16.608H60.008V18.944H56.072V28.864H54.088V30.848H47.816V28.48H53.736V18.944H41.896V16.96H40.264V18.944H38.28V30.848H35.944V20.928H34.312V22.88H29.992V20.576ZM39.912 16.608V14.624H42.216V16.608H53.736V12.992H41.896V11.04H38.28V16.608H39.912ZM45.832 20.576H48.168V22.56H50.12V24.864H47.816V22.88H45.832V20.576ZM69.928 24.544H75.848V20.928H71.912V18.592H75.848V16.96H71.912V14.624H81.8V12.672H83.752V0.799999H86.088V8.704H92.008V11.04H90.024V18.944H88.072V24.544H90.024V28.48H92.008V30.848H89.672V28.864H87.72V24.864H86.088V26.848H84.104V28.864H82.12V30.848H79.816V28.48H81.8V26.496H83.752V24.544H85.736V18.944H83.752V14.976H82.12V16.96H78.184V18.592H82.12V20.576H84.104V22.88H82.12V24.864H78.184V26.848H69.928V24.544ZM71.912 2.784H74.216V8.704H75.848V0.799999H78.184V8.704H79.816V2.784H82.12V11.04H71.912V2.784ZM61.992 8.704H64.008V6.72H65.992V4.736H67.944V0.799999H70.28V5.088H68.296V7.072H66.312V9.056H64.36V11.04H61.992V8.704ZM65.992 16.96H64.36V18.944H61.992V16.608H64.008V14.624H65.992V12.672H67.944V8.704H70.28V12.992H68.296V30.848H65.992V16.96ZM87.72 18.592V11.04H86.088V18.592H87.72ZM81.8 22.56V20.928H78.184V22.56H81.8ZM96.968 26.528H100.904V24.576H104.872V22.592H108.808V20.608H112.776V18.624H116.712V15.008H112.776V13.024H108.808V11.072H104.872V9.088H100.904V7.104H96.968V4.768H101.256V6.752H105.224V8.736H109.16V10.72H113.128V12.704H117.064V14.656H121.032V18.976H117.064V20.96H113.128V22.912H109.16V24.896H105.224V26.88H101.256V28.896H96.968V26.528ZM33.96 36.736H41.864V34.784H43.816V32.8H46.152V35.104H44.168V36.736H56.04V62.848H53.704V60.864H36.264V62.848H33.96V36.736ZM53.704 44.672V39.072H36.264V44.672H53.704ZM53.704 50.592V46.976H36.264V50.592H53.704ZM53.704 58.496V52.928H36.264V58.496H53.704ZM64.968 38.72H74.856V32.8H77.16V38.72H89.032V62.848H86.696V60.864H67.272V62.848H64.968V38.72ZM86.696 48.608V41.056H77.16V48.608H86.696ZM74.856 48.608V41.056H67.272V48.608H74.856ZM86.696 58.496V50.944H77.16V58.496H86.696ZM74.856 58.496V50.944H67.272V58.496H74.856ZM94.984 54.592H96.968V50.624H98.92V46.656H100.904V42.72H102.888V41.088H94.984V38.752H102.888V36.768H104.872V32.832H107.176V37.12H105.192V38.752H111.144V41.088H105.192V43.072H103.24V47.008H101.256V50.976H99.272V54.912H97.288V56.896H94.984V54.592ZM112.776 38.752H121V40.736H122.984V43.072H120.648V41.088H112.776V38.752ZM102.888 54.592H104.872V52.608H112.776V44.704H115.08V54.592H117.064V56.576H119.048V58.528H121V60.896H118.696V58.88H116.712V56.896H115.08V58.88H113.096V60.896H111.144V62.88H104.872V60.896H102.888V54.592ZM110.792 60.512V58.528H112.776V54.912H105.192V60.512H110.792ZM131.944 60.48V58.496H135.912V54.88H128.008V52.576H135.912V48.96H131.944V46.976H130.312V48.96H125.992V46.624H129.992V44.672H133.928V43.04H131.944V41.056H129.992V38.72H132.296V40.704H134.28V42.688H135.912V40.704H137.896V38.72H139.848V37.088H128.008V34.784H142.184V38.72H143.816V36.736H145.8V34.784H147.752V32.8H150.088V35.104H148.104V37.088H146.12V39.072H144.168V40.704H146.12V42.688H147.752V40.704H149.736V38.72H151.72V36.736H154.024V39.072H152.072V41.056H150.088V43.04H148.104V44.672H150.088V46.624H156.008V48.96H149.736V46.976H148.104V48.96H146.12V52.576H154.024V54.88H146.12V60.48H151.72V56.544H154.024V60.864H152.072V62.848H145.8V60.864H143.816V54.88H138.216V58.848H136.264V60.864H132.296V62.848H125.992V60.48H131.944ZM147.752 46.624V44.992H145.8V43.04H143.816V41.056H141.832V39.072H140.2V41.056H138.216V43.04H136.264V44.992H134.28V46.624H147.752ZM143.816 52.576V48.96H138.216V52.576H143.816ZM157.992 46.624H160.008V44.672H161.992V40.704H163.944V39.072H157.992V36.736H165.928V32.8H168.264V36.736H172.2V39.072H168.264V40.704H170.216V42.688H172.2V46.976H169.896V43.04H168.264V50.944H165.928V41.056H164.296V44.992H162.312V46.976H160.36V48.96H157.992V46.624ZM171.848 50.592H173.832V34.784H186.024V50.944H174.184V52.576H176.168V54.56H178.12V56.864H175.816V54.88H173.832V52.928H171.848V50.592ZM183.72 38.72V37.088H176.168V38.72H183.72ZM183.72 42.688V41.056H176.168V42.688H183.72ZM183.72 48.608V44.992H176.168V48.608H183.72ZM167.912 52.576H170.216V60.48H179.752V56.544H182.088V60.864H180.104V62.848H169.896V60.864H167.912V52.576ZM157.992 58.496H160.008V56.544H161.992V52.576H164.296V56.864H162.312V58.848H160.36V60.864H157.992V58.496ZM181.736 52.576H184.072V54.56H186.024V56.544H188.008V60.864H185.672V56.864H183.72V54.88H181.736V52.576ZM192.968 50.624H194.952V48.64H196.904V46.656H200.872V32.832H203.176V44.704H206.792V42.72H217.032V45.024H207.144V47.008H201.224V48.992H197.256V50.976H195.272V56.576H199.24V58.528H217.032V60.896H198.888V58.88H194.952V56.896H192.968V50.624ZM233.896 58.496H239.816V50.944H233.896V38.72H239.816V32.8H242.12V38.72H250.024V50.944H242.12V56.544H247.72V54.88H245.736V52.576H248.072V54.56H250.024V58.496H252.008V62.848H249.672V58.848H240.168V60.864H233.896V58.496ZM227.944 60.48V58.496H229.928V48.96H228.296V50.944H226.312V52.928H221.992V50.592H225.992V48.608H227.944V43.04H226.312V44.992H221.992V42.688H225.992V40.704H227.944V39.072H225.992V37.088H224.008V35.104H221.992V32.8H224.36V34.784H226.312V36.736H228.296V38.72H229.928V32.8H232.264V39.072H230.28V46.624H232.264V58.848H230.28V60.864H228.296V62.848H224.008V60.48H227.944ZM247.72 48.608V41.056H242.12V48.608H247.72ZM239.816 48.608V41.056H236.2V48.608H239.816ZM257.96 36.736H265.864V34.784H267.816V32.8H270.152V35.104H268.168V36.736H280.04V62.848H277.704V60.864H260.264V62.848H257.96V36.736ZM277.704 44.672V39.072H260.264V44.672H277.704ZM277.704 50.592V46.976H260.264V50.592H277.704ZM277.704 58.496V52.928H260.264V58.496H277.704ZM289 56.896H286.984V46.656H289V42.72H290.984V40.736H292.936V38.752H296.904V36.768H307.112V38.752H311.08V40.736H313.064V44.704H315.016V54.912H313.064V58.88H311.08V60.896H307.112V62.88H300.84V60.512H306.792V58.528H310.728V54.592H312.712V45.024H310.728V41.088H306.792V39.104H303.176V45.024H301.192V50.976H299.208V54.912H297.256V58.88H295.272V60.896H290.984V58.88H289V56.896ZM291.304 56.576V58.528H294.92V54.592H296.904V50.624H298.888V44.704H300.84V39.104H297.256V41.088H293.288V43.072H291.304V47.008H289.352V56.576H291.304ZM323.944 50.944H322.312V52.928H317.992V50.592H321.992V48.608H323.944V44.672H325.928V42.688H327.912V41.056H317.992V38.72H323.944V32.8H326.28V38.72H330.216V43.04H328.264V44.992H326.28V46.624H328.264V48.608H330.216V50.944H327.912V48.96H326.28V62.848H323.944V50.944ZM331.848 60.48V58.496H333.832V54.56H335.816V52.928H331.848V34.784H346.024V52.928H342.088V60.48H345.672V54.56H348.008V60.864H346.024V62.848H341.736V60.864H339.752V52.928H338.12V54.88H336.168V58.848H334.184V60.864H332.2V62.848H329.896V60.48H331.848ZM343.72 40.704V37.088H334.184V40.704H343.72ZM343.72 44.672V43.04H334.184V44.672H343.72ZM343.72 50.592V46.976H334.184V50.592H343.72ZM353.992 42.688H361.896V32.8H364.2V36.736H376.072V39.072H364.2V42.688H376.072V52.928H353.992V42.688ZM373.736 50.592V44.992H356.296V50.592H373.736ZM352.008 60.48V58.496H353.992V54.56H356.296V58.848H354.312V60.864H352.36V62.848H349.992V60.48H352.008ZM373.736 54.56H376.072V56.544H378.024V58.496H380.008V62.848H377.672V58.848H375.72V56.864H373.736V54.56ZM361.896 54.56H364.2V58.496H366.184V62.848H363.848V58.848H361.896V54.56ZM367.816 54.56H370.12V58.496H372.104V62.848H369.8V58.848H367.816V54.56ZM383.976 52.608H385.96V48.64H387.912V46.656H389.896V42.72H391.88V41.088H383.976V38.752H393.864V32.832H396.168V38.752H406.056V41.088H394.184V42.72H398.152V44.704H400.136V48.64H401.768V46.656H405.704V44.704H409.992V47.008H406.056V48.992H402.088V50.976H400.136V58.88H397.8V52.96H394.184V54.912H392.232V60.512H408.04V62.88H391.88V60.896H389.896V54.592H391.88V52.608H393.864V50.624H397.8V45.024H392.232V47.008H390.248V48.992H388.264V52.96H386.28V54.912H383.976V52.608ZM419.944 60.48V50.944H413.992V48.608H419.944V43.04H413.992V40.704H419.944V32.8H422.28V40.704H426.216V42.688H433.8V39.072H427.848V36.736H433.8V32.8H436.104V36.736H442.024V39.072H436.104V42.688H444.008V44.992H440.072V48.608H444.008V50.944H440.072V60.864H438.088V62.848H431.816V60.48H437.736V50.944H425.896V48.96H422.28V60.864H420.296V62.848H416.008V60.48H419.944ZM426.216 46.624V48.608H437.736V44.992H425.896V43.04H422.28V46.624H426.216ZM429.832 52.576H432.168V54.56H434.12V56.864H431.816V54.88H429.832V52.576ZM452.904 58.528H466.76V56.576H470.696V50.976H468.712V48.992H457.224V50.976H453.256V52.96H450.952V48.64H452.904V44.704H454.888V41.088H448.968V38.752H456.872V36.768H458.856V32.832H461.16V37.12H459.176V38.752H471.048V41.088H457.224V45.024H455.24V48.64H456.872V46.656H469.064V48.64H471.048V50.624H473.032V56.896H471.048V58.88H467.08V60.896H452.904V58.528ZM479.016 54.592H481.32V56.576H483.304V58.528H485.288V62.88H482.952V60.896H481V58.88H479.016V54.592ZM512.008 60.48V56.544H513.992V52.576H515.944V48.96H509.992V46.624H515.944V41.056H512.008V38.72H515.944V32.8H518.28V38.72H522.216V41.056H518.28V46.624H523.848V32.8H538.024V52.928H534.088V60.48H537.672V54.56H540.008V60.864H538.024V62.848H533.736V60.864H531.752V52.928H530.12V56.864H528.168V58.848H526.184V60.864H524.2V62.848H521.896V60.48H523.848V58.848H521.896V56.864H519.912V54.88H517.928V52.928H516.296V56.864H514.312V60.864H512.36V62.848H509.992V60.48H512.008ZM535.72 38.72V35.104H526.184V38.72H535.72ZM535.72 44.672V41.056H526.184V44.672H535.72ZM535.72 50.592V46.976H526.184V50.592H535.72ZM520.264 52.576V54.56H522.216V56.544H524.2V58.496H525.832V56.544H527.816V52.928H523.848V48.96H518.28V52.576H520.264ZM568.712 60.48V32.8H571.016V60.864H569.064V62.848H562.792V60.48H568.712ZM545 60.48V58.496H546.984V56.864H545V34.784H559.176V56.864H557.192V58.496H559.176V62.848H556.84V58.848H554.888V56.864H549.288V58.848H547.304V60.864H545.352V62.848H542.984V60.48H545ZM562.792 36.736H565.096V54.88H562.792V36.736ZM556.84 40.704V37.088H547.304V40.704H556.84ZM556.84 46.624V43.04H547.304V46.624H556.84ZM556.84 54.56V48.96H547.304V54.56H556.84ZM582.92 48.992H580.936V47.008H577.352V48.992H574.984V46.656H577V44.704H580.936V41.088H578.984V34.816H581.288V40.736H583.272V42.72H586.888V40.736H590.824V37.12H588.84V32.832H591.176V36.768H593.16V40.736H599.08V42.72H601.064V44.704H603.016V50.976H601.064V52.96H597.096V54.912H588.84V52.608H596.744V50.624H600.712V45.024H598.728V43.072H587.208V45.024H583.272V48.64H585.256V56.576H587.208V62.88H584.904V56.896H582.92V48.992ZM609 50.592H614.92V46.976H606.984V44.672H614.92V41.056H609.352V43.04H606.984V40.704H609V34.784H611.304V38.72H614.92V32.8H617.256V38.72H623.176V41.056H617.256V44.672H625.16V46.976H617.256V50.592H623.176V58.848H621.192V60.864H618.888V58.496H620.84V52.928H617.256V62.848H614.92V52.928H611.304V60.864H609V50.592ZM632.712 60.48V32.8H635.016V60.864H633.064V62.848H628.744V60.48H632.712ZM626.792 36.736H629.096V54.88H626.792V36.736ZM644.936 50.944H638.984V48.608H641V46.624H642.984V44.672H644.936V43.04H642.984V41.056H641V39.072H638.984V36.736H641.352V38.72H642.984V36.736H644.936V32.8H647.272V37.088H645.288V39.072H643.304V40.704H645.288V42.688H646.92V38.72H648.904V36.736H651.208V39.072H649.256V43.04H647.272V44.992H645.288V46.976H643.304V48.608H648.904V44.672H650.888V42.688H652.84V38.72H654.824V32.8H657.16V36.736H667.016V58.848H665.064V60.864H663.08V62.848H656.808V60.48H662.728V58.496H664.712V39.072H655.176V43.04H653.192V44.992H651.208V48.608H653.192V50.944H651.208V54.56H653.192V58.848H650.888V54.88H648.904V50.944H647.272V62.848H644.936V50.944ZM656.808 44.672H659.112V48.608H661.096V52.928H658.792V48.96H656.808V44.672ZM650.888 50.592V48.96H649.256V50.592H650.888ZM638.984 56.544H641V52.576H643.304V56.864H641.352V60.864H638.984V56.544ZM672.968 40.736H674.952V34.816H677.256V41.088H675.272V60.896H672.968V40.736ZM680.872 38.752H697.032V41.088H680.872V38.752ZM680.872 52.608H683.176V56.576H685.16V58.528H697.032V60.896H684.808V58.88H682.856V56.896H680.872V52.608ZM37.928 84.576H53.736V82.944H41.896V72.704H47.816V71.072H39.912V68.736H47.816V64.8H50.12V68.736H55.72V67.104H53.736V64.8H56.072V66.784H58.024V68.736H60.008V71.072H50.12V72.704H58.024V82.944H56.072V84.576H60.008V86.88H56.072V92.864H54.088V94.848H49.8V92.48H53.736V86.88H40.264V90.848H37.928V84.576ZM33.992 82.944H29.992V78.624H32.008V76.672H33.992V75.04H32.008V73.056H29.992V70.72H32.008V68.736H33.992V64.8H36.296V69.088H34.312V71.072H32.36V72.704H34.312V74.688H35.944V70.72H38.28V75.04H36.296V76.672H38.28V80.608H40.264V82.944H37.928V80.96H36.296V94.848H33.992V82.944ZM55.72 76.672V75.04H50.12V76.672H55.72ZM47.816 76.672V75.04H44.2V76.672H47.816ZM35.944 80.608V76.992H34.312V78.976H32.36V80.608H35.944ZM55.72 80.608V78.976H50.12V80.608H55.72ZM47.816 80.608V78.976H44.2V80.608H47.816ZM29.992 84.576H32.36V92.864H29.992V84.576ZM43.848 88.544H46.184V90.496H48.168V92.864H45.832V90.848H43.848V88.544ZM67.912 66.816H80.136V68.768H84.072V71.104H79.784V69.12H67.912V66.816ZM67.912 90.528H81.768V88.576H85.704V82.976H83.72V80.992H74.184V82.976H70.248V84.96H65.96V76.704H67.912V72.736H70.248V77.024H68.264V82.624H69.896V80.64H73.864V78.656H84.072V80.64H86.056V82.624H88.04V88.896H86.056V90.88H82.088V92.896H67.912V90.528ZM93.992 88.576H96.008V84.608H97.992V80.64H99.944V75.072H93.992V72.736H99.944V64.832H102.28V78.656H103.912V76.704H105.896V74.72H107.848V72.736H109.832V70.752H116.104V72.736H118.088V82.976H116.104V90.528H121.672V88.576H124.008V90.88H122.024V92.896H115.752V90.88H113.8V82.624H115.752V73.088H110.184V75.072H108.2V77.024H106.216V79.008H104.264V80.992H102.28V94.88H99.944V84.96H98.312V88.896H96.36V92.896H93.992V88.576ZM128.968 86.592H130.952V84.608H140.808V79.008H128.968V76.704H140.808V73.088H128.968V70.752H140.808V64.832H143.144V70.752H153.032V73.088H143.144V76.704H153.032V79.008H143.144V86.592H147.08V88.576H149.064V90.528H151.048V92.512H153.032V94.88H150.696V92.896H148.712V90.88H146.76V88.896H143.144V92.896H141.16V94.88H130.952V92.896H128.968V86.592ZM140.808 92.512V86.912H131.272V92.512H140.808ZM164.936 77.024H158.984V74.72H164.936V66.816H167.272V74.72H178.792V66.816H181.096V74.72H187.016V77.024H181.096V84.96H179.112V86.912H172.84V84.608H178.792V77.024H167.272V88.576H169.256V90.528H183.08V92.896H168.904V90.88H166.92V88.896H164.936V77.024ZM190.984 88.576H193V84.608H194.984V78.656H196.936V74.72H198.92V70.752H200.904V64.832H203.208V71.104H201.256V75.072H199.272V79.008H197.288V82.624H198.92V80.64H200.904V78.656H205.192V80.64H207.176V90.528H212.744V88.576H214.728V84.608H216.712V78.656H219.016V84.96H217.064V88.896H215.08V90.88H213.096V92.896H206.824V90.88H204.84V80.992H201.256V82.976H199.272V84.96H197.288V86.912H195.304V88.896H193.352V92.896H190.984V88.576ZM223.016 86.592H225V84.608H231.272V86.592H233.224V92.896H231.272V94.88H225V92.896H223.016V86.592ZM230.92 92.512V86.912H225.32V92.512H230.92ZM253.992 70.72H261.928V69.088H259.944V66.784H262.28V68.736H264.264V70.72H267.848V64.8H270.184V70.72H273.8V68.736H275.752V66.784H278.088V69.088H276.104V70.72H284.008V78.976H281.672V73.056H256.36V78.976H253.992V70.72ZM256.008 84.576H267.848V82.944H259.944V74.688H278.088V82.944H270.184V84.576H282.024V90.848H280.072V92.864H273.8V90.496H279.72V86.88H270.184V94.848H267.848V86.88H258.312V92.864H256.008V84.576ZM275.752 80.608V76.992H262.28V80.608H275.752ZM288.968 72.736H290.952V66.816H293.256V73.088H291.272V92.896H288.968V72.736ZM296.872 70.752H313.032V73.088H296.872V70.752ZM296.872 84.608H299.176V88.576H301.16V90.528H313.032V92.896H300.808V90.88H298.856V88.896H296.872V84.608ZM317.992 88.544H320.008V84.576H321.992V82.944H317.992V80.608H323.944V78.976H317.992V76.672H321.992V75.04H320.008V71.072H317.992V68.736H323.944V64.8H326.28V68.736H332.2V71.072H330.216V75.04H328.264V76.672H332.2V78.976H326.28V80.608H332.2V82.944H328.264V84.576H330.216V88.544H333.832V68.736H341.736V66.784H346.024V69.088H342.088V71.072H336.168V76.672H348.008V78.976H344.072V94.848H341.736V78.976H336.168V88.864H334.184V94.848H331.848V90.848H329.896V88.864H327.912V84.928H326.28V94.848H323.944V84.928H322.312V88.864H320.36V90.848H317.992V88.544ZM325.928 76.672V74.688H327.912V71.072H322.312V74.688H324.296V76.672H325.928ZM352.968 66.816H355.272V88.576H357.256V90.528H366.792V88.576H370.728V86.592H372.712V84.608H374.696V82.624H377V84.96H375.048V86.912H373.064V88.896H371.08V90.88H367.144V92.896H356.904V90.88H354.92V88.896H352.968V66.816ZM385.96 86.912H383.976V68.768H386.28V86.592H388.264V90.528H393.864V88.576H395.816V84.608H398.152V88.896H396.168V90.88H394.184V92.896H387.912V90.88H385.96V86.912ZM405.704 77.024H403.72V73.088H401.768V68.768H404.072V72.736H406.056V76.704H408.04V82.624H409.992V88.896H407.688V82.976H405.704V77.024ZM431.784 80.64H433.768V78.656H435.72V76.704H437.704V72.736H439.688V69.12H415.976V66.816H441.992V73.088H440.04V77.024H438.056V79.008H436.072V80.992H434.088V82.976H431.784V80.64ZM415.976 90.528H419.912V88.576H421.896V86.592H423.88V82.624H425.864V72.736H428.168V82.976H426.184V86.912H424.232V88.896H422.248V90.88H420.264V92.896H415.976V90.528ZM447.944 82.624H451.944V80.64H455.88V78.656H459.848V76.704H461.8V74.72H463.784V72.736H465.768V70.752H467.752V68.768H469.704V66.816H471.688V64.832H474.024V67.136H472.04V69.12H470.056V71.104H468.072V73.088H466.12V94.88H463.784V77.024H462.152V79.008H460.168V80.992H456.232V82.976H452.264V84.96H447.944V82.624ZM501.736 64.832H504.072V66.816H506.024V68.768H508.008V71.104H505.672V69.12H503.72V67.136H501.736V64.832ZM480.008 68.768H497.8V66.816H500.104V68.768H502.088V70.752H504.072V73.088H501.736V71.104H480.008V68.768ZM485.928 92.512V90.528H487.912V88.576H489.896V84.608H491.848V79.008H477.992V76.704H506.024V79.008H494.184V84.96H492.2V88.896H490.216V90.88H488.264V92.896H486.28V94.88H481.992V92.512H485.928ZM527.784 80.64H529.768V78.656H531.72V76.704H533.704V72.736H535.688V69.12H511.976V66.816H537.992V73.088H536.04V77.024H534.056V79.008H532.072V80.992H530.088V82.976H527.784V80.64ZM511.976 90.528H515.912V88.576H517.896V86.592H519.88V82.624H521.864V72.736H524.168V82.976H522.184V86.912H520.232V88.896H518.248V90.88H516.264V92.896H511.976V90.528ZM543.976 84.608H545.96V80.64H547.912V78.656H549.896V74.72H551.88V73.088H543.976V70.752H553.864V64.832H556.168V70.752H566.056V73.088H554.184V74.72H558.152V76.704H560.136V80.64H561.768V78.656H565.704V76.704H569.992V79.008H566.056V80.992H562.088V82.976H560.136V90.88H557.8V84.96H554.184V86.912H552.232V92.512H568.04V94.88H551.88V92.896H549.896V86.592H551.88V84.608H553.864V82.624H557.8V77.024H552.232V79.008H550.248V80.992H548.264V84.96H546.28V86.912H543.976V84.608ZM585.896 68.736H587.848V66.784H589.832V64.8H592.168V67.104H590.184V68.736H600.072V76.992H588.2V78.624H602.024V86.88H585.896V68.736ZM579.944 71.072H577.992V69.088H576.008V66.784H578.312V68.736H580.296V70.72H582.28V73.056H579.944V71.072ZM597.736 74.688V71.072H588.2V74.688H597.736ZM577.992 92.48V90.496H579.944V80.96H573.992V78.624H582.28V88.544H584.264V90.496H604.008V92.864H583.912V90.848H580.296V92.864H578.312V94.848H573.992V92.48H577.992ZM599.72 84.576V80.96H588.2V84.576H599.72ZM609.96 86.912H607.976V68.768H610.28V86.592H612.264V90.528H617.864V88.576H619.816V84.608H622.152V88.896H620.168V90.88H618.184V92.896H611.912V90.88H609.96V86.912ZM629.704 77.024H627.72V73.088H625.768V68.768H628.072V72.736H630.056V76.704H632.04V82.624H633.992V88.896H631.688V82.976H629.704V77.024ZM637.992 88.544H641.992V86.56H645.928V84.576H647.912V82.592H649.896V80.608H651.848V73.056H640.008V70.72H651.848V64.8H654.184V70.72H661.736V69.088H659.752V67.104H657.8V64.8H660.104V66.784H662.088V68.736H664.072V70.72H668.008V73.056H654.184V78.624H656.168V80.608H659.752V78.624H661.736V76.672H663.72V74.688H666.024V76.992H664.072V78.976H662.088V80.96H660.104V84.576H662.088V86.56H664.072V88.544H668.008V90.848H663.72V88.864H661.736V86.88H659.752V84.928H657.8V82.944H655.816V80.96H654.184V92.864H652.2V94.848H645.928V92.48H651.848V82.944H650.216V84.928H648.264V86.88H646.28V88.864H642.312V90.848H637.992V88.544ZM645.928 78.976H643.944V76.992H641.992V74.688H644.296V76.672H646.28V78.624H648.264V80.96H645.928V78.976ZM670.984 80.64H673V78.656H674.984V66.816H677.288V74.72H680.904V72.736H688.808V66.816H691.112V74.72H695.08V76.704H697.064V78.656H699.016V86.912H697.064V88.896H695.08V90.88H693.096V92.896H691.112V94.88H686.824V92.512H690.792V90.528H692.744V88.576H694.728V86.592H696.712V79.008H694.728V77.024H690.792V75.072H689.16V77.024H687.176V80.992H685.192V84.96H683.208V86.912H681.256V88.576H683.208V90.88H680.904V88.896H679.272V90.88H677.288V92.896H673V90.88H670.984V80.64ZM682.888 84.608V80.64H684.84V76.704H686.824V75.072H681.256V77.024H679.272V84.608H682.888ZM676.936 90.528V88.576H678.92V84.96H676.936V79.008H675.304V80.992H673.352V90.528H676.936ZM703.016 86.592H705.32V88.576H707.304V90.528H709.288V94.88H706.952V92.896H705V90.88H703.016V86.592ZM29.992 122.496H37.928V120.544H41.896V118.88H29.992V116.576H43.848V114.944H39.912V112.96H36.296V114.944H29.992V112.608H35.944V110.624H39.912V108.992H32.008V106.688H43.848V105.056H39.912V102.72H44.2V104.704H45.832V102.72H49.8V101.088H33.992V98.784H54.088V101.088H52.104V103.072H50.12V105.056H46.184V106.688H56.072V110.976H54.088V112.96H51.752V110.624H53.736V108.992H46.184V112.96H44.2V114.592H46.184V116.576H58.024V118.88H48.168V120.544H52.104V122.496H60.008V124.864H51.752V122.848H47.816V120.864H46.184V126.848H43.848V120.864H42.216V122.848H38.28V124.864H29.992V122.496ZM43.848 112.608V108.992H42.216V110.976H40.264V112.608H43.848ZM61.992 118.56H67.944V116.928H64.008V104.704H67.944V103.072H61.992V100.736H67.944V96.8H70.28V100.736H78.184V103.072H70.28V104.704H76.2V110.624H77.832V104.704H79.816V96.8H82.12V102.72H90.024V107.04H88.072V110.976H85.736V106.688H87.72V105.056H80.168V110.976H78.184V112.96H76.2V116.928H70.28V118.56H78.184V120.864H70.28V126.848H67.944V120.864H61.992V118.56ZM77.832 124.48V122.496H79.816V116.576H81.8V106.688H84.104V114.592H86.088V118.56H88.072V122.496H90.024V124.48H92.008V126.848H89.672V124.864H87.72V122.848H85.736V118.88H83.752V116.928H82.12V122.848H80.168V124.864H78.184V126.848H75.848V124.48H77.832ZM73.896 108.672V107.04H70.28V108.672H73.896ZM67.944 108.672V107.04H66.312V108.672H67.944ZM73.896 114.592V110.976H70.28V114.592H73.896ZM67.944 114.592V110.976H66.312V114.592H67.944ZM96.968 104.736H98.952V98.816H101.256V105.088H99.272V124.896H96.968V104.736ZM104.872 102.752H121.032V105.088H104.872V102.752ZM104.872 116.608H107.176V120.576H109.16V122.528H121.032V124.896H108.808V122.88H106.856V120.896H104.872V116.608ZM126.984 116.576H129V114.592H132.936V107.04H129.352V112.96H126.984V106.688H129V98.784H131.304V104.704H132.936V96.8H135.272V104.704H140.84V96.8H143.176V102.72H155.016V120.864H153.064V124.864H151.08V126.848H144.808V124.48H150.728V120.544H152.712V105.056H151.08V110.976H149.096V114.944H147.112V118.88H145.16V120.864H143.176V122.848H141.192V124.864H138.888V122.496H140.84V120.544H142.824V118.56H144.808V114.592H146.792V110.624H148.744V105.056H145.16V110.976H143.176V114.944H141.192V116.928H139.208V118.88H136.904V116.576H138.888V114.592H140.84V110.624H142.824V105.056H141.192V108.992H138.888V107.04H135.272V112.608H136.904V110.624H139.208V112.96H137.256V114.944H135.272V126.848H132.936V116.928H129.352V118.88H126.984V116.576ZM161.992 118.56H171.848V116.928H157.992V114.592H171.848V112.96H161.992V110.624H171.848V108.992H163.944V102.72H171.848V101.088H157.992V98.784H171.848V96.8H174.184V98.784H188.008V101.088H174.184V102.72H182.088V108.992H174.184V110.624H182.088V114.592H188.008V116.928H182.088V122.848H179.752V120.864H174.184V124.864H172.2V126.848H167.912V124.48H171.848V120.864H161.992V118.56ZM171.848 106.688V105.056H166.28V106.688H171.848ZM179.752 106.688V105.056H174.184V106.688H179.752ZM179.752 114.592V112.96H174.184V114.592H179.752ZM179.752 118.56V116.928H174.184V118.56H179.752ZM191.976 116.608H193.96V112.64H195.912V110.656H197.896V106.72H199.88V105.088H191.976V102.752H201.864V96.832H204.168V102.752H214.056V105.088H202.184V106.72H206.152V108.704H208.136V112.64H209.768V110.656H213.704V108.704H217.992V111.008H214.056V112.992H210.088V114.976H208.136V122.88H205.8V116.96H202.184V118.912H200.232V124.512H216.04V126.88H199.88V124.896H197.896V118.592H199.88V116.608H201.864V114.624H205.8V109.024H200.232V111.008H198.248V112.992H196.264V116.96H194.28V118.912H191.976V116.608ZM233.896 107.04H232.264V108.992H229.928V106.688H231.912V104.704H233.896V100.736H235.848V96.8H238.184V100.736H241.8V98.784H243.752V96.8H246.088V99.104H244.104V100.736H250.024V103.072H242.12V106.688H248.072V108.992H242.12V110.624H248.072V112.96H242.12V116.576H250.024V118.88H233.896V107.04ZM227.944 103.072H225.992V101.088H224.008V98.784H226.312V100.736H228.296V102.72H230.28V105.056H227.944V103.072ZM239.816 106.688V103.072H236.2V106.688H239.816ZM239.816 110.624V108.992H236.2V110.624H239.816ZM225.992 124.48V122.496H227.944V112.96H221.992V110.624H230.28V120.544H232.264V122.496H252.008V124.864H231.912V122.848H228.296V124.864H226.312V126.848H221.992V124.48H225.992ZM239.816 116.576V112.96H236.2V116.576H239.816ZM254.984 112.64H257V110.656H258.984V98.816H261.288V106.72H264.904V104.736H272.808V98.816H275.112V106.72H279.08V108.704H281.064V110.656H283.016V118.912H281.064V120.896H279.08V122.88H277.096V124.896H275.112V126.88H270.824V124.512H274.792V122.528H276.744V120.576H278.728V118.592H280.712V111.008H278.728V109.024H274.792V107.072H273.16V109.024H271.176V112.992H269.192V116.96H267.208V118.912H265.256V120.576H267.208V122.88H264.904V120.896H263.272V122.88H261.288V124.896H257V122.88H254.984V112.64ZM266.888 116.608V112.64H268.84V108.704H270.824V107.072H265.256V109.024H263.272V116.608H266.888ZM260.936 122.528V120.576H262.92V116.96H260.936V111.008H259.304V112.992H257.352V122.528H260.936ZM290.952 118.592H292.904V116.608H299.176V118.592H301.16V122.528H306.76V120.576H308.712V118.592H310.696V114.976H308.712V112.992H295.24V114.976H291.272V116.96H288.968V114.624H290.952V112.64H294.888V110.656H296.872V108.704H298.856V106.72H302.792V104.736H304.776V103.104H290.952V100.768H309.064V103.104H307.08V105.088H305.128V107.072H303.144V109.024H299.176V110.656H309.064V112.64H311.048V114.624H313.032V118.912H311.048V122.88H307.08V124.896H292.904V122.88H290.952V118.592ZM298.856 122.528V118.912H293.256V122.528H298.856ZM322.952 100.768H343.048V103.104H322.952V100.768ZM320.968 116.608H322.952V114.624H325.256V116.96H323.272V120.576H327.24V122.528H342.696V120.576H345.032V122.88H343.048V124.896H326.888V122.88H322.952V120.896H320.968V116.608ZM352.968 114.624H354.952V112.64H356.904V110.656H360.872V96.832H363.176V108.704H366.792V106.72H377.032V109.024H367.144V111.008H361.224V112.992H357.256V114.976H355.272V120.576H359.24V122.528H377.032V124.896H358.888V122.88H354.952V120.896H352.968V114.624ZM383.976 116.608H385.96V112.64H387.912V110.656H389.896V106.72H391.88V105.088H383.976V102.752H393.864V96.832H396.168V102.752H406.056V105.088H394.184V106.72H398.152V108.704H400.136V112.64H401.768V110.656H405.704V108.704H409.992V111.008H406.056V112.992H402.088V114.976H400.136V122.88H397.8V116.96H394.184V118.912H392.232V124.512H408.04V126.88H391.88V124.896H389.896V118.592H391.88V116.608H393.864V114.624H397.8V109.024H392.232V111.008H390.248V112.992H388.264V116.96H386.28V118.912H383.976V116.608ZM416.008 124.48V122.496H417.992V120.544H419.944V118.56H421.928V116.928H419.944V114.944H416.008V108.672H417.992V105.056H413.992V102.72H417.992V96.8H420.296V102.72H428.2V110.976H426.216V114.944H424.264V118.56H426.216V120.544H428.2V124.864H425.896V120.864H423.912V118.88H422.28V120.864H420.296V122.848H418.312V124.864H416.36V126.848H413.992V124.48H416.008ZM435.752 124.48V114.944H427.848V112.608H435.752V106.688H437.736V102.72H439.72V101.088H429.832V98.784H442.024V103.072H440.072V107.04H438.088V112.608H444.008V114.944H438.088V124.864H436.104V126.848H429.832V124.48H435.752ZM423.912 114.592V110.624H425.896V105.056H420.296V108.992H418.312V112.608H420.296V114.592H423.912ZM445.992 116.608H448.008V114.624H449.992V112.64H453.928V110.656H457.896V108.704H459.848V104.736H461.832V103.104H451.944V100.768H464.168V105.088H462.184V109.024H460.2V110.656H466.12V112.64H469.736V106.72H472.072V114.624H474.024V116.608H476.008V118.912H473.672V116.96H470.088V120.896H468.104V122.88H466.12V124.896H464.168V126.88H459.848V124.512H463.816V122.528H465.8V120.576H467.752V116.608H469.736V114.976H465.8V112.992H458.216V116.96H456.264V120.896H454.28V122.88H452.296V124.896H448.008V122.88H445.992V116.608ZM451.944 122.528V120.576H453.928V116.608H455.912V112.992H454.28V114.976H450.312V116.96H448.36V122.528H451.944ZM480.968 118.592H482.952V116.608H492.808V111.008H480.968V108.704H492.808V105.088H480.968V102.752H492.808V96.832H495.144V102.752H505.032V105.088H495.144V108.704H505.032V111.008H495.144V118.592H499.08V120.576H501.064V122.528H503.048V124.512H505.032V126.88H502.696V124.896H500.712V122.88H498.76V120.896H495.144V124.896H493.16V126.88H482.952V124.896H480.968V118.592ZM492.808 124.512V118.912H483.272V124.512H492.808ZM522.888 124.512V122.528H524.84V120.576H526.824V116.96H525.192V118.912H518.92V116.96H516.936V110.656H518.92V108.704H525.192V110.656H526.824V105.088H510.984V102.752H526.824V96.832H529.16V102.752H539.016V105.088H529.16V120.896H527.176V122.88H525.192V124.896H523.208V126.88H518.92V124.512H522.888ZM524.84 116.608V114.624H526.824V112.992H524.84V111.008H519.272V116.608H524.84ZM543.016 118.592H545V116.608H551.272V118.592H553.224V124.896H551.272V126.88H545V124.896H543.016V118.592ZM550.92 124.512V118.912H545.32V124.512H550.92ZM51.752 144.608H55.72V128.8H58.024V144.96H56.072V146.944H51.752V144.608ZM43.848 156.48V152.864H33.992V150.56H43.848V146.944H41.896V139.04H38.28V140.992H36.296V144.96H34.312V146.944H32.008V144.608H33.992V140.672H35.944V139.04H29.992V136.704H35.944V133.088H32.008V130.784H46.184V133.088H44.2V136.704H48.168V139.04H44.2V146.592H46.184V150.56H56.072V152.864H46.184V156.48H60.008V158.848H29.992V156.48H43.848ZM49.8 130.784H52.104V142.976H49.8V130.784ZM41.896 136.704V133.088H38.28V136.704H41.896ZM64.968 136.736H66.952V130.816H69.256V137.088H67.272V156.896H64.968V136.736ZM72.872 134.752H89.032V137.088H72.872V134.752ZM72.872 148.608H75.176V152.576H77.16V154.528H89.032V156.896H76.808V154.88H74.856V152.896H72.872V148.608ZM101.896 150.592H103.88V148.608H113.768V139.072H101.896V136.736H113.768V130.816H116.072V136.736H121.992V139.072H116.072V150.592H118.056V152.576H120.04V154.528H121.992V156.896H119.688V154.88H117.704V152.896H116.072V154.88H114.088V156.896H103.88V154.88H101.896V150.592ZM95.976 134.752H97.96V130.816H100.264V135.104H98.28V156.896H95.976V134.752ZM113.768 154.528V150.912H104.232V154.528H113.768ZM128.968 150.592H130.952V148.608H140.808V143.008H128.968V140.704H140.808V137.088H128.968V134.752H140.808V128.832H143.144V134.752H153.032V137.088H143.144V140.704H153.032V143.008H143.144V150.592H147.08V152.576H149.064V154.528H151.048V156.512H153.032V158.88H150.696V156.896H148.712V154.88H146.76V152.896H143.144V156.896H141.16V158.88H130.952V156.896H128.968V150.592ZM140.808 156.512V150.912H131.272V156.512H140.808ZM163.912 130.816H176.136V132.768H180.072V135.104H175.784V133.12H163.912V130.816ZM163.912 154.528H177.768V152.576H181.704V146.976H179.72V144.992H170.184V146.976H166.248V148.96H161.96V140.704H163.912V136.736H166.248V141.024H164.264V146.624H165.896V144.64H169.864V142.656H180.072V144.64H182.056V146.624H184.04V152.896H182.056V154.88H178.088V156.896H163.912V154.528ZM201.896 156.512V154.528H203.848V152.576H205.832V148.96H204.2V150.912H197.928V148.96H195.944V142.656H197.928V140.704H204.2V142.656H205.832V137.088H189.992V134.752H205.832V128.832H208.168V134.752H213.736V133.12H211.752V131.136H209.8V128.832H212.104V130.816H213.736V128.832H216.072V130.816H218.024V132.768H220.008V135.104H217.672V133.12H216.072V137.088H208.168V152.896H206.184V154.88H204.2V156.896H202.216V158.88H197.928V156.512H201.896ZM215.72 132.768V131.136H214.088V132.768H215.72ZM203.848 148.608V146.624H205.832V144.992H203.848V143.008H198.28V148.608H203.848ZM223.016 150.592H225.32V152.576H227.304V154.528H229.288V158.88H226.952V156.896H225V154.88H223.016V150.592ZM257.96 132.736H265.864V130.784H267.816V128.8H270.152V131.104H268.168V132.736H280.04V158.848H277.704V156.864H260.264V158.848H257.96V132.736ZM277.704 140.672V135.072H260.264V140.672H277.704ZM277.704 146.592V142.976H260.264V146.592H277.704ZM277.704 154.496V148.928H260.264V154.496H277.704ZM288.968 134.72H298.856V128.8H301.16V134.72H313.032V158.848H310.696V156.864H291.272V158.848H288.968V134.72ZM310.696 144.608V137.056H301.16V144.608H310.696ZM298.856 144.608V137.056H291.272V144.608H298.856ZM310.696 154.496V146.944H301.16V154.496H310.696ZM298.856 154.496V146.944H291.272V154.496H298.856ZM318.984 150.592H320.968V146.624H322.92V142.656H324.904V138.72H326.888V137.088H318.984V134.752H326.888V132.768H328.872V128.832H331.176V133.12H329.192V134.752H335.144V137.088H329.192V139.072H327.24V143.008H325.256V146.976H323.272V150.912H321.288V152.896H318.984V150.592ZM336.776 134.752H345V136.736H346.984V139.072H344.648V137.088H336.776V134.752ZM326.888 150.592H328.872V148.608H336.776V140.704H339.08V150.592H341.064V152.576H343.048V154.528H345V156.896H342.696V154.88H340.712V152.896H339.08V154.88H337.096V156.896H335.144V158.88H328.872V156.896H326.888V150.592ZM334.792 156.512V154.528H336.776V150.912H329.192V156.512H334.792ZM361.896 130.784H378.024V139.04H361.896V130.784ZM349.992 154.496H353.992V144.96H349.992V142.624H353.992V135.072H349.992V132.736H360.264V135.072H356.296V142.624H359.912V140.672H380.008V142.976H360.264V144.96H356.296V152.544H357.928V150.56H360.264V152.864H358.28V154.848H354.312V156.864H349.992V154.496ZM375.72 136.704V133.088H372.104V136.704H375.72ZM365.832 136.704V133.088H364.2V136.704H365.832ZM369.8 136.704V133.088H368.168V136.704H369.8ZM359.912 154.496H363.848V152.544H365.832V150.88H361.896V144.608H376.072V150.56H378.024V152.864H376.072V154.496H380.008V156.864H375.72V154.848H371.752V152.864H370.12V158.848H367.816V152.864H366.184V154.848H364.2V156.864H359.912V154.496ZM373.736 148.576V146.944H364.2V148.576H373.736ZM375.72 152.544V150.88H372.104V152.544H375.72ZM381.992 150.56H385.992V140.992H381.992V138.688H385.992V128.8H388.296V138.688H391.912V136.704H397.832V135.072H395.848V133.088H391.912V130.784H399.816V128.8H402.12V130.784H412.008V133.088H408.072V135.072H406.088V136.704H412.008V139.04H392.264V140.992H388.296V148.576H392.264V150.88H388.296V152.864H381.992V150.56ZM403.752 136.704V134.72H405.736V133.088H398.184V134.72H400.168V136.704H403.752ZM393.896 156.48V154.496H395.848V152.544H397.832V150.88H393.896V140.672H410.024V150.88H406.088V156.48H409.672V152.544H412.008V156.864H410.024V158.848H405.736V156.864H403.752V150.88H400.168V152.864H398.184V154.848H396.2V156.864H394.216V158.848H389.928V156.48H393.896ZM407.72 144.608V142.976H396.2V144.608H407.72ZM407.72 148.576V146.944H396.2V148.576H407.72ZM421.928 142.656H423.912V140.704H425.896V138.72H427.848V136.736H429.832V135.104H413.992V132.768H442.024V135.104H434.12V137.088H430.184V139.072H428.2V141.024H426.216V143.008H424.264V150.592H426.216V152.576H428.2V154.528H438.088V156.896H427.848V154.88H423.912V150.912H421.928V142.656ZM437.736 136.736H440.072V138.72H442.024V140.704H444.008V143.008H441.672V141.024H439.72V139.072H437.736V136.736ZM433.8 138.72H436.104V140.704H438.088V142.656H440.072V144.992H437.736V143.008H435.752V141.024H433.8V138.72ZM451.944 130.784H470.088V140.992H451.944V130.784ZM467.752 134.72V133.088H454.28V134.72H467.752ZM467.752 138.688V137.056H454.28V138.688H467.752ZM449.992 156.48V144.96H445.992V142.624H476.008V144.96H460.2V158.848H457.896V156.864H450.312V158.848H445.992V156.48H449.992ZM457.896 146.592V144.96H452.296V146.592H457.896ZM465.8 156.48V152.864H463.816V148.928H461.832V146.592H474.024V150.88H472.072V152.864H470.088V154.496H472.072V156.48H476.008V158.848H471.72V156.864H469.736V154.848H468.104V156.864H466.12V158.848H461.832V156.48H465.8ZM469.736 152.544V150.56H471.72V148.928H466.12V152.544H469.736ZM457.896 150.56V148.928H452.296V150.56H457.896ZM457.896 154.496V152.864H452.296V154.496H457.896ZM484.936 144.992H478.984V142.656H484.936V137.088H481V134.752H486.92V128.832H489.256V134.752H497.16V137.088H487.272V142.656H497.16V144.992H487.272V154.528H489.256V156.512H500.744V154.528H502.728V152.576H504.712V144.992H502.728V141.024H500.744V138.72H503.08V140.704H505.064V144.64H507.016V152.896H505.064V154.88H503.08V156.896H501.096V158.88H488.904V156.896H486.92V154.88H484.936V144.992ZM514.984 156.48V154.496H516.936V152.544H518.92V150.56H520.904V146.592H522.888V142.624H524.84V139.04H513V136.704H524.84V128.8H527.176V136.704H539.016V152.864H537.064V156.864H535.08V158.848H526.824V156.48H534.728V152.544H536.712V139.04H527.176V142.976H525.192V146.944H523.208V150.88H521.256V152.864H519.272V154.848H517.288V156.864H515.304V158.848H510.984V156.48H514.984ZM543.976 148.608H545.96V144.64H547.912V142.656H549.896V138.72H551.88V137.088H543.976V134.752H553.864V128.832H556.168V134.752H566.056V137.088H554.184V138.72H558.152V140.704H560.136V144.64H561.768V142.656H565.704V140.704H569.992V143.008H566.056V144.992H562.088V146.976H560.136V154.88H557.8V148.96H554.184V150.912H552.232V156.512H568.04V158.88H551.88V156.896H549.896V150.592H551.88V148.608H553.864V146.624H557.8V141.024H552.232V143.008H550.248V144.992H548.264V148.96H546.28V150.912H543.976V148.608ZM579.944 156.48V154.496H583.912V150.88H576.008V148.576H583.912V144.96H579.944V142.976H578.312V144.96H573.992V142.624H577.992V140.672H581.928V139.04H579.944V137.056H577.992V134.72H580.296V136.704H582.28V138.688H583.912V136.704H585.896V134.72H587.848V133.088H576.008V130.784H590.184V134.72H591.816V132.736H593.8V130.784H595.752V128.8H598.088V131.104H596.104V133.088H594.12V135.072H592.168V136.704H594.12V138.688H595.752V136.704H597.736V134.72H599.72V132.736H602.024V135.072H600.072V137.056H598.088V139.04H596.104V140.672H598.088V142.624H604.008V144.96H597.736V142.976H596.104V144.96H594.12V148.576H602.024V150.88H594.12V156.48H599.72V152.544H602.024V156.864H600.072V158.848H593.8V156.864H591.816V150.88H586.216V154.848H584.264V156.864H580.296V158.848H573.992V156.48H579.944ZM595.752 142.624V140.992H593.8V139.04H591.816V137.056H589.832V135.072H588.2V137.056H586.216V139.04H584.264V140.992H582.28V142.624H595.752ZM591.816 148.576V144.96H586.216V148.576H591.816ZM615.912 150.56H623.816V148.928H617.896V138.688H623.816V137.056H617.896V135.072H615.912V128.8H636.008V135.072H634.024V137.056H626.12V138.688H634.024V148.928H626.12V150.56H636.008V152.864H626.12V158.848H623.816V152.864H615.912V150.56ZM609.992 156.48V146.944H608.36V148.928H605.992V146.592H608.008V144.608H609.992V139.04H605.992V136.704H609.992V128.8H612.296V136.704H616.264V139.04H612.296V144.608H613.928V142.624H616.264V144.96H614.28V146.944H612.296V156.864H610.312V158.848H605.992V156.48H609.992ZM633.672 134.72V131.104H626.12V134.72H633.672ZM623.816 134.72V131.104H618.216V134.72H623.816ZM631.72 142.624V140.992H626.12V142.624H631.72ZM623.816 142.624V140.992H620.2V142.624H623.816ZM631.72 146.592V144.96H626.12V146.592H631.72ZM623.816 146.592V144.96H620.2V146.592H623.816ZM640.968 130.816H643.272V152.576H645.256V154.528H654.792V152.576H658.728V150.592H660.712V148.608H662.696V146.624H665V148.96H663.048V150.912H661.064V152.896H659.08V154.88H655.144V156.896H644.904V154.88H642.92V152.896H640.968V130.816ZM672.968 150.592H674.952V148.608H684.808V143.008H672.968V140.704H684.808V137.088H672.968V134.752H684.808V128.832H687.144V134.752H697.032V137.088H687.144V140.704H697.032V143.008H687.144V150.592H691.08V152.576H693.064V154.528H695.048V156.512H697.032V158.88H694.696V156.896H692.712V154.88H690.76V152.896H687.144V156.896H685.16V158.88H674.952V156.896H672.968V150.592ZM684.808 156.512V150.912H675.272V156.512H684.808ZM714.888 156.512V154.528H716.84V152.576H718.824V148.96H717.192V150.912H710.92V148.96H708.936V142.656H710.92V140.704H717.192V142.656H718.824V137.088H702.984V134.752H718.824V128.832H721.16V134.752H731.016V137.088H721.16V152.896H719.176V154.88H717.192V156.896H715.208V158.88H710.92V156.512H714.888ZM716.84 148.608V146.624H718.824V144.992H716.84V143.008H711.272V148.608H716.84ZM735.016 150.592H737V148.608H743.272V150.592H745.224V156.896H743.272V158.88H737V156.896H735.016V150.592ZM742.92 156.512V150.912H737.32V156.512H742.92Z"></path>
</svg>
