<svg xmlns="http://www.w3.org/2000/svg" fill="none" viewBox="0 0 82 30" height="30" width="82">
<path fill="white" d="M32.72 6.872H31.976V6.128H30.632V6.872H29.744V5.996H30.5V5.264H31.976V3.908H31.244V1.556H32.108V3.776H32.852V4.52H34.208V3.776H35.684V2.42H34.94V0.812H35.816V2.288H36.56V3.776H38.78V4.52H39.524V5.264H40.256V7.616H39.524V8.36H38.036V9.092H34.94V8.228H37.904V7.484H39.392V5.384H38.648V4.652H34.328V5.384H32.852V6.74H33.596V9.716H34.328V12.08H33.464V9.836H32.72V6.872ZM44.72 6.872H43.976V6.128H42.632V6.872H41.744V5.996H42.5V5.264H43.976V3.908H43.244V1.556H44.108V3.776H44.852V4.52H46.208V3.776H47.684V2.42H46.94V0.812H47.816V2.288H48.56V3.776H50.78V4.52H51.524V5.264H52.256V7.616H51.524V8.36H50.036V9.092H46.94V8.228H49.904V7.484H51.392V5.384H50.648V4.652H46.328V5.384H44.852V6.74H45.596V9.716H46.328V12.08H45.464V9.836H44.72V6.872ZM0.116 27.436H9.008V25.348H0.86V24.472H9.008V23.116H0.116V22.252H4.556V17.8H5.432V22.252H9.872V29.068H9.008V28.324H0.116V27.436ZM2.336 20.152H1.592V19.408H0.86V18.544H1.724V19.276H2.468V20.02H3.212V21.64H2.336V20.152ZM6.788 20.764H7.52V20.02H8.264V18.544H9.14V20.152H8.396V20.896H7.652V21.64H6.788V20.764ZM14.72 22.996H15.464V22.264H16.208V21.52H16.94V20.776H17.684V20.164H11.744V19.288H22.256V20.164H19.292V20.908H17.816V21.652H17.072V22.384H16.328V23.128H15.596V25.972H16.328V26.716H17.072V27.448H20.78V28.336H16.94V27.58H15.464V26.092H14.72V22.996ZM26.336 25.972H27.08V25.228H30.788V21.652H26.336V20.776H30.788V18.556H31.652V20.776H33.872V21.652H31.652V25.972H32.396V26.716H33.14V27.448H33.872V28.336H33.008V27.58H32.264V26.836H31.652V27.58H30.908V28.336H27.08V27.58H26.336V25.972ZM24.116 20.032H24.86V18.556H25.724V20.164H24.98V28.336H24.116V20.032ZM30.788 27.448V26.092H27.212V27.448H30.788ZM36.488 25.972H37.232V25.228H40.928V23.128H36.488V22.264H40.928V20.908H36.488V20.032H40.928V17.812H41.804V20.032H45.512V20.908H41.804V22.264H45.512V23.128H41.804V25.972H43.28V26.716H44.024V27.448H44.768V28.192H45.512V29.08H44.636V28.336H43.892V27.58H43.16V26.836H41.804V28.336H41.06V29.08H37.232V28.336H36.488V25.972ZM40.928 28.192V26.092H37.352V28.192H40.928ZM49.592 18.556H54.176V19.288H55.652V20.164H54.044V19.42H49.592V18.556ZM49.592 27.448H54.788V26.716H56.264V24.616H55.52V23.872H51.944V24.616H50.468V25.36H48.86V22.264H49.592V20.776H50.468V22.384H49.724V24.484H50.336V23.74H51.824V22.996H55.652V23.74H56.396V24.484H57.14V26.836H56.396V27.58H54.908V28.336H49.592V27.448ZM59.744 25.972H60.488V24.484H61.22V22.996H61.964V21.52H62.708V20.908H59.744V20.032H62.708V19.288H63.452V17.812H64.316V19.42H63.572V20.032H65.804V20.908H63.572V21.652H62.84V23.128H62.096V24.616H61.352V26.092H60.608V26.836H59.744V25.972ZM66.416 20.032H69.5V20.776H70.244V21.652H69.368V20.908H66.416V20.032ZM62.708 25.972H63.452V25.228H66.416V22.264H67.28V25.972H68.024V26.716H68.768V27.448H69.5V28.336H68.636V27.58H67.892V26.836H67.28V27.58H66.536V28.336H65.804V29.08H63.452V28.336H62.708V25.972ZM65.672 28.192V27.448H66.416V26.092H63.572V28.192H65.672ZM72.86 26.092H72.116V19.288H72.98V25.972H73.724V27.448H75.824V26.716H76.556V25.228H77.432V26.836H76.688V27.58H75.944V28.336H73.592V27.58H72.86V26.092ZM80.264 22.384H79.52V20.908H78.788V19.288H79.652V20.776H80.396V22.264H81.14V24.484H81.872V26.836H81.008V24.616H80.264V22.384Z"></path>
</svg>
