<svg xmlns="http://www.w3.org/2000/svg" fill="none" viewBox="0 0 47 13" height="13" width="47">
<path fill="white" d="M1.128 11.18V9.704H1.872V7.472H2.604V0.8H3.48V4.508H4.092V3.02H4.956V4.64H4.224V5.372H3.48V7.472H4.224V8.216H4.836V7.472H6.312V6.116H4.836V5.252H6.312V3.764H7.188V5.252H7.8V3.152H5.568V2.276H7.8V0.8H8.664V2.276H10.884V3.152H8.664V5.252H9.276V3.764H10.152V5.252H11.628V6.116H10.152V7.472H11.628V8.348H9.408V11.18H10.752V9.704H11.628V12.068H9.276V11.324H8.532V8.348H7.92V9.08H7.188V10.568H6.444V11.324H5.7V12.068H4.092V11.18H5.568V10.436H6.312V8.96H7.056V8.348H4.956V9.824H4.092V8.348H3.348V7.604H2.736V9.824H1.992V11.324H1.26V12.068H0.372V11.18H1.128ZM0.372 5.252H1.128V3.02H1.992V5.372H1.26V6.86H0.372V5.252ZM9.276 7.472V6.116H7.188V7.472H9.276ZM13.116 3.02H17.556V0.8H18.432V3.02H22.872V11.324H22.14V12.068H19.788V11.18H22.008V3.896H18.432V4.508H19.176V5.252H20.652V5.984H21.396V6.86H20.52V6.116H19.044V5.372H18.3V4.64H17.688V5.372H16.944V6.116H16.212V6.86H14.592V5.984H16.08V5.252H16.824V4.508H17.556V3.896H13.98V12.068H13.116V3.02ZM14.592 8.96H16.08V8.216H16.824V7.472H17.556V5.984H18.432V7.472H19.176V8.216H20.652V8.96H21.396V9.824H20.52V9.08H19.044V8.348H18.3V7.604H17.688V8.348H16.944V9.08H16.212V9.824H14.592V8.96ZM26.604 11.18V10.436H27.348V8.96H28.092V8.348H24.372V7.472H28.092V5.372H25.128V4.508H27.348V3.764H28.092V2.276H28.836V0.8H29.7V2.408H28.956V3.896H28.224V4.508H30.312V3.764H32.532V3.152H31.8V2.276H32.664V3.02H33.408V3.764H34.152V4.508H34.884V5.372H34.02V4.64H32.664V7.472H35.628V8.348H32.664V12.068H31.8V8.348H28.956V9.08H28.224V10.568H27.48V11.324H26.736V12.068H25.128V11.18H26.604ZM31.8 7.472V4.64H30.444V5.372H28.956V7.472H31.8ZM37.116 10.436H46.008V8.348H37.86V7.472H46.008V6.116H37.116V5.252H41.556V0.8H42.432V5.252H46.872V12.068H46.008V11.324H37.116V10.436ZM39.336 3.152H38.592V2.408H37.86V1.544H38.724V2.276H39.468V3.02H40.212V4.64H39.336V3.152ZM43.788 3.764H44.52V3.02H45.264V1.544H46.14V3.152H45.396V3.896H44.652V4.64H43.788V3.764Z"></path>
</svg>
