<svg xmlns="http://www.w3.org/2000/svg" fill="none" viewBox="0 0 60 19" height="19" width="60">
<path fill="black" d="M1.88 17.3V16.06H4.34V14.84H5.58V12.58H4.34V9.88H5.8V12.36H8.06V9.88H9.5V12.58H8.26V13.6H9.5V14.84H10.74V17.3H11.76V16.06H13V12.36H14.22V7.62H11.76V6.18H14.22V-4.76837e-07H15.68V6.18H19.38V17.54H18.14V18.78H15.46V17.3H17.92V7.62H15.68V12.58H14.44V16.28H13.2V17.54H11.98V18.78H10.52V17.54H9.28V15.04H8.06V13.8H7.04V15.04H5.8V16.28H4.56V17.54H2.1V18.78H0.62V17.3H1.88ZM0.62 3.7H5.58V-4.76837e-07H7.04V3.7H11.98V5.16H0.62V3.7ZM0.62 9.88H1.88V8.64H3.12V6.18H4.56V8.86H3.32V10.1H2.1V11.34H0.62V9.88ZM9.28 7.62H8.06V6.18H9.5V7.42H10.74V8.64H11.98V10.1H10.52V8.86H9.28V7.62ZM20.62 16.06H23.12V14.84H25.58V13.6H28.06V12.58H20.62V11.12H29.28V8.86H23.12V-4.76837e-07H36.92V8.86H30.74V11.12H39.38V12.58H33.2V13.6H34.44V14.84H36.92V16.06H39.38V17.54H36.7V16.28H34.22V15.04H33V13.8H31.76V12.58H30.74V18.78H29.28V13.8H28.26V15.04H25.8V16.28H23.32V17.54H20.62V16.06ZM29.28 3.7V1.44H24.56V3.7H29.28ZM35.46 3.7V1.44H30.74V3.7H35.46ZM35.46 7.42V5.16H30.74V7.42H35.46ZM29.28 7.42V5.16H24.56V7.42H29.28ZM40.62 7.42H46.82V6.4H45.58V3.92H41.88V2.46H49.28V-4.76837e-07H50.74V2.46H58.14V3.92H54.44V6.4H53.2V7.42H59.38V8.86H40.62V7.42ZM51.76 7.42V6.18H53V3.92H47.04V6.18H48.26V7.42H51.76ZM44.34 9.88H55.68V18.78H54.22V17.54H45.8V18.78H44.34V9.88ZM54.22 12.36V11.34H45.8V12.36H54.22ZM54.22 16.06V13.8H45.8V16.06H54.22Z"></path>
</svg>
