<svg version="1.1" xmlns="http://www.w3.org/2000/svg" xmlns:xlink="http://www.w3.org/1999/xlink" width="137.79032" height="112.43026" viewBox="0,0,137.79032,112.43026"><g transform="translate(-156.06013,-153.47311)"><g data-paper-data="{&quot;isPaintingLayer&quot;:true}" fill-rule="nonzero" stroke-linecap="butt" stroke-linejoin="miter" stroke-miterlimit="10" stroke-dasharray="" stroke-dashoffset="0" style="mix-blend-mode: normal"><path d="M162,190h126.5" fill="none" stroke="#ffffff" stroke-width="1"/><path d="M162,226h126.5" fill="none" stroke="#ffffff" stroke-width="1"/><path d="M159.29739,192.92918l-2.97861,-2.97861l2.97861,-2.97862l2.97862,2.97862z" fill="#ffffff" stroke="none" stroke-width="0"/><path d="M159.16347,228.88084l-2.97861,-2.97861l2.97861,-2.97862l2.97862,2.97862z" fill="#ffffff" stroke="none" stroke-width="0"/><path d="M290.75539,192.99374l-2.97861,-2.97861l2.97861,-2.97862l2.97862,2.97862z" fill="#ffffff" stroke="none" stroke-width="0"/><path d="M290.87184,228.88116l-2.97861,-2.97861l2.97861,-2.97862l2.97861,2.97862z" fill="#ffffff" stroke="none" stroke-width="0"/><path d="M161.97691,263.02221h126.5" fill="none" stroke="#ffffff" stroke-width="1"/><path d="M159.14038,265.90305l-2.97861,-2.97861l2.97861,-2.97862l2.97862,2.97862z" fill="#ffffff" stroke="none" stroke-width="0"/><path d="M290.84875,265.90337l-2.97861,-2.97861l2.97861,-2.97862l2.97861,2.97862z" fill="#ffffff" stroke="none" stroke-width="0"/><path d="M161.87527,156.5495h126.5" fill="none" stroke="#ffffff" stroke-width="1"/><path d="M159.03874,159.43034l-2.97861,-2.97861l2.97861,-2.97862l2.97862,2.97862z" fill="#ffffff" stroke="none" stroke-width="0"/><path d="M290.74711,159.43066l-2.97861,-2.97861l2.97861,-2.97862l2.97861,2.97862z" fill="#ffffff" stroke="none" stroke-width="0"/></g></g></svg>