<svg xmlns="http://www.w3.org/2000/svg" fill="none" viewBox="0 0 343 115" height="115" width="343">
<rect stroke-width="2" stroke="black" fill="#FFF4E4" rx="11" height="109" width="326" y="1" x="16"></rect>
<path fill="black" d="M94.924 43.36V41.872H96.388V40.408H97.876V38.92H99.364V35.944H100.852V32.968H102.316V31.744H91.924V30.016H102.316V22.6H104.068V30.016H114.436V31.744H104.068V32.968H105.556V35.944H107.02V38.92H108.508V40.408H109.996V41.872H111.484V43.36H114.436V45.136H111.22V43.648H109.732V42.136H108.244V40.648H106.78V39.16H105.292V36.208H103.804V33.232H102.58V36.208H101.092V39.16H99.628V40.648H98.14V42.136H96.652V43.648H95.164V45.136H91.924V43.36H94.924ZM124.036 41.872H125.524V38.92H126.988V24.088H139.108V25.816H128.74V30.016H137.62V36.208H136.156V39.16H134.668V40.408H136.156V41.872H137.62V43.36H139.108V45.136H137.356V43.648H135.892V42.136H134.404V40.648H133.18V42.136H131.692V43.648H130.228V45.136H128.476V43.36H129.964V41.872H131.452V40.408H132.916V39.16H131.452V36.208H129.964V31.744H128.74V39.16H127.252V42.136H125.764V45.136H124.036V41.872ZM118.108 24.088H125.764V27.304H124.3V30.28H122.812V31.504H124.3V32.968H125.764V37.696H124.3V39.16H119.836V45.136H118.108V24.088ZM124.036 37.432V33.232H122.548V31.744H121.06V30.016H122.548V27.04H124.036V25.816H119.836V37.432H124.036ZM133.18 35.944V38.92H134.404V35.944H135.892V31.744H131.692V35.944H133.18ZM142.804 41.872H144.316V38.92H146.044V41.872H147.268V38.92H149.02V41.872H150.244V38.92H151.972V42.136H150.508V43.36H153.196V37.696H144.316V24.088H153.46V25.816H150.508V28.528H153.46V30.28H150.508V31.504H153.46V33.232H150.508V35.944H154.948V41.872H156.172V24.088H163.828V33.232H160.876V35.944H162.364V40.408H163.828V43.36H165.316V45.136H163.564V43.648H162.1V40.648H160.612V36.208H159.124V33.232H157.9V42.136H156.436V45.136H154.684V43.648H153.46V45.136H148.756V42.136H147.532V45.136H145.804V42.136H144.58V45.136H142.804V41.872ZM162.1 31.504V25.816H157.9V31.504H162.1ZM148.756 28.528V25.816H146.044V28.528H148.756ZM148.756 31.504V30.28H146.044V31.504H148.756ZM148.756 35.944V33.232H146.044V35.944H148.756ZM177.892 27.064H181.108V30.304H177.892V27.064ZM177.892 38.944H181.108V42.16H177.892V38.944ZM196.66 24.112H198.388V40.432H199.876V41.896H209.98V40.432H211.468V24.112H213.22V40.672H211.732V42.16H210.244V43.672H199.612V42.16H198.124V40.672H196.66V24.112ZM222.844 37.456H224.572V40.432H226.06V41.896H234.7V40.432H236.164V36.232H234.7V34.744H225.796V33.256H224.308V31.768H222.844V27.064H224.308V25.576H225.796V24.112H234.94V25.576H236.428V27.064H237.916V30.304H236.164V27.328H234.7V25.84H226.06V27.328H224.572V31.528H226.06V32.992H234.94V34.48H236.428V35.968H237.916V40.672H236.428V42.16H234.94V43.672H225.796V42.16H224.308V40.672H222.844V37.456ZM248.284 35.968H250.012V40.432H251.5V41.896H260.14V40.432H261.604V24.112H263.356V40.672H261.868V42.16H260.38V43.672H251.236V42.16H249.748V40.672H248.284V35.968Z"></path>
<path fill="black" d="M45.256 68.704H46.732V67.96H47.476V67.348H46.732V66.604H45.988V64.984H48.22V63.64H46.732V62.764H48.22V62.152H45.988V61.276H47.476V60.664H46.732V59.8H47.608V60.544H48.34V61.276H48.952V60.544H49.696V59.8H50.572V60.664H49.828V61.276H52.048V62.152H49.084V62.764H51.304V63.64H49.084V64.984H52.048V65.86H49.084V66.472H49.828V67.96H50.44V67.216H51.172V66.472H52.048V67.348H51.304V68.08H50.572V68.704H51.304V69.436H52.048V70.324H51.172V69.568H50.44V68.824H49.696V68.08H49.084V70.324H48.34V71.068H46.732V70.18H48.22V68.08H47.608V68.824H46.864V69.568H45.256V68.704ZM40.792 67.216H41.548V65.728H42.292V64.252H43.024V63.64H40.792V62.764H43.024V59.8H43.9V62.764H46.12V63.64H43.9V64.252H44.644V64.984H45.376V66.604H44.512V65.116H43.9V71.068H43.024V65.86H42.412V67.348H41.68V68.08H40.792V67.216ZM47.608 66.472V67.216H48.22V65.86H46.864V66.472H47.608ZM54.868 66.484H55.612V65.74H56.344V64.996H57.088V64.264H57.832V62.776H58.576V61.288H59.44V62.776H63.892V64.384H63.148V65.872H62.404V66.616H61.66V67.36H60.928V68.716H61.66V69.448H62.404V70.336H61.54V69.58H60.796V68.836H59.308V68.092H58.576V67.36H57.832V66.484H58.696V67.228H59.44V67.972H60.052V67.228H60.796V66.484H61.54V65.74H62.272V64.264H63.016V63.652H58.696V64.384H57.964V65.128H57.22V65.872H56.476V66.616H55.732V67.36H54.868V66.484ZM67.084 67.972H67.828V66.484H68.56V64.996H69.304V63.52H70.048V62.908H67.084V62.032H70.048V61.288H70.792V59.812H71.656V61.42H70.912V62.032H73.144V62.908H70.912V63.652H70.18V65.128H69.436V66.616H68.692V68.092H67.948V68.836H67.084V67.972ZM73.756 62.032H76.84V62.776H77.584V63.652H76.708V62.908H73.756V62.032ZM70.048 67.972H70.792V67.228H73.756V64.264H74.62V67.972H75.364V68.716H76.108V69.448H76.84V70.336H75.976V69.58H75.232V68.836H74.62V69.58H73.876V70.336H73.144V71.08H70.792V70.336H70.048V67.972ZM73.012 70.192V69.448H73.756V68.092H70.912V70.192H73.012ZM86.344 65.74H87.088V64.996H87.82V64.264H88.564V62.776H89.308V61.42H80.416V60.556H90.172V62.908H89.44V64.384H88.696V65.128H87.952V65.872H87.208V66.616H86.344V65.74ZM80.416 69.448H81.892V68.716H82.636V67.972H83.38V66.484H84.124V62.776H84.988V66.616H84.244V68.092H83.512V68.836H82.768V69.58H82.024V70.336H80.416V69.448ZM94.48 59.812H95.356V63.52H96.832V64.264H99.064V64.996H100.54V65.74H102.028V66.616H100.408V65.872H98.932V65.128H96.712V64.384H95.356V71.08H94.48V59.812ZM107.452 60.556H114.988V61.42H107.452V60.556ZM111.148 70.192V69.448H112.636V68.716H113.38V67.972H114.112V66.484H114.856V64.384H106.708V63.52H115.732V66.616H114.988V68.092H114.244V68.836H113.5V69.58H112.768V70.336H111.28V71.08H107.452V70.192H111.148ZM121.888 70.192V69.448H123.376V68.716H124.852V67.972H125.596V67.228H126.34V65.74H127.072V64.264H127.816V62.908H122.764V64.384H122.02V65.128H121.276V65.872H120.532V66.616H119.668V65.74H120.412V64.996H121.144V64.264H121.888V62.776H122.632V61.288H123.376V59.812H124.24V61.42H123.496V62.032H128.692V64.384H127.948V65.872H127.204V67.36H126.46V68.092H125.728V68.836H124.984V69.58H123.496V70.336H122.02V71.08H119.668V70.192H121.888ZM135.22 61.42H133.732V60.556H135.352V61.288H136.828V62.032H137.572V62.908H136.696V62.164H135.22V61.42ZM133 69.448H135.22V68.716H137.44V67.972H138.928V67.228H139.66V66.484H140.404V64.996H141.148V62.776H142.012V65.128H141.28V66.616H140.536V67.36H139.792V68.092H139.048V68.836H137.572V69.58H135.352V70.336H133V69.448ZM133.732 63.652H132.256V62.776H133.864V63.52H135.352V64.264H136.084V65.128H135.22V64.384H133.732V63.652ZM146.332 68.716H152.992V66.616H147.064V65.74H152.992V63.652H146.332V62.776H153.868V70.336H152.992V69.58H146.332V68.716ZM160.768 62.908H159.292V62.164H158.548V61.288H159.412V62.032H160.9V62.776H162.376V63.52H163.12V64.384H162.256V63.652H160.768V62.908ZM158.548 69.448H160.768V68.716H162.256V67.972H163.732V67.228H164.476V66.484H165.22V65.74H165.952V64.264H166.696V62.032H167.572V64.384H166.828V65.872H166.084V66.616H165.34V67.36H164.608V68.092H163.864V68.836H162.376V69.58H160.9V70.336H158.548V69.448ZM170.764 68.716H171.508V67.228H172.24V64.996H172.984V63.652H170.764V62.776H173.728V59.812H174.592V62.776H176.824V63.52H177.556V68.092H176.824V69.58H176.08V70.336H172.984V69.448H175.948V67.972H176.692V63.652H173.86V65.128H173.116V67.36H172.372V68.836H171.628V70.336H170.764V68.716ZM178.912 61.42H178.168V60.556H178.912V59.812H179.788V60.556H180.52V61.288H181.264V62.164H180.52V62.908H179.656V62.164H178.912V61.42ZM179.656 61.288V60.676H179.044V61.288H179.656ZM180.388 62.032V61.42H179.788V62.032H180.388ZM177.436 62.032H178.3V62.776H179.044V63.52H179.788V64.264H180.52V65.74H181.264V66.616H180.388V65.872H179.656V64.384H178.912V63.652H178.168V62.908H177.436V62.032ZM183.724 66.484H184.48V65.74H185.224V64.996H185.956V64.264H187.444V62.164H184.48V61.288H187.444V59.812H188.308V61.288H193.504V62.164H188.308V63.52H190.54V64.264H191.152V63.52H191.884V62.776H192.76V63.652H192.016V64.264H192.76V64.996H193.504V65.74H194.236V68.836H193.504V69.58H192.76V70.336H192.016V71.08H189.664V70.192H191.884V69.448H192.628V68.716H193.372V65.872H192.628V65.128H191.272V65.872H190.54V67.36H189.796V68.092H189.052V68.836H188.308V69.448H189.052V70.336H188.188V69.58H186.832V70.336H184.48V69.58H183.724V66.484ZM188.92 67.972V67.228H189.664V65.74H190.408V64.384H188.308V67.972H188.92ZM186.7 69.448V68.716H187.444V65.128H186.088V65.872H185.344V66.616H184.612V69.448H186.7ZM201.496 70.192V69.448H203.728V68.716H204.46V67.228H205.204V62.908H204.46V61.42H201.628V62.164H200.884V62.908H200.152V64.384H199.408V65.872H198.664V67.36H197.8V62.032H198.532V60.556H199.408V62.164H198.664V64.264H199.276V62.776H200.02V62.032H200.764V61.288H201.496V60.556H204.592V61.288H205.336V62.776H206.08V67.36H205.336V68.836H204.592V69.58H203.848V70.336H201.628V71.08H198.532V70.192H201.496ZM209.656 67.972H210.52V68.716H211.264V69.448H212.008V71.08H211.132V70.336H210.4V69.58H209.656V67.972ZM222.232 69.436H222.988V68.704H223.732V67.216H224.464V65.728H225.208V64.252H225.952V62.896H222.232V62.02H225.952V59.8H226.816V62.02H233.488V62.896H226.816V64.372H226.084V64.984H232.012V66.604H231.268V67.348H230.524V68.08H229.78V69.436H231.268V70.18H233.488V71.068H231.136V70.324H229.66V69.568H228.916V68.824H228.304V69.568H227.56V70.324H226.084V71.068H223.732V70.18H225.952V69.436H227.428V68.704H228.172V68.08H227.428V67.348H226.696V66.604H225.952V65.86H225.34V67.348H224.596V68.824H223.852V69.568H223.12V70.324H222.232V69.436ZM227.56 66.472V67.216H228.304V67.96H229.66V67.216H230.392V66.472H231.136V65.86H226.816V66.472H227.56ZM235.948 70.18V69.436H236.692V68.704H237.424V67.96H238.168V67.216H238.912V66.472H239.656V64.984H240.388V59.8H241.264V64.984H242.008V66.472H242.74V67.96H243.484V68.704H244.228V69.436H244.972V70.18H246.448V71.068H244.84V70.324H244.096V69.568H243.352V68.824H242.62V68.08H241.876V66.604H241.132V65.116H240.52V66.604H239.776V67.348H239.044V68.08H238.3V68.824H237.556V69.568H236.812V70.324H236.08V71.068H235.192V70.18H235.948ZM248.896 68.716H249.64V66.484H250.372V63.52H251.116V62.908H248.896V62.032H251.116V59.812H251.992V62.032H255.688V62.908H251.992V63.652H251.248V66.616H250.504V68.836H249.76V70.336H248.896V68.716ZM253.336 64.264H258.652V65.128H253.336V64.264ZM252.604 67.972H253.336V67.228H254.212V68.092H253.468V69.448H258.652V70.336H253.336V69.58H252.604V67.972ZM263.704 69.448H268.9V68.716H270.376V66.616H269.632V65.872H265.324V66.616H263.836V67.36H262.972V65.74H263.704V64.264H264.448V62.908H262.228V62.032H265.192V61.288H265.936V59.812H266.8V61.42H266.056V62.032H270.508V62.908H265.324V64.384H264.58V65.74H265.192V64.996H269.764V65.74H270.508V66.484H271.252V68.836H270.508V69.58H269.02V70.336H263.704V69.448ZM275.188 66.484H275.932V65.74H276.664V64.996H278.152V59.812H279.016V64.264H280.372V63.52H284.212V64.384H280.504V65.128H278.284V65.872H276.796V66.616H276.052V68.716H277.54V69.448H284.212V70.336H277.408V69.58H275.932V68.836H275.188V66.484ZM287.032 64.984H298.288V65.86H287.032V64.984ZM302.224 66.604H299.992V65.728H300.748V64.984H301.492V64.252H302.224V63.64H301.492V62.896H300.748V62.152H299.992V61.276H300.88V62.02H301.492V61.276H302.224V59.8H303.1V61.408H302.356V62.152H301.612V62.764H302.356V63.508H302.968V62.02H303.844V63.64H303.1V64.252H303.844V65.728H304.576V66.472H305.188V65.728H306.676V64.984H307.42V64.372H304.456V63.508H306.676V62.152H305.188V61.276H306.676V59.8H307.54V61.276H309.64V60.544H310.504V62.152H309.772V62.896H309.028V63.508H311.248V64.372H308.284V65.116H307.54V65.728H310.504V71.068H309.64V70.324H306.808V71.068H305.932V66.604H305.32V67.348H304.576V69.568H303.712V67.216H304.456V66.604H303.712V65.86H303.1V71.068H302.224V66.604ZM308.152 63.508V62.764H308.896V62.152H307.54V63.508H308.152ZM302.968 65.728V64.372H302.356V65.116H301.612V65.728H302.968ZM309.64 67.216V66.604H306.808V67.216H309.64ZM299.992 68.704H300.748V67.216H301.612V68.824H300.88V70.324H299.992V68.704ZM309.64 69.436V68.08H306.808V69.436H309.64ZM314.068 62.776H314.812V60.556H315.676V62.908H314.932V70.336H314.068V62.776ZM317.032 62.032H323.092V62.908H317.032V62.032ZM317.032 67.228H317.896V68.716H318.64V69.448H323.092V70.336H318.508V69.58H317.776V68.836H317.032V67.228ZM49.312 78.42H48.568V77.676H47.836V76.812H48.7V77.556H49.312V76.812H50.188V77.556H50.92V78.288H51.664V79.164H50.788V78.42H50.188V79.164H49.312V78.42ZM44.128 78.42H42.64V77.556H44.26V78.288H45.736V79.032H46.48V79.908H45.604V79.164H44.128V78.42ZM50.056 78.288V77.676H49.444V78.288H50.056ZM41.908 86.448H44.128V85.716H46.348V84.972H47.836V84.228H48.568V83.484H49.312V81.996H50.056V79.776H50.92V82.128H50.188V83.616H49.444V84.36H48.7V85.092H47.956V85.836H46.48V86.58H44.26V87.336H41.908V86.448ZM42.64 80.652H41.164V79.776H42.772V80.52H44.26V81.264H44.992V82.128H44.128V81.384H42.64V80.652ZM54.868 86.448H58.576V81.384H55.612V80.52H63.148V81.384H59.44V86.448H63.892V87.336H54.868V86.448ZM71.908 80.652H71.164V79.908H70.42V79.032H71.296V79.776H72.028V80.52H72.772V82.128H71.908V80.652ZM69.676 86.448H71.908V85.716H73.384V84.972H74.128V84.228H74.872V82.74H75.604V79.776H76.48V82.872H75.736V84.36H74.992V85.092H74.26V85.836H73.516V86.58H72.028V87.336H69.676V86.448ZM69.676 81.384H68.944V80.652H68.2V79.776H69.064V80.52H69.808V81.264H70.552V82.872H69.676V81.384ZM81.52 76.812H82.396V80.52H83.872V81.264H86.104V81.996H87.58V82.74H89.068V83.616H87.448V82.872H85.972V82.128H83.752V81.384H82.396V88.08H81.52V76.812ZM93.748 86.448H101.896V79.908H93.748V79.032H102.772V88.08H101.896V87.336H93.748V86.448ZM106.708 81.996H115.732V82.872H106.708V81.996ZM118.924 86.448H120.424V85.716H121.9V84.972H123.388V84.228H124.12V83.484H124.864V81.996H125.608V80.52H126.352V79.164H119.68V78.288H127.216V80.652H126.472V82.128H125.74V83.484H126.472V84.228H127.216V84.972H127.96V85.716H128.704V86.448H129.436V87.336H128.572V86.58H127.828V85.836H127.084V85.092H126.352V84.36H125.608V83.616H124.996V84.36H124.252V85.092H123.508V85.836H122.032V86.58H120.544V87.336H118.924V86.448ZM135.22 87.192V86.448H137.44V85.716H138.184V84.36H137.44V83.616H135.964V82.872H135.22V81.996H136.096V82.74H137.572V83.484H138.316V84.228H139.672V83.484H140.404V81.996H141.148V79.908H136.096V80.652H135.352V81.384H134.608V82.128H133.864V82.872H133.132V83.616H132.244V82.74H133V81.996H133.744V81.264H134.476V80.52H135.22V79.776H135.964V78.288H136.708V76.812H137.572V78.42H136.828V79.032H142.024V82.128H141.28V83.616H140.536V84.36H139.792V85.092H139.06V85.836H138.316V86.58H137.572V87.336H135.352V88.08H133V87.192H135.22ZM145.588 81.996H154.612V82.872H145.588V81.996ZM158.188 84.216H164.86V83.604H157.432V82.728H162.628V81.372H158.932V80.508H162.628V79.02H163.372V78.408H161.284V79.02H162.016V79.896H161.152V79.152H160.408V78.408H159.796V79.152H159.052V79.896H157.432V79.02H158.932V78.276H159.664V76.8H160.54V77.544H163.504V78.276H164.116V76.8H164.98V77.544H168.688V78.408H166.468V79.02H167.212V79.896H166.336V79.152H165.592V78.408H164.248V79.152H163.504V80.508H167.212V81.372H163.504V82.728H168.688V83.604H165.724V84.216H167.944V85.08H165.724V87.324H164.98V88.068H162.628V87.18H164.86V85.08H158.188V84.216ZM159.664 85.704H161.284V86.436H162.016V87.324H161.152V86.568H159.664V85.704ZM171.136 84.228H171.88V82.74H172.612V81.996H173.356V80.52H174.1V79.908H171.136V79.032H174.844V76.812H175.708V79.032H179.416V79.908H174.964V80.52H176.452V81.264H177.196V82.74H177.808V81.996H179.284V81.264H180.892V82.128H179.416V82.872H177.928V83.616H177.196V86.58H176.32V84.36H174.964V85.092H174.232V87.192H180.16V88.08H174.1V87.336H173.356V84.972H174.1V84.228H174.844V83.484H176.32V81.384H174.232V82.128H173.488V82.872H172.744V84.36H172V85.092H171.136V84.228ZM183.352 86.436H184.852V85.704H186.328V84.96H187.816V84.348H183.352V83.472H188.548V82.86H187.072V78.276H187.816V77.544H188.548V76.8H189.424V77.664H188.68V78.276H190.9V82.86H189.424V83.472H194.608V84.348H190.168V84.96H191.644V85.704H193.132V86.436H194.608V87.324H193V86.568H191.512V85.824H190.036V85.08H189.424V88.068H188.548V85.08H187.936V85.824H186.46V86.568H184.972V87.324H183.352V86.436ZM185.584 79.152H184.852V78.408H184.108V77.544H184.972V78.276H185.716V79.02H186.46V79.896H185.584V79.152ZM191.512 79.02H192.256V78.276H193V77.544H193.864V78.408H193.132V79.152H192.388V79.896H191.512V79.02ZM190.036 79.764V79.152H187.936V79.764H190.036ZM183.352 81.984H184.852V81.252H185.584V80.508H186.46V81.372H185.716V82.116H184.972V82.86H183.352V81.984ZM191.512 80.508H192.388V81.252H193.132V81.984H194.608V82.86H193V82.116H192.256V81.372H191.512V80.508ZM190.036 81.984V80.64H187.936V81.984H190.036ZM197.428 77.556H198.292V85.716H199.036V86.448H202.612V85.716H204.088V84.972H204.832V84.228H205.576V83.484H206.44V84.36H205.708V85.092H204.964V85.836H204.22V86.58H202.744V87.336H198.904V86.58H198.16V85.836H197.428V77.556ZM210.76 85.092H210.016V81.996H210.76V81.264H212.236V79.908H210.016V79.032H212.236V76.812H213.112V79.032H216.076V79.908H213.112V85.092H212.368V87.192H217.42V86.448H218.164V84.36H217.42V83.484H218.296V84.228H219.04V86.58H218.296V87.336H217.552V88.08H212.236V87.336H211.492V85.836H210.76V85.092ZM218.908 80.652H218.164V79.908H217.42V79.164H216.688V78.288H217.552V79.032H218.296V79.776H219.04V80.52H219.772V82.128H218.908V80.652ZM212.236 84.972V82.128H210.88V84.972H212.236ZM224.092 78.288H231.628V79.164H224.092V78.288ZM223.348 84.228H224.092V83.484H224.956V84.36H224.212V85.716H225.7V86.448H231.496V85.716H232.372V86.58H231.628V87.336H225.568V86.58H224.092V85.836H223.348V84.228ZM236.308 83.484H237.052V82.74H237.784V81.996H239.272V76.812H240.136V81.264H241.492V80.52H245.332V81.384H241.624V82.128H239.404V82.872H237.916V83.616H237.172V85.716H238.66V86.448H245.332V87.336H238.528V86.58H237.052V85.836H236.308V83.484ZM248.524 85.716H249.268V84.228H250V81.996H250.744V80.652H248.524V79.776H251.488V76.812H252.352V79.776H254.584V80.52H255.316V85.092H254.584V86.58H253.84V87.336H250.744V86.448H253.708V84.972H254.452V80.652H251.62V82.128H250.876V84.36H250.132V85.836H249.388V87.336H248.524V85.716ZM256.672 78.42H255.928V77.556H256.672V76.812H257.548V77.556H258.28V78.288H259.024V79.164H258.28V79.908H257.416V79.164H256.672V78.42ZM257.416 78.288V77.676H256.804V78.288H257.416ZM258.148 79.032V78.42H257.548V79.032H258.148ZM255.196 79.032H256.06V79.776H256.804V80.52H257.548V81.264H258.28V82.74H259.024V83.616H258.148V82.872H257.416V81.384H256.672V80.652H255.928V79.908H255.196V79.032ZM264.088 81.996H264.832V81.264H265.576V80.52H266.308V79.776H267.052V79.164H261.112V78.288H271.624V79.164H268.66V79.908H267.184V80.652H266.44V81.384H265.696V82.128H264.964V84.972H265.696V85.716H266.44V86.448H270.148V87.336H266.308V86.58H264.832V85.092H264.088V81.996ZM270.016 79.776H270.892V80.52H271.624V81.264H272.368V82.128H271.492V81.384H270.76V80.652H270.016V79.776ZM268.54 80.52H269.404V81.264H270.148V81.996H270.892V82.872H270.016V82.128H269.272V81.384H268.54V80.52ZM275.932 84.228H276.664V83.484H281.86V82.872H281.116V82.128H275.188V81.264H280.372V80.652H279.628V79.908H275.188V79.032H278.896V78.42H278.152V76.812H279.016V78.288H279.76V79.032H281.116V78.288H283.468V79.164H281.248V79.908H280.504V80.52H281.248V81.264H281.86V80.52H284.212V81.384H281.98V82.74H282.724V83.484H283.468V84.228H284.212V85.092H282.592V84.36H276.796V86.448H283.468V87.336H276.664V86.58H275.932V84.228ZM288.148 84.972H288.892V84.228H292.588V82.128H288.148V81.264H292.588V79.908H288.148V79.032H292.588V76.812H293.464V79.032H297.172V79.908H293.464V81.264H297.172V82.128H293.464V84.972H294.94V85.716H295.684V86.448H296.428V87.192H297.172V88.08H296.296V87.336H295.552V86.58H294.82V85.836H293.464V87.336H292.72V88.08H288.892V87.336H288.148V84.972ZM292.588 87.192V85.092H289.012V87.192H292.588ZM304.828 87.192V86.448H305.56V85.716H306.304V84.36H305.692V85.092H303.34V84.36H302.596V81.996H303.34V81.264H305.692V81.996H306.304V79.908H300.364V79.032H306.304V76.812H307.18V79.032H310.876V79.908H307.18V85.836H306.436V86.58H305.692V87.336H304.948V88.08H303.34V87.192H304.828ZM305.56 84.228V83.484H306.304V82.872H305.56V82.128H303.472V84.228H305.56ZM313.336 84.972H314.08V84.228H316.432V84.972H317.164V87.336H316.432V88.08H314.08V87.336H313.336V84.972ZM316.3 87.192V85.092H314.2V87.192H316.3Z"></path>
</svg>
