<svg xmlns="http://www.w3.org/2000/svg" fill="none" viewBox="0 0 774 159" height="159" width="774">
<path fill="black" d="M0.968 14.656H4.904V12.704H8.872V10.72H12.808V8.736H16.776V6.752H20.712V4.768H25.032V7.104H21.064V9.088H17.128V11.072H13.16V13.024H9.224V15.008H5.256V18.624H9.224V20.608H13.16V22.592H17.128V24.576H21.064V26.528H25.032V28.896H20.712V26.88H16.776V24.896H12.808V22.912H8.872V20.96H4.904V18.976H0.968V14.656ZM47.784 16.64H49.768V14.656H51.72V12.704H53.704V8.736H55.688V5.12H31.976V2.816H57.992V9.088H56.04V13.024H54.056V15.008H52.072V16.992H50.088V18.976H47.784V16.64ZM31.976 26.528H35.912V24.576H37.896V22.592H39.88V18.624H41.864V8.736H44.168V18.976H42.184V22.912H40.232V24.896H38.248V26.88H36.264V28.896H31.976V26.528ZM65.96 0.831999H68.296V10.72H72.232V12.704H78.184V14.656H82.12V16.64H86.088V18.976H81.768V16.992H77.832V15.008H71.912V13.024H68.296V30.88H65.96V0.831999ZM83.752 3.136H81.768V0.831999H84.104V2.816H86.088V4.768H88.04V7.104H85.736V5.12H83.752V3.136ZM81.768 7.104H79.816V5.12H77.832V2.816H80.136V4.768H82.12V6.752H84.104V9.088H81.768V7.104ZM115.752 2.816H117.736V0.831999H120.072V2.816H122.024V4.768H124.008V7.104H122.024V9.088H119.72V7.104H117.736V5.12H115.752V2.816ZM119.72 4.768V3.136H118.088V4.768H119.72ZM93.992 26.528H96.008V22.592H97.992V18.624H99.944V12.704H101.928V4.768H104.264V13.024H102.28V18.976H100.296V22.912H98.312V26.88H96.36V28.896H93.992V26.528ZM117.736 16.992H115.752V13.024H113.8V9.088H111.816V4.768H114.12V8.736H116.104V12.704H118.088V16.64H120.072V22.592H122.024V26.88H119.72V22.912H117.736V16.992ZM121.672 6.752V5.12H120.072V6.752H121.672ZM127.944 18.624H131.944V16.64H135.88V14.656H139.848V12.704H141.8V10.72H143.784V8.736H145.768V6.752H147.752V4.768H149.704V2.816H151.688V0.831999H154.024V3.136H152.04V5.12H150.056V7.104H148.072V9.088H146.12V30.88H143.784V13.024H142.152V15.008H140.168V16.992H136.232V18.976H132.264V20.96H127.944V18.624ZM158.984 26.528H162.984V24.576H166.92V22.592H170.888V20.608H172.84V18.624H174.824V14.656H176.808V10.72H178.792V7.104H161V4.768H181.096V11.072H179.112V15.008H177.16V18.624H179.112V20.608H181.096V22.592H183.08V24.576H185.064V26.528H187.016V28.896H184.712V26.88H182.728V24.896H180.744V22.912H178.792V20.96H176.808V18.976H175.176V20.96H173.192V22.912H171.208V24.896H167.272V26.88H163.304V28.896H158.984V26.528ZM192.968 26.528H196.904V24.576H200.872V22.592H204.808V20.608H208.776V18.624H212.712V15.008H208.776V13.024H204.808V11.072H200.872V9.088H196.904V7.104H192.968V4.768H197.256V6.752H201.224V8.736H205.16V10.72H209.128V12.704H213.064V14.656H217.032V18.976H213.064V20.96H209.128V22.912H205.16V24.896H201.224V26.88H197.256V28.896H192.968V26.528ZM43.848 44.672H49.8V32.8H52.104V44.672H60.008V46.976H52.104V62.848H49.8V46.976H43.848V44.672ZM32.008 34.784H42.216V37.088H32.008V34.784ZM29.992 40.704H44.2V43.04H29.992V40.704ZM32.008 44.672H42.216V46.976H32.008V44.672ZM32.008 48.608H42.216V50.944H32.008V48.608ZM32.008 52.576H42.216V60.864H34.312V62.848H32.008V52.576ZM39.912 58.496V54.88H34.312V58.496H39.912ZM67.944 38.72H75.848V35.104H61.992V32.8H92.008V35.104H78.184V38.72H86.088V54.88H67.944V38.72ZM61.992 40.704H64.36V58.496H89.672V40.704H92.008V62.848H89.672V60.864H64.36V62.848H61.992V40.704ZM75.848 44.672V41.056H70.28V44.672H75.848ZM83.752 44.672V41.056H78.184V44.672H83.752ZM75.848 52.576V46.976H70.28V52.576H75.848ZM83.752 52.576V46.976H78.184V52.576H83.752ZM95.976 52.608H97.96V48.64H99.912V46.656H101.896V42.72H103.88V41.088H95.976V38.752H105.864V32.832H108.168V38.752H118.056V41.088H106.184V42.72H110.152V44.704H112.136V48.64H113.768V46.656H117.704V44.704H121.992V47.008H118.056V48.992H114.088V50.976H112.136V58.88H109.8V52.96H106.184V54.912H104.232V60.512H120.04V62.88H103.88V60.896H101.896V54.592H103.88V52.608H105.864V50.624H109.8V45.024H104.232V47.008H102.248V48.992H100.264V52.96H98.28V54.912H95.976V52.608ZM128.008 38.72H139.848V32.8H142.184V38.72H154.024V41.056H128.008V38.72ZM125.992 58.496H141.832V56.544H143.816V52.576H145.8V48.608H147.752V42.688H150.088V48.96H148.104V52.928H146.12V56.864H144.168V58.496H156.008V60.864H125.992V58.496ZM135.912 52.928H133.928V48.96H131.944V44.672H134.28V48.608H136.264V52.576H138.216V56.864H135.912V52.928ZM166.92 46.656H168.904V44.704H170.888V42.72H172.84V40.736H174.824V39.104H158.984V36.768H187.016V39.104H179.112V41.088H175.176V43.072H173.192V45.024H171.208V47.008H169.256V54.592H171.208V56.576H173.192V58.528H183.08V60.896H172.84V58.88H168.904V54.912H166.92V46.656ZM198.92 46.656H200.904V44.704H202.888V42.72H204.84V40.736H206.824V39.104H190.984V36.768H219.016V39.104H211.112V41.088H207.176V43.072H205.192V45.024H203.208V47.008H201.256V54.592H203.208V56.576H205.192V58.528H215.08V60.896H204.84V58.88H200.904V54.912H198.92V46.656ZM225.96 34.784H248.04V62.848H245.704V60.864H228.264V62.848H225.96V34.784ZM245.704 42.688V37.088H228.264V42.688H245.704ZM245.704 48.608V44.992H228.264V48.608H245.704ZM245.704 58.496V50.944H228.264V58.496H245.704ZM265.896 36.736H269.832V35.104H263.912V32.8H284.008V35.104H278.088V36.736H282.024V44.992H265.896V36.736ZM257.992 44.992H256.36V52.928H253.992V44.672H256.008V41.056H253.992V38.72H257.992V32.8H260.296V38.72H264.264V41.056H260.296V42.688H262.28V44.672H264.264V48.96H261.928V44.992H260.296V62.848H257.992V44.992ZM275.752 36.736V35.104H272.168V36.736H275.752ZM275.752 42.688V39.072H272.168V42.688H275.752ZM269.832 42.688V39.072H268.2V42.688H269.832ZM279.72 42.688V39.072H278.088V42.688H279.72ZM265.896 46.624H282.024V48.96H265.896V46.624ZM263.912 50.592H284.008V52.928H276.104V60.864H274.12V62.848H269.832V60.48H273.8V52.928H263.912V50.592ZM263.912 58.496H265.896V56.544H267.848V54.56H270.184V56.864H268.2V58.848H266.216V60.864H263.912V58.496ZM277.736 54.56H280.072V56.544H282.024V58.496H284.008V60.864H281.672V58.848H279.72V56.864H277.736V54.56ZM287.976 52.608H289.96V48.64H291.912V46.656H293.896V42.72H295.88V41.088H287.976V38.752H297.864V32.832H300.168V38.752H310.056V41.088H298.184V42.72H302.152V44.704H304.136V48.64H305.768V46.656H309.704V44.704H313.992V47.008H310.056V48.992H306.088V50.976H304.136V58.88H301.8V52.96H298.184V54.912H296.232V60.512H312.04V62.88H295.88V60.896H293.896V54.592H295.88V52.608H297.864V50.624H301.8V45.024H296.232V47.008H294.248V48.992H292.264V52.96H290.28V54.912H287.976V52.608ZM327.912 52.576H335.816V50.944H329.896V48.608H335.816V46.976H327.912V44.672H331.848V43.04H327.912V40.704H335.816V39.072H329.896V36.736H335.816V32.8H338.12V36.736H346.024V39.072H338.12V40.704H348.008V43.04H342.088V44.672H346.024V46.976H338.12V48.608H346.024V50.944H338.12V52.576H348.008V54.88H338.12V58.848H335.816V54.88H327.912V52.576ZM323.944 39.072H321.992V37.088H320.008V34.784H322.312V36.736H324.296V38.72H326.28V41.056H323.944V39.072ZM339.752 44.672V43.04H334.184V44.672H339.752ZM321.992 60.48V58.496H323.944V48.96H317.992V46.624H326.28V56.544H328.264V58.496H332.2V60.48H348.008V62.848H331.848V60.864H327.912V58.848H324.296V60.864H322.312V62.848H317.992V60.48H321.992ZM352.008 60.48V54.56H353.992V38.72H365.832V32.8H368.168V38.72H373.736V37.088H371.752V34.784H374.088V36.736H376.072V38.72H380.008V41.056H368.168V48.608H370.12V52.576H371.752V48.608H373.736V44.672H376.072V48.96H374.088V52.928H372.104V56.544H374.088V58.496H376.072V60.48H377.672V54.56H380.008V60.864H378.024V62.848H375.72V60.864H373.736V58.848H371.752V56.864H368.168V58.848H366.184V60.864H363.848V58.496H365.832V56.544H367.816V54.56H369.8V52.928H367.816V48.96H365.832V41.056H356.296V46.624H364.2V56.864H362.216V58.848H357.928V56.544H361.896V48.96H356.296V54.88H354.312V60.864H352.36V62.848H349.992V60.48H352.008ZM394.888 60.512V58.528H396.84V56.576H398.824V52.96H397.192V54.912H390.92V52.96H388.936V46.656H390.92V44.704H397.192V46.656H398.824V41.088H382.984V38.752H398.824V32.832H401.16V38.752H411.016V41.088H401.16V56.896H399.176V58.88H397.192V60.896H395.208V62.88H390.92V60.512H394.888ZM396.84 52.608V50.624H398.824V48.992H396.84V47.008H391.272V52.608H396.84ZM418.952 54.592H420.904V52.608H427.176V54.592H429.16V58.528H434.76V56.576H436.712V54.592H438.696V50.976H436.712V48.992H423.24V50.976H419.272V52.96H416.968V50.624H418.952V48.64H422.888V46.656H424.872V44.704H426.856V42.72H430.792V40.736H432.776V39.104H418.952V36.768H437.064V39.104H435.08V41.088H433.128V43.072H431.144V45.024H427.176V46.656H437.064V48.64H439.048V50.624H441.032V54.912H439.048V58.88H435.08V60.896H420.904V58.88H418.952V54.592ZM426.856 58.528V54.912H421.256V58.528H426.856ZM446.984 34.784H455.24V38.72H456.872V36.736H458.824V32.8H461.16V34.784H465.096V38.72H467.08V40.704H468.712V38.72H470.696V37.088H466.728V34.784H473V39.072H471.048V41.056H469.064V42.688H471.048V44.672H474.984V46.976H471.048V48.96H458.824V46.976H455.24V52.928H453.256V54.88H449.288V62.848H446.984V34.784ZM450.92 42.688V40.704H452.904V37.088H449.288V42.688H450.92ZM462.792 38.72V37.088H461.16V38.72H462.792ZM470.696 46.624V44.992H468.712V43.04H466.728V41.056H464.776V39.072H463.144V43.04H461.16V44.992H459.176V46.624H470.696ZM460.808 40.704V39.072H457.192V40.704H460.808ZM454.888 46.624V44.672H458.824V43.04H456.872V41.056H453.256V43.04H451.272V44.672H453.256V46.624H454.888ZM452.904 52.576V46.976H450.92V44.992H449.288V52.576H452.904ZM462.792 60.48V52.928H456.872V50.592H474.984V52.928H465.096V60.864H463.144V62.848H458.824V60.48H462.792ZM466.728 54.56H469.064V56.544H471.048V58.496H474.984V60.864H470.696V58.848H468.712V56.864H466.728V54.56ZM454.888 58.496H456.872V56.544H458.824V54.56H461.16V56.864H459.176V58.848H457.192V60.864H454.888V58.496ZM480.968 40.736H482.952V34.816H485.256V41.088H483.272V60.896H480.968V40.736ZM488.872 38.752H505.032V41.088H488.872V38.752ZM488.872 52.608H491.176V56.576H493.16V58.528H505.032V60.896H492.808V58.88H490.856V56.896H488.872V52.608ZM517.896 54.592H519.88V52.608H529.768V43.072H517.896V40.736H529.768V34.816H532.072V40.736H537.992V43.072H532.072V54.592H534.056V56.576H536.04V58.528H537.992V60.896H535.688V58.88H533.704V56.896H532.072V58.88H530.088V60.896H519.88V58.88H517.896V54.592ZM511.976 38.752H513.96V34.816H516.264V39.104H514.28V60.896H511.976V38.752ZM529.768 58.528V54.912H520.232V58.528H529.768ZM543.016 54.592H545.32V56.576H547.304V58.528H549.288V62.88H546.952V60.896H545V58.88H543.016V54.592ZM41.896 78.976H37.928V76.672H41.896V70.72H44.2V74.688H47.816V64.8H50.12V72.704H53.736V70.72H58.024V82.944H56.072V84.928H51.752V82.592H55.72V73.056H54.088V75.04H50.12V86.88H47.816V76.992H44.2V92.48H57.672V86.56H60.008V92.864H58.024V94.848H43.848V92.864H41.896V78.976ZM33.992 80.96H32.36V82.944H29.992V80.608H32.008V76.672H33.992V72.704H35.944V68.736H37.928V64.8H40.264V69.088H38.28V73.056H36.296V94.848H33.992V80.96ZM64.008 92.48V90.496H65.992V88.544H67.944V86.56H69.928V84.576H71.912V82.592H73.896V78.624H75.848V64.8H78.184V78.624H80.168V82.592H82.12V86.56H84.104V88.544H86.088V90.496H88.072V92.48H92.008V94.848H87.72V92.864H85.736V90.848H83.752V88.864H81.8V86.88H79.816V82.944H77.832V78.976H76.2V82.944H74.216V84.928H72.264V86.88H70.28V88.864H68.296V90.848H66.312V92.864H64.36V94.848H61.992V92.48H64.008ZM97 88.896H94.984V78.656H97V74.72H98.984V72.736H100.936V70.752H104.904V68.768H115.112V70.752H119.08V72.736H121.064V76.704H123.016V86.912H121.064V90.88H119.08V92.896H115.112V94.88H108.84V92.512H114.792V90.528H118.728V86.592H120.712V77.024H118.728V73.088H114.792V71.104H111.176V77.024H109.192V82.976H107.208V86.912H105.256V90.88H103.272V92.896H98.984V90.88H97V88.896ZM99.304 88.576V90.528H102.92V86.592H104.904V82.624H106.888V76.704H108.84V71.104H105.256V73.088H101.288V75.072H99.304V79.008H97.352V88.576H99.304ZM125.992 72.704H135.912V71.072H133.928V69.088H129.992V66.784H139.848V64.8H142.184V66.784H152.072V69.088H148.104V71.072H146.12V72.704H156.008V75.04H125.992V72.704ZM143.816 72.704V70.72H145.8V69.088H136.264V70.72H138.216V72.704H143.816ZM133.928 86.88H131.944V76.672H150.088V86.88H142.184V88.544H144.168V90.848H141.832V88.864H139.848V86.88H136.264V92.48H147.752V88.544H150.088V92.864H148.104V94.848H135.912V92.864H133.928V86.88ZM147.752 80.608V78.976H134.28V80.608H147.752ZM147.752 84.576V82.944H134.28V84.576H147.752ZM125.992 90.496H128.008V86.56H130.312V90.848H128.36V92.864H125.992V90.496ZM151.72 86.56H154.024V88.544H156.008V92.864H153.672V88.864H151.72V86.56ZM163.944 92.48V90.496H167.912V86.88H163.944V64.8H182.088V86.88H178.12V92.48H185.672V86.56H188.008V92.864H186.024V94.848H177.8V92.864H175.816V86.88H170.216V90.848H168.264V92.864H164.296V94.848H157.992V92.48H163.944ZM179.752 70.72V67.104H166.28V70.72H179.752ZM179.752 76.672V73.056H166.28V76.672H179.752ZM179.752 84.576V78.976H166.28V84.576H179.752ZM198.92 80.992H196.936V79.008H193.352V80.992H190.984V78.656H193V76.704H196.936V73.088H194.984V66.816H197.288V72.736H199.272V74.72H202.888V72.736H206.824V69.12H204.84V64.832H207.176V68.768H209.16V72.736H215.08V74.72H217.064V76.704H219.016V82.976H217.064V84.96H213.096V86.912H204.84V84.608H212.744V82.624H216.712V77.024H214.728V75.072H203.208V77.024H199.272V80.64H201.256V88.576H203.208V94.88H200.904V88.896H198.92V80.992ZM221.992 82.592H224.008V78.624H225.992V68.736H237.832V64.8H240.168V68.736H247.72V67.104H245.736V64.8H248.072V66.784H250.024V68.736H252.008V71.072H240.168V74.688H242.12V78.624H243.752V76.672H245.736V72.704H248.072V76.992H246.088V78.976H244.104V80.608H246.088V82.592H249.672V78.624H252.008V82.944H250.024V84.928H245.736V82.944H243.752V80.96H242.12V82.944H240.168V84.928H238.184V86.56H240.168V88.864H237.832V86.88H235.848V84.576H237.832V82.944H229.928V76.672H238.184V82.592H239.816V80.608H241.8V78.976H239.816V75.04H228.296V78.976H226.312V82.944H224.36V84.928H221.992V82.592ZM237.832 72.704V71.072H228.296V72.704H237.832ZM235.848 80.608V78.976H232.264V80.608H235.848ZM231.912 86.56H234.216V92.48H243.752V88.544H246.088V92.864H244.104V94.848H233.896V92.864H231.912V86.56ZM247.72 86.56H250.024V90.496H252.008V94.848H249.672V90.848H247.72V86.56ZM224.008 90.496H225.992V86.56H228.296V90.848H226.312V94.848H224.008V90.496ZM259.944 64.8H262.28V70.72H264.264V72.704H266.216V74.688H273.8V73.056H267.848V70.72H273.8V69.088H265.896V66.784H273.8V64.8H276.104V66.784H284.008V69.088H276.104V70.72H282.024V73.056H276.104V74.688H284.008V76.992H265.896V75.04H263.912V73.056H262.28V94.848H259.944V64.8ZM253.992 76.672H256.008V72.704H258.312V76.992H256.36V80.96H253.992V76.672ZM267.848 78.624H282.024V92.864H280.072V94.848H273.8V92.48H279.72V88.864H270.184V94.848H267.848V78.624ZM279.72 82.592V80.96H270.184V82.592H279.72ZM279.72 86.56V84.928H270.184V86.56H279.72ZM292.936 80.992H286.984V78.656H292.936V73.088H289V70.752H294.92V64.832H297.256V70.752H305.16V73.088H295.272V78.656H305.16V80.992H295.272V90.528H297.256V92.512H308.744V90.528H310.728V88.576H312.712V80.992H310.728V77.024H308.744V74.72H311.08V76.704H313.064V80.64H315.016V88.896H313.064V90.88H311.08V92.896H309.096V94.88H296.904V92.896H294.92V90.88H292.936V80.992ZM317.992 82.592H325.928V80.608H329.896V78.624H331.848V76.992H320.008V74.688H331.848V71.072H323.944V68.736H331.848V64.8H334.184V68.736H340.104V70.72H341.736V68.736H343.72V66.784H346.024V69.088H344.072V71.072H342.088V73.056H340.104V74.688H348.008V76.992H334.184V78.976H332.2V80.608H337.8V78.624H346.024V80.96H338.12V82.944H330.216V84.576H344.072V90.848H342.088V92.864H340.104V94.848H331.848V92.48H339.752V90.496H341.736V86.88H328.264V90.848H325.928V86.56H327.912V82.944H326.28V84.928H317.992V82.592ZM337.8 74.688V72.704H339.752V71.072H334.184V74.688H337.8ZM352.008 92.48V86.56H353.992V68.736H363.848V64.8H376.072V67.104H366.184V68.736H380.008V73.056H377.672V71.072H372.104V73.056H366.184V74.688H373.736V72.704H376.072V75.04H374.088V76.672H378.024V86.88H370.12V88.544H372.104V90.848H369.8V88.864H365.832V86.88H357.928V76.672H365.832V75.04H357.928V72.704H363.848V71.072H356.296V86.88H354.312V92.864H352.36V94.848H349.992V92.48H352.008ZM375.72 80.608V78.976H368.168V80.608H375.72ZM365.832 80.608V78.976H360.264V80.608H365.832ZM375.72 84.576V82.944H368.168V84.576H375.72ZM365.832 84.576V82.944H360.264V84.576H365.832ZM361.896 88.544H364.2V92.48H373.736V90.496H375.72V88.544H378.024V90.496H380.008V94.848H377.672V90.848H376.072V94.848H363.848V92.864H361.896V88.544ZM357.928 92.48V88.544H360.264V92.864H358.28V94.848H355.944V92.48H357.928ZM384.968 66.816H387.272V88.576H389.256V90.528H398.792V88.576H402.728V86.592H404.712V84.608H406.696V82.624H409V84.96H407.048V86.912H405.064V88.896H403.08V90.88H399.144V92.896H388.904V90.88H386.92V88.896H384.968V66.816ZM414.984 86.592H416.968V82.624H418.92V78.656H420.904V74.72H422.888V73.088H414.984V70.752H422.888V68.768H424.872V64.832H427.176V69.12H425.192V70.752H431.144V73.088H425.192V75.072H423.24V79.008H421.256V82.976H419.272V86.912H417.288V88.896H414.984V86.592ZM432.776 70.752H441V72.736H442.984V75.072H440.648V73.088H432.776V70.752ZM422.888 86.592H424.872V84.608H432.776V76.704H435.08V86.592H437.064V88.576H439.048V90.528H441V92.896H438.696V90.88H436.712V88.896H435.08V90.88H433.096V92.896H431.144V94.88H424.872V92.896H422.888V86.592ZM430.792 92.512V90.528H432.776V86.912H425.192V92.512H430.792ZM446.984 88.576H448.968V84.608H450.92V78.656H452.904V75.072H446.984V72.736H454.888V64.832H457.192V72.736H463.144V74.72H465.096V86.912H463.144V90.88H461.16V92.896H452.904V90.528H460.808V86.592H462.792V75.072H455.24V79.008H453.256V84.96H451.272V88.896H449.288V92.896H446.984V88.576ZM468.712 69.12H466.728V66.816H468.712V64.832H471.048V66.816H473V68.768H474.984V71.104H473V73.088H470.696V71.104H468.712V69.12ZM470.696 68.768V67.136H469.064V68.768H470.696ZM472.648 70.752V69.12H471.048V70.752H472.648ZM464.776 70.752H467.08V72.736H469.064V74.72H471.048V76.704H473V80.64H474.984V82.976H472.648V80.992H470.696V77.024H468.712V75.072H466.728V73.088H464.776V70.752ZM483.912 66.816H496.136V68.768H500.072V71.104H495.784V69.12H483.912V66.816ZM483.912 90.528H497.768V88.576H501.704V82.976H499.72V80.992H490.184V82.976H486.248V84.96H481.96V76.704H483.912V72.736H486.248V77.024H484.264V82.624H485.896V80.64H489.864V78.656H500.072V80.64H502.056V82.624H504.04V88.896H502.056V90.88H498.088V92.896H483.912V90.528ZM521.896 75.04H520.264V76.992H517.928V74.688H519.912V72.704H521.896V68.736H523.848V64.8H526.184V68.736H529.8V66.784H531.752V64.8H534.088V67.104H532.104V68.736H538.024V71.072H530.12V74.688H536.072V76.992H530.12V78.624H536.072V80.96H530.12V84.576H538.024V86.88H521.896V75.04ZM515.944 71.072H513.992V69.088H512.008V66.784H514.312V68.736H516.296V70.72H518.28V73.056H515.944V71.072ZM527.816 74.688V71.072H524.2V74.688H527.816ZM527.816 78.624V76.992H524.2V78.624H527.816ZM513.992 92.48V90.496H515.944V80.96H509.992V78.624H518.28V88.544H520.264V90.496H540.008V92.864H519.912V90.848H516.296V92.864H514.312V94.848H509.992V92.48H513.992ZM527.816 84.576V80.96H524.2V84.576H527.816ZM542.984 80.64H545V78.656H546.984V66.816H549.288V74.72H552.904V72.736H560.808V66.816H563.112V74.72H567.08V76.704H569.064V78.656H571.016V86.912H569.064V88.896H567.08V90.88H565.096V92.896H563.112V94.88H558.824V92.512H562.792V90.528H564.744V88.576H566.728V86.592H568.712V79.008H566.728V77.024H562.792V75.072H561.16V77.024H559.176V80.992H557.192V84.96H555.208V86.912H553.256V88.576H555.208V90.88H552.904V88.896H551.272V90.88H549.288V92.896H545V90.88H542.984V80.64ZM554.888 84.608V80.64H556.84V76.704H558.824V75.072H553.256V77.024H551.272V84.608H554.888ZM548.936 90.528V88.576H550.92V84.96H548.936V79.008H547.304V80.992H545.352V90.528H548.936ZM578.952 86.592H580.904V84.608H587.176V86.592H589.16V90.528H594.76V88.576H596.712V86.592H598.696V82.976H596.712V80.992H583.24V82.976H579.272V84.96H576.968V82.624H578.952V80.64H582.888V78.656H584.872V76.704H586.856V74.72H590.792V72.736H592.776V71.104H578.952V68.768H597.064V71.104H595.08V73.088H593.128V75.072H591.144V77.024H587.176V78.656H597.064V80.64H599.048V82.624H601.032V86.912H599.048V90.88H595.08V92.896H580.904V90.88H578.952V86.592ZM586.856 90.528V86.912H581.256V90.528H586.856ZM608.968 82.624H610.952V80.64H612.904V78.656H616.872V64.832H619.176V76.704H622.792V74.72H633.032V77.024H623.144V79.008H617.224V80.992H613.256V82.976H611.272V88.576H615.24V90.528H633.032V92.896H614.888V90.88H610.952V88.896H608.968V82.624ZM33.992 124.48V100.736H41.896V96.8H44.2V100.736H54.088V114.944H44.2V116.576H46.184V118.56H48.168V120.544H51.752V118.56H53.736V116.576H55.72V114.592H58.024V116.928H56.072V118.88H54.088V120.864H52.104V122.496H56.072V124.48H60.008V126.848H55.72V124.864H51.752V122.848H47.816V120.864H45.832V118.88H43.848V116.928H41.896V114.944H36.296V124.48H37.928V122.496H44.2V124.864H38.28V126.848H29.992V124.48H33.992ZM51.752 106.688V103.072H36.296V106.688H51.752ZM51.752 112.608V108.992H36.296V112.608H51.752ZM65.96 118.912H63.976V100.768H66.28V118.592H68.264V122.528H73.864V120.576H75.816V116.608H78.152V120.896H76.168V122.88H74.184V124.896H67.912V122.88H65.96V118.912ZM85.704 109.024H83.72V105.088H81.768V100.768H84.072V104.736H86.056V108.704H88.04V114.624H89.992V120.896H87.688V114.976H85.704V109.024ZM99.944 114.944H93.992V112.608H96.008V110.624H97.992V108.672H99.944V107.04H97.992V105.056H96.008V103.072H93.992V100.736H96.36V102.72H97.992V100.736H99.944V96.8H102.28V101.088H100.296V103.072H98.312V104.704H100.296V106.688H101.928V104.704H103.912V100.736H106.216V105.056H104.264V107.04H102.28V108.992H100.296V110.976H98.312V112.608H103.912V108.672H106.216V112.608H108.2V114.944H105.896V112.96H104.264V114.944H102.28V126.848H99.944V114.944ZM109.832 108.672H113.8V103.072H107.848V100.736H113.8V96.8H116.104V100.736H124.008V103.072H116.104V108.672H122.024V110.976H109.832V108.672ZM109.832 114.592H122.024V126.848H119.72V124.864H112.168V126.848H109.832V114.592ZM93.992 120.544H96.008V116.576H98.312V120.864H96.36V124.864H93.992V120.544ZM103.912 116.576H106.216V118.56H108.2V122.848H105.896V118.88H103.912V116.576ZM119.72 122.496V116.928H112.168V122.496H119.72ZM125.992 122.496H129.992V120.544H133.928V118.56H137.896V116.928H125.992V114.592H139.848V110.976H129.992V96.8H152.072V110.976H142.184V114.592H156.008V116.928H146.12V118.56H148.104V120.544H152.072V122.496H156.008V124.864H151.72V122.848H147.752V120.864H145.8V118.88H143.816V116.928H142.184V126.848H139.848V118.88H138.216V120.864H134.28V122.848H130.312V124.864H125.992V122.496ZM139.848 102.72V99.104H132.296V102.72H139.848ZM149.736 102.72V99.104H142.184V102.72H149.736ZM149.736 108.672V105.056H142.184V108.672H149.736ZM139.848 108.672V105.056H132.296V108.672H139.848ZM158.984 120.576H160.968V116.608H162.92V110.656H164.904V107.072H158.984V104.736H166.888V96.832H169.192V104.736H175.144V106.72H177.096V118.912H175.144V122.88H173.16V124.896H164.904V122.528H172.808V118.592H174.792V107.072H167.24V111.008H165.256V116.96H163.272V120.896H161.288V124.896H158.984V120.576ZM180.712 101.12H178.728V98.816H180.712V96.832H183.048V98.816H185V100.768H186.984V103.104H185V105.088H182.696V103.104H180.712V101.12ZM182.696 100.768V99.136H181.064V100.768H182.696ZM184.648 102.752V101.12H183.048V102.752H184.648ZM176.776 102.752H179.08V104.736H181.064V106.72H183.048V108.704H185V112.64H186.984V114.976H184.648V112.992H182.696V109.024H180.712V107.072H178.728V105.088H176.776V102.752ZM203.848 96.8H216.072V108.992H203.848V96.8ZM192.008 104.704H193.992V102.72H195.944V98.784H197.928V96.8H200.264V99.104H198.28V103.072H196.296V105.056H194.312V107.04H192.008V104.704ZM213.736 100.736V99.104H206.184V100.736H213.736ZM213.736 106.688V103.072H206.184V106.688H213.736ZM195.944 112.96H194.312V114.944H189.992V112.608H193.992V110.624H195.944V108.672H197.928V106.688H199.912V104.704H202.216V107.04H200.264V108.992H198.28V126.848H195.944V112.96ZM199.912 114.592H211.752V112.96H201.896V110.624H218.024V112.96H214.088V114.592H220.008V116.928H214.088V124.864H212.104V126.848H205.832V124.48H211.752V116.928H199.912V114.592ZM203.848 118.56H206.184V120.544H208.168V122.848H205.832V120.864H203.848V118.56ZM227.912 98.816H240.136V100.768H244.072V103.104H239.784V101.12H227.912V98.816ZM227.912 122.528H241.768V120.576H245.704V114.976H243.72V112.992H234.184V114.976H230.248V116.96H225.96V108.704H227.912V104.736H230.248V109.024H228.264V114.624H229.896V112.64H233.864V110.656H244.072V112.64H246.056V114.624H248.04V120.896H246.056V122.88H242.088V124.896H227.912V122.528ZM253.992 120.576H256.008V116.608H257.992V112.64H259.944V107.072H253.992V104.736H259.944V96.832H262.28V110.656H263.912V108.704H265.896V106.72H267.848V104.736H269.832V102.752H276.104V104.736H278.088V114.976H276.104V122.528H281.672V120.576H284.008V122.88H282.024V124.896H275.752V122.88H273.8V114.624H275.752V105.088H270.184V107.072H268.2V109.024H266.216V111.008H264.264V112.992H262.28V126.88H259.944V116.96H258.312V120.896H256.36V124.896H253.992V120.576ZM288.968 118.592H290.952V116.608H300.808V111.008H288.968V108.704H300.808V105.088H288.968V102.752H300.808V96.832H303.144V102.752H313.032V105.088H303.144V108.704H313.032V111.008H303.144V118.592H307.08V120.576H309.064V122.528H311.048V124.512H313.032V126.88H310.696V124.896H308.712V122.88H306.76V120.896H303.144V124.896H301.16V126.88H290.952V124.896H288.968V118.592ZM300.808 124.512V118.912H291.272V124.512H300.808ZM330.888 124.512V122.528H332.84V120.576H334.824V116.96H333.192V118.912H326.92V116.96H324.936V110.656H326.92V108.704H333.192V110.656H334.824V105.088H318.984V102.752H334.824V96.832H337.16V102.752H347.016V105.088H337.16V120.896H335.176V122.88H333.192V124.896H331.208V126.88H326.92V124.512H330.888ZM332.84 116.608V114.624H334.824V112.992H332.84V111.008H327.272V116.608H332.84ZM351.016 118.592H353V116.608H359.272V118.592H361.224V124.896H359.272V126.88H353V124.896H351.016V118.592ZM358.92 124.512V118.912H353.32V124.512H358.92ZM382.984 122.528H386.984V120.576H390.92V118.592H394.888V116.608H396.84V114.624H398.824V110.656H400.808V106.72H402.792V103.104H385V100.768H405.096V107.072H403.112V111.008H401.16V114.624H403.112V116.608H405.096V118.592H407.08V120.576H409.064V122.528H411.016V124.896H408.712V122.88H406.728V120.896H404.744V118.912H402.792V116.96H400.808V114.976H399.176V116.96H397.192V118.912H395.208V120.896H391.272V122.88H387.304V124.896H382.984V122.528ZM418.92 96.832H421.256V106.72H425.192V108.704H431.144V110.656H435.08V112.64H439.048V114.976H434.728V112.992H430.792V111.008H424.872V109.024H421.256V126.88H418.92V96.832ZM448.968 98.816H451.272V122.528H454.888V120.576H458.824V118.592H462.792V116.608H464.776V114.624H466.728V112.64H468.712V110.656H470.696V108.704H473V111.008H471.048V112.992H469.064V114.976H467.08V116.96H465.096V118.912H463.144V120.896H459.176V122.88H455.24V124.896H448.968V98.816ZM478.984 122.528H482.984V120.576H486.92V118.592H490.888V116.608H492.84V114.624H494.824V110.656H496.808V106.72H498.792V103.104H481V100.768H501.096V107.072H499.112V111.008H497.16V114.624H499.112V116.608H501.096V118.592H503.08V120.576H505.064V122.528H507.016V124.896H504.712V122.88H502.728V120.896H500.744V118.912H498.792V116.96H496.808V114.976H495.176V116.96H493.192V118.912H491.208V120.896H487.272V122.88H483.304V124.896H478.984V122.528ZM509.992 102.72H512.008V100.736H513.992V96.8H516.296V98.784H526.184V100.736H527.816V96.8H530.12V98.784H540.008V101.088H534.088V102.72H536.072V104.704H540.008V110.976H537.672V107.04H512.36V110.976H509.992V102.72ZM533.736 104.704V103.072H531.752V101.088H528.168V103.072H526.184V104.704H533.736ZM519.912 104.704V103.072H517.928V101.088H514.312V103.072H512.36V104.704H519.912ZM523.848 104.704V102.72H525.832V101.088H520.264V102.72H522.216V104.704H523.848ZM515.944 108.672H534.088V114.944H518.28V116.576H536.072V126.848H533.736V124.864H518.28V126.848H515.944V108.672ZM531.752 112.608V110.976H518.28V112.608H531.752ZM533.736 122.496V118.88H518.28V122.496H533.736ZM559.816 124.48V120.864H553.896V118.56H559.816V114.944H553.896V98.784H570.024V114.944H562.12V118.56H570.024V120.864H562.12V124.48H572.008V126.848H551.912V124.48H559.816ZM541.992 122.496H545.992V112.96H541.992V110.624H545.992V103.072H541.992V100.736H552.264V103.072H548.296V110.624H552.264V112.96H548.296V120.544H552.264V122.848H546.312V124.864H541.992V122.496ZM567.72 104.704V101.088H562.12V104.704H567.72ZM559.816 104.704V101.088H556.2V104.704H559.816ZM567.72 112.608V107.04H562.12V112.608H567.72ZM559.816 112.608V107.04H556.2V112.608H559.816ZM580.936 112.992H574.984V110.656H580.936V105.088H577V102.752H582.92V96.832H585.256V102.752H593.16V105.088H583.272V110.656H593.16V112.992H583.272V122.528H585.256V124.512H596.744V122.528H598.728V120.576H600.712V112.992H598.728V109.024H596.744V106.72H599.08V108.704H601.064V112.64H603.016V120.896H601.064V122.88H599.08V124.896H597.096V126.88H584.904V124.896H582.92V122.88H580.936V112.992ZM609.992 124.48V122.496H611.944V120.544H613.928V118.56H615.912V114.592H617.896V110.624H619.848V108.992H605.992V106.688H619.848V96.8H622.184V106.688H636.008V108.992H622.184V110.624H624.168V114.592H626.12V118.56H628.104V120.544H630.088V122.496H632.072V124.48H636.008V126.848H631.72V124.864H629.736V122.848H627.752V120.864H625.8V118.88H623.816V114.944H621.832V110.976H620.2V114.944H618.216V118.88H616.264V120.864H614.28V122.848H612.296V124.864H610.312V126.848H605.992V124.48H609.992ZM642.984 110.976H638.984V108.672H642.984V96.8H645.288V106.688H648.904V104.704H653.192V107.04H649.256V108.992H645.288V120.544H650.888V114.592H653.192V120.864H651.208V122.848H644.936V120.864H642.984V110.976ZM652.84 124.48V122.496H654.824V118.56H656.808V103.072H652.84V100.736H667.016V122.848H665.064V124.864H660.744V122.496H664.712V103.072H659.112V118.88H657.16V122.848H655.176V124.864H653.192V126.848H650.888V124.48H652.84ZM670.984 118.592H672.968V114.624H674.92V110.656H676.904V106.72H678.888V105.088H670.984V102.752H678.888V100.768H680.872V96.832H683.176V101.12H681.192V102.752H687.144V105.088H681.192V107.072H679.24V111.008H677.256V114.976H675.272V118.912H673.288V120.896H670.984V118.592ZM688.776 102.752H697V104.736H698.984V107.072H696.648V105.088H688.776V102.752ZM678.888 118.592H680.872V116.608H688.776V108.704H691.08V118.592H693.064V120.576H695.048V122.528H697V124.896H694.696V122.88H692.712V120.896H691.08V122.88H689.096V124.896H687.144V126.88H680.872V124.896H678.888V118.592ZM686.792 124.512V122.528H688.776V118.912H681.192V124.512H686.792ZM705 120.896H702.984V110.656H705V106.72H706.984V104.736H708.936V102.752H712.904V100.768H723.112V102.752H727.08V104.736H729.064V108.704H731.016V118.912H729.064V122.88H727.08V124.896H723.112V126.88H716.84V124.512H722.792V122.528H726.728V118.592H728.712V109.024H726.728V105.088H722.792V103.104H719.176V109.024H717.192V114.976H715.208V118.912H713.256V122.88H711.272V124.896H706.984V122.88H705V120.896ZM707.304 120.576V122.528H710.92V118.592H712.904V114.624H714.888V108.704H716.84V103.104H713.256V105.088H709.288V107.072H707.304V111.008H705.352V120.576H707.304ZM741.928 110.656H743.912V108.704H745.896V106.72H747.848V104.736H749.832V103.104H733.992V100.768H762.024V103.104H754.12V105.088H750.184V107.072H748.2V109.024H746.216V111.008H744.264V118.592H746.216V120.576H748.2V122.528H758.088V124.896H747.848V122.88H743.912V118.912H741.928V110.656ZM757.736 104.736H760.072V106.72H762.024V108.704H764.008V111.008H761.672V109.024H759.72V107.072H757.736V104.736ZM753.8 106.72H756.104V108.704H758.088V110.656H760.072V112.992H757.736V111.008H755.752V109.024H753.8V106.72ZM767.016 118.592H769.32V120.576H771.304V122.528H773.288V126.88H770.952V124.896H769V122.88H767.016V118.592ZM33.992 156.48V154.496H35.944V144.96H29.992V142.624H38.28V152.544H39.912V138.688H45.832V137.056H43.848V135.072H39.912V132.736H47.816V128.8H50.12V132.736H60.008V135.072H54.088V137.056H52.104V138.688H58.024V152.864H56.072V154.848H51.752V152.864H43.848V146.592H47.816V144.96H42.216V154.496H44.2V156.48H60.008V158.848H43.848V156.864H39.912V154.848H36.296V156.864H34.312V158.848H29.992V156.48H33.992ZM35.944 135.072H33.992V133.088H32.008V130.784H34.312V132.736H36.296V134.72H38.28V137.056H35.944V135.072ZM49.8 138.688V136.704H51.752V135.072H46.184V136.704H48.168V138.688H49.8ZM55.72 142.624V140.992H50.12V142.624H55.72ZM47.816 142.624V140.992H42.216V142.624H47.816ZM54.088 146.592V152.544H55.72V144.96H50.12V146.592H54.088ZM51.752 150.56V148.928H46.184V150.56H51.752ZM61.992 154.496H64.008V148.576H65.992V132.736H77.832V128.8H80.168V132.736H90.024V135.072H84.104V138.688H90.024V140.992H84.104V144.96H73.896V140.992H68.296V148.928H66.312V154.848H64.36V158.848H61.992V154.496ZM73.896 138.688V135.072H68.296V138.688H73.896ZM81.8 138.688V135.072H76.2V138.688H81.8ZM81.8 142.624V140.992H76.2V142.624H81.8ZM73.896 156.48V154.496H77.832V152.864H75.848V150.88H73.896V148.928H69.928V146.592H88.072V148.928H86.088V150.88H84.104V152.864H82.12V154.496H86.088V156.48H92.008V158.848H85.736V156.864H81.8V154.848H78.184V156.864H74.216V158.848H67.944V156.48H73.896ZM78.184 150.56V152.544H81.8V150.56H83.752V148.928H76.2V150.56H78.184ZM96.968 136.736H98.952V130.816H101.256V137.088H99.272V156.896H96.968V136.736ZM104.872 134.752H121.032V137.088H104.872V134.752ZM104.872 148.608H107.176V152.576H109.16V154.528H121.032V156.896H108.808V154.88H106.856V152.896H104.872V148.608ZM140.808 156.512V154.528H144.776V152.576H146.76V148.608H148.712V130.816H151.048V148.96H149.064V152.896H147.08V154.88H145.128V156.896H141.16V158.88H132.904V156.512H140.808ZM130.952 130.816H133.256V148.96H130.952V130.816ZM162.952 130.816H183.048V133.12H162.952V130.816ZM172.808 156.512V154.528H176.776V152.576H178.76V150.592H180.712V146.624H182.696V141.024H160.968V138.72H185.032V146.976H183.048V150.912H181.064V152.896H179.08V154.88H177.128V156.896H173.16V158.88H162.952V156.512H172.808ZM203.848 139.072H201.864V137.088H199.88V134.752H202.216V136.736H204.168V138.72H206.152V143.008H203.848V139.072ZM197.896 154.528H203.848V152.576H207.784V150.592H209.768V148.608H211.752V144.64H213.704V136.736H216.04V144.992H214.056V148.96H212.072V150.912H210.12V152.896H208.136V154.88H204.168V156.896H197.896V154.528ZM197.896 141.024H195.944V139.072H193.96V136.736H196.264V138.72H198.248V140.704H200.232V144.992H197.896V141.024ZM230.888 156.512V154.528H234.856V152.576H238.792V150.592H240.776V148.608H242.76V144.64H244.712V140.704H246.696V137.088H233.224V141.024H231.24V143.008H229.256V144.992H227.272V146.976H224.968V144.64H226.952V142.656H228.904V140.704H230.888V136.736H232.872V132.768H234.856V128.832H237.16V133.12H235.176V134.752H249.032V141.024H247.048V144.992H245.064V148.96H243.08V150.912H241.128V152.896H239.144V154.88H235.176V156.896H231.24V158.88H224.968V156.512H230.888ZM254.984 154.528H258.984V152.576H262.92V150.592H266.888V148.608H268.84V146.624H270.824V142.656H272.808V138.72H274.792V135.104H257V132.768H277.096V139.072H275.112V143.008H273.16V146.624H275.112V148.608H277.096V150.592H279.08V152.576H281.064V154.528H283.016V156.896H280.712V154.88H278.728V152.896H276.744V150.912H274.792V148.96H272.808V146.976H271.176V148.96H269.192V150.912H267.208V152.896H263.272V154.88H259.304V156.896H254.984V154.528ZM293.928 142.656H295.912V140.704H297.896V138.72H299.848V136.736H301.832V135.104H285.992V132.768H314.024V135.104H306.12V137.088H302.184V139.072H300.2V141.024H298.216V143.008H296.264V150.592H298.216V152.576H300.2V154.528H310.088V156.896H299.848V154.88H295.912V150.912H293.928V142.656ZM309.736 136.736H312.072V138.72H314.024V140.704H316.008V143.008H313.672V141.024H311.72V139.072H309.736V136.736ZM305.8 138.72H308.104V140.704H310.088V142.656H312.072V144.992H309.736V143.008H307.752V141.024H305.8V138.72ZM322.952 148.608H324.904V146.624H338.76V144.992H336.776V143.008H320.968V140.704H334.792V139.072H332.808V137.088H320.968V134.752H330.856V133.12H328.872V128.832H331.176V132.768H333.16V134.752H336.776V132.768H343.048V135.104H337.128V137.088H335.144V138.72H337.128V140.704H338.76V138.72H345.032V141.024H339.08V144.64H341.064V146.624H343.048V148.608H345.032V150.912H340.712V148.96H325.256V154.528H343.048V156.896H324.904V154.88H322.952V148.608ZM354.952 150.592H356.904V148.608H363.176V150.592H365.16V154.528H370.76V152.576H372.712V150.592H374.696V146.976H372.712V144.992H359.24V146.976H355.272V148.96H352.968V146.624H354.952V144.64H358.888V142.656H360.872V140.704H362.856V138.72H366.792V136.736H368.776V135.104H354.952V132.768H373.064V135.104H371.08V137.088H369.128V139.072H367.144V141.024H363.176V142.656H373.064V144.64H375.048V146.624H377.032V150.912H375.048V154.88H371.08V156.896H356.904V154.88H354.952V150.592ZM362.856 154.528V150.912H357.256V154.528H362.856ZM392.872 144.608H404.712V140.992H392.872V138.688H400.776V135.072H394.824V132.736H400.776V128.8H403.08V132.736H409V135.072H403.08V138.688H410.984V140.992H407.048V144.608H410.984V146.944H407.048V156.864H405.064V158.848H398.792V156.48H404.712V146.944H392.872V144.608ZM382.984 132.736H391.24V150.88H385.288V154.848H382.984V132.736ZM388.904 140.672V135.072H385.288V140.672H388.904ZM388.904 148.576V142.976H385.288V148.576H388.904ZM396.808 148.576H399.144V150.56H401.096V152.864H398.792V150.88H396.808V148.576ZM439.688 156.48V140.992H429.8V128.8H441.992V156.864H440.04V158.848H433.768V156.48H439.688ZM415.976 128.8H428.168V140.992H418.28V158.848H415.976V128.8ZM425.864 132.736V131.104H418.28V132.736H425.864ZM439.688 132.736V131.104H432.136V132.736H439.688ZM425.864 138.688V135.072H418.28V138.688H425.864ZM439.688 138.688V135.072H432.136V138.688H439.688ZM421.896 142.624H434.088V154.848H421.896V142.624ZM431.784 146.592V144.96H424.232V146.592H431.784ZM431.784 152.544V148.928H424.232V152.544H431.784ZM447.976 148.608H449.96V144.64H451.912V142.656H453.896V138.72H455.88V137.088H447.976V134.752H457.864V128.832H460.168V134.752H470.056V137.088H458.184V138.72H462.152V140.704H464.136V144.64H465.768V142.656H469.704V140.704H473.992V143.008H470.056V144.992H466.088V146.976H464.136V154.88H461.8V148.96H458.184V150.912H456.232V156.512H472.04V158.88H455.88V156.896H453.896V150.592H455.88V148.608H457.864V146.624H461.8V141.024H456.232V143.008H454.248V144.992H452.264V148.96H450.28V150.912H447.976V148.608ZM480.008 146.944H477.992V142.624H480.008V136.704H481.992V133.088H477.992V130.784H488.264V133.088H484.296V137.056H482.312V140.672H488.264V144.608H489.896V142.624H491.848V139.04H489.896V132.736H497.8V128.8H500.104V132.736H508.008V137.056H505.672V135.072H498.12V137.056H496.168V139.04H494.184V140.672H497.8V138.688H499.752V136.704H502.088V139.04H500.104V140.672H508.008V142.976H500.104V144.608H506.024V146.944H500.104V148.576H506.024V150.88H500.104V154.496H508.008V156.864H494.184V158.848H491.848V144.96H490.216V146.944H488.264V154.848H482.312V158.848H480.008V146.944ZM493.832 138.688V136.704H495.816V135.072H492.2V138.688H493.832ZM485.928 152.544V142.976H482.312V152.544H485.928ZM497.8 144.608V142.976H494.184V144.608H497.8ZM497.8 148.576V146.944H494.184V148.576H497.8ZM497.8 154.496V150.88H494.184V154.496H497.8ZM515.944 142.976H514.312V144.96H512.36V146.944H509.992V144.608H512.008V142.624H513.992V138.688H515.944V134.72H517.928V128.8H520.264V135.072H518.28V154.496H519.912V152.544H521.896V150.56H523.848V148.576H525.832V146.944H519.912V144.608H527.816V140.992H521.896V130.784H538.024V140.992H530.12V144.608H540.008V146.944H532.104V148.576H534.088V150.56H536.072V152.544H538.024V154.496H540.008V156.864H537.672V154.848H535.72V152.864H533.736V150.88H531.752V148.928H530.12V158.848H527.816V148.928H526.184V150.88H524.2V152.864H522.216V154.848H520.264V156.864H518.28V158.848H515.944V142.976ZM535.72 138.688V133.088H524.2V138.688H535.72ZM544.968 130.816H547.272V152.576H549.256V154.528H558.792V152.576H562.728V150.592H564.712V148.608H566.696V146.624H569V148.96H567.048V150.912H565.064V152.896H563.08V154.88H559.144V156.896H548.904V154.88H546.92V152.896H544.968V130.816ZM576.968 150.592H578.952V148.608H588.808V143.008H576.968V140.704H588.808V137.088H576.968V134.752H588.808V128.832H591.144V134.752H601.032V137.088H591.144V140.704H601.032V143.008H591.144V150.592H595.08V152.576H597.064V154.528H599.048V156.512H601.032V158.88H598.696V156.896H596.712V154.88H594.76V152.896H591.144V156.896H589.16V158.88H578.952V156.896H576.968V150.592ZM588.808 156.512V150.912H579.272V156.512H588.808ZM608.968 130.816H611.272V152.576H613.256V154.528H622.792V152.576H626.728V150.592H628.712V148.608H630.696V146.624H633V148.96H631.048V150.912H629.064V152.896H627.08V154.88H623.144V156.896H612.904V154.88H610.92V152.896H608.968V130.816ZM641.96 150.592H643.912V148.608H651.816V134.752H654.152V140.704H662.056V143.008H654.152V150.592H658.088V152.576H662.056V154.528H664.04V156.896H661.704V154.88H657.768V152.896H654.152V154.88H652.168V156.896H643.912V154.88H641.96V150.592ZM651.816 154.528V150.912H644.264V154.528H651.816ZM676.904 130.816H689.128V132.768H695.048V135.104H688.776V133.12H676.904V130.816ZM674.952 154.528H686.792V152.576H690.76V150.592H692.712V148.608H694.696V143.008H692.712V141.024H679.24V143.008H672.968V140.704H678.888V138.72H693.064V140.704H695.048V142.656H697.032V148.96H695.048V150.912H693.064V152.896H691.08V154.88H687.144V156.896H674.952V154.528ZM703.016 150.592H705V148.608H711.272V150.592H713.224V156.896H711.272V158.88H705V156.896H703.016V150.592ZM710.92 156.512V150.912H705.32V156.512H710.92Z"></path>
</svg>
