<svg xmlns="http://www.w3.org/2000/svg" fill="none" viewBox="0 0 40 19" height="19" width="40">
<path fill="black" d="M0.62 7.42H6.82V6.4H5.58V3.92H1.88V2.46H9.28V-4.76837e-07H10.74V2.46H18.14V3.92H14.44V6.4H13.2V7.42H19.38V8.86H0.62V7.42ZM11.76 7.42V6.18H13V3.92H7.04V6.18H8.26V7.42H11.76ZM4.34 9.88H15.68V18.78H14.22V17.54H5.8V18.78H4.34V9.88ZM14.22 12.36V11.34H5.8V12.36H14.22ZM14.22 16.06V13.8H5.8V16.06H14.22ZM23.12 -4.76837e-07H36.92V6.4H23.12V-4.76837e-07ZM35.46 2.46V1.44H24.56V2.46H35.46ZM35.46 4.94V3.92H24.56V4.94H35.46ZM29.28 17.3V16.28H21.88V14.84H29.28V13.8H23.12V8.86H20.62V7.42H39.38V8.86H36.92V13.8H30.74V14.84H38.14V16.28H30.74V17.3H39.38V18.78H20.62V17.3H29.28ZM29.28 9.88V8.86H24.56V9.88H29.28ZM35.46 9.88V8.86H30.74V9.88H35.46ZM29.28 12.36V11.34H24.56V12.36H29.28ZM35.46 12.36V11.34H30.74V12.36H35.46Z"></path>
</svg>
