<svg xmlns="http://www.w3.org/2000/svg" fill="none" viewBox="0 0 12 13" height="13" width="12">
<path fill="white" d="M0.372 7.472H1.128V5.984H1.872V5.372H0.372V4.508H2.604V2.408H0.372V1.544H3.348V0.8H4.956V1.664H3.48V4.508H4.956V5.372H3.48V5.984H4.224V6.728H4.956V7.604H4.092V6.86H3.48V12.068H2.604V6.116H1.992V7.604H1.26V9.08H0.372V7.472ZM5.568 11.18V10.436H6.312V8.96H7.056V7.472H7.8V0.8H8.664V7.472H9.408V8.96H10.152V10.436H10.884V11.18H11.628V12.068H10.752V11.324H10.02V10.568H9.276V9.08H8.532V7.604H7.92V9.08H7.188V10.568H6.444V11.324H5.7V12.068H4.836V11.18H5.568ZM9.276 5.984H10.02V4.508H10.752V3.02H11.628V4.64H10.884V6.116H10.152V6.86H9.276V5.984ZM6.312 5.372H5.568V3.02H6.444V5.252H7.188V6.86H6.312V5.372Z"></path>
</svg>
