<svg version="1.1" xmlns="http://www.w3.org/2000/svg" xmlns:xlink="http://www.w3.org/1999/xlink" width="79.43205" height="32.44767" viewBox="0,0,79.43205,32.44767"><g transform="translate(-207.63889,-163.77617)"><g data-paper-data="{&quot;isPaintingLayer&quot;:true}" fill-rule="nonzero" stroke-linecap="butt" stroke-linejoin="miter" stroke-miterlimit="10" stroke-dasharray="" stroke-dashoffset="0" style="mix-blend-mode: normal"><path d="M214.65303,195.22384c-3.32152,0 -4.66388,-1.25 -4.66388,-1.25c0,0 -1.35026,-1.51295 -1.35026,-3.86616c0,-3.58942 0,-14.16113 0,-20.45581c0,-2.888 1.62826,-3.68865 1.62826,-3.68865c0,0 1.06436,-1.18705 4.38588,-1.18705h65.40377c3.32151,0 4.40389,0.97826 4.40389,0.97826c0,0 1.61025,0.79641 1.61025,3.42956c0,6.25008 0,17.33681 0,21.00785c0,2.32164 -1.58724,3.88915 -1.58724,3.88915c0,0 -1.10538,1.14285 -4.42689,1.14285z" fill="#d6d6d6" stroke="#000000" stroke-width="2"/><path d="M230.82551,181.57387h-3.36696v-1.32144h1.14042v-1.12232h1.12232v-1.10422h1.10422v-0.9232h-1.10422v-1.12232h-1.12232v-1.12232h-1.14042v-1.32144h1.33954v1.12232h0.9232v-1.12232h1.10422v-2.22655h1.32145v2.42567h-1.12232v1.12232h-1.12232v0.9232h1.12232v1.12232h0.9232v-1.12232h1.12232v-2.24464h1.30334v2.24464h0.9232v-1.12232h1.12232v-3.34887h1.32145v2.22655h4.47118v2.44376h-1.12232v2.22654h-1.12232v0.9232h1.12232v1.12232h3.34886v1.32144h-3.54799v-1.12232h-1.12232v-1.12232h-2.02742v1.12232h-1.12233v1.12232h-2.42566v-1.12232h-0.9232v1.12232h-1.12232v6.73393h-1.32145zM239.76788,178.02588v-2.24464h1.12232v-0.9232h-4.27206v0.9232h1.12233v2.24464zM233.07015,180.25243v-2.22654h1.30334v2.22654h2.04552v-1.12232h1.12232v-0.9232h-1.12232v-2.22654h-0.9232v1.12232h-1.30334v-1.12232h-0.9232v1.12232h-1.12232v1.10422h-1.12232v1.12233h-1.12232v0.9232zM237.54134,181.37475h2.42567v1.12232h1.12232v1.30335h-1.32145v-1.10422h-2.22654zM227.45854,184.74171h1.14042v-2.24465h1.30334v2.42567h-1.10422v2.26274h-1.33954zM233.07015,182.49707h1.30334v1.12233h1.12232v2.42566h-1.30334v-2.24464h-1.12232zM236.41902,184.74171h2.42567v1.10422h2.24464v1.12232h1.12232v1.33954h-1.32145v-1.12232h-2.22654v-1.14042h-2.24464zM246.12167,183.63749h1.14042v-2.24465h1.12232v-2.24464h1.10422v-3.14974h-3.36696v-1.32144h3.36696v-3.34886h1.32145v5.5935h0.9232v-1.12232h2.22654v-1.12232h4.67031v1.12232h2.24464v2.24464h1.10422v5.77453h-1.10422v1.12232h-1.12232v1.12232h-1.12232v1.14042h-2.22654v1.12232h-3.54799v-1.33954h3.34887v-1.12232h2.22654v-1.10422h1.12232v-1.12232h1.12232v-5.41249h-1.12232v-1.10422h-1.12232v-1.12233h-4.27206v1.12233h-2.22654v1.10422h-1.12232v10.10089h-1.32145v-6.73393h-0.9232v2.22654h-1.10422v3.38507h-1.33955zM266.46828,183.63749h1.10422v-1.12232h3.54798v1.12232h1.12233v2.22654h3.16784v-1.10422h1.10422v-1.12232h1.12233v-2.04552h-1.12233v-1.12232h-7.62092v1.12232h-2.24464v1.12232h-1.30334v-1.32145h1.12232v-1.12232h2.22654v-1.12232h1.12232v-1.10422h1.12232v-1.12232h2.22655v-1.12232h1.12232v-0.9232h-7.82005v-1.32144h10.24572v1.32144h-1.12232v1.12232h-1.10422v1.12233h-1.12232v1.10422h-2.24465v0.9232h5.59351v1.12232h1.12232v1.12232h1.12232v2.42567h-1.12232v2.24464h-2.24464v1.14042h-8.01917v-1.14042h-1.10422zM270.93947,185.86404v-2.04552h-3.16784v2.04552z" fill="#000000" stroke="none" stroke-width="1"/><path d="M220.57658,172.56831h1.58652v1.56808h-1.58652zM219.0085,174.13639h1.56808v1.56808h-1.56808zM217.44042,175.70448h1.56808v1.58652h-1.56808zM215.85389,177.291h1.58652v1.56808h-1.58652zM214.28581,180.42717v-1.56808h1.56808v1.56808zM217.44042,180.42717v1.58649h-1.58652v-1.58649zM219.0085,182.01365v1.56812h-1.56808v-1.56812zM220.57658,183.58177v1.56812h-1.56808v-1.56812zM222.16311,185.14989v1.58644h-1.58652v-1.58644z" fill="#000000" stroke="none" stroke-width="1"/></g></g></svg>