<svg version="1.1" xmlns="http://www.w3.org/2000/svg" xmlns:xlink="http://www.w3.org/1999/xlink" width="119.328" height="11.268" viewBox="0,0,119.328,11.268"><g transform="translate(-181.988,-191.312)"><g data-paper-data="{&quot;isPaintingLayer&quot;:true}" fill="#ffffff" fill-rule="nonzero" stroke="none" stroke-width="1" stroke-linecap="butt" stroke-linejoin="miter" stroke-miterlimit="10" stroke-dasharray="" stroke-dashoffset="0" style="mix-blend-mode: normal"><path d="M182.732,192.788h7.536v0.876h-7.536zM181.988,198.728h0.744v-0.744h0.864v0.876h-0.744v1.356h1.488v0.732h5.796v-0.732h0.876v0.864h-0.744v0.756h-6.06v-0.756h-1.476v-0.744h-0.744zM192.872,200.216h0.756v-1.488h0.744v-1.488h0.732v-2.088h-2.232v-0.876h2.232v-2.964h0.876v5.184h0.612v-0.732h0.744v-0.744h0.732v-0.744h0.744v-0.744h2.352v0.744h0.744v3.84h-0.744v2.832h2.088v-0.732h0.876v0.864h-0.744v0.756h-2.352v-0.756h-0.732v-3.096h0.732v-3.576h-2.088v0.744h-0.744v0.732h-0.744v0.744h-0.732v0.744h-0.744v5.208h-0.876v-3.72h-0.612v1.476h-0.732v1.5h-0.888zM207.836,199.472h0.744v-0.744h3.708v-3.576h-4.452v-0.876h4.452v-2.22h0.864v2.22h2.22v0.876h-2.22v4.32h0.744v0.744h0.744v0.732h0.732v0.888h-0.864v-0.756h-0.744v-0.744h-0.612v0.744h-0.744v0.756h-3.828v-0.756h-0.744zM205.616,193.532h0.744v-1.476h0.864v1.608h-0.744v8.172h-0.864zM212.288,200.948v-1.356h-3.576v1.356zM217.256,199.472h1.608v1.608h-1.608zM223.256,199.472h1.608v1.608h-1.608zM229.256,199.472h1.608v1.608h-1.608zM235.628,200.336h-0.756v-1.608h0.756v-0.744h0.744v-0.744h0.732v-0.744h1.488v-2.088h-2.964v-0.876h2.964v-2.22h0.864v2.22h2.232v0.876h-2.232v1.356h3.708v0.732h1.488v0.744h0.732v3.096h-0.732v0.744h-0.744v0.756h-0.744v0.744h-3.096v-0.888h2.964v-0.744h0.744v-0.732h0.744v-2.844h-1.488v-0.744h-3.576v4.452h-0.732v0.756h-2.352v-0.756h-0.744zM242.3,192.788h1.608v0.744h1.476v0.744h0.744v0.876h-0.876v-0.744h-1.476v-0.744h-1.476zM236.492,200.216v0.732h2.1v-3.576h-1.356v0.744h-0.744v0.744h-0.732v1.356zM248.36,199.592h-0.744v-6.804h0.864v6.684h0.744v1.476h2.1v-0.732h0.732v-1.488h0.876v1.608h-0.744v0.744h-0.744v0.756h-2.352v-0.756h-0.732zM255.764,195.884h-0.744v-1.476h-0.732v-1.62h0.864v1.488h0.744v1.488h0.744v2.22h0.732v2.352h-0.864v-2.22h-0.744zM259.988,192.056h0.864v8.16h0.744v0.732h3.576v-0.732h1.476v-0.744h0.744v-0.744h0.744v-0.744h0.864v0.876h-0.732v0.732h-0.744v0.744h-0.744v0.744h-1.476v0.756h-3.84v-0.756h-0.744v-0.744h-0.732zM272.36,199.592h-0.744v-6.804h0.864v6.684h0.744v1.476h2.1v-0.732h0.732v-1.488h0.876v1.608h-0.744v0.744h-0.744v0.756h-2.352v-0.756h-0.732zM279.764,195.884h-0.744v-1.476h-0.732v-1.62h0.864v1.488h0.744v1.488h0.744v2.22h0.732v2.352h-0.864v-2.22h-0.744zM288.44,192.056h0.876v7.536h-0.876zM287.696,200.216h1.62v1.62h-1.62zM300.44,192.056h0.876v7.536h-0.876zM299.696,200.216h1.62v1.62h-1.62z"/></g></g></svg>