<svg xmlns="http://www.w3.org/2000/svg" fill="none" viewBox="0 0 88 19" height="19" width="88">
<path fill="white" d="M4 4.36719H1.98438V0.382812H4V4.36719ZM18.0156 4.36719V6.38281H14.0078V12.3828H16V14.375H14.0078V16.3906H11.9922V12.3828H8.00781V10.3672H11.9922V6.38281H5.99219V4.36719H11.9922V0.382812H14.0078V4.36719H18.0156ZM1.98438 14.375H-0.0078125V4.36719H1.98438V14.375ZM5.99219 16.3906V12.3828H8.00781V16.3906H5.99219ZM4 14.375V18.3828H1.98438V14.375H4ZM18.0156 14.375V16.3906H16V14.375H18.0156ZM11.9922 18.3828H8.00781V16.3906H11.9922V18.3828ZM25.9844 14.375V0.382812H28V14.375H25.9844ZM38.0078 2.375V0.382812H40V2.375H38.0078ZM34 2.375H35.9922V4.36719H34V2.375ZM40 4.36719V2.375H42.0156V4.36719H40ZM38.0078 4.36719V6.38281H35.9922V4.36719H38.0078ZM40 14.375H38.0078V10.3672H40V14.375ZM28 16.3906V14.375H29.9922V16.3906H28ZM38.0078 16.3906H35.9922V14.375H38.0078V16.3906ZM35.9922 18.3828H29.9922V16.3906H35.9922V18.3828ZM59.9922 0.382812V4.36719H62.0078V6.38281H59.9922V8.375H58V6.38281H53.9922V12.3828H52V8.375H49.9844V6.38281H52V2.375H53.9922V4.36719H58V0.382812H59.9922ZM62.0078 8.375V6.38281H64V8.375H62.0078ZM47.9922 14.375V8.375H49.9844V14.375H47.9922ZM58 12.3828H56.0078V8.375H58V12.3828ZM64 14.375V8.375H66.0156V14.375H64ZM56.0078 14.375H53.9922V12.3828H56.0078V14.375ZM53.9922 16.3906H49.9844V14.375H53.9922V16.3906ZM64 16.3906H62.0078V14.375H64V16.3906ZM62.0078 18.3828H58V16.3906H62.0078V18.3828ZM86.0078 2.375H83.9922V4.36719H82V2.375H76V0.382812H86.0078V2.375ZM82 4.36719V6.38281H83.9922V8.375H77.9922V6.38281H80.0078V4.36719H82ZM77.9922 10.3672H73.9844V8.375H77.9922V10.3672ZM83.9922 10.3672V8.375H86.0078V10.3672H83.9922ZM86.0078 14.375V10.3672H88V14.375H86.0078ZM77.9922 12.3828H82V14.375H77.9922V12.3828ZM76 16.3906V14.375H77.9922V16.3906H76ZM77.9922 16.3906H82V14.375H86.0078V16.3906H83.9922V18.3828H77.9922V16.3906Z"></path>
</svg>
