<svg xmlns="http://www.w3.org/2000/svg" fill="none" viewBox="0 0 56 17" height="17" width="56">
<path fill="black" d="M0.1 0.259999H11.42V1.48H12.66V2.72H13.9V6.64H12.66V7.88H11.42V8.9H12.66V10.14H13.9V14.06H12.66V15.3H11.42V16.56H0.1V0.259999ZM11.2 7.66V6.44H12.44V2.94H11.2V1.7H1.54V7.66H11.2ZM11.2 15.08V13.86H12.44V10.36H11.2V9.12H1.54V15.08H11.2ZM19.48 2.72H20.72V1.48H21.94V0.259999H32.04V1.48H33.28V2.72H34.52V5.42H33.06V2.94H31.82V1.7H22.16V2.94H20.92V13.86H22.16V15.08H31.82V13.86H33.06V9.12H25.66V7.66H34.52V14.06H33.28V15.3H32.04V16.56H21.94V15.3H20.72V14.06H19.48V2.72ZM38.86 0.259999H40.3V1.48H41.54V3.96H42.78V6.44H44.02V8.9H45.24V11.38H46.48V13.86H47.5V11.38H48.74V8.9H49.98V6.44H51.2V3.96H52.44V1.48H53.68V0.259999H55.12V16.56H53.68V4.18H52.66V6.64H51.42V9.12H50.18V11.6H48.96V14.06H47.72V16.56H46.26V14.06H45.04V11.6H43.8V9.12H42.56V6.64H41.32V4.18H40.3V16.56H38.86V0.259999Z"></path>
</svg>
