<svg xmlns="http://www.w3.org/2000/svg" fill="none" viewBox="0 0 362 81" height="81" width="362">
<path fill="black" d="M8.148 9.836H7.392V8.228H8.148V7.484H8.892V6.74H9.624V5.996H11.112V3.908H8.148V3.032H11.112V0.812H11.976V3.032H14.208V3.908H11.976V5.264H15.684V5.996H17.172V6.74H17.904V9.836H17.172V10.58H16.428V11.336H15.684V12.08H12.588V11.192H15.552V10.448H16.296V9.716H17.04V6.872H15.552V6.128H11.976V10.58H11.244V11.336H8.892V10.58H8.148V9.836ZM14.82 2.288H16.428V3.032H17.904V3.776H18.648V4.652H17.772V3.908H16.296V3.164H14.82V2.288ZM9.012 9.716V10.448H11.112V6.872H9.756V7.616H9.012V8.36H8.28V9.716H9.012ZM22.584 2.408H21.852V1.664H21.108V0.8H21.972V1.544H22.716V2.276H23.46V3.152H22.584V2.408ZM24.072 4.508H26.292V2.408H24.072V1.544H31.608V2.408H29.388V4.508H31.608V12.068H30.732V11.324H24.936V12.068H24.072V4.508ZM28.512 4.508V2.408H27.168V4.508H28.512ZM22.584 5.372H21.852V4.64H21.108V3.764H21.972V4.508H22.716V5.252H23.46V6.116H22.584V5.372ZM30.732 10.436V8.348H29.256V7.604H28.512V5.372H27.168V7.604H26.424V8.348H25.68V9.08H24.936V10.436H30.732ZM25.548 8.216V7.472H26.292V5.372H24.936V8.216H25.548ZM30.732 7.472V5.372H29.388V7.472H30.732ZM20.352 10.436H21.108V9.704H21.852V8.216H22.584V6.728H23.46V8.348H22.716V9.824H21.972V10.568H21.24V11.324H20.352V10.436ZM36.288 3.152H33.312V2.276H36.288V0.8H37.164V2.276H40.74V0.8H41.604V2.276H44.568V3.152H41.604V3.896H40.74V3.152H37.164V3.896H36.288V3.152ZM34.068 11.18V10.436H34.812V9.704H35.544V8.216H36.42V8.96H37.032V8.216H38.508V7.472H39.252V6.86H38.508V6.116H37.896V6.86H37.032V5.984H37.776V5.252H38.508V3.764H39.384V4.508H42.348V6.116H41.604V6.86H40.86V7.472H42.348V8.216H44.568V9.08H43.092V12.068H42.216V11.324H38.64V12.068H37.776V9.08H37.164V9.824H35.676V10.568H34.932V11.324H34.2V12.068H33.312V11.18H34.068ZM34.812 4.64H34.068V3.764H34.932V4.508H36.42V5.372H34.812V4.64ZM39.384 5.984V6.728H40.74V5.984H41.472V5.372H38.64V5.984H39.384ZM34.812 6.86H34.068V5.984H34.932V6.728H36.42V7.604H34.812V6.86ZM42.216 8.96V8.348H40.74V7.604H39.384V8.348H38.64V8.96H42.216ZM42.216 10.436V9.824H38.64V10.436H42.216ZM46.644 8.972H47.388V7.484H48.12V5.996H48.864V4.52H49.608V3.908H46.644V3.032H49.608V2.288H50.352V0.812H51.216V2.42H50.472V3.032H52.704V3.908H50.472V4.652H49.74V6.128H48.996V7.616H48.252V9.092H47.508V9.836H46.644V8.972ZM53.316 3.032H56.4V3.776H57.144V4.652H56.268V3.908H53.316V3.032ZM49.608 8.972H50.352V8.228H53.316V5.264H54.18V8.972H54.924V9.716H55.668V10.448H56.4V11.336H55.536V10.58H54.792V9.836H54.18V10.58H53.436V11.336H52.704V12.08H50.352V11.336H49.608V8.972ZM52.572 11.192V10.448H53.316V9.092H50.472V11.192H52.572ZM60.348 10.448H61.092V9.716H61.824V8.972H62.568V7.484H63.312V5.264H64.056V3.908H60.348V3.032H64.056V0.812H64.92V3.032H69.372V9.836H68.628V10.58H67.884V11.336H64.788V10.448H67.752V9.716H68.496V3.908H64.92V5.384H64.176V7.616H63.444V9.092H62.7V9.836H61.956V10.58H61.212V11.336H60.348V10.448ZM74.052 10.448H76.272V9.716H77.748V8.972H79.236V8.228H79.98V6.74H80.712V5.264H81.456V3.164H73.308V2.288H82.332V5.384H81.588V6.872H80.844V8.36H80.1V9.092H79.368V9.836H77.88V10.58H76.404V11.336H74.052V10.448ZM86.268 10.448H89.976V5.384H87.012V4.52H94.548V5.384H90.84V10.448H95.292V11.336H86.268V10.448ZM101.46 6.872H100.716V6.128H99.372V6.872H98.484V5.996H99.24V5.264H100.716V3.908H99.984V1.556H100.848V3.776H101.592V4.52H102.948V3.776H104.424V2.42H103.68V0.812H104.556V2.288H105.3V3.776H107.52V4.52H108.264V5.264H108.996V7.616H108.264V8.36H106.776V9.092H103.68V8.228H106.644V7.484H108.132V5.384H107.388V4.652H103.068V5.384H101.592V6.74H102.336V9.716H103.068V12.08H102.204V9.836H101.46V6.872ZM111.072 8.216H113.304V7.472H115.536V6.728H117.012V6.116H111.828V5.252H116.268V3.152H112.572V2.276H116.268V0.8H117.144V2.276H120.108V3.02H120.72V2.276H121.584V3.152H120.852V3.896H120.108V4.64H119.364V5.252H122.328V6.116H117.888V6.86H117.144V7.604H115.656V8.96H117.012V8.216H119.232V7.472H121.584V8.348H119.364V9.08H117.144V9.824H115.656V11.18H121.452V9.704H122.328V11.324H121.584V12.068H115.536V11.324H114.792V8.348H113.436V9.08H111.072V8.216ZM118.5 5.252V4.508H119.232V3.764H119.976V3.152H117.144V5.252H118.5ZM124.032 6.728H126.264V6.116H124.788V5.372H124.032V4.508H124.788V3.02H125.532V1.544H126.264V0.8H127.14V1.544H127.884V2.276H131.46V0.8H132.324V2.276H133.68V1.664H132.936V0.8H133.812V1.544H134.544V2.276H135.288V3.152H132.324V4.508H134.544V11.324H133.812V12.068H131.46V9.824H130.104V12.068H129.228V7.604H124.032V6.728ZM129.228 6.728V4.508H131.46V3.152H128.616V3.896H127.752V2.408H127.008V1.664H126.396V3.152H125.652V4.64H124.92V5.252H126.264V3.764H127.14V5.252H128.616V6.116H127.14V6.728H129.228ZM131.46 6.728V5.372H130.104V6.728H131.46ZM133.68 6.728V5.372H132.324V6.728H133.68ZM133.68 8.96V7.604H132.324V8.96H133.68ZM131.46 8.96V7.604H130.104V8.96H131.46ZM124.788 8.216H128.616V11.324H125.652V12.068H124.788V8.216ZM127.752 10.436V9.08H125.652V10.436H127.752ZM133.68 11.18V9.824H132.324V11.18H133.68ZM138.12 9.836H137.364V5.996H138.12V4.52H138.864V3.776H139.596V3.032H141.084V2.288H144.912V3.032H146.4V3.776H147.144V5.264H147.876V9.092H147.144V10.58H146.4V11.336H144.912V12.08H142.56V11.192H144.792V10.448H146.268V8.972H147.012V5.384H146.268V3.908H144.792V3.164H143.436V5.384H142.692V7.616H141.948V9.092H141.216V10.58H140.472V11.336H138.864V10.58H138.12V9.836ZM138.984 9.716V10.448H140.34V8.972H141.084V7.484H141.828V5.264H142.56V3.164H141.216V3.908H139.728V4.652H138.984V6.128H138.252V9.716H138.984ZM158.856 1.556H159.732V2.288H160.464V3.032H161.208V3.908H160.332V3.164H159.6V2.42H158.856V1.556ZM157.38 2.288H158.244V3.032H158.988V3.776H159.732V4.652H158.856V3.908H158.112V3.164H157.38V2.288ZM149.952 8.228H150.708V6.74H151.452V5.996H152.184V4.52H152.928V3.776H153.672V3.032H155.28V3.776H156.024V5.264H156.768V5.996H157.5V6.74H158.244V7.484H158.988V8.972H159.732V9.716H160.464V10.448H161.208V11.336H160.332V10.58H159.6V9.836H158.856V9.092H158.112V7.616H157.38V6.872H156.636V6.128H155.892V5.384H155.148V3.908H153.804V4.652H153.06V6.128H152.316V6.872H151.572V8.36H150.84V9.092H149.952V8.228ZM164.028 5.996H173.052V6.872H164.028V5.996ZM176.988 10.448H177.732V9.716H178.464V8.972H179.208V7.484H179.952V5.264H180.696V3.908H176.988V3.032H180.696V0.812H181.56V3.032H186.012V9.836H185.268V10.58H184.524V11.336H181.428V10.448H184.392V9.716H185.136V3.908H181.56V5.384H180.816V7.616H180.084V9.092H179.34V9.836H178.596V10.58H177.852V11.336H176.988V10.448ZM194.388 11.192V10.448H195.876V9.716H196.62V8.228H197.352V1.556H198.228V8.36H197.484V9.836H196.74V10.58H196.008V11.336H194.52V12.08H191.424V11.192H194.388ZM190.692 1.556H191.556V8.36H190.692V1.556ZM202.908 5.996H211.932V6.872H202.908V5.996ZM215.508 8.216H222.18V7.604H214.752V6.728H219.948V5.372H216.252V4.508H219.948V3.02H220.692V2.408H218.604V3.02H219.336V3.896H218.472V3.152H217.728V2.408H217.116V3.152H216.372V3.896H214.752V3.02H216.252V2.276H216.984V0.8H217.86V1.544H220.824V2.276H221.436V0.8H222.3V1.544H226.008V2.408H223.788V3.02H224.532V3.896H223.656V3.152H222.912V2.408H221.568V3.152H220.824V4.508H224.532V5.372H220.824V6.728H226.008V7.604H223.044V8.216H225.264V9.08H223.044V11.324H222.3V12.068H219.948V11.18H222.18V9.08H215.508V8.216ZM216.984 9.704H218.604V10.436H219.336V11.324H218.472V10.568H216.984V9.704ZM227.712 10.436H228.468V7.472H229.212V1.544H238.968V2.408H236.748V3.764H238.968V4.64H237.492V5.252H238.224V5.984H238.968V6.86H238.092V6.116H237.36V5.372H236.748V8.348H235.872V5.372H235.26V6.116H234.528V6.86H233.652V6.116H233.04V8.348H232.176V5.372H231.564V6.116H230.82V6.86H230.076V7.604H229.332V10.568H228.6V12.068H227.712V10.436ZM235.872 3.764V2.408H233.04V3.764H235.872ZM232.176 3.764V2.408H230.076V3.764H232.176ZM233.784 5.252V5.984H234.396V5.252H235.14V4.64H233.04V5.252H233.784ZM230.688 5.984V5.252H231.432V4.64H230.076V5.984H230.688ZM231.432 11.18V8.96H232.296V11.18H234.396V7.472H235.26V8.96H238.224V9.824H235.26V11.18H238.968V12.068H229.944V11.18H231.432ZM242.904 11.18V10.436H244.392V9.704H245.136V9.08H244.392V8.348H242.904V7.472H244.524V8.216H245.868V6.86H242.172V3.02H245.868V0.8H246.744V3.02H251.184V6.86H246.744V8.348H246V9.704H247.488V10.436H249.708V11.18H251.928V12.068H249.576V11.324H247.356V10.568H245.868V9.824H245.256V10.568H244.524V11.324H243.036V12.068H240.672V11.18H242.904ZM250.32 5.984V3.896H246.744V5.984H250.32ZM245.868 5.984V3.896H243.036V5.984H245.868ZM254.748 7.484H255.492V6.74H256.224V5.996H257.712V0.812H258.576V5.264H259.932V4.52H263.772V5.384H260.064V6.128H257.844V6.872H256.356V7.616H255.612V9.716H257.1V10.448H263.772V11.336H256.968V10.58H255.492V9.836H254.748V7.484ZM271.056 11.18V10.436H271.788V8.96H272.532V8.348H271.056V0.8H276.372V8.348H274.884V11.18H276.972V8.96H277.848V11.324H277.104V12.068H274.752V11.324H274.02V8.348H273.408V9.08H272.664V10.568H271.92V11.324H271.176V12.068H269.568V11.18H271.056ZM266.592 9.704H268.092V6.116H266.592V5.252H268.092V2.408H266.592V1.544H270.444V2.408H268.956V5.252H270.444V6.116H268.956V8.96H270.444V9.824H268.212V10.568H266.592V9.704ZM275.496 3.02V1.664H271.92V3.02H275.496ZM275.496 5.252V3.896H271.92V5.252H275.496ZM275.496 7.472V6.116H271.92V7.472H275.496ZM283.272 5.252H285.492V0.8H286.368V5.252H286.98V4.508H290.808V5.372H287.1V6.116H286.368V6.728H287.1V8.96H287.844V10.436H288.588V11.18H289.2V10.436H289.932V8.96H290.808V10.568H290.064V11.324H289.332V12.068H288.456V11.324H287.712V10.568H286.98V9.08H286.236V6.86H285.492V6.116H283.272V5.252ZM281.784 6.116H281.172V6.86H280.44V7.604H279.552V6.728H280.308V5.984H281.052V4.508H281.784V3.02H282.528V0.8H283.404V3.152H282.66V12.068H281.784V6.116ZM288.456 2.408H287.712V1.544H288.588V2.276H289.332V3.896H288.456V2.408ZM292.884 9.716H293.628V8.228H294.36V5.996H295.104V4.652H292.884V3.776H295.848V0.812H296.712V3.776H298.944V4.52H299.676V9.092H298.944V10.58H298.2V11.336H295.104V10.448H298.068V8.972H298.812V4.652H295.98V6.128H295.236V8.36H294.492V9.836H293.748V11.336H292.884V9.716ZM301.032 2.42H300.288V1.556H301.032V0.812H301.908V1.556H302.64V2.288H303.384V3.164H302.64V3.908H301.776V3.164H301.032V2.42ZM301.776 2.288V1.676H301.164V2.288H301.776ZM302.508 3.032V2.42H301.908V3.032H302.508ZM299.556 3.032H300.42V3.776H301.164V4.52H301.908V5.264H302.64V6.74H303.384V7.616H302.508V6.872H301.776V5.384H301.032V4.652H300.288V3.908H299.556V3.032ZM305.472 3.02H310.668V0.8H311.544V3.02H316.728V3.896H305.472V3.02ZM307.704 11.18V10.436H309.936V9.704H310.668V9.08H309.936V8.348H309.192V7.604H308.448V6.86H307.704V6.116H307.092V6.86H305.472V5.984H306.972V5.252H308.448V4.508H309.324V5.372H308.58V6.728H309.324V7.472H310.056V8.216H310.8V8.96H311.412V8.216H312.156V7.472H312.9V6.728H313.632V5.984H314.376V5.372H313.632V4.508H314.508V5.252H315.252V5.984H315.984V6.86H315.12V6.116H314.508V6.86H313.764V7.604H313.02V8.348H312.288V9.08H311.544V9.704H312.288V10.436H313.764V11.18H316.728V12.068H313.632V11.324H312.156V10.568H311.412V9.824H310.8V10.568H310.056V11.324H307.836V12.068H305.472V11.18H307.704ZM319.188 11.18V10.436H319.932V9.704H320.664V8.216H321.408V7.604H318.432V6.728H323.628V5.372H319.932V4.508H323.628V3.152H319.188V2.276H321.408V1.664H320.664V0.8H321.54V1.544H322.284V2.276H325.116V1.544H325.86V0.8H326.724V1.664H325.98V2.276H328.944V3.152H324.504V4.508H328.212V5.372H324.504V6.728H329.688V7.604H322.284V8.216H328.212V9.08H325.248V11.18H329.688V12.068H320.664V11.18H324.372V9.08H322.152V8.348H321.54V9.824H320.796V10.568H320.052V11.324H319.32V12.068H318.432V11.18H319.188ZM332.508 1.556H333.372V9.716H334.116V10.448H337.692V9.716H339.168V8.972H339.912V8.228H340.656V7.484H341.52V8.36H340.788V9.092H340.044V9.836H339.3V10.58H337.824V11.336H333.984V10.58H333.24V9.836H332.508V1.556ZM344.736 8.972H345.6V9.716H346.344V10.448H347.088V12.08H346.212V11.336H345.48V10.58H344.736V8.972ZM72.192 26.704H72.948V25.216H73.692V24.604H72.192V23.728H74.424V23.116H72.192V22.252H73.692V21.64H72.948V20.152H72.192V19.276H74.424V17.8H75.3V19.276H77.52V20.152H76.776V21.64H76.044V22.252H77.52V23.116H75.3V23.728H77.52V24.604H76.044V25.216H76.776V26.704H78.132V19.276H81.096V18.544H82.704V19.408H81.228V20.152H79.008V22.252H83.448V23.116H81.972V29.068H81.096V23.116H79.008V26.824H78.264V29.068H77.388V27.568H76.656V26.824H75.912V25.348H75.3V29.068H74.424V25.348H73.812V26.824H73.08V27.568H72.192V26.704ZM75.168 22.252V21.508H75.912V20.152H73.812V21.508H74.556V22.252H75.168ZM85.908 22.372H85.152V21.508H85.908V20.02H86.652V17.8H87.516V18.544H89.736V20.152H89.004V20.764H90.348V20.02H91.836V19.408H91.092V17.8H91.968V19.276H92.7V20.02H93.312V19.276H94.056V17.8H94.932V19.408H94.188V20.02H96.408V20.896H93.444V22.252H95.664V23.116H93.444V25.216H96.408V26.08H93.444V29.068H92.58V26.08H85.908V22.372ZM88.128 20.764V20.02H88.872V19.408H87.516V20.152H86.772V20.764H88.128ZM92.58 25.216V23.116H91.092V22.252H92.58V20.896H90.48V25.216H92.58ZM89.616 22.984V21.64H88.26V22.984H89.616ZM87.384 22.984V21.64H86.772V22.984H87.384ZM89.616 25.216V23.86H88.26V25.216H89.616ZM87.384 25.216V23.86H86.772V25.216H87.384ZM85.152 27.436H85.908V26.704H86.772V27.568H86.04V29.068H85.152V27.436ZM87.384 26.704H88.26V29.068H87.384V26.704ZM89.616 26.704H90.48V29.068H89.616V26.704ZM98.484 25.972H99.228V24.484H99.96V22.996H100.704V21.52H101.448V20.908H98.484V20.032H101.448V19.288H102.192V17.812H103.056V19.42H102.312V20.032H104.544V20.908H102.312V21.652H101.58V23.128H100.836V24.616H100.092V26.092H99.348V26.836H98.484V25.972ZM105.156 20.032H108.24V20.776H108.984V21.652H108.108V20.908H105.156V20.032ZM101.448 25.972H102.192V25.228H105.156V22.264H106.02V25.972H106.764V26.716H107.508V27.448H108.24V28.336H107.376V27.58H106.632V26.836H106.02V27.58H105.276V28.336H104.544V29.08H102.192V28.336H101.448V25.972ZM104.412 28.192V27.448H105.156V26.092H102.312V28.192H104.412ZM113.304 23.116H112.692V23.86H111.96V24.604H111.072V23.728H111.828V22.984H112.572V21.508H113.304V20.02H114.048V17.8H114.924V20.152H114.18V26.704H114.792V25.96H115.536V24.472H116.268V22.984H117.012V21.64H114.792V20.764H117.756V17.8H118.62V20.764H122.328V21.64H119.364V22.252H120.108V23.728H120.852V25.216H121.584V26.704H122.328V27.568H121.452V26.824H118.62V29.068H117.756V26.824H114.924V27.568H114.18V29.068H113.304V23.116ZM120.72 25.96V25.348H119.976V23.86H119.232V22.372H118.62V25.96H120.72ZM117.756 25.96V23.116H117.144V24.604H116.4V25.96H117.756ZM124.032 27.436H124.788V25.96H125.652V27.436H126.264V25.96H127.884V28.18H128.496V25.348H124.788V18.544H129.36V19.408H127.884V20.764H129.228V20.02H129.972V19.276H130.716V18.544H131.46V17.8H132.324V18.544H133.068V19.276H133.812V20.02H135.288V20.896H134.544V21.64H132.324V22.984H134.544V26.08H133.068V26.704H133.812V27.436H134.544V28.18H135.288V29.068H134.412V28.324H133.68V27.568H132.936V26.824H131.58V27.568H130.848V28.324H130.104V29.068H129.228V28.324H128.616V29.068H127.008V27.568H126.396V29.068H125.532V27.568H124.92V29.068H124.032V27.436ZM133.68 20.764V20.152H132.936V19.408H132.192V18.664H131.58V19.408H130.848V20.152H130.104V20.764H133.68ZM127.008 20.764V19.408H125.652V20.764H127.008ZM129.972 28.18V27.436H130.716V26.704H131.46V26.08H129.972V22.984H131.46V21.64H129.972V20.896H129.36V21.64H127.884V22.252H129.36V23.116H127.884V24.472H129.36V28.18H129.972ZM127.008 22.252V21.64H125.652V22.252H127.008ZM127.008 24.472V23.116H125.652V24.472H127.008ZM133.68 25.216V23.86H132.324V25.216H133.68ZM131.46 25.216V23.86H130.848V25.216H131.46ZM137.736 25.228H138.48V23.74H139.212V22.996H139.956V21.52H140.7V20.908H137.736V20.032H141.444V17.812H142.308V20.032H146.016V20.908H141.564V21.52H143.052V22.264H143.796V23.74H144.408V22.996H145.884V22.264H147.492V23.128H146.016V23.872H144.528V24.616H143.796V27.58H142.92V25.36H141.564V26.092H140.832V28.192H146.76V29.08H140.7V28.336H139.956V25.972H140.7V25.228H141.444V24.484H142.92V22.384H140.832V23.128H140.088V23.872H139.344V25.36H138.6V26.092H137.736V25.228ZM149.952 27.436H151.452V26.704H152.928V25.96H154.416V25.348H149.952V24.472H155.148V23.86H153.672V19.276H154.416V18.544H155.148V17.8H156.024V18.664H155.28V19.276H157.5V23.86H156.024V24.472H161.208V25.348H156.768V25.96H158.244V26.704H159.732V27.436H161.208V28.324H159.6V27.568H158.112V26.824H156.636V26.08H156.024V29.068H155.148V26.08H154.536V26.824H153.06V27.568H151.572V28.324H149.952V27.436ZM152.184 20.152H151.452V19.408H150.708V18.544H151.572V19.276H152.316V20.02H153.06V20.896H152.184V20.152ZM158.112 20.02H158.856V19.276H159.6V18.544H160.464V19.408H159.732V20.152H158.988V20.896H158.112V20.02ZM156.636 20.764V20.152H154.536V20.764H156.636ZM149.952 22.984H151.452V22.252H152.184V21.508H153.06V22.372H152.316V23.116H151.572V23.86H149.952V22.984ZM158.112 21.508H158.988V22.252H159.732V22.984H161.208V23.86H159.6V23.116H158.856V22.372H158.112V21.508ZM156.636 22.984V21.64H154.536V22.984H156.636ZM164.028 18.556H164.892V26.716H165.636V27.448H169.212V26.716H170.688V25.972H171.432V25.228H172.176V24.484H173.04V25.36H172.308V26.092H171.564V26.836H170.82V27.58H169.344V28.336H165.504V27.58H164.76V26.836H164.028V18.556ZM177.36 26.092H176.616V22.996H177.36V22.264H178.836V20.908H176.616V20.032H178.836V17.812H179.712V20.032H182.676V20.908H179.712V26.092H178.968V28.192H184.02V27.448H184.764V25.36H184.02V24.484H184.896V25.228H185.64V27.58H184.896V28.336H184.152V29.08H178.836V28.336H178.092V26.836H177.36V26.092ZM185.508 21.652H184.764V20.908H184.02V20.164H183.288V19.288H184.152V20.032H184.896V20.776H185.64V21.52H186.372V23.128H185.508V21.652ZM178.836 25.972V23.128H177.48V25.972H178.836ZM190.692 19.288H198.228V20.164H190.692V19.288ZM189.948 25.228H190.692V24.484H191.556V25.36H190.812V26.716H192.3V27.448H198.096V26.716H198.972V27.58H198.228V28.336H192.168V27.58H190.692V26.836H189.948V25.228ZM202.908 24.484H203.652V23.74H204.384V22.996H205.872V17.812H206.736V22.264H208.092V21.52H211.932V22.384H208.224V23.128H206.004V23.872H204.516V24.616H203.772V26.716H205.26V27.448H211.932V28.336H205.128V27.58H203.652V26.836H202.908V24.484ZM215.124 26.716H215.868V25.228H216.6V22.996H217.344V21.652H215.124V20.776H218.088V17.812H218.952V20.776H221.184V21.52H221.916V26.092H221.184V27.58H220.44V28.336H217.344V27.448H220.308V25.972H221.052V21.652H218.22V23.128H217.476V25.36H216.732V26.836H215.988V28.336H215.124V26.716ZM223.272 19.42H222.528V18.556H223.272V17.812H224.148V18.556H224.88V19.288H225.624V20.164H224.88V20.908H224.016V20.164H223.272V19.42ZM224.016 19.288V18.676H223.404V19.288H224.016ZM224.748 20.032V19.42H224.148V20.032H224.748ZM221.796 20.032H222.66V20.776H223.404V21.52H224.148V22.264H224.88V23.74H225.624V24.616H224.748V23.872H224.016V22.384H223.272V21.652H222.528V20.908H221.796V20.032ZM230.688 22.996H231.432V22.264H232.176V21.52H232.908V20.776H233.652V20.164H227.712V19.288H238.224V20.164H235.26V20.908H233.784V21.652H233.04V22.384H232.296V23.128H231.564V25.972H232.296V26.716H233.04V27.448H236.748V28.336H232.908V27.58H231.432V26.092H230.688V22.996ZM236.616 20.776H237.492V21.52H238.224V22.264H238.968V23.128H238.092V22.384H237.36V21.652H236.616V20.776ZM235.14 21.52H236.004V22.264H236.748V22.996H237.492V23.872H236.616V23.128H235.872V22.384H235.14V21.52ZM242.532 25.228H243.264V24.484H248.46V23.872H247.716V23.128H241.788V22.264H246.972V21.652H246.228V20.908H241.788V20.032H245.496V19.42H244.752V17.812H245.616V19.288H246.36V20.032H247.716V19.288H250.068V20.164H247.848V20.908H247.104V21.52H247.848V22.264H248.46V21.52H250.812V22.384H248.58V23.74H249.324V24.484H250.068V25.228H250.812V26.092H249.192V25.36H243.396V27.448H250.068V28.336H243.264V27.58H242.532V25.228ZM254.748 25.972H255.492V25.228H259.188V23.128H254.748V22.264H259.188V20.908H254.748V20.032H259.188V17.812H260.064V20.032H263.772V20.908H260.064V22.264H263.772V23.128H260.064V25.972H261.54V26.716H262.284V27.448H263.028V28.192H263.772V29.08H262.896V28.336H262.152V27.58H261.42V26.836H260.064V28.336H259.32V29.08H255.492V28.336H254.748V25.972ZM259.188 28.192V26.092H255.612V28.192H259.188ZM271.428 28.192V27.448H272.16V26.716H272.904V25.36H272.292V26.092H269.94V25.36H269.196V22.996H269.94V22.264H272.292V22.996H272.904V20.908H266.964V20.032H272.904V17.812H273.78V20.032H277.476V20.908H273.78V26.836H273.036V27.58H272.292V28.336H271.548V29.08H269.94V28.192H271.428ZM272.16 25.228V24.484H272.904V23.872H272.16V23.128H270.072V25.228H272.16ZM279.936 25.972H280.68V25.228H283.032V25.972H283.764V28.336H283.032V29.08H280.68V28.336H279.936V25.972ZM282.9 28.192V26.092H280.8V28.192H282.9ZM0.911993 42.216H2.41199V41.472H3.14399V38.64H1.79999V40.86H0.911993V38.508H1.66799V35.544H2.53199V37.764H3.14399V34.8H4.01999V37.764H5.49599V38.508H8.33999V37.152H6.10799V36.276H8.33999V34.8H9.20399V36.276H11.424V37.152H9.20399V38.508H12.168V39.372H10.692V40.728H12.168V41.604H10.692V45.324H9.94799V46.068H7.59599V45.18H9.81599V41.604H5.37599V40.86H4.76399V41.604H4.01999V46.068H3.14399V42.348H2.53199V43.08H0.911993V42.216ZM4.63199 40.728V39.984H5.49599V40.728H9.81599V39.372H5.37599V38.64H4.01999V40.728H4.63199ZM6.85199 42.216H7.72799V42.96H8.45999V43.824H7.59599V43.08H6.85199V42.216ZM14.988 37.776H15.732V35.556H16.596V37.908H15.852V45.336H14.988V37.776ZM17.952 37.032H24.012V37.908H17.952V37.032ZM17.952 42.228H18.816V43.716H19.56V44.448H24.012V45.336H19.428V44.58H18.696V43.836H17.952V42.228ZM26.832 43.704H27.588V35.544H30.684V39.984H38.088V40.86H32.904V41.472H37.344V45.324H36.612V46.068H34.992V45.18H36.48V42.348H35.868V43.08H35.124V44.568H34.38V45.324H33.648V46.068H32.772V45.18H33.516V44.436H34.26V42.96H34.992V42.348H33.648V43.824H32.904V44.568H32.16V45.324H31.296V44.436H32.028V43.704H32.772V42.348H32.16V43.08H31.416V43.824H30.684V45.324H29.94V46.068H28.332V45.18H29.808V41.604H28.452V43.824H27.72V46.068H26.832V43.704ZM31.296 35.544H36.612V39.372H31.296V35.544ZM29.808 38.508V36.408H28.452V38.508H29.808ZM35.736 37.02V36.408H32.16V37.02H35.736ZM35.736 38.508V37.896H32.16V38.508H35.736ZM29.808 40.728V39.372H28.452V40.728H29.808ZM31.296 42.96V41.472H32.028V40.86H30.684V42.96H31.296ZM45.732 39.252H47.22V37.152H44.988V36.276H47.22V34.8H48.084V36.276H51.048V37.152H48.084V39.252H50.304V40.116H45.732V39.252ZM40.548 35.544H43.644V36.408H40.548V35.544ZM39.792 37.764H44.376V38.64H39.792V37.764ZM40.548 39.252H44.376V40.116H40.548V39.252ZM40.548 40.728H44.376V41.604H40.548V40.728ZM45.732 41.472H50.304V46.068H49.44V45.324H46.608V46.068H45.732V41.472ZM40.548 42.216H44.376V45.324H41.412V46.068H40.548V42.216ZM49.44 44.436V42.348H46.608V44.436H49.44ZM43.512 44.436V43.08H41.412V44.436H43.512ZM52.752 44.436H53.508V42.216H54.252V35.544H62.532V38.64H55.116V42.348H54.372V44.568H53.64V46.068H52.752V44.436ZM61.656 37.764V36.408H55.116V37.764H61.656ZM58.692 45.18V43.824H55.728V42.96H58.692V42.348H55.728V41.472H56.472V40.728H57.216V40.116H55.728V39.252H62.532V40.116H61.788V41.472H62.532V42.348H61.656V41.604H59.568V42.96H62.532V43.824H59.568V45.18H64.008V46.068H54.252V45.18H58.692ZM59.436 41.472V40.728H60.912V40.116H58.08V40.86H57.336V41.472H59.436ZM66.828 41.484H67.572V40.74H68.304V39.996H69.792V34.812H70.656V39.264H72.012V38.52H75.852V39.384H72.144V40.128H69.924V40.872H68.436V41.616H67.692V43.716H69.18V44.448H75.852V45.336H69.048V44.58H67.572V43.836H66.828V41.484ZM80.16 43.092H79.416V36.288H80.28V42.972H81.024V44.448H83.124V43.716H83.856V42.228H84.732V43.836H83.988V44.58H83.244V45.336H80.892V44.58H80.16V43.092ZM87.564 39.384H86.82V37.908H86.088V36.288H86.952V37.776H87.696V39.264H88.44V41.484H89.172V43.836H88.308V41.616H87.564V39.384ZM94.224 35.556H98.808V36.288H101.028V37.164H98.676V36.42H94.224V35.556ZM93.492 44.448H97.932V43.716H99.42V42.972H100.152V42.228H100.896V40.128H100.152V39.384H95.1V40.128H92.748V39.264H94.968V38.52H100.284V39.264H101.028V39.996H101.772V42.36H101.028V43.092H100.284V43.836H99.54V44.58H98.064V45.336H93.492V44.448ZM104.964 44.448H105.72V42.972H106.464V41.484H107.196V39.264H107.94V36.288H108.816V39.384H108.072V41.616H107.328V43.092H106.584V44.58H105.852V45.336H104.964V44.448ZM113.868 40.872H113.124V39.384H112.392V37.908H111.648V36.288H112.512V37.776H113.256V39.264H114V40.74H114.744V42.972H115.476V44.58H114.612V43.092H113.868V40.872ZM117.924 44.448H119.424V42.972H120.156V41.484H120.9V39.264H121.644V37.776H122.388V35.556H123.252V37.908H122.508V39.384H121.776V41.616H121.032V43.092H120.288V44.448H123.12V43.716H126.828V43.092H126.084V42.36H125.352V40.872H124.608V39.996H125.472V40.74H126.216V42.228H126.96V42.972H127.704V44.448H128.436V46.08H127.572V44.58H123.252V45.336H117.924V44.448ZM131.628 41.484H132.372V40.74H133.104V39.996H134.592V34.812H135.456V39.264H136.812V38.52H140.652V39.384H136.944V40.128H134.724V40.872H133.236V41.616H132.492V43.716H133.98V44.448H140.652V45.336H133.848V44.58H132.372V43.836H131.628V41.484ZM144.96 44.448H147.18V43.716H148.656V42.972H150.144V42.228H150.888V40.74H151.62V39.264H152.364V36.288H153.24V39.384H152.496V40.872H151.752V42.36H151.008V43.092H150.276V43.836H148.788V44.58H147.312V45.336H144.96V44.448ZM146.436 39.384H145.692V37.908H144.96V36.288H145.824V37.776H146.568V39.264H147.312V40.872H146.436V39.384ZM157.548 39.996H166.572V40.872H157.548V39.996ZM172.356 39.384H171.744V40.128H170.124V39.264H171.624V38.52H172.356V35.556H173.232V38.52H174.588V37.776H176.808V37.032H179.904V39.384H179.16V40.872H178.416V41.616H177.672V42.36H176.94V43.092H175.32V42.228H176.808V41.484H177.552V40.74H178.284V39.264H179.028V37.908H176.94V38.652H174.708V39.384H173.232V44.448H179.904V45.336H173.1V44.58H172.356V39.384ZM183.468 39.996H192.492V40.872H183.468V39.996ZM203.832 36.42H203.088V35.676H202.356V34.812H203.22V35.556H203.832V34.812H204.708V35.556H205.44V36.288H206.184V37.164H205.308V36.42H204.708V37.164H203.832V36.42ZM198.648 36.42H197.16V35.556H198.78V36.288H200.256V37.032H201V37.908H200.124V37.164H198.648V36.42ZM204.576 36.288V35.676H203.964V36.288H204.576ZM196.428 44.448H198.648V43.716H200.868V42.972H202.356V42.228H203.088V41.484H203.832V39.996H204.576V37.776H205.44V40.128H204.708V41.616H203.964V42.36H203.22V43.092H202.476V43.836H201V44.58H198.78V45.336H196.428V44.448ZM197.16 38.652H195.684V37.776H197.292V38.52H198.78V39.264H199.512V40.128H198.648V39.384H197.16V38.652ZM209.4 43.836H208.644V39.996H209.4V38.52H210.144V37.776H210.876V37.032H212.364V36.288H216.192V37.032H217.68V37.776H218.424V39.264H219.156V43.092H218.424V44.58H217.68V45.336H216.192V46.08H213.84V45.192H216.072V44.448H217.548V42.972H218.292V39.384H217.548V37.908H216.072V37.164H214.716V39.384H213.972V41.616H213.228V43.092H212.496V44.58H211.752V45.336H210.144V44.58H209.4V43.836ZM210.264 43.716V44.448H211.62V42.972H212.364V41.484H213.108V39.264H213.84V37.164H212.496V37.908H211.008V38.652H210.264V40.128H209.532V43.716H210.264ZM221.232 42.216H228.66V41.604H222.732V37.764H226.428V37.152H221.988V36.276H226.428V34.8H227.304V36.276H231.744V37.152H227.304V37.764H231.012V41.604H229.524V42.216H232.488V43.08H229.524V45.324H228.78V46.068H226.428V45.18H228.66V43.08H221.232V42.216ZM226.428 39.252V38.64H223.596V39.252H226.428ZM230.136 39.252V38.64H227.304V39.252H230.136ZM230.136 40.728V40.116H227.304V40.728H230.136ZM226.428 40.728V40.116H223.596V40.728H226.428ZM223.464 43.704H225.084V44.436H225.816V45.324H224.952V44.568H223.464V43.704ZM244.188 45.18V40.116H240.492V34.8H245.064V45.324H244.32V46.068H241.968V45.18H244.188ZM234.564 34.8H239.136V40.116H235.428V46.068H234.564V34.8ZM238.272 37.02V35.664H235.428V37.02H238.272ZM244.188 37.02V35.664H241.356V37.02H244.188ZM244.188 39.252V37.896H241.356V39.252H244.188ZM238.272 39.252V37.896H235.428V39.252H238.272ZM247.524 44.436H248.28V42.216H249.024V36.276H252.72V34.8H253.596V36.276H258.036V37.152H253.596V39.252H258.036V40.116H253.596V41.472H257.304V46.068H256.428V45.324H251.376V46.068H250.5V41.472H252.72V37.152H249.888V42.348H249.144V44.568H248.412V46.068H247.524V44.436ZM256.428 44.436V42.348H251.376V44.436H256.428ZM260.484 43.716H261.228V42.228H261.96V39.996H262.704V38.652H260.484V37.776H263.448V34.812H264.312V37.776H266.544V38.52H267.276V43.092H266.544V44.58H265.8V45.336H262.704V44.448H265.668V42.972H266.412V38.652H263.58V40.128H262.836V42.36H262.092V43.836H261.348V45.336H260.484V43.716ZM268.632 36.42H267.888V35.556H268.632V34.812H269.508V35.556H270.24V36.288H270.984V37.164H270.24V37.908H269.376V37.164H268.632V36.42ZM269.376 36.288V35.676H268.764V36.288H269.376ZM270.108 37.032V36.42H269.508V37.032H270.108ZM267.156 37.032H268.02V37.776H268.764V38.52H269.508V39.264H270.24V40.74H270.984V41.616H270.108V40.872H269.376V39.384H268.632V38.652H267.888V37.908H267.156V37.032ZM273.828 43.836H273.072V42.228H273.828V41.484H274.572V40.74H275.304V39.996H276.792V37.908H273.828V37.032H276.792V34.812H277.656V37.032H279.888V37.908H277.656V39.264H281.364V39.996H282.852V40.74H283.584V43.836H282.852V44.58H282.108V45.336H281.364V46.08H278.268V45.192H281.232V44.448H281.976V43.716H282.72V40.872H281.232V40.128H277.656V44.58H276.924V45.336H274.572V44.58H273.828V43.836ZM280.5 36.288H282.108V37.032H283.584V37.776H284.328V38.652H283.452V37.908H281.976V37.164H280.5V36.288ZM274.692 43.716V44.448H276.792V40.872H275.436V41.616H274.692V42.36H273.96V43.716H274.692ZM290.868 45.192V44.448H291.6V43.716H292.344V42.36H291.732V43.092H289.38V42.36H288.636V39.996H289.38V39.264H291.732V39.996H292.344V37.908H286.404V37.032H292.344V34.812H293.22V37.032H296.916V37.908H293.22V43.836H292.476V44.58H291.732V45.336H290.988V46.08H289.38V45.192H290.868ZM291.6 42.228V41.484H292.344V40.872H291.6V40.128H289.512V42.228H291.6ZM303.828 45.192V44.448H304.56V43.716H305.304V42.36H304.692V43.092H302.34V42.36H301.596V39.996H302.34V39.264H304.692V39.996H305.304V37.908H299.364V37.032H305.304V34.812H306.18V37.032H309.876V37.908H306.18V43.836H305.436V44.58H304.692V45.336H303.948V46.08H302.34V45.192H303.828ZM304.56 42.228V41.484H305.304V40.872H304.56V40.128H302.472V42.228H304.56ZM312.324 40.74H313.08V39.996H313.824V35.556H314.688V38.52H316.044V37.776H319.008V35.556H319.872V38.52H321.36V39.264H322.104V39.996H322.836V43.092H322.104V43.836H321.36V44.58H320.616V45.336H319.872V46.08H318.264V45.192H319.752V44.448H320.484V43.716H321.228V42.972H321.972V40.128H321.228V39.384H319.752V38.652H319.14V39.384H318.396V40.872H317.652V42.36H316.908V43.092H316.176V43.716H316.908V44.58H316.044V43.836H315.432V44.58H314.688V45.336H313.08V44.58H312.324V40.74ZM316.788 42.228V40.74H317.52V39.264H318.264V38.652H316.176V39.384H315.432V42.228H316.788ZM314.556 44.448V43.716H315.3V42.36H314.556V40.128H313.944V40.872H313.212V44.448H314.556ZM327.888 39.996H328.632V39.264H329.376V38.52H330.108V37.776H330.852V37.164H324.912V36.288H335.424V37.164H332.46V37.908H330.984V38.652H330.24V39.384H329.496V40.128H328.764V42.972H329.496V43.716H330.24V44.448H333.948V45.336H330.108V44.58H328.632V43.092H327.888V39.996ZM333.816 37.776H334.692V38.52H335.424V39.264H336.168V40.128H335.292V39.384H334.56V38.652H333.816V37.776ZM332.34 38.52H333.204V39.264H333.948V39.996H334.692V40.872H333.816V40.128H333.072V39.384H332.34V38.52ZM338.256 42.972H339.12V43.716H339.864V44.448H340.608V46.08H339.732V45.336H339V44.58H338.256V42.972ZM351.204 35.544H360.96V36.408H352.068V38.508H360.228V42.348H352.068V44.436H361.704V45.324H352.068V46.068H351.204V35.544ZM359.352 41.472V39.372H352.068V41.472H359.352ZM2.41199 62.18V61.436H3.14399V60.704H3.88799V59.96H4.63199V58.472H5.37599V56.984H6.10799V56.372H0.911993V55.508H6.10799V51.8H6.98399V55.508H12.168V56.372H6.98399V56.984H7.72799V58.472H8.45999V59.96H9.20399V60.704H9.94799V61.436H10.692V62.18H12.168V63.068H10.56V62.324H9.81599V61.568H9.07199V60.824H8.33999V60.08H7.59599V58.604H6.85199V57.116H6.23999V58.604H5.49599V60.08H4.76399V60.824H4.01999V61.568H3.27599V62.324H2.53199V63.068H0.911993V62.18H2.41199ZM14.244 59.972H14.988V58.484H15.72V56.996H16.464V55.52H17.208V54.908H14.244V54.032H17.208V53.288H17.952V51.812H18.816V53.42H18.072V54.032H20.304V54.908H18.072V55.652H17.34V57.128H16.596V58.616H15.852V60.092H15.108V60.836H14.244V59.972ZM20.916 54.032H24V54.776H24.744V55.652H23.868V54.908H20.916V54.032ZM17.208 59.972H17.952V59.228H20.916V56.264H21.78V59.972H22.524V60.716H23.268V61.448H24V62.336H23.136V61.58H22.392V60.836H21.78V61.58H21.036V62.336H20.304V63.08H17.952V62.336H17.208V59.972ZM20.172 62.192V61.448H20.916V60.092H18.072V62.192H20.172ZM28.32 61.448H30.54V60.716H32.016V59.972H33.504V59.228H34.248V57.74H34.98V56.264H35.724V53.288H36.6V56.384H35.856V57.872H35.112V59.36H34.368V60.092H33.636V60.836H32.148V61.58H30.672V62.336H28.32V61.448ZM29.796 56.384H29.052V54.908H28.32V53.288H29.184V54.776H29.928V56.264H30.672V57.872H29.796V56.384ZM40.908 56.996H49.932V57.872H40.908V56.996ZM55.716 56.384H55.104V57.128H53.484V56.264H54.984V55.52H55.716V52.556H56.592V55.52H57.948V54.776H60.168V54.032H63.264V56.384H62.52V57.872H61.776V58.616H61.032V59.36H60.3V60.092H58.68V59.228H60.168V58.484H60.912V57.74H61.644V56.264H62.388V54.908H60.3V55.652H58.068V56.384H56.592V61.448H63.264V62.336H56.46V61.58H55.716V56.384ZM66.828 56.996H75.852V57.872H66.828V56.996ZM87.192 53.42H86.448V52.676H85.716V51.812H86.58V52.556H87.192V51.812H88.068V52.556H88.8V53.288H89.544V54.164H88.668V53.42H88.068V54.164H87.192V53.42ZM82.008 53.42H80.52V52.556H82.14V53.288H83.616V54.032H84.36V54.908H83.484V54.164H82.008V53.42ZM87.936 53.288V52.676H87.324V53.288H87.936ZM79.788 61.448H82.008V60.716H84.228V59.972H85.716V59.228H86.448V58.484H87.192V56.996H87.936V54.776H88.8V57.128H88.068V58.616H87.324V59.36H86.58V60.092H85.836V60.836H84.36V61.58H82.14V62.336H79.788V61.448ZM80.52 55.652H79.044V54.776H80.652V55.52H82.14V56.264H82.872V57.128H82.008V56.384H80.52V55.652ZM92.004 60.716H92.748V59.228H93.48V56.996H94.224V55.652H92.004V54.776H94.968V51.812H95.832V54.776H98.064V55.52H98.796V60.092H98.064V61.58H97.32V62.336H94.224V61.448H97.188V59.972H97.932V55.652H95.1V57.128H94.356V59.36H93.612V60.836H92.868V62.336H92.004V60.716ZM100.152 53.42H99.408V52.556H100.152V51.812H101.028V52.556H101.76V53.288H102.504V54.164H101.76V54.908H100.896V54.164H100.152V53.42ZM100.896 53.288V52.676H100.284V53.288H100.896ZM101.628 54.032V53.42H101.028V54.032H101.628ZM98.676 54.032H99.54V54.776H100.284V55.52H101.028V56.264H101.76V57.74H102.504V58.616H101.628V57.872H100.896V56.384H100.152V55.652H99.408V54.908H98.676V54.032ZM107.556 59.972H108.3V59.228H112.008V55.652H107.556V54.776H112.008V52.556H112.872V54.776H115.092V55.652H112.872V59.972H113.616V60.716H114.36V61.448H115.092V62.336H114.228V61.58H113.484V60.836H112.872V61.58H112.128V62.336H108.3V61.58H107.556V59.972ZM105.336 54.032H106.08V52.556H106.944V54.164H106.2V62.336H105.336V54.032ZM112.008 61.448V60.092H108.432V61.448H112.008ZM119.04 59.228H119.784V58.484H120.516V57.74H125.712V57.128H124.968V56.384H124.224V55.652H118.284V54.776H123.48V54.164H122.748V53.42H122.004V51.812H122.868V53.288H123.612V54.032H124.356V54.776H125.712V54.032H128.064V54.908H125.832V55.652H125.1V56.264H125.832V56.996H126.576V57.74H127.32V58.484H128.064V59.36H125.712V58.616H120.648V59.36H119.904V60.716H120.648V61.448H126.444V60.716H127.32V61.58H126.576V62.336H120.516V61.58H119.784V60.836H119.04V59.228ZM126.444 58.484V57.872H125.832V58.484H126.444ZM131.628 59.972H132.372V59.228H136.068V57.128H131.628V56.264H136.068V54.908H131.628V54.032H136.068V51.812H136.944V54.032H140.652V54.908H136.944V56.264H140.652V57.128H136.944V59.972H138.42V60.716H139.164V61.448H139.908V62.192H140.652V63.08H139.776V62.336H139.032V61.58H138.3V60.836H136.944V62.336H136.2V63.08H132.372V62.336H131.628V59.972ZM136.068 62.192V60.092H132.492V62.192H136.068ZM143.472 60.716H144.228V59.228H144.972V57.74H145.704V55.652H143.472V54.776H145.704V51.812H146.58V56.996H147.192V56.264H147.936V55.52H148.668V54.776H149.412V54.032H151.764V54.776H152.508V58.616H151.764V61.448H153.852V60.716H154.728V61.58H153.984V62.336H151.632V61.58H150.9V58.484H151.632V54.908H149.544V55.652H148.8V56.384H148.056V57.128H147.324V57.872H146.58V63.08H145.704V59.36H145.092V60.836H144.36V62.336H143.472V60.716ZM157.176 60.716H157.92V58.484H158.652V55.52H159.396V54.908H157.176V54.032H159.396V51.812H160.272V54.032H163.968V54.908H160.272V55.652H159.528V58.616H158.784V60.836H158.04V62.336H157.176V60.716ZM161.616 56.264H166.932V57.128H161.616V56.264ZM160.884 59.972H161.616V59.228H162.492V60.092H161.748V61.448H166.932V62.336H161.616V61.58H160.884V59.972ZM174.96 62.192V55.652H170.52V54.776H174.96V51.812H175.836V54.776H180.276V55.652H175.836V62.336H175.092V63.08H172.74V62.192H174.96ZM169.764 60.716H170.52V59.972H171.264V58.484H171.996V56.996H172.872V58.616H172.128V60.092H171.384V60.836H170.652V61.58H169.764V60.716ZM177.192 56.996H178.056V57.74H178.8V58.484H179.544V59.972H180.276V61.58H179.412V60.092H178.668V58.616H177.924V57.872H177.192V56.996ZM187.548 55.652H186.804V54.908H186.06V54.032H186.936V54.776H187.668V55.52H188.412V57.128H187.548V55.652ZM185.316 61.448H187.548V60.716H189.024V59.972H189.768V59.228H190.512V57.74H191.244V54.776H192.12V57.872H191.376V59.36H190.632V60.092H189.9V60.836H189.156V61.58H187.668V62.336H185.316V61.448ZM185.316 56.384H184.584V55.652H183.84V54.776H184.704V55.52H185.448V56.264H186.192V57.872H185.316V56.384ZM197.16 51.812H198.036V55.52H199.512V56.264H201.744V56.996H203.22V57.74H204.708V58.616H203.088V57.872H201.612V57.128H199.392V56.384H198.036V63.08H197.16V51.812ZM209.76 51.812H210.636V55.52H212.112V56.264H214.344V56.996H215.82V57.74H217.308V58.616H215.688V57.872H214.212V57.128H211.992V56.384H210.636V63.08H209.76V51.812ZM216.432 52.676H215.688V51.812H216.564V52.556H217.308V53.288H218.04V54.164H217.176V53.42H216.432V52.676ZM215.688 54.164H214.956V53.42H214.212V52.556H215.076V53.288H215.82V54.032H216.564V54.908H215.688V54.164ZM226.428 55.652H225.684V54.908H224.94V54.032H225.816V54.776H226.548V55.52H227.292V57.128H226.428V55.652ZM224.196 61.448H226.428V60.716H227.904V59.972H228.648V59.228H229.392V57.74H230.124V54.776H231V57.872H230.256V59.36H229.512V60.092H228.78V60.836H228.036V61.58H226.548V62.336H224.196V61.448ZM224.196 56.384H223.464V55.652H222.72V54.776H223.584V55.52H224.328V56.264H225.072V57.872H224.196V56.384ZM237.528 62.192V61.448H239.016V60.716H240.492V59.972H241.236V59.228H241.98V57.74H242.712V56.264H243.456V54.908H238.404V56.384H237.66V57.128H236.916V57.872H236.172V58.616H235.308V57.74H236.052V56.996H236.784V56.264H237.528V54.776H238.272V53.288H239.016V51.812H239.88V53.42H239.136V54.032H244.332V56.384H243.588V57.872H242.844V59.36H242.1V60.092H241.368V60.836H240.624V61.58H239.136V62.336H237.66V63.08H235.308V62.192H237.528ZM247.524 60.716H248.268V59.228H249V56.996H249.744V55.652H247.524V54.776H250.488V51.812H251.352V54.776H253.584V55.52H254.316V60.092H253.584V61.58H252.84V62.336H249.744V61.448H252.708V59.972H253.452V55.652H250.62V57.128H249.876V59.36H249.132V60.836H248.388V62.336H247.524V60.716ZM255.672 53.42H254.928V52.556H255.672V51.812H256.548V52.556H257.28V53.288H258.024V54.164H257.28V54.908H256.416V54.164H255.672V53.42ZM256.416 53.288V52.676H255.804V53.288H256.416ZM257.148 54.032V53.42H256.548V54.032H257.148ZM254.196 54.032H255.06V54.776H255.804V55.52H256.548V56.264H257.28V57.74H258.024V58.616H257.148V57.872H256.416V56.384H255.672V55.652H254.928V54.908H254.196V54.032ZM261.228 58.484H261.972V57.74H262.704V56.996H264.192V51.812H265.056V56.264H266.412V55.52H270.252V56.384H266.544V57.128H264.324V57.872H262.836V58.616H262.092V60.716H263.58V61.448H270.252V62.336H263.448V61.58H261.972V60.836H261.228V58.484ZM276.42 56.996H277.164V56.264H277.908V55.52H278.64V54.776H279.384V54.164H273.444V53.288H283.956V54.164H280.992V54.908H279.516V55.652H278.772V56.384H278.028V57.128H277.296V59.972H278.028V60.716H278.772V61.448H282.48V62.336H278.64V61.58H277.164V60.092H276.42V56.996ZM288.636 57.872H286.404V56.996H288.636V54.908H287.16V54.032H289.38V51.812H290.256V54.032H293.22V54.908H289.512V56.996H293.22V57.872H289.512V61.448H290.256V62.192H294.564V61.448H295.308V60.716H296.052V57.872H295.308V56.384H294.564V55.52H295.44V56.264H296.184V57.74H296.916V60.836H296.184V61.58H295.44V62.336H294.696V63.08H290.124V62.336H289.38V61.58H288.636V57.872ZM307.512 53.42H306.768V52.676H306.036V51.812H306.9V52.556H307.512V51.812H308.388V52.556H309.12V53.288H309.864V54.164H308.988V53.42H308.388V54.164H307.512V53.42ZM302.328 53.42H300.84V52.556H302.46V53.288H303.936V54.032H304.68V54.908H303.804V54.164H302.328V53.42ZM308.256 53.288V52.676H307.644V53.288H308.256ZM300.108 61.448H302.328V60.716H304.548V59.972H306.036V59.228H306.768V58.484H307.512V56.996H308.256V54.776H309.12V57.128H308.388V58.616H307.644V59.36H306.9V60.092H306.156V60.836H304.68V61.58H302.46V62.336H300.108V61.448ZM300.84 55.652H299.364V54.776H300.972V55.52H302.46V56.264H303.192V57.128H302.328V56.384H300.84V55.652ZM313.068 61.448H318.996V58.484H319.74V56.384H313.812V55.52H320.604V58.616H319.86V61.448H322.092V62.336H313.068V61.448ZM326.028 56.996H335.052V57.872H326.028V56.996ZM341.58 53.42H340.092V52.556H341.712V53.288H343.188V54.032H343.932V54.908H343.056V54.164H341.58V53.42ZM339.36 61.448H341.58V60.716H343.8V59.972H345.288V59.228H346.02V58.484H346.764V56.996H347.508V54.776H348.372V57.128H347.64V58.616H346.896V59.36H346.152V60.092H345.408V60.836H343.932V61.58H341.712V62.336H339.36V61.448ZM340.092 55.652H338.616V54.776H340.224V55.52H341.712V56.264H342.444V57.128H341.58V56.384H340.092V55.652ZM351.948 56.996H360.972V57.872H351.948V56.996ZM127.008 73.996H127.752V73.264H128.496V72.52H129.228V71.776H129.972V71.164H124.032V70.288H134.544V71.164H131.58V71.908H130.104V72.652H129.36V73.384H128.616V74.128H127.884V76.972H128.616V77.716H129.36V78.448H133.068V79.336H129.228V78.58H127.752V77.092H127.008V73.996ZM132.936 71.776H133.812V72.52H134.544V73.264H135.288V74.128H134.412V73.384H133.68V72.652H132.936V71.776ZM131.46 72.52H132.324V73.264H133.068V73.996H133.812V74.872H132.936V74.128H132.192V73.384H131.46V72.52ZM137.748 79.18V78.436H138.492V77.704H139.224V76.96H139.968V76.216H140.712V75.472H141.456V73.984H142.188V68.8H143.064V73.984H143.808V75.472H144.54V76.96H145.284V77.704H146.028V78.436H146.772V79.18H148.248V80.068H146.64V79.324H145.896V78.568H145.152V77.824H144.42V77.08H143.676V75.604H142.932V74.116H142.32V75.604H141.576V76.348H140.844V77.08H140.1V77.824H139.356V78.568H138.612V79.324H137.88V80.068H136.992V79.18H137.748ZM149.952 73.252H150.708V72.508H151.452V71.02H152.184V68.8H153.06V70.276H160.464V71.152H152.316V72.64H151.572V73.252H158.988V78.436H159.732V79.18H160.332V76.96H161.208V79.324H160.464V80.068H159.6V79.324H158.856V78.568H158.112V74.116H151.452V73.372H150.84V74.116H149.952V73.252ZM152.928 71.764H159.732V72.64H152.928V71.764ZM151.452 79.18V78.436H152.928V77.704H153.672V76.348H152.184V75.604H151.452V74.728H152.316V75.472H153.804V76.216H155.148V75.472H155.892V74.728H156.768V75.604H156.024V76.348H155.28V77.704H156.024V78.436H156.768V79.18H157.5V80.068H156.636V79.324H155.892V78.568H155.148V77.824H153.804V78.568H153.06V79.324H151.572V80.068H150.708V79.18H151.452ZM163.284 77.716H164.028V76.228H164.76V73.996H165.504V72.652H163.284V71.776H166.248V68.812H167.112V71.776H169.344V72.52H170.076V77.092H169.344V78.58H168.6V79.336H165.504V78.448H168.468V76.972H169.212V72.652H166.38V74.128H165.636V76.36H164.892V77.836H164.148V79.336H163.284V77.716ZM171.432 70.42H170.688V69.556H171.432V68.812H172.308V69.556H173.04V70.288H173.784V71.164H173.04V71.908H172.176V71.164H171.432V70.42ZM172.176 70.288V69.676H171.564V70.288H172.176ZM172.908 71.032V70.42H172.308V71.032H172.908ZM169.956 71.032H170.82V71.776H171.564V72.52H172.308V73.264H173.04V74.74H173.784V75.616H172.908V74.872H172.176V73.384H171.432V72.652H170.688V71.908H169.956V71.032ZM175.872 70.276H181.068V68.8H181.944V70.276H187.128V71.152H175.872V70.276ZM178.104 71.764H184.908V74.116H178.104V71.764ZM184.032 73.252V72.64H178.98V73.252H184.032ZM176.628 74.728H186.384V79.324H185.652V80.068H183.3V79.18H185.52V75.604H177.492V80.068H176.628V74.728ZM178.848 76.216H184.164V78.568H178.848V76.216ZM183.3 77.704V77.08H179.724V77.704H183.3ZM190.32 77.092H189.576V70.288H190.44V76.972H191.184V78.448H193.284V77.716H194.016V76.228H194.892V77.836H194.148V78.58H193.404V79.336H191.052V78.58H190.32V77.092ZM197.724 73.384H196.98V71.908H196.248V70.288H197.112V71.776H197.856V73.264H198.6V75.484H199.332V77.836H198.468V75.616H197.724V73.384ZM204.768 73.996H205.512V73.264H206.256V72.52H206.988V71.776H207.732V71.164H201.792V70.288H212.304V71.164H209.34V71.908H207.864V72.652H207.12V73.384H206.376V74.128H205.644V76.972H206.376V77.716H207.12V78.448H210.828V79.336H206.988V78.58H205.512V77.092H204.768V73.996ZM210.696 71.776H211.572V72.52H212.304V73.264H213.048V74.128H212.172V73.384H211.44V72.652H210.696V71.776ZM209.22 72.52H210.084V73.264H210.828V73.996H211.572V74.872H210.696V74.128H209.952V73.384H209.22V72.52ZM219.588 79.192V78.448H220.32V77.716H221.064V76.36H220.452V77.092H218.1V76.36H217.356V73.996H218.1V73.264H220.452V73.996H221.064V71.908H215.124V71.032H221.064V68.812H221.94V71.032H225.636V71.908H221.94V77.836H221.196V78.58H220.452V79.336H219.708V80.08H218.1V79.192H219.588ZM220.32 76.228V75.484H221.064V74.872H220.32V74.128H218.232V76.228H220.32ZM228.096 76.972H228.84V76.228H231.192V76.972H231.924V79.336H231.192V80.08H228.84V79.336H228.096V76.972ZM231.06 79.192V77.092H228.96V79.192H231.06Z"></path>
</svg>
