<svg xmlns="http://www.w3.org/2000/svg" fill="none" viewBox="0 0 343 115" height="115" width="343">
<rect stroke-width="2" stroke="black" fill="#FFF4E4" rx="11" height="109" width="326" y="1" x="16"></rect>
<path fill="black" d="M65.984 41.872H67.496V37.432H68.984V25.552H77.864V22.6H79.616V25.552H88.496V27.304H82.568V30.016H87.008V36.208H81.08V38.92H83.792V37.432H87.008V39.16H84.056V40.648H81.08V43.36H86.744V40.408H88.496V43.648H87.008V45.136H80.84V43.648H79.352V36.208H73.688V37.432H78.128V39.16H73.688V41.872H78.128V43.648H73.688V45.136H68.984V43.36H71.936V36.208H70.712V37.696H69.224V42.136H67.76V45.136H65.984V41.872ZM80.84 30.016V27.304H76.64V30.016H80.84ZM74.912 30.016V27.304H70.712V30.016H74.912ZM80.84 34.456V31.744H76.64V34.456H80.84ZM74.912 34.456V31.744H70.712V34.456H74.912ZM85.28 34.456V31.744H82.568V34.456H85.28ZM100.352 24.088H110.984V36.208H100.352V24.088ZM94.424 24.088H96.152V36.208H94.424V24.088ZM109.232 28.528V25.816H102.08V28.528H109.232ZM109.232 34.456V30.28H102.08V34.456H109.232ZM104.792 37.432H106.52V43.36H112.184V38.92H113.936V43.648H112.448V45.136H106.28V43.648H104.792V37.432ZM94.424 43.36V41.872H97.376V38.92H98.864V37.432H100.592V39.16H99.128V42.136H97.64V43.648H94.664V45.136H91.424V43.36H94.424ZM117.608 40.408H119.336V41.872H123.536V39.16H119.096V25.552H125.024V24.088H126.488V22.6H128.24V24.328H126.752V25.552H134.168V33.232H120.824V34.456H138.608V36.208H120.824V37.432H137.12V43.648H135.656V45.136H132.416V43.36H135.392V39.16H125.264V41.872H129.464V40.408H131.192V45.136H129.464V43.648H119.336V45.136H117.608V40.408ZM132.416 28.528V27.304H120.824V28.528H132.416ZM132.416 31.504V30.28H120.824V31.504H132.416ZM143.792 27.04H152.672V22.6H154.424V27.04H163.304V39.16H161.576V37.696H154.424V45.136H152.672V37.696H145.52V39.16H143.792V27.04ZM161.576 35.944V28.792H154.424V35.944H161.576ZM152.672 35.944V28.792H145.52V35.944H152.672ZM170.744 43.36V41.872H173.696V38.92H175.184V36.208H167.744V34.456H170.744V27.04H176.672V22.6H178.4V27.04H185.816V34.456H190.256V36.208H179.888V37.432H181.376V40.408H182.84V41.872H185.816V43.36H190.256V45.136H185.552V43.648H182.6V42.136H181.112V40.648H179.624V37.696H178.136V36.208H176.912V39.16H175.448V42.136H173.96V43.648H170.984V45.136H167.744V43.36H170.744ZM184.064 34.456V28.792H178.4V34.456H184.064ZM176.672 34.456V28.792H172.472V34.456H176.672ZM193.184 41.872H194.696V38.92H196.424V41.872H197.648V38.92H199.4V41.872H200.624V38.92H202.352V42.136H200.888V43.36H203.576V37.696H194.696V24.088H203.84V25.816H200.888V28.528H203.84V30.28H200.888V31.504H203.84V33.232H200.888V35.944H205.328V41.872H206.552V24.088H214.208V33.232H211.256V35.944H212.744V40.408H214.208V43.36H215.696V45.136H213.944V43.648H212.48V40.648H210.992V36.208H209.504V33.232H208.28V42.136H206.816V45.136H205.064V43.648H203.84V45.136H199.136V42.136H197.912V45.136H196.184V42.136H194.96V45.136H193.184V41.872ZM212.48 31.504V25.816H208.28V31.504H212.48ZM199.136 28.528V25.816H196.424V28.528H199.136ZM199.136 31.504V30.28H196.424V31.504H199.136ZM199.136 35.944V33.232H196.424V35.944H199.136ZM228.272 27.064H231.488V30.304H228.272V27.064ZM228.272 38.944H231.488V42.16H228.272V38.944ZM248.528 33.232H247.304V36.208H245.84V37.696H244.064V35.944H245.576V32.968H247.064V30.28H244.064V28.528H248.528V22.6H250.28V28.528H253.232V30.28H250.28V31.504H251.768V32.968H253.232V34.456H257.432V31.504H259.16V34.456H266.576V36.208H263.624V39.16H262.136V40.648H260.648V41.872H263.624V43.36H266.576V45.136H263.36V43.648H260.384V42.136H257.696V43.648H256.208V45.136H252.992V43.36H255.944V41.872H257.432V40.648H255.944V39.16H254.456V37.432H255.944V36.208H252.992V34.72H251.504V33.232H250.28V45.136H248.528V33.232ZM258.92 25.816H257.432V22.6H259.16V25.552H260.648V28.792H258.92V25.816ZM263.36 28.528H264.824V24.088H266.576V28.792H265.088V31.744H263.36V28.528ZM254.456 27.304H252.992V24.088H254.72V27.04H256.208V30.28H254.456V27.304ZM257.696 38.92V40.408H260.384V38.92H261.872V36.208H257.696V37.696H256.208V38.92H257.696ZM270.248 40.408H271.976V41.872H276.176V39.16H271.736V25.552H277.664V24.088H279.128V22.6H280.88V24.328H279.392V25.552H286.808V33.232H273.464V34.456H291.248V36.208H273.464V37.432H289.76V43.648H288.296V45.136H285.056V43.36H288.032V39.16H277.904V41.872H282.104V40.408H283.832V45.136H282.104V43.648H271.976V45.136H270.248V40.408ZM285.056 28.528V27.304H273.464V28.528H285.056ZM285.056 31.504V30.28H273.464V31.504H285.056Z"></path>
<path fill="black" d="M61.412 60.556H62.156V59.812H63.032V60.556H63.764V61.288H64.508V62.164H63.764V62.908H62.9V62.164H62.156V61.42H61.412V60.556ZM62.9 61.288V60.676H62.288V61.288H62.9ZM53.252 69.448H54.008V67.972H54.752V66.484H55.484V64.264H56.228V61.288H57.104V64.384H56.36V66.616H55.616V68.092H54.872V69.58H54.14V70.336H53.252V69.448ZM62.156 65.872H61.412V64.384H60.68V62.908H59.936V61.288H60.8V62.776H61.544V64.264H62.288V65.74H63.032V67.972H63.764V69.58H62.9V68.092H62.156V65.872ZM63.632 62.032V61.42H63.032V62.032H63.632ZM66.584 69.448H68.084V68.716H69.56V67.972H71.048V67.228H71.78V66.484H72.524V64.996H73.268V63.52H74.012V62.164H67.34V61.288H74.876V63.652H74.132V65.128H73.4V66.484H74.132V67.228H74.876V67.972H75.62V68.716H76.364V69.448H77.096V70.336H76.232V69.58H75.488V68.836H74.744V68.092H74.012V67.36H73.268V66.616H72.656V67.36H71.912V68.092H71.168V68.836H69.692V69.58H68.204V70.336H66.584V69.448ZM81.404 69.448H83.624V68.716H85.1V67.972H86.588V67.228H87.332V65.74H88.064V64.264H88.808V61.288H89.684V64.384H88.94V65.872H88.196V67.36H87.452V68.092H86.72V68.836H85.232V69.58H83.756V70.336H81.404V69.448ZM84.368 63.652H83.624V62.164H82.88V61.288H83.756V62.032H84.488V63.52H85.232V65.128H84.368V63.652ZM81.404 64.384H80.66V62.908H79.904V62.032H80.792V62.776H81.524V64.264H82.268V65.872H81.404V64.384ZM98.804 65.74H99.548V64.996H100.28V64.264H101.024V62.776H101.768V61.42H92.876V60.556H102.632V62.908H101.9V64.384H101.156V65.128H100.412V65.872H99.668V66.616H98.804V65.74ZM92.876 69.448H94.352V68.716H95.096V67.972H95.84V66.484H96.584V62.776H97.448V66.616H96.704V68.092H95.972V68.836H95.228V69.58H94.484V70.336H92.876V69.448ZM106.208 64.996H115.232V65.872H106.208V64.996ZM121.4 65.872H120.656V65.128H119.312V65.872H118.424V64.996H119.18V64.264H120.656V62.908H119.924V60.556H120.788V62.776H121.532V63.52H122.888V62.776H124.364V61.42H123.62V59.812H124.496V61.288H125.24V62.776H127.46V63.52H128.204V64.264H128.936V66.616H128.204V67.36H126.716V68.092H123.62V67.228H126.584V66.484H128.072V64.384H127.328V63.652H123.008V64.384H121.532V65.74H122.276V68.716H123.008V71.08H122.144V68.836H121.4V65.872ZM131.768 64.984H136.34V65.728H136.952V64.372H131.012V63.508H132.512V62.152H131.012V61.276H132.512V59.8H133.376V61.276H134.732V59.8H135.596V61.276H137.084V62.152H135.596V63.508H137.084V64.252H137.696V59.8H138.56V62.764H142.268V63.64H141.524V65.86H140.792V67.348H140.048V68.704H140.792V70.18H142.268V71.068H140.66V70.324H139.916V68.824H139.304V69.568H138.56V70.324H137.828V71.068H136.952V70.18H137.696V69.436H138.44V68.704H139.172V67.348H138.44V65.86H137.084V66.604H136.34V70.324H135.596V71.068H133.988V70.18H135.476V68.824H132.632V71.068H131.768V64.984ZM134.732 63.508V62.152H133.376V63.508H134.732ZM139.304 65.728V67.216H139.916V65.728H140.66V63.64H138.56V65.728H139.304ZM135.476 66.472V65.86H132.632V66.472H135.476ZM135.476 67.96V67.348H132.632V67.96H135.476ZM143.972 69.436H146.204V68.704H147.692V67.96H149.168V66.604H146.336V68.08H145.472V65.728H149.168V64.372H144.728V63.508H149.168V62.02H149.912V61.408H147.824V62.02H148.556V62.896H147.692V62.152H146.948V61.408H146.336V62.152H145.592V62.896H143.972V62.02H145.472V61.276H146.204V59.8H147.08V60.544H150.044V61.276H150.656V59.8H151.52V60.544H155.228V61.408H153.008V62.02H153.752V62.896H152.876V62.152H152.132V61.408H150.788V62.152H150.044V63.508H154.484V64.372H150.044V65.728H154.484V67.348H153.752V68.08H152.264V68.704H153.752V69.436H155.228V70.324H153.62V69.568H152.132V68.824H150.656V68.08H150.044V71.068H149.168V68.824H147.824V69.568H146.336V70.324H143.972V69.436ZM150.788 67.216V67.96H152.132V67.216H153.62V66.604H150.044V67.216H150.788ZM157.676 67.228H158.42V65.74H159.152V64.996H159.896V63.52H160.64V62.908H157.676V62.032H161.384V59.812H162.248V62.032H165.956V62.908H161.504V63.52H162.992V64.264H163.736V65.74H164.348V64.996H165.824V64.264H167.432V65.128H165.956V65.872H164.468V66.616H163.736V69.58H162.86V67.36H161.504V68.092H160.772V70.192H166.7V71.08H160.64V70.336H159.896V67.972H160.64V67.228H161.384V66.484H162.86V64.384H160.772V65.128H160.028V65.872H159.284V67.36H158.54V68.092H157.676V67.228ZM169.892 69.436H171.392V68.704H172.868V67.96H174.356V67.348H169.892V66.472H175.088V65.86H173.612V61.276H174.356V60.544H175.088V59.8H175.964V60.664H175.22V61.276H177.44V65.86H175.964V66.472H181.148V67.348H176.708V67.96H178.184V68.704H179.672V69.436H181.148V70.324H179.54V69.568H178.052V68.824H176.576V68.08H175.964V71.068H175.088V68.08H174.476V68.824H173V69.568H171.512V70.324H169.892V69.436ZM172.124 62.152H171.392V61.408H170.648V60.544H171.512V61.276H172.256V62.02H173V62.896H172.124V62.152ZM178.052 62.02H178.796V61.276H179.54V60.544H180.404V61.408H179.672V62.152H178.928V62.896H178.052V62.02ZM176.576 62.764V62.152H174.476V62.764H176.576ZM169.892 64.984H171.392V64.252H172.124V63.508H173V64.372H172.256V65.116H171.512V65.86H169.892V64.984ZM178.052 63.508H178.928V64.252H179.672V64.984H181.148V65.86H179.54V65.116H178.796V64.372H178.052V63.508ZM176.576 64.984V63.64H174.476V64.984H176.576ZM183.968 60.556H184.832V68.716H185.576V69.448H189.152V68.716H190.628V67.972H191.372V67.228H192.116V66.484H192.98V67.36H192.248V68.092H191.504V68.836H190.76V69.58H189.284V70.336H185.444V69.58H184.7V68.836H183.968V60.556ZM197.3 68.092H196.556V64.996H197.3V64.264H198.776V62.908H196.556V62.032H198.776V59.812H199.652V62.032H202.616V62.908H199.652V68.092H198.908V70.192H203.96V69.448H204.704V67.36H203.96V66.484H204.836V67.228H205.58V69.58H204.836V70.336H204.092V71.08H198.776V70.336H198.032V68.836H197.3V68.092ZM205.448 63.652H204.704V62.908H203.96V62.164H203.228V61.288H204.092V62.032H204.836V62.776H205.58V63.52H206.312V65.128H205.448V63.652ZM198.776 67.972V65.128H197.42V67.972H198.776ZM210.632 61.288H218.168V62.164H210.632V61.288ZM209.888 67.228H210.632V66.484H211.496V67.36H210.752V68.716H212.24V69.448H218.036V68.716H218.912V69.58H218.168V70.336H212.108V69.58H210.632V68.836H209.888V67.228ZM222.848 66.484H223.592V65.74H224.324V64.996H225.812V59.812H226.676V64.264H228.032V63.52H231.872V64.384H228.164V65.128H225.944V65.872H224.456V66.616H223.712V68.716H225.2V69.448H231.872V70.336H225.068V69.58H223.592V68.836H222.848V66.484ZM235.064 68.716H235.808V67.228H236.54V64.996H237.284V63.652H235.064V62.776H238.028V59.812H238.892V62.776H241.124V63.52H241.856V68.092H241.124V69.58H240.38V70.336H237.284V69.448H240.248V67.972H240.992V63.652H238.16V65.128H237.416V67.36H236.672V68.836H235.928V70.336H235.064V68.716ZM243.212 61.42H242.468V60.556H243.212V59.812H244.088V60.556H244.82V61.288H245.564V62.164H244.82V62.908H243.956V62.164H243.212V61.42ZM243.956 61.288V60.676H243.344V61.288H243.956ZM244.688 62.032V61.42H244.088V62.032H244.688ZM241.736 62.032H242.6V62.776H243.344V63.52H244.088V64.264H244.82V65.74H245.564V66.616H244.688V65.872H243.956V64.384H243.212V63.652H242.468V62.908H241.736V62.032ZM250.628 64.996H251.372V64.264H252.116V63.52H252.848V62.776H253.592V62.164H247.652V61.288H258.164V62.164H255.2V62.908H253.724V63.652H252.98V64.384H252.236V65.128H251.504V67.972H252.236V68.716H252.98V69.448H256.688V70.336H252.848V69.58H251.372V68.092H250.628V64.996ZM256.556 62.776H257.432V63.52H258.164V64.264H258.908V65.128H258.032V64.384H257.3V63.652H256.556V62.776ZM255.08 63.52H255.944V64.264H256.688V64.996H257.432V65.872H256.556V65.128H255.812V64.384H255.08V63.52ZM262.472 67.228H263.204V66.484H268.4V65.872H267.656V65.128H261.728V64.264H266.912V63.652H266.168V62.908H261.728V62.032H265.436V61.42H264.692V59.812H265.556V61.288H266.3V62.032H267.656V61.288H270.008V62.164H267.788V62.908H267.044V63.52H267.788V64.264H268.4V63.52H270.752V64.384H268.52V65.74H269.264V66.484H270.008V67.228H270.752V68.092H269.132V67.36H263.336V69.448H270.008V70.336H263.204V69.58H262.472V67.228ZM274.688 67.972H275.432V67.228H279.128V65.128H274.688V64.264H279.128V62.908H274.688V62.032H279.128V59.812H280.004V62.032H283.712V62.908H280.004V64.264H283.712V65.128H280.004V67.972H281.48V68.716H282.224V69.448H282.968V70.192H283.712V71.08H282.836V70.336H282.092V69.58H281.36V68.836H280.004V70.336H279.26V71.08H275.432V70.336H274.688V67.972ZM279.128 70.192V68.092H275.552V70.192H279.128ZM291.368 70.192V69.448H292.1V68.716H292.844V67.36H292.232V68.092H289.88V67.36H289.136V64.996H289.88V64.264H292.232V64.996H292.844V62.908H286.904V62.032H292.844V59.812H293.72V62.032H297.416V62.908H293.72V68.836H292.976V69.58H292.232V70.336H291.488V71.08H289.88V70.192H291.368ZM292.1 67.228V66.484H292.844V65.872H292.1V65.128H290.012V67.228H292.1ZM299.876 67.972H300.62V67.228H302.972V67.972H303.704V70.336H302.972V71.08H300.62V70.336H299.876V67.972ZM302.84 70.192V68.092H300.74V70.192H302.84ZM34.544 83.484H36.044V82.74H37.52V81.996H39.008V81.264H39.74V80.52H40.484V79.776H41.228V79.032H41.972V78.288H42.704V77.556H43.448V76.812H44.324V77.676H43.58V78.42H42.836V79.164H42.092V79.908H41.36V88.08H40.484V81.384H39.872V82.128H39.128V82.872H37.652V83.616H36.164V84.36H34.544V83.484ZM50.108 79.908H48.632V79.164H47.888V78.288H48.752V79.032H50.24V79.776H51.716V80.52H52.46V81.384H51.596V80.652H50.108V79.908ZM47.888 86.448H50.108V85.716H51.596V84.972H53.072V84.228H53.816V83.484H54.56V82.74H55.292V81.264H56.036V79.032H56.912V81.384H56.168V82.872H55.424V83.616H54.68V84.36H53.948V85.092H53.204V85.836H51.716V86.58H50.24V87.336H47.888V86.448ZM60.104 86.448H61.604V85.716H63.08V84.972H64.568V84.228H65.3V83.484H66.044V81.996H66.788V80.52H67.532V79.164H60.86V78.288H68.396V80.652H67.652V82.128H66.92V83.484H67.652V84.228H68.396V84.972H69.14V85.716H69.884V86.448H70.616V87.336H69.752V86.58H69.008V85.836H68.264V85.092H67.532V84.36H66.788V83.616H66.176V84.36H65.432V85.092H64.688V85.836H63.212V86.58H61.724V87.336H60.104V86.448ZM80.096 77.556H80.84V76.812H82.448V77.556H83.192V79.164H82.448V79.908H80.84V79.164H80.096V77.556ZM73.436 77.556H74.3V81.996H75.656V81.264H77.876V80.52H79.364V79.776H80.228V80.652H79.484V81.384H78.008V82.128H75.788V82.872H74.3V86.448H81.716V87.336H74.168V86.58H73.436V77.556ZM82.316 79.032V77.676H80.972V79.032H82.316ZM86.768 77.556H87.632V86.448H88.988V85.716H90.464V84.972H91.952V84.228H92.696V83.484H93.428V82.74H94.172V81.996H94.916V81.264H95.78V82.128H95.048V82.872H94.304V83.616H93.56V84.36H92.816V85.092H92.084V85.836H90.596V86.58H89.12V87.336H86.768V77.556ZM99.728 81.996H108.752V82.872H99.728V81.996ZM115.28 78.42H113.792V77.556H115.412V78.288H116.888V79.032H117.632V79.908H116.756V79.164H115.28V78.42ZM113.06 86.448H115.28V85.716H117.5V84.972H118.988V84.228H119.72V83.484H120.464V81.996H121.208V79.776H122.072V82.128H121.34V83.616H120.596V84.36H119.852V85.092H119.108V85.836H117.632V86.58H115.412V87.336H113.06V86.448ZM113.792 80.652H112.316V79.776H113.924V80.52H115.412V81.264H116.144V82.128H115.28V81.384H113.792V80.652ZM126.392 85.716H133.052V83.616H127.124V82.74H133.052V80.652H126.392V79.776H133.928V87.336H133.052V86.58H126.392V85.716ZM140.828 79.908H139.352V79.164H138.608V78.288H139.472V79.032H140.96V79.776H142.436V80.52H143.18V81.384H142.316V80.652H140.828V79.908ZM138.608 86.448H140.828V85.716H142.316V84.972H143.792V84.228H144.536V83.484H145.28V82.74H146.012V81.264H146.756V79.032H147.632V81.384H146.888V82.872H146.144V83.616H145.4V84.36H144.668V85.092H143.924V85.836H142.436V86.58H140.96V87.336H138.608V86.448ZM151.196 84.228H151.94V82.74H152.672V81.996H153.416V80.52H154.16V79.908H151.196V79.032H154.904V76.812H155.768V79.032H159.476V79.908H155.024V80.52H156.512V81.264H157.256V82.74H157.868V81.996H159.344V81.264H160.952V82.128H159.476V82.872H157.988V83.616H157.256V86.58H156.38V84.36H155.024V85.092H154.292V87.192H160.22V88.08H154.16V87.336H153.416V84.972H154.16V84.228H154.904V83.484H156.38V81.384H154.292V82.128H153.548V82.872H152.804V84.36H152.06V85.092H151.196V84.228ZM163.412 85.704H164.912V84.96H165.644V84.216H166.388V83.472H167.132V81.372H165.032V83.604H164.168V80.508H167.132V79.152H163.412V78.276H167.132V76.8H167.996V78.276H170.96V79.152H167.996V80.508H170.228V83.604H168.74V84.216H169.484V85.704H170.96V86.568H169.352V85.824H168.608V84.348H167.996V88.068H167.132V84.348H166.52V85.08H165.776V85.824H165.032V86.568H163.412V85.704ZM173.792 87.18V76.8H174.668V87.324H173.924V88.068H171.572V87.18H173.792ZM171.572 78.276H172.448V85.08H171.572V78.276ZM168.608 83.472V82.728H169.352V81.372H167.996V83.472H168.608ZM180.092 87.18V85.704H180.836V83.604H179.348V82.728H180.836V82.116H180.092V78.276H180.836V77.544H181.568V76.8H182.444V77.664H181.7V78.276H183.188V81.984H183.8V79.764H184.532V76.8H185.408V79.764H187.628V80.64H186.884V83.604H186.152V85.704H186.884V87.18H187.628V88.068H186.752V87.324H186.02V85.824H185.408V86.568H184.664V87.324H183.92V88.068H183.056V87.324H182.444V88.068H180.836V87.324H180.224V88.068H179.348V87.18H180.092ZM178.604 78.408H177.872V77.664H177.128V76.8H177.992V77.544H178.736V78.276H179.48V79.152H178.604V78.408ZM182.312 79.764V79.152H180.956V79.764H182.312ZM177.872 81.372H177.128V80.64H176.372V79.764H177.26V80.508H177.992V81.252H178.736V82.116H177.872V81.372ZM186.02 83.472V80.64H184.664V81.984H185.408V83.472H186.02ZM182.312 81.252V80.64H180.956V81.252H182.312ZM183.188 84.216V87.18H183.8V86.436H184.532V84.96H185.276V83.604H184.532V82.116H183.92V83.604H181.7V84.216H183.188ZM183.056 82.728V82.116H181.7V82.728H183.056ZM176.372 86.436H177.128V84.216H177.872V82.728H178.736V84.348H177.992V86.568H177.26V88.068H176.372V86.436ZM182.312 87.18V85.08H181.7V85.824H180.956V87.18H182.312ZM190.82 84.228H191.564V83.484H192.296V82.74H197.492V82.128H196.748V81.384H196.004V80.652H190.064V79.776H195.26V79.164H194.528V78.42H193.784V76.812H194.648V78.288H195.392V79.032H196.136V79.776H197.492V79.032H199.844V79.908H197.612V80.652H196.88V81.264H197.612V81.996H198.356V82.74H199.1V83.484H199.844V84.36H197.492V83.616H192.428V84.36H191.684V85.716H192.428V86.448H198.224V85.716H199.1V86.58H198.356V87.336H192.296V86.58H191.564V85.836H190.82V84.228ZM198.224 83.484V82.872H197.612V83.484H198.224ZM202.292 85.716H203.048V84.228H203.792V82.74H204.524V80.652H202.292V79.776H204.524V76.812H205.4V81.996H206.012V81.264H206.756V80.52H207.488V79.776H208.232V79.032H210.584V79.776H211.328V83.616H210.584V86.448H212.672V85.716H213.548V86.58H212.804V87.336H210.452V86.58H209.72V83.484H210.452V79.908H208.364V80.652H207.62V81.384H206.876V82.128H206.144V82.872H205.4V88.08H204.524V84.36H203.912V85.836H203.18V87.336H202.292V85.716ZM217.112 84.972H217.844V84.228H220.196V84.972H220.94V86.448H223.04V85.716H223.772V84.972H224.516V83.616H223.772V82.872H218.72V83.616H217.232V84.36H216.368V83.484H217.112V82.74H218.588V81.996H219.332V81.264H220.076V80.52H221.552V79.776H222.296V79.164H217.112V78.288H223.904V79.164H223.16V79.908H222.428V80.652H221.684V81.384H220.196V81.996H223.904V82.74H224.648V83.484H225.392V85.092H224.648V86.58H223.16V87.336H217.844V86.58H217.112V84.972ZM220.076 86.448V85.092H217.976V86.448H220.076ZM234.152 82.86H233.408V81.984H234.896V81.252H236.372V80.508H237.116V79.896H234.284V80.64H233.54V81.372H232.676V80.508H233.408V79.02H234.152V76.8H235.028V79.02H239.468V79.896H237.992V80.64H237.248V81.372H236.504V82.728H237.248V83.472H237.86V82.728H238.592V81.984H239.468V82.86H238.724V83.604H237.992V85.704H238.724V87.18H239.468V88.068H238.592V87.324H237.86V85.824H237.116V84.348H236.372V82.86H235.64V82.116H235.028V88.068H234.152V82.86ZM228.212 86.436H228.968V84.216H229.712V79.896H228.212V79.02H230.444V76.8H231.32V79.02H232.796V79.896H230.576V81.984H232.796V87.324H232.064V88.068H230.444V87.18H231.932V82.86H230.576V84.348H229.832V86.568H229.1V88.068H228.212V86.436ZM241.544 85.716H242.288V84.228H243.02V81.996H243.764V80.652H241.544V79.776H244.508V76.812H245.372V79.776H247.604V80.52H248.336V85.092H247.604V86.58H246.86V87.336H243.764V86.448H246.728V84.972H247.472V80.652H244.64V82.128H243.896V84.36H243.152V85.836H242.408V87.336H241.544V85.716ZM249.692 78.42H248.948V77.556H249.692V76.812H250.568V77.556H251.3V78.288H252.044V79.164H251.3V79.908H250.436V79.164H249.692V78.42ZM250.436 78.288V77.676H249.824V78.288H250.436ZM251.168 79.032V78.42H250.568V79.032H251.168ZM248.216 79.032H249.08V79.776H249.824V80.52H250.568V81.264H251.3V82.74H252.044V83.616H251.168V82.872H250.436V81.384H249.692V80.652H248.948V79.908H248.216V79.032ZM254.132 86.436H255.632V85.704H257.108V84.96H258.596V84.348H254.132V83.472H259.328V82.86H257.852V78.276H258.596V77.544H259.328V76.8H260.204V77.664H259.46V78.276H261.68V82.86H260.204V83.472H265.388V84.348H260.948V84.96H262.424V85.704H263.912V86.436H265.388V87.324H263.78V86.568H262.292V85.824H260.816V85.08H260.204V88.068H259.328V85.08H258.716V85.824H257.24V86.568H255.752V87.324H254.132V86.436ZM256.364 79.152H255.632V78.408H254.888V77.544H255.752V78.276H256.496V79.02H257.24V79.896H256.364V79.152ZM262.292 79.02H263.036V78.276H263.78V77.544H264.644V78.408H263.912V79.152H263.168V79.896H262.292V79.02ZM260.816 79.764V79.152H258.716V79.764H260.816ZM254.132 81.984H255.632V81.252H256.364V80.508H257.24V81.372H256.496V82.116H255.752V82.86H254.132V81.984ZM262.292 80.508H263.168V81.252H263.912V81.984H265.388V82.86H263.78V82.116H263.036V81.372H262.292V80.508ZM260.816 81.984V80.64H258.716V81.984H260.816ZM268.208 77.556H269.072V85.716H269.816V86.448H273.392V85.716H274.868V84.972H275.612V84.228H276.356V83.484H277.22V84.36H276.488V85.092H275.744V85.836H275V86.58H273.524V87.336H269.684V86.58H268.94V85.836H268.208V77.556ZM280.424 82.74H281.18V81.996H281.924V77.556H282.788V80.52H284.144V79.776H287.108V77.556H287.972V80.52H289.46V81.264H290.204V81.996H290.936V85.092H290.204V85.836H289.46V86.58H288.716V87.336H287.972V88.08H286.364V87.192H287.852V86.448H288.584V85.716H289.328V84.972H290.072V82.128H289.328V81.384H287.852V80.652H287.24V81.384H286.496V82.872H285.752V84.36H285.008V85.092H284.276V85.716H285.008V86.58H284.144V85.836H283.532V86.58H282.788V87.336H281.18V86.58H280.424V82.74ZM284.888 84.228V82.74H285.62V81.264H286.364V80.652H284.276V81.384H283.532V84.228H284.888ZM282.656 86.448V85.716H283.4V84.36H282.656V82.128H282.044V82.872H281.312V86.448H282.656ZM294.128 84.972H294.872V84.228H298.568V82.128H294.128V81.264H298.568V79.908H294.128V79.032H298.568V76.812H299.444V79.032H303.152V79.908H299.444V81.264H303.152V82.128H299.444V84.972H300.92V85.716H301.664V86.448H302.408V87.192H303.152V88.08H302.276V87.336H301.532V86.58H300.8V85.836H299.444V87.336H298.7V88.08H294.872V87.336H294.128V84.972ZM298.568 87.192V85.092H294.992V87.192H298.568ZM310.808 87.192V86.448H311.54V85.716H312.284V84.36H311.672V85.092H309.32V84.36H308.576V81.996H309.32V81.264H311.672V81.996H312.284V79.908H306.344V79.032H312.284V76.812H313.16V79.032H316.856V79.908H313.16V85.836H312.416V86.58H311.672V87.336H310.928V88.08H309.32V87.192H310.808ZM311.54 84.228V83.484H312.284V82.872H311.54V82.128H309.452V84.228H311.54ZM319.316 84.972H320.06V84.228H322.412V84.972H323.144V87.336H322.412V88.08H320.06V87.336H319.316V84.972ZM322.28 87.192V85.092H320.18V87.192H322.28Z"></path>
</svg>
