<svg xmlns="http://www.w3.org/2000/svg" fill="none" viewBox="0 0 794 159" height="159" width="794">
<path fill="black" d="M0.968 14.656H4.904V12.704H8.872V10.72H12.808V8.736H16.776V6.752H20.712V4.768H25.032V7.104H21.064V9.088H17.128V11.072H13.16V13.024H9.224V15.008H5.256V18.624H9.224V20.608H13.16V22.592H17.128V24.576H21.064V26.528H25.032V28.896H20.712V26.88H16.776V24.896H12.808V22.912H8.872V20.96H4.904V18.976H0.968V14.656ZM47.784 16.64H49.768V14.656H51.72V12.704H53.704V8.736H55.688V5.12H31.976V2.816H57.992V9.088H56.04V13.024H54.056V15.008H52.072V16.992H50.088V18.976H47.784V16.64ZM31.976 26.528H35.912V24.576H37.896V22.592H39.88V18.624H41.864V8.736H44.168V18.976H42.184V22.912H40.232V24.896H38.248V26.88H36.264V28.896H31.976V26.528ZM65.96 0.831999H68.296V10.72H72.232V12.704H78.184V14.656H82.12V16.64H86.088V18.976H81.768V16.992H77.832V15.008H71.912V13.024H68.296V30.88H65.96V0.831999ZM83.752 3.136H81.768V0.831999H84.104V2.816H86.088V4.768H88.04V7.104H85.736V5.12H83.752V3.136ZM81.768 7.104H79.816V5.12H77.832V2.816H80.136V4.768H82.12V6.752H84.104V9.088H81.768V7.104ZM115.752 2.816H117.736V0.831999H120.072V2.816H122.024V4.768H124.008V7.104H122.024V9.088H119.72V7.104H117.736V5.12H115.752V2.816ZM119.72 4.768V3.136H118.088V4.768H119.72ZM93.992 26.528H96.008V22.592H97.992V18.624H99.944V12.704H101.928V4.768H104.264V13.024H102.28V18.976H100.296V22.912H98.312V26.88H96.36V28.896H93.992V26.528ZM117.736 16.992H115.752V13.024H113.8V9.088H111.816V4.768H114.12V8.736H116.104V12.704H118.088V16.64H120.072V22.592H122.024V26.88H119.72V22.912H117.736V16.992ZM121.672 6.752V5.12H120.072V6.752H121.672ZM127.944 18.624H131.944V16.64H135.88V14.656H139.848V12.704H141.8V10.72H143.784V8.736H145.768V6.752H147.752V4.768H149.704V2.816H151.688V0.831999H154.024V3.136H152.04V5.12H150.056V7.104H148.072V9.088H146.12V30.88H143.784V13.024H142.152V15.008H140.168V16.992H136.232V18.976H132.264V20.96H127.944V18.624ZM158.984 26.528H162.984V24.576H166.92V22.592H170.888V20.608H172.84V18.624H174.824V14.656H176.808V10.72H178.792V7.104H161V4.768H181.096V11.072H179.112V15.008H177.16V18.624H179.112V20.608H181.096V22.592H183.08V24.576H185.064V26.528H187.016V28.896H184.712V26.88H182.728V24.896H180.744V22.912H178.792V20.96H176.808V18.976H175.176V20.96H173.192V22.912H171.208V24.896H167.272V26.88H163.304V28.896H158.984V26.528ZM192.968 26.528H196.904V24.576H200.872V22.592H204.808V20.608H208.776V18.624H212.712V15.008H208.776V13.024H204.808V11.072H200.872V9.088H196.904V7.104H192.968V4.768H197.256V6.752H201.224V8.736H205.16V10.72H209.128V12.704H213.064V14.656H217.032V18.976H213.064V20.96H209.128V22.912H205.16V24.896H201.224V26.88H197.256V28.896H192.968V26.528ZM37.928 40.704H43.848V39.072H29.992V36.736H43.848V32.8H46.184V36.736H60.008V39.072H46.184V40.704H54.088V56.864H37.928V40.704ZM32.008 42.688H34.312V58.496H60.008V60.864H34.312V62.848H32.008V42.688ZM51.752 44.672V43.04H40.264V44.672H51.752ZM51.752 48.608V46.976H40.264V48.608H51.752ZM51.752 54.56V50.944H40.264V54.56H51.752ZM61.992 50.592H64.008V46.624H65.992V36.736H77.832V32.8H80.168V36.736H87.72V35.104H85.736V32.8H88.072V34.784H90.024V36.736H92.008V39.072H80.168V42.688H82.12V46.624H83.752V44.672H85.736V40.704H88.072V44.992H86.088V46.976H84.104V48.608H86.088V50.592H89.672V46.624H92.008V50.944H90.024V52.928H85.736V50.944H83.752V48.96H82.12V50.944H80.168V52.928H78.184V54.56H80.168V56.864H77.832V54.88H75.848V52.576H77.832V50.944H69.928V44.672H78.184V50.592H79.816V48.608H81.8V46.976H79.816V43.04H68.296V46.976H66.312V50.944H64.36V52.928H61.992V50.592ZM77.832 40.704V39.072H68.296V40.704H77.832ZM75.848 48.608V46.976H72.264V48.608H75.848ZM71.912 54.56H74.216V60.48H83.752V56.544H86.088V60.864H84.104V62.848H73.896V60.864H71.912V54.56ZM87.72 54.56H90.024V58.496H92.008V62.848H89.672V58.848H87.72V54.56ZM64.008 58.496H65.992V54.56H68.296V58.848H66.312V62.848H64.008V58.496ZM95.976 52.608H97.96V48.64H99.912V46.656H101.896V42.72H103.88V41.088H95.976V38.752H105.864V32.832H108.168V38.752H118.056V41.088H106.184V42.72H110.152V44.704H112.136V48.64H113.768V46.656H117.704V44.704H121.992V47.008H118.056V48.992H114.088V50.976H112.136V58.88H109.8V52.96H106.184V54.912H104.232V60.512H120.04V62.88H103.88V60.896H101.896V54.592H103.88V52.608H105.864V50.624H109.8V45.024H104.232V47.008H102.248V48.992H100.264V52.96H98.28V54.912H95.976V52.608ZM129.992 60.48V58.496H131.944V56.544H133.928V54.56H135.912V50.592H137.896V46.624H139.848V44.992H125.992V42.688H139.848V32.8H142.184V42.688H156.008V44.992H142.184V46.624H144.168V50.592H146.12V54.56H148.104V56.544H150.088V58.496H152.072V60.48H156.008V62.848H151.72V60.864H149.736V58.848H147.752V56.864H145.8V54.88H143.816V50.944H141.832V46.976H140.2V50.944H138.216V54.88H136.264V56.864H134.28V58.848H132.296V60.864H130.312V62.848H125.992V60.48H129.992ZM162.984 46.976H158.984V44.672H162.984V32.8H165.288V42.688H168.904V40.704H173.192V43.04H169.256V44.992H165.288V56.544H170.888V50.592H173.192V56.864H171.208V58.848H164.936V56.864H162.984V46.976ZM172.84 60.48V58.496H174.824V54.56H176.808V39.072H172.84V36.736H187.016V58.848H185.064V60.864H180.744V58.496H184.712V39.072H179.112V54.88H177.16V58.848H175.176V60.864H173.192V62.848H170.888V60.48H172.84ZM192.968 40.736H194.952V34.816H197.256V41.088H195.272V60.896H192.968V40.736ZM200.872 38.752H217.032V41.088H200.872V38.752ZM200.872 52.608H203.176V56.576H205.16V58.528H217.032V60.896H204.808V58.88H202.856V56.896H200.872V52.608ZM224.968 34.816H227.272V56.576H229.256V58.528H238.792V56.576H242.728V54.592H244.712V52.608H246.696V50.624H249V52.96H247.048V54.912H245.064V56.896H243.08V58.88H239.144V60.896H228.904V58.88H226.92V56.896H224.968V34.816ZM260.936 58.528H270.824V56.576H276.744V54.592H278.728V52.608H280.712V45.024H278.728V43.072H276.744V41.088H263.272V43.072H254.984V40.736H262.92V38.752H277.096V40.736H279.08V42.72H281.064V44.704H283.016V52.96H281.064V54.912H279.08V56.896H277.096V58.88H271.176V60.896H260.936V58.528ZM292.936 58.528H302.824V56.576H308.744V54.592H310.728V52.608H312.712V45.024H310.728V43.072H308.744V41.088H295.272V43.072H286.984V40.736H294.92V38.752H309.096V40.736H311.08V42.72H313.064V44.704H315.016V52.96H313.064V54.912H311.08V56.896H309.096V58.88H303.176V60.896H292.936V58.528ZM324.936 48.992H318.984V46.656H324.936V41.088H321V38.752H326.92V32.832H329.256V38.752H337.16V41.088H327.272V46.656H337.16V48.992H327.272V58.528H329.256V60.512H340.744V58.528H342.728V56.576H344.712V48.992H342.728V45.024H340.744V42.72H343.08V44.704H345.064V48.64H347.016V56.896H345.064V58.88H343.08V60.896H341.096V62.88H328.904V60.896H326.92V58.88H324.936V48.992ZM351.016 54.592H353.32V56.576H355.304V58.528H357.288V62.88H354.952V60.896H353V58.88H351.016V54.592ZM395.848 60.48V58.848H384.008V56.544H395.848V54.88H385.992V42.688H395.848V41.056H381.992V38.72H395.848V37.088H385.992V34.784H401.8V32.8H408.072V35.104H402.12V37.088H398.184V38.72H412.008V41.056H398.184V42.688H408.072V54.88H398.184V56.544H410.024V58.848H398.184V60.48H412.008V62.848H381.992V60.48H395.848ZM395.848 46.624V44.992H388.296V46.624H395.848ZM405.736 46.624V44.992H398.184V46.624H405.736ZM395.848 52.576V48.96H388.296V52.576H395.848ZM405.736 52.576V48.96H398.184V52.576H405.736ZM421.928 60.48V58.496H425.896V56.864H417.992V54.56H419.944V52.928H413.992V50.592H425.896V46.976H416.008V38.72H423.912V35.104H413.992V32.8H444.008V35.104H434.12V38.72H442.024V46.976H428.2V50.592H444.008V52.928H438.088V54.88H436.104V56.864H432.168V58.496H438.088V60.48H442.024V62.848H437.736V60.864H431.816V58.848H426.216V60.864H422.28V62.848H413.992V60.48H421.928ZM431.816 38.72V35.104H426.216V38.72H431.816ZM439.72 44.672V41.056H434.12V44.672H439.72ZM423.912 44.672V41.056H418.312V44.672H423.912ZM431.816 44.672V41.056H426.216V44.672H431.816ZM426.216 54.56V56.544H431.816V54.56H435.752V52.928H422.28V54.56H426.216ZM446.984 54.592H448.968V50.624H450.92V46.656H452.904V42.72H454.888V41.088H446.984V38.752H454.888V36.768H456.872V32.832H459.176V37.12H457.192V38.752H463.144V41.088H457.192V43.072H455.24V47.008H453.256V50.976H451.272V54.912H449.288V56.896H446.984V54.592ZM464.776 38.752H473V40.736H474.984V43.072H472.648V41.088H464.776V38.752ZM454.888 54.592H456.872V52.608H464.776V44.704H467.08V54.592H469.064V56.576H471.048V58.528H473V60.896H470.696V58.88H468.712V56.896H467.08V58.88H465.096V60.896H463.144V62.88H456.872V60.896H454.888V54.592ZM462.792 60.512V58.528H464.776V54.912H457.192V60.512H462.792ZM477.992 58.496H480.008V56.544H481.992V54.56H483.944V50.592H485.928V48.608H493.832V41.056H487.912V39.072H485.928V37.088H483.944V35.104H481.992V32.8H484.296V34.784H486.28V36.736H488.264V38.72H493.832V32.8H496.168V38.72H504.072V48.608H508.008V50.944H496.168V52.576H498.12V54.56H500.104V56.544H502.088V58.496H504.072V60.48H508.008V62.848H503.72V60.864H501.736V58.848H499.752V56.864H497.8V54.88H495.816V52.928H494.184V56.864H492.2V58.848H490.216V60.864H488.264V62.848H483.944V60.48H487.912V58.496H489.896V56.544H491.848V52.576H493.832V50.944H486.28V54.88H484.296V56.864H482.312V58.848H480.36V60.864H477.992V58.496ZM483.944 44.992H481.992V43.04H480.008V40.704H482.312V42.688H484.296V44.672H486.28V46.976H483.944V44.992ZM501.736 48.608V41.056H496.168V48.608H501.736ZM512.968 60.48V56.544H514.92V48.608H517.256V54.56H519.24V56.544H522.824V44.992H512.968V43.04H510.984V36.736H522.824V32.8H525.16V36.736H537V43.04H535.048V44.992H525.16V48.608H535.048V50.944H525.16V58.496H538.984V60.864H522.824V58.848H518.888V56.864H515.272V60.864H513.288V62.848H510.984V60.48H512.968ZM534.696 42.688V39.072H513.288V42.688H534.696ZM550.92 48.992H548.936V47.008H545.352V48.992H542.984V46.656H545V44.704H548.936V41.088H546.984V34.816H549.288V40.736H551.272V42.72H554.888V40.736H558.824V37.12H556.84V32.832H559.176V36.768H561.16V40.736H567.08V42.72H569.064V44.704H571.016V50.976H569.064V52.96H565.096V54.912H556.84V52.608H564.744V50.624H568.712V45.024H566.728V43.072H555.208V45.024H551.272V48.64H553.256V56.576H555.208V62.88H552.904V56.896H550.92V48.992ZM587.848 44.672H593.8V32.8H596.104V44.672H604.008V46.976H596.104V62.848H593.8V46.976H587.848V44.672ZM576.008 34.784H586.216V37.088H576.008V34.784ZM573.992 40.704H588.2V43.04H573.992V40.704ZM576.008 44.672H586.216V46.976H576.008V44.672ZM576.008 48.608H586.216V50.944H576.008V48.608ZM576.008 52.576H586.216V60.864H578.312V62.848H576.008V52.576ZM583.912 58.496V54.88H578.312V58.496H583.912ZM611.944 38.72H619.848V35.104H605.992V32.8H636.008V35.104H622.184V38.72H630.088V54.88H611.944V38.72ZM605.992 40.704H608.36V58.496H633.672V40.704H636.008V62.848H633.672V60.864H608.36V62.848H605.992V40.704ZM619.848 44.672V41.056H614.28V44.672H619.848ZM627.752 44.672V41.056H622.184V44.672H627.752ZM619.848 52.576V46.976H614.28V52.576H619.848ZM627.752 52.576V46.976H622.184V52.576H627.752ZM640.968 40.736H642.952V34.816H645.256V41.088H643.272V60.896H640.968V40.736ZM648.872 38.752H665.032V41.088H648.872V38.752ZM648.872 52.608H651.176V56.576H653.16V58.528H665.032V60.896H652.808V58.88H650.856V56.896H648.872V52.608ZM675.912 58.496H679.88V56.544H681.864V54.88H675.912V52.576H683.816V50.944H677.896V48.608H681.864V46.976H679.88V44.672H682.184V46.624H684.168V48.608H685.8V46.624H687.784V44.672H690.088V46.976H688.136V48.608H692.072V50.944H686.152V52.576H694.056V54.88H688.136V56.544H690.088V58.496H692.072V60.48H695.688V43.04H685.8V32.8H697.992V60.864H696.04V62.848H691.72V60.864H689.768V58.848H687.784V56.864H685.8V54.88H684.168V56.864H682.184V58.848H680.232V60.864H675.912V58.496ZM671.976 32.8H684.168V43.04H674.28V62.848H671.976V32.8ZM695.688 36.736V35.104H688.136V36.736H695.688ZM681.864 36.736V35.104H674.28V36.736H681.864ZM695.688 40.704V39.072H688.136V40.704H695.688ZM681.864 40.704V39.072H674.28V40.704H681.864ZM704.968 34.816H707.272V56.576H709.256V58.528H718.792V56.576H722.728V54.592H724.712V52.608H726.696V50.624H729V52.96H727.048V54.912H725.064V56.896H723.08V58.88H719.144V60.896H708.904V58.88H706.92V56.896H704.968V34.816ZM742.92 46.656H744.904V44.704H746.888V42.72H748.84V40.736H750.824V39.104H734.984V36.768H763.016V39.104H755.112V41.088H751.176V43.072H749.192V45.024H747.208V47.008H745.256V54.592H747.208V56.576H749.192V58.528H759.08V60.896H748.84V58.88H744.904V54.912H742.92V46.656ZM773.896 54.592H775.88V52.608H785.768V43.072H773.896V40.736H785.768V34.816H788.072V40.736H793.992V43.072H788.072V54.592H790.056V56.576H792.04V58.528H793.992V60.896H791.688V58.88H789.704V56.896H788.072V58.88H786.088V60.896H775.88V58.88H773.896V54.592ZM767.976 38.752H769.96V34.816H772.264V39.104H770.28V60.896H767.976V38.752ZM785.768 58.528V54.912H776.232V58.528H785.768ZM37.928 80.608H43.848V64.8H46.184V80.96H44.2V82.944H37.928V80.608ZM29.992 80.608H32.008V78.624H33.992V74.688H35.944V68.736H38.28V75.04H36.296V78.976H34.312V80.96H32.36V82.944H29.992V80.608ZM53.736 71.072H51.752V68.736H54.088V70.72H56.072V74.688H58.024V76.672H60.008V78.976H57.672V76.992H55.72V75.04H53.736V71.072ZM37.928 92.48V90.496H41.896V88.544H45.832V86.56H47.816V84.576H49.8V82.592H51.752V78.624H54.088V82.944H52.104V84.928H50.12V86.88H48.168V88.864H46.184V90.848H42.216V92.864H38.28V94.848H29.992V92.48H37.928ZM64.968 66.816H67.272V88.576H69.256V90.528H78.792V88.576H82.728V86.592H84.712V84.608H86.696V82.624H89V84.96H87.048V86.912H85.064V88.896H83.08V90.88H79.144V92.896H68.904V90.88H66.92V88.896H64.968V66.816ZM96.008 70.72H107.848V64.8H110.184V70.72H122.024V73.056H96.008V70.72ZM93.992 90.496H109.832V88.544H111.816V84.576H113.8V80.608H115.752V74.688H118.088V80.96H116.104V84.928H114.12V88.864H112.168V90.496H124.008V92.864H93.992V90.496ZM103.912 84.928H101.928V80.96H99.944V76.672H102.28V80.608H104.264V84.576H106.216V88.864H103.912V84.928ZM132.904 90.528H146.76V88.576H150.696V82.976H148.712V80.992H137.224V82.976H133.256V84.96H130.952V80.64H132.904V76.704H134.888V73.088H128.968V70.752H136.872V68.768H138.856V64.832H141.16V69.12H139.176V70.752H151.048V73.088H137.224V77.024H135.24V80.64H136.872V78.656H149.064V80.64H151.048V82.624H153.032V88.896H151.048V90.88H147.08V92.896H132.904V90.528ZM157.992 90.496H163.944V72.704H166.28V90.496H171.848V64.8H174.184V78.624H186.024V80.96H174.184V90.496H188.008V92.864H157.992V90.496ZM192.968 86.592H194.952V84.608H204.808V79.008H192.968V76.704H204.808V73.088H192.968V70.752H204.808V64.832H207.144V70.752H217.032V73.088H207.144V76.704H217.032V79.008H207.144V86.592H211.08V88.576H213.064V90.528H215.048V92.512H217.032V94.88H214.696V92.896H212.712V90.88H210.76V88.896H207.144V92.896H205.16V94.88H194.952V92.896H192.968V86.592ZM204.808 92.512V86.912H195.272V92.512H204.808ZM230.888 90.528H240.776V88.576H244.712V86.592H246.696V80.992H244.712V79.008H231.24V80.992H224.968V78.656H230.888V76.704H245.064V78.656H247.048V80.64H249.032V86.912H247.048V88.896H245.064V90.88H241.128V92.896H230.888V90.528ZM262.92 78.656H264.904V76.704H266.888V74.72H268.84V72.736H270.824V71.104H254.984V68.768H283.016V71.104H275.112V73.088H271.176V75.072H269.192V77.024H267.208V79.008H265.256V86.592H267.208V88.576H269.192V90.528H279.08V92.896H268.84V90.88H264.904V86.912H262.92V78.656ZM285.992 82.592H293.928V80.608H297.896V78.624H299.848V76.992H288.008V74.688H299.848V71.072H291.944V68.736H299.848V64.8H302.184V68.736H308.104V70.72H309.736V68.736H311.72V66.784H314.024V69.088H312.072V71.072H310.088V73.056H308.104V74.688H316.008V76.992H302.184V78.976H300.2V80.608H305.8V78.624H314.024V80.96H306.12V82.944H298.216V84.576H312.072V90.848H310.088V92.864H308.104V94.848H299.848V92.48H307.752V90.496H309.736V86.88H296.264V90.848H293.928V86.56H295.912V82.944H294.28V84.928H285.992V82.592ZM305.8 74.688V72.704H307.752V71.072H302.184V74.688H305.8ZM329.864 69.12H325.896V66.816H330.184V68.768H340.072V71.104H329.864V69.12ZM319.976 90.528H321.96V88.576H323.912V86.592H325.896V84.608H327.88V82.624H331.816V80.64H333.8V78.656H335.784V77.024H321.96V74.72H342.056V77.024H340.072V79.008H336.136V80.992H334.152V84.608H336.136V90.528H345.992V92.896H335.784V90.88H333.8V84.96H328.232V86.912H326.248V88.896H324.264V90.88H322.28V92.896H319.976V90.528ZM354.952 86.592H356.904V84.608H363.176V86.592H365.16V90.528H370.76V88.576H372.712V86.592H374.696V82.976H372.712V80.992H359.24V82.976H355.272V84.96H352.968V82.624H354.952V80.64H358.888V78.656H360.872V76.704H362.856V74.72H366.792V72.736H368.776V71.104H354.952V68.768H373.064V71.104H371.08V73.088H369.128V75.072H367.144V77.024H363.176V78.656H373.064V80.64H375.048V82.624H377.032V86.912H375.048V90.88H371.08V92.896H356.904V90.88H354.952V86.592ZM362.856 90.528V86.912H357.256V90.528H362.856ZM386.952 68.768H407.048V71.104H386.952V68.768ZM384.968 84.608H386.952V82.624H389.256V84.96H387.272V88.576H391.24V90.528H406.696V88.576H409.032V90.88H407.048V92.896H390.888V90.88H386.952V88.896H384.968V84.608ZM416.968 82.624H418.952V80.64H420.904V78.656H424.872V64.832H427.176V76.704H430.792V74.72H441.032V77.024H431.144V79.008H425.224V80.992H421.256V82.976H419.272V88.576H423.24V90.528H441.032V92.896H422.888V90.88H418.952V88.896H416.968V82.624ZM452.936 80.992H446.984V78.656H452.936V73.088H449V70.752H454.92V64.832H457.256V70.752H465.16V73.088H455.272V78.656H465.16V80.992H455.272V90.528H457.256V92.512H468.744V90.528H470.728V88.576H472.712V80.992H470.728V77.024H468.744V74.72H471.08V76.704H473.064V80.64H475.016V88.896H473.064V90.88H471.08V92.896H469.096V94.88H456.904V92.896H454.92V90.88H452.936V80.992ZM484.904 78.976H483.272V80.96H481.288V82.944H478.984V80.608H480.968V78.624H482.92V76.672H484.904V72.704H486.888V71.072H478.984V68.736H488.872V64.8H491.176V68.736H506.984V71.072H489.192V73.056H487.24V74.688H505V92.864H503.048V94.848H496.776V92.48H502.696V88.864H487.24V94.848H484.904V78.976ZM502.696 80.608V76.992H487.24V80.608H502.696ZM502.696 86.56V82.944H487.24V86.56H502.696ZM512.008 92.48V90.496H515.944V88.544H517.928V84.928H515.944V80.608H518.28V84.576H521.896V80.608H524.2V84.928H522.216V86.56H524.2V88.544H526.184V92.48H527.816V90.496H529.8V84.576H531.752V76.992H527.816V74.688H531.752V64.8H534.088V74.688H540.008V92.864H538.024V94.848H533.736V92.48H537.672V76.992H534.088V84.928H532.104V90.848H530.12V92.864H528.168V94.848H525.832V92.864H523.848V88.864H521.896V86.88H520.264V88.864H518.28V90.848H516.296V92.864H512.36V94.848H509.992V92.48H512.008ZM509.992 70.72H517.928V64.8H520.264V70.72H528.168V73.056H509.992V70.72ZM509.992 80.608H512.008V78.624H513.992V74.688H516.296V78.976H514.312V80.96H512.36V82.944H509.992V80.608ZM523.848 76.992H521.896V74.688H524.2V76.672H526.184V78.624H528.168V80.96H525.832V78.976H523.848V76.992ZM549.928 78.656H551.912V76.704H553.896V74.72H555.848V72.736H557.832V71.104H541.992V68.768H570.024V71.104H562.12V73.088H558.184V75.072H556.2V77.024H554.216V79.008H552.264V86.592H554.216V88.576H556.2V90.528H566.088V92.896H555.848V90.88H551.912V86.912H549.928V78.656ZM565.736 72.736H568.072V74.72H570.024V76.704H572.008V79.008H569.672V77.024H567.72V75.072H565.736V72.736ZM561.8 74.72H564.104V76.704H566.088V78.656H568.072V80.992H565.736V79.008H563.752V77.024H561.8V74.72ZM586.888 92.512V90.528H588.84V88.576H590.824V84.96H589.192V86.912H582.92V84.96H580.936V78.656H582.92V76.704H589.192V78.656H590.824V73.088H574.984V70.752H590.824V64.832H593.16V70.752H603.016V73.088H593.16V88.896H591.176V90.88H589.192V92.896H587.208V94.88H582.92V92.512H586.888ZM588.84 84.608V82.624H590.824V80.992H588.84V79.008H583.272V84.608H588.84ZM607.016 86.592H609V84.608H615.272V86.592H617.224V92.896H615.272V94.88H609V92.896H607.016V86.592ZM614.92 92.512V86.912H609.32V92.512H614.92ZM41.896 110.976H37.928V108.672H41.896V102.72H44.2V106.688H47.816V96.8H50.12V104.704H53.736V102.72H58.024V114.944H56.072V116.928H51.752V114.592H55.72V105.056H54.088V107.04H50.12V118.88H47.816V108.992H44.2V124.48H57.672V118.56H60.008V124.864H58.024V126.848H43.848V124.864H41.896V110.976ZM33.992 112.96H32.36V114.944H29.992V112.608H32.008V108.672H33.992V104.704H35.944V100.736H37.928V96.8H40.264V101.088H38.28V105.056H36.296V126.848H33.992V112.96ZM64.008 124.48V122.496H65.992V120.544H67.944V118.56H69.928V116.576H71.912V114.592H73.896V110.624H75.848V96.8H78.184V110.624H80.168V114.592H82.12V118.56H84.104V120.544H86.088V122.496H88.072V124.48H92.008V126.848H87.72V124.864H85.736V122.848H83.752V120.864H81.8V118.88H79.816V114.944H77.832V110.976H76.2V114.944H74.216V116.928H72.264V118.88H70.28V120.864H68.296V122.848H66.312V124.864H64.36V126.848H61.992V124.48H64.008ZM96.968 114.624H98.952V112.64H100.904V110.656H104.872V96.832H107.176V108.704H110.792V106.72H121.032V109.024H111.144V111.008H105.224V112.992H101.256V114.976H99.272V120.576H103.24V122.528H121.032V124.896H102.888V122.88H98.952V120.896H96.968V114.624ZM129.992 108.992H125.992V106.688H129.992V96.8H132.296V106.688H136.264V108.992H132.296V126.848H129.992V108.992ZM137.896 106.688H139.848V104.704H141.832V103.072H137.896V100.736H141.832V96.8H144.168V100.736H152.072V108.992H145.8V106.688H149.736V103.072H144.168V105.056H142.184V107.04H140.2V108.992H137.896V106.688ZM135.912 124.48V120.544H137.896V114.944H135.912V112.608H137.896V110.624H140.2V112.608H144.168V124.48H145.8V120.544H147.752V114.944H145.8V112.608H147.752V110.624H150.088V112.608H156.008V124.864H154.024V126.848H147.752V124.864H146.12V126.848H143.816V124.864H142.184V126.848H137.896V124.864H136.264V126.848H133.928V124.48H135.912ZM153.672 124.48V114.944H150.088V120.864H148.104V124.48H153.672ZM141.832 124.48V114.944H140.2V120.864H138.216V124.48H141.832ZM162.984 124.48V122.496H164.936V120.544H166.92V118.56H168.904V114.592H170.888V110.624H172.84V107.04H161V104.704H172.84V96.8H175.176V104.704H187.016V120.864H185.064V124.864H183.08V126.848H174.824V124.48H182.728V120.544H184.712V107.04H175.176V110.976H173.192V114.944H171.208V118.88H169.256V120.864H167.272V122.848H165.288V124.864H163.304V126.848H158.984V124.48H162.984ZM202.888 124.512V122.528H204.84V120.576H206.824V116.96H205.192V118.912H198.92V116.96H196.936V110.656H198.92V108.704H205.192V110.656H206.824V105.088H190.984V102.752H206.824V96.832H209.16V102.752H219.016V105.088H209.16V120.896H207.176V122.88H205.192V124.896H203.208V126.88H198.92V124.512H202.888ZM204.84 116.608V114.624H206.824V112.992H204.84V111.008H199.272V116.608H204.84ZM226.952 118.592H228.904V116.608H235.176V118.592H237.16V122.528H242.76V120.576H244.712V118.592H246.696V114.976H244.712V112.992H231.24V114.976H227.272V116.96H224.968V114.624H226.952V112.64H230.888V110.656H232.872V108.704H234.856V106.72H238.792V104.736H240.776V103.104H226.952V100.768H245.064V103.104H243.08V105.088H241.128V107.072H239.144V109.024H235.176V110.656H245.064V112.64H247.048V114.624H249.032V118.912H247.048V122.88H243.08V124.896H228.904V122.88H226.952V118.592ZM234.856 122.528V118.912H229.256V122.528H234.856ZM254.984 98.784H263.24V102.72H264.872V100.736H266.824V96.8H269.16V98.784H273.096V102.72H275.08V104.704H276.712V102.72H278.696V101.088H274.728V98.784H281V103.072H279.048V105.056H277.064V106.688H279.048V108.672H282.984V110.976H279.048V112.96H266.824V110.976H263.24V116.928H261.256V118.88H257.288V126.848H254.984V98.784ZM258.92 106.688V104.704H260.904V101.088H257.288V106.688H258.92ZM270.792 102.72V101.088H269.16V102.72H270.792ZM278.696 110.624V108.992H276.712V107.04H274.728V105.056H272.776V103.072H271.144V107.04H269.16V108.992H267.176V110.624H278.696ZM268.808 104.704V103.072H265.192V104.704H268.808ZM262.888 110.624V108.672H266.824V107.04H264.872V105.056H261.256V107.04H259.272V108.672H261.256V110.624H262.888ZM260.904 116.576V110.976H258.92V108.992H257.288V116.576H260.904ZM270.792 124.48V116.928H264.872V114.592H282.984V116.928H273.096V124.864H271.144V126.848H266.824V124.48H270.792ZM274.728 118.56H277.064V120.544H279.048V122.496H282.984V124.864H278.696V122.848H276.712V120.864H274.728V118.56ZM262.888 122.496H264.872V120.544H266.824V118.56H269.16V120.864H267.176V122.848H265.192V124.864H262.888V122.496ZM288.968 104.736H290.952V98.816H293.256V105.088H291.272V124.896H288.968V104.736ZM296.872 102.752H313.032V105.088H296.872V102.752ZM296.872 116.608H299.176V120.576H301.16V122.528H313.032V124.896H300.808V122.88H298.856V120.896H296.872V116.608ZM325.896 118.592H327.88V116.608H337.768V107.072H325.896V104.736H337.768V98.816H340.072V104.736H345.992V107.072H340.072V118.592H342.056V120.576H344.04V122.528H345.992V124.896H343.688V122.88H341.704V120.896H340.072V122.88H338.088V124.896H327.88V122.88H325.896V118.592ZM319.976 102.752H321.96V98.816H324.264V103.104H322.28V124.896H319.976V102.752ZM337.768 122.528V118.912H328.232V122.528H337.768ZM351.016 118.592H353.32V120.576H355.304V122.528H357.288V126.88H354.952V124.896H353V122.88H351.016V118.592ZM385.96 100.736H393.864V98.784H395.816V96.8H398.152V99.104H396.168V100.736H408.04V126.848H405.704V124.864H388.264V126.848H385.96V100.736ZM405.704 108.672V103.072H388.264V108.672H405.704ZM405.704 114.592V110.976H388.264V114.592H405.704ZM405.704 122.496V116.928H388.264V122.496H405.704ZM413.992 108.672H416.008V106.688H417.992V104.704H419.944V102.72H421.928V98.784H423.912V96.8H426.216V99.104H424.264V103.072H422.28V105.056H420.296V107.04H418.312V108.992H416.36V110.976H413.992V108.672ZM433.8 99.104H431.816V96.8H434.12V98.784H436.104V102.72H438.088V104.704H440.072V106.688H442.024V108.672H444.008V110.976H441.672V108.992H439.72V107.04H437.736V105.056H435.752V103.072H433.8V99.104ZM417.992 124.48V122.496H419.944V120.544H421.928V116.576H423.912V112.96H417.992V110.624H438.088V124.864H436.104V126.848H427.848V124.48H435.752V112.96H426.216V116.928H424.264V120.864H422.28V122.848H420.296V124.864H418.312V126.848H413.992V124.48H417.992ZM449 120.896H446.984V110.656H449V106.72H450.984V104.736H452.936V102.752H456.904V100.768H467.112V102.752H471.08V104.736H473.064V108.704H475.016V118.912H473.064V122.88H471.08V124.896H467.112V126.88H460.84V124.512H466.792V122.528H470.728V118.592H472.712V109.024H470.728V105.088H466.792V103.104H463.176V109.024H461.192V114.976H459.208V118.912H457.256V122.88H455.272V124.896H450.984V122.88H449V120.896ZM451.304 120.576V122.528H454.92V118.592H456.904V114.624H458.888V108.704H460.84V103.104H457.256V105.088H453.288V107.072H451.304V111.008H449.352V120.576H451.304ZM485.928 104.704H491.848V103.072H477.992V100.736H491.848V96.8H494.184V100.736H508.008V103.072H494.184V104.704H502.088V120.864H485.928V104.704ZM480.008 106.688H482.312V122.496H508.008V124.864H482.312V126.848H480.008V106.688ZM499.752 108.672V107.04H488.264V108.672H499.752ZM499.752 112.608V110.976H488.264V112.608H499.752ZM499.752 118.56V114.944H488.264V118.56H499.752ZM509.992 114.592H512.008V110.624H513.992V100.736H525.832V96.8H528.168V100.736H535.72V99.104H533.736V96.8H536.072V98.784H538.024V100.736H540.008V103.072H528.168V106.688H530.12V110.624H531.752V108.672H533.736V104.704H536.072V108.992H534.088V110.976H532.104V112.608H534.088V114.592H537.672V110.624H540.008V114.944H538.024V116.928H533.736V114.944H531.752V112.96H530.12V114.944H528.168V116.928H526.184V118.56H528.168V120.864H525.832V118.88H523.848V116.576H525.832V114.944H517.928V108.672H526.184V114.592H527.816V112.608H529.8V110.976H527.816V107.04H516.296V110.976H514.312V114.944H512.36V116.928H509.992V114.592ZM525.832 104.704V103.072H516.296V104.704H525.832ZM523.848 112.608V110.976H520.264V112.608H523.848ZM519.912 118.56H522.216V124.48H531.752V120.544H534.088V124.864H532.104V126.848H521.896V124.864H519.912V118.56ZM535.72 118.56H538.024V122.496H540.008V126.848H537.672V122.848H535.72V118.56ZM512.008 122.496H513.992V118.56H516.296V122.848H514.312V126.848H512.008V122.496ZM544.968 114.624H546.952V112.64H548.904V110.656H552.872V96.832H555.176V108.704H558.792V106.72H569.032V109.024H559.144V111.008H553.224V112.992H549.256V114.976H547.272V120.576H551.24V122.528H569.032V124.896H550.888V122.88H546.952V120.896H544.968V114.624ZM585.896 110.976H581.928V108.672H585.896V102.72H588.2V106.688H591.816V96.8H594.12V104.704H597.736V102.72H602.024V114.944H600.072V116.928H595.752V114.592H599.72V105.056H598.088V107.04H594.12V118.88H591.816V108.992H588.2V124.48H601.672V118.56H604.008V124.864H602.024V126.848H587.848V124.864H585.896V110.976ZM577.992 112.96H576.36V114.944H573.992V112.608H576.008V108.672H577.992V104.704H579.944V100.736H581.928V96.8H584.264V101.088H582.28V105.056H580.296V126.848H577.992V112.96ZM613.928 114.944H608.008V112.608H615.912V110.624H619.848V108.992H605.992V106.688H619.848V103.072H611.944V100.736H619.848V96.8H622.184V100.736H628.104V102.72H629.736V100.736H631.72V98.784H634.024V101.088H632.072V103.072H630.088V105.056H628.104V106.688H636.008V108.992H624.168V110.976H620.2V112.608H632.072V126.848H629.736V124.864H616.264V126.848H613.928V114.944ZM625.8 106.688V104.704H627.752V103.072H622.184V106.688H625.8ZM629.736 116.576V114.944H616.264V116.576H629.736ZM629.736 122.496V118.88H616.264V122.496H629.736ZM641 120.896H638.984V110.656H641V106.72H642.984V104.736H644.936V102.752H648.904V100.768H659.112V102.752H663.08V104.736H665.064V108.704H667.016V118.912H665.064V122.88H663.08V124.896H659.112V126.88H652.84V124.512H658.792V122.528H662.728V118.592H664.712V109.024H662.728V105.088H658.792V103.104H655.176V109.024H653.192V114.976H651.208V118.912H649.256V122.88H647.272V124.896H642.984V122.88H641V120.896ZM643.304 120.576V122.528H646.92V118.592H648.904V114.624H650.888V108.704H652.84V103.104H649.256V105.088H645.288V107.072H643.304V111.008H641.352V120.576H643.304ZM669.992 104.704H679.912V103.072H677.928V101.088H673.992V98.784H683.848V96.8H686.184V98.784H696.072V101.088H692.104V103.072H690.12V104.704H700.008V107.04H669.992V104.704ZM687.816 104.704V102.72H689.8V101.088H680.264V102.72H682.216V104.704H687.816ZM677.928 118.88H675.944V108.672H694.088V118.88H686.184V120.544H688.168V122.848H685.832V120.864H683.848V118.88H680.264V124.48H691.752V120.544H694.088V124.864H692.104V126.848H679.912V124.864H677.928V118.88ZM691.752 112.608V110.976H678.28V112.608H691.752ZM691.752 116.576V114.944H678.28V116.576H691.752ZM669.992 122.496H672.008V118.56H674.312V122.848H672.36V124.864H669.992V122.496ZM695.72 118.56H698.024V120.544H700.008V124.864H697.672V120.864H695.72V118.56ZM707.944 124.48V122.496H711.912V118.88H707.944V96.8H726.088V118.88H722.12V124.48H729.672V118.56H732.008V124.864H730.024V126.848H721.8V124.864H719.816V118.88H714.216V122.848H712.264V124.864H708.296V126.848H701.992V124.48H707.944ZM723.752 102.72V99.104H710.28V102.72H723.752ZM723.752 108.672V105.056H710.28V108.672H723.752ZM723.752 116.576V110.976H710.28V116.576H723.752ZM735.976 116.608H737.96V112.64H739.912V110.656H741.896V106.72H743.88V105.088H735.976V102.752H745.864V96.832H748.168V102.752H758.056V105.088H746.184V106.72H750.152V108.704H752.136V112.64H753.768V110.656H757.704V108.704H761.992V111.008H758.056V112.992H754.088V114.976H752.136V122.88H749.8V116.96H746.184V118.912H744.232V124.512H760.04V126.88H743.88V124.896H741.896V118.592H743.88V116.608H745.864V114.624H749.8V109.024H744.232V111.008H742.248V112.992H740.264V116.96H738.28V118.912H735.976V116.608ZM51.752 130.816H53.736V128.832H56.072V130.816H58.024V132.768H60.008V135.104H58.024V137.088H55.72V135.104H53.736V133.12H51.752V130.816ZM55.72 132.768V131.136H54.088V132.768H55.72ZM29.992 154.528H32.008V150.592H33.992V146.624H35.944V140.704H37.928V132.768H40.264V141.024H38.28V146.976H36.296V150.912H34.312V154.88H32.36V156.896H29.992V154.528ZM53.736 144.992H51.752V141.024H49.8V137.088H47.816V132.768H50.12V136.736H52.104V140.704H54.088V144.64H56.072V150.592H58.024V154.88H55.72V150.912H53.736V144.992ZM57.672 134.752V133.12H56.072V134.752H57.672ZM66.952 130.816H87.048V133.12H66.952V130.816ZM76.808 156.512V154.528H80.776V152.576H82.76V150.592H84.712V146.624H86.696V141.024H64.968V138.72H89.032V146.976H87.048V150.912H85.064V152.896H83.08V154.88H81.128V156.896H77.16V158.88H66.952V156.512H76.808ZM102.888 137.088H98.952V135.104H96.968V132.768H99.272V134.752H103.24V136.736H107.176V138.72H109.16V141.024H106.856V139.072H102.888V137.088ZM96.968 154.528H102.888V152.576H106.856V150.592H110.792V148.608H112.776V146.624H114.76V144.64H116.712V140.704H118.696V134.752H121.032V141.024H119.048V144.992H117.064V146.976H115.08V148.96H113.128V150.912H111.144V152.896H107.176V154.88H103.24V156.896H96.968V154.528ZM126.984 154.528H130.984V152.576H134.92V150.592H138.888V148.608H140.84V146.624H142.824V142.656H144.808V138.72H146.792V135.104H129V132.768H149.096V139.072H147.112V143.008H145.16V146.624H147.112V148.608H149.096V150.592H151.08V152.576H153.064V154.528H155.016V156.896H152.712V154.88H150.728V152.896H148.744V150.912H146.792V148.96H144.808V146.976H143.176V148.96H141.192V150.912H139.208V152.896H135.272V154.88H131.304V156.896H126.984V154.528ZM159.976 148.608H161.96V146.624H171.816V128.832H174.152V136.736H184.04V139.072H174.152V148.608H178.088V150.592H182.056V152.576H184.04V154.528H185.992V156.896H183.688V154.88H181.704V152.896H177.768V150.912H174.152V154.88H172.168V156.896H161.96V154.88H159.976V148.608ZM171.816 154.528V148.96H162.28V154.528H171.816ZM196.904 146.976H194.952V142.656H196.904V140.704H200.872V138.72H202.856V136.736H206.792V134.752H208.776V132.768H210.76V130.816H213.064V133.12H211.08V135.104H209.128V137.088H207.144V139.072H203.176V141.024H201.224V143.008H197.256V146.624H199.24V148.608H203.176V150.592H207.144V152.576H209.128V154.528H213.064V156.512H215.048V158.88H212.712V156.896H208.776V154.88H206.792V152.896H202.856V150.912H198.888V148.96H196.904V146.976ZM221.992 150.56H225.992V133.088H221.992V130.784H238.184V132.736H250.024V140.992H248.072V146.944H246.088V152.544H248.072V156.48H252.008V158.848H247.72V156.864H245.736V152.864H243.752V150.88H242.12V154.848H240.168V156.864H238.184V158.848H233.896V150.88H230.28V152.864H221.992V150.56ZM237.832 156.48V154.496H239.816V150.56H241.8V146.944H239.816V140.992H237.832V136.704H240.168V140.672H242.12V146.592H245.736V140.672H247.72V135.072H237.832V133.088H236.2V156.48H237.832ZM233.896 136.704V133.088H228.296V136.704H233.896ZM233.896 142.624V139.04H228.296V142.624H233.896ZM229.928 150.56V148.576H233.896V144.96H228.296V150.56H229.928ZM267.816 156.512V154.528H273.768V152.576H275.72V148.608H277.704V137.088H275.72V133.12H268.168V135.104H266.184V137.088H264.232V141.024H262.248V144.992H260.264V148.96H257.96V134.752H259.912V130.816H262.248V135.104H260.264V140.704H261.896V136.736H263.88V134.752H265.864V132.768H267.816V130.816H276.072V132.768H278.056V136.736H280.04V148.96H278.056V152.896H276.072V154.88H274.088V156.896H268.168V158.88H259.912V156.512H267.816ZM289.992 156.48V154.496H291.944V152.544H293.928V150.56H295.912V146.592H297.896V142.624H299.848V133.088H291.944V130.784H302.184V142.624H304.168V146.592H306.12V150.56H308.104V152.544H310.088V154.496H312.072V156.48H316.008V158.848H311.72V156.864H309.736V154.848H307.752V152.864H305.8V150.88H303.816V146.944H301.832V142.976H300.2V146.944H298.216V150.88H296.264V152.864H294.28V154.848H292.296V156.864H290.312V158.848H285.992V156.48H289.992ZM317.992 152.576H320.008V148.608H321.992V144.64H323.944V139.072H317.992V136.736H323.944V128.832H326.28V142.656H327.912V140.704H329.896V138.72H331.848V136.736H333.832V134.752H340.104V136.736H342.088V146.976H340.104V154.528H345.672V152.576H348.008V154.88H346.024V156.896H339.752V154.88H337.8V146.624H339.752V137.088H334.184V139.072H332.2V141.024H330.216V143.008H328.264V144.992H326.28V158.88H323.944V148.96H322.312V152.896H320.36V156.896H317.992V152.576ZM354.952 150.592H356.904V148.608H363.176V150.592H365.16V154.528H370.76V152.576H372.712V150.592H374.696V146.976H372.712V144.992H359.24V146.976H355.272V148.96H352.968V146.624H354.952V144.64H358.888V142.656H360.872V140.704H362.856V138.72H366.792V136.736H368.776V135.104H354.952V132.768H373.064V135.104H371.08V137.088H369.128V139.072H367.144V141.024H363.176V142.656H373.064V144.64H375.048V146.624H377.032V150.912H375.048V154.88H371.08V156.896H356.904V154.88H354.952V150.592ZM362.856 154.528V150.912H357.256V154.528H362.856ZM386.952 132.768H407.048V135.104H386.952V132.768ZM384.968 148.608H386.952V146.624H389.256V148.96H387.272V152.576H391.24V154.528H406.696V152.576H409.032V154.88H407.048V156.896H390.888V154.88H386.952V152.896H384.968V148.608ZM416.968 146.624H418.952V144.64H420.904V142.656H424.872V128.832H427.176V140.704H430.792V138.72H441.032V141.024H431.144V143.008H425.224V144.992H421.256V146.976H419.272V152.576H423.24V154.528H441.032V156.896H422.888V154.88H418.952V152.896H416.968V146.624ZM447.976 148.608H449.96V144.64H451.912V142.656H453.896V138.72H455.88V137.088H447.976V134.752H457.864V128.832H460.168V134.752H470.056V137.088H458.184V138.72H462.152V140.704H464.136V144.64H465.768V142.656H469.704V140.704H473.992V143.008H470.056V144.992H466.088V146.976H464.136V154.88H461.8V148.96H458.184V150.912H456.232V156.512H472.04V158.88H455.88V156.896H453.896V150.592H455.88V148.608H457.864V146.624H461.8V141.024H456.232V143.008H454.248V144.992H452.264V148.96H450.28V150.912H447.976V148.608ZM491.848 133.088H489.896V130.784H492.2V132.736H496.168V134.72H498.12V137.056H495.816V135.072H491.848V133.088ZM485.928 136.704H488.264V154.496H499.752V148.576H502.088V154.848H500.104V156.864H487.912V154.848H485.928V136.704ZM477.992 148.576H480.008V142.624H482.312V148.928H480.36V152.864H477.992V148.576ZM503.72 142.624H506.024V146.592H508.008V150.88H505.672V146.944H503.72V142.624ZM510.984 152.576H512.968V148.608H514.92V142.656H516.904V139.072H510.984V136.736H518.888V128.832H521.192V136.736H527.144V138.72H529.096V150.912H527.144V154.88H525.16V156.896H516.904V154.528H524.808V150.592H526.792V139.072H519.24V143.008H517.256V148.96H515.272V152.896H513.288V156.896H510.984V152.576ZM532.712 133.12H530.728V130.816H532.712V128.832H535.048V130.816H537V132.768H538.984V135.104H537V137.088H534.696V135.104H532.712V133.12ZM534.696 132.768V131.136H533.064V132.768H534.696ZM536.648 134.752V133.12H535.048V134.752H536.648ZM528.776 134.752H531.08V136.736H533.064V138.72H535.048V140.704H537V144.64H538.984V146.976H536.648V144.992H534.696V141.024H532.712V139.072H530.728V137.088H528.776V134.752ZM557.8 156.512V154.528H559.784V150.592H561.768V139.072H549.896V136.736H561.768V130.816H564.072V136.736H569.992V139.072H564.072V150.912H562.088V154.88H560.136V156.896H558.152V158.88H553.864V156.512H557.8ZM543.976 134.752H545.96V130.816H548.264V135.104H546.28V158.88H543.976V134.752ZM576.968 150.592H578.952V148.608H588.808V143.008H576.968V140.704H588.808V137.088H576.968V134.752H588.808V128.832H591.144V134.752H601.032V137.088H591.144V140.704H601.032V143.008H591.144V150.592H595.08V152.576H597.064V154.528H599.048V156.512H601.032V158.88H598.696V156.896H596.712V154.88H594.76V152.896H591.144V156.896H589.16V158.88H578.952V156.896H576.968V150.592ZM588.808 156.512V150.912H579.272V156.512H588.808ZM608.968 130.816H611.272V152.576H613.256V154.528H622.792V152.576H626.728V150.592H628.712V148.608H630.696V146.624H633V148.96H631.048V150.912H629.064V152.896H627.08V154.88H623.144V156.896H612.904V154.88H610.92V152.896H608.968V130.816ZM641.96 150.592H643.912V148.608H651.816V134.752H654.152V140.704H662.056V143.008H654.152V150.592H658.088V152.576H662.056V154.528H664.04V156.896H661.704V154.88H657.768V152.896H654.152V154.88H652.168V156.896H643.912V154.88H641.96V150.592ZM651.816 154.528V150.912H644.264V154.528H651.816ZM676.904 130.816H689.128V132.768H695.048V135.104H688.776V133.12H676.904V130.816ZM674.952 154.528H686.792V152.576H690.76V150.592H692.712V148.608H694.696V143.008H692.712V141.024H679.24V143.008H672.968V140.704H678.888V138.72H693.064V140.704H695.048V142.656H697.032V148.96H695.048V150.912H693.064V152.896H691.08V154.88H687.144V156.896H674.952V154.528ZM703.016 150.592H705V148.608H711.272V150.592H713.224V156.896H711.272V158.88H705V156.896H703.016V150.592ZM710.92 156.512V150.912H705.32V156.512H710.92Z"></path>
</svg>
