<svg xmlns="http://www.w3.org/2000/svg" fill="none" viewBox="0 0 343 115" height="115" width="343">
<rect stroke-width="2" stroke="black" fill="#FFF4E4" rx="11" height="109" width="326" y="1" x="16"></rect>
<path fill="black" d="M53.764 41.872H56.764V40.408H59.716V38.92H61.204V37.696H56.764V28.528H64.156V27.304H53.764V25.552H64.156V22.6H65.908V25.552H76.276V27.304H65.908V28.528H73.324V37.696H68.86V38.92H70.348V40.408H73.324V41.872H76.276V43.648H73.06V42.136H70.084V40.648H68.62V39.16H67.132V37.696H65.908V45.136H64.156V37.696H62.932V39.16H61.468V40.648H59.98V42.136H57.004V43.648H53.764V41.872ZM64.156 31.504V30.28H58.492V31.504H64.156ZM71.572 31.504V30.28H65.908V31.504H71.572ZM71.572 35.944V33.232H65.908V35.944H71.572ZM64.156 35.944V33.232H58.492V35.944H64.156ZM79.204 25.552H89.596V22.6H91.348V25.552H101.716V27.304H79.204V25.552ZM89.596 43.36V36.208H82.204V30.016H98.764V36.208H91.348V43.648H89.86V45.136H85.156V43.36H89.596ZM97.012 34.456V31.744H83.932V34.456H97.012ZM79.204 41.872H82.204V40.408H83.668V38.92H85.156V37.432H86.908V39.16H85.42V40.648H83.932V42.136H82.444V43.648H79.204V41.872ZM94.06 37.432H95.788V38.92H97.276V40.408H98.764V41.872H100.228V43.648H98.5V42.136H97.012V40.648H95.524V39.16H94.06V37.432ZM104.644 41.872H106.156V38.92H107.884V41.872H109.108V38.92H110.86V41.872H112.084V38.92H113.812V42.136H112.348V43.36H115.036V37.696H106.156V24.088H115.3V25.816H112.348V28.528H115.3V30.28H112.348V31.504H115.3V33.232H112.348V35.944H116.788V41.872H118.012V24.088H125.668V33.232H122.716V35.944H124.204V40.408H125.668V43.36H127.156V45.136H125.404V43.648H123.94V40.648H122.452V36.208H120.964V33.232H119.74V42.136H118.276V45.136H116.524V43.648H115.3V45.136H110.596V42.136H109.372V45.136H107.644V42.136H106.42V45.136H104.644V41.872ZM123.94 31.504V25.816H119.74V31.504H123.94ZM110.596 28.528V25.816H107.884V28.528H110.596ZM110.596 31.504V30.28H107.884V31.504H110.596ZM110.596 35.944V33.232H107.884V35.944H110.596ZM139.732 27.064H142.948V30.304H139.732V27.064ZM139.732 38.944H142.948V42.16H139.732V38.944ZM158.524 43.36V41.872H159.988V40.408H161.476V37.432H162.964V36.208H161.476V34.72H158.524V32.968H161.74V34.456H162.964V30.28H157.036V28.528H162.964V22.6H164.692V28.528H170.62V43.36H176.284V38.92H178.036V43.648H176.548V45.136H170.38V43.648H168.892V30.28H164.692V35.944H166.18V37.432H167.668V39.16H165.916V37.696H163.228V40.648H161.74V42.136H160.252V43.648H158.764V45.136H155.524V43.36H158.524ZM183.22 40.672H181.708V32.992H183.22V30.04H184.708V28.552H186.172V27.064H189.148V25.576H196.804V27.064H199.78V28.552H201.268V31.528H202.732V39.184H201.268V42.16H199.78V43.672H196.804V45.16H192.1V43.384H196.564V41.896H199.516V38.944H201.004V31.768H199.516V28.816H196.564V27.328H193.852V31.768H192.364V36.232H190.876V39.184H189.412V42.16H187.924V43.672H184.708V42.16H183.22V40.672ZM184.948 40.432V41.896H187.66V38.944H189.148V35.968H190.636V31.528H192.1V27.328H189.412V28.816H186.436V30.304H184.948V33.256H183.484V40.432H184.948ZM207.892 28.528H216.772V22.6H218.524V28.528H227.404V43.648H225.94V45.136H221.236V43.36H225.676V30.28H218.524V32.968H220.012V34.456H221.476V35.944H222.964V39.16H221.236V36.208H219.748V34.72H218.26V33.232H217.036V36.208H215.548V37.696H214.084V39.16H212.596V40.648H210.844V38.92H212.332V37.432H213.82V35.944H215.308V32.968H216.772V30.28H209.62V45.136H207.892V28.528ZM231.844 41.896H242.236V27.328H233.356V25.576H252.868V27.328H243.988V41.896H254.356V43.672H231.844V41.896ZM268.396 43.384V41.896H271.372V40.432H272.86V37.456H274.324V24.112H276.076V37.72H274.588V40.672H273.1V42.16H271.636V43.672H268.66V45.16H262.468V43.384H268.396ZM261.004 24.112H262.732V37.72H261.004V24.112ZM296.068 34.48H297.556V32.992H299.02V31.528H300.508V28.552H301.996V25.84H284.212V24.112H303.724V28.816H302.26V31.768H300.772V33.256H299.284V34.744H297.796V36.232H296.068V34.48ZM284.212 41.896H287.164V40.432H288.652V38.944H290.14V35.968H291.628V28.552H293.356V36.232H291.868V39.184H290.404V40.672H288.916V42.16H287.428V43.672H284.212V41.896Z"></path>
<path fill="black" d="M51.236 68.704H52.712V67.96H53.456V67.348H52.712V66.604H51.968V64.984H54.2V63.64H52.712V62.764H54.2V62.152H51.968V61.276H53.456V60.664H52.712V59.8H53.588V60.544H54.32V61.276H54.932V60.544H55.676V59.8H56.552V60.664H55.808V61.276H58.028V62.152H55.064V62.764H57.284V63.64H55.064V64.984H58.028V65.86H55.064V66.472H55.808V67.96H56.42V67.216H57.152V66.472H58.028V67.348H57.284V68.08H56.552V68.704H57.284V69.436H58.028V70.324H57.152V69.568H56.42V68.824H55.676V68.08H55.064V70.324H54.32V71.068H52.712V70.18H54.2V68.08H53.588V68.824H52.844V69.568H51.236V68.704ZM46.772 67.216H47.528V65.728H48.272V64.252H49.004V63.64H46.772V62.764H49.004V59.8H49.88V62.764H52.1V63.64H49.88V64.252H50.624V64.984H51.356V66.604H50.492V65.116H49.88V71.068H49.004V65.86H48.392V67.348H47.66V68.08H46.772V67.216ZM53.588 66.472V67.216H54.2V65.86H52.844V66.472H53.588ZM60.848 66.484H61.592V65.74H62.324V64.996H63.068V64.264H63.812V62.776H64.556V61.288H65.42V62.776H69.872V64.384H69.128V65.872H68.384V66.616H67.64V67.36H66.908V68.716H67.64V69.448H68.384V70.336H67.52V69.58H66.776V68.836H65.288V68.092H64.556V67.36H63.812V66.484H64.676V67.228H65.42V67.972H66.032V67.228H66.776V66.484H67.52V65.74H68.252V64.264H68.996V63.652H64.676V64.384H63.944V65.128H63.2V65.872H62.456V66.616H61.712V67.36H60.848V66.484ZM73.064 67.972H73.808V66.484H74.54V64.996H75.284V63.52H76.028V62.908H73.064V62.032H76.028V61.288H76.772V59.812H77.636V61.42H76.892V62.032H79.124V62.908H76.892V63.652H76.16V65.128H75.416V66.616H74.672V68.092H73.928V68.836H73.064V67.972ZM79.736 62.032H82.82V62.776H83.564V63.652H82.688V62.908H79.736V62.032ZM76.028 67.972H76.772V67.228H79.736V64.264H80.6V67.972H81.344V68.716H82.088V69.448H82.82V70.336H81.956V69.58H81.212V68.836H80.6V69.58H79.856V70.336H79.124V71.08H76.772V70.336H76.028V67.972ZM78.992 70.192V69.448H79.736V68.092H76.892V70.192H78.992ZM85.652 61.276H90.848V59.8H91.724V61.276H96.908V62.152H85.652V61.276ZM87.884 62.764H94.688V65.116H87.884V62.764ZM93.812 64.252V63.64H88.76V64.252H93.812ZM86.408 65.728H96.164V70.324H95.432V71.068H93.08V70.18H95.3V66.604H87.272V71.068H86.408V65.728ZM88.628 67.216H93.944V69.568H88.628V67.216ZM93.08 68.704V68.08H89.504V68.704H93.08ZM98.612 69.436H99.368V67.216H100.112V59.8H109.868V62.152H107.648V62.764H109.868V66.604H101.588V62.764H103.076V62.152H100.976V67.348H100.232V69.568H99.5V71.068H98.612V69.436ZM108.992 61.276V60.664H100.976V61.276H108.992ZM106.772 62.764V62.152H103.94V62.764H106.772ZM105.296 64.252V63.64H102.464V64.252H105.296ZM108.992 64.252V63.64H106.16V64.252H108.992ZM108.992 65.728V65.116H106.16V65.728H108.992ZM105.296 65.728V65.116H102.464V65.728H105.296ZM102.332 67.216H109.124V71.068H102.332V67.216ZM108.26 68.704V68.08H103.196V68.704H108.26ZM108.26 70.18V69.568H103.196V70.18H108.26ZM119.72 61.42H118.976V60.676H118.244V59.812H119.108V60.556H119.72V59.812H120.596V60.556H121.328V61.288H122.072V62.164H121.196V61.42H120.596V62.164H119.72V61.42ZM112.316 60.556H113.18V64.996H114.536V64.264H116.756V63.52H118.244V62.776H119.852V63.652H118.364V64.384H116.888V65.128H114.668V65.872H113.18V69.448H120.596V70.336H113.048V69.58H112.316V60.556ZM120.464 61.288V60.676H119.852V61.288H120.464ZM130.1 60.556H130.976V69.448H131.588V68.716H132.332V67.972H133.064V67.228H133.808V65.74H134.552V64.264H135.416V65.872H134.684V67.36H133.94V68.092H133.196V68.836H132.452V69.58H131.72V70.336H130.1V60.556ZM124.904 69.448H125.66V68.716H126.404V67.228H127.136V64.996H127.88V60.556H128.756V65.128H128.012V67.36H127.268V68.836H126.524V69.58H125.792V70.336H124.904V69.448ZM140.84 65.872H140.096V65.128H138.752V65.872H137.864V64.996H138.62V64.264H140.096V62.908H139.364V60.556H140.228V62.776H140.972V63.52H142.328V62.776H143.804V61.42H143.06V59.812H143.936V61.288H144.68V62.776H146.9V63.52H147.644V64.264H148.376V66.616H147.644V67.36H146.156V68.092H143.06V67.228H146.024V66.484H147.512V64.384H146.768V63.652H142.448V64.384H140.972V65.74H141.716V68.716H142.448V71.08H141.584V68.836H140.84V65.872ZM151.208 63.508H153.428V62.896H152.684V62.152H150.452V61.276H155.648V59.8H156.524V61.276H161.708V62.152H159.488V62.896H158.744V63.508H160.964V70.324H160.232V71.068H157.88V70.18H160.1V66.604H158.744V69.568H153.428V66.604H152.072V71.068H151.208V63.508ZM157.88 63.508V62.764H158.612V62.152H153.56V62.764H154.304V63.508H157.88ZM157.88 66.472V65.86H157.136V64.372H155.036V65.86H154.304V66.472H157.88ZM160.1 65.728V64.372H158V65.728H160.1ZM154.172 65.728V64.372H152.072V65.728H154.172ZM157.88 68.704V67.348H154.304V68.704H157.88ZM163.412 69.436H165.644V68.704H167.132V68.08H163.412V67.216H168.608V66.604H165.644V65.728H168.608V65.116H164.168V64.252H167.132V63.64H166.388V62.896H163.412V62.02H166.388V61.408H165.644V60.664H164.912V59.8H165.776V60.544H166.52V61.276H167.264V62.02H167.876V59.8H168.74V62.02H169.352V59.8H170.228V62.02H170.84V61.276H171.572V60.544H172.316V59.8H173.192V60.664H172.448V61.408H171.704V62.02H174.668V62.896H171.704V63.64H170.96V64.252H173.924V65.116H169.484V65.728H172.448V66.604H169.484V67.216H174.668V68.08H170.96V68.704H172.448V69.436H174.668V70.324H172.316V69.568H170.84V68.824H170.096V68.08H169.484V71.068H168.608V68.08H167.996V68.824H167.264V69.568H165.776V70.324H163.412V69.436ZM170.096 64.252V63.508H170.84V62.896H167.264V63.508H167.996V64.252H170.096ZM176.372 69.436H177.128V67.216H177.872V62.896H176.372V62.02H178.604V59.8H179.48V62.02H180.956V62.896H178.736V64.984H180.956V70.324H180.224V71.068H178.604V70.18H180.092V65.86H178.736V67.348H177.992V69.568H177.26V71.068H176.372V69.436ZM180.836 63.508H181.568V62.02H182.312V59.8H183.188V61.276H186.884V62.152H182.444V63.64H181.7V64.372H180.836V63.508ZM182.312 65.86H181.568V64.984H182.312V64.252H183.188V64.984H183.8V62.764H184.664V64.252H185.276V63.508H186.884V67.348H186.152V68.08H184.664V68.824H183.8V65.86H183.188V70.18H186.752V67.96H187.628V70.324H186.884V71.068H183.056V70.324H182.312V65.86ZM186.02 67.216V64.372H185.408V65.116H184.664V67.216H186.02ZM190.088 65.728H193.796V65.116H190.088V64.252H193.916V64.984H194.528V64.252H195.272V60.544H198.368V64.252H199.712V62.764H200.588V64.372H199.844V65.116H198.236V64.372H197.492V61.408H196.148V64.372H195.404V65.116H194.66V65.728H199.112V68.08H198.368V68.824H197.624V69.436H199.112V70.18H200.588V71.068H198.98V70.324H197.492V69.568H196.88V70.324H196.148V71.068H194.528V70.18H196.016V69.436H196.76V68.824H196.016V68.08H195.272V66.604H194.528V65.86H193.916V66.604H190.088V65.728ZM190.088 60.544H193.916V61.408H190.088V60.544ZM189.332 62.764H194.66V63.64H189.332V62.764ZM196.88 67.96V68.704H197.492V67.96H198.236V66.604H196.148V67.96H196.88ZM190.088 67.216H193.916V70.324H190.952V71.068H190.088V67.216ZM193.052 69.436V68.08H190.952V69.436H193.052ZM202.664 68.716H203.408V67.228H204.14V64.996H204.884V63.652H202.664V62.776H205.628V59.812H206.492V62.776H208.724V63.52H209.456V68.092H208.724V69.58H207.98V70.336H204.884V69.448H207.848V67.972H208.592V63.652H205.76V65.128H205.016V67.36H204.272V68.836H203.528V70.336H202.664V68.716ZM210.812 61.42H210.068V60.556H210.812V59.812H211.688V60.556H212.42V61.288H213.164V62.164H212.42V62.908H211.556V62.164H210.812V61.42ZM211.556 61.288V60.676H210.944V61.288H211.556ZM212.288 62.032V61.42H211.688V62.032H212.288ZM209.336 62.032H210.2V62.776H210.944V63.52H211.688V64.264H212.42V65.74H213.164V66.616H212.288V65.872H211.556V64.384H210.812V63.652H210.068V62.908H209.336V62.032ZM215.252 69.436H218.972V63.64H216.008V62.764H219.716V62.152H218.972V60.664H218.228V59.8H219.104V60.544H219.836V62.02H220.58V62.764H221.936V62.02H222.68V61.276H223.412V59.8H224.288V61.408H223.544V62.152H222.8V62.764H225.764V63.64H222.8V69.436H226.508V70.324H215.252V69.436ZM221.936 69.436V63.64H219.836V69.436H221.936ZM223.412 66.472H224.156V64.984H225.032V66.604H224.288V68.08H223.412V66.472ZM217.484 66.604H216.752V64.984H217.616V66.472H218.36V68.08H217.484V66.604ZM231.188 60.556H233.54V61.288H235.64V60.556H236.504V61.288H237.116V60.556H237.992V61.288H238.724V62.032H239.468V62.908H238.592V62.164H237.992V62.908H237.116V62.164H236.372V61.42H235.76V62.164H233.408V61.42H231.188V60.556ZM237.86 62.032V61.42H237.248V62.032H237.86ZM230.444 68.716H231.32V69.448H234.152V68.716H234.896V65.872H234.152V65.128H232.676V64.384H231.932V63.52H232.796V64.264H234.284V64.996H235.028V65.74H235.76V68.836H235.028V69.58H234.284V70.336H231.188V69.58H230.444V68.716ZM228.212 67.972H228.968V66.484H229.712V64.996H230.576V66.616H229.832V68.092H229.1V69.58H228.212V67.972ZM236.372 64.996H237.248V65.74H237.992V67.228H238.724V69.58H237.86V67.36H237.116V65.872H236.372V64.996ZM242.672 70.18V69.436H243.404V68.704H244.148V67.96H244.892V66.472H245.636V64.984H246.368V64.372H241.172V63.508H246.368V59.8H247.244V63.508H252.428V64.372H247.244V64.984H247.988V66.472H248.72V67.96H249.464V68.704H250.208V69.436H250.952V70.18H252.428V71.068H250.82V70.324H250.076V69.568H249.332V68.824H248.6V68.08H247.856V66.604H247.112V65.116H246.5V66.604H245.756V68.08H245.024V68.824H244.28V69.568H243.536V70.324H242.792V71.068H241.172V70.18H242.672ZM255.632 66.604H255.02V67.348H254.132V66.472H254.888V65.728H256.364V64.984H257.108V64.372H254.132V63.508H256.364V62.152H254.888V61.276H256.364V59.8H257.24V61.276H259.328V60.544H260.204V62.152H259.46V62.896H258.716V63.508H260.948V64.372H257.984V65.116H257.24V65.728H260.204V71.068H259.328V70.324H256.496V71.068H255.632V66.604ZM261.56 60.544H265.388V62.152H264.644V63.64H263.912V64.984H264.644V65.728H265.388V68.08H264.644V68.824H263.036V67.96H264.512V65.86H263.78V65.116H263.036V63.508H263.78V62.02H264.512V61.408H262.424V71.068H261.56V60.544ZM257.852 63.508V62.764H258.596V62.152H257.24V63.508H257.852ZM259.328 67.216V66.604H256.496V67.216H259.328ZM259.328 69.436V68.08H256.496V69.436H259.328ZM267.092 64.252H268.592V63.508H269.324V62.764H270.068V62.02H270.812V61.276H271.556V60.544H272.288V59.8H273.164V60.544H273.908V61.276H274.64V62.02H275.384V62.764H276.128V63.508H276.872V64.252H278.348V65.116H276.74V64.372H275.996V63.64H275.384V64.372H270.068V63.64H269.456V64.372H268.712V65.116H267.092V64.252ZM275.252 63.508V62.896H274.52V62.152H273.776V61.408H273.032V60.664H272.42V61.408H271.676V62.152H270.944V62.896H270.2V63.508H275.252ZM267.848 69.436H269.324V68.704H270.068V67.96H270.812V67.216H271.556V66.604H267.848V65.728H277.604V66.604H272.42V67.348H271.676V68.08H270.944V68.824H270.2V69.436H272.288V68.704H275.252V68.08H274.52V67.216H275.384V67.96H276.128V68.704H276.872V69.436H277.604V71.068H276.74V69.568H272.42V70.324H267.848V69.436ZM283.028 64.996H283.772V64.264H284.516V63.52H285.248V62.776H285.992V62.164H280.052V61.288H290.564V62.164H287.6V62.908H286.124V63.652H285.38V64.384H284.636V65.128H283.904V67.972H284.636V68.716H285.38V69.448H289.088V70.336H285.248V69.58H283.772V68.092H283.028V64.996ZM288.956 62.776H289.832V63.52H290.564V64.264H291.308V65.128H290.432V64.384H289.7V63.652H288.956V62.776ZM287.48 63.52H288.344V64.264H289.088V64.996H289.832V65.872H288.956V65.128H288.212V64.384H287.48V63.52ZM297.848 70.192V69.448H298.58V68.716H299.324V67.36H298.712V68.092H296.36V67.36H295.616V64.996H296.36V64.264H298.712V64.996H299.324V62.908H293.384V62.032H299.324V59.812H300.2V62.032H303.896V62.908H300.2V68.836H299.456V69.58H298.712V70.336H297.968V71.08H296.36V70.192H297.848ZM298.58 67.228V66.484H299.324V65.872H298.58V65.128H296.492V67.228H298.58ZM306.356 67.972H307.1V67.228H309.452V67.972H310.184V70.336H309.452V71.08H307.1V70.336H306.356V67.972ZM309.32 70.192V68.092H307.22V70.192H309.32ZM36.044 77.544H42.848V81.372H36.044V77.544ZM41.972 79.02V78.408H36.92V79.02H41.972ZM41.972 80.508V79.896H36.92V80.508H41.972ZM35.312 87.18V82.86H33.812V81.984H45.068V82.86H39.14V88.068H38.276V87.324H35.432V88.068H33.812V87.18H35.312ZM38.276 83.472V82.86H36.176V83.472H38.276ZM41.24 87.18V85.824H40.496V84.348H39.752V83.472H44.324V85.08H43.592V85.824H42.848V86.436H43.592V87.18H45.068V88.068H43.46V87.324H42.716V86.568H42.104V87.324H41.36V88.068H39.752V87.18H41.24ZM42.716 85.704V84.96H43.46V84.348H41.36V85.704H42.716ZM38.276 84.96V84.348H36.176V84.96H38.276ZM38.276 86.436V85.824H36.176V86.436H38.276ZM46.772 85.704H47.528V84.216H48.272V83.604H46.772V82.728H49.004V82.116H46.772V81.252H48.272V80.64H47.528V79.152H46.772V78.276H49.004V76.8H49.88V78.276H52.1V79.152H51.356V80.64H50.624V81.252H52.1V82.116H49.88V82.728H52.1V83.604H50.624V84.216H51.356V85.704H52.712V78.276H55.676V77.544H57.284V78.408H55.808V79.152H53.588V81.252H58.028V82.116H56.552V88.068H55.676V82.116H53.588V85.824H52.844V88.068H51.968V86.568H51.236V85.824H50.492V84.348H49.88V88.068H49.004V84.348H48.392V85.824H47.66V86.568H46.772V85.704ZM49.748 81.252V80.508H50.492V79.152H48.392V80.508H49.136V81.252H49.748ZM60.488 80.508H62.708V79.896H61.964V79.152H59.732V78.276H64.928V76.8H65.804V78.276H70.988V79.152H68.768V79.896H68.024V80.508H70.244V87.324H69.512V88.068H67.16V87.18H69.38V83.604H68.024V86.568H62.708V83.604H61.352V88.068H60.488V80.508ZM67.16 80.508V79.764H67.892V79.152H62.84V79.764H63.584V80.508H67.16ZM67.16 83.472V82.86H66.416V81.372H64.316V82.86H63.584V83.472H67.16ZM69.38 82.728V81.372H67.28V82.728H69.38ZM63.452 82.728V81.372H61.352V82.728H63.452ZM67.16 85.704V84.348H63.584V85.704H67.16ZM74.54 76.8H81.344V80.64H74.54V76.8ZM80.468 79.764V77.664H75.416V79.764H80.468ZM78.992 81.984H83.564V88.068H82.688V87.324H79.856V88.068H78.992V81.984ZM73.064 81.984H77.636V87.324H73.928V88.068H73.064V81.984ZM82.688 86.436V82.86H79.856V86.436H82.688ZM76.772 86.436V82.86H73.928V86.436H76.772ZM86.78 85.836H86.024V81.996H86.78V80.52H87.524V79.776H88.256V79.032H89.744V78.288H93.572V79.032H95.06V79.776H95.804V81.264H96.536V85.092H95.804V86.58H95.06V87.336H93.572V88.08H91.22V87.192H93.452V86.448H94.928V84.972H95.672V81.384H94.928V79.908H93.452V79.164H92.096V81.384H91.352V83.616H90.608V85.092H89.876V86.58H89.132V87.336H87.524V86.58H86.78V85.836ZM87.644 85.716V86.448H89V84.972H89.744V83.484H90.488V81.264H91.22V79.164H89.876V79.908H88.388V80.652H87.644V82.128H86.912V85.716H87.644ZM99.356 77.544H109.112V80.64H99.356V77.544ZM102.32 79.764V78.408H100.22V79.764H102.32ZM105.284 79.764V78.408H103.184V79.764H105.284ZM108.248 79.764V78.408H106.148V79.764H108.248ZM102.32 87.18V86.568H100.832V81.252H107.636V86.568H106.892V87.18H109.112V88.068H106.76V87.324H105.284V86.568H103.928V87.324H102.452V88.068H99.356V87.18H102.32ZM106.76 82.728V82.116H101.708V82.728H106.76ZM106.76 84.216V83.604H101.708V84.216H106.76ZM106.76 85.704V85.08H101.708V85.704H106.76ZM113.06 85.092H112.316V78.288H113.18V84.972H113.924V86.448H116.024V85.716H116.756V84.228H117.632V85.836H116.888V86.58H116.144V87.336H113.792V86.58H113.06V85.092ZM120.464 81.384H119.72V79.908H118.988V78.288H119.852V79.776H120.596V81.264H121.34V83.484H122.072V85.836H121.208V83.616H120.464V81.384ZM124.904 84.216H125.66V83.472H127.136V80.64H125.792V82.86H124.904V80.508H125.66V77.544H126.524V79.764H127.136V76.8H128.012V79.764H130.1V76.8H130.976V79.02H135.416V85.824H134.684V87.324H133.94V88.068H131.588V87.18H133.808V85.704H134.552V79.896H133.94V82.116H133.196V83.604H132.452V85.08H131.72V85.824H130.976V86.568H130.232V87.324H129.368V86.436H130.1V85.704H130.844V84.96H131.588V83.472H132.332V81.984H133.064V79.896H131.72V82.116H130.976V83.604H130.232V84.348H129.488V85.08H128.624V84.216H129.368V83.472H130.1V81.984H130.844V79.896H130.232V81.372H129.368V80.64H128.012V82.728H128.624V81.984H129.488V82.86H128.756V83.604H128.012V88.068H127.136V84.348H125.792V85.08H124.904V84.216ZM140.84 82.872H140.096V82.128H138.752V82.872H137.864V81.996H138.62V81.264H140.096V79.908H139.364V77.556H140.228V79.776H140.972V80.52H142.328V79.776H143.804V78.42H143.06V76.812H143.936V78.288H144.68V79.776H146.9V80.52H147.644V81.264H148.376V83.616H147.644V84.36H146.156V85.092H143.06V84.228H146.024V83.484H147.512V81.384H146.768V80.652H142.448V81.384H140.972V82.74H141.716V85.716H142.448V88.08H141.584V85.836H140.84V82.872ZM152.684 87.18V80.64H152.072V81.372H150.452V80.508H151.952V79.764H153.428V79.02H154.172V78.276H154.916V77.544H155.648V76.8H156.524V77.544H157.268V78.276H158V79.02H158.744V79.764H160.232V80.508H161.708V81.372H160.1V80.64H158.744V84.348H156.524V84.96H157.268V85.704H158.612V84.96H159.356V84.216H160.232V85.08H159.488V85.824H158.744V86.436H160.232V87.18H161.708V88.068H160.1V87.324H158.612V86.568H157.136V85.824H156.392V85.08H155.648V84.348H153.56V86.436H156.524V87.324H153.56V88.068H151.208V87.18H152.684ZM155.648 80.508V79.02H156.524V80.508H158.612V79.896H157.88V79.152H157.136V78.408H156.392V77.664H155.78V78.408H155.036V79.152H154.304V79.896H153.56V80.508H155.648ZM157.88 81.984V81.372H153.56V81.984H157.88ZM157.88 83.472V82.86H153.56V83.472H157.88ZM164.912 84.96H168.608V84.348H163.412V83.472H168.608V82.86H164.912V81.984H168.608V81.372H165.644V79.02H168.608V78.408H163.412V77.544H168.608V76.8H169.484V77.544H174.668V78.408H169.484V79.02H172.448V81.372H169.484V81.984H172.448V83.472H174.668V84.348H172.448V86.568H171.572V85.824H169.484V87.324H168.74V88.068H167.132V87.18H168.608V85.824H164.912V84.96ZM168.608 80.508V79.896H166.52V80.508H168.608ZM171.572 80.508V79.896H169.484V80.508H171.572ZM171.572 83.472V82.86H169.484V83.472H171.572ZM171.572 84.96V84.348H169.484V84.96H171.572ZM177.116 84.228H177.86V82.74H178.592V81.996H179.336V80.52H180.08V79.908H177.116V79.032H180.824V76.812H181.688V79.032H185.396V79.908H180.944V80.52H182.432V81.264H183.176V82.74H183.788V81.996H185.264V81.264H186.872V82.128H185.396V82.872H183.908V83.616H183.176V86.58H182.3V84.36H180.944V85.092H180.212V87.192H186.14V88.08H180.08V87.336H179.336V84.972H180.08V84.228H180.824V83.484H182.3V81.384H180.212V82.128H179.468V82.872H178.724V84.36H177.98V85.092H177.116V84.228ZM189.332 86.436H190.832V85.704H192.308V84.96H193.796V84.348H189.332V83.472H194.528V82.86H193.052V78.276H193.796V77.544H194.528V76.8H195.404V77.664H194.66V78.276H196.88V82.86H195.404V83.472H200.588V84.348H196.148V84.96H197.624V85.704H199.112V86.436H200.588V87.324H198.98V86.568H197.492V85.824H196.016V85.08H195.404V88.068H194.528V85.08H193.916V85.824H192.44V86.568H190.952V87.324H189.332V86.436ZM191.564 79.152H190.832V78.408H190.088V77.544H190.952V78.276H191.696V79.02H192.44V79.896H191.564V79.152ZM197.492 79.02H198.236V78.276H198.98V77.544H199.844V78.408H199.112V79.152H198.368V79.896H197.492V79.02ZM196.016 79.764V79.152H193.916V79.764H196.016ZM189.332 81.984H190.832V81.252H191.564V80.508H192.44V81.372H191.696V82.116H190.952V82.86H189.332V81.984ZM197.492 80.508H198.368V81.252H199.112V81.984H200.588V82.86H198.98V82.116H198.236V81.372H197.492V80.508ZM196.016 81.984V80.64H193.916V81.984H196.016ZM203.408 77.556H204.272V85.716H205.016V86.448H208.592V85.716H210.068V84.972H210.812V84.228H211.556V83.484H212.42V84.36H211.688V85.092H210.944V85.836H210.2V86.58H208.724V87.336H204.884V86.58H204.14V85.836H203.408V77.556ZM216.74 85.092H215.996V81.996H216.74V81.264H218.216V79.908H215.996V79.032H218.216V76.812H219.092V79.032H222.056V79.908H219.092V85.092H218.348V87.192H223.4V86.448H224.144V84.36H223.4V83.484H224.276V84.228H225.02V86.58H224.276V87.336H223.532V88.08H218.216V87.336H217.472V85.836H216.74V85.092ZM224.888 80.652H224.144V79.908H223.4V79.164H222.668V78.288H223.532V79.032H224.276V79.776H225.02V80.52H225.752V82.128H224.888V80.652ZM218.216 84.972V82.128H216.86V84.972H218.216ZM230.072 78.288H237.608V79.164H230.072V78.288ZM229.328 84.228H230.072V83.484H230.936V84.36H230.192V85.716H231.68V86.448H237.476V85.716H238.352V86.58H237.608V87.336H231.548V86.58H230.072V85.836H229.328V84.228ZM242.288 83.484H243.032V82.74H243.764V81.996H245.252V76.812H246.116V81.264H247.472V80.52H251.312V81.384H247.604V82.128H245.384V82.872H243.896V83.616H243.152V85.716H244.64V86.448H251.312V87.336H244.508V86.58H243.032V85.836H242.288V83.484ZM254.504 85.716H255.248V84.228H255.98V81.996H256.724V80.652H254.504V79.776H257.468V76.812H258.332V79.776H260.564V80.52H261.296V85.092H260.564V86.58H259.82V87.336H256.724V86.448H259.688V84.972H260.432V80.652H257.6V82.128H256.856V84.36H256.112V85.836H255.368V87.336H254.504V85.716ZM262.652 78.42H261.908V77.556H262.652V76.812H263.528V77.556H264.26V78.288H265.004V79.164H264.26V79.908H263.396V79.164H262.652V78.42ZM263.396 78.288V77.676H262.784V78.288H263.396ZM264.128 79.032V78.42H263.528V79.032H264.128ZM261.176 79.032H262.04V79.776H262.784V80.52H263.528V81.264H264.26V82.74H265.004V83.616H264.128V82.872H263.396V81.384H262.652V80.652H261.908V79.908H261.176V79.032ZM270.068 81.996H270.812V81.264H271.556V80.52H272.288V79.776H273.032V79.164H267.092V78.288H277.604V79.164H274.64V79.908H273.164V80.652H272.42V81.384H271.676V82.128H270.944V84.972H271.676V85.716H272.42V86.448H276.128V87.336H272.288V86.58H270.812V85.092H270.068V81.996ZM275.996 79.776H276.872V80.52H277.604V81.264H278.348V82.128H277.472V81.384H276.74V80.652H275.996V79.776ZM274.52 80.52H275.384V81.264H276.128V81.996H276.872V82.872H275.996V82.128H275.252V81.384H274.52V80.52ZM281.912 84.228H282.644V83.484H287.84V82.872H287.096V82.128H281.168V81.264H286.352V80.652H285.608V79.908H281.168V79.032H284.876V78.42H284.132V76.812H284.996V78.288H285.74V79.032H287.096V78.288H289.448V79.164H287.228V79.908H286.484V80.52H287.228V81.264H287.84V80.52H290.192V81.384H287.96V82.74H288.704V83.484H289.448V84.228H290.192V85.092H288.572V84.36H282.776V86.448H289.448V87.336H282.644V86.58H281.912V84.228ZM294.128 84.972H294.872V84.228H298.568V82.128H294.128V81.264H298.568V79.908H294.128V79.032H298.568V76.812H299.444V79.032H303.152V79.908H299.444V81.264H303.152V82.128H299.444V84.972H300.92V85.716H301.664V86.448H302.408V87.192H303.152V88.08H302.276V87.336H301.532V86.58H300.8V85.836H299.444V87.336H298.7V88.08H294.872V87.336H294.128V84.972ZM298.568 87.192V85.092H294.992V87.192H298.568ZM310.808 87.192V86.448H311.54V85.716H312.284V84.36H311.672V85.092H309.32V84.36H308.576V81.996H309.32V81.264H311.672V81.996H312.284V79.908H306.344V79.032H312.284V76.812H313.16V79.032H316.856V79.908H313.16V85.836H312.416V86.58H311.672V87.336H310.928V88.08H309.32V87.192H310.808ZM311.54 84.228V83.484H312.284V82.872H311.54V82.128H309.452V84.228H311.54ZM319.316 84.972H320.06V84.228H322.412V84.972H323.144V87.336H322.412V88.08H320.06V87.336H319.316V84.972ZM322.28 87.192V85.092H320.18V87.192H322.28Z"></path>
</svg>
