<svg xmlns="http://www.w3.org/2000/svg" fill="none" viewBox="0 0 36 13" height="13" width="36">
<path fill="black" d="M5.94 11.192V4.652H1.5V3.776H5.94V0.812H6.816V3.776H11.256V4.652H6.816V11.336H6.072V12.08H3.72V11.192H5.94ZM0.744 9.716H1.5V8.972H2.244V7.484H2.976V5.996H3.852V7.616H3.108V9.092H2.364V9.836H1.632V10.58H0.744V9.716ZM8.172 5.996H9.036V6.74H9.78V7.484H10.524V8.972H11.256V10.58H10.392V9.092H9.648V7.616H8.904V6.872H8.172V5.996ZM13.5 2.288H22.524V3.164H13.5V2.288ZM15.72 11.192V10.448H16.464V9.716H17.208V8.228H17.94V6.128H12.744V5.264H23.256V6.128H18.816V8.36H18.072V9.836H17.328V10.58H16.596V11.336H15.852V12.08H14.244V11.192H15.72ZM29.94 1.556H30.816V10.448H31.428V9.716H32.172V8.972H32.904V8.228H33.648V6.74H34.392V5.264H35.256V6.872H34.524V8.36H33.78V9.092H33.036V9.836H32.292V10.58H31.56V11.336H29.94V1.556ZM24.744 10.448H25.5V9.716H26.244V8.228H26.976V5.996H27.72V1.556H28.596V6.128H27.852V8.36H27.108V9.836H26.364V10.58H25.632V11.336H24.744V10.448Z"></path>
</svg>
