<svg version="1.1" xmlns="http://www.w3.org/2000/svg" xmlns:xlink="http://www.w3.org/1999/xlink" width="19.68" height="19.56" viewBox="0,0,19.68,19.56"><g transform="translate(-230.16,-170.22)"><g data-paper-data="{&quot;isPaintingLayer&quot;:true}" fill="#000000" fill-rule="nonzero" stroke="none" stroke-width="1" stroke-linecap="butt" stroke-linejoin="miter" stroke-miterlimit="10" stroke-dasharray="" stroke-dashoffset="0" style="mix-blend-mode: normal"><path d="M233.112,171.948h-2.952v-1.728h4.704v19.56h-1.752zM240.696,186.78h-1.512v-4.704h1.512v-1.488h1.488v-1.224h-1.488v-1.488h-1.512v-4.704h1.512v-1.488h1.488v-1.464h4.704v1.464h1.464v1.488h1.488v4.704h-1.488v1.488h-1.464v1.224h1.464v1.488h1.488v4.704h-1.488v1.488h-1.464v1.512h-4.704v-1.512h-1.488zM246.624,179.1v-1.464h1.488v-4.2h-1.488v-1.488h-4.2v1.488h-1.464v4.2h1.464v1.464zM242.424,186.54v1.464h4.2v-1.464h1.488v-4.2h-1.488v-1.488h-4.2v1.488h-1.464v4.2z"/></g></g></svg>