<svg version="1.1" xmlns="http://www.w3.org/2000/svg" xmlns:xlink="http://www.w3.org/1999/xlink" width="116.60496" height="83.35852" viewBox="0,0,116.60496,83.35852"><g transform="translate(-179.8998,-94.7827)"><g data-paper-data="{&quot;isPaintingLayer&quot;:true}" fill-rule="nonzero" stroke-width="1" stroke-linecap="butt" stroke-linejoin="miter" stroke-miterlimit="10" stroke-dasharray="" stroke-dashoffset="0" style="mix-blend-mode: normal"><g><path d="M180.17103,130.74543c-1.05933,-3.70682 1.07792,-7.57232 4.78049,-8.64639l93.21176,-27.03738c3.72356,-1.08002 7.61535,1.07184 8.68123,4.79939l4.68717,16.40295l4.70191,16.45066c1.05981,3.70889 -1.08055,7.57638 -4.78657,8.64794l-61.52989,17.794l9.59606,18.98462l-24.50645,-14.49942l-16.78362,4.79641c-3.71717,1.06228 -7.59164,-1.08989 -8.65392,-4.80706z" fill="#ff56a7" stroke="none"/><path d="M229.77825,158.67622l-0.5794,0.16765l0.27208,0.53829l8.82408,17.45728l-23.03367,-13.62794l-0.18513,-0.10954l-0.20687,0.05907l-16.78362,4.79641c-3.45165,0.98645 -7.04943,-1.01202 -8.03588,-4.46367l-9.39806,-32.88572c-0.98366,-3.44199 1.00092,-7.03147 4.43898,-8.02876l93.21206,-27.03743c3.45753,-1.00287 7.07111,0.9953 8.06071,4.4566l4.68717,16.40294l4.7019,16.45066c0.98361,3.444 -1.00322,7.0352 -4.44416,8.03025z" fill="none" stroke="#000000"/></g><path d="M197.00256,150.39962l-1.20773,0.35902l-0.76365,-2.5689l1.20773,-0.35902l-0.35332,-1.18862l1.18862,-0.35332l-0.35332,-1.18861l1.16941,-0.34762l-0.35332,-1.18862l2.37713,-0.70664l-0.99156,-3.33578l-4.73526,1.40769l-0.41593,-1.3995l4.73516,-1.40758l-1.05426,-3.54664l1.38028,-0.41033l1.05426,3.54664l3.56585,-1.06007l0.41602,1.39949l-3.56584,1.06007l0.64394,2.16626l5.92388,-1.76091l0.34762,1.16941l2.37713,-0.70664l0.35332,1.18852l1.16951,-0.34762l1.47029,4.94613l-1.16941,0.34762l0.35332,1.18861l-1.18861,0.35332l0.35902,1.20773l-1.18862,0.35332l0.35332,1.18861l-4.94603,1.47029l-0.42173,-1.41859l4.73516,-1.40768l-0.35332,-1.18851l1.18862,-0.35332l-0.34763,-1.16951l1.18862,-0.35333l-1.35068,-4.54349l-2.37713,0.70664l-0.35332,-1.18851l-5.71301,1.69821l2.11433,7.11239l-1.16941,0.34762l0.35902,1.20783l-3.75752,1.11697l-0.35902,-1.20783l-1.18861,0.35342zM204.07698,135.17251l2.5689,-0.76365l0.35332,1.18862l2.35803,-0.70095l0.35332,1.18862l1.18862,-0.35332l0.41602,1.39949l-1.39949,0.41602l-0.35332,-1.18861l-2.35803,0.70094l-0.35332,-1.18861l-2.35803,0.70094zM198.32584,149.79754l0.34773,1.16951l3.35487,-0.99736l-1.6983,-5.7129l-2.16626,0.64394l0.35332,1.18861l-1.18861,0.35332l0.35332,1.18862l-1.16941,0.34762l0.64394,2.16637zM223.90502,144.73932l-1.6983,-5.7129l-8.30102,2.46755l-0.41602,-1.39939l8.30101,-2.46765l-0.99156,-3.33578l-5.90467,1.75531l-0.41602,-1.39949l5.90467,-1.75531l-0.64404,-2.16626l-5.90457,1.7552l-0.41033,-1.38028l7.09319,-2.10852l-0.35332,-1.18861l4.94613,-1.47029l0.41033,1.38028l-4.73526,1.40759l0.99737,3.35497l5.92377,-1.761l0.41603,1.39949l-5.92388,1.76091l0.99166,3.33576l8.2818,-2.46195l0.41602,1.39949l-8.2818,2.46195l1.76661,5.94299l-1.18861,0.35332l0.35332,1.18862l-3.75742,1.11696l-0.42173,-1.41869zM233.72056,137.96148l3.56575,-1.05997l-0.29062,-0.97774l-2.35803,0.70094l-2.17693,-7.32327l2.35803,-0.70094l-0.29062,-0.97775l-3.56585,1.05997l-0.41602,-1.39949l3.56585,-1.05997l-0.70094,-2.35803l1.39939,-0.41602l0.70104,2.35802l3.33568,-0.99156l-0.34762,-1.16941l8.49268,-2.52465l0.76364,2.5689l-1.16941,0.34762l0.35332,1.18861l-1.18851,0.35332l0.64394,2.16637l1.18862,-0.35332l0.34762,1.16941l2.35803,-0.70094l0.41602,1.39939l-2.5689,0.76365l-0.35332,-1.18852l-1.18862,0.35332l-0.35332,-1.18861l-2.16636,0.64394l0.35332,1.18862l-1.16941,0.34762l0.35332,1.18862l-2.58801,0.76934l-0.41602,-1.39949l2.37713,-0.70664l-0.34762,-1.16941l1.18862,-0.35332l-0.29062,-0.97774l-1.18861,0.35332l-0.70665,-2.37724l-1.18861,0.35342l-0.35332,-1.18862l-0.97775,0.29062l0.35332,1.18861l-3.54664,1.05427l0.29072,0.97774l2.35803,-0.70095l2.17693,7.32327l-2.35802,0.70094l0.29062,0.97775l3.33577,-0.99166l-0.35332,-1.18861l3.56575,-1.05997l-0.70664,-2.37713l1.38028,-0.41033l0.70664,2.37714l3.54665,-1.05427l0.41032,1.38028l-3.54664,1.05427l0.64404,2.16635l4.73516,-1.40758l0.42172,1.4186l-10.85071,3.22559l-0.42173,-1.4187l4.73516,-1.40758l-0.64394,-2.16636l-3.35487,0.99736l0.35332,1.18862l-3.54664,1.05426l1.06566,3.58496l-1.39939,0.41602l-1.06576,-3.58495l-3.56575,1.05997zM244.64251,126.97385l-0.35332,-1.18862l1.18861,-0.35332l-0.35332,-1.18861l1.18852,-0.35332l-0.29062,-0.97774l-4.52428,1.34498l0.29062,0.97775l1.16941,-0.34762l0.70664,2.37713zM235.52541,130.97762l-0.29061,-0.97765l-0.97775,0.29062l0.29061,0.97765zM237.90264,130.27099l-0.29072,-0.97774l-0.97764,0.29071l0.29061,0.97765zM238.95691,133.81763l-0.64394,-2.16636l-0.97774,0.29072l0.64394,2.16626zM236.57967,134.52427l-0.64394,-2.16636l-0.97774,0.29072l0.64404,2.16625zM261.38376,126.08679l-1.18862,0.35332l-0.41602,-1.39949l2.37723,-0.70664l-0.34762,-1.16941l2.35802,-0.70094l-0.35332,-1.18862l1.18852,-0.35332l-0.29062,-0.97774l-4.52429,1.34488l0.35332,1.18861l-1.18861,0.35332l0.34762,1.16941l-1.38028,0.41032l-0.41033,-1.38028l1.16941,-0.34762l-0.70665,-2.37724l1.18862,-0.35332l-1.05436,-3.54654l1.39949,-0.41602l1.05436,3.54654l7.09319,-2.10852l0.41602,1.39949l-2.35803,0.70094l0.35332,1.18862l-1.18861,0.35332l0.34762,1.16941l-1.18851,0.35332l0.64394,2.16636l1.18862,-0.35332l0.35332,1.18852l0.97765,-0.29061l-0.35332,-1.18861l1.16951,-0.34763l-0.35342,-1.18861l1.39949,-0.41603l0.41603,1.39949l-1.18862,0.35332l0.35342,1.18861l-1.16951,0.34763l0.99737,3.35497l1.1694,-0.34772l0.70095,2.35803l1.18861,-0.35332l0.42173,1.41869l-1.39949,0.41603l-0.35332,-1.18862l-1.16941,0.34762l-0.71234,-2.39635l-1.18862,0.35332l-0.70094,-2.35802l-1.18862,0.35332l-0.70664,-2.37723l-1.1694,0.34772l-0.35342,-1.18861l-0.97765,0.29061l2.82657,9.50874l-1.39939,0.41602zM253.59244,134.62066l1.20773,-0.35902l-1.05427,-3.54664l1.18862,-0.35332l-2.05162,-6.90152l-2.39635,0.71234l-0.41602,-1.39949l3.56575,-1.05997l-1.05427,-3.54664l1.39949,-0.41602l1.05427,3.54664l2.35803,-0.70094l0.41602,1.39949l-3.54664,1.05426l0.99166,3.33567l3.54664,-1.05426l2.53596,8.53109l-1.16941,0.34762l0.35332,1.18862l-2.58811,0.76935l-0.42173,-1.41869l2.37723,-0.70664l-2.05162,-6.90152l-2.16627,0.64394l0.70664,2.37723l-1.18861,0.35332l1.05426,3.54664l-1.16941,0.34762l0.71234,2.39634l-1.4186,0.42172zM277.44133,112.09108l1.39959,-0.41603l3.57902,12.03932l-1.39959,0.41603zM280.12775,125.48059l2.5884,-0.76937l0.76955,2.5881l-2.58841,0.76936z" fill="#ffffff" stroke="none"/></g></g></svg>