<svg version="1.1" xmlns="http://www.w3.org/2000/svg" xmlns:xlink="http://www.w3.org/1999/xlink" width="147.84" height="11.28" viewBox="0,0,147.84,11.28"><g transform="translate(-166.244,-174.3)"><g data-paper-data="{&quot;isPaintingLayer&quot;:true}" fill="#ffffff" fill-rule="nonzero" stroke="none" stroke-width="1" stroke-linecap="butt" stroke-linejoin="miter" stroke-miterlimit="10" stroke-dasharray="" stroke-dashoffset="0" style="mix-blend-mode: normal"><path d="M168.476,183.948h2.232v-0.732h1.476v-0.744h0.744v-1.488h0.744v-2.832h-4.32v3.708h-0.876v-3.708h-2.232v-0.876h2.232v-2.964h0.876v2.964h4.32v-2.964h0.864v2.964h2.22v0.876h-2.22v2.964h-0.744v1.476h-0.732v0.744h-0.744v0.744h-1.488v0.756h-2.352zM178.988,179.496h9.024v0.876h-9.024zM193.964,180.372h-3.72v-0.876h3.72v-2.832h-2.964v-0.876h9.024v0.876h-5.196v2.832h5.928v0.876h-5.928v3.576h5.196v0.888h-5.316v-0.756h-0.744zM205.208,177.408h-1.476v-0.744h-0.744v-0.876h0.864v0.744h1.488v0.744h1.476v0.744h0.744v0.864h-0.864v-0.732h-1.488zM202.988,183.948h2.22v-0.732h1.488v-0.744h1.476v-0.744h0.744v-0.744h0.744v-0.744h0.732v-1.476h0.744v-2.232h0.876v2.352h-0.744v1.488h-0.744v0.744h-0.744v0.744h-0.732v0.732h-0.744v0.744h-1.488v0.744h-1.476v0.756h-2.352zM214.244,183.216h0.744v-1.488h0.732v-2.232h0.744v-1.344h-2.22v-0.876h2.964v-2.964h0.864v2.964h2.232v0.744h0.732v4.572h-0.732v1.488h-0.744v0.756h-3.096v-0.888h2.964v-1.476h0.744v-4.32h-2.832v1.476h-0.744v2.232h-0.744v1.476h-0.744v1.5h-0.864zM222.392,175.92h-0.744v-0.864h0.744v-0.744h0.876v0.744h0.732v0.732h0.744v0.876h-0.744v0.744h-0.864v-0.744h-0.744zM223.136,175.788v-0.612h-0.612v0.612zM223.868,176.532v-0.612h-0.6v0.612zM220.916,176.532h0.864v0.744h0.744v0.744h0.744v0.744h0.732v1.476h0.744v0.876h-0.876v-0.744h-0.732v-1.488h-0.744v-0.732h-0.744v-0.744h-0.732zM229.22,180.372h-0.744v-0.744h-1.344v0.744h-0.888v-0.876h0.756v-0.732h1.476v-1.356h-0.732v-2.352h0.864v2.22h0.744v0.744h1.356v-0.744h1.476v-1.356h-0.744v-1.608h0.876v1.476h0.744v1.488h2.22v0.744h0.744v0.744h0.732v2.352h-0.732v0.744h-1.488v0.732h-3.096v-0.864h2.964v-0.744h1.488v-2.1h-0.744v-0.732h-4.32v0.732h-1.476v1.356h0.744v2.976h0.732v2.364h-0.864v-2.244h-0.744zM241.208,183.948h3.708v-0.732h1.476v-0.744h0.744v-2.1h-0.744v-0.744h-5.052v0.744h-2.352v-0.876h2.22v-0.732h5.316v0.732h0.744v0.744h0.744v2.352h-0.744v0.744h-0.744v0.744h-1.476v0.756h-3.84zM252.104,182.472h0.744v-0.744h3.708v-3.576h-4.452v-0.876h4.452v-2.22h0.864v2.22h1.356v-0.612h-0.744v-1.608h0.744v-0.744h1.608v0.744h0.744v1.608h-0.744v0.744h-0.732v0.744h-2.232v4.32h0.744v0.744h0.744v0.732h0.744v0.888h-0.876v-0.756h-0.744v-0.744h-0.612v0.744h-0.732v0.756h-3.84v-0.756h-0.744zM249.872,176.532h0.756v-1.476h0.864v1.608h-0.732v8.172h-0.888zM260.252,176.532v-1.356h-1.344v1.356zM256.556,183.948v-1.356h-3.576v1.356zM267.056,184.692v-0.744h2.232v-0.732h0.732v-1.488h0.744v-4.32h-0.744v-1.488h-2.832v0.744h-0.744v0.744h-0.732v1.476h-0.744v1.488h-0.744v1.488h-0.864v-5.328h0.732v-1.476h0.876v1.608h-0.744v2.1h0.612v-1.488h0.744v-0.744h0.744v-0.744h0.732v-0.732h3.096v0.732h0.744v1.488h0.744v4.584h-0.744v1.476h-0.744v0.744h-0.744v0.756h-2.22v0.744h-3.096v-0.888zM276.104,175.044h6.804v3.828h-6.804zM282.032,176.52v-0.612h-5.052v0.612zM282.032,178.008v-0.612h-5.052v0.612zM275.372,184.68v-4.32h-1.5v-0.876h11.256v0.876h-5.928v5.208h-0.864v-0.744h-2.844v0.744h-1.62v-0.888zM278.336,180.972v-0.612h-2.1v0.612zM281.3,184.68v-1.356h-0.744v-1.476h-0.744v-0.876h4.572v1.608h-0.732v0.744h-0.744v0.612h0.744v0.744h1.476v0.888h-1.608v-0.744h-0.744v-0.756h-0.612v0.756h-0.744v0.744h-1.608v-0.888zM282.776,183.204v-0.744h0.744v-0.612h-2.1v1.356zM278.336,182.46v-0.612h-2.1v0.612zM278.336,183.936v-0.612h-2.1v0.612zM285.872,175.776h5.196v-1.476h0.876v1.476h5.184v0.876h-11.256zM288.104,177.264h6.804v2.352h-6.804zM294.032,178.752v-0.612h-5.052v0.612zM286.628,180.228h9.756v4.596h-0.732v0.744h-2.352v-0.888h2.22v-3.576h-8.028v4.464h-0.864zM288.848,181.716h5.316v2.352h-5.316zM293.3,183.204v-0.624h-3.576v0.624zM298.244,183.216h0.744v-2.232h0.732v-2.964h0.744v-0.612h-2.22v-0.876h2.22v-2.22h0.876v2.22h2.964v0.876h-2.964v0.744h-0.744v2.964h-0.744v2.22h-0.744v1.5h-0.864zM307.136,175.176h-0.744v-0.864h0.876v0.744h0.732v0.732h0.744v0.876h-0.876v-0.744h-0.732zM305.648,175.92h-0.732v-0.864h0.864v0.732h0.744v0.744h0.744v0.876h-0.876v-0.744h-0.744zM302.684,178.764h5.316v0.864h-5.316zM301.952,182.472h0.732v-0.744h0.876v0.864h-0.744v1.356h5.184v0.888h-5.316v-0.756h-0.732zM310.256,182.472h0.744v-0.744h2.352v0.744h0.732v2.364h-0.732v0.744h-2.352v-0.744h-0.744zM313.22,184.692v-2.1h-2.1v2.1z"/></g></g></svg>