<svg version="1.1" xmlns="http://www.w3.org/2000/svg" xmlns:xlink="http://www.w3.org/1999/xlink" width="414.55324" height="312.80333" viewBox="0,0,414.55324,312.80333"><g transform="translate(-32.72339,-23.59833)"><g data-paper-data="{&quot;isPaintingLayer&quot;:true}" fill-rule="nonzero" stroke-linecap="butt" stroke-miterlimit="10" stroke-dasharray="" stroke-dashoffset="0" style="mix-blend-mode: normal"><path d="M40.12379,334.90166c-3.2587,0 -4.85042,-2.45802 -4.85042,-2.45802c0,0 -1.04998,-0.36577 -1.04998,-5.47073c0,-45.72892 0,-274.50125 0,-296.28287c0,-3.28274 1.6273,-4.36722 1.6273,-4.36722c0,0 1.0144,-1.22449 4.2731,-1.22449h399.75244c3.25869,0 4.53235,1.37255 4.53235,1.37255c0,0 1.36805,0.83913 1.36805,4.00184c0,21.64787 0,256.01277 0,298.2248c0,4.2029 -1.49372,4.70551 -1.49372,4.70551c0,0 -1.14798,1.49863 -4.40667,1.49863z" fill="#fff4e4" stroke="#000000" stroke-width="3" stroke-linejoin="round"/><path d="M58.67249,49.92828h1.08198v-1.06452h2.33846v1.06452h1.08198v2.35591h-1.08198v1.08198h-2.33846v-1.08198h-1.08198zM71.23737,55.51268h-1.09943v-9.89484h1.09943v-1.08198h1.08198v-1.06452h3.42044v1.06452h1.06452v1.08198h1.08198v9.89484h-1.08198v1.08198h-1.06452v1.09943h-3.42044v-1.09943h-1.08198zM72.49385,55.33816v1.06452h3.05396v-1.06452h1.08198v-9.52837h-1.08198v-1.08198h-3.05396v1.08198h-1.06452v9.52837zM78.86355,47.78178h1.29139v1.08198h0.89001v-1.08198h3.42044v1.08198h1.06452v1.06452h1.08198v7.76579h-1.25649v-7.57383h-1.08198v-1.08198h-3.05396v1.08198h-1.06452v7.57383h-1.29139zM88.13015,52.09224h6.64892v1.27394h-6.64892zM97.4142,55.51268h-1.09943v-3.42044h1.29139v3.24593h1.06452v1.06452h3.05396v-1.06452h1.08198v-11.86683h1.25649v12.04134h-1.08198v1.08198h-1.06452v1.09943h-3.42044v-1.09943h-1.08198zM108.26886,44.53586h1.27394v2.35591h-1.27394zM108.26886,47.78178h1.27394v9.91229h-1.27394zM113.76599,47.78178h1.29139v1.08198h0.89001v-1.08198h3.42044v1.08198h1.06452v1.06452h1.08198v7.76579h-1.25649v-7.57383h-1.08198v-1.08198h-3.05396v1.08198h-1.06452v7.57383h-1.29139zM131.81056,51.01026h1.09943v-1.08198h1.08198v-1.06452h3.42044v1.06452h2.1465v1.08198h2.16395v1.08198h3.03651v-1.08198h1.08198v-2.1465h1.25649v2.33846h-1.06452v1.08198h-1.08198v1.08198h-3.42044v-1.08198h-2.16395v-1.08198h-2.1465v-1.08198h-3.05396v1.08198h-1.06452v2.16395h-1.29139zM148.72079,48.84631h5.40988v-0.89001h-1.08198v-2.16395h-3.22848v-1.27394h6.45695v-2.1465h1.27394v2.1465h6.45695v1.27394h-3.22848v2.16395h-1.08198v0.89001h5.39243v1.25649h-16.36925zM158.44112,48.84631v-1.08198h1.08198v-1.97199h-5.20046v1.97199h1.06452v1.08198zM151.96672,50.99281h9.89484v7.76579h-1.27394v-1.08198h-7.34696v1.08198h-1.27394zM160.58762,53.15676v-0.89001h-7.34696v0.89001zM160.58762,56.38524v-1.97199h-7.34696v1.97199zM167.27144,57.46721v-1.08198h1.08198v-1.06452h1.06452v-1.08198h1.08198v-1.08198h1.08198v-1.08198h1.08198v-2.16395h1.06452v-7.53893h1.27394v7.53893h1.08198v2.16395h1.06452v2.16395h1.08198v1.08198h1.08198v1.06452h1.08198v1.08198h2.1465v1.29139h-2.33846v-1.08198h-1.08198v-1.09943h-1.08198v-1.08198h-1.06452v-1.08198h-1.08198v-2.1465h-1.08198v-2.16395h-0.89001v2.16395h-1.08198v1.08198h-1.06452v1.06452h-1.08198v1.08198h-1.08198v1.08198h-1.08198v1.09943h-1.06452v1.08198h-1.29139v-1.29139zM184.16422,51.01026h1.09943v-1.08198h1.08198v-1.06452h3.42044v1.06452h2.1465v1.08198h2.16395v1.08198h3.03651v-1.08198h1.08198v-2.1465h1.25649v2.33846h-1.06452v1.08198h-1.08198v1.08198h-3.42044v-1.08198h-2.16395v-1.08198h-2.1465v-1.08198h-3.05396v1.08198h-1.06452v2.16395h-1.29139zM63.00039,71.42237h1.06452v-2.16395h1.08198v-1.06452h1.08198v-1.08198h1.25649v1.25649h-1.06452v1.08198h-1.08198v2.16395h-1.08198v7.36442h1.08198v2.1465h1.08198v1.08198h1.06452v1.29139h-1.25649v-1.08198h-1.08198v-1.09943h-1.08198v-2.16395h-1.06452zM70.13794,69.25842h1.29139v4.3279h0.89001v-1.08198h3.42044v1.08198h1.06452v1.06452h1.08198v7.76579h-1.25649v-7.57383h-1.08198v-1.08198h-3.05396v1.08198h-1.06452v7.57383h-1.29139zM81.58594,73.76084h-2.1814v-1.25649h2.1814v-3.24593h1.25649v3.24593h3.22848v1.25649h-3.22848v7.36442h3.22848v1.29139h-3.42044v-1.09943h-1.06452zM90.31155,73.76084h-2.1814v-1.25649h2.1814v-3.24593h1.25649v3.24593h3.22848v1.25649h-3.22848v7.36442h3.22848v1.29139h-3.42044v-1.09943h-1.06452zM96.31477,72.50435h1.29139v1.08198h0.89001v-1.08198h3.42044v1.08198h1.06452v1.06452h1.08198v4.50242h-1.08198v1.08198h-1.06452v1.08198h-3.42044v-1.08198h-0.89001v3.26338h-1.29139zM101.72465,80.06073v-1.08198h1.08198v-4.13594h-1.08198v-1.08198h-3.05396v1.08198h-1.06452v4.13594h1.06452v1.08198zM105.04038,78.97875h1.29139v2.1465h5.20046v-3.03651h-5.39243v-1.08198h-1.09943v-3.42044h1.09943v-1.08198h5.56694v1.08198h1.08198v2.33846h-1.25649v-2.16395h-5.20046v3.05396h5.37498v1.08198h1.08198v3.42044h-1.08198v1.09943h-5.56694v-1.09943h-1.09943zM116.45348,72.50435h2.35591v2.33846h-2.35591zM116.45348,78.97875h2.35591v2.33846h-2.35591zM122.49161,80.06073h1.08198v-2.16395h1.06452v-2.16395h1.08198v-2.1465h1.08198v-2.16395h1.08198v-2.16395h1.06452v-2.1465h1.27394v2.33846h-1.08198v2.16395h-1.08198v2.1465h-1.06452v2.16395h-1.08198v2.16395h-1.08198v2.1465h-1.08198v2.1814h-1.25649zM131.21722,80.06073h1.08198v-2.16395h1.06452v-2.16395h1.08198v-2.1465h1.08198v-2.16395h1.08198v-2.16395h1.06452v-2.1465h1.27394v2.33846h-1.08198v2.16395h-1.08198v2.1465h-1.06452v2.16395h-1.08198v2.16395h-1.08198v2.1465h-1.08198v2.1814h-1.25649zM141.04225,80.23524h-1.09943v-5.58439h1.09943v-1.06452h1.08198v-1.08198h3.42044v1.08198h1.06452v1.06452h1.08198v5.58439h-1.08198v1.08198h-1.06452v1.09943h-3.42044v-1.09943h-1.08198zM142.29874,80.06073v1.06452h3.05396v-1.06452h1.08198v-5.21792h-1.08198v-1.08198h-3.05396v1.08198h-1.06452v5.21792zM148.66844,72.50435h1.29139v1.08198h0.89001v-1.08198h3.42044v1.08198h1.06452v1.06452h1.08198v7.76579h-1.25649v-7.57383h-1.08198v-1.08198h-3.05396v1.08198h-1.06452v7.57383h-1.29139zM157.93504,76.8148h6.64892v1.27394h-6.64892zM170.43011,69.25842h1.27394v2.35591h-1.27394zM170.43011,82.20723v-9.70288h1.27394v9.91229h-1.08198v1.08198h-2.33846v-1.29139zM178.07375,69.25842h1.27394v2.35591h-1.27394zM178.07375,72.50435h1.27394v9.91229h-1.27394zM183.57088,72.50435h1.29139v1.08198h0.89001v-1.08198h3.42044v1.08198h1.06452v1.06452h1.08198v7.76579h-1.25649v-7.57383h-1.08198v-1.08198h-3.05396v1.08198h-1.06452v7.57383h-1.29139zM192.90729,78.97875h2.33846v2.33846h-2.33846zM202.12153,80.23524h-1.09943v-5.58439h1.09943v-1.06452h1.08198v-1.08198h3.42044v1.08198h1.06452v1.06452h1.08198v1.27394h-1.25649v-1.08198h-1.08198v-1.08198h-3.05396v1.08198h-1.06452v5.21792h1.06452v1.06452h3.05396v-1.06452h1.08198v-1.08198h1.25649v1.25649h-1.08198v1.08198h-1.06452v1.09943h-3.42044v-1.09943h-1.08198zM210.84714,80.23524h-1.09943v-5.58439h1.09943v-1.06452h1.08198v-1.08198h3.42044v1.08198h1.06452v1.06452h1.08198v5.58439h-1.08198v1.08198h-1.06452v1.09943h-3.42044v-1.09943h-1.08198zM212.10363,80.06073v1.06452h3.05396v-1.06452h1.08198v-5.21792h-1.08198v-1.08198h-3.05396v1.08198h-1.06452v5.21792zM218.47333,72.50435h1.29139v1.08198h0.89001v-1.08198h1.25649v1.08198h1.97199v-1.08198h1.25649v1.08198h1.08198v8.83032h-1.25649v-8.65581h-0.89001v1.08198h-1.08198v7.57383h-1.27394v-8.65581h-0.89001v1.08198h-1.06452v7.57383h-1.29139zM227.19894,80.06073h1.08198v-2.16395h1.06452v-2.16395h1.08198v-2.1465h1.08198v-2.16395h1.08198v-2.16395h1.06452v-2.1465h1.27394v2.33846h-1.08198v2.16395h-1.08198v2.1465h-1.06452v2.16395h-1.08198v2.16395h-1.08198v2.1465h-1.08198v2.1814h-1.25649zM238.68184,82.20723v-1.08198h1.06452v-2.1465h1.08198v-7.36442h-1.08198v-2.16395h-1.06452v-1.08198h-1.08198v-1.25649h1.25649v1.08198h1.08198v1.06452h1.08198v2.16395h1.08198v7.73089h-1.08198v2.16395h-1.08198v1.09943h-1.08198v1.08198h-1.25649v-1.29139zM60.29545,106.92979v-9.51092h-6.45695v-1.27394h6.45695v-4.31045h1.27394v4.31045h6.45695v1.27394h-6.45695v9.72033h-1.08198v1.08198h-3.42044v-1.29139zM64.6059,93.09097h-1.06452v-1.25649h1.25649v1.08198h0.89001v-1.08198h1.27394v1.08198h1.06452v1.06452h1.08198v1.27394h-1.27394v-1.08198h-0.87256v1.08198h-1.27394v-1.08198h-1.08198zM66.76985,93.98099v-0.89001h-0.89001v0.89001zM52.73907,104.78329h1.09943v-1.08198h1.08198v-2.16395h1.06452v-2.16395h1.27394v2.35591h-1.08198v2.1465h-1.08198v1.08198h-1.06452v1.08198h-1.29139zM63.54138,99.37341h1.25649v1.08198h1.08198v1.08198h1.08198v2.16395h1.06452v2.33846h-1.25649v-2.16395h-1.08198v-2.1465h-1.08198v-1.08198h-1.06452zM71.25482,101.53736h2.1814v-1.08198h2.1465v-1.08198h2.16395v-1.06452h1.06452v-1.08198h1.08198v-1.08198h1.08198v-1.08198h1.08198v-1.08198h1.06452v-1.06452h1.08198v-1.08198h1.27394v1.25649h-1.08198v1.08198h-1.08198v1.08198h-1.08198v1.08198h-1.06452v11.88428h-1.27394v-9.73778h-0.89001v1.08198h-1.08198v1.08198h-2.1465v1.08198h-2.16395v1.08198h-2.35591zM88.1825,105.84782h2.1814v-1.06452h2.1465v-1.08198h2.16395v-1.08198h1.06452v-1.08198h1.08198v-2.16395h1.08198v-2.1465h1.08198v-1.97199h-9.70288v-1.27394h10.95937v3.43789h-1.08198v2.1465h-1.06452v1.97199h1.06452v1.08198h1.08198v1.08198h1.08198v1.08198h1.08198v1.06452h1.06452v1.29139h-1.25649v-1.09943h-1.08198v-1.08198h-1.08198v-1.08198h-1.06452v-1.06452h-1.08198v-1.08198h-0.89001v1.08198h-1.08198v1.06452h-1.08198v1.08198h-2.1465v1.08198h-2.16395v1.09943h-2.35591zM58.67249,124.09598h1.08198v-1.06452h2.33846v1.06452h1.08198v2.35591h-1.08198v1.08198h-2.33846v-1.08198h-1.08198zM72.31934,126.45189h-1.08198v-4.31045h-1.09943v-4.50242h1.29139v4.31045h1.06452v4.31045h1.08198v3.24593h0.89001v-3.24593h1.08198v-4.31045h1.08198v-4.31045h1.25649v4.50242h-1.08198v4.31045h-1.06452v3.22848h-1.08198v2.1814h-1.27394v-2.1814h-1.06452zM79.96298,129.68037h-1.09943v-9.89484h1.09943v-1.08198h1.08198v-1.06452h3.42044v1.06452h1.06452v1.08198h1.08198v9.89484h-1.08198v1.08198h-1.06452v1.09943h-3.42044v-1.09943h-1.08198zM81.21947,129.50586v1.06452h3.05396v-1.06452h1.08198v-9.52837h-1.08198v-1.08198h-3.05396v1.08198h-1.06452v9.52837zM90.81764,117.63903h1.27394v14.22275h-1.27394zM97.4142,129.68037h-1.09943v-9.89484h1.09943v-1.08198h1.08198v-1.06452h3.42044v1.06452h1.06452v1.08198h1.08198v2.35591h-1.25649v-2.16395h-1.08198v-1.08198h-3.05396v1.08198h-1.06452v9.52837h1.06452v1.06452h3.05396v-1.06452h1.08198v-3.24593h1.25649v3.42044h-1.08198v1.08198h-1.06452v1.09943h-3.42044v-1.09943h-1.08198zM105.04038,117.63903h7.74834v1.25649h-6.45695v5.20046h5.37498v1.27394h-5.37498v5.20046h6.45695v1.29139h-7.74834zM115.9474,126.45189h-1.08198v-4.31045h-1.09943v-4.50242h1.29139v4.31045h1.06452v4.31045h1.08198v3.24593h0.89001v-3.24593h1.08198v-4.31045h1.08198v-4.31045h1.25649v4.50242h-1.08198v4.31045h-1.06452v3.22848h-1.08198v2.1814h-1.27394v-2.1814h-1.06452zM123.59103,129.68037h-1.09943v-9.89484h1.09943v-1.08198h1.08198v-1.06452h3.42044v1.06452h1.06452v1.08198h1.08198v9.89484h-1.08198v1.08198h-1.06452v1.09943h-3.42044v-1.09943h-1.08198zM124.84752,129.50586v1.06452h3.05396v-1.06452h1.08198v-9.52837h-1.08198v-1.08198h-3.05396v1.08198h-1.06452v9.52837zM131.21722,129.50586h1.09943v-2.16395h1.08198v-2.16395h1.06452v-0.89001h-1.06452v-2.1465h-1.08198v-2.16395h-1.09943v-2.33846h1.29139v2.1465h1.06452v2.16395h1.08198v2.1465h0.89001v-2.1465h1.08198v-2.16395h1.08198v-2.1465h1.25649v2.33846h-1.08198v2.16395h-1.06452v2.1465h-1.08198v0.89001h1.08198v2.16395h1.06452v2.16395h1.08198v2.35591h-1.25649v-2.1814h-1.08198v-2.1465h-1.08198v-2.16395h-0.89001v2.16395h-1.08198v2.1465h-1.06452v2.1814h-1.29139zM63.00039,145.59007h1.06452v-2.16395h1.08198v-1.06452h1.08198v-1.08198h1.25649v1.25649h-1.06452v1.08198h-1.08198v2.16395h-1.08198v7.36442h1.08198v2.1465h1.08198v1.08198h1.06452v1.29139h-1.25649v-1.08198h-1.08198v-1.09943h-1.08198v-2.16395h-1.06452zM70.13794,143.42611h1.29139v4.3279h0.89001v-1.08198h3.42044v1.08198h1.06452v1.06452h1.08198v7.76579h-1.25649v-7.57383h-1.08198v-1.08198h-3.05396v1.08198h-1.06452v7.57383h-1.29139zM81.58594,147.92853h-2.1814v-1.25649h2.1814v-3.24593h1.25649v3.24593h3.22848v1.25649h-3.22848v7.36442h3.22848v1.29139h-3.42044v-1.09943h-1.06452zM90.31155,147.92853h-2.1814v-1.25649h2.1814v-3.24593h1.25649v3.24593h3.22848v1.25649h-3.22848v7.36442h3.22848v1.29139h-3.42044v-1.09943h-1.06452zM96.31477,146.67204h1.29139v1.08198h0.89001v-1.08198h3.42044v1.08198h1.06452v1.06452h1.08198v4.50242h-1.08198v1.08198h-1.06452v1.08198h-3.42044v-1.08198h-0.89001v3.26338h-1.29139zM101.72465,154.22842v-1.08198h1.08198v-4.13594h-1.08198v-1.08198h-3.05396v1.08198h-1.06452v4.13594h1.06452v1.08198zM105.04038,153.14644h1.29139v2.1465h5.20046v-3.03651h-5.39243v-1.08198h-1.09943v-3.42044h1.09943v-1.08198h5.56694v1.08198h1.08198v2.33846h-1.25649v-2.16395h-5.20046v3.05396h5.37498v1.08198h1.08198v3.42044h-1.08198v1.09943h-5.56694v-1.09943h-1.09943zM116.45348,146.67204h2.35591v2.33846h-2.35591zM116.45348,153.14644h2.35591v2.33846h-2.35591zM122.49161,154.22842h1.08198v-2.16395h1.06452v-2.16395h1.08198v-2.1465h1.08198v-2.16395h1.08198v-2.16395h1.06452v-2.1465h1.27394v2.33846h-1.08198v2.16395h-1.08198v2.1465h-1.06452v2.16395h-1.08198v2.16395h-1.08198v2.1465h-1.08198v2.1814h-1.25649zM131.21722,154.22842h1.08198v-2.16395h1.06452v-2.16395h1.08198v-2.1465h1.08198v-2.16395h1.08198v-2.16395h1.06452v-2.1465h1.27394v2.33846h-1.08198v2.16395h-1.08198v2.1465h-1.06452v2.16395h-1.08198v2.16395h-1.08198v2.1465h-1.08198v2.1814h-1.25649zM142.12423,152.25643h-1.08198v-2.16395h-1.09943v-3.42044h1.29139v3.22848h1.06452v2.16395h1.08198v2.16395h0.89001v-2.16395h1.08198v-2.16395h1.08198v-3.22848h1.25649v3.42044h-1.08198v2.16395h-1.06452v2.1465h-1.08198v2.1814h-1.27394v-2.1814h-1.06452zM149.76786,154.40293h-1.09943v-5.58439h1.09943v-1.06452h1.08198v-1.08198h3.42044v1.08198h1.06452v1.06452h1.08198v5.58439h-1.08198v1.08198h-1.06452v1.09943h-3.42044v-1.09943h-1.08198zM151.02435,154.22842v1.06452h3.05396v-1.06452h1.08198v-5.21792h-1.08198v-1.08198h-3.05396v1.08198h-1.06452v5.21792zM160.62252,143.42611h1.27394v2.35591h-1.27394zM160.62252,146.67204h1.27394v9.91229h-1.27394zM167.21909,154.40293h-1.09943v-5.58439h1.09943v-1.06452h1.08198v-1.08198h3.42044v1.08198h1.06452v1.06452h1.08198v1.27394h-1.25649v-1.08198h-1.08198v-1.08198h-3.05396v1.08198h-1.06452v5.21792h1.06452v1.06452h3.05396v-1.06452h1.08198v-1.08198h1.25649v1.25649h-1.08198v1.08198h-1.06452v1.09943h-3.42044v-1.09943h-1.08198zM175.9447,154.40293h-1.09943v-5.58439h1.09943v-1.06452h1.08198v-1.08198h3.42044v1.08198h1.06452v1.06452h1.08198v3.43789h-6.45695v1.97199h1.06452v1.06452h3.05396v-1.06452h1.08198v-1.08198h1.25649v1.25649h-1.08198v1.08198h-1.06452v1.09943h-3.42044v-1.09943h-1.08198zM181.33713,150.98249v-1.97199h-1.08198v-1.08198h-3.05396v1.08198h-1.06452v1.97199zM185.75228,152.25643h-1.08198v-2.16395h-1.09943v-3.42044h1.29139v3.22848h1.06452v2.16395h1.08198v2.16395h0.89001v-2.16395h1.08198v-2.16395h1.08198v-3.22848h1.25649v3.42044h-1.08198v2.16395h-1.06452v2.1465h-1.08198v2.1814h-1.27394v-2.1814h-1.06452zM193.39592,154.40293h-1.09943v-5.58439h1.09943v-1.06452h1.08198v-1.08198h3.42044v1.08198h1.06452v1.06452h1.08198v5.58439h-1.08198v1.08198h-1.06452v1.09943h-3.42044v-1.09943h-1.08198zM194.65241,154.22842v1.06452h3.05396v-1.06452h1.08198v-5.21792h-1.08198v-1.08198h-3.05396v1.08198h-1.06452v5.21792zM201.0221,155.29295h1.09943v-2.1465h1.08198v-1.08198h1.06452v-0.89001h-1.06452v-1.08198h-1.08198v-2.16395h-1.09943v-1.25649h1.29139v1.08198h1.06452v2.1465h1.08198v1.08198h0.89001v-1.08198h1.08198v-2.1465h1.08198v-1.08198h1.25649v1.25649h-1.08198v2.16395h-1.06452v1.08198h-1.08198v0.89001h1.08198v1.08198h1.06452v2.1465h1.08198v1.29139h-1.25649v-1.09943h-1.08198v-2.16395h-1.08198v-1.06452h-0.89001v1.06452h-1.08198v2.16395h-1.06452v1.09943h-1.29139zM210.35851,153.14644h2.33846v2.33846h-2.33846zM218.47333,143.42611h1.29139v4.3279h0.89001v-1.08198h3.42044v1.08198h1.06452v1.06452h1.08198v7.76579h-1.25649v-7.57383h-1.08198v-1.08198h-3.05396v1.08198h-1.06452v7.57383h-1.29139zM230.42741,143.42611h1.27394v2.35591h-1.27394zM230.42741,146.67204h1.27394v9.91229h-1.27394zM237.00652,146.67204h1.25649v1.08198h0.89001v-1.08198h3.42044v1.25649h-3.22848v1.08198h-1.08198v7.57383h-1.25649zM245.74959,154.40293h-1.09943v-5.58439h1.09943v-1.06452h1.08198v-1.08198h3.42044v1.08198h1.06452v1.06452h1.08198v5.58439h-1.08198v1.08198h-1.06452v1.09943h-3.42044v-1.09943h-1.08198zM247.00607,154.22842v1.06452h3.05396v-1.06452h1.08198v-5.21792h-1.08198v-1.08198h-3.05396v1.08198h-1.06452v5.21792zM253.37577,153.14644h1.29139v2.1465h5.20046v-3.03651h-5.39243v-1.08198h-1.09943v-3.42044h1.09943v-1.08198h5.56694v1.08198h1.08198v2.33846h-1.25649v-2.16395h-5.20046v3.05396h5.37498v1.08198h1.08198v3.42044h-1.08198v1.09943h-5.56694v-1.09943h-1.09943zM262.10138,143.42611h1.29139v4.3279h0.89001v-1.08198h3.42044v1.08198h1.06452v1.06452h1.08198v7.76579h-1.25649v-7.57383h-1.08198v-1.08198h-3.05396v1.08198h-1.06452v7.57383h-1.29139zM274.05547,143.42611h1.27394v2.35591h-1.27394zM274.05547,146.67204h1.27394v9.91229h-1.27394zM279.5526,143.42611h1.29139v4.3279h0.89001v-1.08198h3.42044v1.08198h1.06452v1.06452h1.08198v5.58439h-1.08198v1.08198h-1.06452v1.09943h-3.42044v-1.09943h-0.89001v1.09943h-1.29139zM281.90852,154.22842v1.06452h3.05396v-1.06452h1.08198v-5.21792h-1.08198v-1.08198h-3.05396v1.08198h-1.06452v5.21792zM288.27821,152.06447h1.09943v-1.08198h4.31045v-3.05396h-4.11849v2.16395h-1.29139v-2.33846h1.09943v-1.08198h4.50242v1.08198h1.06452v7.53893h1.08198v1.29139h-1.25649v-1.09943h-1.97199v1.09943h-3.42044v-1.09943h-1.09943zM292.60612,155.29295v-1.06452h1.08198v-1.97199h-4.11849v3.03651zM297.61462,153.14644h2.33846v2.33846h-2.33846zM310.03989,143.42611h1.27394v2.35591h-1.27394zM310.03989,156.37492v-9.70288h1.27394v9.91229h-1.08198v1.08198h-2.33846v-1.29139zM314.45505,146.67204h1.29139v1.08198h0.89001v-1.08198h3.42044v1.08198h1.06452v1.06452h1.08198v4.50242h-1.08198v1.08198h-1.06452v1.08198h-3.42044v-1.08198h-0.89001v3.26338h-1.29139zM319.86492,154.22842v-1.08198h1.08198v-4.13594h-1.08198v-1.08198h-3.05396v1.08198h-1.06452v4.13594h1.06452v1.08198zM323.18066,154.22842h1.08198v-2.16395h1.06452v-2.16395h1.08198v-2.1465h1.08198v-2.16395h1.08198v-2.16395h1.06452v-2.1465h1.27394v2.33846h-1.08198v2.16395h-1.08198v2.1465h-1.06452v2.16395h-1.08198v2.16395h-1.08198v2.1465h-1.08198v2.1814h-1.25649zM334.66356,156.37492v-1.08198h1.06452v-2.1465h1.08198v-7.36442h-1.08198v-2.16395h-1.06452v-1.08198h-1.08198v-1.25649h1.25649v1.08198h1.08198v1.06452h1.08198v2.16395h1.08198v7.73089h-1.08198v2.16395h-1.08198v1.09943h-1.08198v1.08198h-1.25649v-1.29139z" fill="#000000" stroke="none" stroke-width="1" stroke-linejoin="miter"/></g></g></svg>