<svg version="1.1" xmlns="http://www.w3.org/2000/svg" xmlns:xlink="http://www.w3.org/1999/xlink" width="98.76" height="18.8" viewBox="0,0,98.76,18.8"><g transform="translate(-193.31231,-170.5)"><g data-paper-data="{&quot;isPaintingLayer&quot;:true}" fill="#000000" fill-rule="nonzero" stroke="none" stroke-width="1" stroke-linecap="butt" stroke-linejoin="miter" stroke-miterlimit="10" stroke-dasharray="" stroke-dashoffset="0" style="mix-blend-mode: normal"><path d="M197.03231,174.2h4.94v-2.26h-8.66v-1.44h18.76v1.44h-8.64v2.26h4.94v10.1h-11.34zM193.31231,175.44h1.48v11.12h15.82v-11.12h1.46v13.84h-1.46v-1.24h-15.82v1.24h-1.48zM201.97231,177.92v-2.26h-3.48v2.26zM206.91231,177.92v-2.26h-3.48v2.26zM201.97231,182.86v-3.5h-3.48v3.5zM206.91231,182.86v-3.5h-3.48v3.5zM214.57231,175.44h6.18v-1.24h1.22v-1.02h-8.66v-1.44h18.76v1.44h-8.64v1.24h-1.24v1.02h8.64v13.84h-1.44v-1.24h-13.38v1.24h-1.44zM219.51231,186.56v-9.66h-3.5v9.66zM229.39231,186.56v-9.66h-3.5v9.66zM224.45231,179.14v-2.24h-3.5v2.24zM224.45231,182.86v-2.26h-3.5v2.26zM224.45231,186.56v-2.26h-3.5v2.26zM235.19231,185.56h-1.26v-6.4h1.26v-2.46h1.24v-1.24h1.22v-1.24h2.48v-1.24h6.38v1.24h2.48v1.24h1.24v2.48h1.22v6.38h-1.22v2.48h-1.24v1.26h-2.48v1.24h-3.92v-1.48h3.72v-1.24h2.46v-2.46h1.24v-5.98h-1.24v-2.46h-2.46v-1.24h-2.26v3.7h-1.24v3.72h-1.24v2.46h-1.22v2.48h-1.24v1.26h-2.68v-1.26h-1.24zM236.63231,185.36v1.22h2.26v-2.46h1.24v-2.48h1.24v-3.7h1.22v-3.5h-2.24v1.24h-2.48v1.24h-1.24v2.46h-1.22v5.98zM257.03231,187.8v-5.96h-1.02v1.24h-2.7v-1.46h2.5v-1.24h1.22v-3.48h-3.72v-1.46h3.72v-4.94h1.46v4.94h1.24v1.46h-1.24v3.48h5.96v-1.02h-3.7v-1.44h6.16v-1.24h1.24v-2.48h1.24v-1.24h1.44v1.46h-1.22v2.48h-1.24v1.02h2.46v1.44h-4.94v1.02h6.18v1.46h-6.18v4.72h3.5v-3.7h1.44v6.42h-1.44v-1.24h-7.2v1.24h-1.44v-6.42h1.44v3.7h2.26v-4.72h-5.96v6.2h-1.24v1.24h-2.68v-1.48zM260.75231,171.74h4.94v-1.24h5.14v1.44h-4.94v1.24h-5.14zM261.97231,175.66h-1.22v-1.46h1.44v1.24h1.24v1.46h-1.46zM264.45231,174.2h1.44v2.7h-1.44zM273.31231,185.36h1.26v-2.48h1.24v-2.48h1.22v-3.48h-3.72v-1.46h3.72v-4.94h1.46v8.64h1.02v-1.22h1.24v-1.24h1.22v-1.24h1.24v-1.24h3.92v1.24h1.24v6.4h-1.24v4.72h3.48v-1.22h1.46v1.44h-1.24v1.26h-3.92v-1.26h-1.22v-5.16h1.22v-5.96h-3.48v1.24h-1.24v1.22h-1.24v1.24h-1.22v1.24h-1.24v8.68h-1.46v-6.2h-1.02v2.46h-1.22v2.5h-1.48z"/></g></g></svg>