<svg version="1.1" xmlns="http://www.w3.org/2000/svg" xmlns:xlink="http://www.w3.org/1999/xlink" width="169.51361" height="28.268" viewBox="0,0,169.51361,28.268"><g transform="translate(-157.872,-157.312)"><g data-paper-data="{&quot;isPaintingLayer&quot;:true}" fill="#ffffff" fill-rule="nonzero" stroke="none" stroke-linecap="butt" stroke-linejoin="miter" stroke-miterlimit="10" stroke-dasharray="" stroke-dashoffset="0" style="mix-blend-mode: normal"><path d="M299.136,158.176h-0.744v-0.864h0.876v0.744h0.732v0.732h0.744v0.876h-0.876v-0.744h-0.732zM158.628,178.14h-0.756v-0.876h0.756v-1.488h0.744v-1.476h0.864v0.744h2.22v1.608h-0.732v0.612h0.732v5.316h-3.828zM163.068,178.008h2.232v-0.612h-2.232v-0.876h2.232v-0.612h-2.232v-0.864h2.232v-0.744h0.864v0.744h2.22v0.864h-2.22v0.612h2.22v0.876h-2.22v0.612h2.964v0.864h-6.06zM160.848,177.264v-0.744h0.744v-0.612h-2.1v1.356zM161.592,179.484v-1.344h-0.612v1.344zM160.104,179.484v-1.344h-0.612v1.344zM157.872,183.936h0.756v-0.732h0.864v0.732h0.612v-0.732h0.876v0.732h0.612v-0.732h0.864v0.732h0.612v-4.452h5.316v5.34h-0.732v0.744h-2.352v-0.888h2.22v-2.1h-3.576v2.988h-1.608v-1.5h-0.612v1.5h-0.876v-1.5h-0.612v1.5h-0.864v-1.5h-0.612v1.5h-0.888zM167.52,181.716v-1.356h-1.356v1.356zM165.3,181.716v-1.356h-1.356v1.356zM160.104,181.716v-1.356h-0.612v1.356zM161.592,181.716v-1.356h-0.612v1.356zM171,183.336h-0.756v-3.84h0.756v-1.476h0.744v-0.744h0.732v-0.744h1.488v-0.744h3.828v0.744h1.488v0.744h0.744v1.488h0.732v3.828h-0.732v1.488h-0.744v0.756h-1.488v0.744h-2.352v-0.888h2.232v-0.744h1.476v-1.476h0.744v-3.588h-0.744v-1.476h-1.476v-0.744h-1.356v2.22h-0.744v2.232h-0.744v1.476h-0.732v1.488h-0.744v0.756h-1.608v-0.756h-0.744zM171.864,183.216v0.732h1.356v-1.476h0.744v-1.488h0.744v-2.22h0.732v-2.1h-1.344v0.744h-1.488v0.744h-0.744v1.476h-0.732v3.588zM184.104,178.14h-0.744v-3.84h0.876v1.476h2.832v-0.732h2.22v-0.744h1.62v0.864h-1.488v0.744h-2.22v0.744h-2.964v1.356h6.54v-1.488h0.864v1.62h-0.732v0.732h-6.804zM184.104,179.484h6.804v6.084h-0.876v-0.744h-5.052v0.744h-0.876zM190.032,181.716v-1.356h-5.052v1.356zM190.032,183.936v-1.356h-5.052v1.356zM196.848,183.936h0.744v-0.732h0.744v-0.744h0.732v-1.488h0.744v-0.612h-2.22v-0.876h2.964v-2.088h-2.22v-0.876h2.22v-2.22h0.864v2.22h2.964v0.876h-2.964v2.088h3.708v0.876h-2.964v0.612h0.744v1.488h0.744v0.744h0.732v0.732h0.744v0.888h-0.876v-0.756h-0.732v-0.744h-0.744v-0.744h-0.744v-1.476h-0.612v4.464h-0.864v-4.464h-0.612v1.476h-0.744v0.744h-0.744v0.744h-0.732v0.756h-0.876zM193.872,175.776h3.108v6.804h-2.22v1.488h-0.888zM196.104,181.716v-5.064h-1.344v5.064zM206.244,183.216h0.744v-1.488h0.732v-2.232h0.744v-1.344h-2.22v-0.876h2.964v-2.964h0.864v2.964h2.232v0.744h0.732v4.572h-0.732v1.488h-0.744v0.756h-3.096v-0.888h2.964v-1.476h0.744v-4.32h-2.832v1.476h-0.744v2.232h-0.744v1.476h-0.744v1.5h-0.864zM214.392,175.92h-0.744v-0.864h0.744v-0.744h0.876v0.744h0.732v0.732h0.744v0.876h-0.744v0.744h-0.864v-0.744h-0.744zM215.136,175.788v-0.612h-0.612v0.612zM215.868,176.532v-0.612h-0.6v0.612zM212.916,176.532h0.864v0.744h0.744v0.744h0.744v0.744h0.732v1.476h0.744v0.876h-0.876v-0.744h-0.732v-1.488h-0.744v-0.732h-0.744v-0.744h-0.732zM217.872,183.936h2.976v-0.732h2.22v-0.744h1.488v-0.744h1.476v-0.612h-2.088v0.744h-2.964v0.732h-1.608v-0.864h0.732v-5.94h2.232v-0.732h0.732v-0.744h0.876v0.864h-0.744v0.612h3.708v5.196h0.612v-0.744h1.608v0.876h-1.476v0.744h-0.744v2.976h-0.744v0.744h-2.352v-0.888h2.22v-2.1h-1.344v0.744h-1.488v0.744h-2.22v0.756h-3.108zM226.032,177.264v-0.612h-5.052v0.612zM226.032,178.752v-0.612h-5.052v0.612zM223.812,180.972v-0.744h2.22v-0.612h-5.052v1.356zM232.104,179.616h-0.612v0.744h-0.732v0.744h-0.888v-0.876h0.756v-0.744h0.744v-1.476h0.732v-1.488h0.744v-2.22h0.876v2.352h-0.744v6.552h0.612v-0.744h0.744v-1.488h0.732v-1.488h0.744v-1.344h-2.22v-0.876h2.964v-2.964h0.864v2.964h3.708v0.876h-2.964v0.612h0.744v1.476h0.744v1.488h0.732v1.488h0.744v0.864h-0.876v-0.744h-2.832v2.244h-0.864v-2.244h-2.832v0.744h-0.744v1.5h-0.876zM239.52,182.46v-0.612h-0.744v-1.488h-0.744v-1.488h-0.612v3.588zM236.556,182.46v-2.844h-0.612v1.488h-0.744v1.356zM242.988,177.276h0.744v-2.22h0.864v2.352h-0.744v7.428h-0.864zM245.952,176.532h6.06v0.876h-6.06zM245.952,181.728h0.864v1.488h0.744v0.732h4.452v0.888h-4.584v-0.756h-0.732v-0.744h-0.744zM254.988,175.056h0.864v8.16h0.744v0.732h3.576v-0.732h1.476v-0.744h0.744v-0.744h0.744v-0.744h0.864v0.876h-0.732v0.732h-0.744v0.744h-0.744v0.744h-1.476v0.756h-3.84v-0.756h-0.744v-0.744h-0.732zM265.872,181.728h0.756v-0.744h0.744v-0.744h1.476v-0.744h1.488v-0.732h0.732v-1.488h0.744v-0.612h-3.708v-0.876h4.584v1.62h-0.744v1.476h-0.744v0.612h2.22v0.744h1.356v-2.22h0.876v2.964h0.732v0.744h0.744v0.864h-0.876v-0.732h-1.344v1.476h-0.744v0.744h-0.744v0.756h-0.732v0.744h-1.62v-0.888h1.488v-0.744h0.744v-0.732h0.732v-1.488h0.744v-0.612h-1.476v-0.744h-2.844v1.488h-0.732v1.476h-0.744v0.744h-0.744v0.756h-1.608v-0.756h-0.756zM268.104,183.948v-0.732h0.744v-1.488h0.744v-1.356h-0.612v0.744h-1.488v0.744h-0.732v2.088zM278.244,182.472h0.756v-1.488h0.744v-1.488h0.732v-2.088h-2.232v-0.876h2.232v-2.22h0.876v3.708h0.612v-0.744h1.476v-0.744h3.096v0.744h1.488v1.488h0.732v3.828h-0.732v0.744h-0.744v0.744h-0.744v0.756h-1.476v0.744h-2.352v-0.888h2.22v-0.744h1.476v-0.732h0.744v-0.744h0.744v-3.588h-0.744v-0.732h-0.744v-0.744h-2.832v0.744h-1.476v0.732h-0.744v6.696h-0.876v-4.464h-0.612v1.476h-0.732v2.244h-0.888zM290.616,183.216h0.744v-2.232h0.732v-2.964h0.744v-0.612h-2.22v-0.876h2.22v-2.22h0.876v2.22h3.696v0.876h-3.696v0.744h-0.744v2.964h-0.744v2.22h-0.744v1.5h-0.864zM295.056,178.764h5.316v0.864h-5.316zM294.324,182.472h0.732v-0.744h0.876v0.864h-0.744v1.356h5.184v0.888h-5.316v-0.756h-0.732zM303.732,182.472h0.732v-0.744h2.352v0.744h0.744v1.476h2.1v-0.732h0.732v-0.744h0.744v-1.356h-0.744v-0.744h-5.052v0.744h-1.488v0.744h-0.864v-0.876h0.744v-0.744h1.476v-0.744h0.744v-0.732h0.744v-0.744h1.476v-0.744h0.744v-0.612h-5.184v-0.876h6.792v0.876h-0.744v0.744h-0.732v0.744h-0.744v0.732h-1.488v0.612h3.708v0.744h0.744v0.744h0.744v1.608h-0.744v1.488h-1.488v0.756h-5.316v-0.756h-0.732zM306.696,183.948v-1.356h-2.1v1.356zM314.256,182.472h1.608v1.608h-1.608zM320.256,182.39537h1.608v1.608h-1.608z" stroke-width="1"/><path d="M325.85286,183.95423v-1.52832h1.53275v1.52832z" stroke-width="0"/></g></g></svg>