<svg version="1.1" xmlns="http://www.w3.org/2000/svg" xmlns:xlink="http://www.w3.org/1999/xlink" width="414.55324" height="312.80333" viewBox="0,0,414.55324,312.80333"><g transform="translate(-32.72339,-23.59833)"><g data-paper-data="{&quot;isPaintingLayer&quot;:true}" fill-rule="nonzero" stroke-linecap="butt" stroke-miterlimit="10" stroke-dasharray="" stroke-dashoffset="0" style="mix-blend-mode: normal"><path d="M40.12379,334.90166c-3.2587,0 -4.85042,-2.45802 -4.85042,-2.45802c0,0 -1.04998,-0.36577 -1.04998,-5.47073c0,-45.72892 0,-274.50125 0,-296.28287c0,-3.28274 1.6273,-4.36722 1.6273,-4.36722c0,0 1.0144,-1.22449 4.2731,-1.22449h399.75244c3.25869,0 4.53235,1.37255 4.53235,1.37255c0,0 1.36805,0.83913 1.36805,4.00184c0,21.64787 0,256.01277 0,298.2248c0,4.2029 -1.49372,4.70551 -1.49372,4.70551c0,0 -1.14798,1.49863 -4.40667,1.49863z" fill="#fff4e4" stroke="#000000" stroke-width="3" stroke-linejoin="round"/><path d="M173.6347,45.7977h2.34709v-1.164h2.36617v-1.18308h2.34709v-1.18308h2.36617v-1.18308h2.34709v-1.18308h2.57607v1.39299h-2.36617v1.18308h-2.34709v1.18308h-2.36617v1.164h-2.34709v1.18308h-2.36617v2.15627h2.36617v1.18308h2.34709v1.18308h2.36617v1.18308h2.34709v1.164h2.36617v1.41207h-2.57607v-1.20217h-2.34709v-1.18308h-2.36617v-1.18308h-2.34709v-1.164h-2.36617v-1.18308h-2.34709zM196.24689,54.06022v-1.18308h2.36617v-1.164h2.34709v-1.18308h1.18308v-1.18308h1.18308v-2.36617h1.164v-2.34709h1.18308v-2.15627h-8.03353v2.34709h-1.18308v1.18308h-1.18308v1.18308h-1.18308v1.18308h-1.3739v-1.39299h1.18308v-1.18308h1.164v-1.164h1.18308v-2.36617h1.18308v-2.36617h1.18308v-2.34709h1.3739v2.55699h-1.18308v0.97318h8.26251v3.74007h-1.18308v2.36617h-1.18308v2.36617h-1.18308v1.164h-1.164v1.18308h-1.18308v1.18308h-2.36617v1.20217h-2.34709v1.18308h-3.74007v-1.41207zM211.79873,38.73735h1.3739v14.13977h2.15627v-1.164h2.34709v-1.18308h2.36617v-1.18308h1.18308v-1.18308h1.164v-1.18308h1.18308v-1.18308h1.18308v-1.164h1.3739v1.3739h-1.164v1.18308h-1.18308v1.18308h-1.18308v1.18308h-1.18308v1.164h-1.164v1.18308h-2.36617v1.18308h-2.34709v1.20217h-3.74007zM242.65435,40.11122h-1.18308v-1.18308h-1.164v-1.3739h1.3739v1.18308h0.97318v-1.18308h1.39299v1.18308h1.164v1.164h1.18308v1.39299h-1.39299v-1.18308h-0.9541v1.18308h-1.39299zM234.41093,40.11122h-2.36617v-1.3739h2.57607v1.164h2.34709v1.18308h1.18308v1.39299h-1.39299v-1.18308h-2.34709zM243.83744,39.90135v-0.97318h-0.97318v0.97318zM230.88075,52.87712h3.53017v-1.164h3.53017v-1.18308h2.36617v-1.18308h1.164v-1.18308h1.18308v-2.36617h1.18308v-3.53017h1.3739v3.74007h-1.164v2.36617h-1.18308v1.18308h-1.18308v1.164h-1.18308v1.18308h-2.34709v1.18308h-3.53017v1.20217h-3.74007zM232.04476,43.66051h-2.34709v-1.39299h2.55699v1.18308h2.36617v1.18308h1.164v1.3739h-1.3739v-1.18308h-2.36617zM256.45063,43.66051h-1.18308v-1.18308h-1.18308v-1.39299h1.39299v1.18308h1.164v1.18308h1.18308v2.55699h-1.3739zM252.90139,52.87712h3.54925v-1.164h2.34709v-1.18308h1.18308v-1.18308h1.18308v-2.36617h1.164v-4.71325h1.39299v4.92316h-1.18308v2.36617h-1.18308v1.164h-1.164v1.18308h-1.18308v1.18308h-2.36617v1.20217h-3.74007zM252.90139,44.82452h-1.164v-1.164h-1.18308v-1.39299h1.3739v1.18308h1.18308v1.18308h1.18308v2.55699h-1.39299zM270.20878,37.55427h1.39299v5.89634h2.34709v1.18308h3.54925v1.164h2.34709v1.18308h2.36617v1.39299h-2.57607v-1.18308h-2.34709v-1.18308h-3.53017v-1.18308h-2.15627v10.64776h-1.39299zM288.1268,52.87712h2.34709v-1.164h2.36617v-1.18308h2.34709v-1.18308h2.36617v-1.18308h2.34709v-2.15627h-2.34709v-1.18308h-2.36617v-1.164h-2.34709v-1.18308h-2.36617v-1.18308h-2.34709v-1.39299h2.55699v1.18308h2.36617v1.18308h2.34709v1.18308h2.36617v1.18308h2.34709v1.164h2.36617v2.57607h-2.36617v1.18308h-2.34709v1.164h-2.36617v1.18308h-2.34709v1.18308h-2.36617v1.20217h-2.55699z" fill="#000000" stroke="none" stroke-width="1" stroke-linejoin="miter"/><path d="M54.99451,89.60464v-1.04186h2.06692v-1.02506h1.04186v-1.89888h-1.04186v-2.26857h1.22671v2.08373h1.89888v-2.08373h1.20991v2.26857h-1.04186v0.85702h1.04186v1.04186h1.04186v2.06692h0.85702v-1.04186h1.04186v-3.10879h1.02506v-3.98261h-2.06692v-1.20991h2.06692v-5.19252h1.22671v5.19252h3.10879v9.54482h-1.04186v1.04186h-2.25177v-1.24351h2.06692v-8.13326h-1.88208v4.16746h-1.04186v3.10879h-1.04186v1.05867h-1.02506v1.04186h-1.22671v-1.04186h-1.04186v-2.10053h-1.02506v-1.04186h-0.85702v1.04186h-1.04186v1.04186h-1.04186v1.05867h-2.06692v1.04186h-1.24351v-1.24351zM53.93584,78.17775h4.16746v-3.10879h1.22671v3.10879h4.15065v1.22671h-9.54482zM53.93584,83.37026h1.05867v-1.04186h1.04186v-2.06692h1.20991v2.25177h-1.04186v1.04186h-1.02506v1.04186h-1.24351zM61.21208,81.47137h-1.02506v-1.20991h1.20991v1.04186h1.04186v1.02506h1.04186v1.22671h-1.22671v-1.04186h-1.04186zM70.7401,88.56278h2.10053v-1.02506h2.06692v-1.04186h2.08373v-0.85702h-6.25118v-1.22671h7.27624v-1.89888h-5.17571v-7.44429h11.59494v7.44429h-5.19252v1.89888h7.25944v1.22671h-5.19252v0.85702h1.04186v1.04186h2.08373v1.02506h2.06692v1.24351h-2.25177v-1.05867h-2.08373v-1.04186h-1.02506v-1.04186h-1.04186v-1.02506h-0.85702v5.20932h-1.22671v-4.18426h-0.85702v1.04186h-2.06692v1.04186h-2.08373v1.05867h-2.26857zM78.01634,78.17775v-1.89888h-3.9658v1.89888zM83.20885,78.17775v-1.89888h-3.9658v1.89888zM83.20885,81.30334v-1.89888h-3.9658v1.89888zM78.01634,81.30334v-1.89888h-3.9658v1.89888zM87.54435,81.30334h5.20932v-0.85702h-1.04186v-2.08373h-3.10879v-1.22671h6.21757v-2.06692h1.22671v2.06692h6.21757v1.22671h-3.10879v2.08373h-1.04186v0.85702h5.19252v1.20991h-15.76239zM96.90432,81.30334v-1.04186h1.04186v-1.89888h-5.00767v1.89888h1.02506v1.04186zM90.66994,83.37026h9.52801v7.47789h-1.22671v-1.04186h-7.07459v1.04186h-1.22671zM98.97125,85.45399v-0.85702h-7.07459v0.85702zM98.97125,88.56278v-1.89888h-7.07459v1.89888zM59.64929,106.99144h1.04186v-1.02506h2.25177v1.02506h1.04186v2.26857h-1.04186v1.04186h-2.25177v-1.04186h-1.04186zM71.79876,114.25088v-1.04186h2.06692v-1.02506h1.04186v-1.89888h-1.04186v-2.26857h1.22671v2.08373h1.89888v-2.08373h1.20991v2.26857h-1.04186v0.85702h1.04186v1.04186h1.04186v2.06692h0.85702v-1.04186h1.04186v-3.10879h1.02506v-3.98261h-2.06692v-1.20991h2.06692v-5.19252h1.22671v5.19252h3.10879v9.54482h-1.04186v1.04186h-2.25177v-1.24351h2.06692v-8.13326h-1.88208v4.16746h-1.04186v3.10879h-1.04186v1.05867h-1.02506v1.04186h-1.22671v-1.04186h-1.04186v-2.10053h-1.02506v-1.04186h-0.85702v1.04186h-1.04186v1.04186h-1.04186v1.05867h-2.06692v1.04186h-1.24351v-1.24351zM70.7401,102.82399h4.16746v-3.10879h1.22671v3.10879h4.15065v1.22671h-9.54482zM70.7401,108.0165h1.05867v-1.04186h1.04186v-2.06692h1.20991v2.25177h-1.04186v1.04186h-1.02506v1.04186h-1.24351zM78.01634,106.11762h-1.02506v-1.20991h1.20991v1.04186h1.04186v1.02506h1.04186v1.22671h-1.22671v-1.04186h-1.04186zM87.54435,113.20902h2.10053v-1.02506h2.06692v-1.04186h2.08373v-0.85702h-6.25118v-1.22671h7.27624v-1.89888h-5.17571v-7.44429h11.59494v7.44429h-5.19252v1.89888h7.25944v1.22671h-5.19252v0.85702h1.04186v1.04186h2.08373v1.02506h2.06692v1.24351h-2.25177v-1.05867h-2.08373v-1.04186h-1.02506v-1.04186h-1.04186v-1.02506h-0.85702v5.20932h-1.22671v-4.18426h-0.85702v1.04186h-2.06692v1.04186h-2.08373v1.05867h-2.26857zM94.8206,102.82399v-1.89888h-3.9658v1.89888zM100.01311,102.82399v-1.89888h-3.9658v1.89888zM100.01311,105.94958v-1.89888h-3.9658v1.89888zM94.8206,105.94958v-1.89888h-3.9658v1.89888zM104.34861,105.94958h5.20932v-0.85702h-1.04186v-2.08373h-3.10879v-1.22671h6.21757v-2.06692h1.22671v2.06692h6.21757v1.22671h-3.10879v2.08373h-1.04186v0.85702h5.19252v1.20991h-15.76239zM113.70858,105.94958v-1.04186h1.04186v-1.89888h-5.00767v1.89888h1.02506v1.04186zM107.4742,108.0165h9.52801v7.47789h-1.22671v-1.04186h-7.07459v1.04186h-1.22671zM115.7755,110.10023v-0.85702h-7.07459v0.85702zM115.7755,113.20902v-1.89888h-7.07459v1.89888zM123.75752,100.77387h10.55307v1.20991h-10.55307zM128.93323,114.26769v-1.04186h2.08373v-1.02506h1.04186v-1.04186h1.02506v-2.08373h1.04186v-2.94074h-11.41009v-1.20991h12.6368v4.3355h-1.04186v2.06692h-1.04186v1.04186h-1.04186v1.04186h-1.02506v1.05867h-2.08373v1.04186h-5.36056v-1.24351zM145.23336,114.26769v-9.15832h-6.21757v-1.22671h6.21757v-4.15065h1.22671v4.15065h6.21757v1.22671h-6.21757v9.35997h-1.04186v1.04186h-3.29363v-1.24351zM149.38401,100.94191h-1.02506v-1.20991h1.20991v1.04186h0.85702v-1.04186h1.22671v1.04186h1.02506v1.02506h1.04186v1.22671h-1.22671v-1.04186h-0.84021v1.04186h-1.22671v-1.04186h-1.04186zM151.46774,101.79893v-0.85702h-0.85702v0.85702zM137.95712,112.20076h1.05867v-1.04186h1.04186v-2.08373h1.02506v-2.08373h1.22671v2.26857h-1.04186v2.06692h-1.04186v1.04186h-1.02506v1.04186h-1.24351zM148.35895,106.99144h1.20991v1.04186h1.04186v1.04186h1.04186v2.08373h1.02506v2.25177h-1.20991v-2.08373h-1.04186v-2.06692h-1.04186v-1.04186h-1.02506zM169.41469,112.18396h2.06692v-1.04186h1.04186v-0.85702h-1.04186v-1.04186h-1.04186v-2.26857h3.12559v-1.88208h-2.08373v-1.22671h2.08373v-0.85702h-3.12559v-1.22671h2.08373v-0.85702h-1.04186v-1.20991h1.22671v1.04186h1.02506v1.02506h0.85702v-1.02506h1.04186v-1.04186h1.22671v1.20991h-1.04186v0.85702h3.10879v1.22671h-4.15065v0.85702h3.10879v1.22671h-3.10879v1.88208h4.15065v1.22671h-4.15065v0.85702h1.04186v2.08373h0.85702v-1.04186h1.02506v-1.04186h1.22671v1.22671h-1.04186v1.02506h-1.02506v0.87382h1.02506v1.02506h1.04186v1.24351h-1.22671v-1.05867h-1.02506v-1.04186h-1.04186v-1.04186h-0.85702v3.1424h-1.04186v1.04186h-2.25177v-1.24351h2.08373v-2.94074h-0.85702v1.04186h-1.04186v1.04186h-2.25177zM163.1635,110.10023h1.05867v-2.08373h1.04186v-2.06692h1.02506v-0.85702h-3.12559v-1.22671h3.12559v-4.15065h1.22671v4.15065h3.10879v1.22671h-3.10879v0.85702h1.04186v1.02506h1.02506v2.26857h-1.20991v-2.08373h-0.85702v8.33491h-1.22671v-7.29305h-0.85702v2.08373h-1.02506v1.02506h-1.24351zM172.70832,109.05837v1.04186h0.85702v-1.89888h-1.89888v0.85702zM58.62423,135.97318h-1.04186v-7.44429h1.04186v-3.10879h1.04186v-1.04186h1.20991v1.20991h-1.04186v3.12559h-1.02506v7.0914h1.02506v3.10879h1.04186v1.24351h-1.20991v-1.04186h-1.04186zM62.28756,126.44517h1.24351v4.16746h0.85702v-1.04186h3.29363v1.04186h1.02506v1.02506h1.04186v7.47789h-1.20991v-7.29305h-1.04186v-1.04186h-2.94074v1.04186h-1.02506v7.29305h-1.24351zM73.31115,130.78067h-2.10053v-1.20991h2.10053v-3.12559h1.20991v3.12559h3.10879v1.20991h-3.10879v7.0914h3.10879v1.24351h-3.29363v-1.05867h-1.02506zM81.71328,130.78067h-2.10053v-1.20991h2.10053v-3.12559h1.20991v3.12559h3.10879v1.20991h-3.10879v7.0914h3.10879v1.24351h-3.29363v-1.05867h-1.02506zM87.49394,129.57076h1.24351v1.04186h0.85702v-1.04186h3.29363v1.04186h1.02506v1.02506h1.04186v4.3355h-1.04186v1.04186h-1.02506v1.04186h-3.29363v-1.04186h-0.85702v3.1424h-1.24351zM92.70326,136.84701v-1.04186h1.04186v-3.98261h-1.04186v-1.04186h-2.94074v1.04186h-1.02506v3.98261h1.02506v1.04186zM95.89607,135.80514h1.24351v2.06692h5.00767v-2.92394h-5.19252v-1.04186h-1.05867v-3.29363h1.05867v-1.04186h5.36056v1.04186h1.04186v2.25177h-1.20991v-2.08373h-5.00767v2.94074h5.17571v1.04186h1.04186v3.29363h-1.04186v1.05867h-5.36056v-1.05867h-1.05867zM106.88605,129.57076h2.26857v2.25177h-2.26857zM106.88605,135.80514h2.26857v2.25177h-2.26857zM112.70032,136.84701h1.04186v-2.08373h1.02506v-2.08373h1.04186v-2.06692h1.04186v-2.08373h1.04186v-2.08373h1.02506v-2.06692h1.22671v2.25177h-1.04186v2.08373h-1.04186v2.06692h-1.02506v2.08373h-1.04186v2.08373h-1.04186v2.06692h-1.04186v2.10053h-1.20991zM121.10245,136.84701h1.04186v-2.08373h1.02506v-2.08373h1.04186v-2.06692h1.04186v-2.08373h1.04186v-2.08373h1.02506v-2.06692h1.22671v2.25177h-1.04186v2.08373h-1.04186v2.06692h-1.02506v2.08373h-1.04186v2.08373h-1.04186v2.06692h-1.04186v2.10053h-1.20991zM129.50458,135.80514h1.24351v2.06692h5.00767v-2.92394h-5.19252v-1.04186h-1.05867v-3.29363h1.05867v-1.04186h5.36056v1.04186h1.04186v2.25177h-1.20991v-2.08373h-5.00767v2.94074h5.17571v1.04186h1.04186v3.29363h-1.04186v1.05867h-5.36056v-1.05867h-1.05867zM138.96538,137.01504h-1.05867v-5.37736h1.05867v-1.02506h1.04186v-1.04186h3.29363v1.04186h1.02506v1.02506h1.04186v5.37736h-1.04186v1.04186h-1.02506v1.05867h-3.29363v-1.05867h-1.04186zM140.17528,136.84701v1.02506h2.94074v-1.02506h1.04186v-5.02447h-1.04186v-1.04186h-2.94074v1.04186h-1.02506v5.02447zM147.3675,137.01504h-1.05867v-7.44429h1.24351v7.27624h1.02506v1.02506h2.94074v-1.02506h1.04186v-7.27624h1.20991v9.54482h-1.20991v-1.05867h-0.85702v1.05867h-3.29363v-1.05867h-1.04186zM154.71096,129.57076h1.24351v1.04186h0.85702v-1.04186h3.29363v1.04186h1.02506v1.02506h1.04186v7.47789h-1.20991v-7.29305h-1.04186v-1.04186h-2.94074v1.04186h-1.02506v7.29305h-1.24351zM164.17176,137.01504h-1.05867v-5.37736h1.05867v-1.02506h1.04186v-1.04186h3.29363v1.04186h0.85702v-4.16746h1.20991v12.67041h-1.20991v-1.05867h-0.85702v1.05867h-3.29363v-1.05867h-1.04186zM165.38167,136.84701v1.02506h2.94074v-1.02506h1.04186v-5.02447h-1.04186v-1.04186h-2.94074v1.04186h-1.02506v5.02447zM172.57389,137.01504h-1.05867v-5.37736h1.05867v-1.02506h1.04186v-1.04186h3.29363v1.04186h1.02506v1.02506h1.04186v3.31044h-6.21757v1.89888h1.02506v1.02506h2.94074v-1.02506h1.04186v-1.04186h1.20991v1.20991h-1.04186v1.04186h-1.02506v1.05867h-3.29363v-1.05867h-1.04186zM177.7664,133.72141v-1.89888h-1.04186v-1.04186h-2.94074v1.04186h-1.02506v1.89888zM182.53881,130.78067h-2.10053v-1.20991h2.10053v-3.12559h1.02506v-1.02506h3.29363v1.20991h-3.10879v2.94074h3.10879v1.20991h-3.10879v8.33491h-1.20991zM190.94094,130.78067h-2.10053v-1.20991h2.10053v-3.12559h1.02506v-1.02506h3.29363v1.20991h-3.10879v2.94074h3.10879v1.20991h-3.10879v8.33491h-1.20991zM197.78027,137.01504h-1.05867v-5.37736h1.05867v-1.02506h1.04186v-1.04186h3.29363v1.04186h1.02506v1.02506h1.04186v3.31044h-6.21757v1.89888h1.02506v1.02506h2.94074v-1.02506h1.04186v-1.04186h1.20991v1.20991h-1.04186v1.04186h-1.02506v1.05867h-3.29363v-1.05867h-1.04186zM202.97279,133.72141v-1.89888h-1.04186v-1.04186h-2.94074v1.04186h-1.02506v1.89888zM206.1824,137.01504h-1.05867v-5.37736h1.05867v-1.02506h1.04186v-1.04186h3.29363v1.04186h1.02506v1.02506h1.04186v1.22671h-1.20991v-1.04186h-1.04186v-1.04186h-2.94074v1.04186h-1.02506v5.02447h1.02506v1.02506h2.94074v-1.02506h1.04186v-1.04186h1.20991v1.20991h-1.04186v1.04186h-1.02506v1.05867h-3.29363v-1.05867h-1.04186zM216.14732,130.78067h-2.10053v-1.20991h2.10053v-3.12559h1.20991v3.12559h3.10879v1.20991h-3.10879v7.0914h3.10879v1.24351h-3.29363v-1.05867h-1.02506zM222.44892,133.72141h6.40242v1.22671h-6.40242zM233.4389,126.44517h1.22671v12.67041h-1.22671zM238.73224,134.76328h1.05867v-1.04186h4.15065v-2.94074h-3.9658v2.08373h-1.24351v-2.25177h1.05867v-1.04186h4.3355v1.04186h1.02506v7.25944h1.04186v1.24351h-1.20991v-1.05867h-1.89888v1.05867h-3.29363v-1.05867h-1.05867zM242.8997,137.87207v-1.02506h1.04186v-1.89888h-3.9658v2.92394zM247.13437,126.44517h1.24351v4.16746h0.85702v-1.04186h3.29363v1.04186h1.02506v1.02506h1.04186v5.37736h-1.04186v1.04186h-1.02506v1.05867h-3.29363v-1.05867h-0.85702v1.05867h-1.24351zM249.40295,136.84701v1.02506h2.94074v-1.02506h1.04186v-5.02447h-1.04186v-1.04186h-2.94074v1.04186h-1.02506v5.02447zM256.12465,135.80514h2.25177v2.25177h-2.25177zM267.04742,126.44517h1.22671v2.26857h-1.22671zM267.04742,129.57076h1.22671v9.54482h-1.22671zM272.34076,129.57076h1.24351v1.04186h0.85702v-1.04186h3.29363v1.04186h1.02506v1.02506h1.04186v7.47789h-1.20991v-7.29305h-1.04186v-1.04186h-2.94074v1.04186h-1.02506v7.29305h-1.24351zM283.36435,130.78067h-2.10053v-1.20991h2.10053v-3.12559h1.02506v-1.02506h3.29363v1.20991h-3.10879v2.94074h3.10879v1.20991h-3.10879v8.33491h-1.20991zM290.20368,137.01504h-1.05867v-5.37736h1.05867v-1.02506h1.04186v-1.04186h3.29363v1.04186h1.02506v1.02506h1.04186v5.37736h-1.04186v1.04186h-1.02506v1.05867h-3.29363v-1.05867h-1.04186zM291.41359,136.84701v1.02506h2.94074v-1.02506h1.04186v-5.02447h-1.04186v-1.04186h-2.94074v1.04186h-1.02506v5.02447zM297.54714,136.84701h1.04186v-2.08373h1.02506v-2.08373h1.04186v-2.06692h1.04186v-2.08373h1.04186v-2.08373h1.02506v-2.06692h1.22671v2.25177h-1.04186v2.08373h-1.04186v2.06692h-1.02506v2.08373h-1.04186v2.08373h-1.04186v2.06692h-1.04186v2.10053h-1.20991zM305.94927,135.80514h1.24351v2.06692h5.00767v-2.92394h-5.19252v-1.04186h-1.05867v-3.29363h1.05867v-1.04186h5.36056v1.04186h1.04186v2.25177h-1.20991v-2.08373h-5.00767v2.94074h5.17571v1.04186h1.04186v3.29363h-1.04186v1.05867h-5.36056v-1.05867h-1.05867zM315.41006,137.01504h-1.05867v-5.37736h1.05867v-1.02506h1.04186v-1.04186h3.29363v1.04186h1.02506v1.02506h1.04186v5.37736h-1.04186v1.04186h-1.02506v1.05867h-3.29363v-1.05867h-1.04186zM316.61997,136.84701v1.02506h2.94074v-1.02506h1.04186v-5.02447h-1.04186v-1.04186h-2.94074v1.04186h-1.02506v5.02447zM323.81219,137.01504h-1.05867v-7.44429h1.24351v7.27624h1.02506v1.02506h2.94074v-1.02506h1.04186v-7.27624h1.20991v9.54482h-1.20991v-1.05867h-0.85702v1.05867h-3.29363v-1.05867h-1.04186zM331.15565,129.57076h1.24351v1.04186h0.85702v-1.04186h3.29363v1.04186h1.02506v1.02506h1.04186v7.47789h-1.20991v-7.29305h-1.04186v-1.04186h-2.94074v1.04186h-1.02506v7.29305h-1.24351zM340.61645,137.01504h-1.05867v-5.37736h1.05867v-1.02506h1.04186v-1.04186h3.29363v1.04186h0.85702v-4.16746h1.20991v12.67041h-1.20991v-1.05867h-0.85702v1.05867h-3.29363v-1.05867h-1.04186zM341.82635,136.84701v1.02506h2.94074v-1.02506h1.04186v-5.02447h-1.04186v-1.04186h-2.94074v1.04186h-1.02506v5.02447zM347.95991,136.84701h1.04186v-2.08373h1.02506v-2.08373h1.04186v-2.06692h1.04186v-2.08373h1.04186v-2.08373h1.02506v-2.06692h1.22671v2.25177h-1.04186v2.08373h-1.04186v2.06692h-1.02506v2.08373h-1.04186v2.08373h-1.04186v2.06692h-1.04186v2.10053h-1.20991zM356.36204,129.57076h1.24351v1.04186h0.85702v-1.04186h1.20991v1.04186h1.89888v-1.04186h1.20991v1.04186h1.04186v8.50295h-1.20991v-8.33491h-0.85702v1.04186h-1.04186v7.29305h-1.22671v-8.33491h-0.85702v1.04186h-1.02506v7.29305h-1.24351zM364.76416,134.76328h1.05867v-1.04186h4.15065v-2.94074h-3.9658v2.08373h-1.24351v-2.25177h1.05867v-1.04186h4.3355v1.04186h1.02506v7.25944h1.04186v1.24351h-1.20991v-1.05867h-1.89888v1.05867h-3.29363v-1.05867h-1.05867zM368.93162,137.87207v-1.02506h1.04186v-1.89888h-3.9658v2.92394zM374.22496,137.01504h-1.05867v-5.37736h1.05867v-1.02506h1.04186v-1.04186h3.29363v1.04186h1.02506v1.02506h1.04186v1.22671h-1.20991v-1.04186h-1.04186v-1.04186h-2.94074v1.04186h-1.02506v5.02447h1.02506v1.02506h2.94074v-1.02506h1.04186v-1.04186h1.20991v1.20991h-1.04186v1.04186h-1.02506v1.05867h-3.29363v-1.05867h-1.04186zM381.56842,126.44517h1.24351v4.16746h0.85702v-1.04186h3.29363v1.04186h1.02506v1.02506h1.04186v7.47789h-1.20991v-7.29305h-1.04186v-1.04186h-2.94074v1.04186h-1.02506v7.29305h-1.24351zM393.07934,126.44517h1.22671v2.26857h-1.22671zM393.07934,129.57076h1.22671v9.54482h-1.22671zM398.37268,129.57076h1.24351v1.04186h0.85702v-1.04186h3.29363v1.04186h1.02506v1.02506h1.04186v7.47789h-1.20991v-7.29305h-1.04186v-1.04186h-2.94074v1.04186h-1.02506v7.29305h-1.24351zM407.83347,137.01504h-1.05867v-5.37736h1.05867v-1.02506h1.04186v-1.04186h3.29363v1.04186h1.02506v1.02506h1.04186v3.31044h-6.21757v1.89888h1.02506v1.02506h2.94074v-1.02506h1.04186v-1.04186h1.20991v1.20991h-1.04186v1.04186h-1.02506v1.05867h-3.29363v-1.05867h-1.04186zM413.02599,133.72141v-1.89888h-1.04186v-1.04186h-2.94074v1.04186h-1.02506v1.89888zM415.17693,136.84701h1.04186v-2.08373h1.02506v-2.08373h1.04186v-2.06692h1.04186v-2.08373h1.04186v-2.08373h1.02506v-2.06692h1.22671v2.25177h-1.04186v2.08373h-1.04186v2.06692h-1.02506v2.08373h-1.04186v2.08373h-1.04186v2.06692h-1.04186v2.10053h-1.20991zM425.20907,138.91393v-3.10879h1.02506v-7.0914h-1.02506v-3.12559h-1.04186v-1.20991h1.20991v1.04186h1.04186v3.10879h1.04186v7.44429h-1.04186v3.1424h-1.04186v1.04186h-1.20991v-1.24351zM59.64929,156.28393h1.04186v-1.02506h2.25177v1.02506h1.04186v2.26857h-1.04186v1.04186h-2.25177v-1.04186h-1.04186zM78.01634,163.54337v-14.53568h1.22671v14.73733h-1.04186v1.04186h-4.3355v-1.24351zM70.7401,160.43458h1.05867v-2.08373h1.04186v-2.08373h1.02506v-3.10879h1.22671v3.29363h-1.04186v2.08373h-1.04186v2.06692h-1.02506v1.04186h-1.24351zM83.20885,156.45197h-1.04186v-3.29363h1.22671v3.10879h1.04186v2.08373h1.02506v1.04186h1.04186v1.20991h-1.22671v-1.02506h-1.02506v-1.04186h-1.04186zM87.54435,155.24206h2.10053v-1.04186h2.06692v-1.04186h1.04186v-0.85702h-4.15065v-1.22671h6.21757v-2.06692h1.22671v2.06692h6.21757v1.22671h-5.17571v0.85702h1.02506v1.04186h2.08373v1.04186h3.10879v1.20991h-3.29363v-1.04186h-2.06692v-1.02506h-1.04186v-1.04186h-0.85702v3.10879h-1.22671v-4.15065h-0.85702v1.04186h-1.02506v1.04186h-1.04186v1.02506h-2.08373v1.04186h-2.26857zM94.8206,162.5015h1.04186v-2.06692h1.04186v-1.89888h-1.04186v-1.22671h2.08373v-1.04186h1.20991v1.04186h4.15065v1.22671h-3.10879v0.85702h1.04186v2.08373h1.02506v1.02506h1.04186v1.24351h-1.22671v-1.05867h-1.02506v-1.04186h-1.04186v-2.06692h-0.85702v5.20932h-1.20991v-4.18426h-0.85702v2.08373h-1.04186v1.05867h-1.22671zM87.54435,162.5015h1.05867v-1.02506h1.04186v-2.08373h1.02506v-0.85702h-3.12559v-1.22671h4.16746v-1.04186h1.22671v1.04186h2.06692v1.22671h-2.06692v0.85702h1.02506v1.04186h1.04186v1.20991h-1.20991v-1.04186h-0.85702v4.18426h-1.22671v-5.20932h-0.85702v2.06692h-1.04186v1.04186h-1.02506v1.05867h-1.24351zM112.75074,157.30899h7.27624v-6.04953h-6.21757v-1.20991h13.66186v1.20991h-6.21757v6.04953h7.25944v1.22671h-7.25944v6.25118h-1.22671v-6.25118h-7.27624zM123.15257,155.24206h1.02506v-1.04186h1.04186v-2.08373h1.22671v2.26857h-1.04186v1.02506h-1.04186v1.04186h-1.20991zM115.87633,154.38505h-1.02506v-2.26857h1.20991v2.08373h1.04186v2.25177h-1.22671zM144.2083,161.47644h2.06692v-1.04186h1.04186v-0.85702h-1.04186v-1.04186h-1.04186v-2.26857h3.12559v-1.88208h-2.08373v-1.22671h2.08373v-0.85702h-3.12559v-1.22671h2.08373v-0.85702h-1.04186v-1.20991h1.22671v1.04186h1.02506v1.02506h0.85702v-1.02506h1.04186v-1.04186h1.22671v1.20991h-1.04186v0.85702h3.10879v1.22671h-4.15065v0.85702h3.10879v1.22671h-3.10879v1.88208h4.15065v1.22671h-4.15065v0.85702h1.04186v2.08373h0.85702v-1.04186h1.02506v-1.04186h1.22671v1.22671h-1.04186v1.02506h-1.02506v0.87382h1.02506v1.02506h1.04186v1.24351h-1.22671v-1.05867h-1.02506v-1.04186h-1.04186v-1.04186h-0.85702v3.1424h-1.04186v1.04186h-2.25177v-1.24351h2.08373v-2.94074h-0.85702v1.04186h-1.04186v1.04186h-2.25177zM137.95712,159.39272h1.05867v-2.08373h1.04186v-2.06692h1.02506v-0.85702h-3.12559v-1.22671h3.12559v-4.15065h1.22671v4.15065h3.10879v1.22671h-3.10879v0.85702h1.04186v1.02506h1.02506v2.26857h-1.20991v-2.08373h-0.85702v8.33491h-1.22671v-7.29305h-0.85702v2.08373h-1.02506v1.02506h-1.24351zM147.50194,158.35085v1.04186h0.85702v-1.89888h-1.89888v0.85702zM58.62423,185.26567h-1.04186v-7.44429h1.04186v-3.10879h1.04186v-1.04186h1.20991v1.20991h-1.04186v3.12559h-1.02506v7.0914h1.02506v3.10879h1.04186v1.24351h-1.20991v-1.04186h-1.04186zM62.28756,175.73766h1.24351v4.16746h0.85702v-1.04186h3.29363v1.04186h1.02506v1.02506h1.04186v7.47789h-1.20991v-7.29305h-1.04186v-1.04186h-2.94074v1.04186h-1.02506v7.29305h-1.24351zM73.31115,180.07315h-2.10053v-1.20991h2.10053v-3.12559h1.20991v3.12559h3.10879v1.20991h-3.10879v7.0914h3.10879v1.24351h-3.29363v-1.05867h-1.02506zM81.71328,180.07315h-2.10053v-1.20991h2.10053v-3.12559h1.20991v3.12559h3.10879v1.20991h-3.10879v7.0914h3.10879v1.24351h-3.29363v-1.05867h-1.02506zM87.49394,178.86325h1.24351v1.04186h0.85702v-1.04186h3.29363v1.04186h1.02506v1.02506h1.04186v4.3355h-1.04186v1.04186h-1.02506v1.04186h-3.29363v-1.04186h-0.85702v3.1424h-1.24351zM92.70326,186.13949v-1.04186h1.04186v-3.98261h-1.04186v-1.04186h-2.94074v1.04186h-1.02506v3.98261h1.02506v1.04186zM95.89607,185.09763h1.24351v2.06692h5.00767v-2.92394h-5.19252v-1.04186h-1.05867v-3.29363h1.05867v-1.04186h5.36056v1.04186h1.04186v2.25177h-1.20991v-2.08373h-5.00767v2.94074h5.17571v1.04186h1.04186v3.29363h-1.04186v1.05867h-5.36056v-1.05867h-1.05867zM106.88605,178.86325h2.26857v2.25177h-2.26857zM106.88605,185.09763h2.26857v2.25177h-2.26857zM112.70032,186.13949h1.04186v-2.08373h1.02506v-2.08373h1.04186v-2.06692h1.04186v-2.08373h1.04186v-2.08373h1.02506v-2.06692h1.22671v2.25177h-1.04186v2.08373h-1.04186v2.06692h-1.02506v2.08373h-1.04186v2.08373h-1.04186v2.06692h-1.04186v2.10053h-1.20991zM121.10245,186.13949h1.04186v-2.08373h1.02506v-2.08373h1.04186v-2.06692h1.04186v-2.08373h1.04186v-2.08373h1.02506v-2.06692h1.22671v2.25177h-1.04186v2.08373h-1.04186v2.06692h-1.02506v2.08373h-1.04186v2.08373h-1.04186v2.06692h-1.04186v2.10053h-1.20991zM132.12604,180.07315h-2.10053v-1.20991h2.10053v-3.12559h1.20991v3.12559h3.10879v1.20991h-3.10879v7.0914h3.10879v1.24351h-3.29363v-1.05867h-1.02506zM137.90671,184.05576h1.05867v-1.04186h4.15065v-2.94074h-3.9658v2.08373h-1.24351v-2.25177h1.05867v-1.04186h4.3355v1.04186h1.02506v7.25944h1.04186v1.24351h-1.20991v-1.05867h-1.89888v1.05867h-3.29363v-1.05867h-1.05867zM142.07416,187.16455v-1.02506h1.04186v-1.89888h-3.9658v2.92394zM149.41762,175.73766h1.22671v2.26857h-1.22671zM149.41762,178.86325h1.22671v9.54482h-1.22671zM155.75283,178.86325h1.20991v1.04186h0.85702v-1.04186h3.29363v1.20991h-3.10879v1.04186h-1.04186v7.29305h-1.20991zM163.11309,184.05576h1.05867v-1.04186h4.15065v-2.94074h-3.9658v2.08373h-1.24351v-2.25177h1.05867v-1.04186h4.3355v1.04186h1.02506v7.25944h1.04186v1.24351h-1.20991v-1.05867h-1.89888v1.05867h-3.29363v-1.05867h-1.05867zM167.28055,187.16455v-1.02506h1.04186v-1.89888h-3.9658v2.92394zM172.03615,183.0139h6.40242v1.22671h-6.40242zM179.91735,175.73766h1.24351v7.27624h0.85702v-1.04186h1.02506v-1.04186h2.08373v-1.02506h1.04186v-1.04186h1.20991v1.20991h-1.04186v1.04186h-1.02506v1.04186h-2.08373v1.04186h-1.04186v0.85702h1.04186v1.04186h2.08373v1.04186h1.02506v1.02506h1.04186v1.24351h-1.20991v-1.05867h-1.04186v-1.04186h-2.08373v-1.04186h-1.02506v-1.02506h-0.85702v4.16746h-1.24351zM189.37814,186.30753h-1.05867v-5.37736h1.05867v-1.02506h1.04186v-1.04186h3.29363v1.04186h1.02506v1.02506h1.04186v5.37736h-1.04186v1.04186h-1.02506v1.05867h-3.29363v-1.05867h-1.04186zM190.58805,186.13949v1.02506h2.94074v-1.02506h1.04186v-5.02447h-1.04186v-1.04186h-2.94074v1.04186h-1.02506v5.02447zM196.7216,178.86325h1.24351v1.04186h0.85702v-1.04186h1.20991v1.04186h1.89888v-1.04186h1.20991v1.04186h1.04186v8.50295h-1.20991v-8.33491h-0.85702v1.04186h-1.04186v7.29305h-1.22671v-8.33491h-0.85702v1.04186h-1.02506v7.29305h-1.24351zM206.1824,186.30753h-1.05867v-5.37736h1.05867v-1.02506h1.04186v-1.04186h3.29363v1.04186h1.02506v1.02506h1.04186v5.37736h-1.04186v1.04186h-1.02506v1.05867h-3.29363v-1.05867h-1.04186zM207.39231,186.13949v1.02506h2.94074v-1.02506h1.04186v-5.02447h-1.04186v-1.04186h-2.94074v1.04186h-1.02506v5.02447zM214.56772,178.86325h1.20991v1.04186h0.85702v-1.04186h3.29363v1.20991h-3.10879v1.04186h-1.04186v7.29305h-1.20991zM225.03678,175.73766h1.22671v2.26857h-1.22671zM225.03678,178.86325h1.22671v9.54482h-1.22671zM230.91826,185.09763h2.25177v2.25177h-2.25177zM242.88289,175.73766h1.22671v2.26857h-1.22671zM242.88289,188.20641v-9.34317h1.22671v9.54482h-1.04186v1.04186h-2.25177v-1.24351zM247.13437,178.86325h1.24351v1.04186h0.85702v-1.04186h3.29363v1.04186h1.02506v1.02506h1.04186v4.3355h-1.04186v1.04186h-1.02506v1.04186h-3.29363v-1.04186h-0.85702v3.1424h-1.24351zM252.34369,186.13949v-1.04186h1.04186v-3.98261h-1.04186v-1.04186h-2.94074v1.04186h-1.02506v3.98261h1.02506v1.04186zM255.5365,178.86325h1.24351v1.04186h0.85702v-1.04186h3.29363v1.04186h1.02506v1.02506h1.04186v7.47789h-1.20991v-7.29305h-1.04186v-1.04186h-2.94074v1.04186h-1.02506v7.29305h-1.24351zM264.52678,185.09763h2.25177v2.25177h-2.25177zM273.39942,186.30753h-1.05867v-5.37736h1.05867v-1.02506h1.04186v-1.04186h3.29363v1.04186h1.02506v1.02506h1.04186v5.37736h-1.04186v1.04186h-1.02506v1.05867h-3.29363v-1.05867h-1.04186zM274.60933,186.13949v1.02506h2.94074v-1.02506h1.04186v-5.02447h-1.04186v-1.04186h-2.94074v1.04186h-1.02506v5.02447zM281.78475,178.86325h1.20991v1.04186h0.85702v-1.04186h3.29363v1.20991h-3.10879v1.04186h-1.04186v7.29305h-1.20991zM289.14501,186.13949h1.05867v-0.87382h-1.05867v-1.20991h1.05867v-0.85702h-1.05867v-3.29363h1.05867v-1.04186h4.3355v1.04186h0.85702v-1.04186h1.20991v1.20991h-1.04186v3.12559h-1.02506v1.04186h-4.15065v0.85702h5.17571v1.04186h1.04186v2.26857h-1.04186v1.04186h-5.36056v-1.04186h-1.05867zM294.35433,183.0139v-2.94074h-3.9658v2.94074zM295.3962,188.20641v-1.89888h-5.00767v1.89888zM297.54714,186.13949h1.04186v-2.08373h1.02506v-2.08373h1.04186v-2.06692h1.04186v-2.08373h1.04186v-2.08373h1.02506v-2.06692h1.22671v2.25177h-1.04186v2.08373h-1.04186v2.06692h-1.02506v2.08373h-1.04186v2.08373h-1.04186v2.06692h-1.04186v2.10053h-1.20991zM307.00794,185.26567h-1.05867v-6.40242h1.24351v6.23438h0.85702v-3.12559h1.02506v-3.10879h1.22671v3.10879h1.04186v3.12559h0.85702v-6.23438h1.20991v6.40242h-1.04186v3.1424h-1.20991v-3.1424h-1.04186v-3.10879h-0.85702v3.10879h-1.04186v3.1424h-1.20991zM315.41006,186.30753h-1.05867v-5.37736h1.05867v-1.02506h1.04186v-1.04186h3.29363v1.04186h1.02506v1.02506h1.04186v3.31044h-6.21757v1.89888h1.02506v1.02506h2.94074v-1.02506h1.04186v-1.04186h1.20991v1.20991h-1.04186v1.04186h-1.02506v1.05867h-3.29363v-1.05867h-1.04186zM320.60258,183.0139v-1.89888h-1.04186v-1.04186h-2.94074v1.04186h-1.02506v1.89888zM325.86231,175.73766h1.22671v12.67041h-1.22671zM332.21432,186.30753h-1.05867v-5.37736h1.05867v-1.02506h1.04186v-1.04186h3.29363v1.04186h1.02506v1.02506h1.04186v1.22671h-1.20991v-1.04186h-1.04186v-1.04186h-2.94074v1.04186h-1.02506v5.02447h1.02506v1.02506h2.94074v-1.02506h1.04186v-1.04186h1.20991v1.20991h-1.04186v1.04186h-1.02506v1.05867h-3.29363v-1.05867h-1.04186zM340.61645,186.30753h-1.05867v-5.37736h1.05867v-1.02506h1.04186v-1.04186h3.29363v1.04186h1.02506v1.02506h1.04186v5.37736h-1.04186v1.04186h-1.02506v1.05867h-3.29363v-1.05867h-1.04186zM341.82635,186.13949v1.02506h2.94074v-1.02506h1.04186v-5.02447h-1.04186v-1.04186h-2.94074v1.04186h-1.02506v5.02447zM347.95991,178.86325h1.24351v1.04186h0.85702v-1.04186h1.20991v1.04186h1.89888v-1.04186h1.20991v1.04186h1.04186v8.50295h-1.20991v-8.33491h-0.85702v1.04186h-1.04186v7.29305h-1.22671v-8.33491h-0.85702v1.04186h-1.02506v7.29305h-1.24351zM357.4207,186.30753h-1.05867v-5.37736h1.05867v-1.02506h1.04186v-1.04186h3.29363v1.04186h1.02506v1.02506h1.04186v3.31044h-6.21757v1.89888h1.02506v1.02506h2.94074v-1.02506h1.04186v-1.04186h1.20991v1.20991h-1.04186v1.04186h-1.02506v1.05867h-3.29363v-1.05867h-1.04186zM362.61322,183.0139v-1.89888h-1.04186v-1.04186h-2.94074v1.04186h-1.02506v1.89888zM365.35231,185.09763h2.25177v2.25177h-2.25177zM373.16629,175.73766h1.24351v4.16746h0.85702v-1.04186h3.29363v1.04186h1.02506v1.02506h1.04186v7.47789h-1.20991v-7.29305h-1.04186v-1.04186h-2.94074v1.04186h-1.02506v7.29305h-1.24351zM384.18988,180.07315h-2.10053v-1.20991h2.10053v-3.12559h1.20991v3.12559h3.10879v1.20991h-3.10879v7.0914h3.10879v1.24351h-3.29363v-1.05867h-1.02506zM389.97055,178.86325h1.24351v1.04186h0.85702v-1.04186h1.20991v1.04186h1.89888v-1.04186h1.20991v1.04186h1.04186v8.50295h-1.20991v-8.33491h-0.85702v1.04186h-1.04186v7.29305h-1.22671v-8.33491h-0.85702v1.04186h-1.02506v7.29305h-1.24351zM401.48146,175.73766h1.22671v12.67041h-1.22671zM408.40482,188.20641v-3.10879h1.02506v-7.0914h-1.02506v-3.12559h-1.04186v-1.20991h1.20991v1.04186h1.04186v3.10879h1.04186v7.44429h-1.04186v3.1424h-1.04186v1.04186h-1.20991v-1.24351zM56.01957,199.35884h9.51121v1.02506h1.04186v1.04186h1.04186v3.29363h-1.04186v1.04186h-1.04186v0.85702h1.04186v1.04186h1.04186v3.29363h-1.04186v1.04186h-1.04186v1.05867h-9.51121zM65.34593,205.57641v-1.02506h1.04186v-2.94074h-1.04186v-1.04186h-8.11646v5.00767zM65.34593,211.81079v-1.02506h1.04186v-2.94074h-1.04186v-1.04186h-8.11646v5.00767zM72.30289,201.42576h1.04186v-1.04186h1.02506v-1.02506h8.48615v1.02506h1.04186v1.04186h1.04186v2.26857h-1.22671v-2.08373h-1.04186v-1.04186h-8.11646v1.04186h-1.04186v9.17512h1.04186v1.02506h8.11646v-1.02506h1.04186v-3.98261h-6.21757v-1.22671h7.44429v5.37736h-1.04186v1.04186h-1.04186v1.05867h-8.48615v-1.05867h-1.02506v-1.04186h-1.04186zM88.58622,199.35884h1.20991v1.02506h1.04186v2.08373h1.04186v2.08373h1.04186v2.06692h1.02506v2.08373h1.04186v2.08373h0.85702v-2.08373h1.04186v-2.08373h1.04186v-2.06692h1.02506v-2.08373h1.04186v-2.08373h1.04186v-1.02506h1.20991v13.69547h-1.20991v-10.40183h-0.85702v2.06692h-1.04186v2.08373h-1.04186v2.08373h-1.02506v2.06692h-1.04186v2.10053h-1.22671v-2.10053h-1.02506v-2.06692h-1.04186v-2.08373h-1.04186v-2.08373h-1.04186v-2.06692h-0.85702v10.40183h-1.20991zM59.64929,230.22266h1.04186v-1.02506h2.25177v1.02506h1.04186v2.26857h-1.04186v1.04186h-2.25177v-1.04186h-1.04186zM70.68968,224.00508h1.24351v2.06692h1.02506v3.12559h1.04186v4.15065h0.85702v-4.15065h1.04186v-3.12559h1.04186v-2.06692h1.20991v13.69547h-1.20991v-8.33491h-0.85702v4.16746h-1.04186v3.10879h-1.22671v-3.10879h-1.02506v-4.16746h-0.85702v8.33491h-1.24351zM79.09181,234.39011h1.05867v-4.16746h1.04186v-3.10879h1.02506v-3.10879h1.22671v3.10879h1.04186v3.10879h1.02506v4.16746h1.04186v3.31044h-1.20991v-3.1424h-5.00767v3.1424h-1.24351zM84.30113,233.34825v-2.94074h-1.04186v-3.10879h-0.85702v3.10879h-1.04186v2.94074zM90.61953,226.25685h-3.12559v-1.22671h7.46109v1.22671h-3.10879v11.4437h-1.22671zM96.95474,235.60002h-1.05867v-2.25177h1.24351v2.08373h1.02506v1.02506h2.94074v-1.02506h1.04186v-2.94074h-1.04186v-1.04186h-3.10879v-1.04186h-1.04186v-1.04186h-1.05867v-3.29363h1.05867v-1.04186h1.04186v-1.02506h3.29363v1.02506h1.02506v1.04186h1.04186v2.26857h-1.20991v-2.08373h-1.04186v-1.04186h-2.94074v1.04186h-1.02506v2.94074h1.02506v1.02506h3.12559v1.04186h1.02506v1.04186h1.04186v3.29363h-1.04186v1.04186h-1.02506v1.05867h-3.29363v-1.05867h-1.04186zM105.35686,235.60002h-1.05867v-11.59494h1.24351v11.42689h1.02506v1.02506h2.94074v-1.02506h1.04186v-11.42689h1.20991v11.59494h-1.04186v1.04186h-1.02506v1.05867h-3.29363v-1.05867h-1.04186zM127.40405,235.41517h2.06692v-1.04186h1.04186v-0.85702h-1.04186v-1.04186h-1.04186v-2.26857h3.12559v-1.88208h-2.08373v-1.22671h2.08373v-0.85702h-3.12559v-1.22671h2.08373v-0.85702h-1.04186v-1.20991h1.22671v1.04186h1.02506v1.02506h0.85702v-1.02506h1.04186v-1.04186h1.22671v1.20991h-1.04186v0.85702h3.10879v1.22671h-4.15065v0.85702h3.10879v1.22671h-3.10879v1.88208h4.15065v1.22671h-4.15065v0.85702h1.04186v2.08373h0.85702v-1.04186h1.02506v-1.04186h1.22671v1.22671h-1.04186v1.02506h-1.02506v0.87382h1.02506v1.02506h1.04186v1.24351h-1.22671v-1.05867h-1.02506v-1.04186h-1.04186v-1.04186h-0.85702v3.1424h-1.04186v1.04186h-2.25177v-1.24351h2.08373v-2.94074h-0.85702v1.04186h-1.04186v1.04186h-2.25177zM121.15286,233.33144h1.05867v-2.08373h1.04186v-2.06692h1.02506v-0.85702h-3.12559v-1.22671h3.12559v-4.15065h1.22671v4.15065h3.10879v1.22671h-3.10879v0.85702h1.04186v1.02506h1.02506v2.26857h-1.20991v-2.08373h-0.85702v8.33491h-1.22671v-7.29305h-0.85702v2.08373h-1.02506v1.02506h-1.24351zM130.69768,232.28958v1.04186h0.85702v-1.89888h-1.89888v0.85702zM58.62423,259.20439h-1.04186v-7.44429h1.04186v-3.10879h1.04186v-1.04186h1.20991v1.20991h-1.04186v3.12559h-1.02506v7.0914h1.02506v3.10879h1.04186v1.24351h-1.20991v-1.04186h-1.04186zM62.28756,249.67638h1.24351v4.16746h0.85702v-1.04186h3.29363v1.04186h1.02506v1.02506h1.04186v7.47789h-1.20991v-7.29305h-1.04186v-1.04186h-2.94074v1.04186h-1.02506v7.29305h-1.24351zM73.31115,254.01188h-2.10053v-1.20991h2.10053v-3.12559h1.20991v3.12559h3.10879v1.20991h-3.10879v7.0914h3.10879v1.24351h-3.29363v-1.05867h-1.02506zM81.71328,254.01188h-2.10053v-1.20991h2.10053v-3.12559h1.20991v3.12559h3.10879v1.20991h-3.10879v7.0914h3.10879v1.24351h-3.29363v-1.05867h-1.02506zM87.49394,252.80197h1.24351v1.04186h0.85702v-1.04186h3.29363v1.04186h1.02506v1.02506h1.04186v4.3355h-1.04186v1.04186h-1.02506v1.04186h-3.29363v-1.04186h-0.85702v3.1424h-1.24351zM92.70326,260.07822v-1.04186h1.04186v-3.98261h-1.04186v-1.04186h-2.94074v1.04186h-1.02506v3.98261h1.02506v1.04186zM95.89607,259.03635h1.24351v2.06692h5.00767v-2.92394h-5.19252v-1.04186h-1.05867v-3.29363h1.05867v-1.04186h5.36056v1.04186h1.04186v2.25177h-1.20991v-2.08373h-5.00767v2.94074h5.17571v1.04186h1.04186v3.29363h-1.04186v1.05867h-5.36056v-1.05867h-1.05867zM106.88605,252.80197h2.26857v2.25177h-2.26857zM106.88605,259.03635h2.26857v2.25177h-2.26857zM112.70032,260.07822h1.04186v-2.08373h1.02506v-2.08373h1.04186v-2.06692h1.04186v-2.08373h1.04186v-2.08373h1.02506v-2.06692h1.22671v2.25177h-1.04186v2.08373h-1.04186v2.06692h-1.02506v2.08373h-1.04186v2.08373h-1.04186v2.06692h-1.04186v2.10053h-1.20991zM121.10245,260.07822h1.04186v-2.08373h1.02506v-2.08373h1.04186v-2.06692h1.04186v-2.08373h1.04186v-2.08373h1.02506v-2.06692h1.22671v2.25177h-1.04186v2.08373h-1.04186v2.06692h-1.02506v2.08373h-1.04186v2.08373h-1.04186v2.06692h-1.04186v2.10053h-1.20991zM130.56325,260.24626h-1.05867v-5.37736h1.05867v-1.02506h1.04186v-1.04186h3.29363v1.04186h0.85702v-4.16746h1.20991v12.67041h-1.20991v-1.05867h-0.85702v1.05867h-3.29363v-1.05867h-1.04186zM131.77315,260.07822v1.02506h2.94074v-1.02506h1.04186v-5.02447h-1.04186v-1.04186h-2.94074v1.04186h-1.02506v5.02447zM138.96538,260.24626h-1.05867v-5.37736h1.05867v-1.02506h1.04186v-1.04186h3.29363v1.04186h1.02506v1.02506h1.04186v5.37736h-1.04186v1.04186h-1.02506v1.05867h-3.29363v-1.05867h-1.04186zM140.17528,260.07822v1.02506h2.94074v-1.02506h1.04186v-5.02447h-1.04186v-1.04186h-2.94074v1.04186h-1.02506v5.02447zM148.40937,258.17933h-1.04186v-2.08373h-1.05867v-3.29363h1.24351v3.10879h1.02506v2.08373h1.04186v2.08373h0.85702v-2.08373h1.04186v-2.08373h1.04186v-3.10879h1.20991v3.29363h-1.04186v2.08373h-1.02506v2.06692h-1.04186v2.10053h-1.22671v-2.10053h-1.02506zM154.71096,257.99449h1.05867v-1.04186h4.15065v-2.94074h-3.9658v2.08373h-1.24351v-2.25177h1.05867v-1.04186h4.3355v1.04186h1.02506v7.25944h1.04186v1.24351h-1.20991v-1.05867h-1.89888v1.05867h-3.29363v-1.05867h-1.05867zM158.87842,261.10328v-1.02506h1.04186v-1.89888h-3.9658v2.92394zM163.63402,256.95263h6.40242v1.22671h-6.40242zM171.51522,259.03635h1.24351v2.06692h5.00767v-2.92394h-5.19252v-1.04186h-1.05867v-3.29363h1.05867v-1.04186h5.36056v1.04186h1.04186v2.25177h-1.20991v-2.08373h-5.00767v2.94074h5.17571v1.04186h1.04186v3.29363h-1.04186v1.05867h-5.36056v-1.05867h-1.05867zM180.5055,259.03635h2.25177v2.25177h-2.25177zM192.47013,249.67638h1.22671v2.26857h-1.22671zM192.47013,262.14514v-9.34317h1.22671v9.54482h-1.04186v1.04186h-2.25177v-1.24351zM196.7216,252.80197h1.24351v1.04186h0.85702v-1.04186h3.29363v1.04186h1.02506v1.02506h1.04186v4.3355h-1.04186v1.04186h-1.02506v1.04186h-3.29363v-1.04186h-0.85702v3.1424h-1.24351zM201.93092,260.07822v-1.04186h1.04186v-3.98261h-1.04186v-1.04186h-2.94074v1.04186h-1.02506v3.98261h1.02506v1.04186zM205.12373,260.07822h1.04186v-2.08373h1.02506v-2.08373h1.04186v-2.06692h1.04186v-2.08373h1.04186v-2.08373h1.02506v-2.06692h1.22671v2.25177h-1.04186v2.08373h-1.04186v2.06692h-1.02506v2.08373h-1.04186v2.08373h-1.04186v2.06692h-1.04186v2.10053h-1.20991zM213.52586,249.67638h1.24351v4.16746h0.85702v-1.04186h3.29363v1.04186h1.02506v1.02506h1.04186v5.37736h-1.04186v1.04186h-1.02506v1.05867h-3.29363v-1.05867h-0.85702v1.05867h-1.24351zM215.79443,260.07822v1.02506h2.94074v-1.02506h1.04186v-5.02447h-1.04186v-1.04186h-2.94074v1.04186h-1.02506v5.02447zM221.92799,260.07822h1.05867v-0.87382h-1.05867v-1.20991h1.05867v-0.85702h-1.05867v-3.29363h1.05867v-1.04186h4.3355v1.04186h0.85702v-1.04186h1.20991v1.20991h-1.04186v3.12559h-1.02506v1.04186h-4.15065v0.85702h5.17571v1.04186h1.04186v2.26857h-1.04186v1.04186h-5.36056v-1.04186h-1.05867zM227.13731,256.95263v-2.94074h-3.9658v2.94074zM228.17917,262.14514v-1.89888h-5.00767v1.89888zM230.33012,252.80197h1.24351v1.04186h0.85702v-1.04186h1.20991v1.04186h1.89888v-1.04186h1.20991v1.04186h1.04186v8.50295h-1.20991v-8.33491h-0.85702v1.04186h-1.04186v7.29305h-1.22671v-8.33491h-0.85702v1.04186h-1.02506v7.29305h-1.24351zM238.73224,260.07822h1.04186v-2.08373h1.02506v-2.08373h1.04186v-2.06692h1.04186v-2.08373h1.04186v-2.08373h1.02506v-2.06692h1.22671v2.25177h-1.04186v2.08373h-1.04186v2.06692h-1.02506v2.08373h-1.04186v2.08373h-1.04186v2.06692h-1.04186v2.10053h-1.20991zM247.13437,252.80197h1.24351v1.04186h0.85702v-1.04186h3.29363v1.04186h1.02506v1.02506h1.04186v4.3355h-1.04186v1.04186h-1.02506v1.04186h-3.29363v-1.04186h-0.85702v3.1424h-1.24351zM252.34369,260.07822v-1.04186h1.04186v-3.98261h-1.04186v-1.04186h-2.94074v1.04186h-1.02506v3.98261h1.02506v1.04186zM258.64529,249.67638h1.22671v12.67041h-1.22671zM263.93863,257.99449h1.05867v-1.04186h4.15065v-2.94074h-3.9658v2.08373h-1.24351v-2.25177h1.05867v-1.04186h4.3355v1.04186h1.02506v7.25944h1.04186v1.24351h-1.20991v-1.05867h-1.89888v1.05867h-3.29363v-1.05867h-1.05867zM268.10608,261.10328v-1.02506h1.04186v-1.89888h-3.9658v2.92394zM275.46635,262.14514v-1.89888h-1.02506v-2.06692h-1.04186v-3.12559h-1.05867v-2.25177h1.24351v2.06692h1.02506v3.12559h1.04186v2.08373h0.85702v-2.08373h1.04186v-3.12559h1.04186v-2.06692h1.20991v2.25177h-1.04186v3.12559h-1.02506v2.06692h-1.04186v2.10053h-1.04186v1.04186h-3.31044v-1.24351zM284.89354,249.86123h-2.06692v-1.20991h3.29363v13.69547h-1.22671zM293.29566,249.86123h-2.06692v-1.20991h3.29363v13.69547h-1.22671zM298.60581,260.24626h-1.05867v-1.20991h1.24351v1.04186h1.02506v1.02506h2.94074v-1.02506h1.04186v-3.98261h-1.04186v-1.04186h-2.94074v1.04186h-1.02506v1.04186h-1.24351v-8.48615h6.41923v1.20991h-5.17571v5.00767h0.85702v-1.02506h3.29363v1.02506h1.02506v1.04186h1.04186v4.3355h-1.04186v1.04186h-1.02506v1.05867h-3.29363v-1.05867h-1.04186zM307.00794,260.24626h-1.05867v-9.52801h1.05867v-1.04186h1.04186v-1.02506h3.29363v1.02506h1.02506v1.04186h1.04186v9.52801h-1.04186v1.04186h-1.02506v1.05867h-3.29363v-1.05867h-1.04186zM308.21784,260.07822v1.02506h2.94074v-1.02506h1.04186v-9.17512h-1.04186v-1.04186h-2.94074v1.04186h-1.02506v9.17512zM315.41006,260.24626h-1.05867v-2.25177h1.24351v2.08373h1.02506v1.02506h2.94074v-1.02506h1.04186v-2.94074h-1.04186v-1.04186h-3.10879v-1.22671h3.10879v-1.02506h1.04186v-2.94074h-1.04186v-1.04186h-2.94074v1.04186h-1.02506v2.08373h-1.24351v-2.26857h1.05867v-1.04186h1.04186v-1.02506h3.29363v1.02506h1.02506v1.04186h1.04186v3.29363h-1.04186v1.04186h-1.02506v0.85702h1.02506v1.04186h1.04186v3.29363h-1.04186v1.04186h-1.02506v1.05867h-3.29363v-1.05867h-1.04186zM323.34167,259.03635h2.25177v2.25177h-2.25177zM331.15565,249.67638h1.24351v4.16746h0.85702v-1.04186h3.29363v1.04186h1.02506v1.02506h1.04186v7.47789h-1.20991v-7.29305h-1.04186v-1.04186h-2.94074v1.04186h-1.02506v7.29305h-1.24351zM342.17924,254.01188h-2.10053v-1.20991h2.10053v-3.12559h1.20991v3.12559h3.10879v1.20991h-3.10879v7.0914h3.10879v1.24351h-3.29363v-1.05867h-1.02506zM347.95991,252.80197h1.24351v1.04186h0.85702v-1.04186h1.20991v1.04186h1.89888v-1.04186h1.20991v1.04186h1.04186v8.50295h-1.20991v-8.33491h-0.85702v1.04186h-1.04186v7.29305h-1.22671v-8.33491h-0.85702v1.04186h-1.02506v7.29305h-1.24351zM359.47082,249.67638h1.22671v12.67041h-1.22671zM366.39418,262.14514v-3.10879h1.02506v-7.0914h-1.02506v-3.12559h-1.04186v-1.20991h1.20991v1.04186h1.04186v3.10879h1.04186v7.44429h-1.04186v3.1424h-1.04186v1.04186h-1.20991v-1.24351z" fill="#000000" stroke="none" stroke-width="1" stroke-linejoin="miter"/></g></g></svg>