<svg xmlns="http://www.w3.org/2000/svg" fill="none" viewBox="0 0 746 191" height="191" width="746">
<path fill="black" d="M0.968 14.656H4.904V12.704H8.872V10.72H12.808V8.736H16.776V6.752H20.712V4.768H25.032V7.104H21.064V9.088H17.128V11.072H13.16V13.024H9.224V15.008H5.256V18.624H9.224V20.608H13.16V22.592H17.128V24.576H21.064V26.528H25.032V28.896H20.712V26.88H16.776V24.896H12.808V22.912H8.872V20.96H4.904V18.976H0.968V14.656ZM29.992 20.576H33.992V18.592H35.944V11.04H32.36V16.96H29.992V10.688H32.008V2.784H34.312V8.704H35.944V0.799999H38.28V8.704H42.216V10.688H49.8V7.072H43.848V4.736H49.8V0.799999H52.104V4.736H58.024V7.072H52.104V10.688H60.008V12.992H56.072V16.608H60.008V18.944H56.072V28.864H54.088V30.848H47.816V28.48H53.736V18.944H41.896V16.96H40.264V18.944H38.28V30.848H35.944V20.928H34.312V22.88H29.992V20.576ZM39.912 16.608V14.624H42.216V16.608H53.736V12.992H41.896V11.04H38.28V16.608H39.912ZM45.832 20.576H48.168V22.56H50.12V24.864H47.816V22.88H45.832V20.576ZM69.928 24.544H75.848V20.928H71.912V18.592H75.848V16.96H71.912V14.624H81.8V12.672H83.752V0.799999H86.088V8.704H92.008V11.04H90.024V18.944H88.072V24.544H90.024V28.48H92.008V30.848H89.672V28.864H87.72V24.864H86.088V26.848H84.104V28.864H82.12V30.848H79.816V28.48H81.8V26.496H83.752V24.544H85.736V18.944H83.752V14.976H82.12V16.96H78.184V18.592H82.12V20.576H84.104V22.88H82.12V24.864H78.184V26.848H69.928V24.544ZM71.912 2.784H74.216V8.704H75.848V0.799999H78.184V8.704H79.816V2.784H82.12V11.04H71.912V2.784ZM61.992 8.704H64.008V6.72H65.992V4.736H67.944V0.799999H70.28V5.088H68.296V7.072H66.312V9.056H64.36V11.04H61.992V8.704ZM65.992 16.96H64.36V18.944H61.992V16.608H64.008V14.624H65.992V12.672H67.944V8.704H70.28V12.992H68.296V30.848H65.992V16.96ZM87.72 18.592V11.04H86.088V18.592H87.72ZM81.8 22.56V20.928H78.184V22.56H81.8ZM96.968 26.528H100.904V24.576H104.872V22.592H108.808V20.608H112.776V18.624H116.712V15.008H112.776V13.024H108.808V11.072H104.872V9.088H100.904V7.104H96.968V4.768H101.256V6.752H105.224V8.736H109.16V10.72H113.128V12.704H117.064V14.656H121.032V18.976H117.064V20.96H113.128V22.912H109.16V24.896H105.224V26.88H101.256V28.896H96.968V26.528ZM29.992 50.592H37.928V43.04H32.008V40.704H37.928V32.8H40.264V40.704H49.8V32.8H52.104V40.704H58.024V43.04H52.104V50.592H60.008V52.928H29.992V50.592ZM49.8 50.592V43.04H40.264V50.592H49.8ZM32.008 60.48V58.496H35.944V56.544H37.928V54.56H40.264V56.864H38.28V58.848H36.296V60.864H32.36V62.848H29.992V60.48H32.008ZM49.8 54.56H52.104V56.544H54.088V58.496H58.024V60.48H60.008V62.848H57.672V60.864H53.736V58.848H51.752V56.864H49.8V54.56ZM61.992 50.592H64.008V46.624H65.992V36.736H77.832V32.8H80.168V36.736H87.72V35.104H85.736V32.8H88.072V34.784H90.024V36.736H92.008V39.072H80.168V42.688H82.12V46.624H83.752V44.672H85.736V40.704H88.072V44.992H86.088V46.976H84.104V48.608H86.088V50.592H89.672V46.624H92.008V50.944H90.024V52.928H85.736V50.944H83.752V48.96H82.12V50.944H80.168V52.928H78.184V54.56H80.168V56.864H77.832V54.88H75.848V52.576H77.832V50.944H69.928V44.672H78.184V50.592H79.816V48.608H81.8V46.976H79.816V43.04H68.296V46.976H66.312V50.944H64.36V52.928H61.992V50.592ZM77.832 40.704V39.072H68.296V40.704H77.832ZM75.848 48.608V46.976H72.264V48.608H75.848ZM71.912 54.56H74.216V60.48H83.752V56.544H86.088V60.864H84.104V62.848H73.896V60.864H71.912V54.56ZM87.72 54.56H90.024V58.496H92.008V62.848H89.672V58.848H87.72V54.56ZM64.008 58.496H65.992V54.56H68.296V58.848H66.312V62.848H64.008V58.496ZM98.984 60.48V58.496H100.936V56.544H102.92V54.56H104.904V50.592H106.888V46.624H108.84V43.04H97V40.704H108.84V32.8H111.176V40.704H123.016V56.864H121.064V60.864H119.08V62.848H110.824V60.48H118.728V56.544H120.712V43.04H111.176V46.976H109.192V50.944H107.208V54.88H105.256V56.864H103.272V58.848H101.288V60.864H99.304V62.848H94.984V60.48H98.984ZM126.984 56.576H128.968V52.608H130.92V46.656H132.904V43.072H126.984V40.736H134.888V32.832H137.192V40.736H143.144V42.72H145.096V54.912H143.144V58.88H141.16V60.896H132.904V58.528H140.808V54.592H142.792V43.072H135.24V47.008H133.256V52.96H131.272V56.896H129.288V60.896H126.984V56.576ZM148.712 37.12H146.728V34.816H148.712V32.832H151.048V34.816H153V36.768H154.984V39.104H153V41.088H150.696V39.104H148.712V37.12ZM150.696 36.768V35.136H149.064V36.768H150.696ZM152.648 38.752V37.12H151.048V38.752H152.648ZM144.776 38.752H147.08V40.736H149.064V42.72H151.048V44.704H153V48.64H154.984V50.976H152.648V48.992H150.696V45.024H148.712V43.072H146.728V41.088H144.776V38.752ZM157.992 36.736H171.848V32.8H174.184V36.736H188.008V39.072H157.992V36.736ZM163.944 40.704H182.088V46.976H163.944V40.704ZM179.752 44.672V43.04H166.28V44.672H179.752ZM160.008 48.608H186.024V60.864H184.072V62.848H177.8V60.48H183.72V50.944H162.312V62.848H160.008V48.608ZM165.928 52.576H180.104V58.848H165.928V52.576ZM177.8 56.544V54.88H168.264V56.544H177.8ZM196.904 50.976H194.952V46.656H196.904V44.704H200.872V42.72H202.856V40.736H206.792V38.752H208.776V36.768H210.76V34.816H213.064V37.12H211.08V39.104H209.128V41.088H207.144V43.072H203.176V45.024H201.224V47.008H197.256V50.624H199.24V52.608H203.176V54.592H207.144V56.576H209.128V58.528H213.064V60.512H215.048V62.88H212.712V60.896H208.776V58.88H206.792V56.896H202.856V54.912H198.888V52.96H196.904V50.976ZM223.016 54.592H225.32V56.576H227.304V58.528H229.288V62.88H226.952V60.896H225V58.88H223.016V54.592ZM265.896 46.976H261.928V44.672H265.896V38.72H268.2V42.688H271.816V32.8H274.12V40.704H277.736V38.72H282.024V50.944H280.072V52.928H275.752V50.592H279.72V41.056H278.088V43.04H274.12V54.88H271.816V44.992H268.2V60.48H281.672V54.56H284.008V60.864H282.024V62.848H267.848V60.864H265.896V46.976ZM257.992 48.96H256.36V50.944H253.992V48.608H256.008V44.672H257.992V40.704H259.944V36.736H261.928V32.8H264.264V37.088H262.28V41.056H260.296V62.848H257.992V48.96ZM288.008 60.48V58.496H289.992V56.544H291.944V54.56H293.928V52.576H295.912V50.592H297.896V46.624H299.848V32.8H302.184V46.624H304.168V50.592H306.12V54.56H308.104V56.544H310.088V58.496H312.072V60.48H316.008V62.848H311.72V60.864H309.736V58.848H307.752V56.864H305.8V54.88H303.816V50.944H301.832V46.976H300.2V50.944H298.216V52.928H296.264V54.88H294.28V56.864H292.296V58.848H290.312V60.864H288.36V62.848H285.992V60.48H288.008ZM321 56.896H318.984V46.656H321V42.72H322.984V40.736H324.936V38.752H328.904V36.768H339.112V38.752H343.08V40.736H345.064V44.704H347.016V54.912H345.064V58.88H343.08V60.896H339.112V62.88H332.84V60.512H338.792V58.528H342.728V54.592H344.712V45.024H342.728V41.088H338.792V39.104H335.176V45.024H333.192V50.976H331.208V54.912H329.256V58.88H327.272V60.896H322.984V58.88H321V56.896ZM323.304 56.576V58.528H326.92V54.592H328.904V50.624H330.888V44.704H332.84V39.104H329.256V41.088H325.288V43.072H323.304V47.008H321.352V56.576H323.304ZM349.992 44.672H352.008V42.688H353.992V38.72H355.944V32.8H358.28V36.736H378.024V39.072H356.296V43.04H354.312V44.672H374.088V58.496H376.072V60.48H377.672V54.56H380.008V60.864H378.024V62.848H375.72V60.864H373.736V58.848H371.752V46.976H353.992V44.992H352.36V46.976H349.992V44.672ZM357.928 40.704H376.072V43.04H357.928V40.704ZM353.992 60.48V58.496H357.928V56.544H359.912V52.928H355.944V50.944H353.992V48.608H356.296V50.592H360.264V52.576H363.848V50.592H365.832V48.608H368.168V50.944H366.184V52.928H364.2V56.544H366.184V58.496H368.168V60.48H370.12V62.848H367.816V60.864H365.832V58.848H363.848V56.864H360.264V58.848H358.28V60.864H354.312V62.848H352.008V60.48H353.992ZM387.944 60.48V50.944H381.992V48.608H387.944V43.04H381.992V40.704H387.944V32.8H390.28V40.704H394.216V42.688H401.8V39.072H395.848V36.736H401.8V32.8H404.104V36.736H410.024V39.072H404.104V42.688H412.008V44.992H408.072V48.608H412.008V50.944H408.072V60.864H406.088V62.848H399.816V60.48H405.736V50.944H393.896V48.96H390.28V60.864H388.296V62.848H384.008V60.48H387.944ZM394.216 46.624V48.608H405.736V44.992H393.896V43.04H390.28V46.624H394.216ZM397.832 52.576H400.168V54.56H402.12V56.864H399.816V54.88H397.832V52.576ZM420.904 58.528H434.76V56.576H438.696V50.976H436.712V48.992H425.224V50.976H421.256V52.96H418.952V48.64H420.904V44.704H422.888V41.088H416.968V38.752H424.872V36.768H426.856V32.832H429.16V37.12H427.176V38.752H439.048V41.088H425.224V45.024H423.24V48.64H424.872V46.656H437.064V48.64H439.048V50.624H441.032V56.896H439.048V58.88H435.08V60.896H420.904V58.528ZM454.92 48.992H452.936V47.008H449.352V48.992H446.984V46.656H449V44.704H452.936V41.088H450.984V34.816H453.288V40.736H455.272V42.72H458.888V40.736H462.824V37.12H460.84V32.832H463.176V36.768H465.16V40.736H471.08V42.72H473.064V44.704H475.016V50.976H473.064V52.96H469.096V54.912H460.84V52.608H468.744V50.624H472.712V45.024H470.728V43.072H459.208V45.024H455.272V48.64H457.256V56.576H459.208V62.88H456.904V56.896H454.92V48.992ZM477.992 40.704H487.912V39.072H485.928V37.088H481.992V34.784H491.848V32.8H494.184V34.784H504.072V37.088H500.104V39.072H498.12V40.704H508.008V43.04H477.992V40.704ZM495.816 40.704V38.72H497.8V37.088H488.264V38.72H490.216V40.704H495.816ZM485.928 54.88H483.944V44.672H502.088V54.88H494.184V56.544H496.168V58.848H493.832V56.864H491.848V54.88H488.264V60.48H499.752V56.544H502.088V60.864H500.104V62.848H487.912V60.864H485.928V54.88ZM499.752 48.608V46.976H486.28V48.608H499.752ZM499.752 52.576V50.944H486.28V52.576H499.752ZM477.992 58.496H480.008V54.56H482.312V58.848H480.36V60.864H477.992V58.496ZM503.72 54.56H506.024V56.544H508.008V60.864H505.672V56.864H503.72V54.56ZM515.944 60.48V58.496H519.912V54.88H515.944V32.8H534.088V54.88H530.12V60.48H537.672V54.56H540.008V60.864H538.024V62.848H529.8V60.864H527.816V54.88H522.216V58.848H520.264V60.864H516.296V62.848H509.992V60.48H515.944ZM531.752 38.72V35.104H518.28V38.72H531.752ZM531.752 44.672V41.056H518.28V44.672H531.752ZM531.752 52.576V46.976H518.28V52.576H531.752ZM543.976 52.608H545.96V48.64H547.912V46.656H549.896V42.72H551.88V41.088H543.976V38.752H553.864V32.832H556.168V38.752H566.056V41.088H554.184V42.72H558.152V44.704H560.136V48.64H561.768V46.656H565.704V44.704H569.992V47.008H566.056V48.992H562.088V50.976H560.136V58.88H557.8V52.96H554.184V54.912H552.232V60.512H568.04V62.88H551.88V60.896H549.896V54.592H551.88V52.608H553.864V50.624H557.8V45.024H552.232V47.008H550.248V48.992H548.264V52.96H546.28V54.912H543.976V52.608ZM573.992 54.56H593.8V52.928H577.992V40.704H583.912V39.072H573.992V36.736H583.912V35.104H581.928V32.8H584.264V34.784H586.216V36.736H589.832V34.784H591.816V32.8H594.12V35.104H592.168V36.736H604.008V39.072H592.168V40.704H598.088V52.928H596.104V54.56H604.008V56.864H596.104V60.864H594.12V62.848H587.848V60.48H593.8V56.864H582.28V58.496H584.264V60.864H581.928V58.848H579.944V56.864H573.992V54.56ZM589.832 40.704V39.072H586.216V40.704H589.832ZM591.816 46.624V44.992H589.832V43.04H586.216V44.992H584.264V46.624H591.816ZM595.752 44.672V43.04H592.168V44.672H595.752ZM583.912 44.672V43.04H580.296V44.672H583.912ZM595.752 50.592V48.96H580.296V50.592H595.752ZM619.848 60.48V58.848H608.008V56.544H619.848V54.88H609.992V42.688H619.848V41.056H605.992V38.72H619.848V37.088H609.992V34.784H625.8V32.8H632.072V35.104H626.12V37.088H622.184V38.72H636.008V41.056H622.184V42.688H632.072V54.88H622.184V56.544H634.024V58.848H622.184V60.48H636.008V62.848H605.992V60.48H619.848ZM619.848 46.624V44.992H612.296V46.624H619.848ZM629.736 46.624V44.992H622.184V46.624H629.736ZM619.848 52.576V48.96H612.296V52.576H619.848ZM629.736 52.576V48.96H622.184V52.576H629.736ZM650.888 60.512V58.528H652.84V56.576H654.824V52.96H653.192V54.912H646.92V52.96H644.936V46.656H646.92V44.704H653.192V46.656H654.824V41.088H638.984V38.752H654.824V32.832H657.16V38.752H667.016V41.088H657.16V56.896H655.176V58.88H653.192V60.896H651.208V62.88H646.92V60.512H650.888ZM652.84 52.608V50.624H654.824V48.992H652.84V47.008H647.272V52.608H652.84ZM674.952 54.592H676.904V52.608H683.176V54.592H685.16V58.528H690.76V56.576H692.712V54.592H694.696V50.976H692.712V48.992H679.24V50.976H675.272V52.96H672.968V50.624H674.952V48.64H678.888V46.656H680.872V44.704H682.856V42.72H686.792V40.736H688.776V39.104H674.952V36.768H693.064V39.104H691.08V41.088H689.128V43.072H687.144V45.024H683.176V46.656H693.064V48.64H695.048V50.624H697.032V54.912H695.048V58.88H691.08V60.896H676.904V58.88H674.952V54.592ZM682.856 58.528V54.912H677.256V58.528H682.856ZM33.992 78.976H32.36V82.944H29.992V78.624H32.008V74.688H33.992V68.736H35.944V64.8H38.28V69.088H36.296V94.848H33.992V78.976ZM37.928 70.72H40.264V76.672H41.896V74.688H43.848V72.704H47.816V70.72H49.8V69.088H43.848V66.784H60.008V69.088H52.104V71.072H50.12V72.704H58.024V88.864H56.072V90.496H58.024V92.48H60.008V94.848H57.672V92.864H55.72V90.848H53.736V88.864H50.12V90.848H48.168V92.864H46.184V94.848H43.848V92.48H45.832V90.496H47.816V88.864H45.832V86.88H44.2V88.864H39.912V86.88H37.928V70.72ZM43.848 86.56V82.592H45.832V75.04H44.2V76.992H42.216V78.976H40.264V86.56H43.848ZM55.72 76.672V75.04H48.168V76.672H55.72ZM55.72 80.608V78.976H48.168V80.608H55.72ZM55.72 86.56V82.944H48.168V86.56H55.72ZM63.976 70.72H71.88V68.736H73.864V66.784H75.816V64.8H78.152V67.104H76.168V69.088H74.184V70.72H89.992V92.864H88.04V94.848H81.768V92.48H87.688V73.056H66.28V94.848H63.976V70.72ZM69.896 76.672H84.072V86.88H69.896V76.672ZM81.768 84.576V78.976H72.232V84.576H81.768ZM94.984 88.576H96.968V84.608H98.92V78.656H100.904V75.072H94.984V72.736H102.888V64.832H105.192V72.736H111.144V74.72H113.096V86.912H111.144V90.88H109.16V92.896H100.904V90.528H108.808V86.592H110.792V75.072H103.24V79.008H101.256V84.96H99.272V88.896H97.288V92.896H94.984V88.576ZM116.712 69.12H114.728V66.816H116.712V64.832H119.048V66.816H121V68.768H122.984V71.104H121V73.088H118.696V71.104H116.712V69.12ZM118.696 68.768V67.136H117.064V68.768H118.696ZM120.648 70.752V69.12H119.048V70.752H120.648ZM112.776 70.752H115.08V72.736H117.064V74.72H119.048V76.704H121V80.64H122.984V82.976H120.648V80.992H118.696V77.024H116.712V75.072H114.728V73.088H112.776V70.752ZM126.984 82.624H129V80.64H130.984V78.656H132.936V76.704H136.904V71.104H129V68.768H136.904V64.832H139.208V68.768H153.064V71.104H139.208V74.72H145.16V76.704H146.792V74.72H148.744V72.736H151.08V75.072H149.096V76.704H151.08V78.656H153.064V80.64H155.016V88.896H153.064V90.88H151.08V92.896H149.096V94.88H142.824V92.512H148.744V90.528H150.728V88.576H152.712V80.992H150.728V79.008H147.112V80.992H145.16V84.96H143.176V86.912H141.192V88.896H139.208V90.528H141.192V92.896H138.888V90.88H135.272V92.896H129V90.88H126.984V82.624ZM140.84 86.592V84.608H142.824V80.64H144.808V77.024H139.208V86.592H140.84ZM134.92 90.528V88.576H136.904V79.008H133.288V80.992H131.304V82.976H129.352V90.528H134.92ZM171.816 92.512V90.528H177.768V88.576H179.72V84.608H181.704V73.088H179.72V69.12H172.168V71.104H170.184V73.088H168.232V77.024H166.248V80.992H164.264V84.96H161.96V70.752H163.912V66.816H166.248V71.104H164.264V76.704H165.896V72.736H167.88V70.752H169.864V68.768H171.816V66.816H180.072V68.768H182.056V72.736H184.04V84.96H182.056V88.896H180.072V90.88H178.088V92.896H172.168V94.88H163.912V92.512H171.816ZM192.968 86.592H194.952V84.608H204.808V79.008H192.968V76.704H204.808V73.088H192.968V70.752H204.808V64.832H207.144V70.752H217.032V73.088H207.144V76.704H217.032V79.008H207.144V86.592H211.08V88.576H213.064V90.528H215.048V92.512H217.032V94.88H214.696V92.896H212.712V90.88H210.76V88.896H207.144V92.896H205.16V94.88H194.952V92.896H192.968V86.592ZM204.808 92.512V86.912H195.272V92.512H204.808ZM234.888 92.512V90.528H236.84V88.576H238.824V84.96H237.192V86.912H230.92V84.96H228.936V78.656H230.92V76.704H237.192V78.656H238.824V73.088H222.984V70.752H238.824V64.832H241.16V70.752H251.016V73.088H241.16V88.896H239.176V90.88H237.192V92.896H235.208V94.88H230.92V92.512H234.888ZM236.84 84.608V82.624H238.824V80.992H236.84V79.008H231.272V84.608H236.84ZM255.016 86.592H257V84.608H263.272V86.592H265.224V92.896H263.272V94.88H257V92.896H255.016V86.592ZM262.92 92.512V86.912H257.32V92.512H262.92ZM300.808 92.512V90.528H304.776V88.576H306.76V84.608H308.712V66.816H311.048V84.96H309.064V88.896H307.08V90.88H305.128V92.896H301.16V94.88H292.904V92.512H300.808ZM290.952 66.816H293.256V84.96H290.952V66.816ZM318.984 90.528H322.984V88.576H326.92V86.592H330.888V84.608H332.84V82.624H334.824V78.656H336.808V74.72H338.792V71.104H321V68.768H341.096V75.072H339.112V79.008H337.16V82.624H339.112V84.608H341.096V86.592H343.08V88.576H345.064V90.528H347.016V92.896H344.712V90.88H342.728V88.896H340.744V86.912H338.792V84.96H336.808V82.976H335.176V84.96H333.192V86.912H331.208V88.896H327.272V90.88H323.304V92.896H318.984V90.528ZM358.888 92.512V90.528H362.856V88.576H366.792V86.592H368.776V84.608H370.76V80.64H372.712V76.704H374.696V73.088H361.224V77.024H359.24V79.008H357.256V80.992H355.272V82.976H352.968V80.64H354.952V78.656H356.904V76.704H358.888V72.736H360.872V68.768H362.856V64.832H365.16V69.12H363.176V70.752H377.032V77.024H375.048V80.992H373.064V84.96H371.08V86.912H369.128V88.896H367.144V90.88H363.176V92.896H359.24V94.88H352.968V92.512H358.888ZM383.976 84.608H385.96V80.64H387.912V78.656H389.896V74.72H391.88V73.088H383.976V70.752H393.864V64.832H396.168V70.752H406.056V73.088H394.184V74.72H398.152V76.704H400.136V80.64H401.768V78.656H405.704V76.704H409.992V79.008H406.056V80.992H402.088V82.976H400.136V90.88H397.8V84.96H394.184V86.912H392.232V92.512H408.04V94.88H391.88V92.896H389.896V86.592H391.88V84.608H393.864V82.624H397.8V77.024H392.232V79.008H390.248V80.992H388.264V84.96H386.28V86.912H383.976V84.608ZM413.992 86.56H417.992V69.088H413.992V66.784H430.184V68.736H442.024V76.992H440.072V82.944H438.088V88.544H440.072V92.48H444.008V94.848H439.72V92.864H437.736V88.864H435.752V86.88H434.12V90.848H432.168V92.864H430.184V94.848H425.896V86.88H422.28V88.864H413.992V86.56ZM429.832 92.48V90.496H431.816V86.56H433.8V82.944H431.816V76.992H429.832V72.704H432.168V76.672H434.12V82.592H437.736V76.672H439.72V71.072H429.832V69.088H428.2V92.48H429.832ZM425.896 72.704V69.088H420.296V72.704H425.896ZM425.896 78.624V75.04H420.296V78.624H425.896ZM421.928 86.56V84.576H425.896V80.96H420.296V86.56H421.928ZM450.952 86.592H452.904V84.608H459.176V86.592H461.16V90.528H466.76V88.576H468.712V86.592H470.696V82.976H468.712V80.992H455.24V82.976H451.272V84.96H448.968V82.624H450.952V80.64H454.888V78.656H456.872V76.704H458.856V74.72H462.792V72.736H464.776V71.104H450.952V68.768H469.064V71.104H467.08V73.088H465.128V75.072H463.144V77.024H459.176V78.656H469.064V80.64H471.048V82.624H473.032V86.912H471.048V90.88H467.08V92.896H452.904V90.88H450.952V86.592ZM458.856 90.528V86.912H453.256V90.528H458.856ZM482.952 68.768H503.048V71.104H482.952V68.768ZM480.968 84.608H482.952V82.624H485.256V84.96H483.272V88.576H487.24V90.528H502.696V88.576H505.032V90.88H503.048V92.896H486.888V90.88H482.952V88.896H480.968V84.608ZM512.968 82.624H514.952V80.64H516.904V78.656H520.872V64.832H523.176V76.704H526.792V74.72H537.032V77.024H527.144V79.008H521.224V80.992H517.256V82.976H515.272V88.576H519.24V90.528H537.032V92.896H518.888V90.88H514.952V88.896H512.968V82.624ZM544.968 72.736H546.952V66.816H549.256V73.088H547.272V92.896H544.968V72.736ZM552.872 70.752H569.032V73.088H552.872V70.752ZM552.872 84.608H555.176V88.576H557.16V90.528H569.032V92.896H556.808V90.88H554.856V88.896H552.872V84.608ZM576.008 92.48V90.496H577.992V86.56H579.944V82.944H577.992V80.96H576.008V78.624H578.312V80.608H580.296V82.592H581.928V78.624H583.912V75.04H573.992V72.704H579.944V64.8H582.28V72.704H588.2V75.04H586.216V78.976H584.264V82.944H582.28V84.576H584.264V86.56H586.216V90.848H583.912V86.88H580.296V90.848H578.312V92.864H576.36V94.848H573.992V92.48H576.008ZM597.736 92.48V75.04H589.832V72.704H597.736V64.8H600.072V72.704H604.008V75.04H600.072V92.864H598.088V94.848H591.816V92.48H597.736ZM591.816 80.96H589.832V76.672H592.168V80.608H594.12V84.928H591.816V80.96ZM608.968 66.816H611.272V88.576H613.256V90.528H622.792V88.576H626.728V86.592H628.712V84.608H630.696V82.624H633V84.96H631.048V86.912H629.064V88.896H627.08V90.88H623.144V92.896H612.904V90.88H610.92V88.896H608.968V66.816ZM646.92 78.656H648.904V76.704H650.888V74.72H652.84V72.736H654.824V71.104H638.984V68.768H667.016V71.104H659.112V73.088H655.176V75.072H653.192V77.024H651.208V79.008H649.256V86.592H651.208V88.576H653.192V90.528H663.08V92.896H652.84V90.88H648.904V86.912H646.92V78.656ZM676.936 80.992H670.984V78.656H676.936V73.088H673V70.752H678.92V64.832H681.256V70.752H689.16V73.088H679.272V78.656H689.16V80.992H679.272V90.528H681.256V92.512H692.744V90.528H694.728V88.576H696.712V80.992H694.728V77.024H692.744V74.72H695.08V76.704H697.064V80.64H699.016V88.896H697.064V90.88H695.08V92.896H693.096V94.88H680.904V92.896H678.92V90.88H676.936V80.992ZM29.992 102.72H39.912V101.088H37.928V99.104H35.944V96.8H38.28V98.784H40.264V100.736H42.216V102.72H45.832V100.736H47.816V98.784H49.8V96.8H52.104V99.104H50.12V101.088H48.168V102.72H60.008V105.056H29.992V102.72ZM32.008 106.688H44.2V124.864H42.216V126.848H37.928V124.48H41.896V118.88H34.312V126.848H32.008V106.688ZM53.736 124.48V106.688H56.072V124.864H54.088V126.848H47.816V124.48H53.736ZM47.816 108.672H50.12V120.864H47.816V108.672ZM41.896 112.608V108.992H34.312V112.608H41.896ZM41.896 116.576V114.944H34.312V116.576H41.896ZM63.976 102.72H71.88V100.736H73.864V98.784H75.816V96.8H78.152V99.104H76.168V101.088H74.184V102.72H89.992V124.864H88.04V126.848H81.768V124.48H87.688V105.056H66.28V126.848H63.976V102.72ZM69.896 108.672H84.072V118.88H69.896V108.672ZM81.768 116.576V110.976H72.232V116.576H81.768ZM98.952 116.608H100.904V114.624H114.76V112.992H112.776V111.008H96.968V108.704H110.792V107.072H108.808V105.088H96.968V102.752H106.856V101.12H104.872V96.832H107.176V100.768H109.16V102.752H112.776V100.768H119.048V103.104H113.128V105.088H111.144V106.72H113.128V108.704H114.76V106.72H121.032V109.024H115.08V112.64H117.064V114.624H119.048V116.608H121.032V118.912H116.712V116.96H101.256V122.528H119.048V124.896H100.904V122.88H98.952V116.608ZM133.928 110.656H135.912V108.704H137.896V106.72H139.848V104.736H141.832V103.104H125.992V100.768H154.024V103.104H146.12V105.088H142.184V107.072H140.2V109.024H138.216V111.008H136.264V118.592H138.216V120.576H140.2V122.528H150.088V124.896H139.848V122.88H135.912V118.912H133.928V110.656ZM149.736 104.736H152.072V106.72H154.024V108.704H156.008V111.008H153.672V109.024H151.72V107.072H149.736V104.736ZM145.8 106.72H148.104V108.704H150.088V110.656H152.072V112.992H149.736V111.008H147.752V109.024H145.8V106.72ZM159.016 118.592H161.32V120.576H163.304V122.528H165.288V126.88H162.952V124.896H161V122.88H159.016V118.592ZM189.992 120.544H192.008V116.576H193.992V114.944H189.992V112.608H195.944V110.976H189.992V108.672H193.992V107.04H192.008V103.072H189.992V100.736H195.944V96.8H198.28V100.736H204.2V103.072H202.216V107.04H200.264V108.672H204.2V110.976H198.28V112.608H204.2V114.944H200.264V116.576H202.216V120.544H205.832V100.736H213.736V98.784H218.024V101.088H214.088V103.072H208.168V108.672H220.008V110.976H216.072V126.848H213.736V110.976H208.168V120.864H206.184V126.848H203.848V122.848H201.896V120.864H199.912V116.928H198.28V126.848H195.944V116.928H194.312V120.864H192.36V122.848H189.992V120.544ZM197.928 108.672V106.688H199.912V103.072H194.312V106.688H196.296V108.672H197.928ZM224.968 98.816H227.272V120.576H229.256V122.528H238.792V120.576H242.728V118.592H244.712V116.608H246.696V114.624H249V116.96H247.048V118.912H245.064V120.896H243.08V122.88H239.144V124.896H228.904V122.88H226.92V120.896H224.968V98.816ZM257.96 118.912H255.976V100.768H258.28V118.592H260.264V122.528H265.864V120.576H267.816V116.608H270.152V120.896H268.168V122.88H266.184V124.896H259.912V122.88H257.96V118.912ZM277.704 109.024H275.72V105.088H273.768V100.768H276.072V104.736H278.056V108.704H280.04V114.624H281.992V120.896H279.688V114.976H277.704V109.024ZM303.784 112.64H305.768V110.656H307.72V108.704H309.704V104.736H311.688V101.12H287.976V98.816H313.992V105.088H312.04V109.024H310.056V111.008H308.072V112.992H306.088V114.976H303.784V112.64ZM287.976 122.528H291.912V120.576H293.896V118.592H295.88V114.624H297.864V104.736H300.168V114.976H298.184V118.912H296.232V120.896H294.248V122.88H292.264V124.896H287.976V122.528ZM319.944 114.624H323.944V112.64H327.88V110.656H331.848V108.704H333.8V106.72H335.784V104.736H337.768V102.752H339.752V100.768H341.704V98.816H343.688V96.832H346.024V99.136H344.04V101.12H342.056V103.104H340.072V105.088H338.12V126.88H335.784V109.024H334.152V111.008H332.168V112.992H328.232V114.976H324.264V116.96H319.944V114.624ZM373.736 96.832H376.072V98.816H378.024V100.768H380.008V103.104H377.672V101.12H375.72V99.136H373.736V96.832ZM352.008 100.768H369.8V98.816H372.104V100.768H374.088V102.752H376.072V105.088H373.736V103.104H352.008V100.768ZM357.928 124.512V122.528H359.912V120.576H361.896V116.608H363.848V111.008H349.992V108.704H378.024V111.008H366.184V116.96H364.2V120.896H362.216V122.88H360.264V124.896H358.28V126.88H353.992V124.512H357.928ZM399.784 112.64H401.768V110.656H403.72V108.704H405.704V104.736H407.688V101.12H383.976V98.816H409.992V105.088H408.04V109.024H406.056V111.008H404.072V112.992H402.088V114.976H399.784V112.64ZM383.976 122.528H387.912V120.576H389.896V118.592H391.88V114.624H393.864V104.736H396.168V114.976H394.184V118.912H392.232V120.896H390.248V122.88H388.264V124.896H383.976V122.528ZM422.92 112.992H420.936V111.008H417.352V112.992H414.984V110.656H417V108.704H420.936V105.088H418.984V98.816H421.288V104.736H423.272V106.72H426.888V104.736H430.824V101.12H428.84V96.832H431.176V100.768H433.16V104.736H439.08V106.72H441.064V108.704H443.016V114.976H441.064V116.96H437.096V118.912H428.84V116.608H436.744V114.624H440.712V109.024H438.728V107.072H427.208V109.024H423.272V112.64H425.256V120.576H427.208V126.88H424.904V120.896H422.92V112.992ZM465.8 96.8H468.104V108.672H469.736V106.688H471.72V102.72H474.024V107.04H472.072V108.992H470.088V110.976H468.104V112.608H470.088V114.592H472.072V116.576H474.024V118.88H471.72V116.928H469.736V114.944H468.104V124.48H473.672V120.544H476.008V124.864H474.024V126.848H467.752V124.864H465.8V96.8ZM449.992 124.48V116.928H445.992V114.592H449.992V107.04H445.992V104.704H449.992V96.8H452.296V104.704H454.28V107.04H452.296V112.608H453.928V110.624H456.264V112.96H454.28V114.944H452.296V124.864H450.312V126.848H445.992V124.48H449.992ZM457.896 124.48V122.496H459.848V118.56H461.832V114.944H460.2V116.928H458.216V118.88H455.912V116.576H457.896V114.592H459.848V112.608H461.832V96.8H464.168V118.88H462.184V122.848H460.2V124.864H458.216V126.848H453.928V124.48H457.896ZM457.896 107.04H455.912V102.72H458.216V106.688H460.2V110.976H457.896V107.04ZM477.992 118.56H485.928V114.944H480.008V102.72H489.896V100.736H491.848V96.8H494.184V101.088H492.2V102.72H494.184V108.672H497.8V96.8H500.104V106.688H508.008V108.992H500.104V114.592H501.736V112.608H503.72V110.624H506.024V112.96H504.072V114.944H502.088V122.496H504.072V124.48H505.672V118.56H508.008V124.864H506.024V126.848H503.72V124.864H501.736V122.848H499.752V120.864H498.12V122.848H496.168V124.864H493.832V122.496H495.816V120.864H488.264V126.848H485.928V120.864H477.992V118.56ZM480.008 99.104H477.992V96.8H480.36V98.784H482.312V101.088H480.008V99.104ZM485.928 99.104H483.944V96.8H486.28V98.784H488.264V101.088H485.928V99.104ZM503.72 101.088H501.736V98.784H504.072V100.736H506.024V105.056H503.72V101.088ZM485.928 106.688V105.056H482.312V106.688H485.928ZM491.848 106.688V105.056H488.264V106.688H491.848ZM491.848 112.608V108.992H488.264V112.608H491.848ZM485.928 112.608V108.992H482.312V112.608H485.928ZM496.168 118.56V120.544H497.8V118.56H499.752V114.944H497.8V110.976H494.184V114.944H488.264V118.56H496.168ZM511.976 116.608H513.96V112.64H515.912V110.656H517.896V106.72H519.88V105.088H511.976V102.752H521.864V96.832H524.168V102.752H534.056V105.088H522.184V106.72H526.152V108.704H528.136V112.64H529.768V110.656H533.704V108.704H537.992V111.008H534.056V112.992H530.088V114.976H528.136V122.88H525.8V116.96H522.184V118.912H520.232V124.512H536.04V126.88H519.88V124.896H517.896V118.592H519.88V116.608H521.864V114.624H525.8V109.024H520.232V111.008H518.248V112.992H516.264V116.96H514.28V118.912H511.976V116.608ZM30.984 138.688H34.92V135.072H32.968V133.088H30.984V130.784H46.792V128.8H55.048V131.104H47.144V133.088H43.176V134.72H45.16V138.688H48.776V136.704H50.728V132.736H53.064V137.056H51.08V138.688H57V146.944H54.696V140.992H33.288V146.944H30.984V138.688ZM42.824 138.688V135.072H40.872V133.088H35.272V134.72H37.256V138.688H42.824ZM36.904 156.48V154.496H40.872V152.544H42.824V150.88H40.872V148.928H38.888V146.944H34.92V144.608H53.064V146.944H51.08V148.928H49.096V150.88H47.144V152.544H49.096V154.496H53.064V156.48H58.984V158.848H52.712V156.864H48.776V154.848H46.792V152.864H43.176V154.848H41.192V156.864H37.256V158.848H30.984V156.48H36.904ZM43.176 148.576V150.56H46.792V148.576H48.776V146.944H41.192V148.576H43.176ZM77.8 156.512V154.528H79.784V150.592H81.768V139.072H69.896V136.736H81.768V130.816H84.072V136.736H89.992V139.072H84.072V150.912H82.088V154.88H80.136V156.896H78.152V158.88H73.864V156.512H77.8ZM63.976 134.752H65.96V130.816H68.264V135.104H66.28V158.88H63.976V134.752ZM97.992 156.48V154.496H99.944V152.544H101.928V150.56H103.912V146.592H105.896V142.624H107.848V133.088H99.944V130.784H110.184V142.624H112.168V146.592H114.12V150.56H116.104V152.544H118.088V154.496H120.072V156.48H124.008V158.848H119.72V156.864H117.736V154.848H115.752V152.864H113.8V150.88H111.816V146.944H109.832V142.976H108.2V146.944H106.216V150.88H104.264V152.864H102.28V154.848H100.296V156.864H98.312V158.848H93.992V156.48H97.992ZM125.992 152.576H128.008V148.608H129.992V144.64H131.944V139.072H125.992V136.736H131.944V128.832H134.28V142.656H135.912V140.704H137.896V138.72H139.848V136.736H141.832V134.752H148.104V136.736H150.088V146.976H148.104V154.528H153.672V152.576H156.008V154.88H154.024V156.896H147.752V154.88H145.8V146.624H147.752V137.088H142.184V139.072H140.2V141.024H138.216V143.008H136.264V144.992H134.28V158.88H131.944V148.96H130.312V152.896H128.36V156.896H125.992V152.576ZM162.952 150.592H164.904V148.608H171.176V150.592H173.16V154.528H178.76V152.576H180.712V150.592H182.696V146.976H180.712V144.992H167.24V146.976H163.272V148.96H160.968V146.624H162.952V144.64H166.888V142.656H168.872V140.704H170.856V138.72H174.792V136.736H176.776V135.104H162.952V132.768H181.064V135.104H179.08V137.088H177.128V139.072H175.144V141.024H171.176V142.656H181.064V144.64H183.048V146.624H185.032V150.912H183.048V154.88H179.08V156.896H164.904V154.88H162.952V150.592ZM170.856 154.528V150.912H165.256V154.528H170.856ZM194.952 132.768H215.048V135.104H194.952V132.768ZM192.968 148.608H194.952V146.624H197.256V148.96H195.272V152.576H199.24V154.528H214.696V152.576H217.032V154.88H215.048V156.896H198.888V154.88H194.952V152.896H192.968V148.608ZM224.968 146.624H226.952V144.64H228.904V142.656H232.872V128.832H235.176V140.704H238.792V138.72H249.032V141.024H239.144V143.008H233.224V144.992H229.256V146.976H227.272V152.576H231.24V154.528H249.032V156.896H230.888V154.88H226.952V152.896H224.968V146.624ZM254.984 152.576H256.968V148.608H258.92V142.656H260.904V139.072H254.984V136.736H262.888V128.832H265.192V136.736H271.144V138.72H273.096V150.912H271.144V154.88H269.16V156.896H260.904V154.528H268.808V150.592H270.792V139.072H263.24V143.008H261.256V148.96H259.272V152.896H257.288V156.896H254.984V152.576ZM276.712 133.12H274.728V130.816H276.712V128.832H279.048V130.816H281V132.768H282.984V135.104H281V137.088H278.696V135.104H276.712V133.12ZM278.696 132.768V131.136H277.064V132.768H278.696ZM280.648 134.752V133.12H279.048V134.752H280.648ZM272.776 134.752H275.08V136.736H277.064V138.72H279.048V140.704H281V144.64H282.984V146.976H280.648V144.992H278.696V141.024H276.712V139.072H274.728V137.088H272.776V134.752ZM293.928 142.656H295.912V140.704H297.896V138.72H299.848V136.736H301.832V135.104H285.992V132.768H314.024V135.104H306.12V137.088H302.184V139.072H300.2V141.024H298.216V143.008H296.264V150.592H298.216V152.576H300.2V154.528H310.088V156.896H299.848V154.88H295.912V150.912H293.928V142.656ZM309.736 136.736H312.072V138.72H314.024V140.704H316.008V143.008H313.672V141.024H311.72V139.072H309.736V136.736ZM305.8 138.72H308.104V140.704H310.088V142.656H312.072V144.992H309.736V143.008H307.752V141.024H305.8V138.72ZM322.952 148.608H324.904V146.624H338.76V144.992H336.776V143.008H320.968V140.704H334.792V139.072H332.808V137.088H320.968V134.752H330.856V133.12H328.872V128.832H331.176V132.768H333.16V134.752H336.776V132.768H343.048V135.104H337.128V137.088H335.144V138.72H337.128V140.704H338.76V138.72H345.032V141.024H339.08V144.64H341.064V146.624H343.048V148.608H345.032V150.912H340.712V148.96H325.256V154.528H343.048V156.896H324.904V154.88H322.952V148.608ZM352.968 150.592H354.952V148.608H364.808V143.008H352.968V140.704H364.808V137.088H352.968V134.752H364.808V128.832H367.144V134.752H377.032V137.088H367.144V140.704H377.032V143.008H367.144V150.592H371.08V152.576H373.064V154.528H375.048V156.512H377.032V158.88H374.696V156.896H372.712V154.88H370.76V152.896H367.144V156.896H365.16V158.88H354.952V156.896H352.968V150.592ZM364.808 156.512V150.912H355.272V156.512H364.808ZM394.888 156.512V154.528H396.84V152.576H398.824V148.96H397.192V150.912H390.92V148.96H388.936V142.656H390.92V140.704H397.192V142.656H398.824V137.088H382.984V134.752H398.824V128.832H401.16V134.752H411.016V137.088H401.16V152.896H399.176V154.88H397.192V156.896H395.208V158.88H390.92V156.512H394.888ZM396.84 148.608V146.624H398.824V144.992H396.84V143.008H391.272V148.608H396.84ZM415.016 150.592H417V148.608H423.272V150.592H425.224V156.896H423.272V158.88H417V156.896H415.016V150.592ZM422.92 156.512V150.912H417.32V156.512H422.92ZM29.992 186.496H37.928V184.544H41.896V182.88H29.992V180.576H43.848V178.944H39.912V176.96H36.296V178.944H29.992V176.608H35.944V174.624H39.912V172.992H32.008V170.688H43.848V169.056H39.912V166.72H44.2V168.704H45.832V166.72H49.8V165.088H33.992V162.784H54.088V165.088H52.104V167.072H50.12V169.056H46.184V170.688H56.072V174.976H54.088V176.96H51.752V174.624H53.736V172.992H46.184V176.96H44.2V178.592H46.184V180.576H58.024V182.88H48.168V184.544H52.104V186.496H60.008V188.864H51.752V186.848H47.816V184.864H46.184V190.848H43.848V184.864H42.216V186.848H38.28V188.864H29.992V186.496ZM43.848 176.608V172.992H42.216V174.976H40.264V176.608H43.848ZM61.992 182.56H67.944V180.928H64.008V168.704H67.944V167.072H61.992V164.736H67.944V160.8H70.28V164.736H78.184V167.072H70.28V168.704H76.2V174.624H77.832V168.704H79.816V160.8H82.12V166.72H90.024V171.04H88.072V174.976H85.736V170.688H87.72V169.056H80.168V174.976H78.184V176.96H76.2V180.928H70.28V182.56H78.184V184.864H70.28V190.848H67.944V184.864H61.992V182.56ZM77.832 188.48V186.496H79.816V180.576H81.8V170.688H84.104V178.592H86.088V182.56H88.072V186.496H90.024V188.48H92.008V190.848H89.672V188.864H87.72V186.848H85.736V182.88H83.752V180.928H82.12V186.848H80.168V188.864H78.184V190.848H75.848V188.48H77.832ZM73.896 172.672V171.04H70.28V172.672H73.896ZM67.944 172.672V171.04H66.312V172.672H67.944ZM73.896 178.592V174.976H70.28V178.592H73.896ZM67.944 178.592V174.976H66.312V178.592H67.944ZM94.984 182.592H96.968V178.624H98.92V174.656H100.904V170.72H102.888V169.088H94.984V166.752H102.888V164.768H104.872V160.832H107.176V165.12H105.192V166.752H111.144V169.088H105.192V171.072H103.24V175.008H101.256V178.976H99.272V182.912H97.288V184.896H94.984V182.592ZM112.776 166.752H121V168.736H122.984V171.072H120.648V169.088H112.776V166.752ZM102.888 182.592H104.872V180.608H112.776V172.704H115.08V182.592H117.064V184.576H119.048V186.528H121V188.896H118.696V186.88H116.712V184.896H115.08V186.88H113.096V188.896H111.144V190.88H104.872V188.896H102.888V182.592ZM110.792 188.512V186.528H112.776V182.912H105.192V188.512H110.792ZM125.992 178.592H133.928V176.608H137.896V174.624H139.848V172.992H128.008V170.688H139.848V167.072H131.944V164.736H139.848V160.8H142.184V164.736H148.104V166.72H149.736V164.736H151.72V162.784H154.024V165.088H152.072V167.072H150.088V169.056H148.104V170.688H156.008V172.992H142.184V174.976H140.2V176.608H145.8V174.624H154.024V176.96H146.12V178.944H138.216V180.576H152.072V186.848H150.088V188.864H148.104V190.848H139.848V188.48H147.752V186.496H149.736V182.88H136.264V186.848H133.928V182.56H135.912V178.944H134.28V180.928H125.992V178.592ZM145.8 170.688V168.704H147.752V167.072H142.184V170.688H145.8ZM169.864 165.12H165.896V162.816H170.184V164.768H180.072V167.104H169.864V165.12ZM159.976 186.528H161.96V184.576H163.912V182.592H165.896V180.608H167.88V178.624H171.816V176.64H173.8V174.656H175.784V173.024H161.96V170.72H182.056V173.024H180.072V175.008H176.136V176.992H174.152V180.608H176.136V186.528H185.992V188.896H175.784V186.88H173.8V180.96H168.232V182.912H166.248V184.896H164.264V186.88H162.28V188.896H159.976V186.528ZM193.992 188.48V186.496H195.944V184.544H197.928V178.592H199.912V169.056H189.992V166.72H203.848V160.8H206.184V166.72H220.008V169.056H202.216V174.624H216.072V188.864H214.088V190.848H205.832V188.48H213.736V176.96H202.216V178.944H200.264V184.864H198.28V186.848H196.296V188.864H194.312V190.848H189.992V188.48H193.992ZM223.976 180.608H225.96V176.64H227.912V174.656H229.896V170.72H231.88V169.088H223.976V166.752H233.864V160.832H236.168V166.752H246.056V169.088H234.184V170.72H238.152V172.704H240.136V176.64H241.768V174.656H245.704V172.704H249.992V175.008H246.056V176.992H242.088V178.976H240.136V186.88H237.8V180.96H234.184V182.912H232.232V188.512H248.04V190.88H231.88V188.896H229.896V182.592H231.88V180.608H233.864V178.624H237.8V173.024H232.232V175.008H230.248V176.992H228.264V180.96H226.28V182.912H223.976V180.608ZM259.944 188.48V178.944H253.992V176.608H259.944V171.04H253.992V168.704H259.944V160.8H262.28V168.704H266.216V170.688H273.8V167.072H267.848V164.736H273.8V160.8H276.104V164.736H282.024V167.072H276.104V170.688H284.008V172.992H280.072V176.608H284.008V178.944H280.072V188.864H278.088V190.848H271.816V188.48H277.736V178.944H265.896V176.96H262.28V188.864H260.296V190.848H256.008V188.48H259.944ZM266.216 174.624V176.608H277.736V172.992H265.896V171.04H262.28V174.624H266.216ZM269.832 180.576H272.168V182.56H274.12V184.864H271.816V182.88H269.832V180.576ZM292.904 186.528H306.76V184.576H310.696V178.976H308.712V176.992H297.224V178.976H293.256V180.96H290.952V176.64H292.904V172.704H294.888V169.088H288.968V166.752H296.872V164.768H298.856V160.832H301.16V165.12H299.176V166.752H311.048V169.088H297.224V173.024H295.24V176.64H296.872V174.656H309.064V176.64H311.048V178.624H313.032V184.896H311.048V186.88H307.08V188.896H292.904V186.528ZM319.016 182.592H321.32V184.576H323.304V186.528H325.288V190.88H322.952V188.896H321V186.88H319.016V182.592ZM357.928 188.48V186.496H363.848V184.864H359.912V182.88H356.296V184.864H352.008V182.56H355.944V180.576H357.928V178.592H359.912V176.96H355.944V174.624H359.912V172.672H361.896V167.072H349.992V164.736H363.848V160.8H366.184V164.736H380.008V167.072H370.12V174.976H368.168V176.96H363.848V174.624H367.816V167.072H364.2V172.992H362.216V174.976H360.264V176.608H362.216V178.592H376.072V180.928H374.088V182.88H372.104V184.864H368.168V186.496H374.088V188.48H380.008V190.848H373.736V188.864H367.816V186.848H364.2V188.864H358.28V190.848H349.992V188.48H357.928ZM349.992 172.672H353.992V170.688H355.944V168.704H358.28V171.04H356.296V172.992H354.312V174.976H349.992V172.672ZM371.752 168.704H374.088V170.688H378.024V172.672H380.008V174.976H377.672V172.992H373.736V171.04H371.752V168.704ZM364.2 182.56V184.544H367.816V182.56H371.752V180.928H360.264V182.56H364.2ZM397.832 160.8H400.168V174.624H401.8V172.672H405.736V170.688H407.72V166.72H410.024V171.04H408.072V172.992H406.088V174.976H402.12V176.96H400.168V188.48H409.672V182.56H412.008V188.864H410.024V190.848H399.816V188.864H397.832V160.8ZM387.944 174.976H386.312V176.96H384.36V178.944H381.992V176.608H384.008V174.624H385.992V172.672H387.944V168.704H389.928V164.736H391.912V160.8H394.216V165.088H392.264V169.056H390.28V190.848H387.944V174.976ZM416.968 168.736H418.952V162.816H421.256V169.088H419.272V188.896H416.968V168.736ZM424.872 166.752H441.032V169.088H424.872V166.752ZM424.872 180.608H427.176V184.576H429.16V186.528H441.032V188.896H428.808V186.88H426.856V184.896H424.872V180.608ZM448.008 188.48V186.496H449.992V182.56H451.944V178.944H449.992V176.96H448.008V174.624H450.312V176.608H452.296V178.592H453.928V174.624H455.912V171.04H445.992V168.704H451.944V160.8H454.28V168.704H460.2V171.04H458.216V174.976H456.264V178.944H454.28V180.576H456.264V182.56H458.216V186.848H455.912V182.88H452.296V186.848H450.312V188.864H448.36V190.848H445.992V188.48H448.008ZM469.736 188.48V171.04H461.832V168.704H469.736V160.8H472.072V168.704H476.008V171.04H472.072V188.864H470.088V190.848H463.816V188.48H469.736ZM463.816 176.96H461.832V172.672H464.168V176.608H466.12V180.928H463.816V176.96ZM480.968 162.816H483.272V184.576H485.256V186.528H494.792V184.576H498.728V182.592H500.712V180.608H502.696V178.624H505V180.96H503.048V182.912H501.064V184.896H499.08V186.88H495.144V188.896H484.904V186.88H482.92V184.896H480.968V162.816ZM518.92 174.656H520.904V172.704H522.888V170.72H524.84V168.736H526.824V167.104H510.984V164.768H539.016V167.104H531.112V169.088H527.176V171.072H525.192V173.024H523.208V175.008H521.256V182.592H523.208V184.576H525.192V186.528H535.08V188.896H524.84V186.88H520.904V182.912H518.92V174.656ZM542.984 186.528H545V184.576H548.936V182.592H550.92V180.608H552.904V178.624H554.888V176.64H556.84V174.656H558.824V172.704H560.808V171.072H542.984V168.736H562.792V160.832H565.096V168.736H571.016V171.072H565.096V188.896H563.112V190.88H554.888V188.512H562.792V173.024H561.16V175.008H559.176V176.992H557.192V178.976H555.208V180.96H553.256V182.912H551.272V184.896H549.288V186.88H545.352V188.896H542.984V186.528ZM576.968 174.656H601.032V176.992H576.968V174.656ZM608.008 186.528H613.928V184.576H617.896V182.592H621.832V180.608H623.816V176.64H625.8V172.704H627.752V167.104H605.992V164.768H627.752V162.816H629.736V160.832H634.024V162.816H636.008V167.104H634.024V169.088H630.088V173.024H628.104V176.992H626.12V180.96H624.168V182.912H622.184V184.896H618.216V186.88H614.28V188.896H608.008V186.528ZM633.672 166.752V163.136H630.088V166.752H633.672ZM646.888 169.088H642.952V167.104H640.968V164.768H643.272V166.752H647.24V168.736H651.176V170.72H653.16V173.024H650.856V171.072H646.888V169.088ZM640.968 186.528H646.888V184.576H650.856V182.592H654.792V180.608H656.776V178.624H658.76V176.64H660.712V172.704H662.696V166.752H665.032V173.024H663.048V176.992H661.064V178.976H659.08V180.96H657.128V182.912H655.144V184.896H651.176V186.88H647.24V188.896H640.968V186.528ZM677.928 174.656H679.912V172.704H681.896V170.72H683.848V168.736H685.832V167.104H669.992V164.768H698.024V167.104H690.12V169.088H686.184V171.072H684.2V173.024H682.216V175.008H680.264V182.592H682.216V184.576H684.2V186.528H694.088V188.896H683.848V186.88H679.912V182.912H677.928V174.656ZM693.736 168.736H696.072V170.72H698.024V172.704H700.008V175.008H697.672V173.024H695.72V171.072H693.736V168.736ZM689.8 170.72H692.104V172.704H694.088V174.656H696.072V176.992H693.736V175.008H691.752V173.024H689.8V170.72ZM714.888 188.512V186.528H716.84V184.576H718.824V180.96H717.192V182.912H710.92V180.96H708.936V174.656H710.92V172.704H717.192V174.656H718.824V169.088H702.984V166.752H718.824V160.832H721.16V166.752H731.016V169.088H721.16V184.896H719.176V186.88H717.192V188.896H715.208V190.88H710.92V188.512H714.888ZM716.84 180.608V178.624H718.824V176.992H716.84V175.008H711.272V180.608H716.84ZM735.016 182.592H737V180.608H743.272V182.592H745.224V188.896H743.272V190.88H737V188.896H735.016V182.592ZM742.92 188.512V182.912H737.32V188.512H742.92Z"></path>
</svg>
