<svg version="1.1" xmlns="http://www.w3.org/2000/svg" xmlns:xlink="http://www.w3.org/1999/xlink" width="374.68631" height="152.07396" viewBox="0,0,374.68631,152.07396"><g transform="translate(-43.45165,-51.77406)"><g data-paper-data="{&quot;isPaintingLayer&quot;:true}" fill-rule="nonzero" stroke-width="1" stroke-linecap="butt" stroke-linejoin="miter" stroke-miterlimit="10" stroke-dasharray="" stroke-dashoffset="0" style="mix-blend-mode: normal"><path d="M115.50365,119.51412v-2h2v2zM120.42365,117.51412h2v2h-2zM120.42365,128.91412h-2v-2h2zM122.90365,124.91412h2v2h-2zM122.90365,131.39407h-2v-2h2zM125.34365,127.39412h2v2h-2zM125.34365,133.8741h-2v-2h2zM129.38365,131.8741v2h-2v-2zM125.38365,121.99412v-2h2v2zM130.30364,119.99412h2v2h-2zM130.30364,131.39407h-2v-2h2zM136.82365,129.39407v2h-2v-2zM132.82365,119.51412v-2h2v2zM137.70365,117.51412h2v2h-2zM137.70365,131.39407h-2v-2h2zM145.10365,127.39412h2v2h-2zM147.10365,132.31411v2h-2v-2zM135.70365,132.31411v-2h2v2zM137.70365,141.27409h-2v-2h2zM145.10365,137.27409h2v2h-2zM147.10365,142.19412v2h-2v-2zM135.70365,142.19412v-2h2v2zM137.70365,153.63412h-2v-2h2zM147.58363,149.63412h2v2h-2zM149.58363,154.59411v2h-2v-2zM122.46365,156.59411h-2v-2h2zM120.46365,151.63412v-2h2v2zM136.82365,151.63412v2h-2v-2zM134.82365,140.19412h2v2h-2zM127.38365,144.19412h-2v-2h2zM125.38365,139.27409v-2h2v2zM136.82365,139.27409v2h-2v-2zM134.82365,130.31411h2v2h-2zM125.82365,132.31411v-2h2v2zM129.82365,137.23406v2h-2v-2zM123.34365,137.23406v-2h2v2zM127.34365,139.71409v2h-2v-2zM122.46365,141.71409h-2v-2h2zM120.46365,136.79412v-2h2v2zM126.94365,136.79412v2h-2v-2zM124.94365,132.75412h2v2h-2zM122.46365,136.75412h-2v-2h2zM122.46365,127.83412h2v2h-2zM118.42365,129.83408v-2h2v2zM122.42365,157.07412v2h-2v-2zM117.50365,159.07412h-2v-2h2zM108.06365,136.79412v-2h2v2zM114.58365,136.79412v2h-2v-2zM110.58365,129.39407v-2h2v2zM115.46365,127.39412h2v2h-2zM117.46365,137.23406v2h-2v-2zM111.02365,137.23406v-2h2v2zM115.02365,142.19412v2h-2v-2zM110.06365,144.19412h-2v-2h2zM117.50365,117.51412h2.92v4h-2.92zM122.42365,119.51412v7.4h-4v-7.4zM120.42365,124.91412h2.48v4h-2.48zM124.90365,126.91412v2.48h-4v-2.48zM122.90365,127.39412h2.44v4h-2.44zM127.34365,129.39407v2.48h-4v-2.48zM125.34365,129.8741h2.04v4h-2.04zM125.38365,131.8741v-9.88h4v9.88zM127.38365,119.99412h2.92v4h-2.92zM132.30364,121.99412v7.4h-4v-7.4zM130.30364,127.39412h4.52v4h-4.52zM132.82365,129.39407v-9.88h4v9.88zM134.82365,117.51412h2.88v4h-2.88zM139.70365,119.51412v9.88h-4v-9.88zM137.70365,127.39412h7.4v4h-7.4zM147.10365,129.39407v2.92h-4v-2.92zM145.10365,134.31411h-7.4v-4h7.4zM139.70365,132.31411v6.96h-4v-6.96zM137.70365,137.27409h7.4v4h-7.4zM147.10365,139.27409v2.92h-4v-2.92zM145.10365,144.19412h-7.4v-4h7.4zM139.70365,142.19412v9.44h-4v-9.44zM137.70365,149.63412h9.88v4h-9.88zM149.58363,151.63412v2.96h-4v-2.96zM147.58363,156.59411h-25.12v-4h25.12zM120.46365,154.59411v-2.96h4v2.96zM122.46365,149.63412h12.36v4h-12.36zM132.82365,151.63412v-9.44h4v9.44zM134.82365,144.19412h-7.44v-4h7.44zM125.38365,142.19412v-2.92h4v2.92zM127.38365,137.27409h7.44v4h-7.44zM132.82365,139.27409v-6.96h4v6.96zM134.82365,134.31411h-7v-4h7zM129.82365,132.31411v4.92h-4v-4.92zM127.82365,139.23406h-2.48v-4h2.48zM127.34365,137.23406v2.48h-4v-2.48zM125.34365,141.71409h-2.88v-4h2.88zM120.46365,139.71409v-2.92h4v2.92zM122.46365,134.79412h2.48v4h-2.48zM122.94365,136.79412v-2.04h4v2.04zM124.94365,136.75412h-2.48v-4h2.48zM120.46365,134.75412v-4.92h4v4.92zM122.46365,131.83408h-2.04v-4h2.04zM122.42365,129.83408v27.24h-4v-27.24zM120.42365,159.07412h-2.92v-4h2.92zM115.50365,157.07412v-37.56h4v37.56zM110.06365,134.79412h2.52v4h-2.52zM110.58365,136.79412v-7.4h4v7.4zM112.58365,127.39412h2.88v4h-2.88zM117.46365,129.39407v7.84h-4v-7.84zM115.46365,139.23406h-2.44v-4h2.44zM115.02365,137.23406v4.96h-4v-4.96zM113.02365,144.19412h-2.96v-4h2.96zM108.06365,142.19412v-5.4h4v5.4zM155.06365,135.23406h2v2h-2zM151.02364,137.23406v-2h2v2zM155.02364,144.67407v2h-2v-2zM150.06365,146.67407h-2v-2h2zM148.06365,136.79412v-2h2v2zM154.58363,136.79412v2h-2v-2zM152.58363,130.31411h2v2h-2zM150.06365,134.31411h-2v-2h2zM148.06365,129.39407v-2h2v2zM157.06365,129.39407v2h-2v-2zM153.06365,119.51412v-2h2v2zM157.94365,117.51412h2v2h-2zM157.94365,131.39407h-2v-2h2zM162.90365,127.39412h2v2h-2zM162.90365,133.8741h-2v-2h2zM166.94365,131.8741v2h-2v-2zM162.94365,126.91412v-2h2v2zM169.38365,126.91412v2h-2v-2zM165.38365,119.51412v-2h2v2zM170.30365,117.51412h2v2h-2zM170.30365,126.43412h-2v-2h2zM182.66365,122.43412h2v2h-2zM184.66365,129.83408v2h-2v-2zM178.18365,129.83408v-2h2v2zM182.18365,132.31411v2h-2v-2zM175.70365,132.31411v-2h2v2zM179.70365,134.75412v2h-2v-2zM173.22365,134.75412v-2h2v2zM175.22365,138.79412h-2v-2h2zM180.18365,134.79412h2v2h-2zM180.18365,141.27409h-2v-2h2zM187.58365,137.27409h2v2h-2zM189.58365,142.19412v2h-2v-2zM180.66365,142.19412v-2h2v2zM184.66365,157.07412v2h-2v-2zM179.74365,159.07412h-2v-2h2zM179.74365,152.59411h2v2h-2zM165.82365,154.59411v-2h2v2zM169.82365,157.07412v2h-2v-2zM164.94365,159.07412h-2v-2h2zM164.94365,140.19412h2v2h-2zM162.46365,144.19412h-2v-2h2zM162.46365,137.71409h2v2h-2zM159.98365,141.71409h-2v-2h2zM159.98365,135.23406h2v2h-2zM155.94365,137.23406v-2h2v2zM159.94365,157.07412v2h-2v-2zM155.06365,159.07412h-2v-2h2zM172.78365,129.8741h2v2h-2zM172.78365,136.35412h-2v-2h2zM176.82365,134.35412v2h-2v-2zM172.82365,131.8741v-2h2v2zM179.26365,131.8741v2h-2v-2zM175.26365,129.39407v-2h2v2zM181.74365,129.39407v2h-2v-2zM179.74365,125.35412h2v2h-2zM165.82365,127.35412v-2h2v2zM167.82365,131.39407h-2v-2h2zM170.30365,127.39412h2v2h-2zM170.30365,133.8741h-2v-2h2zM169.38365,139.27409v2h-2v-2zM165.38365,136.79412v-2h2v2zM174.34365,136.79412v2h-2v-2zM172.34365,132.75412h2v2h-2zM169.86365,136.75412h-2v-2h2zM169.86365,130.31411h2v2h-2zM163.34365,132.31411v-2h2v2zM167.34365,134.75412v2h-2v-2zM162.46365,136.75412h-2v-2h2zM162.46365,130.31411h2v2h-2zM155.94365,132.31411v-2h2v2zM157.94365,136.35412h-2v-2h2zM160.42365,132.35412h2v2h-2zM160.42365,138.79412h-2v-2h2zM162.90365,134.79412h2v2h-2zM162.90365,141.27409h-2v-2h2zM181.74365,141.75412v2h-2v-2zM179.74365,137.71409h2v2h-2zM174.82365,141.71409h-2v-2h2zM174.82365,135.23406h2v2h-2zM170.78365,137.23406v-2h2v2zM174.78365,139.71409v2h-2v-2zM165.82365,139.71409v-2h2v2zM167.82365,143.75412h-2v-2h2zM181.74365,151.63412v2h-2v-2zM179.74365,142.67407h2v2h-2zM165.82365,144.67407v-2h2v2zM167.82365,153.63412h-2v-2h2zM155.06365,139.23406h-2.04v-4h2.04zM155.02364,137.23406v7.44h-4v-7.44zM153.02364,146.67407h-2.96v-4h2.96zM148.06365,144.67407v-7.88h4v7.88zM150.06365,134.79412h2.52v4h-2.52zM150.58363,136.79412v-4.48h4v4.48zM152.58363,134.31411h-2.52v-4h2.52zM148.06365,132.31411v-2.92h4v2.92zM150.06365,127.39412h5v4h-5zM153.06365,129.39407v-9.88h4v9.88zM155.06365,117.51412h2.88v4h-2.88zM159.94365,119.51412v9.88h-4v-9.88zM157.94365,127.39412h4.96v4h-4.96zM164.90365,129.39407v2.48h-4v-2.48zM162.90365,129.8741h2.04v4h-2.04zM162.94365,131.8741v-4.96h4v4.96zM164.94365,124.91412h2.44v4h-2.44zM165.38365,126.91412v-7.4h4v7.4zM167.38365,117.51412h2.92v4h-2.92zM172.30365,119.51412v4.92h-4v-4.92zM170.30365,122.43412h12.36v4h-12.36zM184.66365,124.43412v5.4h-4v-5.4zM182.66365,131.83408h-2.48v-4h2.48zM182.18365,129.83408v2.48h-4v-2.48zM180.18365,134.31411h-2.48v-4h2.48zM179.70365,132.31411v2.44h-4v-2.44zM177.70365,136.75412h-2.48v-4h2.48zM177.22365,134.75412v2.04h-4v-2.04zM175.22365,134.79412h4.96v4h-4.96zM182.18365,136.79412v2.48h-4v-2.48zM180.18365,137.27409h7.4v4h-7.4zM189.58365,139.27409v2.92h-4v-2.92zM187.58365,144.19412h-4.92v-4h4.92zM184.66365,142.19412v14.88h-4v-14.88zM182.66365,159.07412h-2.92v-4h2.92zM177.74365,157.07412v-2.48h4v2.48zM179.74365,156.59411h-11.92v-4h11.92zM169.82365,154.59411v2.48h-4v-2.48zM167.82365,159.07412h-2.88v-4h2.88zM162.94365,157.07412v-14.88h4v14.88zM164.94365,144.19412h-2.48v-4h2.48zM160.46365,142.19412v-2.48h4v2.48zM162.46365,141.71409h-2.48v-4h2.48zM157.98365,139.71409v-2.48h4v2.48zM159.98365,139.23406h-2.04v-4h2.04zM159.94365,137.23406v19.84h-4v-19.84zM157.94365,159.07412h-2.88v-4h2.88zM153.06365,157.07412v-19.84h4v19.84zM174.78365,131.8741v2.48h-4v-2.48zM172.78365,132.35412h2.04v4h-2.04zM172.82365,134.35412v-2.48h4v2.48zM174.82365,129.8741h2.44v4h-2.44zM175.26365,131.8741v-2.48h4v2.48zM177.26365,127.39412h2.48v4h-2.48zM177.74365,129.39407v-2.04h4v2.04zM179.74365,129.35412h-11.92v-4h11.92zM169.82365,127.35412v2.04h-4v-2.04zM167.82365,127.39412h2.48v4h-2.48zM172.30365,129.39407v2.48h-4v-2.48zM170.30365,129.8741h2.48v4h-2.48zM165.38365,139.27409v-2.48h4v2.48zM167.38365,134.79412h4.96v4h-4.96zM170.34365,136.79412v-2.04h4v2.04zM172.34365,136.75412h-2.48v-4h2.48zM167.86365,134.75412v-2.44h4v2.44zM169.86365,134.31411h-4.52v-4h4.52zM167.34365,132.31411v2.44h-4v-2.44zM165.34365,136.75412h-2.88v-4h2.88zM160.46365,134.75412v-2.44h4v2.44zM162.46365,134.31411h-4.52v-4h4.52zM159.94365,132.31411v2.04h-4v-2.04zM157.94365,132.35412h2.48v4h-2.48zM162.42365,134.35412v2.44h-4v-2.44zM160.42365,134.79412h2.48v4h-2.48zM164.90365,136.79412v2.48h-4v-2.48zM162.90365,137.27409h4.48v4h-4.48zM177.74365,141.75412v-2.04h4v2.04zM179.74365,141.71409h-4.92v-4h4.92zM172.82365,139.71409v-2.48h4v2.48zM174.82365,139.23406h-2.04v-4h2.04zM174.78365,137.23406v2.48h-4v-2.48zM172.78365,141.71409h-4.96v-4h4.96zM169.82365,139.71409v2.04h-4v-2.04zM167.82365,139.75412h11.92v4h-11.92zM177.74365,151.63412v-6.96h4v6.96zM179.74365,146.67407h-11.92v-4h11.92zM169.82365,144.67407v6.96h-4v-6.96zM167.82365,149.63412h11.92v4h-11.92zM188.06365,129.39407v-2h2v2zM211.86365,129.39407v2h-2v-2zM207.86365,126.91412v-2h2v2zM214.34365,126.91412v2h-2v-2zM210.34365,124.43412v-2h2v2zM216.82365,124.43412v2h-2v-2zM212.82365,119.51412v-2h2v2zM217.70365,117.51412h2v2h-2zM217.70365,126.43412h-2v-2h2zM220.18365,122.43412h2v2h-2zM220.18365,128.91412h-2v-2h2zM222.66365,124.91412h2v2h-2zM222.66365,131.39407h-2v-2h2zM227.58365,127.39412h2v2h-2zM229.58365,132.31411v2h-2v-2zM222.22365,134.31411h-2v-2h2zM222.22365,127.83412h2v2h-2zM219.74365,131.83408h-2v-2h2zM219.74365,125.35412h2v2h-2zM217.26365,129.35412h-2v-2h2zM217.26365,122.87412h2v2h-2zM213.22365,124.87412v-2h2v2zM217.22365,127.35412v2h-2v-2zM210.78365,127.35412v-2h2v2zM214.78365,129.83408v2h-2v-2zM208.30365,129.83408v-2h2v2zM212.30365,132.31411v2h-2v-2zM190.06365,134.31411h-2v-2h2zM190.58365,121.99412v-2h2v2zM202.90365,119.99412h2v2h-2zM204.90365,124.87412v2h-2v-2zM192.58365,126.87412h-2v-2h2zM205.38365,136.79412v-2h2v2zM214.34365,136.79412v2h-2v-2zM210.34365,134.35412v-2h2v2zM219.26365,134.35412v2h-2v-2zM215.26365,131.8741v-2h2v2zM220.18365,129.8741h2v2h-2zM222.18365,134.75412v2h-2v-2zM215.70365,134.75412v-2h2v2zM219.70365,137.23406v2h-2v-2zM210.78365,137.23406v-2h2v2zM214.78365,139.71409v2h-2v-2zM207.38365,141.71409h-2v-2h2zM190.58365,134.35412v-2h2v2zM202.90365,132.35412h2v2h-2zM204.90365,137.23406v2h-2v-2zM192.58365,139.23406h-2v-2h2zM205.38365,144.23406v-2h2v2zM216.82365,144.23406v2h-2v-2zM212.82365,141.75412v-2h2v2zM221.74365,141.75412v2h-2v-2zM217.74365,139.27409v-2h2v2zM222.66365,137.27409h2v2h-2zM224.66365,142.19412v2h-2v-2zM218.18365,142.19412v-2h2v2zM222.18365,144.67407v2h-2v-2zM213.22365,144.67407v-2h2v2zM217.22365,147.11408v2h-2v-2zM207.38365,149.11408h-2v-2h2zM190.58365,139.27409v-2h2v2zM202.90365,137.27409h2v2h-2zM204.90365,142.19412v2h-2v-2zM192.58365,144.19412h-2v-2h2zM190.58365,144.23406v-2h2v2zM202.90365,142.23406h2v2h-2zM204.90365,154.59411v2h-2v-2zM193.46365,154.59411v-2h2v2zM197.46365,157.07412v2h-2v-2zM192.58365,159.07412h-2v-2h2zM216.82365,154.11408v2h-2v-2zM212.82365,151.63412v-2h2v2zM219.26365,151.63412v2h-2v-2zM215.26365,149.19412v-2h2v2zM224.22365,149.19412v2h-2v-2zM220.22365,146.71409v-2h2v2zM226.66365,146.71409v2h-2v-2zM222.66365,144.23406v-2h2v2zM227.58365,142.23406h2v2h-2zM229.58365,147.11408v2h-2v-2zM223.10365,147.11408v-2h2v2zM227.10365,149.59411v2h-2v-2zM220.66365,149.59411v-2h2v2zM224.66365,152.07412v2h-2v-2zM215.70365,152.07412v-2h2v2zM219.70365,154.59411v2h-2v-2zM213.22365,154.59411v-2h2v2zM217.22365,157.07412v2h-2v-2zM207.38365,159.07412h-2v-2h2zM205.38365,154.11408v-2h2v2zM201.98365,151.63412v2h-2v-2zM199.98365,145.11408h2v2h-2zM193.46365,147.11408v-2h2v2zM195.46365,153.63412h-2v-2h2zM190.06365,127.39412h19.8v4h-19.8zM207.86365,129.39407v-2.48h4v2.48zM209.86365,124.91412h2.48v4h-2.48zM210.34365,126.91412v-2.48h4v2.48zM212.34365,122.43412h2.48v4h-2.48zM212.82365,124.43412v-4.92h4v4.92zM214.82365,117.51412h2.88v4h-2.88zM219.70365,119.51412v4.92h-4v-4.92zM217.70365,122.43412h2.48v4h-2.48zM222.18365,124.43412v2.48h-4v-2.48zM220.18365,124.91412h2.48v4h-2.48zM224.66365,126.91412v2.48h-4v-2.48zM222.66365,127.39412h4.92v4h-4.92zM229.58365,129.39407v2.92h-4v-2.92zM227.58365,134.31411h-5.36v-4h5.36zM220.22365,132.31411v-2.48h4v2.48zM222.22365,131.83408h-2.48v-4h2.48zM217.74365,129.83408v-2.48h4v2.48zM219.74365,129.35412h-2.48v-4h2.48zM215.26365,127.35412v-2.48h4v2.48zM217.26365,126.87412h-2.04v-4h2.04zM217.22365,124.87412v2.48h-4v-2.48zM215.22365,129.35412h-2.44v-4h2.44zM214.78365,127.35412v2.48h-4v-2.48zM212.78365,131.83408h-2.48v-4h2.48zM212.30365,129.83408v2.48h-4v-2.48zM210.30365,134.31411h-20.24v-4h20.24zM188.06365,132.31411v-2.92h4v2.92zM192.58365,119.99412h10.32v4h-10.32zM204.90365,121.99412v2.88h-4v-2.88zM202.90365,126.87412h-10.32v-4h10.32zM190.58365,124.87412v-2.88h4v2.88zM207.38365,134.79412h4.96v4h-4.96zM210.34365,136.79412v-2.44h4v2.44zM212.34365,132.35412h4.92v4h-4.92zM215.26365,134.35412v-2.48h4v2.48zM217.26365,129.8741h2.92v4h-2.92zM222.18365,131.8741v2.88h-4v-2.88zM220.18365,136.75412h-2.48v-4h2.48zM219.70365,134.75412v2.48h-4v-2.48zM217.70365,139.23406h-4.92v-4h4.92zM214.78365,137.23406v2.48h-4v-2.48zM212.78365,141.71409h-5.4v-4h5.4zM205.38365,139.71409v-2.92h4v2.92zM192.58365,132.35412h10.32v4h-10.32zM204.90365,134.35412v2.88h-4v-2.88zM202.90365,139.23406h-10.32v-4h10.32zM190.58365,137.23406v-2.88h4v2.88zM207.38365,142.23406h7.44v4h-7.44zM212.82365,144.23406v-2.48h4v2.48zM214.82365,139.75412h4.92v4h-4.92zM217.74365,141.75412v-2.48h4v2.48zM219.74365,137.27409h2.92v4h-2.92zM224.66365,139.27409v2.92h-4v-2.92zM222.66365,144.19412h-2.48v-4h2.48zM222.18365,142.19412v2.48h-4v-2.48zM220.18365,146.67407h-4.96v-4h4.96zM217.22365,144.67407v2.44h-4v-2.44zM215.22365,149.11408h-7.84v-4h7.84zM205.38365,147.11408v-2.88h4v2.88zM192.58365,137.27409h10.32v4h-10.32zM204.90365,139.27409v2.92h-4v-2.92zM202.90365,144.19412h-10.32v-4h10.32zM190.58365,142.19412v-2.92h4v2.92zM192.58365,142.23406h10.32v4h-10.32zM204.90365,144.23406v10.36h-4v-10.36zM202.90365,156.59411h-7.44v-4h7.44zM197.46365,154.59411v2.48h-4v-2.48zM195.46365,159.07412h-2.88v-4h2.88zM190.58365,157.07412v-12.84h4v12.84zM212.82365,154.11408v-2.48h4v2.48zM214.82365,149.63412h2.44v4h-2.44zM215.26365,151.63412v-2.44h4v2.44zM217.26365,147.19412h4.96v4h-4.96zM220.22365,149.19412v-2.48h4v2.48zM222.22365,144.71409h2.44v4h-2.44zM222.66365,146.71409v-2.48h4v2.48zM224.66365,142.23406h2.92v4h-2.92zM229.58365,144.23406v2.88h-4v-2.88zM227.58365,149.11408h-2.48v-4h2.48zM227.10365,147.11408v2.48h-4v-2.48zM225.10365,151.59411h-2.44v-4h2.44zM224.66365,149.59411v2.48h-4v-2.48zM222.66365,154.07412h-4.96v-4h4.96zM219.70365,152.07412v2.52h-4v-2.52zM217.70365,156.59411h-2.48v-4h2.48zM217.22365,154.59411v2.48h-4v-2.48zM215.22365,159.07412h-7.84v-4h7.84zM205.38365,157.07412v-2.96h4v2.96zM207.38365,152.11408h7.44v4h-7.44zM197.98365,151.63412v-4.52h4v4.52zM199.98365,149.11408h-4.52v-4h4.52zM197.46365,147.11408v4.52h-4v-4.52zM195.46365,149.63412h4.52v4h-4.52zM229.30365,121.99412v-2h2v2zM236.66365,119.99412h2v2h-2zM236.66365,126.43412h-2v-2h2zM239.14365,122.43412h2v2h-2zM239.14365,128.91412h-2v-2h2zM243.18365,126.91412v2h-2v-2zM239.18365,119.51412v-2h2v2zM244.06365,117.51412h2v2h-2zM244.06365,128.91412h-2v-2h2zM248.10365,126.91412v2h-2v-2zM244.10365,121.99412v-2h2v2zM249.02365,119.99412h2v2h-2zM251.02365,127.35412v2h-2v-2zM244.54365,127.35412v-2h2v2zM248.54365,129.83408v2h-2v-2zM242.06365,129.83408v-2h2v2zM244.06365,133.8741h-2v-2h2zM249.02365,129.8741h2v2h-2zM251.02365,134.75412v2h-2v-2zM244.54365,134.75412v-2h2v2zM246.54365,138.79412h-2v-2h2zM249.02365,134.79412h2v2h-2zM251.02365,144.67407v2h-2v-2zM246.10365,146.67407h-2v-2h2zM246.10365,135.23406h2v2h-2zM242.06365,137.23406v-2h2v2zM246.06365,149.59411v2h-2v-2zM241.18365,151.59411h-2v-2h2zM241.18365,137.71409h2v2h-2zM237.14365,139.71409v-2h2v2zM241.14365,144.67407v2h-2v-2zM234.66365,144.67407v-2h2v2zM238.66365,147.11408v2h-2v-2zM232.18365,147.11408v-2h2v2zM234.18365,153.63412h-2v-2h2zM253.06365,151.63412v2h-2v-2zM249.06365,121.99412v-2h2v2zM260.46365,121.99412v2h-2v-2zM256.46365,119.51412v-2h2v2zM263.82365,117.51412h2v2h-2zM265.82365,122.39412v2h-2v-2zM256.90365,122.39412v-2h2v2zM260.90365,124.87412v2h-2v-2zM251.94365,124.87412v-2h2v2zM253.94365,133.8741h-2v-2h2zM266.30365,129.8741h2v2h-2zM268.30365,134.75412v2h-2v-2zM259.38365,134.75412v-2h2v2zM263.38365,157.07412v2h-2v-2zM258.46365,159.07412h-2v-2h2zM258.46365,132.75412h2v2h-2zM251.94365,134.75412v-2h2v2zM255.94365,152.07412v2h-2v-2zM249.50365,152.07412v-2h2v2zM253.50365,157.07412v2h-2v-2zM248.58365,159.07412h-2v-2h2zM248.58365,152.59411h2v2h-2zM232.18365,154.59411v-2h2v2zM236.18365,157.07412v2h-2v-2zM231.30365,159.07412h-2v-2h2zM243.18365,131.8741v2h-2v-2zM241.18365,127.83412h2v2h-2zM238.70365,131.83408h-2v-2h2zM238.70365,125.35412h2v2h-2zM236.22365,129.35412h-2v-2h2zM236.22365,122.87412h2v2h-2zM232.18365,124.87412v-2h2v2zM234.18365,133.8741h-2v-2h2zM238.22365,144.23406v2h-2v-2zM234.22365,139.27409v-2h2v2zM240.70365,139.27409v2h-2v-2zM236.70365,136.79412v-2h2v2zM243.18365,136.79412v2h-2v-2zM241.18365,132.75412h2v2h-2zM232.18365,134.75412v-2h2v2zM234.18365,146.23406h-2v-2h2zM231.30365,119.99412h5.36v4h-5.36zM238.66365,121.99412v2.44h-4v-2.44zM236.66365,122.43412h2.48v4h-2.48zM241.14365,124.43412v2.48h-4v-2.48zM239.14365,124.91412h2.04v4h-2.04zM239.18365,126.91412v-7.4h4v7.4zM241.18365,117.51412h2.88v4h-2.88zM246.06365,119.51412v7.4h-4v-7.4zM244.06365,124.91412h2.04v4h-2.04zM244.10365,126.91412v-4.92h4v4.92zM246.10365,119.99412h2.92v4h-2.92zM251.02365,121.99412v5.36h-4v-5.36zM249.02365,129.35412h-2.48v-4h2.48zM248.54365,127.35412v2.48h-4v-2.48zM246.54365,131.83408h-2.48v-4h2.48zM246.06365,129.83408v2.04h-4v-2.04zM244.06365,129.8741h4.96v4h-4.96zM251.02365,131.8741v2.88h-4v-2.88zM249.02365,136.75412h-2.48v-4h2.48zM248.54365,134.75412v2.04h-4v-2.04zM246.54365,134.79412h2.48v4h-2.48zM251.02365,136.79412v7.88h-4v-7.88zM249.02365,146.67407h-2.92v-4h2.92zM244.10365,144.67407v-7.44h4v7.44zM246.10365,139.23406h-2.04v-4h2.04zM246.06365,137.23406v12.36h-4v-12.36zM244.06365,151.59411h-2.88v-4h2.88zM239.18365,149.59411v-9.88h4v9.88zM241.18365,141.71409h-2.04v-4h2.04zM241.14365,139.71409v4.96h-4v-4.96zM239.14365,146.67407h-2.48v-4h2.48zM238.66365,144.67407v2.44h-4v-2.44zM236.66365,149.11408h-2.48v-4h2.48zM236.18365,147.11408v4.52h-4v-4.52zM234.18365,149.63412h16.88v4h-16.88zM249.06365,151.63412v-29.64h4v29.64zM251.06365,119.99412h7.4v4h-7.4zM256.46365,121.99412v-2.48h4v2.48zM258.46365,117.51412h5.36v4h-5.36zM265.82365,119.51412v2.88h-4v-2.88zM263.82365,124.39412h-4.92v-4h4.92zM260.90365,122.39412v2.48h-4v-2.48zM258.90365,126.87412h-4.96v-4h4.96zM255.94365,124.87412v7h-4v-7zM253.94365,129.8741h12.36v4h-12.36zM268.30365,131.8741v2.88h-4v-2.88zM266.30365,136.75412h-4.92v-4h4.92zM263.38365,134.75412v22.32h-4v-22.32zM261.38365,159.07412h-2.92v-4h2.92zM256.46365,157.07412v-22.32h4v22.32zM258.46365,136.75412h-4.52v-4h4.52zM255.94365,134.75412v17.32h-4v-17.32zM253.94365,154.07412h-2.44v-4h2.44zM253.50365,152.07412v5h-4v-5zM251.50365,159.07412h-2.92v-4h2.92zM246.58365,157.07412v-2.48h4v2.48zM248.58365,156.59411h-14.4v-4h14.4zM236.18365,154.59411v2.48h-4v-2.48zM234.18365,159.07412h-2.88v-4h2.88zM229.30365,157.07412v-35.08h4v35.08zM239.18365,131.8741v-2.04h4v2.04zM241.18365,131.83408h-2.48v-4h2.48zM236.70365,129.83408v-2.48h4v2.48zM238.70365,129.35412h-2.48v-4h2.48zM234.22365,127.35412v-2.48h4v2.48zM236.22365,126.87412h-2.04v-4h2.04zM236.18365,124.87412v7h-4v-7zM234.18365,129.8741h7v4h-7zM234.22365,144.23406v-4.96h4v4.96zM236.22365,137.27409h2.48v4h-2.48zM236.70365,139.27409v-2.48h4v2.48zM238.70365,134.79412h2.48v4h-2.48zM239.18365,136.79412v-2.04h4v2.04zM241.18365,136.75412h-7v-4h7zM236.18365,134.75412v9.48h-4v-9.48zM234.18365,142.23406h2.04v4h-2.04zM297.26365,120.43412h2v2h-2zM294.82365,124.43412h-2v-2h2zM292.82365,119.55412v-2h2v2zM297.70365,117.55412h2v2h-2zM297.70365,124.03412h-2v-2h2zM301.74365,122.03412v2h-2v-2zM297.74365,119.55412v-2h2v2zM302.66364,117.55412h2v2h-2zM302.66364,124.03412h-2v-2h2zM305.10364,120.03412h2v2h-2zM305.10364,126.47412h-2v-2h2zM307.58365,122.47412h2v2h-2zM309.58365,127.39412v2h-2v-2zM304.66364,129.39407h-2v-2h2zM304.66364,122.91412h2v2h-2zM300.66364,124.91412v-2h2v2zM304.66364,127.39412v2h-2v-2zM299.74365,129.39407h-2v-2h2zM299.74365,122.91412h2v2h-2zM297.26365,126.91412h-2v-2h2zM281.98365,154.1541v2h-2v-2zM277.98365,151.67407v-2h2v2zM286.94365,151.67407v2h-2v-2zM282.94365,149.23406v-2h2v2zM289.38365,149.23406v2h-2v-2zM285.38365,144.27409v-2h2v2zM291.86365,144.27409v2h-2v-2zM287.86365,139.31411v-2h2v2zM294.34364,139.31411v2h-2v-2zM292.34364,130.35412h2v2h-2zM275.94365,132.35412v-2h2v2zM279.94365,137.27409v2h-2v-2zM273.46365,137.27409v-2h2v2zM277.46365,139.75412v2h-2v-2zM271.02365,139.75412v-2h2v2zM275.02365,142.23406v2h-2v-2zM270.06365,144.23406h-2v-2h2zM268.06365,139.31411v-2h2v2zM274.58365,139.31411v2h-2v-2zM270.58365,136.83408v-2h2v2zM277.06365,136.83408v2h-2v-2zM273.06365,131.91412v-2h2v2zM279.50365,131.91412v2h-2v-2zM275.50365,126.95412v-2h2v2zM281.98365,126.95412v2h-2v-2zM277.98365,122.03412v-2h2v2zM282.90365,120.03412h2v2h-2zM284.90365,127.39412v2h-2v-2zM278.42365,127.39412v-2h2v2zM280.42365,131.4341h-2v-2h2zM305.10364,127.43412h2v2h-2zM307.10364,132.35412v2h-2v-2zM293.22364,132.35412v-2h2v2zM297.22364,139.75412v2h-2v-2zM290.78364,139.75412v-2h2v2zM294.78364,144.71409v2h-2v-2zM288.30365,144.71409v-2h2v2zM292.30365,149.63412v2h-2v-2zM285.82365,149.63412v-2h2v2zM289.82365,152.11408v2h-2v-2zM283.34364,152.11408v-2h2v2zM287.34364,154.63412v2h-2v-2zM278.42365,154.63412v-2h2v2zM282.42365,157.11408v2h-2v-2zM275.06365,159.11408h-2v-2h2zM273.06365,154.1541v-2h2v2zM304.22364,124.47412v2h-2v-2zM302.22364,120.43412h2v2h-2zM298.18365,122.43412v-2h2v2zM300.18365,126.47412h-2v-2h2zM297.26365,124.43412h-2.44v-4h2.44zM292.82365,122.43412v-2.88h4v2.88zM294.82365,117.55412h2.88v4h-2.88zM299.70365,119.55412v2.48h-4v-2.48zM297.70365,120.03412h2.04v4h-2.04zM297.74365,122.03412v-2.48h4v2.48zM299.74365,117.55412h2.92v4h-2.92zM304.66364,119.55412v2.48h-4v-2.48zM302.66364,120.03412h2.44v4h-2.44zM307.10364,122.03412v2.44h-4v-2.44zM305.10364,122.47412h2.48v4h-2.48zM309.58365,124.47412v2.92h-4v-2.92zM307.58365,129.39407h-2.92v-4h2.92zM302.66364,127.39412v-2.48h4v2.48zM304.66364,126.91412h-2v-4h2zM304.66364,124.91412v2.48h-4v-2.48zM302.66364,129.39407h-2.92v-4h2.92zM297.74365,127.39412v-2.48h4v2.48zM299.74365,126.91412h-2.48v-4h2.48zM295.26365,124.91412v-2.48h4v2.48zM277.98365,154.1541v-2.48h4v2.48zM279.98365,149.67407h4.96v4h-4.96zM282.94365,151.67407v-2.44h4v2.44zM284.94365,147.23406h2.44v4h-2.44zM285.38365,149.23406v-4.96h4v4.96zM287.38365,142.27409h2.48v4h-2.48zM287.86365,144.27409v-4.96h4v4.96zM289.86365,137.31411h2.48v4h-2.48zM290.34364,139.31411v-6.96h4v6.96zM292.34364,134.35412h-14.4v-4h14.4zM279.94365,132.35412v4.92h-4v-4.92zM277.94365,139.27409h-2.48v-4h2.48zM277.46365,137.27409v2.48h-4v-2.48zM275.46365,141.75412h-2.44v-4h2.44zM275.02365,139.75412v2.48h-4v-2.48zM273.02365,144.23406h-2.96v-4h2.96zM268.06365,142.23406v-2.92h4v2.92zM270.06365,137.31411h2.52v4h-2.52zM270.58365,139.31411v-2.48h4v2.48zM272.58365,134.83408h2.48v4h-2.48zM273.06365,136.83408v-4.92h4v4.92zM275.06365,129.91412h2.44v4h-2.44zM275.50365,131.91412v-4.96h4v4.96zM277.50365,124.95412h2.48v4h-2.48zM277.98365,126.95412v-4.92h4v4.92zM279.98365,120.03412h2.92v4h-2.92zM284.90365,122.03412v5.36h-4v-5.36zM282.90365,129.39407h-2.48v-4h2.48zM282.42365,127.39412v2.04h-4v-2.04zM280.42365,127.43412h24.68v4h-24.68zM307.10364,129.4341v2.92h-4v-2.92zM305.10364,134.35412h-9.88v-4h9.88zM297.22364,132.35412v7.4h-4v-7.4zM295.22364,141.75412h-2.44v-4h2.44zM294.78364,139.75412v4.96h-4v-4.96zM292.78364,146.71409h-2.48v-4h2.48zM292.30365,144.71409v4.92h-4v-4.92zM290.30365,151.63412h-2.48v-4h2.48zM289.82365,149.63412v2.48h-4v-2.48zM287.82365,154.11408h-2.48v-4h2.48zM287.34364,152.11408v2.52h-4v-2.52zM285.34364,156.63412h-4.92v-4h4.92zM282.42365,154.63412v2.48h-4v-2.48zM280.42365,159.11408h-5.36v-4h5.36zM273.06365,157.11408v-2.96h4v2.96zM275.06365,152.1541h4.92v4h-4.92zM300.22364,124.47412v-2.04h4v2.04zM302.22364,124.43412h-2.04v-4h2.04zM302.18365,122.43412v2.04h-4v-2.04zM300.18365,122.47412h2.04v4h-2.04zM311.78364,136.83408v-2h2v2zM343.86365,134.83408h2v2h-2zM345.86365,139.75412v2h-2v-2zM313.78364,141.75412h-2v-2h2zM313.78364,134.83408h30.08v4h-30.08zM345.86365,136.83408v2.92h-4v-2.92zM343.86365,141.75412h-30.08v-4h30.08zM311.78364,139.75412v-2.92h4v2.92zM349.30365,151.67407v-2h2v2zM358.30365,151.67407v2h-2v-2zM354.30365,146.75412v-2h2v2zM360.74365,146.75412v2h-2v-2zM356.74365,141.79412v-2h2v2zM363.22365,141.79412v2h-2v-2zM359.22365,134.39407v-2h2v2zM365.70365,134.39407v2h-2v-2zM361.70365,129.4341v-2h2v2zM368.18365,129.4341v2h-2v-2zM364.18365,122.03412v-2h2v2zM369.06365,120.03412h2v2h-2zM371.06365,129.8741v2h-2v-2zM364.58365,129.8741v-2h2v2zM368.58365,134.79412v2h-2v-2zM362.14365,134.79412v-2h2v2zM366.14365,142.23406v2h-2v-2zM359.66365,142.23406v-2h2v2zM363.66365,147.1541v2h-2v-2zM357.18365,147.1541v-2h2v2zM359.18365,153.67407h-2v-2h2zM370.62365,151.67407v2h-2v-2zM366.62365,149.23406v-2h2v2zM382.98365,149.23406v2h-2v-2zM380.98365,145.1541h2v2h-2zM378.50365,149.1541h-2v-2h2zM378.50365,142.71409h2v2h-2zM376.06365,146.71409h-2v-2h2zM376.06365,137.75412h2v2h-2zM373.58365,141.75412h-2v-2h2zM371.58365,136.83408v-2h2v2zM376.46365,134.83408h2v2h-2zM376.46365,141.31411h-2v-2h2zM378.94365,137.31411h2v2h-2zM378.94365,146.27409h-2v-2h2zM381.42365,142.27409h2v2h-2zM381.42365,148.75412h-2v-2h2zM383.90365,144.75412h2v2h-2zM383.90365,153.67407h-2v-2h2zM386.34365,149.67407h2v2h-2zM388.34365,157.11408v2h-2v-2zM383.46365,159.11408h-2v-2h2zM383.46365,150.11408h2v2h-2zM367.06365,152.11408v-2h2v2zM371.06365,154.63412v2h-2v-2zM351.30365,156.63412h-2v-2h2zM351.30365,149.67407h5v4h-5zM354.30365,151.67407v-4.92h4v4.92zM356.30365,144.75412h2.44v4h-2.44zM356.74365,146.75412v-4.96h4v4.96zM358.74365,139.79412h2.48v4h-2.48zM359.22365,141.79412v-7.4h4v7.4zM361.22365,132.39407h2.48v4h-2.48zM361.70365,134.39407v-4.96h4v4.96zM363.70365,127.43412h2.48v4h-2.48zM364.18365,129.4341v-7.4h4v7.4zM366.18365,120.03412h2.88v4h-2.88zM371.06365,122.03412v7.84h-4v-7.84zM369.06365,131.8741h-2.48v-4h2.48zM368.58365,129.8741v4.92h-4v-4.92zM366.58365,136.79412h-2.44v-4h2.44zM366.14365,134.79412v7.44h-4v-7.44zM364.14365,144.23406h-2.48v-4h2.48zM363.66365,142.23406v4.92h-4v-4.92zM361.66365,149.1541h-2.48v-4h2.48zM361.18365,147.1541v4.52h-4v-4.52zM359.18365,149.67407h9.44v4h-9.44zM366.62365,151.67407v-2.44h4v2.44zM368.62365,147.23406h12.36v4h-12.36zM378.98365,149.23406v-2.08h4v2.08zM380.98365,149.1541h-2.48v-4h2.48zM376.50365,147.1541v-2.44h4v2.44zM378.50365,146.71409h-2.44v-4h2.44zM374.06365,144.71409v-4.96h4v4.96zM376.06365,141.75412h-2.48v-4h2.48zM371.58365,139.75412v-2.92h4v2.92zM373.58365,134.83408h2.88v4h-2.88zM378.46365,136.83408v2.48h-4v-2.48zM376.46365,137.31411h2.48v4h-2.48zM380.94365,139.31411v4.96h-4v-4.96zM378.94365,142.27409h2.48v4h-2.48zM383.42365,144.27409v2.48h-4v-2.48zM381.42365,144.75412h2.48v4h-2.48zM385.90365,146.75412v4.92h-4v-4.92zM383.90365,149.67407h2.44v4h-2.44zM388.34365,151.67407v5.44h-4v-5.44zM386.34365,159.11408h-2.88v-4h2.88zM381.46365,157.11408v-5h4v5zM383.46365,154.11408h-14.4v-4h14.4zM371.06365,152.11408v2.52h-4v-2.52zM369.06365,156.63412h-17.76v-4h17.76zM349.30365,154.63412v-2.96h4v2.96z" fill="#ffffff" stroke="none"/><path d="M117.50365,119.51412h2.92v7.4h2.48v2.48h2.44v2.48h2.04v-9.88h2.92v7.4h4.52v-9.88h2.88v9.88h7.4v2.92h-7.4v6.96h7.4v2.92h-7.4v9.44h9.88v2.96h-25.12v-2.96h12.36v-9.44h-7.44v-2.92h7.44v-6.96h-7v4.92h-2.48v2.48h-2.88v-2.92h2.48v-2.04h-2.48v-4.92h-2.04v27.24h-2.92zM110.06365,136.79412h2.52v-7.4h2.88v7.84h-2.44v4.96h-2.96zM155.06365,137.23406h-2.04v7.44h-2.96v-7.88h2.52v-4.48h-2.52v-2.92h5v-9.88h2.88v9.88h4.96v2.48h2.04v-4.96h2.44v-7.4h2.92v4.92h12.36v5.4h-2.48v2.48h-2.48v2.44h-2.48v2.04h4.96v2.48h7.4v2.92h-4.92v14.88h-2.92v-2.48h-11.92v2.48h-2.88v-14.88h-2.48v-2.48h-2.48v-2.48h-2.04v19.84h-2.88zM172.78365,131.8741v2.48h2.04v-2.48h2.44v-2.48h2.48v-2.04h-11.92v2.04h2.48v2.48zM167.38365,139.27409v-2.48h4.96v-2.04h-2.48v-2.44h-4.52v2.44h-2.88v-2.44h-4.52v2.04h2.48v2.44h2.48v2.48zM179.74365,141.75412v-2.04h-4.92v-2.48h-2.04v2.48h-4.96v2.04zM179.74365,151.63412v-6.96h-11.92v6.96zM190.06365,129.39407h19.8v-2.48h2.48v-2.48h2.48v-4.92h2.88v4.92h2.48v2.48h2.48v2.48h4.92v2.92h-5.36v-2.48h-2.48v-2.48h-2.48v-2.48h-2.04v2.48h-2.44v2.48h-2.48v2.48h-20.24zM192.58365,121.99412h10.32v2.88h-10.32zM207.38365,136.79412h4.96v-2.44h4.92v-2.48h2.92v2.88h-2.48v2.48h-4.92v2.48h-5.4zM192.58365,134.35412h10.32v2.88h-10.32zM207.38365,144.23406h7.44v-2.48h4.92v-2.48h2.92v2.92h-2.48v2.48h-4.96v2.44h-7.84zM192.58365,139.27409h10.32v2.92h-10.32zM192.58365,144.23406h10.32v10.36h-7.44v2.48h-2.88zM214.82365,154.11408v-2.48h2.44v-2.44h4.96v-2.48h2.44v-2.48h2.92v2.88h-2.48v2.48h-2.44v2.48h-4.96v2.52h-2.48v2.48h-7.84v-2.96zM199.98365,151.63412v-4.52h-4.52v4.52zM231.30365,121.99412h5.36v2.44h2.48v2.48h2.04v-7.4h2.88v7.4h2.04v-4.92h2.92v5.36h-2.48v2.48h-2.48v2.04h4.96v2.88h-2.48v2.04h2.48v7.88h-2.92v-7.44h-2.04v12.36h-2.88v-9.88h-2.04v4.96h-2.48v2.44h-2.48v4.52h16.88v-29.64h7.4v-2.48h5.36v2.88h-4.92v2.48h-4.96v7h12.36v2.88h-4.92v22.32h-2.92v-22.32h-4.52v17.32h-2.44v5h-2.92v-2.48h-14.4v2.48h-2.88zM241.18365,131.8741v-2.04h-2.48v-2.48h-2.48v-2.48h-2.04v7zM236.22365,144.23406v-4.96h2.48v-2.48h2.48v-2.04h-7v9.48zM297.26365,122.43412h-2.44v-2.88h2.88v2.48h2.04v-2.48h2.92v2.48h2.44v2.44h2.48v2.92h-2.92v-2.48h-2v2.48h-2.92v-2.48h-2.48zM279.98365,154.1541v-2.48h4.96v-2.44h2.44v-4.96h2.48v-4.96h2.48v-6.96h-14.4v4.92h-2.48v2.48h-2.44v2.48h-2.96v-2.92h2.52v-2.48h2.48v-4.92h2.44v-4.96h2.48v-4.92h2.92v5.36h-2.48v2.04h24.68v2.92h-9.88v7.4h-2.44v4.96h-2.48v4.92h-2.48v2.48h-2.48v2.52h-4.92v2.48h-5.36v-2.96zM302.22364,124.47412v-2.04h-2.04v2.04zM313.78364,136.83408h30.08v2.92h-30.08zM351.30365,151.67407h5v-4.92h2.44v-4.96h2.48v-7.4h2.48v-4.96h2.48v-7.4h2.88v7.84h-2.48v4.92h-2.44v7.44h-2.48v4.92h-2.48v4.52h9.44v-2.44h12.36v-2.08h-2.48v-2.44h-2.44v-4.96h-2.48v-2.92h2.88v2.48h2.48v4.96h2.48v2.48h2.48v4.92h2.44v5.44h-2.88v-5h-14.4v2.52h-17.76z" fill="#000000" stroke="none"/><g><path d="M332.58054,190.85049c-3.26598,-0.56038 -4.63988,-5.11883 -4.63988,-5.11883c0,0 2.33448,-16.92465 3.30695,-22.5923c0.45438,-2.64816 2.17404,-3.61065 2.17404,-3.61065c0,0 1.47359,-1.7633 4.73957,-1.20292l74.90537,12.85248c3.26598,0.56038 4.78141,4.97731 4.78141,4.97731l-4.29849,25.11172c0,0 -2.79762,2.99606 -6.0636,2.43568z" fill="#848484" stroke="none"/><path d="M332.66486,190.35734c-2.99381,-0.51369 -4.00555,-2.34534 -4.00555,-2.34534c0,0 -0.92901,-1.41852 -0.26868,-5.26696c1.12859,-6.5775 2.76576,-16.11908 3.35323,-19.54291c0.41917,-2.44298 2.21625,-3.74865 2.21625,-3.74865c0,0 1.12251,-1.14893 4.11632,-0.63524l74.90536,12.85248c2.99381,0.51369 3.73052,1.98653 3.73052,1.98653c0,0 1.24143,1.55945 0.84894,3.84688c-0.63438,3.69723 -2.58684,15.07635 -3.72415,21.70466c-0.50267,2.92961 -1.89621,3.431 -1.89621,3.431c0,0 -1.37687,1.08372 -4.37068,0.57003z" fill="none" stroke="#000000"/></g><path d="M342.87265,171.84712l7.303,1.253l0.294,-1.715l-6.692,-1.148l0.124,-0.72l6.692,1.149l0.191,-1.114l-7.303,-1.253l0.121,-0.71l3.647,0.626l0.628,-3.657l0.719,0.124l-0.627,3.656l3.646,0.626l-0.96,5.598l-0.71,-0.122l0.105,-0.611l-7.303,-1.253zM345.72265,166.17711l-0.611,-0.105l0.105,-0.611l-0.602,-0.103l0.122,-0.71l0.71,0.122l-0.103,0.601l0.611,0.105l-0.105,0.611l0.611,0.105l-0.228,1.331l-0.72,-0.124zM349.29265,167.30712l0.601,0.103l0.105,-0.611l0.611,0.105l0.208,-1.212l0.72,0.123l-0.227,1.321l-0.611,-0.105l-0.105,0.611l-0.611,-0.105l-0.105,0.611l-0.709,-0.121zM355.49265,170.25812l0.611,0.105l0.104,-0.601l0.611,0.105l0.104,-0.611l0.602,0.103l0.105,-0.611l0.611,0.105l0.086,-0.503l-4.879,-0.837l0.124,-0.72l8.633,1.482l-0.123,0.719l-2.434,-0.417l-0.105,0.611l-1.213,-0.208l-0.104,0.611l-0.612,-0.105l-0.103,0.601l-0.611,-0.105l-0.105,0.611l-0.601,-0.103l-0.401,2.336l0.602,0.103l-0.105,0.611l0.611,0.105l-0.103,0.601l3.045,0.523l-0.125,0.729l-3.154,-0.541l0.107,-0.621l-1.213,-0.208l0.21,-1.222l-0.611,-0.105zM364.61365,174.34012l0.612,0.104l0.104,-0.611l3.046,0.523l0.504,-2.937l-3.657,-0.628l0.124,-0.719l3.656,0.627l0.313,-1.823l0.71,0.122l-0.313,1.823l1.823,0.313l-0.123,0.719l-1.824,-0.312l-0.608,3.548l0.611,0.105l-0.105,0.611l0.611,0.104l-0.103,0.602l0.601,0.103l-0.125,0.729l-0.71,-0.122l0.107,-0.62l-0.611,-0.105l0.105,-0.611l-0.503,-0.087l-0.105,0.611l-0.611,-0.104l-0.107,0.62l-3.144,-0.539l0.107,-0.621l-0.611,-0.105zM363.62765,169.14812l0.611,0.105l0.208,-1.212l0.71,0.121l-0.227,1.321l-0.611,-0.105l-1.151,6.712l-0.71,-0.122zM368.06265,176.17912l0.191,-1.113l-2.937,-0.504l-0.191,1.113zM372.95265,175.77012l0.611,0.105l0.105,-0.611l3.035,0.521l0.296,-1.725l-3.647,-0.626l0.122,-0.709l3.647,0.625l0.191,-1.113l-3.647,-0.626l0.124,-0.719l3.646,0.625l0.313,-1.823l0.72,0.123l-0.313,1.824l3.045,0.522l-0.123,0.72l-3.046,-0.523l-0.191,1.114l3.046,0.522l-0.122,0.71l-3.045,-0.522l-0.401,2.335l1.212,0.208l-0.105,0.611l0.611,0.105l-0.103,0.602l0.611,0.104l-0.105,0.611l0.611,0.105l-0.125,0.73l-0.719,-0.124l0.105,-0.611l-0.611,-0.105l0.106,-0.621l-0.601,-0.103l0.105,-0.611l-1.114,-0.191l-0.211,1.232l-0.611,-0.105l-0.105,0.611l-3.144,-0.539l0.105,-0.611l-0.612,-0.105zM376.28565,178.21912l0.296,-1.725l-2.937,-0.503l-0.296,1.724zM383.41965,177.56612l0.601,0.103l0.105,-0.611l1.932,0.332l-0.105,0.611l0.611,0.105l-0.208,1.212l1.725,0.296l0.103,-0.601l0.601,0.103l0.105,-0.611l0.611,0.105l0.191,-1.114l-0.611,-0.105l0.105,-0.611l-4.15,-0.712l-0.105,0.611l-1.222,-0.21l-0.105,0.611l-0.709,-0.121l0.123,-0.72l0.611,0.105l0.105,-0.611l1.213,0.208l0.104,-0.611l0.611,0.105l0.104,-0.601l0.611,0.104l0.105,-0.611l1.212,0.208l0.105,-0.611l0.611,0.105l0.086,-0.503l-4.258,-0.73l0.124,-0.72l5.578,0.958l-0.123,0.719l-0.611,-0.105l-0.105,0.611l-0.601,-0.103l-0.105,0.611l-0.611,-0.105l-0.104,0.602l-1.222,-0.21l-0.086,0.503l3.046,0.522l-0.105,0.611l0.611,0.105l-0.105,0.611l0.611,0.105l-0.227,1.321l-0.611,-0.105l-0.209,1.222l-1.223,-0.21l-0.106,0.621l-4.366,-0.749l0.106,-0.621l-0.601,-0.103zM385.64565,179.19612l0.191,-1.114l-1.725,-0.295l-0.191,1.113zM340.50465,185.64512l7.304,1.253l0.294,-1.715l-6.692,-1.148l0.123,-0.719l6.692,1.148l0.191,-1.114l-7.303,-1.253l0.122,-0.71l3.647,0.626l0.627,-3.656l0.719,0.123l-0.627,3.657l3.647,0.625l-0.961,5.599l-0.709,-0.122l0.104,-0.611l-7.303,-1.253zM343.35465,179.97612l-0.611,-0.105l0.105,-0.611l-0.601,-0.104l0.122,-0.709l0.709,0.122l-0.103,0.601l0.611,0.105l-0.105,0.611l0.611,0.105l-0.228,1.33l-0.72,-0.123zM346.92565,181.10612l0.601,0.103l0.105,-0.611l0.611,0.105l0.208,-1.213l0.719,0.124l-0.226,1.32l-0.612,-0.104l-0.104,0.611l-0.611,-0.105l-0.105,0.611l-0.71,-0.122zM353.12565,184.05712l0.611,0.104l0.103,-0.601l0.611,0.105l0.105,-0.611l0.601,0.103l0.105,-0.611l0.611,0.105l0.086,-0.503l-4.878,-0.837l0.123,-0.719l8.634,1.481l-0.124,0.72l-2.434,-0.418l-0.105,0.611l-1.212,-0.208l-0.105,0.611l-0.611,-0.105l-0.103,0.601l-0.611,-0.104l-0.105,0.611l-0.601,-0.104l-0.401,2.336l0.601,0.104l-0.105,0.611l0.611,0.104l-0.103,0.602l3.046,0.522l-0.126,0.73l-3.153,-0.542l0.106,-0.621l-1.212,-0.208l0.21,-1.222l-0.612,-0.105zM362.24665,188.13812l0.611,0.105l0.105,-0.611l3.045,0.522l0.504,-2.937l-3.656,-0.627l0.123,-0.72l3.657,0.628l0.313,-1.824l0.709,0.122l-0.313,1.823l1.824,0.313l-0.124,0.72l-1.823,-0.313l-0.609,3.548l0.611,0.105l-0.105,0.611l0.611,0.105l-0.103,0.601l0.601,0.103l-0.125,0.73l-0.709,-0.122l0.106,-0.621l-0.611,-0.105l0.105,-0.611l-0.503,-0.086l-0.104,0.611l-0.612,-0.105l-0.106,0.621l-3.144,-0.54l0.106,-0.621l-0.611,-0.104zM361.26065,182.94612l0.611,0.105l0.208,-1.212l0.709,0.122l-0.226,1.32l-0.611,-0.104l-1.152,6.711l-0.71,-0.121zM365.69465,189.97812l0.192,-1.114l-2.937,-0.504l-0.192,1.114zM370.58465,189.56912l0.611,0.104l0.105,-0.611l3.036,0.521l0.296,-1.725l-3.647,-0.625l0.122,-0.71l3.646,0.626l0.191,-1.114l-3.646,-0.626l0.123,-0.719l3.647,0.626l0.313,-1.824l0.719,0.124l-0.313,1.823l3.046,0.523l-0.124,0.719l-3.045,-0.522l-0.191,1.113l3.045,0.523l-0.121,0.709l-3.046,-0.522l-0.401,2.336l1.213,0.208l-0.105,0.611l0.611,0.105l-0.103,0.601l0.611,0.105l-0.105,0.611l0.611,0.105l-0.125,0.729l-0.72,-0.123l0.105,-0.612l-0.611,-0.104l0.107,-0.621l-0.602,-0.103l0.105,-0.612l-1.113,-0.191l-0.212,1.232l-0.611,-0.104l-0.105,0.611l-3.144,-0.54l0.105,-0.611l-0.611,-0.105zM373.91865,192.01812l0.296,-1.725l-2.937,-0.504l-0.296,1.725zM382.39265,185.32412l3.765,0.646l-0.103,0.602l1.212,0.208l-0.123,0.719l-1.321,-0.227l0.105,-0.611l-3.657,-0.627zM381.13965,192.62812l4.267,0.732l0.104,-0.601l1.212,0.208l0.296,-1.725l-0.611,-0.105l0.105,-0.611l-2.937,-0.504l-0.105,0.611l-1.213,-0.208l-0.104,0.611l-1.321,-0.227l0.436,-2.542l0.601,0.103l0.21,-1.222l0.72,0.123l-0.227,1.321l-0.611,-0.105l-0.296,1.725l0.503,0.086l0.104,-0.611l1.223,0.21l0.104,-0.611l3.144,0.539l-0.104,0.611l0.611,0.105l-0.105,0.611l0.611,0.105l-0.332,1.932l-0.611,-0.105l-0.104,0.611l-1.223,-0.21l-0.106,0.621l-4.366,-0.749zM389.68565,192.84612l0.611,0.105l0.21,-1.222l0.601,0.103l0.21,-1.222l0.611,0.105l0.208,-1.213l0.611,0.105l0.086,-0.503l-2.434,-0.417l0.123,-0.72l2.434,0.418l0.105,-0.611l0.611,0.105l0.208,-1.213l0.71,0.122l-0.227,1.321l-0.611,-0.105l-0.086,0.503l1.833,0.314l-0.123,0.72l-1.833,-0.315l-0.105,0.611l-0.601,-0.103l-0.208,1.212l-0.611,-0.104l-0.21,1.222l-0.611,-0.105l-0.208,1.212l-0.611,-0.105l-0.105,0.611l-0.71,-0.121zM396.00265,188.90812l2.533,0.434l-0.105,0.611l0.611,0.105l-0.123,0.72l-0.72,-0.124l0.105,-0.611l-2.424,-0.416zM392.11965,193.26412l0.611,0.105l0.105,-0.612l2.435,0.418l0.417,-2.434l0.71,0.121l-0.523,3.046l0.612,0.105l-0.105,0.611l0.611,0.105l-0.103,0.601l0.601,0.103l-0.125,0.729l-0.71,-0.121l0.107,-0.621l-0.611,-0.105l0.104,-0.611l-0.502,-0.086l-0.105,0.611l-0.611,-0.105l-0.107,0.621l-0.601,-0.103l-0.105,0.611l-1.932,-0.332l0.105,-0.611l-0.611,-0.105zM394.24165,195.50512l0.105,-0.611l0.611,0.105l0.191,-1.114l-2.336,-0.401l-0.296,1.725zM400.44165,194.79312l-0.611,-0.105l0.958,-5.588l0.71,0.121l-0.942,5.49l0.611,0.105l-0.208,1.212l1.725,0.296l0.103,-0.601l0.601,0.103l0.21,-1.222l0.719,0.124l-0.226,1.32l-0.611,-0.105l-0.105,0.612l-0.611,-0.105l-0.107,0.621l-1.931,-0.332l0.106,-0.621l-0.601,-0.103zM407.04465,192.79112l-0.611,-0.105l0.208,-1.212l-0.601,-0.103l0.228,-1.331l0.71,0.122l-0.21,1.222l0.611,0.105l-0.209,1.222l0.611,0.105l-0.313,1.823l0.601,0.103l-0.331,1.932l-0.71,-0.122l0.313,-1.823l-0.611,-0.105z" fill="#ffffff" stroke="none"/><path d="M340.58165,167.87212l-5.435,2.111l0.507,-2.956l0.507,-2.957z" fill="#ffffff" stroke="none"/><g><path d="M43.63733,82.85827c-0.87841,-3.75381 1.44368,-7.51118 5.19396,-8.40452l94.41271,-22.48758c3.77154,-0.89826 7.55444,1.4397 8.4384,5.21453l3.8866,16.61086l3.89901,16.65923c0.87879,3.7559 -1.4465,7.5151 -5.20011,8.40577l-62.32006,14.7907l8.66459,19.42743l-23.77486,-15.67022l-16.99638,3.97726c-3.76429,0.88086 -7.52989,-1.45658 -8.41075,-5.22087z" fill="#ff56a7" stroke="none"/><path d="M91.83242,113.16072l-0.58684,0.13937l0.24567,0.55084l7.96755,17.86447l-22.34604,-14.72837l-0.17961,-0.11839l-0.20949,0.04897l-16.99638,3.97726c-3.49541,0.81799 -6.99209,-1.35252 -7.81007,-4.84793l-7.79302,-33.30259c-0.81567,-3.48563 1.34056,-6.97469 4.82292,-7.80416l94.41302,-22.48762c3.50207,-0.8341 7.01456,1.33687 7.83522,4.84207l3.8866,16.61085l3.89901,16.65923c0.81552,3.48763 -1.34304,6.97831 -4.82817,7.80541z" fill="none" stroke="#000000"/></g><path d="M59.80303,102.96484l-1.22535,0.29325l-0.62376,-2.6064l1.22535,-0.29325l-0.2886,-1.20597l1.20597,-0.2886l-0.2886,-1.20597l1.18648,-0.28394l-0.2886,-1.20597l2.41184,-0.5772l-0.80992,-3.38447l-4.80439,1.14984l-0.33972,-1.41992l4.80429,-1.14974l-0.86114,-3.59842l1.40043,-0.33516l0.86114,3.59842l3.6179,-0.86589l0.33982,1.41992l-3.6179,0.86589l0.52598,2.19788l6.01035,-1.43833l0.28394,1.18648l2.41184,-0.5772l0.2886,1.20587l1.18658,-0.28394l1.20096,5.01834l-1.18648,0.28394l0.2886,1.20597l-1.20597,0.2886l0.29325,1.22535l-1.20597,0.2886l0.2886,1.20597l-5.01824,1.20096l-0.34447,-1.43931l4.80429,-1.14984l-0.2886,-1.20587l1.20597,-0.2886l-0.28394,-1.18658l1.20597,-0.2886l-1.10327,-4.60982l-2.41184,0.5772l-0.2886,-1.20587l-5.7964,1.38711l1.72703,7.21622l-1.18648,0.28394l0.29325,1.22545l-3.81237,0.91236l-0.29325,-1.22545l-1.20597,0.2887zM67.68968,88.14211l2.6064,-0.62376l0.2886,1.20597l2.39245,-0.57254l0.2886,1.20597l1.20597,-0.2886l0.33982,1.41992l-1.41992,0.33982l-0.2886,-1.20597l-2.39245,0.57254l-0.2886,-1.20597l-2.39245,0.57254zM61.1569,102.43511l0.28404,1.18658l3.40385,-0.81467l-1.38721,-5.7963l-2.19788,0.52598l0.2886,1.20597l-1.20597,0.2886l0.2886,1.20597l-1.18648,0.28394l0.52598,2.19798zM86.97197,98.76604l-1.38721,-5.7963l-8.42219,2.01553l-0.33982,-1.41982l8.42219,-2.01563l-0.80992,-3.38447l-5.99087,1.43378l-0.33982,-1.41992l5.99087,-1.43378l-0.52608,-2.19788l-5.99077,1.43368l-0.33516,-1.40043l7.19674,-1.72228l-0.2886,-1.20597l5.01834,-1.20096l0.33516,1.40043l-4.80439,1.14974l0.81467,3.40395l6.01025,-1.43843l0.33982,1.41992l-6.01035,1.43833l0.81002,3.38447l8.4027,-2.01097l0.33982,1.41992l-8.4027,2.01097l1.44299,6.02974l-1.20597,0.2886l0.2886,1.20597l-3.81227,0.91236l-0.34448,-1.43941zM97.13933,92.52833l3.6178,-0.86579l-0.23738,-0.99202l-2.39245,0.57254l-1.77815,-7.43018l2.39245,-0.57254l-0.23738,-0.99202l-3.6179,0.86579l-0.33982,-1.41992l3.6179,-0.86579l-0.57254,-2.39245l1.41982,-0.33982l0.57264,2.39245l3.38437,-0.80992l-0.28394,-1.18648l8.61666,-2.06219l0.62376,2.6064l-1.18648,0.28394l0.2886,1.20597l-1.20587,0.2886l0.52598,2.19798l1.20597,-0.2886l0.28394,1.18648l2.39245,-0.57254l0.33982,1.41982l-2.6064,0.62376l-0.2886,-1.20587l-1.20597,0.2886l-0.2886,-1.20597l-2.19798,0.52598l0.2886,1.20597l-1.18648,0.28394l0.2886,1.20597l-2.62579,0.62842l-0.33982,-1.41992l2.41184,-0.5772l-0.28394,-1.18648l1.20597,-0.2886l-0.23738,-0.99202l-1.20597,0.2886l-0.5772,-2.41194l-1.20597,0.2887l-0.2886,-1.20597l-0.99202,0.23738l0.2886,1.20597l-3.59842,0.86114l0.23748,0.99202l2.39245,-0.57254l1.77815,7.43018l-2.39245,0.57254l0.23738,0.99202l3.38447,-0.81002l-0.2886,-1.20597l3.6178,-0.86579l-0.5772,-2.41184l1.40043,-0.33516l0.5772,2.41184l3.59842,-0.86114l0.33516,1.40043l-3.59842,0.86114l0.52608,2.19798l4.80429,-1.14974l0.34447,1.43931l-11.00911,2.63473l-0.34448,-1.43941l4.80429,-1.14974l-0.52598,-2.19798l-3.40385,0.81467l0.2886,1.20597l-3.59842,0.86114l0.87045,3.63729l-1.41982,0.33982l-0.87055,-3.63729l-3.6178,0.86579zM108.63887,82.14674l-0.2886,-1.20597l1.20597,-0.2886l-0.2886,-1.20597l1.20587,-0.2886l-0.23738,-0.99202l-4.59033,1.09861l0.23738,0.99202l1.18648,-0.28394l0.5772,2.41184zM99.3188,85.65218l-0.23738,-0.99192l-0.99202,0.23738l0.23738,0.99192zM101.73073,85.07499l-0.23748,-0.99202l-0.99192,0.23748l0.23738,0.99192zM102.59187,88.6734l-0.52598,-2.19798l-0.99202,0.23748l0.52598,2.19788zM100.17994,89.2506l-0.52598,-2.19798l-0.99202,0.23748l0.52608,2.19788zM125.4036,82.16533l-1.20597,0.2886l-0.33982,-1.41992l2.41194,-0.5772l-0.28394,-1.18648l2.39245,-0.57254l-0.2886,-1.20597l1.20587,-0.2886l-0.23738,-0.99202l-4.59033,1.09851l0.2886,1.20597l-1.20597,0.2886l0.28394,1.18648l-1.40043,0.33516l-0.33516,-1.40043l1.18648,-0.28394l-0.5772,-2.41194l1.20597,-0.2886l-0.86124,-3.59832l1.41992,-0.33982l0.86124,3.59832l7.19674,-1.72228l0.33982,1.41992l-2.39245,0.57254l0.2886,1.20597l-1.20597,0.2886l0.28394,1.18648l-1.20587,0.2886l0.52598,2.19798l1.20597,-0.2886l0.2886,1.20587l0.99192,-0.23738l-0.2886,-1.20597l1.18658,-0.28394l-0.2887,-1.20597l1.41992,-0.33982l0.33982,1.41992l-1.20597,0.2886l0.2887,1.20597l-1.18658,0.28394l0.81467,3.40395l1.18648,-0.28404l0.57254,2.39245l1.20597,-0.2886l0.34448,1.43941l-1.41992,0.33982l-0.2886,-1.20597l-1.18648,0.28394l-0.58185,-2.43132l-1.20597,0.2886l-0.57254,-2.39245l-1.20597,0.2886l-0.5772,-2.41194l-1.18648,0.28404l-0.2887,-1.20597l-0.99192,0.23738l2.30878,9.64755l-1.41982,0.33982zM117.16265,90.26586l1.22535,-0.29325l-0.86114,-3.59842l1.20597,-0.2886l-1.67581,-7.00227l-2.43132,0.58185l-0.33982,-1.41992l3.6178,-0.86579l-0.86114,-3.59842l1.41992,-0.33982l0.86114,3.59842l2.39245,-0.57254l0.33982,1.41992l-3.59842,0.86114l0.81002,3.38437l3.59842,-0.86114l2.07141,8.65563l-1.18648,0.28394l0.2886,1.20597l-2.62589,0.62842l-0.34448,-1.43941l2.41194,-0.5772l-1.67581,-7.00227l-2.19788,0.52598l0.5772,2.41194l-1.20597,0.2886l0.86114,3.59842l-1.18648,0.28394l0.58185,2.43132l-1.43931,0.34447zM142.19376,69.05749l1.42002,-0.33982l2.92343,12.21507l-1.42002,0.33982zM144.15296,82.57255l2.62619,-0.62842l0.62862,2.62589l-2.62619,0.62842z" fill="#ffffff" stroke="none"/></g></g></svg>