<svg version="1.1" xmlns="http://www.w3.org/2000/svg" xmlns:xlink="http://www.w3.org/1999/xlink" width="414.55324" height="312.80333" viewBox="0,0,414.55324,312.80333"><g transform="translate(-32.72338,-23.59833)"><g data-paper-data="{&quot;isPaintingLayer&quot;:true}" fill-rule="nonzero" stroke-linecap="butt" stroke-miterlimit="10" stroke-dasharray="" stroke-dashoffset="0" style="mix-blend-mode: normal"><path d="M40.12378,334.90166c-3.2587,0 -4.85042,-2.45802 -4.85042,-2.45802c0,0 -1.04998,-0.36577 -1.04998,-5.47073c0,-45.72892 0,-274.50125 0,-296.28287c0,-3.28274 1.6273,-4.36722 1.6273,-4.36722c0,0 1.0144,-1.22449 4.2731,-1.22449h399.75244c3.25869,0 4.53235,1.37255 4.53235,1.37255c0,0 1.36805,0.83913 1.36805,4.00184c0,21.64787 0,256.01277 0,298.2248c0,4.2029 -1.49372,4.70551 -1.49372,4.70551c0,0 -1.14798,1.49863 -4.40667,1.49863z" fill="#fff4e4" stroke="#000000" stroke-width="3" stroke-linejoin="round"/><path d="M57.60574,51.98836h1.1701v-1.15123h2.52894v1.15123h1.17011v2.54781h-1.17011v1.1701h-2.52894v-1.1701h-1.1701zM70.00508,45.00547h1.39658v6.98289h5.62406v-6.98289h1.35883v15.38123h-1.35883v-7.02063h-5.62406v7.02063h-1.39658zM80.63041,58.02762h-1.18898v-6.03926h1.18898v-1.15123h1.17011v-1.1701h3.69904v1.1701h1.15123v1.15123h1.1701v3.71791h-6.98289v2.13262h1.15123v1.15123h3.30272v-1.15123h1.1701v-1.1701h1.35883v1.35883h-1.1701v1.17011h-1.15123v1.18897h-3.69904v-1.18897h-1.17011zM86.46207,54.32857v-2.13261h-1.1701v-1.17011h-3.30272v1.17011h-1.15123v2.13261zM92.36922,46.1567h1.37771v2.54781h-1.37771zM92.36922,49.66702h1.37771v10.71968h-1.37771zM101.25825,51.02585h-2.35909v-1.35883h2.35909v-3.51032h1.35883v3.51032h3.49144v1.35883h-3.49144v7.96428h3.49144v1.39657h-3.69904v-1.18897h-1.15123zM107.75046,55.49868h1.18897v-1.1701h4.66155v-3.30272h-4.45395v2.34022h-1.39657v-2.52894h1.18897v-1.1701h4.86915v1.1701h1.15123v8.153h1.17011v1.39657h-1.35883v-1.18897h-2.13261v1.18897h-3.69905v-1.18897h-1.18897zM112.43088,58.99013v-1.15123h1.1701v-2.13262h-4.45395v3.28385zM118.3569,49.66702h1.35883v1.1701h0.96251v-1.1701h3.69904v1.35883h-3.49144v1.17011h-1.17011v8.19074h-1.35883zM127.81212,58.02762h-1.18898v-6.03926h1.18898v-1.15123h1.17011v-1.1701h3.69904v1.1701h1.15124v1.15123h1.1701v6.03926h-1.1701v1.17011h-1.15124v1.18897h-3.69904v-1.18897h-1.17011zM129.17093,57.83889v1.15123h3.30272v-1.15123h1.1701v-5.64293h-1.1701v-1.17011h-3.30272v1.17011h-1.15123v5.64293zM145.49582,56.66879h1.18898v-4.68043h1.1701v-3.49144h1.15124v-3.49145h1.3777v3.49145h1.17011v3.49144h1.15124v4.68043h1.1701v3.71791h-1.35883v-3.52919h-5.62406v3.52919h-1.39658zM151.34634,55.49868v-3.30271h-1.1701v-3.49145h-0.96251v3.49145h-1.17011v3.30271zM154.93216,56.66879h1.39658v2.32134h5.62406v-3.28385h-5.83166v-1.1701h-1.18898v-3.69904h1.18898v-1.1701h6.02038v1.1701h1.17011v2.52894h-1.35883v-2.34022h-5.62406v3.30272h5.81278v1.1701h1.17011v3.69905h-1.17011v1.18897h-6.02038v-1.18897h-1.18898zM164.3685,46.1567h1.39658v4.68042h0.9625v-1.1701h3.69905v1.1701h1.15123v1.15123h1.17011v8.39834h-1.35883v-8.19074h-1.17011v-1.17011h-3.30271v1.17011h-1.15124v8.19074h-1.39658zM177.29629,46.1567h1.3777v2.54781h-1.3777zM177.29629,49.66702h1.3777v10.71968h-1.3777zM183.24118,46.1567h1.39658v4.68042h0.9625v-1.1701h3.69905v1.1701h1.15123v1.15123h1.17011v6.03926h-1.17011v1.17011h-1.15123v1.18897h-3.69905v-1.18897h-0.9625v1.18897h-1.39658zM185.78899,57.83889v1.15123h3.30272v-1.15123h1.17011v-5.64293h-1.17011v-1.17011h-3.30272v1.17011h-1.15124v5.64293zM193.8665,58.02762h-1.18897v-6.03926h1.18897v-1.15123h1.17011v-1.1701h3.69904v1.1701h1.15123v1.15123h1.17011v3.71791h-6.9829v2.13262h1.15123v1.15123h3.30272v-1.15123h1.1701v-1.1701h1.35884v1.35883h-1.17011v1.17011h-1.15123v1.18897h-3.69904v-1.18897h-1.17011zM199.69816,54.32857v-2.13261h-1.1701v-1.17011h-3.30272v1.17011h-1.15123v2.13261zM218.62746,57.82002h2.32134v-1.17011h1.17011v-0.96251h-1.17011v-1.1701h-1.17011v-2.54781h3.51032v-2.11374h-2.34021v-1.3777h2.34021v-0.96251h-3.51032v-1.37771h2.34022v-0.96251h-1.17011v-1.35883h1.37771v1.1701h1.15123v1.15123h0.9625v-1.15123h1.17011v-1.1701h1.3777v1.35883h-1.1701v0.96251h3.49144v1.37771h-4.66155v0.96251h3.49144v1.3777h-3.49144v2.11374h4.66155v1.3777h-4.66155v0.96251h1.17011v2.34021h0.9625v-1.1701h1.15123v-1.1701h1.37771v1.3777h-1.17011v1.15124h-1.15124v0.98137h1.15124v1.15123h1.17011v1.39658h-1.37771v-1.18898h-1.15123v-1.17011h-1.17011v-1.1701h-0.9625v3.52919h-1.17011v1.1701h-2.52894v-1.39658h2.34021v-3.30271h-0.9625v1.1701h-1.17011v1.17011h-2.52894zM211.60682,55.47981h1.18898v-2.34022h1.17011v-2.32134h1.15123v-0.96251h-3.51032v-1.3777h3.51032v-4.66155h1.37771v4.66155h3.49144v1.3777h-3.49144v0.96251h1.1701v1.15123h1.15124v2.54782h-1.35883v-2.34022h-0.96251v9.36085h-1.37771v-8.19074h-0.9625v2.34022h-1.15123v1.15124h-1.39658zM222.3265,54.3097v1.1701h0.9625v-2.13262h-2.13261v0.96251zM62.28617,75.23321h1.15123v-2.34021h1.17011v-1.15124h1.1701v-1.1701h1.35883v1.35883h-1.15123v1.17011h-1.1701v2.34021h-1.17011v7.96427h1.17011v2.32134h1.1701v1.17011h1.15123v1.39658h-1.35883v-1.17011h-1.1701v-1.18898h-1.17011v-2.34021h-1.15123zM70.00508,72.893h1.39658v4.68042h0.96251v-1.17011h3.69904v1.17011h1.15123v1.15123h1.1701v8.39834h-1.35883v-8.19074h-1.17011v-1.17011h-3.30272v1.17011h-1.15123v8.19074h-1.39658zM82.38557,77.76215h-2.35909v-1.35883h2.35909v-3.51031h1.35883v3.51031h3.49144v1.35883h-3.49144v7.96427h3.49144v1.39658h-3.69904v-1.18898h-1.15123zM91.82191,77.76215h-2.35909v-1.35883h2.35909v-3.51031h1.35883v3.51031h3.49144v1.35883h-3.49144v7.96427h3.49144v1.39658h-3.69904v-1.18898h-1.15123zM98.31412,76.40332h1.39657v1.17011h0.96251v-1.17011h3.69904v1.17011h1.15123v1.15123h1.17011v4.86915h-1.17011v1.17011h-1.15123v1.1701h-3.69904v-1.1701h-0.96251v3.52919h-1.39657zM104.16465,84.57519v-1.17011h1.17011v-4.47282h-1.17011v-1.17011h-3.30272v1.17011h-1.15123v4.47283h1.15123v1.17011zM107.75046,83.40508h1.39657v2.32134h5.62406v-3.28384h-5.83166v-1.1701h-1.18897v-3.69904h1.18897v-1.17011h6.02039v1.17011h1.17011v2.52893h-1.35883v-2.34021h-5.62406v3.30272h5.81279v1.1701h1.17011v3.69904h-1.17011v1.18898h-6.02039v-1.18898h-1.18897zM120.09319,76.40332h2.54782v2.52894h-2.54781zM120.09319,83.40508h2.54782v2.52894h-2.54781zM126.62313,84.57519h1.17011v-2.34022h1.15124v-2.34021h1.1701v-2.32134h1.17011v-2.34022h1.17011v-2.34021h1.15123v-2.32134h1.37771v2.52894h-1.17011v2.34021h-1.17011v2.32134h-1.15123v2.34021h-1.17011v2.34022h-1.17011v2.32134h-1.17011v2.35908h-1.35883zM136.05948,84.57519h1.17011v-2.34022h1.15124v-2.34021h1.1701v-2.32134h1.17011v-2.34022h1.17011v-2.34021h1.15123v-2.32134h1.37771v2.52894h-1.17011v2.34021h-1.17011v2.32134h-1.15123v2.34021h-1.17011v2.34022h-1.17011v2.32134h-1.17011v2.35908h-1.35883zM146.6848,84.76392h-1.18898v-6.03926h1.18898v-1.15123h1.1701v-1.17011h3.69905v1.17011h0.96251v-4.68042h1.35883v14.23h-1.35883v-1.18898h-0.96251v1.18898h-3.69905v-1.18898h-1.1701zM148.04363,84.57519v1.15123h3.30272v-1.15123h1.17011v-5.64293h-1.17011v-1.17011h-3.30272v1.17011h-1.15123v5.64293zM156.12114,84.76392h-1.18898v-6.03926h1.18898v-1.15123h1.1701v-1.17011h3.69905v1.17011h1.15123v1.15123h1.17011v6.03926h-1.17011v1.1701h-1.15123v1.18898h-3.69905v-1.18898h-1.1701zM157.47997,84.57519v1.15123h3.30271v-1.15123h1.17011v-5.64293h-1.17011v-1.17011h-3.30271v1.17011h-1.15124v5.64293zM166.72758,82.44258h-1.1701v-2.34022h-1.18898v-3.69904h1.39658v3.49145h1.15124v2.34021h1.1701v2.34022h0.96251v-2.34022h1.1701v-2.34021h1.17011v-3.49145h1.35883v3.69904h-1.17011v2.34022h-1.15123v2.32134h-1.17011v2.35908h-1.3777v-2.35908h-1.15124zM173.80484,82.23498h1.18898v-1.1701h4.66155v-3.30272h-4.45396v2.34021h-1.39658v-2.52893h1.18898v-1.17011h4.86915v1.17011h1.15123v8.15299h1.17011v1.39658h-1.35883v-1.18898h-2.13262v1.18898h-3.69904v-1.18898h-1.18898zM178.48526,85.72642v-1.15123h1.17011v-2.13262h-4.45396v3.28384zM183.82623,81.06487h7.19049v1.3777h-7.19049zM192.67752,83.40508h1.39658v2.32134h5.62406v-3.28384h-5.83166v-1.1701h-1.18897v-3.69904h1.18897v-1.17011h6.02039v1.17011h1.17011v2.52893h-1.35884v-2.34021h-5.62406v3.30272h5.81278v1.1701h1.17011v3.69904h-1.17011v1.18898h-6.02039v-1.18898h-1.18897zM202.7744,83.40508h2.52894v2.52894h-2.52894zM216.21175,72.893h1.3777v2.54781h-1.3777zM216.21175,86.89653v-10.49321h1.3777v10.71968h-1.1701v1.17011h-2.52894v-1.39658zM220.98654,76.40332h1.39658v1.17011h0.96251v-1.17011h3.69904v1.17011h1.15124v1.15123h1.1701v4.86915h-1.1701v1.17011h-1.15124v1.1701h-3.69904v-1.1701h-0.96251v3.52919h-1.39658zM226.83707,84.57519v-1.17011h1.1701v-4.47282h-1.1701v-1.17011h-3.30272v1.17011h-1.15123v4.47283h1.15123v1.17011zM230.42288,84.57519h1.17011v-2.34022h1.15124v-2.34021h1.1701v-2.32134h1.17011v-2.34022h1.17011v-2.34021h1.15123v-2.32134h1.37771v2.52894h-1.17011v2.34021h-1.17011v2.32134h-1.15123v2.34021h-1.17011v2.34022h-1.17011v2.32134h-1.17011v2.35908h-1.35883zM239.85922,72.893h1.39658v4.68042h0.9625v-1.17011h3.69905v1.17011h1.15124v1.15123h1.1701v6.03926h-1.1701v1.1701h-1.15124v1.18898h-3.69905v-1.18898h-0.9625v1.18898h-1.39658zM242.40703,84.57519v1.15123h3.30272v-1.15123h1.17011v-5.64293h-1.17011v-1.17011h-3.30272v1.17011h-1.15123v5.64293zM249.29556,84.57519h1.18898v-0.98138h-1.18898v-1.35883h1.18898v-0.9625h-1.18898v-3.69904h1.18898v-1.17011h4.86915v1.17011h0.96251v-1.17011h1.35883v1.35883h-1.17011v3.51032h-1.15123v1.1701h-4.66155v0.96251h5.81278v1.17011h1.17011v2.54781h-1.17011v1.17011h-6.02038v-1.17011h-1.18898zM255.14609,81.06487v-3.30272h-4.45395v3.30272zM256.3162,86.89653v-2.13261h-5.62406v2.13261zM258.7319,76.40332h1.39658v1.17011h0.96251v-1.17011h1.35883v1.17011h2.13261v-1.17011h1.35883v1.17011h1.1701v9.54957h-1.35883v-9.36085h-0.96251v1.17011h-1.1701v8.19074h-1.3777v-9.36085h-0.96251v1.17011h-1.15123v8.19074h-1.39658zM268.16824,84.57519h1.17011v-2.34022h1.15123v-2.34021h1.1701v-2.32134h1.17011v-2.34022h1.1701v-2.34021h1.15123v-2.32134h1.3777v2.52894h-1.1701v2.34021h-1.17011v2.32134h-1.15123v2.34021h-1.17011v2.34022h-1.17011v2.32134h-1.1701v2.35908h-1.35883zM277.60457,76.40332h1.39658v1.17011h0.96251v-1.17011h3.69904v1.17011h1.15124v1.15123h1.1701v4.86915h-1.1701v1.17011h-1.15124v1.1701h-3.69904v-1.1701h-0.96251v3.52919h-1.39658zM283.45511,84.57519v-1.17011h1.1701v-4.47282h-1.1701v-1.17011h-3.30272v1.17011h-1.15123v4.47283h1.15123v1.17011zM290.53237,72.893h1.3777v14.23h-1.3777zM296.47727,82.23498h1.18897v-1.1701h4.66156v-3.30272h-4.45396v2.34021h-1.39657v-2.52893h1.18897v-1.17011h4.86916v1.17011h1.15123v8.15299h1.17011v1.39658h-1.35883v-1.18898h-2.13261v1.18898h-3.69905v-1.18898h-1.18897zM301.15769,85.72642v-1.15123h1.17011v-2.13262h-4.45396v3.28384zM309.42391,86.89653v-2.13261h-1.15123v-2.32134h-1.17011v-3.51032h-1.18898v-2.52894h1.39657v2.32134h1.15124v3.51032h1.1701v2.34022h0.96251v-2.34022h1.1701v-3.51032h1.17011v-2.32134h1.35883v2.52894h-1.17011v3.51032h-1.15123v2.32134h-1.1701v2.35908h-1.17011v1.17011h-3.71792v-1.39658zM320.01149,73.1006h-2.32134v-1.35884h3.69905v15.38124h-1.3777zM325.97526,84.76392h-1.18898v-3.69904h1.18898v-1.17011h1.1701v-0.96251h-1.1701v-1.17011h-1.18898v-3.69904h1.18898v-1.1701h1.1701v-1.15124h3.69905v1.15124h1.15123v1.1701h1.17011v3.69904h-1.17011v1.17011h-1.15123v0.96251h1.15123v1.17011h1.17011v3.69904h-1.17011v1.1701h-1.15123v1.18898h-3.69905v-1.18898h-1.1701zM330.63681,78.72466v-1.15123h1.17011v-3.30272h-1.17011v-1.1701h-3.30272v1.1701h-1.15123v3.30272h1.15123v1.15123zM327.33409,84.57519v1.15123h3.30272v-1.15123h1.17011v-3.30272h-1.17011v-1.17011h-3.30272v1.17011h-1.15123v3.30272zM338.88418,73.1006h-2.32134v-1.35884h3.69905v15.38124h-1.37771zM344.84795,84.76392h-1.18898v-10.70081h1.18898v-1.1701h1.1701v-1.15124h3.69905v1.15124h1.15123v1.1701h1.17011v10.70081h-1.17011v1.1701h-1.15123v1.18898h-3.69905v-1.18898h-1.1701zM346.20678,84.57519v1.15123h3.30272v-1.15123h1.17011v-10.30448h-1.17011v-1.1701h-3.30272v1.1701h-1.15123v10.30449zM354.28428,84.76392h-1.18898v-2.52894h1.39658v2.34022h1.15123v1.15123h3.30272v-1.15123h1.17011v-3.30272h-1.17011v-1.17011h-3.49144v-1.3777h3.49144v-1.15123h1.17011v-3.30272h-1.17011v-1.1701h-3.30272v1.1701h-1.15123v2.34021h-1.39658v-2.54781h1.18898v-1.1701h1.17011v-1.15124h3.69904v1.15124h1.15124v1.1701h1.1701v3.69904h-1.1701v1.17011h-1.15124v0.96251h1.15124v1.17011h1.1701v3.69904h-1.1701v1.1701h-1.15124v1.18898h-3.69904v-1.18898h-1.17011zM363.19219,83.40508h2.52894v2.52894h-2.52894zM371.96799,72.893h1.39658v4.68042h0.96251v-1.17011h3.69904v1.17011h1.15124v1.15123h1.1701v8.39834h-1.35883v-8.19074h-1.1701v-1.17011h-3.30272v1.17011h-1.15123v8.19074h-1.39658zM384.34846,77.76215h-2.35908v-1.35883h2.35908v-3.51031h1.35883v3.51031h3.49144v1.35883h-3.49144v7.96427h3.49144v1.39658h-3.69905v-1.18898h-1.15123zM390.84066,76.40332h1.39657v1.17011h0.96251v-1.17011h1.35883v1.17011h2.13261v-1.17011h1.35883v1.17011h1.17011v9.54957h-1.35883v-9.36085h-0.9625v1.17011h-1.17011v8.19074h-1.3777v-9.36085h-0.96251v1.17011h-1.15123v8.19074h-1.39657zM403.76846,72.893h1.3777v14.23h-1.3777zM412.69522,86.89653v-1.17011h1.15123v-2.32134h1.1701v-7.96427h-1.1701v-2.34021h-1.15123v-1.17011h-1.17011v-1.35883h1.35883v1.1701h1.17011v1.15124h1.1701v2.34021h1.17011v8.3606h-1.17011v2.34021h-1.1701v1.18898h-1.17011v1.17011h-1.35883v-1.39658zM57.60574,105.46096h1.1701v-1.15123h2.52894v1.15123h1.17011v2.54781h-1.17011v1.17011h-2.52894v-1.17011h-1.1701zM70.00508,98.47807h1.39658v2.32134h1.15123v3.51032h1.17011v4.66155h0.9625v-4.66155h1.17011v-3.51032h1.17011v-2.32134h1.35883v15.38124h-1.35883v-9.36085h-0.96251v4.68042h-1.17011v3.49144h-1.3777v-3.49144h-1.15123v-4.68042h-0.96251v9.36085h-1.39658zM79.44142,108.97128h1.18898v-1.17011h4.66156v-3.30272h-4.45396v2.34021h-1.39658v-2.52894h1.18898v-1.17011h4.86915v1.17011h1.15123v8.153h1.1701v1.39658h-1.35883v-1.18898h-2.13262v1.18898h-3.69904v-1.18898h-1.18898zM84.12186,112.46272v-1.15123h1.17011v-2.13261h-4.45396v3.28384zM88.87777,111.31149h1.18898v-0.98138h-1.18898v-1.35883h1.18898v-0.96251h-1.18898v-3.69904h1.18898v-1.17011h4.86916v1.17011h0.9625v-1.17011h1.35883v1.35883h-1.17011v3.51032h-1.15123v1.17011h-4.66156v0.96251h5.81279v1.1701h1.17011v2.54782h-1.17011v1.17011h-6.02039v-1.17011h-1.18898zM94.72831,107.80117v-3.30272h-4.45396v3.30272zM95.89841,113.63283v-2.13261h-5.62406v2.13261zM98.31412,108.97128h1.18897v-1.17011h4.66155v-3.30272h-4.45395v2.34021h-1.39657v-2.52894h1.18897v-1.17011h4.86915v1.17011h1.15123v8.153h1.17011v1.39658h-1.35883v-1.18898h-2.13262v1.18898h-3.69904v-1.18898h-1.18897zM102.99454,112.46272v-1.15123h1.1701v-2.13261h-4.45395v3.28384zM107.75046,98.47807h1.39657v2.32134h1.15123v3.51032h1.1701v4.66155h0.96251v-4.66155h1.1701v-3.51032h1.17011v-2.32134h1.35883v15.38124h-1.35883v-9.36085h-0.96251v4.68042h-1.1701v3.49144h-1.37771v-3.49144h-1.15123v-4.68042h-0.96251v9.36085h-1.39657zM117.1868,108.97128h1.18898v-1.17011h4.66155v-3.30272h-4.45395v2.34021h-1.39657v-2.52894h1.18898v-1.17011h4.86915v1.17011h1.15124v8.153h1.1701v1.39658h-1.35883v-1.18898h-2.13261v1.18898h-3.69904v-1.18898h-1.18898zM121.86722,112.46272v-1.15123h1.1701v-2.13261h-4.45395v3.28384zM126.62313,111.31149h1.18898v-0.98138h-1.18898v-1.35883h1.18898v-0.96251h-1.18898v-3.69904h1.18898v-1.17011h4.86915v1.17011h0.9625v-1.17011h1.35883v1.35883h-1.1701v3.51032h-1.15124v1.17011h-4.66155v0.96251h5.81279v1.1701h1.1701v2.54782h-1.1701v1.17011h-6.02039v-1.17011h-1.18898zM132.47367,107.80117v-3.30272h-4.45395v3.30272zM133.64377,113.63283v-2.13261h-5.62405v2.13261zM136.05948,108.97128h1.18898v-1.17011h4.66155v-3.30272h-4.45395v2.34021h-1.39658v-2.52894h1.18898v-1.17011h4.86915v1.17011h1.15124v8.153h1.1701v1.39658h-1.35883v-1.18898h-2.13261v1.18898h-3.69904v-1.18898h-1.18898zM140.73989,112.46272v-1.15123h1.17011v-2.13261h-4.45395v3.28384zM162.0094,111.29262h2.32134v-1.17011h1.17011v-0.9625h-1.17011v-1.17011h-1.17011v-2.54781h3.51032v-2.11374h-2.34022v-1.37771h2.34022v-0.9625h-3.51032v-1.37771h2.34021v-0.96251h-1.17011v-1.35883h1.3777v1.1701h1.15124v1.15123h0.9625v-1.15123h1.17011v-1.1701h1.37771v1.35883h-1.17011v0.96251h3.49145v1.37771h-4.66155v0.9625h3.49144v1.37771h-3.49144v2.11374h4.66155v1.37771h-4.66155v0.9625h1.1701v2.34021h0.96251v-1.1701h1.15124v-1.17011h1.3777v1.37771h-1.17011v1.15123h-1.15123v0.98138h1.15123v1.15123h1.17011v1.39658h-1.3777v-1.18898h-1.15124v-1.17011h-1.17011v-1.1701h-0.96251v3.52919h-1.17011v1.1701h-2.52894v-1.39657h2.34022v-3.30272h-0.96251v1.1701h-1.1701v1.17011h-2.52894zM154.98878,108.9524h1.18898v-2.34021h1.17011v-2.32134h1.15123v-0.96251h-3.51031v-1.37771h3.51031v-4.66155h1.37771v4.66155h3.49144v1.37771h-3.49144v0.96251h1.17011v1.15123h1.15123v2.54782h-1.35883v-2.34022h-0.9625v9.36085h-1.37771v-8.19074h-0.9625v2.34021h-1.15124v1.15123h-1.39657zM165.70845,107.7823v1.17011h0.96251v-2.13261h-2.13261v0.9625zM62.28617,128.70581h1.15123v-2.34021h1.17011v-1.15123h1.1701v-1.17011h1.35883v1.35883h-1.15123v1.17011h-1.1701v2.34021h-1.17011v7.96428h1.17011v2.32134h1.1701v1.17011h1.15123v1.39657h-1.35883v-1.1701h-1.1701v-1.18898h-1.17011v-2.34021h-1.15123zM70.00508,126.3656h1.39658v4.68043h0.96251v-1.17011h3.69904v1.17011h1.15123v1.15123h1.1701v8.39834h-1.35883v-8.19075h-1.17011v-1.1701h-3.30272v1.1701h-1.15123v8.19075h-1.39658zM82.38557,131.23475h-2.35909v-1.35883h2.35909v-3.51032h1.35883v3.51032h3.49144v1.35883h-3.49144v7.96427h3.49144v1.39658h-3.69904v-1.18898h-1.15123zM91.82191,131.23475h-2.35909v-1.35883h2.35909v-3.51032h1.35883v3.51032h3.49144v1.35883h-3.49144v7.96427h3.49144v1.39658h-3.69904v-1.18898h-1.15123zM98.31412,129.87592h1.39657v1.17011h0.96251v-1.17011h3.69904v1.17011h1.15123v1.15123h1.17011v4.86915h-1.17011v1.1701h-1.15123v1.17011h-3.69904v-1.17011h-0.96251v3.52919h-1.39657zM104.16465,138.04779v-1.17011h1.17011v-4.47283h-1.17011v-1.1701h-3.30272v1.1701h-1.15123v4.47283h1.15123v1.17011zM107.75046,136.87768h1.39657v2.32134h5.62406v-3.28385h-5.83166v-1.17011h-1.18897v-3.69904h1.18897v-1.17011h6.02039v1.17011h1.17011v2.52894h-1.35883v-2.34022h-5.62406v3.30272h5.81279v1.17011h1.17011v3.69904h-1.17011v1.18898h-6.02039v-1.18898h-1.18897zM120.09319,129.87592h2.54782v2.52893h-2.54781zM120.09319,136.87768h2.54782v2.52893h-2.54781zM126.62313,138.04779h1.17011v-2.34022h1.15124v-2.34021h1.1701v-2.32134h1.17011v-2.34022h1.17011v-2.34021h1.15123v-2.32134h1.37771v2.52894h-1.17011v2.34021h-1.17011v2.32134h-1.15123v2.34022h-1.17011v2.34021h-1.17011v2.32134h-1.17011v2.35909h-1.35883zM136.05948,138.04779h1.17011v-2.34022h1.15124v-2.34021h1.1701v-2.32134h1.17011v-2.34022h1.17011v-2.34021h1.15123v-2.32134h1.37771v2.52894h-1.17011v2.34021h-1.17011v2.32134h-1.15123v2.34022h-1.17011v2.34021h-1.17011v2.32134h-1.17011v2.35909h-1.35883zM146.6848,138.23651h-1.18898v-6.03925h1.18898v-1.15123h1.1701v-1.17011h3.69905v1.17011h0.96251v-4.68043h1.35883v14.23h-1.35883v-1.18898h-0.96251v1.18898h-3.69905v-1.18898h-1.1701zM148.04363,138.04779v1.15123h3.30272v-1.15123h1.17011v-5.64294h-1.17011v-1.1701h-3.30272v1.1701h-1.15123v5.64294zM156.12114,138.23651h-1.18898v-6.03925h1.18898v-1.15123h1.1701v-1.17011h3.69905v1.17011h1.15123v1.15123h1.17011v6.03925h-1.17011v1.17011h-1.15123v1.18898h-3.69905v-1.18898h-1.1701zM157.47997,138.04779v1.15123h3.30271v-1.15123h1.17011v-5.64294h-1.17011v-1.1701h-3.30271v1.1701h-1.15124v5.64294zM166.72758,135.91517h-1.1701v-2.34021h-1.18898v-3.69905h1.39658v3.49144h1.15124v2.34021h1.1701v2.34022h0.96251v-2.34022h1.1701v-2.34021h1.17011v-3.49144h1.35883v3.69905h-1.17011v2.34021h-1.15123v2.32134h-1.17011v2.35909h-1.3777v-2.35909h-1.15124zM173.80484,135.70757h1.18898v-1.17011h4.66155v-3.30272h-4.45396v2.34022h-1.39658v-2.52894h1.18898v-1.17011h4.86915v1.17011h1.15123v8.153h1.17011v1.39658h-1.35883v-1.18898h-2.13262v1.18898h-3.69904v-1.18898h-1.18898zM178.48526,139.19902v-1.15123h1.17011v-2.13262h-4.45396v3.28385zM183.82623,134.53747h7.19049v1.3777h-7.19049zM192.67752,136.87768h1.39658v2.32134h5.62406v-3.28385h-5.83166v-1.17011h-1.18897v-3.69904h1.18897v-1.17011h6.02039v1.17011h1.17011v2.52894h-1.35884v-2.34022h-5.62406v3.30272h5.81278v1.17011h1.17011v3.69904h-1.17011v1.18898h-6.02039v-1.18898h-1.18897zM202.7744,136.87768h2.52894v2.52893h-2.52894zM216.21175,126.3656h1.3777v2.54781h-1.3777zM216.21175,140.36913v-10.49321h1.3777v10.71968h-1.1701v1.1701h-2.52894v-1.39657zM220.98654,129.87592h1.39658v1.17011h0.96251v-1.17011h3.69904v1.17011h1.15124v1.15123h1.1701v4.86915h-1.1701v1.1701h-1.15124v1.17011h-3.69904v-1.17011h-0.96251v3.52919h-1.39658zM226.83707,138.04779v-1.17011h1.1701v-4.47283h-1.1701v-1.1701h-3.30272v1.1701h-1.15123v4.47283h1.15123v1.17011zM230.42288,138.04779h1.17011v-2.34022h1.15124v-2.34021h1.1701v-2.32134h1.17011v-2.34022h1.17011v-2.34021h1.15123v-2.32134h1.37771v2.52894h-1.17011v2.34021h-1.17011v2.32134h-1.15123v2.34022h-1.17011v2.34021h-1.17011v2.32134h-1.17011v2.35909h-1.35883zM239.85922,126.3656h1.39658v4.68043h0.9625v-1.17011h3.69905v1.17011h1.15124v1.15123h1.1701v6.03925h-1.1701v1.17011h-1.15124v1.18898h-3.69905v-1.18898h-0.9625v1.18898h-1.39658zM242.40703,138.04779v1.15123h3.30272v-1.15123h1.17011v-5.64294h-1.17011v-1.1701h-3.30272v1.1701h-1.15123v5.64294zM249.29556,138.04779h1.18898v-0.98138h-1.18898v-1.35883h1.18898v-0.96251h-1.18898v-3.69904h1.18898v-1.17011h4.86915v1.17011h0.96251v-1.17011h1.35883v1.35883h-1.17011v3.51032h-1.15123v1.17011h-4.66155v0.96251h5.81278v1.17011h1.17011v2.54781h-1.17011v1.1701h-6.02038v-1.1701h-1.18898zM255.14609,134.53747v-3.30272h-4.45395v3.30272zM256.3162,140.36913v-2.13262h-5.62406v2.13262zM258.7319,129.87592h1.39658v1.17011h0.96251v-1.17011h1.35883v1.17011h2.13261v-1.17011h1.35883v1.17011h1.1701v9.54958h-1.35883v-9.36085h-0.96251v1.1701h-1.1701v8.19075h-1.3777v-9.36085h-0.96251v1.1701h-1.15123v8.19075h-1.39658zM268.16824,138.04779h1.17011v-2.34022h1.15123v-2.34021h1.1701v-2.32134h1.17011v-2.34022h1.1701v-2.34021h1.15123v-2.32134h1.3777v2.52894h-1.1701v2.34021h-1.17011v2.32134h-1.15123v2.34022h-1.17011v2.34021h-1.17011v2.32134h-1.1701v2.35909h-1.35883zM277.60457,129.87592h1.39658v1.17011h0.96251v-1.17011h3.69904v1.17011h1.15124v1.15123h1.1701v4.86915h-1.1701v1.1701h-1.15124v1.17011h-3.69904v-1.17011h-0.96251v3.52919h-1.39658zM283.45511,138.04779v-1.17011h1.1701v-4.47283h-1.1701v-1.1701h-3.30272v1.1701h-1.15123v4.47283h1.15123v1.17011zM290.53237,126.3656h1.3777v14.23h-1.3777zM296.47727,135.70757h1.18897v-1.17011h4.66156v-3.30272h-4.45396v2.34022h-1.39657v-2.52894h1.18897v-1.17011h4.86916v1.17011h1.15123v8.153h1.17011v1.39658h-1.35883v-1.18898h-2.13261v1.18898h-3.69905v-1.18898h-1.18897zM301.15769,139.19902v-1.15123h1.17011v-2.13262h-4.45396v3.28385zM309.42391,140.36913v-2.13262h-1.15123v-2.32134h-1.17011v-3.51032h-1.18898v-2.52893h1.39657v2.32134h1.15124v3.51032h1.1701v2.34022h0.96251v-2.34022h1.1701v-3.51032h1.17011v-2.32134h1.35883v2.52893h-1.17011v3.51032h-1.15123v2.32134h-1.1701v2.35909h-1.17011v1.1701h-3.71792v-1.39657zM320.01149,126.5732h-2.32134v-1.35883h3.69905v15.38124h-1.3777zM325.97526,138.23651h-1.18898v-1.35883h1.39658v1.17011h1.15123v1.15123h3.30272v-1.15123h1.17011v-3.30272h-0.96251v1.17011h-3.69905v-1.17011h-1.1701v-1.1701h-1.18898v-6.03926h1.18898v-1.17011h1.1701v-1.15123h3.69905v1.15123h1.15123v1.17011h1.17011v10.70081h-1.17011v1.17011h-1.15123v1.18898h-3.69905v-1.18898h-1.1701zM330.63681,134.53747v-1.17011h1.17011v-5.62406h-1.17011v-1.17011h-3.30272v1.17011h-1.15123v5.62406h1.15123v1.17011zM336.5817,136.87768h1.15123v-3.51032h1.1701v-3.49144h1.17011v-2.34022h1.1701v-0.9625h-7.02063v-1.35883h8.37947v2.52894h-1.1701v2.34021h-1.15124v3.49145h-1.1701v3.49144h-1.1701v3.52919h-1.35883zM343.65897,135.70757h1.18898v-1.17011h1.1701v-1.17011h2.32134v-1.17011h1.1701v-1.15123h1.17011v-3.30272h-1.17011v-1.17011h-3.30272v1.17011h-1.15123v3.49144h-1.39658v-3.69905h1.18898v-1.17011h1.1701v-1.15123h3.69905v1.15123h1.15123v1.17011h1.17011v3.69905h-1.17011v1.1701h-1.15123v1.17011h-1.1701v1.1701h-2.34022v1.17011h-1.15123v3.28385h6.98289v1.39658h-8.37947zM354.28428,138.23651h-1.18898v-3.69904h1.18898v-1.17011h1.17011v-0.96251h-1.17011v-1.1701h-1.18898v-3.69905h1.18898v-1.17011h1.17011v-1.15123h3.69904v1.15123h1.15124v1.17011h1.1701v3.69905h-1.1701v1.1701h-1.15124v0.96251h1.15124v1.17011h1.1701v3.69904h-1.1701v1.17011h-1.15124v1.18898h-3.69904v-1.18898h-1.17011zM358.94584,132.19725v-1.15123h1.17011v-3.30272h-1.17011v-1.17011h-3.30272v1.17011h-1.15123v3.30272h1.15123v1.15123zM355.64312,138.04779v1.15123h3.30272v-1.15123h1.17011v-3.30272h-1.17011v-1.1701h-3.30272v1.1701h-1.15123v3.30272zM363.19219,136.87768h2.52894v2.52893h-2.52894zM371.96799,126.3656h1.39658v4.68043h0.96251v-1.17011h3.69904v1.17011h1.15124v1.15123h1.1701v8.39834h-1.35883v-8.19075h-1.1701v-1.1701h-3.30272v1.1701h-1.15123v8.19075h-1.39658zM384.34846,131.23475h-2.35908v-1.35883h2.35908v-3.51032h1.35883v3.51032h3.49144v1.35883h-3.49144v7.96427h3.49144v1.39658h-3.69905v-1.18898h-1.15123zM390.84066,129.87592h1.39657v1.17011h0.96251v-1.17011h1.35883v1.17011h2.13261v-1.17011h1.35883v1.17011h1.17011v9.54958h-1.35883v-9.36085h-0.9625v1.1701h-1.17011v8.19075h-1.3777v-9.36085h-0.96251v1.1701h-1.15123v8.19075h-1.39657zM403.76846,126.3656h1.3777v14.23h-1.3777zM412.69522,140.36913v-1.17011h1.15123v-2.32134h1.1701v-7.96428h-1.1701v-2.34021h-1.15123v-1.17011h-1.17011v-1.35883h1.35883v1.17011h1.17011v1.15123h1.1701v2.34021h1.17011v8.3606h-1.17011v2.34021h-1.1701v1.18898h-1.17011v1.1701h-1.35883v-1.39657zM57.60574,158.93355h1.1701v-1.15124h2.52894v1.15124h1.17011v2.54781h-1.17011v1.17011h-2.52894v-1.17011h-1.1701zM70.00508,151.95066h8.37947v1.35883h-6.98289v5.62406h5.81279v1.3777h-5.81279v7.02064h-1.39658zM80.63041,164.97281h-1.18898v-8.3606h1.39658v8.17187h1.15123v1.15124h3.30272v-1.15124h1.1701v-8.17187h1.35883v10.71968h-1.35883v-1.18898h-0.96251v1.18898h-3.69904v-1.18898h-1.17011zM88.87777,153.10189h1.39658v8.17188h0.96251v-1.17011h1.15123v-1.17011h2.34022v-1.15124h1.1701v-1.1701h1.35883v1.35883h-1.17011v1.1701h-1.15123v1.17011h-2.34022v1.17011h-1.17011v0.96251h1.17011v1.1701h2.34022v1.17011h1.15123v1.15124h1.17011v1.39658h-1.35883v-1.18898h-1.1701v-1.17011h-2.34022v-1.17011h-1.15123v-1.15123h-0.96251v4.68043h-1.39658zM98.31412,162.44387h1.18897v-1.17011h4.66155v-3.30272h-4.45395v2.34021h-1.39657v-2.52894h1.18897v-1.1701h4.86915v1.1701h1.15123v8.153h1.17011v1.39658h-1.35883v-1.18898h-2.13262v1.18898h-3.69904v-1.18898h-1.18897zM102.99454,165.93532v-1.15124h1.1701v-2.13261h-4.45395v3.28385zM107.75046,164.78408h1.18897v-0.98138h-1.18897v-1.35883h1.18897v-0.96251h-1.18897v-3.69905h1.18897v-1.1701h4.86915v1.1701h0.96251v-1.1701h1.35883v1.35883h-1.17011v3.51032h-1.15123v1.17011h-4.66155v0.9625h5.81279v1.17011h1.17011v2.54782h-1.17011v1.1701h-6.02039v-1.1701h-1.18897zM113.60099,161.27377v-3.30272h-4.45395v3.30272zM114.77109,167.10542v-2.13261h-5.62406v2.13261zM117.1868,162.44387h1.18898v-1.17011h4.66155v-3.30272h-4.45395v2.34021h-1.39657v-2.52894h1.18898v-1.1701h4.86915v1.1701h1.15124v8.153h1.1701v1.39658h-1.35883v-1.18898h-2.13261v1.18898h-3.69904v-1.18898h-1.18898zM121.86722,165.93532v-1.15124h1.1701v-2.13261h-4.45395v3.28385zM127.81212,163.8027h-1.18898v-7.19049h1.39658v7.00176h0.96251v-3.51032h1.15123v-3.49144h1.3777v3.49144h1.17011v3.51032h0.9625v-7.00176h1.35883v7.19049h-1.1701v3.5292h-1.35883v-3.5292h-1.17011v-3.49144h-0.96251v3.49144h-1.17011v3.5292h-1.35883zM136.05948,162.44387h1.18898v-1.17011h4.66155v-3.30272h-4.45395v2.34021h-1.39658v-2.52894h1.18898v-1.1701h4.86915v1.1701h1.15124v8.153h1.1701v1.39658h-1.35883v-1.18898h-2.13261v1.18898h-3.69904v-1.18898h-1.18898zM140.73989,165.93532v-1.15124h1.17011v-2.13261h-4.45395v3.28385zM162.0094,164.76521h2.32134v-1.17011h1.17011v-0.96251h-1.17011v-1.1701h-1.17011v-2.54781h3.51032v-2.11374h-2.34022v-1.37771h2.34022v-0.9625h-3.51032v-1.3777h2.34021v-0.96251h-1.17011v-1.35883h1.3777v1.17011h1.15124v1.15124h0.9625v-1.15124h1.17011v-1.17011h1.37771v1.35883h-1.17011v0.96251h3.49145v1.3777h-4.66155v0.9625h3.49144v1.37771h-3.49144v2.11374h4.66155v1.3777h-4.66155v0.9625h1.1701v2.34022h0.96251v-1.17011h1.15124v-1.17011h1.3777v1.3777h-1.17011v1.15124h-1.15123v0.98138h1.15123v1.15123h1.17011v1.39658h-1.3777v-1.18898h-1.15124v-1.1701h-1.17011v-1.17011h-0.96251v3.52919h-1.17011v1.17011h-2.52894v-1.39658h2.34022v-3.30272h-0.96251v1.17011h-1.1701v1.1701h-2.52894zM154.98878,162.425h1.18898v-2.34021h1.17011v-2.32134h1.15123v-0.9625h-3.51031v-1.37771h3.51031v-4.66155h1.37771v4.66155h3.49144v1.37771h-3.49144v0.9625h1.17011v1.15124h1.15123v2.54781h-1.35883v-2.34022h-0.9625v9.36085h-1.37771v-8.19074h-0.9625v2.34021h-1.15124v1.15124h-1.39657zM165.70845,161.25489v1.17011h0.96251v-2.13261h-2.13261v0.9625zM62.28617,182.17841h1.15123v-2.34022h1.17011v-1.15124h1.1701v-1.1701h1.35883v1.35883h-1.15123v1.1701h-1.1701v2.34021h-1.17011v7.96427h1.17011v2.32134h1.1701v1.1701h1.15123v1.39658h-1.35883v-1.17011h-1.1701v-1.18897h-1.17011v-2.34022h-1.15123zM70.00508,179.83819h1.39658v4.68042h0.96251v-1.1701h3.69904v1.1701h1.15123v1.15124h1.1701v8.39834h-1.35883v-8.19074h-1.17011v-1.17011h-3.30272v1.17011h-1.15123v8.19074h-1.39658zM82.38557,184.70734h-2.35909v-1.35883h2.35909v-3.51032h1.35883v3.51032h3.49144v1.35883h-3.49144v7.96428h3.49144v1.39657h-3.69904v-1.18897h-1.15123zM91.82191,184.70734h-2.35909v-1.35883h2.35909v-3.51032h1.35883v3.51032h3.49144v1.35883h-3.49144v7.96428h3.49144v1.39657h-3.69904v-1.18897h-1.15123zM98.31412,183.34851h1.39657v1.1701h0.96251v-1.1701h3.69904v1.1701h1.15123v1.15124h1.17011v4.86915h-1.17011v1.17011h-1.15123v1.17011h-3.69904v-1.17011h-0.96251v3.52919h-1.39657zM104.16465,191.52038v-1.17011h1.17011v-4.47282h-1.17011v-1.17011h-3.30272v1.17011h-1.15123v4.47283h1.15123v1.17011zM107.75046,190.35028h1.39657v2.32134h5.62406v-3.28385h-5.83166v-1.17011h-1.18897v-3.69905h1.18897v-1.1701h6.02039v1.1701h1.17011v2.52894h-1.35883v-2.34022h-5.62406v3.30272h5.81279v1.17011h1.17011v3.69905h-1.17011v1.18897h-6.02039v-1.18897h-1.18897zM120.09319,183.34851h2.54782v2.52894h-2.54781zM120.09319,190.35028h2.54782v2.52894h-2.54781zM126.62313,191.52038h1.17011v-2.34022h1.15124v-2.34021h1.1701v-2.32134h1.17011v-2.34021h1.17011v-2.34022h1.15123v-2.32134h1.37771v2.52894h-1.17011v2.34021h-1.17011v2.32134h-1.15123v2.34022h-1.17011v2.34021h-1.17011v2.32134h-1.17011v2.35908h-1.35883zM136.05948,191.52038h1.17011v-2.34022h1.15124v-2.34021h1.1701v-2.32134h1.17011v-2.34021h1.17011v-2.34022h1.15123v-2.32134h1.37771v2.52894h-1.17011v2.34021h-1.17011v2.32134h-1.15123v2.34022h-1.17011v2.34021h-1.17011v2.32134h-1.17011v2.35908h-1.35883zM146.6848,191.70911h-1.18898v-6.03925h1.18898v-1.15124h1.1701v-1.1701h3.69905v1.1701h0.96251v-4.68042h1.35883v14.23h-1.35883v-1.18897h-0.96251v1.18897h-3.69905v-1.18897h-1.1701zM148.04363,191.52038v1.15124h3.30272v-1.15124h1.17011v-5.64293h-1.17011v-1.17011h-3.30272v1.17011h-1.15123v5.64293zM156.12114,191.70911h-1.18898v-6.03925h1.18898v-1.15124h1.1701v-1.1701h3.69905v1.1701h1.15123v1.15124h1.17011v6.03925h-1.17011v1.17011h-1.15123v1.18897h-3.69905v-1.18897h-1.1701zM157.47997,191.52038v1.15124h3.30271v-1.15124h1.17011v-5.64293h-1.17011v-1.17011h-3.30271v1.17011h-1.15124v5.64293zM166.72758,189.38777h-1.1701v-2.34021h-1.18898v-3.69904h1.39658v3.49144h1.15124v2.34021h1.1701v2.34022h0.96251v-2.34022h1.1701v-2.34021h1.17011v-3.49144h1.35883v3.69904h-1.17011v2.34021h-1.15123v2.32134h-1.17011v2.35908h-1.3777v-2.35908h-1.15124zM173.80484,189.18017h1.18898v-1.17011h4.66155v-3.30272h-4.45396v2.34022h-1.39658v-2.52894h1.18898v-1.1701h4.86915v1.1701h1.15123v8.153h1.17011v1.39657h-1.35883v-1.18897h-2.13262v1.18897h-3.69904v-1.18897h-1.18898zM178.48526,192.67162v-1.15124h1.17011v-2.13261h-4.45396v3.28385zM183.82623,188.01006h7.19049v1.37771h-7.19049zM192.67752,190.35028h1.39658v2.32134h5.62406v-3.28385h-5.83166v-1.17011h-1.18897v-3.69905h1.18897v-1.1701h6.02039v1.1701h1.17011v2.52894h-1.35884v-2.34022h-5.62406v3.30272h5.81278v1.17011h1.17011v3.69905h-1.17011v1.18897h-6.02039v-1.18897h-1.18897zM202.7744,190.35028h2.52894v2.52894h-2.52894zM216.21175,179.83819h1.3777v2.54781h-1.3777zM216.21175,193.84172v-10.49321h1.3777v10.71968h-1.1701v1.17011h-2.52894v-1.39658zM220.98654,183.34851h1.39658v1.1701h0.96251v-1.1701h3.69904v1.1701h1.15124v1.15124h1.1701v4.86915h-1.1701v1.17011h-1.15124v1.17011h-3.69904v-1.17011h-0.96251v3.52919h-1.39658zM226.83707,191.52038v-1.17011h1.1701v-4.47282h-1.1701v-1.17011h-3.30272v1.17011h-1.15123v4.47283h1.15123v1.17011zM230.42288,191.52038h1.17011v-2.34022h1.15124v-2.34021h1.1701v-2.32134h1.17011v-2.34021h1.17011v-2.34022h1.15123v-2.32134h1.37771v2.52894h-1.17011v2.34021h-1.17011v2.32134h-1.15123v2.34022h-1.17011v2.34021h-1.17011v2.32134h-1.17011v2.35908h-1.35883zM239.85922,179.83819h1.39658v4.68042h0.9625v-1.1701h3.69905v1.1701h1.15124v1.15124h1.1701v6.03925h-1.1701v1.17011h-1.15124v1.18897h-3.69905v-1.18897h-0.9625v1.18897h-1.39658zM242.40703,191.52038v1.15124h3.30272v-1.15124h1.17011v-5.64293h-1.17011v-1.17011h-3.30272v1.17011h-1.15123v5.64293zM249.29556,191.52038h1.18898v-0.98138h-1.18898v-1.35883h1.18898v-0.9625h-1.18898v-3.69905h1.18898v-1.1701h4.86915v1.1701h0.96251v-1.1701h1.35883v1.35883h-1.17011v3.51032h-1.15123v1.17011h-4.66155v0.96251h5.81278v1.17011h1.17011v2.54781h-1.17011v1.17011h-6.02038v-1.17011h-1.18898zM255.14609,188.01006v-3.30272h-4.45395v3.30272zM256.3162,193.84172v-2.13261h-5.62406v2.13261zM258.7319,183.34851h1.39658v1.1701h0.96251v-1.1701h1.35883v1.1701h2.13261v-1.1701h1.35883v1.1701h1.1701v9.54958h-1.35883v-9.36085h-0.96251v1.17011h-1.1701v8.19074h-1.3777v-9.36085h-0.96251v1.17011h-1.15123v8.19074h-1.39658zM268.16824,191.52038h1.17011v-2.34022h1.15123v-2.34021h1.1701v-2.32134h1.17011v-2.34021h1.1701v-2.34022h1.15123v-2.32134h1.3777v2.52894h-1.1701v2.34021h-1.17011v2.32134h-1.15123v2.34022h-1.17011v2.34021h-1.17011v2.32134h-1.1701v2.35908h-1.35883zM277.60457,183.34851h1.39658v1.1701h0.96251v-1.1701h3.69904v1.1701h1.15124v1.15124h1.1701v4.86915h-1.1701v1.17011h-1.15124v1.17011h-3.69904v-1.17011h-0.96251v3.52919h-1.39658zM283.45511,191.52038v-1.17011h1.1701v-4.47282h-1.1701v-1.17011h-3.30272v1.17011h-1.15123v4.47283h1.15123v1.17011zM290.53237,179.83819h1.3777v14.23h-1.3777zM296.47727,189.18017h1.18897v-1.17011h4.66156v-3.30272h-4.45396v2.34022h-1.39657v-2.52894h1.18897v-1.1701h4.86916v1.1701h1.15123v8.153h1.17011v1.39657h-1.35883v-1.18897h-2.13261v1.18897h-3.69905v-1.18897h-1.18897zM301.15769,192.67162v-1.15124h1.17011v-2.13261h-4.45396v3.28385zM309.42391,193.84172v-2.13261h-1.15123v-2.32134h-1.17011v-3.51032h-1.18898v-2.52894h1.39657v2.32134h1.15124v3.51031h1.1701v2.34022h0.96251v-2.34022h1.1701v-3.51031h1.17011v-2.32134h1.35883v2.52894h-1.17011v3.51032h-1.15123v2.32134h-1.1701v2.35908h-1.17011v1.17011h-3.71792v-1.39658zM315.34994,189.18017h1.18898v-1.17011h1.17011v-1.1701h2.32134v-1.17011h1.17011v-1.15124h1.1701v-3.30272h-1.1701v-1.17011h-3.30272v1.17011h-1.15123v3.49144h-1.39657v-3.69904h1.18898v-1.17011h1.17011v-1.15124h3.69905v1.15124h1.15123v1.17011h1.1701v3.69904h-1.1701v1.17011h-1.15123v1.17011h-1.17011v1.17011h-2.34022v1.17011h-1.15123v3.28385h6.98289v1.39657h-8.37947zM325.97526,191.70911h-1.18898v-10.70081h1.18898v-1.17011h1.1701v-1.15124h3.69905v1.15124h1.15123v1.17011h1.17011v10.70081h-1.17011v1.17011h-1.15123v1.18897h-3.69905v-1.18897h-1.1701zM327.33409,191.52038v1.15124h3.30272v-1.15124h1.17011v-10.30448h-1.17011v-1.17011h-3.30272v1.17011h-1.15123v10.30449zM335.41161,191.70911h-1.18898v-1.35883h1.39658v1.17011h1.15123v1.15124h3.30272v-1.15124h1.1701v-4.47282h-1.1701v-1.17011h-3.30272v1.17011h-1.15123v1.17011h-1.39658v-9.53071h7.20936v1.35883h-5.81279v5.62406h0.96251v-1.15124h3.69904v1.15124h1.15124v1.17011h1.1701v4.86915h-1.1701v1.17011h-1.15124v1.18897h-3.69904v-1.18897h-1.17011zM343.16828,190.35028h1.1701v-1.17011h1.15123v-2.34021h1.11349v-2.32134h1.15123v-2.34021h1.15123v-2.34022h1.15124v-1.15124h1.32108v11.66332h1.15123v1.35883h-1.15123v2.35908h-1.32108v-2.35908h-6.88853zM350.0568,190.35028v-7.96427h-0.94364v2.32134h-1.15123v2.34022h-1.15123v2.34021h-1.15123v0.96251zM354.28428,191.70911h-1.18898v-1.35883h1.39658v1.17011h1.15123v1.15124h3.30272v-1.15124h1.17011v-3.30272h-0.96251v1.17011h-3.69904v-1.17011h-1.17011v-1.17011h-1.18898v-6.03926h1.18898v-1.17011h1.17011v-1.15124h3.69904v1.15124h1.15124v1.17011h1.1701v10.70081h-1.1701v1.17011h-1.15124v1.18897h-3.69904v-1.18897h-1.17011zM358.94584,188.01006v-1.1701h1.17011v-5.62406h-1.17011v-1.17011h-3.30272v1.17011h-1.15123v5.62406h1.15123v1.1701zM363.19219,190.35028h2.52894v2.52894h-2.52894zM371.96799,179.83819h1.39658v4.68042h0.96251v-1.1701h3.69904v1.1701h1.15124v1.15124h1.1701v8.39834h-1.35883v-8.19074h-1.1701v-1.17011h-3.30272v1.17011h-1.15123v8.19074h-1.39658zM384.34846,184.70734h-2.35908v-1.35883h2.35908v-3.51032h1.35883v3.51032h3.49144v1.35883h-3.49144v7.96428h3.49144v1.39657h-3.69905v-1.18897h-1.15123zM390.84066,183.34851h1.39657v1.1701h0.96251v-1.1701h1.35883v1.1701h2.13261v-1.1701h1.35883v1.1701h1.17011v9.54958h-1.35883v-9.36085h-0.9625v1.17011h-1.17011v8.19074h-1.3777v-9.36085h-0.96251v1.17011h-1.15123v8.19074h-1.39657zM403.76846,179.83819h1.3777v14.23h-1.3777zM412.69522,193.84172v-1.1701h1.15123v-2.32134h1.1701v-7.96427h-1.1701v-2.34021h-1.15123v-1.1701h-1.17011v-1.35883h1.35883v1.1701h1.17011v1.15124h1.1701v2.34022h1.17011v8.36059h-1.17011v2.34022h-1.1701v1.18897h-1.17011v1.17011h-1.35883v-1.39658zM57.60574,212.40615h1.1701v-1.15123h2.52894v1.15123h1.17011v2.54782h-1.17011v1.17011h-2.52894v-1.17011h-1.1701zM71.83574,218.44541h-1.18897v-6.03926h1.18897v-2.32134h1.17011v-1.17011h1.15123v-1.1701h2.34022v-1.17011h6.02039v1.17011h2.34021v1.1701h1.17011v2.34022h1.15123v6.02039h-1.15123v2.34021h-1.17011v1.18898h-2.34021v1.17011h-3.69904v-1.39658h3.51032v-1.17011h2.32134v-2.32134h1.17011v-5.64293h-1.17011v-2.32134h-2.32134v-1.17011h-2.13261v3.49144h-1.1701v3.51032h-1.17011v2.32134h-1.15123v2.34021h-1.17011v1.18898h-2.52894v-1.18898h-1.17011zM73.19458,218.25668v1.15123h2.13261v-2.32134h1.17011v-2.34021h1.17011v-3.49144h1.15123v-3.30272h-2.11374v1.17011h-2.34022v1.17011h-1.1701v2.32134h-1.15123v5.64293zM91.85966,217.08657h1.15123v-1.17011h3.69904v1.17011h1.1701v2.32134h3.30272v-1.15123h1.15123v-1.17011h1.1701v-2.13261h-1.1701v-1.17011h-7.9454v1.17011h-2.34021v1.17011h-1.35883v-1.37771h1.17011v-1.1701h2.32134v-1.17011h1.17011v-1.15123h1.17011v-1.17011h2.32134v-1.17011h1.1701v-0.9625h-8.153v-1.3777h10.68194v1.3777h-1.17011v1.17011h-1.15123v1.17011h-1.17011v1.15123h-2.34021v0.9625h5.83166v1.17011h1.1701v1.1701h1.17011v2.52894h-1.17011v2.34021h-2.34022v1.18898h-8.36059v-1.18898h-1.15123zM96.52121,219.40791v-2.13261h-3.30272v2.13261zM124.26405,218.23781h2.32134v-1.1701h1.17011v-0.96251h-1.17011v-1.17011h-1.1701v-2.54781h3.51031v-2.11374h-2.34021v-1.3777h2.34021v-0.96251h-3.51031v-1.3777h2.34021v-0.9625h-1.17011v-1.35883h1.37771v1.17011h1.15123v1.15123h0.9625v-1.15123h1.17011v-1.17011h1.3777v1.35883h-1.1701v0.9625h3.49144v1.3777h-4.66155v0.96251h3.49144v1.3777h-3.49144v2.11374h4.66155v1.3777h-4.66155v0.96251h1.17011v2.34022h0.9625v-1.17011h1.15123v-1.17011h1.37771v1.3777h-1.17011v1.15124h-1.15124v0.98138h1.15124v1.15124h1.17011v1.39658h-1.37771v-1.18897h-1.15123v-1.17011h-1.17011v-1.1701h-0.9625v3.52919h-1.17011v1.17011h-2.52894v-1.39658h2.34021v-3.30272h-0.9625v1.1701h-1.17011v1.17011h-2.52894zM117.24341,215.8976h1.18898v-2.34022h1.17011v-2.32134h1.15123v-0.96251h-3.51032v-1.3777h3.51032v-4.66155h1.3777v4.66155h3.49145v1.3777h-3.49145v0.96251h1.17011v1.15123h1.15123v2.54781h-1.35883v-2.34021h-0.96251v9.36085h-1.3777v-8.19075h-0.96251v2.34021h-1.15123v1.15124h-1.39658zM127.9631,214.72749v1.17011h0.9625v-2.13262h-2.13261v0.96251zM62.28617,235.651h1.15123v-2.34022h1.17011v-1.15123h1.1701v-1.17011h1.35883v1.35883h-1.15123v1.17011h-1.1701v2.34022h-1.17011v7.96427h1.17011v2.32134h1.1701v1.17011h1.15123v1.39658h-1.35883v-1.17011h-1.1701v-1.18898h-1.17011v-2.34022h-1.15123zM70.00508,233.31079h1.39658v4.68043h0.96251v-1.17011h3.69904v1.17011h1.15123v1.15123h1.1701v8.39835h-1.35883v-8.19074h-1.17011v-1.17011h-3.30272v1.17011h-1.15123v8.19074h-1.39658zM82.38557,238.17994h-2.35909v-1.35883h2.35909v-3.51032h1.35883v3.51032h3.49144v1.35883h-3.49144v7.96427h3.49144v1.39658h-3.69904v-1.18898h-1.15123zM91.82191,238.17994h-2.35909v-1.35883h2.35909v-3.51032h1.35883v3.51032h3.49144v1.35883h-3.49144v7.96427h3.49144v1.39658h-3.69904v-1.18898h-1.15123zM98.31412,236.82111h1.39657v1.17011h0.96251v-1.17011h3.69904v1.17011h1.15123v1.15123h1.17011v4.86915h-1.17011v1.17011h-1.15123v1.17011h-3.69904v-1.17011h-0.96251v3.52919h-1.39657zM104.16465,244.99298v-1.17011h1.17011v-4.47282h-1.17011v-1.17011h-3.30272v1.17011h-1.15123v4.47283h1.15123v1.17011zM107.75046,243.82287h1.39657v2.32134h5.62406v-3.28384h-5.83166v-1.17011h-1.18897v-3.69905h1.18897v-1.17011h6.02039v1.17011h1.17011v2.52894h-1.35883v-2.34021h-5.62406v3.30272h5.81279v1.17011h1.17011v3.69905h-1.17011v1.18898h-6.02039v-1.18898h-1.18897zM120.09319,236.82111h2.54782v2.52894h-2.54781zM120.09319,243.82287h2.54782v2.52894h-2.54781zM126.62313,244.99298h1.17011v-2.34021h1.15124v-2.34022h1.1701v-2.32134h1.17011v-2.34021h1.17011v-2.34022h1.15123v-2.32134h1.37771v2.52894h-1.17011v2.34022h-1.17011v2.32134h-1.15123v2.34021h-1.17011v2.34022h-1.17011v2.32134h-1.17011v2.35908h-1.35883zM136.05948,244.99298h1.17011v-2.34021h1.15124v-2.34022h1.1701v-2.32134h1.17011v-2.34021h1.17011v-2.34022h1.15123v-2.32134h1.37771v2.52894h-1.17011v2.34022h-1.17011v2.32134h-1.15123v2.34021h-1.17011v2.34022h-1.17011v2.32134h-1.17011v2.35908h-1.35883zM146.6848,245.18171h-1.18898v-6.03926h1.18898v-1.15123h1.1701v-1.17011h3.69905v1.17011h0.96251v-4.68043h1.35883v14.23001h-1.35883v-1.18898h-0.96251v1.18898h-3.69905v-1.18898h-1.1701zM148.04363,244.99298v1.15123h3.30272v-1.15123h1.17011v-5.64293h-1.17011v-1.17011h-3.30272v1.17011h-1.15123v5.64293zM156.12114,245.18171h-1.18898v-6.03926h1.18898v-1.15123h1.1701v-1.17011h3.69905v1.17011h1.15123v1.15123h1.17011v6.03926h-1.17011v1.17011h-1.15123v1.18898h-3.69905v-1.18898h-1.1701zM157.47997,244.99298v1.15123h3.30271v-1.15123h1.17011v-5.64293h-1.17011v-1.17011h-3.30271v1.17011h-1.15124v5.64293zM166.72758,242.86037h-1.1701v-2.34022h-1.18898v-3.69905h1.39658v3.49144h1.15124v2.34022h1.1701v2.34021h0.96251v-2.34021h1.1701v-2.34022h1.17011v-3.49144h1.35883v3.69905h-1.17011v2.34022h-1.15123v2.32134h-1.17011v2.35908h-1.3777v-2.35908h-1.15124zM173.80484,242.65277h1.18898v-1.17011h4.66155v-3.30272h-4.45396v2.34021h-1.39658v-2.52894h1.18898v-1.17011h4.86915v1.17011h1.15123v8.153h1.17011v1.39658h-1.35883v-1.18898h-2.13262v1.18898h-3.69904v-1.18898h-1.18898zM178.48526,246.14421v-1.15123h1.17011v-2.13261h-4.45396v3.28384zM183.82623,241.48266h7.19049v1.37771h-7.19049zM192.67752,243.82287h1.39658v2.32134h5.62406v-3.28384h-5.83166v-1.17011h-1.18897v-3.69905h1.18897v-1.17011h6.02039v1.17011h1.17011v2.52894h-1.35884v-2.34021h-5.62406v3.30272h5.81278v1.17011h1.17011v3.69905h-1.17011v1.18898h-6.02039v-1.18898h-1.18897zM202.7744,243.82287h2.52894v2.52894h-2.52894zM216.21175,233.31079h1.3777v2.54782h-1.3777zM216.21175,247.31432v-10.49321h1.3777v10.71968h-1.1701v1.17011h-2.52894v-1.39658zM220.98654,236.82111h1.39658v1.17011h0.96251v-1.17011h3.69904v1.17011h1.15124v1.15123h1.1701v4.86915h-1.1701v1.17011h-1.15124v1.17011h-3.69904v-1.17011h-0.96251v3.52919h-1.39658zM226.83707,244.99298v-1.17011h1.1701v-4.47282h-1.1701v-1.17011h-3.30272v1.17011h-1.15123v4.47283h1.15123v1.17011zM230.42288,244.99298h1.17011v-2.34021h1.15124v-2.34022h1.1701v-2.32134h1.17011v-2.34021h1.17011v-2.34022h1.15123v-2.32134h1.37771v2.52894h-1.17011v2.34022h-1.17011v2.32134h-1.15123v2.34021h-1.17011v2.34022h-1.17011v2.32134h-1.17011v2.35908h-1.35883zM239.85922,233.31079h1.39658v4.68043h0.9625v-1.17011h3.69905v1.17011h1.15124v1.15123h1.1701v6.03926h-1.1701v1.17011h-1.15124v1.18898h-3.69905v-1.18898h-0.9625v1.18898h-1.39658zM242.40703,244.99298v1.15123h3.30272v-1.15123h1.17011v-5.64293h-1.17011v-1.17011h-3.30272v1.17011h-1.15123v5.64293zM249.29556,244.99298h1.18898v-0.98138h-1.18898v-1.35883h1.18898v-0.96251h-1.18898v-3.69905h1.18898v-1.17011h4.86915v1.17011h0.96251v-1.17011h1.35883v1.35883h-1.17011v3.51032h-1.15123v1.17011h-4.66155v0.9625h5.81278v1.17011h1.17011v2.54781h-1.17011v1.17011h-6.02038v-1.17011h-1.18898zM255.14609,241.48266v-3.30272h-4.45395v3.30272zM256.3162,247.31432v-2.13261h-5.62406v2.13261zM258.7319,236.82111h1.39658v1.17011h0.96251v-1.17011h1.35883v1.17011h2.13261v-1.17011h1.35883v1.17011h1.1701v9.54958h-1.35883v-9.36085h-0.96251v1.17011h-1.1701v8.19074h-1.3777v-9.36085h-0.96251v1.17011h-1.15123v8.19074h-1.39658zM268.16824,244.99298h1.17011v-2.34021h1.15123v-2.34022h1.1701v-2.32134h1.17011v-2.34021h1.1701v-2.34022h1.15123v-2.32134h1.3777v2.52894h-1.1701v2.34022h-1.17011v2.32134h-1.15123v2.34021h-1.17011v2.34022h-1.17011v2.32134h-1.1701v2.35908h-1.35883zM277.60457,236.82111h1.39658v1.17011h0.96251v-1.17011h3.69904v1.17011h1.15124v1.15123h1.1701v4.86915h-1.1701v1.17011h-1.15124v1.17011h-3.69904v-1.17011h-0.96251v3.52919h-1.39658zM283.45511,244.99298v-1.17011h1.1701v-4.47282h-1.1701v-1.17011h-3.30272v1.17011h-1.15123v4.47283h1.15123v1.17011zM290.53237,233.31079h1.3777v14.23001h-1.3777zM296.47727,242.65277h1.18897v-1.17011h4.66156v-3.30272h-4.45396v2.34021h-1.39657v-2.52894h1.18897v-1.17011h4.86916v1.17011h1.15123v8.153h1.17011v1.39658h-1.35883v-1.18898h-2.13261v1.18898h-3.69905v-1.18898h-1.18897zM301.15769,246.14421v-1.15123h1.17011v-2.13261h-4.45396v3.28384zM309.42391,247.31432v-2.13261h-1.15123v-2.32134h-1.17011v-3.51032h-1.18898v-2.52894h1.39657v2.32134h1.15124v3.51032h1.1701v2.34021h0.96251v-2.34021h1.1701v-3.51032h1.17011v-2.32134h1.35883v2.52894h-1.17011v3.51032h-1.15123v2.32134h-1.1701v2.35908h-1.17011v1.17011h-3.71792v-1.39658zM315.34994,242.65277h1.18898v-1.17011h1.17011v-1.17011h2.32134v-1.17011h1.17011v-1.15123h1.1701v-3.30272h-1.1701v-1.17011h-3.30272v1.17011h-1.15123v3.49145h-1.39657v-3.69904h1.18898v-1.17011h1.17011v-1.15123h3.69905v1.15123h1.15123v1.17011h1.1701v3.69904h-1.1701v1.17011h-1.15123v1.17011h-1.17011v1.17011h-2.34022v1.17011h-1.15123v3.28384h6.98289v1.39658h-8.37947zM325.97526,245.18171h-1.18898v-10.70081h1.18898v-1.17011h1.1701v-1.15123h3.69905v1.15123h1.15123v1.17011h1.17011v10.70081h-1.17011v1.17011h-1.15123v1.18898h-3.69905v-1.18898h-1.1701zM327.33409,244.99298v1.15123h3.30272v-1.15123h1.17011v-10.30448h-1.17011v-1.17011h-3.30272v1.17011h-1.15123v10.30449zM335.41161,245.18171h-1.18898v-1.35883h1.39658v1.17011h1.15123v1.15123h3.30272v-1.15123h1.1701v-3.30272h-0.96251v1.17011h-3.69904v-1.17011h-1.17011v-1.17011h-1.18898v-6.03925h1.18898v-1.17011h1.17011v-1.15123h3.69904v1.15123h1.15124v1.17011h1.1701v10.70081h-1.1701v1.17011h-1.15124v1.18898h-3.69904v-1.18898h-1.17011zM340.07315,241.48266v-1.17011h1.1701v-5.62406h-1.1701v-1.17011h-3.30272v1.17011h-1.15123v5.62406h1.15123v1.17011zM344.84795,245.18171h-1.18898v-1.35883h1.39658v1.17011h1.15123v1.15123h3.30272v-1.15123h1.17011v-3.30272h-0.96251v1.17011h-3.69905v-1.17011h-1.1701v-1.17011h-1.18898v-6.03925h1.18898v-1.17011h1.1701v-1.15123h3.69905v1.15123h1.15123v1.17011h1.17011v10.70081h-1.17011v1.17011h-1.15123v1.18898h-3.69905v-1.18898h-1.1701zM349.5095,241.48266v-1.17011h1.17011v-5.62406h-1.17011v-1.17011h-3.30272v1.17011h-1.15123v5.62406h1.15123v1.17011zM355.45439,243.82287h1.15123v-3.51032h1.1701v-3.49144h1.17011v-2.34021h1.17011v-0.96251h-7.02064v-1.35883h8.37947v2.52894h-1.1701v2.34022h-1.15124v3.49144h-1.1701v3.49144h-1.1701v3.52919h-1.35883zM363.19219,243.82287h2.52894v2.52894h-2.52894zM371.96799,233.31079h1.39658v4.68043h0.96251v-1.17011h3.69904v1.17011h1.15124v1.15123h1.1701v8.39835h-1.35883v-8.19074h-1.1701v-1.17011h-3.30272v1.17011h-1.15123v8.19074h-1.39658zM384.34846,238.17994h-2.35908v-1.35883h2.35908v-3.51032h1.35883v3.51032h3.49144v1.35883h-3.49144v7.96427h3.49144v1.39658h-3.69905v-1.18898h-1.15123zM390.84066,236.82111h1.39657v1.17011h0.96251v-1.17011h1.35883v1.17011h2.13261v-1.17011h1.35883v1.17011h1.17011v9.54958h-1.35883v-9.36085h-0.9625v1.17011h-1.17011v8.19074h-1.3777v-9.36085h-0.96251v1.17011h-1.15123v8.19074h-1.39657zM403.76846,233.31079h1.3777v14.23001h-1.3777zM412.69522,247.31432v-1.17011h1.15123v-2.32134h1.1701v-7.96427h-1.1701v-2.34022h-1.15123v-1.17011h-1.17011v-1.35883h1.35883v1.17011h1.17011v1.15123h1.1701v2.34022h1.17011v8.3606h-1.17011v2.34022h-1.1701v1.18898h-1.17011v1.17011h-1.35883v-1.39658zM57.60574,265.87875h1.1701v-1.15124h2.52894v1.15124h1.17011v2.54781h-1.17011v1.17011h-2.52894v-1.17011h-1.1701zM71.19406,271.918h-1.18898v-2.52894h1.39658v2.34022h1.15123v1.15123h3.30272v-1.15123h1.17011v-3.30272h-1.17011v-1.1701h-3.49144v-1.17011h-1.17011v-1.1701h-1.18898v-3.69905h1.18898v-1.1701h1.17011v-1.15124h3.69904v1.15124h1.15123v1.1701h1.1701v2.54781h-1.35883v-2.34021h-1.17011v-1.17011h-3.30272v1.17011h-1.15123v3.30272h1.15123v1.15124h3.51032v1.1701h1.15123v1.1701h1.1701v3.69905h-1.1701v1.17011h-1.15123v1.18898h-3.69904v-1.18898h-1.17011zM79.44142,263.55741h1.39658v1.1701h0.96251v-1.1701h3.69904v1.1701h1.15123v1.15124h1.1701v4.86915h-1.1701v1.1701h-1.15123v1.17011h-3.69904v-1.17011h-0.96251v3.52919h-1.39658zM85.29197,271.72928v-1.17011h1.1701v-4.47283h-1.1701v-1.1701h-3.30272v1.1701h-1.15123v4.47283h1.15123v1.17011zM90.04788,263.55741h1.35883v1.1701h0.96251v-1.1701h3.69904v1.35883h-3.49144v1.1701h-1.17011v8.19074h-1.35883zM101.80556,260.04709h1.37771v2.54781h-1.37771zM101.80556,263.55741h1.37771v10.71968h-1.37771zM107.75046,263.55741h1.39657v1.1701h0.96251v-1.1701h3.69904v1.1701h1.15123v1.15124h1.17011v8.39834h-1.35883v-8.19074h-1.17011v-1.1701h-3.30272v1.1701h-1.15123v8.19074h-1.39657zM117.1868,271.72928h1.18898v-0.98138h-1.18898v-1.35883h1.18898v-0.96251h-1.18898v-3.69905h1.18898v-1.1701h4.86915v1.1701h0.9625v-1.1701h1.35883v1.35883h-1.1701v3.51032h-1.15124v1.17011h-4.66155v0.96251h5.81279v1.17011h1.1701v2.54781h-1.1701v1.17011h-6.02039v-1.17011h-1.18898zM123.03733,268.21895v-3.30272h-4.45395v3.30272zM124.20743,274.05062v-2.13262h-5.62406v2.13262zM130.11458,260.04709h1.37771v2.54781h-1.37771zM130.11458,263.55741h1.37771v10.71968h-1.37771zM136.05948,263.55741h1.39658v1.1701h0.9625v-1.1701h3.69905v1.1701h1.15124v1.15124h1.1701v8.39834h-1.35883v-8.19074h-1.1701v-1.1701h-3.30272v1.1701h-1.15123v8.19074h-1.39658zM148.42108,262.38729h1.15124v-0.9625h-1.15124v-2.52894h2.52894v3.69905h-1.17011v1.17011h-1.35883zM165.55748,271.918h-1.18898v-2.52894h1.39658v2.34022h1.15124v1.15123h3.30271v-1.15123h1.17011v-3.30272h-1.17011v-1.1701h-3.49144v-1.17011h-1.1701v-1.1701h-1.18898v-3.69905h1.18898v-1.1701h1.1701v-1.15124h3.69905v1.15124h1.15123v1.1701h1.17011v2.54781h-1.35883v-2.34021h-1.17011v-1.17011h-3.30271v1.17011h-1.15124v3.30272h1.15124v1.15124h3.51031v1.1701h1.15123v1.1701h1.17011v3.69905h-1.17011v1.17011h-1.15123v1.18898h-3.69905v-1.18898h-1.1701zM174.99382,271.918h-1.18898v-6.03925h1.18898v-1.15124h1.1701v-1.1701h3.69905v1.1701h1.15123v1.15124h1.17011v6.03925h-1.17011v1.17011h-1.15123v1.18898h-3.69905v-1.18898h-1.1701zM176.35265,271.72928v1.15123h3.30272v-1.15123h1.17011v-5.64294h-1.17011v-1.1701h-3.30272v1.1701h-1.15124v5.64294zM184.43016,271.918h-1.18898v-8.36059h1.39658v8.17187h1.15124v1.15123h3.30272v-1.15123h1.17011v-8.17187h1.35883v10.71968h-1.35883v-1.18898h-0.96251v1.18898h-3.69905v-1.18898h-1.17011zM192.67752,263.55741h1.39658v1.1701h0.96251v-1.1701h3.69904v1.1701h1.15123v1.15124h1.17011v8.39834h-1.35884v-8.19074h-1.1701v-1.1701h-3.30272v1.1701h-1.15123v8.19074h-1.39658zM203.30284,271.918h-1.18897v-6.03925h1.18897v-1.15124h1.17011v-1.1701h3.69904v1.1701h0.9625v-4.68042h1.35883v14.23h-1.35883v-1.18898h-0.9625v1.18898h-3.69904v-1.18898h-1.17011zM204.66167,271.72928v1.15123h3.30272v-1.15123h1.1701v-5.64294h-1.1701v-1.1701h-3.30272v1.1701h-1.15123v5.64294zM222.17552,271.918h-1.18898v-2.52894h1.39658v2.34022h1.15123v1.15123h3.30272v-1.15123h1.1701v-3.30272h-1.1701v-1.1701h-3.49144v-1.17011h-1.17011v-1.1701h-1.18898v-3.69905h1.18898v-1.1701h1.17011v-1.15124h3.69904v1.15124h1.15124v1.1701h1.1701v2.54781h-1.35883v-2.34021h-1.1701v-1.17011h-3.30272v1.17011h-1.15123v3.30272h1.15123v1.15124h3.51032v1.1701h1.15124v1.1701h1.1701v3.69905h-1.1701v1.17011h-1.15124v1.18898h-3.69904v-1.18898h-1.17011zM233.36702,264.91624h-2.35908v-1.35883h2.35908v-3.51032h1.35883v3.51032h3.49144v1.35883h-3.49144v7.96427h3.49144v1.39658h-3.69905v-1.18898h-1.15123zM241.0482,271.918h-1.18898v-6.03925h1.18898v-1.15124h1.1701v-1.1701h3.69905v1.1701h1.15124v1.15124h1.1701v6.03925h-1.1701v1.17011h-1.15124v1.18898h-3.69905v-1.18898h-1.1701zM242.40703,271.72928v1.15123h3.30272v-1.15123h1.17011v-5.64294h-1.17011v-1.1701h-3.30272v1.1701h-1.15123v5.64294zM250.48454,271.918h-1.18898v-6.03925h1.18898v-1.15124h1.1701v-1.1701h3.69905v1.1701h1.15123v1.15124h1.17011v1.3777h-1.35883v-1.17011h-1.17011v-1.1701h-3.30272v1.1701h-1.15123v5.64294h1.15123v1.15123h3.30272v-1.15123h1.17011v-1.17011h1.35883v1.35883h-1.17011v1.17011h-1.15123v1.18898h-3.69905v-1.18898h-1.1701zM258.7319,260.04709h1.39658v8.17187h0.96251v-1.1701h1.15123v-1.1701h2.34021v-1.15124h1.17011v-1.1701h1.35883v1.35883h-1.1701v1.1701h-1.15124v1.17011h-2.34021v1.1701h-1.17011v0.96251h1.17011v1.17011h2.34021v1.17011h1.15124v1.15123h1.1701v1.39658h-1.35883v-1.18898h-1.17011v-1.17011h-2.34021v-1.1701h-1.15123v-1.15123h-0.96251v4.68042h-1.39658zM62.28617,289.1236h1.15123v-2.34022h1.17011v-1.15123h1.1701v-1.1701h1.35883v1.35883h-1.15123v1.17011h-1.1701v2.34022h-1.17011v7.96427h1.17011v2.32134h1.1701v1.17011h1.15123v1.39658h-1.35883v-1.1701h-1.1701v-1.18898h-1.17011v-2.34022h-1.15123zM70.00508,286.78338h1.39658v4.68043h0.96251v-1.17011h3.69904v1.17011h1.15123v1.15123h1.1701v8.39835h-1.35883v-8.19074h-1.17011v-1.17011h-3.30272v1.17011h-1.15123v8.19074h-1.39658zM82.38557,291.65253h-2.35909v-1.35883h2.35909v-3.51032h1.35883v3.51032h3.49144v1.35883h-3.49144v7.96427h3.49144v1.39658h-3.69904v-1.18898h-1.15123zM91.82191,291.65253h-2.35909v-1.35883h2.35909v-3.51032h1.35883v3.51032h3.49144v1.35883h-3.49144v7.96427h3.49144v1.39658h-3.69904v-1.18898h-1.15123zM98.31412,290.2937h1.39657v1.17011h0.96251v-1.17011h3.69904v1.17011h1.15123v1.15123h1.17011v4.86915h-1.17011v1.17011h-1.15123v1.1701h-3.69904v-1.1701h-0.96251v3.52919h-1.39657zM104.16465,298.46557v-1.1701h1.17011v-4.47282h-1.17011v-1.17011h-3.30272v1.17011h-1.15123v4.47283h1.15123v1.1701zM107.75046,297.29547h1.39657v2.32134h5.62406v-3.28384h-5.83166v-1.1701h-1.18897v-3.69905h1.18897v-1.17011h6.02039v1.17011h1.17011v2.52894h-1.35883v-2.34021h-5.62406v3.30272h5.81279v1.1701h1.17011v3.69905h-1.17011v1.18898h-6.02039v-1.18898h-1.18897zM120.09319,290.2937h2.54782v2.52894h-2.54781zM120.09319,297.29547h2.54782v2.52894h-2.54781zM126.62313,298.46557h1.17011v-2.34021h1.15124v-2.34022h1.1701v-2.32134h1.17011v-2.34021h1.17011v-2.34022h1.15123v-2.32133h1.37771v2.52893h-1.17011v2.34022h-1.17011v2.32134h-1.15123v2.34021h-1.17011v2.34022h-1.17011v2.32134h-1.17011v2.35908h-1.35883zM136.05948,298.46557h1.17011v-2.34021h1.15124v-2.34022h1.1701v-2.32134h1.17011v-2.34021h1.17011v-2.34022h1.15123v-2.32133h1.37771v2.52893h-1.17011v2.34022h-1.17011v2.32134h-1.15123v2.34021h-1.17011v2.34022h-1.17011v2.32134h-1.17011v2.35908h-1.35883zM146.6848,297.48419h-1.18898v-7.19049h1.39658v7.00177h0.9625v-3.51032h1.15124v-3.49144h1.3777v3.49144h1.17011v3.51032h0.96251v-7.00177h1.35883v7.19049h-1.1701v3.5292h-1.35884v-3.5292h-1.1701v-3.49144h-0.96251v3.49144h-1.17011v3.5292h-1.35883zM156.12114,297.48419h-1.18898v-7.19049h1.39658v7.00177h0.9625v-3.51032h1.15124v-3.49144h1.3777v3.49144h1.17011v3.51032h0.96251v-7.00177h1.35883v7.19049h-1.17011v3.5292h-1.35883v-3.5292h-1.1701v-3.49144h-0.96251v3.49144h-1.1701v3.5292h-1.35883zM165.55748,297.48419h-1.18898v-7.19049h1.39658v7.00177h0.9625v-3.51032h1.15124v-3.49144h1.3777v3.49144h1.17011v3.51032h0.96251v-7.00177h1.35883v7.19049h-1.17011v3.5292h-1.35883v-3.5292h-1.1701v-3.49144h-0.96251v3.49144h-1.1701v3.5292h-1.35883zM174.46538,297.29547h2.52894v2.52894h-2.52894zM183.24118,297.29547h1.39658v2.32134h5.62406v-3.28384h-5.83166v-1.1701h-1.18898v-3.69905h1.18898v-1.17011h6.02039v1.17011h1.17011v2.52894h-1.35883v-2.34021h-5.62406v3.30272h5.81278v1.1701h1.17011v3.69905h-1.17011v1.18898h-6.02039v-1.18898h-1.18898zM192.67752,290.2937h1.39658v1.17011h0.96251v-1.17011h3.69904v1.17011h1.15123v1.15123h1.17011v4.86915h-1.17011v1.17011h-1.15123v1.1701h-3.69904v-1.1701h-0.96251v3.52919h-1.39658zM198.52805,298.46557v-1.1701h1.1701v-4.47282h-1.1701v-1.17011h-3.30272v1.17011h-1.15123v4.47283h1.15123v1.1701zM203.28397,290.2937h1.35883v1.17011h0.96251v-1.17011h3.69905v1.35883h-3.49144v1.17011h-1.17011v8.19074h-1.35883zM215.04165,286.78338h1.37771v2.54782h-1.37771zM215.04165,290.2937h1.37771v10.71969h-1.37771zM220.98654,290.2937h1.39658v1.17011h0.96251v-1.17011h3.69904v1.17011h1.15124v1.15123h1.1701v8.39835h-1.35883v-8.19074h-1.1701v-1.17011h-3.30272v1.17011h-1.15123v8.19074h-1.39658zM230.42288,298.46557h1.18898v-0.98138h-1.18898v-1.35883h1.18898v-0.9625h-1.18898v-3.69905h1.18898v-1.17011h4.86915v1.17011h0.9625v-1.17011h1.35883v1.35883h-1.1701v3.51032h-1.15124v1.1701h-4.66155v0.96251h5.81279v1.1701h1.1701v2.54782h-1.1701v1.1701h-6.02039v-1.1701h-1.18898zM236.27341,294.95526v-3.30272h-4.45395v3.30272zM237.44352,300.78691v-2.13261h-5.62405v2.13261zM243.35067,286.78338h1.37771v2.54782h-1.37771zM243.35067,290.2937h1.37771v10.71969h-1.37771zM249.29556,290.2937h1.39658v1.17011h0.9625v-1.17011h3.69905v1.17011h1.15123v1.15123h1.17011v8.39835h-1.35883v-8.19074h-1.17011v-1.17011h-3.30272v1.17011h-1.15123v8.19074h-1.39658zM259.39244,297.29547h2.52894v2.52894h-2.52894zM269.35722,298.6543h-1.18898v-6.03926h1.18898v-1.15123h1.1701v-1.17011h3.69905v1.17011h1.15123v1.15123h1.17011v6.03926h-1.17011v1.1701h-1.15123v1.18898h-3.69905v-1.18898h-1.1701zM270.71606,298.46557v1.15123h3.30272v-1.15123h1.17011v-5.64293h-1.17011v-1.17011h-3.30272v1.17011h-1.15123v5.64293zM278.77468,290.2937h1.35883v1.17011h0.96251v-1.17011h3.69905v1.35883h-3.49145v1.17011h-1.1701v8.19074h-1.35883zM287.04091,298.46557h1.18898v-0.98138h-1.18898v-1.35883h1.18898v-0.9625h-1.18898v-3.69905h1.18898v-1.17011h4.86915v1.17011h0.96251v-1.17011h1.35883v1.35883h-1.17011v3.51032h-1.15123v1.1701h-4.66156v0.96251h5.81279v1.1701h1.17011v2.54782h-1.17011v1.1701h-6.02038v-1.1701h-1.18898zM292.89144,294.95526v-3.30272h-4.45396v3.30272zM294.06156,300.78691v-2.13261h-5.62406v2.13261zM296.47727,298.46557h1.1701v-2.34021h1.15123v-2.34022h1.17011v-2.32134h1.1701v-2.34021h1.1701v-2.34022h1.15124v-2.32133h1.3777v2.52893h-1.17011v2.34022h-1.1701v2.32134h-1.15123v2.34021h-1.17011v2.34022h-1.17011v2.32134h-1.17011v2.35908h-1.35883zM307.74425,300.78691v-3.49144h1.15123v-7.96427h-1.15123v-3.51032h-1.17011v-1.35883h1.35883v1.1701h1.1701v3.49144h1.17011v8.36059h-1.17011v3.5292h-1.1701v1.1701h-1.35883v-1.39658z" fill="#000000" stroke="none" stroke-width="1" stroke-linejoin="miter"/></g></g></svg>