<svg version="1.1" xmlns="http://www.w3.org/2000/svg" xmlns:xlink="http://www.w3.org/1999/xlink" width="27.70266" height="14.3553" viewBox="0,0,27.70266,14.3553"><g transform="translate(-226.14867,-172.82235)"><g data-paper-data="{&quot;isPaintingLayer&quot;:true}" fill="#000000" fill-rule="nonzero" stroke="none" stroke-width="1" stroke-linecap="butt" stroke-linejoin="miter" stroke-miterlimit="10" stroke-dasharray="" stroke-dashoffset="0" style="mix-blend-mode: normal"><path d="M234.65494,186.03228v-0.94683h1.87841v-1.72569h-0.93157v-0.93157h-2.84051v-1.11482h2.84051v-0.77885h-0.94684v-0.94684h-1.89367v-1.09956h1.89367v-1.72569h-1.89367v-1.11482h1.89367v-2.82524h1.09956v1.87841h1.72569v-0.77885h-0.94684v-1.09956h1.11483v0.94684h0.94684v2.04639h-2.84052v1.72569h2.84052v1.09956h-2.84052v1.72569h3.77209v1.11482h-2.82524v1.72569h1.72569v-0.94683h1.09956v1.09955h-0.93157v0.94684h-0.94684v0.77885h0.94684v0.94683h0.76358v-1.8784h1.11483v3.0085h-2.0464v-0.94684h-0.94684v-0.96211h-0.77885v0.96211h-1.87841v0.94684h-2.06166v-1.1301zM227.11078,186.03228v-0.94683h0.94684v-1.87841h0.93157v-0.94683h0.94684v-0.77886h-0.94684v-0.94683h-1.71042v0.94683h-1.1301v-1.11482h0.96211v-2.82524h0.94684v-2.67253h-1.90895v-1.09955h5.83375v1.09955h-2.82524v1.72569h2.82524v2.99323h-0.93157v2.84051h-0.94684v0.93157h-0.94683v1.89368h-0.94684v0.96211h-0.93157v0.94684h-1.1301v-1.1301zM229.93602,180.36652v-0.94684h0.94684v-1.71042h-2.67253v1.71042h0.94684v0.94684zM248.01759,186.04755v-0.94684h2.84052v-0.93157h0.93156v-1.89368h0.94684v-5.49777h-0.94684v-1.89368h-3.6041v0.94684h-0.94683v0.94683h-0.93157v1.87841h-0.94684v1.89368h-0.94683v1.89368h-1.09956v-6.78059h0.93157v-1.87841h1.11482v2.0464h-0.94683v2.67252h0.77885v-1.89368h0.94684v-0.94684h0.94684v-0.94684h0.93157v-0.93157h3.94007v0.93157h0.94684v1.89368h0.94683v5.83375h-0.94683v1.87841h-0.94684v0.94683h-0.94684v0.96211h-2.82525v0.94684h-3.94007v-1.1301z"/></g></g></svg>