<svg xmlns="http://www.w3.org/2000/svg" fill="none" viewBox="0 0 778 191" height="191" width="778">
<path fill="black" d="M0.968 14.656H4.904V12.704H8.872V10.72H12.808V8.736H16.776V6.752H20.712V4.768H25.032V7.104H21.064V9.088H17.128V11.072H13.16V13.024H9.224V15.008H5.256V18.624H9.224V20.608H13.16V22.592H17.128V24.576H21.064V26.528H25.032V28.896H20.712V26.88H16.776V24.896H12.808V22.912H8.872V20.96H4.904V18.976H0.968V14.656ZM29.992 20.576H33.992V18.592H35.944V11.04H32.36V16.96H29.992V10.688H32.008V2.784H34.312V8.704H35.944V0.799999H38.28V8.704H42.216V10.688H49.8V7.072H43.848V4.736H49.8V0.799999H52.104V4.736H58.024V7.072H52.104V10.688H60.008V12.992H56.072V16.608H60.008V18.944H56.072V28.864H54.088V30.848H47.816V28.48H53.736V18.944H41.896V16.96H40.264V18.944H38.28V30.848H35.944V20.928H34.312V22.88H29.992V20.576ZM39.912 16.608V14.624H42.216V16.608H53.736V12.992H41.896V11.04H38.28V16.608H39.912ZM45.832 20.576H48.168V22.56H50.12V24.864H47.816V22.88H45.832V20.576ZM69.928 24.544H75.848V20.928H71.912V18.592H75.848V16.96H71.912V14.624H81.8V12.672H83.752V0.799999H86.088V8.704H92.008V11.04H90.024V18.944H88.072V24.544H90.024V28.48H92.008V30.848H89.672V28.864H87.72V24.864H86.088V26.848H84.104V28.864H82.12V30.848H79.816V28.48H81.8V26.496H83.752V24.544H85.736V18.944H83.752V14.976H82.12V16.96H78.184V18.592H82.12V20.576H84.104V22.88H82.12V24.864H78.184V26.848H69.928V24.544ZM71.912 2.784H74.216V8.704H75.848V0.799999H78.184V8.704H79.816V2.784H82.12V11.04H71.912V2.784ZM61.992 8.704H64.008V6.72H65.992V4.736H67.944V0.799999H70.28V5.088H68.296V7.072H66.312V9.056H64.36V11.04H61.992V8.704ZM65.992 16.96H64.36V18.944H61.992V16.608H64.008V14.624H65.992V12.672H67.944V8.704H70.28V12.992H68.296V30.848H65.992V16.96ZM87.72 18.592V11.04H86.088V18.592H87.72ZM81.8 22.56V20.928H78.184V22.56H81.8ZM96.968 26.528H100.904V24.576H104.872V22.592H108.808V20.608H112.776V18.624H116.712V15.008H112.776V13.024H108.808V11.072H104.872V9.088H100.904V7.104H96.968V4.768H101.256V6.752H105.224V8.736H109.16V10.72H113.128V12.704H117.064V14.656H121.032V18.976H117.064V20.96H113.128V22.912H109.16V24.896H105.224V26.88H101.256V28.896H96.968V26.528ZM39.912 58.496H47.816V46.976H41.896V44.672H47.816V32.8H50.12V44.672H58.024V46.976H50.12V58.496H60.008V60.864H39.912V58.496ZM35.944 50.944H34.312V52.928H29.992V50.592H33.992V48.608H35.944V44.672H37.928V42.688H39.912V41.056H29.992V38.72H35.944V32.8H38.28V38.72H42.216V43.04H40.264V44.992H38.28V46.624H40.264V48.608H44.2V50.944H39.912V48.96H38.28V62.848H35.944V50.944ZM61.992 38.72H75.848V32.8H78.184V38.72H92.008V41.056H61.992V38.72ZM67.944 60.48V58.496H73.896V56.544H75.848V54.88H73.896V52.928H71.912V50.944H69.928V48.96H67.944V46.976H66.312V48.96H61.992V46.624H65.992V44.672H69.928V42.688H72.264V44.992H70.28V48.608H72.264V50.592H74.216V52.576H76.2V54.56H77.832V52.576H79.816V50.592H81.8V48.608H83.752V46.624H85.736V44.992H83.752V42.688H86.088V44.672H88.072V46.624H90.024V48.96H87.72V46.976H86.088V48.96H84.104V50.944H82.12V52.928H80.168V54.88H78.184V56.544H80.168V58.496H84.104V60.48H92.008V62.848H83.752V60.864H79.816V58.848H77.832V56.864H76.2V58.848H74.216V60.864H68.296V62.848H61.992V60.48H67.944ZM94.984 38.72H96.968V36.736H98.92V32.8H101.256V37.088H99.272V38.72H105.192V58.848H97.288V62.848H94.984V38.72ZM118.696 60.48V58.496H120.648V39.072H111.144V41.056H109.16V44.992H106.824V40.704H108.808V32.8H111.144V36.736H122.984V58.848H121V60.864H119.048V62.848H112.776V60.48H118.696ZM102.888 46.624V41.056H97.288V46.624H102.888ZM112.776 48.96H110.792V44.672H113.096V48.608H115.08V52.928H112.776V48.96ZM102.888 56.544V48.96H97.288V56.544H102.888ZM133.928 46.656H135.912V44.704H137.896V42.72H139.848V40.736H141.832V39.104H125.992V36.768H154.024V39.104H146.12V41.088H142.184V43.072H140.2V45.024H138.216V47.008H136.264V54.592H138.216V56.576H140.2V58.528H150.088V60.896H139.848V58.88H135.912V54.912H133.928V46.656ZM149.736 40.736H152.072V42.72H154.024V44.704H156.008V47.008H153.672V45.024H151.72V43.072H149.736V40.736ZM145.8 42.72H148.104V44.704H150.088V46.656H152.072V48.992H149.736V47.008H147.752V45.024H145.8V42.72ZM172.808 60.512V58.528H176.776V56.576H178.76V52.608H180.712V34.816H183.048V52.96H181.064V56.896H179.08V58.88H177.128V60.896H173.16V62.88H164.904V60.512H172.808ZM162.952 34.816H165.256V52.96H162.952V34.816ZM192.968 46.656H217.032V48.992H192.968V46.656ZM229.928 60.512V58.528H235.848V56.576H237.832V52.96H235.848V50.976H231.912V48.992H229.928V46.656H232.264V48.64H236.2V50.624H238.184V52.608H241.8V50.624H243.752V46.656H245.736V41.088H232.264V43.072H230.28V45.024H228.296V47.008H226.312V48.992H224.36V50.976H221.992V48.64H224.008V46.656H225.992V44.704H227.944V42.72H229.928V40.736H231.912V36.768H233.896V32.832H236.2V37.12H234.216V38.752H245.736V37.12H243.752V35.136H241.8V32.832H244.104V34.816H245.736V32.832H248.072V34.816H250.024V36.768H252.008V39.104H249.672V37.12H248.072V47.008H246.088V50.976H244.104V52.96H242.12V54.912H240.168V56.896H238.184V58.88H236.2V60.896H230.28V62.88H224.008V60.512H229.928ZM247.72 36.768V35.136H246.088V36.768H247.72ZM256.968 46.656H281.032V48.992H256.968V46.656ZM295.88 37.12H291.912V34.816H296.232V36.768H300.168V38.752H302.152V41.088H299.816V39.104H295.88V37.12ZM289.96 58.528H295.88V56.576H301.8V54.592H305.768V52.608H307.72V50.624H309.704V46.656H311.688V40.736H313.992V47.008H312.04V50.976H310.056V52.96H308.072V54.912H306.088V56.896H302.152V58.88H296.232V60.896H289.96V58.528ZM291.912 43.072H287.976V40.736H292.264V42.72H296.232V44.704H298.184V47.008H295.88V45.024H291.912V43.072ZM331.848 43.072H329.864V41.088H327.88V38.752H330.216V40.736H332.168V42.72H334.152V47.008H331.848V43.072ZM325.896 58.528H331.848V56.576H335.784V54.592H337.768V52.608H339.752V48.64H341.704V40.736H344.04V48.992H342.056V52.96H340.072V54.912H338.12V56.896H336.136V58.88H332.168V60.896H325.896V58.528ZM325.896 45.024H323.944V43.072H321.96V40.736H324.264V42.72H326.248V44.704H328.232V48.992H325.896V45.024ZM352.008 58.528H357.928V56.576H361.896V54.592H365.832V52.608H367.816V48.64H369.8V44.704H371.752V39.104H349.992V36.768H371.752V34.816H373.736V32.832H378.024V34.816H380.008V39.104H378.024V41.088H374.088V45.024H372.104V48.992H370.12V52.96H368.168V54.912H366.184V56.896H362.216V58.88H358.28V60.896H352.008V58.528ZM377.672 38.752V35.136H374.088V38.752H377.672ZM383.976 52.608H385.96V48.64H387.912V46.656H389.896V42.72H391.88V41.088H383.976V38.752H393.864V32.832H396.168V38.752H406.056V41.088H394.184V42.72H398.152V44.704H400.136V48.64H401.768V46.656H405.704V44.704H409.992V47.008H406.056V48.992H402.088V50.976H400.136V58.88H397.8V52.96H394.184V54.912H392.232V60.512H408.04V62.88H391.88V60.896H389.896V54.592H391.88V52.608H393.864V50.624H397.8V45.024H392.232V47.008H390.248V48.992H388.264V52.96H386.28V54.912H383.976V52.608ZM419.944 60.48V58.496H423.912V54.88H416.008V52.576H423.912V48.96H419.944V46.976H418.312V48.96H413.992V46.624H417.992V44.672H421.928V43.04H419.944V41.056H417.992V38.72H420.296V40.704H422.28V42.688H423.912V40.704H425.896V38.72H427.848V37.088H416.008V34.784H430.184V38.72H431.816V36.736H433.8V34.784H435.752V32.8H438.088V35.104H436.104V37.088H434.12V39.072H432.168V40.704H434.12V42.688H435.752V40.704H437.736V38.72H439.72V36.736H442.024V39.072H440.072V41.056H438.088V43.04H436.104V44.672H438.088V46.624H444.008V48.96H437.736V46.976H436.104V48.96H434.12V52.576H442.024V54.88H434.12V60.48H439.72V56.544H442.024V60.864H440.072V62.848H433.8V60.864H431.816V54.88H426.216V58.848H424.264V60.864H420.296V62.848H413.992V60.48H419.944ZM435.752 46.624V44.992H433.8V43.04H431.816V41.056H429.832V39.072H428.2V41.056H426.216V43.04H424.264V44.992H422.28V46.624H435.752ZM431.816 52.576V48.96H426.216V52.576H431.816ZM455.912 54.56H463.816V52.928H457.896V42.688H463.816V41.056H457.896V39.072H455.912V32.8H476.008V39.072H474.024V41.056H466.12V42.688H474.024V52.928H466.12V54.56H476.008V56.864H466.12V62.848H463.816V56.864H455.912V54.56ZM449.992 60.48V50.944H448.36V52.928H445.992V50.592H448.008V48.608H449.992V43.04H445.992V40.704H449.992V32.8H452.296V40.704H456.264V43.04H452.296V48.608H453.928V46.624H456.264V48.96H454.28V50.944H452.296V60.864H450.312V62.848H445.992V60.48H449.992ZM473.672 38.72V35.104H466.12V38.72H473.672ZM463.816 38.72V35.104H458.216V38.72H463.816ZM471.72 46.624V44.992H466.12V46.624H471.72ZM463.816 46.624V44.992H460.2V46.624H463.816ZM471.72 50.592V48.96H466.12V50.592H471.72ZM463.816 50.592V48.96H460.2V50.592H463.816ZM490.888 60.512V58.528H492.84V56.576H494.824V52.96H493.192V54.912H486.92V52.96H484.936V46.656H486.92V44.704H493.192V46.656H494.824V41.088H478.984V38.752H494.824V32.832H497.16V38.752H507.016V41.088H497.16V56.896H495.176V58.88H493.192V60.896H491.208V62.88H486.92V60.512H490.888ZM492.84 52.608V50.624H494.824V48.992H492.84V47.008H487.272V52.608H492.84ZM514.952 54.592H516.904V52.608H523.176V54.592H525.16V58.528H530.76V56.576H532.712V54.592H534.696V50.976H532.712V48.992H519.24V50.976H515.272V52.96H512.968V50.624H514.952V48.64H518.888V46.656H520.872V44.704H522.856V42.72H526.792V40.736H528.776V39.104H514.952V36.768H533.064V39.104H531.08V41.088H529.128V43.072H527.144V45.024H523.176V46.656H533.064V48.64H535.048V50.624H537.032V54.912H535.048V58.88H531.08V60.896H516.904V58.88H514.952V54.592ZM522.856 58.528V54.912H517.256V58.528H522.856ZM546.952 36.768H567.048V39.104H546.952V36.768ZM544.968 52.608H546.952V50.624H549.256V52.96H547.272V56.576H551.24V58.528H566.696V56.576H569.032V58.88H567.048V60.896H550.888V58.88H546.952V56.896H544.968V52.608ZM576.968 50.624H578.952V48.64H580.904V46.656H584.872V32.832H587.176V44.704H590.792V42.72H601.032V45.024H591.144V47.008H585.224V48.992H581.256V50.976H579.272V56.576H583.24V58.528H601.032V60.896H582.888V58.88H578.952V56.896H576.968V50.624ZM606.984 56.576H608.968V52.608H610.92V46.656H612.904V43.072H606.984V40.736H614.888V32.832H617.192V40.736H623.144V42.72H625.096V54.912H623.144V58.88H621.16V60.896H612.904V58.528H620.808V54.592H622.792V43.072H615.24V47.008H613.256V52.96H611.272V56.896H609.288V60.896H606.984V56.576ZM628.712 37.12H626.728V34.816H628.712V32.832H631.048V34.816H633V36.768H634.984V39.104H633V41.088H630.696V39.104H628.712V37.12ZM630.696 36.768V35.136H629.064V36.768H630.696ZM632.648 38.752V37.12H631.048V38.752H632.648ZM624.776 38.752H627.08V40.736H629.064V42.72H631.048V44.704H633V48.64H634.984V50.976H632.648V48.992H630.696V45.024H628.712V43.072H626.728V41.088H624.776V38.752ZM651.848 32.8H664.072V44.992H651.848V32.8ZM640.008 40.704H641.992V38.72H643.944V34.784H645.928V32.8H648.264V35.104H646.28V39.072H644.296V41.056H642.312V43.04H640.008V40.704ZM661.736 36.736V35.104H654.184V36.736H661.736ZM661.736 42.688V39.072H654.184V42.688H661.736ZM643.944 48.96H642.312V50.944H637.992V48.608H641.992V46.624H643.944V44.672H645.928V42.688H647.912V40.704H650.216V43.04H648.264V44.992H646.28V62.848H643.944V48.96ZM647.912 50.592H659.752V48.96H649.896V46.624H666.024V48.96H662.088V50.592H668.008V52.928H662.088V60.864H660.104V62.848H653.832V60.48H659.752V52.928H647.912V50.592ZM651.848 54.56H654.184V56.544H656.168V58.848H653.832V56.864H651.848V54.56ZM669.992 40.704H679.912V39.072H677.928V37.088H673.992V34.784H683.848V32.8H686.184V34.784H696.072V37.088H692.104V39.072H690.12V40.704H700.008V43.04H669.992V40.704ZM687.816 40.704V38.72H689.8V37.088H680.264V38.72H682.216V40.704H687.816ZM677.928 54.88H675.944V44.672H694.088V54.88H686.184V56.544H688.168V58.848H685.832V56.864H683.848V54.88H680.264V60.48H691.752V56.544H694.088V60.864H692.104V62.848H679.912V60.864H677.928V54.88ZM691.752 48.608V46.976H678.28V48.608H691.752ZM691.752 52.576V50.944H678.28V52.576H691.752ZM669.992 58.496H672.008V54.56H674.312V58.848H672.36V60.864H669.992V58.496ZM695.72 54.56H698.024V56.544H700.008V60.864H697.672V56.864H695.72V54.56ZM709.928 46.656H711.912V44.704H713.896V42.72H715.848V40.736H717.832V39.104H701.992V36.768H730.024V39.104H722.12V41.088H718.184V43.072H716.2V45.024H714.216V47.008H712.264V54.592H714.216V56.576H716.2V58.528H726.088V60.896H715.848V58.88H711.912V54.912H709.928V46.656ZM725.736 40.736H728.072V42.72H730.024V44.704H732.008V47.008H729.672V45.024H727.72V43.072H725.736V40.736ZM721.8 42.72H724.104V44.704H726.088V46.656H728.072V48.992H725.736V47.008H723.752V45.024H721.8V42.72ZM746.888 60.512V58.528H748.84V56.576H750.824V52.96H749.192V54.912H742.92V52.96H740.936V46.656H742.92V44.704H749.192V46.656H750.824V41.088H734.984V38.752H750.824V32.832H753.16V38.752H763.016V41.088H753.16V56.896H751.176V58.88H749.192V60.896H747.208V62.88H742.92V60.512H746.888ZM748.84 52.608V50.624H750.824V48.992H748.84V47.008H743.272V52.608H748.84ZM767.016 54.592H769V52.608H775.272V54.592H777.224V60.896H775.272V62.88H769V60.896H767.016V54.592ZM774.92 60.512V54.912H769.32V60.512H774.92ZM37.928 92.48V90.496H43.848V88.864H39.912V86.88H36.296V88.864H32.008V86.56H35.944V84.576H37.928V82.592H39.912V80.96H35.944V78.624H39.912V76.672H41.896V71.072H29.992V68.736H43.848V64.8H46.184V68.736H60.008V71.072H50.12V78.976H48.168V80.96H43.848V78.624H47.816V71.072H44.2V76.992H42.216V78.976H40.264V80.608H42.216V82.592H56.072V84.928H54.088V86.88H52.104V88.864H48.168V90.496H54.088V92.48H60.008V94.848H53.736V92.864H47.816V90.848H44.2V92.864H38.28V94.848H29.992V92.48H37.928ZM29.992 76.672H33.992V74.688H35.944V72.704H38.28V75.04H36.296V76.992H34.312V78.976H29.992V76.672ZM51.752 72.704H54.088V74.688H58.024V76.672H60.008V78.976H57.672V76.992H53.736V75.04H51.752V72.704ZM44.2 86.56V88.544H47.816V86.56H51.752V84.928H40.264V86.56H44.2ZM77.832 64.8H80.168V78.624H81.8V76.672H85.736V74.688H87.72V70.72H90.024V75.04H88.072V76.992H86.088V78.976H82.12V80.96H80.168V92.48H89.672V86.56H92.008V92.864H90.024V94.848H79.816V92.864H77.832V64.8ZM67.944 78.976H66.312V80.96H64.36V82.944H61.992V80.608H64.008V78.624H65.992V76.672H67.944V72.704H69.928V68.736H71.912V64.8H74.216V69.088H72.264V73.056H70.28V94.848H67.944V78.976ZM102.92 80.992H100.936V79.008H97.352V80.992H94.984V78.656H97V76.704H100.936V73.088H98.984V66.816H101.288V72.736H103.272V74.72H106.888V72.736H110.824V69.12H108.84V64.832H111.176V68.768H113.16V72.736H119.08V74.72H121.064V76.704H123.016V82.976H121.064V84.96H117.096V86.912H108.84V84.608H116.744V82.624H120.712V77.024H118.728V75.072H107.208V77.024H103.272V80.64H105.256V88.576H107.208V94.88H104.904V88.896H102.92V80.992ZM125.992 88.544H128.008V84.576H129.992V82.944H125.992V80.608H131.944V78.976H125.992V76.672H129.992V75.04H128.008V71.072H125.992V68.736H131.944V64.8H134.28V68.736H140.2V71.072H138.216V75.04H136.264V76.672H140.2V78.976H134.28V80.608H140.2V82.944H136.264V84.576H138.216V88.544H141.832V68.736H149.736V66.784H154.024V69.088H150.088V71.072H144.168V76.672H156.008V78.976H152.072V94.848H149.736V78.976H144.168V88.864H142.184V94.848H139.848V90.848H137.896V88.864H135.912V84.928H134.28V94.848H131.944V84.928H130.312V88.864H128.36V90.848H125.992V88.544ZM133.928 76.672V74.688H135.912V71.072H130.312V74.688H132.296V76.672H133.928ZM160.968 66.816H163.272V88.576H165.256V90.528H174.792V88.576H178.728V86.592H180.712V84.608H182.696V82.624H185V84.96H183.048V86.912H181.064V88.896H179.08V90.88H175.144V92.896H164.904V90.88H162.92V88.896H160.968V66.816ZM193.96 86.912H191.976V68.768H194.28V86.592H196.264V90.528H201.864V88.576H203.816V84.608H206.152V88.896H204.168V90.88H202.184V92.896H195.912V90.88H193.96V86.912ZM213.704 77.024H211.72V73.088H209.768V68.768H212.072V72.736H214.056V76.704H216.04V82.624H217.992V88.896H215.688V82.976H213.704V77.024ZM233.896 66.784H250.024V75.04H233.896V66.784ZM221.992 90.496H225.992V80.96H221.992V78.624H225.992V71.072H221.992V68.736H232.264V71.072H228.296V78.624H231.912V76.672H252.008V78.976H232.264V80.96H228.296V88.544H229.928V86.56H232.264V88.864H230.28V90.848H226.312V92.864H221.992V90.496ZM247.72 72.704V69.088H244.104V72.704H247.72ZM237.832 72.704V69.088H236.2V72.704H237.832ZM241.8 72.704V69.088H240.168V72.704H241.8ZM231.912 90.496H235.848V88.544H237.832V86.88H233.896V80.608H248.072V86.56H250.024V88.864H248.072V90.496H252.008V92.864H247.72V90.848H243.752V88.864H242.12V94.848H239.816V88.864H238.184V90.848H236.2V92.864H231.912V90.496ZM245.736 84.576V82.944H236.2V84.576H245.736ZM247.72 88.544V86.88H244.104V88.544H247.72ZM253.992 86.56H257.992V76.992H253.992V74.688H257.992V64.8H260.296V74.688H263.912V72.704H269.832V71.072H267.848V69.088H263.912V66.784H271.816V64.8H274.12V66.784H284.008V69.088H280.072V71.072H278.088V72.704H284.008V75.04H264.264V76.992H260.296V84.576H264.264V86.88H260.296V88.864H253.992V86.56ZM275.752 72.704V70.72H277.736V69.088H270.184V70.72H272.168V72.704H275.752ZM265.896 92.48V90.496H267.848V88.544H269.832V86.88H265.896V76.672H282.024V86.88H278.088V92.48H281.672V88.544H284.008V92.864H282.024V94.848H277.736V92.864H275.752V86.88H272.168V88.864H270.184V90.848H268.2V92.864H266.216V94.848H261.928V92.48H265.896ZM279.72 80.608V78.976H268.2V80.608H279.72ZM279.72 84.576V82.944H268.2V84.576H279.72ZM288.968 72.736H290.952V66.816H293.256V73.088H291.272V92.896H288.968V72.736ZM296.872 70.752H313.032V73.088H296.872V70.752ZM296.872 84.608H299.176V88.576H301.16V90.528H313.032V92.896H300.808V90.88H298.856V88.896H296.872V84.608ZM324.936 80.992H318.984V78.656H324.936V73.088H321V70.752H326.92V64.832H329.256V70.752H337.16V73.088H327.272V78.656H337.16V80.992H327.272V90.528H329.256V92.512H340.744V90.528H342.728V88.576H344.712V80.992H342.728V77.024H340.744V74.72H343.08V76.704H345.064V80.64H347.016V88.896H345.064V90.88H343.08V92.896H341.096V94.88H328.904V92.896H326.92V90.88H324.936V80.992ZM349.992 90.496H357.928V88.544H361.896V86.88H349.992V84.576H363.848V82.944H359.912V80.96H356.296V82.944H349.992V80.608H355.944V78.624H359.912V76.992H352.008V74.688H363.848V73.056H359.912V70.72H364.2V72.704H365.832V70.72H369.8V69.088H353.992V66.784H374.088V69.088H372.104V71.072H370.12V73.056H366.184V74.688H376.072V78.976H374.088V80.96H371.752V78.624H373.736V76.992H366.184V80.96H364.2V82.592H366.184V84.576H378.024V86.88H368.168V88.544H372.104V90.496H380.008V92.864H371.752V90.848H367.816V88.864H366.184V94.848H363.848V88.864H362.216V90.848H358.28V92.864H349.992V90.496ZM363.848 80.608V76.992H362.216V78.976H360.264V80.608H363.848ZM381.992 86.56H387.944V84.928H384.008V72.704H387.944V71.072H381.992V68.736H387.944V64.8H390.28V68.736H398.184V71.072H390.28V72.704H396.2V78.624H397.832V72.704H399.816V64.8H402.12V70.72H410.024V75.04H408.072V78.976H405.736V74.688H407.72V73.056H400.168V78.976H398.184V80.96H396.2V84.928H390.28V86.56H398.184V88.864H390.28V94.848H387.944V88.864H381.992V86.56ZM397.832 92.48V90.496H399.816V84.576H401.8V74.688H404.104V82.592H406.088V86.56H408.072V90.496H410.024V92.48H412.008V94.848H409.672V92.864H407.72V90.848H405.736V86.88H403.752V84.928H402.12V90.848H400.168V92.864H398.184V94.848H395.848V92.48H397.832ZM393.896 76.672V75.04H390.28V76.672H393.896ZM387.944 76.672V75.04H386.312V76.672H387.944ZM393.896 82.592V78.976H390.28V82.592H393.896ZM387.944 82.592V78.976H386.312V82.592H387.944ZM416.968 72.736H418.952V66.816H421.256V73.088H419.272V92.896H416.968V72.736ZM424.872 70.752H441.032V73.088H424.872V70.752ZM424.872 84.608H427.176V88.576H429.16V90.528H441.032V92.896H428.808V90.88H426.856V88.896H424.872V84.608ZM449.992 92.48V90.496H451.944V80.96H445.992V78.624H454.28V88.544H455.912V74.688H461.832V73.056H459.848V71.072H455.912V68.736H463.816V64.8H466.12V68.736H476.008V71.072H470.088V73.056H468.104V74.688H474.024V88.864H472.072V90.848H467.752V88.864H459.848V82.592H463.816V80.96H458.216V90.496H460.2V92.48H476.008V94.848H459.848V92.864H455.912V90.848H452.296V92.864H450.312V94.848H445.992V92.48H449.992ZM451.944 71.072H449.992V69.088H448.008V66.784H450.312V68.736H452.296V70.72H454.28V73.056H451.944V71.072ZM465.8 74.688V72.704H467.752V71.072H462.184V72.704H464.168V74.688H465.8ZM471.72 78.624V76.992H466.12V78.624H471.72ZM463.816 78.624V76.992H458.216V78.624H463.816ZM470.088 82.592V88.544H471.72V80.96H466.12V82.592H470.088ZM467.752 86.56V84.928H462.184V86.56H467.752ZM477.992 90.496H480.008V82.592H481.992V68.736H493.832V64.8H496.168V68.736H508.008V71.072H484.296V82.944H482.312V90.848H480.36V94.848H477.992V90.496ZM493.832 72.704H496.168V74.688H498.12V76.672H500.104V78.976H497.8V76.992H495.816V75.04H493.832V72.704ZM491.848 78.624H494.184V92.48H501.736V86.56H504.072V92.864H502.088V94.848H493.832V92.864H491.848V78.624ZM503.72 80.608H506.024V84.576H508.008V90.848H505.672V84.928H503.72V80.608ZM485.928 86.56H487.912V82.592H490.216V86.88H488.264V90.848H485.928V86.56ZM517.928 78.656H519.912V76.704H521.896V74.72H523.848V72.736H525.832V71.104H509.992V68.768H538.024V71.104H530.12V73.088H526.184V75.072H524.2V77.024H522.216V79.008H520.264V86.592H522.216V88.576H524.2V90.528H534.088V92.896H523.848V90.88H519.912V86.912H517.928V78.656ZM533.736 72.736H536.072V74.72H538.024V76.704H540.008V79.008H537.672V77.024H535.72V75.072H533.736V72.736ZM529.8 74.72H532.104V76.704H534.088V78.656H536.072V80.992H533.736V79.008H531.752V77.024H529.8V74.72ZM546.952 84.608H548.904V82.624H562.76V80.992H560.776V79.008H544.968V76.704H558.792V75.072H556.808V73.088H544.968V70.752H554.856V69.12H552.872V64.832H555.176V68.768H557.16V70.752H560.776V68.768H567.048V71.104H561.128V73.088H559.144V74.72H561.128V76.704H562.76V74.72H569.032V77.024H563.08V80.64H565.064V82.624H567.048V84.608H569.032V86.912H564.712V84.96H549.256V90.528H567.048V92.896H548.904V90.88H546.952V84.608ZM575.016 86.592H577.32V88.576H579.304V90.528H581.288V94.88H578.952V92.896H577V90.88H575.016V86.592ZM30.984 122.496H33V116.576H34.984V98.784H59.016V124.864H57.064V126.848H50.792V124.48H56.712V101.088H37.288V110.624H44.84V107.04H38.92V104.704H44.84V102.72H47.176V104.704H53.096V107.04H47.176V110.624H55.08V112.96H37.288V116.928H35.304V122.848H33.352V126.848H30.984V122.496ZM40.904 114.592H53.096V122.848H40.904V114.592ZM50.792 120.544V116.928H43.208V120.544H50.792ZM63.976 98.784H89.992V126.848H87.688V124.864H66.28V126.848H63.976V98.784ZM87.688 122.496V101.088H66.28V122.496H87.688ZM67.912 118.56H69.896V116.576H71.88V114.944H67.912V112.608H71.88V108.992H67.912V106.688H71.88V102.72H74.184V106.688H77.8V102.72H80.136V106.688H84.072V108.992H80.136V112.608H86.056V114.944H80.136V120.864H77.8V114.944H74.184V116.928H72.232V118.88H70.248V120.864H67.912V118.56ZM77.8 112.608V108.992H74.184V112.608H77.8ZM96.968 114.624H98.952V112.64H100.904V110.656H104.872V96.832H107.176V108.704H110.792V106.72H121.032V109.024H111.144V111.008H105.224V112.992H101.256V114.976H99.272V120.576H103.24V122.528H121.032V124.896H102.888V122.88H98.952V120.896H96.968V114.624ZM129 116.576H137.256V122.496H138.888V98.784H155.016V124.864H153.064V126.848H148.744V124.48H152.712V110.976H141.192V122.848H139.208V126.848H136.904V124.864H131.304V126.848H129V116.576ZM129 98.784H137.256V101.088H129V98.784ZM152.712 104.704V101.088H147.112V104.704H152.712ZM144.808 104.704V101.088H141.192V104.704H144.808ZM126.984 104.704H137.256V107.04H126.984V104.704ZM152.712 108.672V107.04H147.112V108.672H152.712ZM144.808 108.672V107.04H141.192V108.672H144.808ZM129 108.672H137.256V110.976H129V108.672ZM142.824 112.608H151.08V120.864H142.824V112.608ZM129 112.608H137.256V114.944H129V112.608ZM148.744 118.56V114.944H145.16V118.56H148.744ZM134.92 122.496V118.88H131.304V122.496H134.92ZM158.984 116.576H161V114.592H162.984V110.624H164.936V108.992H158.984V106.688H166.92V101.088H161V98.784H168.904V96.8H173.192V99.104H169.256V106.688H175.176V108.992H169.256V110.624H171.208V112.608H173.192V114.592H175.176V116.928H172.84V114.944H170.888V112.96H169.256V126.848H166.92V110.976H165.288V114.944H163.304V116.928H161.352V120.864H158.984V116.576ZM176.808 100.736H187.016V124.864H184.712V120.864H179.112V124.864H176.808V100.736ZM184.712 118.56V103.072H179.112V118.56H184.712ZM191.976 116.608H193.96V112.64H195.912V110.656H197.896V106.72H199.88V105.088H191.976V102.752H201.864V96.832H204.168V102.752H214.056V105.088H202.184V106.72H206.152V108.704H208.136V112.64H209.768V110.656H213.704V108.704H217.992V111.008H214.056V112.992H210.088V114.976H208.136V122.88H205.8V116.96H202.184V118.912H200.232V124.512H216.04V126.88H199.88V124.896H197.896V118.592H199.88V116.608H201.864V114.624H205.8V109.024H200.232V111.008H198.248V112.992H196.264V116.96H194.28V118.912H191.976V116.608ZM227.944 110.976H226.312V112.96H224.36V114.944H221.992V112.608H224.008V110.624H225.992V106.688H227.944V102.72H229.928V96.8H232.264V103.072H230.28V122.496H231.912V120.544H233.896V118.56H235.848V116.576H237.832V114.944H231.912V112.608H239.816V108.992H233.896V98.784H250.024V108.992H242.12V112.608H252.008V114.944H244.104V116.576H246.088V118.56H248.072V120.544H250.024V122.496H252.008V124.864H249.672V122.848H247.72V120.864H245.736V118.88H243.752V116.928H242.12V126.848H239.816V116.928H238.184V118.88H236.2V120.864H234.216V122.848H232.264V124.864H230.28V126.848H227.944V110.976ZM247.72 106.688V101.088H236.2V106.688H247.72ZM260.904 122.528H274.76V120.576H278.696V114.976H276.712V112.992H265.224V114.976H261.256V116.96H258.952V112.64H260.904V108.704H262.888V105.088H256.968V102.752H264.872V100.768H266.856V96.832H269.16V101.12H267.176V102.752H279.048V105.088H265.224V109.024H263.24V112.64H264.872V110.656H277.064V112.64H279.048V114.624H281.032V120.896H279.048V122.88H275.08V124.896H260.904V122.528ZM292.936 122.528H302.824V120.576H308.744V118.592H310.728V116.608H312.712V109.024H310.728V107.072H308.744V105.088H295.272V107.072H286.984V104.736H294.92V102.752H309.096V104.736H311.08V106.72H313.064V108.704H315.016V116.96H313.064V118.912H311.08V120.896H309.096V122.88H303.176V124.896H292.936V122.528ZM324.936 122.528H334.824V120.576H340.744V118.592H342.728V116.608H344.712V109.024H342.728V107.072H340.744V105.088H327.272V107.072H318.984V104.736H326.92V102.752H341.096V104.736H343.08V106.72H345.064V108.704H347.016V116.96H345.064V118.912H343.08V120.896H341.096V122.88H335.176V124.896H324.936V122.528ZM356.936 112.992H350.984V110.656H356.936V105.088H353V102.752H358.92V96.832H361.256V102.752H369.16V105.088H359.272V110.656H369.16V112.992H359.272V122.528H361.256V124.512H372.744V122.528H374.728V120.576H376.712V112.992H374.728V109.024H372.744V106.72H375.08V108.704H377.064V112.64H379.016V120.896H377.064V122.88H375.08V124.896H373.096V126.88H360.904V124.896H358.92V122.88H356.936V112.992ZM33.96 132.736H41.864V130.784H43.816V128.8H46.152V131.104H44.168V132.736H56.04V158.848H53.704V156.864H36.264V158.848H33.96V132.736ZM53.704 140.672V135.072H36.264V140.672H53.704ZM53.704 146.592V142.976H36.264V146.592H53.704ZM53.704 154.496V148.928H36.264V154.496H53.704ZM61.992 140.672H64.008V138.688H65.992V136.704H67.944V134.72H69.928V130.784H71.912V128.8H74.216V131.104H72.264V135.072H70.28V137.056H68.296V139.04H66.312V140.992H64.36V142.976H61.992V140.672ZM81.8 131.104H79.816V128.8H82.12V130.784H84.104V134.72H86.088V136.704H88.072V138.688H90.024V140.672H92.008V142.976H89.672V140.992H87.72V139.04H85.736V137.056H83.752V135.072H81.8V131.104ZM65.992 156.48V154.496H67.944V152.544H69.928V148.576H71.912V144.96H65.992V142.624H86.088V156.864H84.104V158.848H75.848V156.48H83.752V144.96H74.216V148.928H72.264V152.864H70.28V154.848H68.296V156.864H66.312V158.848H61.992V156.48H65.992ZM97 152.896H94.984V142.656H97V138.72H98.984V136.736H100.936V134.752H104.904V132.768H115.112V134.752H119.08V136.736H121.064V140.704H123.016V150.912H121.064V154.88H119.08V156.896H115.112V158.88H108.84V156.512H114.792V154.528H118.728V150.592H120.712V141.024H118.728V137.088H114.792V135.104H111.176V141.024H109.192V146.976H107.208V150.912H105.256V154.88H103.272V156.896H98.984V154.88H97V152.896ZM99.304 152.576V154.528H102.92V150.592H104.904V146.624H106.888V140.704H108.84V135.104H105.256V137.088H101.288V139.072H99.304V143.008H97.352V152.576H99.304ZM125.992 136.704H135.912V135.072H133.928V133.088H129.992V130.784H139.848V128.8H142.184V130.784H152.072V133.088H148.104V135.072H146.12V136.704H156.008V139.04H125.992V136.704ZM143.816 136.704V134.72H145.8V133.088H136.264V134.72H138.216V136.704H143.816ZM133.928 150.88H131.944V140.672H150.088V150.88H142.184V152.544H144.168V154.848H141.832V152.864H139.848V150.88H136.264V156.48H147.752V152.544H150.088V156.864H148.104V158.848H135.912V156.864H133.928V150.88ZM147.752 144.608V142.976H134.28V144.608H147.752ZM147.752 148.576V146.944H134.28V148.576H147.752ZM125.992 154.496H128.008V150.56H130.312V154.848H128.36V156.864H125.992V154.496ZM151.72 150.56H154.024V152.544H156.008V156.864H153.672V152.864H151.72V150.56ZM163.944 156.48V154.496H167.912V150.88H163.944V128.8H182.088V150.88H178.12V156.48H185.672V150.56H188.008V156.864H186.024V158.848H177.8V156.864H175.816V150.88H170.216V154.848H168.264V156.864H164.296V158.848H157.992V156.48H163.944ZM179.752 134.72V131.104H166.28V134.72H179.752ZM179.752 140.672V137.056H166.28V140.672H179.752ZM179.752 148.576V142.976H166.28V148.576H179.752ZM191.976 148.608H193.96V144.64H195.912V142.656H197.896V138.72H199.88V137.088H191.976V134.752H201.864V128.832H204.168V134.752H214.056V137.088H202.184V138.72H206.152V140.704H208.136V144.64H209.768V142.656H213.704V140.704H217.992V143.008H214.056V144.992H210.088V146.976H208.136V154.88H205.8V148.96H202.184V150.912H200.232V156.512H216.04V158.88H199.88V156.896H197.896V150.592H199.88V148.608H201.864V146.624H205.8V141.024H200.232V143.008H198.248V144.992H196.264V148.96H194.28V150.912H191.976V148.608ZM224.968 130.816H227.272V152.576H229.256V154.528H238.792V152.576H242.728V150.592H244.712V148.608H246.696V146.624H249V148.96H247.048V150.912H245.064V152.896H243.08V154.88H239.144V156.896H228.904V154.88H226.92V152.896H224.968V130.816ZM262.888 154.528H272.776V152.576H276.712V150.592H278.696V144.992H276.712V143.008H263.24V144.992H256.968V142.656H262.888V140.704H277.064V142.656H279.048V144.64H281.032V150.912H279.048V152.896H277.064V154.88H273.128V156.896H262.888V154.528ZM286.984 152.576H288.968V148.608H290.92V142.656H292.904V139.072H286.984V136.736H294.888V128.832H297.192V136.736H303.144V138.72H305.096V150.912H303.144V154.88H301.16V156.896H292.904V154.528H300.808V150.592H302.792V139.072H295.24V143.008H293.256V148.96H291.272V152.896H289.288V156.896H286.984V152.576ZM310.696 141.024H308.712V137.088H306.728V135.104H304.776V132.768H307.08V134.752H309.064V136.736H311.048V140.704H313V144.64H314.984V146.976H312.648V144.992H310.696V141.024ZM331.816 156.512V154.528H337.768V152.576H339.72V148.608H341.704V137.088H339.72V133.12H332.168V135.104H330.184V137.088H328.232V141.024H326.248V144.992H324.264V148.96H321.96V134.752H323.912V130.816H326.248V135.104H324.264V140.704H325.896V136.736H327.88V134.752H329.864V132.768H331.816V130.816H340.072V132.768H342.056V136.736H344.04V148.96H342.056V152.896H340.072V154.88H338.088V156.896H332.168V158.88H323.912V156.512H331.816ZM355.944 156.48V146.944H349.992V144.608H355.944V139.04H349.992V136.704H355.944V128.8H358.28V136.704H362.216V138.688H369.8V135.072H363.848V132.736H369.8V128.8H372.104V132.736H378.024V135.072H372.104V138.688H380.008V140.992H376.072V144.608H380.008V146.944H376.072V156.864H374.088V158.848H367.816V156.48H373.736V146.944H361.896V144.96H358.28V156.864H356.296V158.848H352.008V156.48H355.944ZM362.216 142.624V144.608H373.736V140.992H361.896V139.04H358.28V142.624H362.216ZM365.832 148.576H368.168V150.56H370.12V152.864H367.816V150.88H365.832V148.576ZM390.888 154.528H400.776V152.576H404.712V150.592H406.696V144.992H404.712V143.008H391.24V144.992H384.968V142.656H390.888V140.704H405.064V142.656H407.048V144.64H409.032V150.912H407.048V152.896H405.064V154.88H401.128V156.896H390.888V154.528ZM422.92 142.656H424.904V140.704H426.888V138.72H428.84V136.736H430.824V135.104H414.984V132.768H443.016V135.104H435.112V137.088H431.176V139.072H429.192V141.024H427.208V143.008H425.256V150.592H427.208V152.576H429.192V154.528H439.08V156.896H428.84V154.88H424.904V150.912H422.92V142.656ZM449.96 150.912H447.976V132.768H450.28V150.592H452.264V154.528H457.864V152.576H459.816V148.608H462.152V152.896H460.168V154.88H458.184V156.896H451.912V154.88H449.96V150.912ZM469.704 141.024H467.72V137.088H465.768V132.768H468.072V136.736H470.056V140.704H472.04V146.624H473.992V152.896H471.688V146.976H469.704V141.024ZM480.968 150.592H482.952V148.608H492.808V143.008H480.968V140.704H492.808V137.088H480.968V134.752H492.808V128.832H495.144V134.752H505.032V137.088H495.144V140.704H505.032V143.008H495.144V150.592H499.08V152.576H501.064V154.528H503.048V156.512H505.032V158.88H502.696V156.896H500.712V154.88H498.76V152.896H495.144V156.896H493.16V158.88H482.952V156.896H480.968V150.592ZM492.808 156.512V150.912H483.272V156.512H492.808ZM522.888 156.512V154.528H524.84V152.576H526.824V148.96H525.192V150.912H518.92V148.96H516.936V142.656H518.92V140.704H525.192V142.656H526.824V137.088H510.984V134.752H526.824V128.832H529.16V134.752H539.016V137.088H529.16V152.896H527.176V154.88H525.192V156.896H523.208V158.88H518.92V156.512H522.888ZM524.84 148.608V146.624H526.824V144.992H524.84V143.008H519.272V148.608H524.84ZM543.016 150.592H545V148.608H551.272V150.592H553.224V156.896H551.272V158.88H545V156.896H543.016V150.592ZM550.92 156.512V150.912H545.32V156.512H550.92ZM29.992 184.544H32.008V180.576H33.992V178.944H29.992V176.608H35.944V174.976H29.992V172.672H33.992V171.04H32.008V167.072H29.992V164.736H35.944V160.8H38.28V164.736H44.2V167.072H42.216V171.04H40.264V172.672H44.2V174.976H38.28V176.608H44.2V178.944H40.264V180.576H42.216V184.544H45.832V164.736H53.736V162.784H58.024V165.088H54.088V167.072H48.168V172.672H60.008V174.976H56.072V190.848H53.736V174.976H48.168V184.864H46.184V190.848H43.848V186.848H41.896V184.864H39.912V180.928H38.28V190.848H35.944V180.928H34.312V184.864H32.36V186.848H29.992V184.544ZM37.928 172.672V170.688H39.912V167.072H34.312V170.688H36.296V172.672H37.928ZM64.968 162.816H67.272V184.576H69.256V186.528H78.792V184.576H82.728V182.592H84.712V180.608H86.696V178.624H89V180.96H87.048V182.912H85.064V184.896H83.08V186.88H79.144V188.896H68.904V186.88H66.92V184.896H64.968V162.816ZM97.96 182.912H95.976V164.768H98.28V182.592H100.264V186.528H105.864V184.576H107.816V180.608H110.152V184.896H108.168V186.88H106.184V188.896H99.912V186.88H97.96V182.912ZM117.704 173.024H115.72V169.088H113.768V164.768H116.072V168.736H118.056V172.704H120.04V178.624H121.992V184.896H119.688V178.976H117.704V173.024ZM145.8 160.8H148.104V172.672H149.736V170.688H151.72V166.72H154.024V171.04H152.072V172.992H150.088V174.976H148.104V176.608H150.088V178.592H152.072V180.576H154.024V182.88H151.72V180.928H149.736V178.944H148.104V188.48H153.672V184.544H156.008V188.864H154.024V190.848H147.752V188.864H145.8V160.8ZM129.992 188.48V180.928H125.992V178.592H129.992V171.04H125.992V168.704H129.992V160.8H132.296V168.704H134.28V171.04H132.296V176.608H133.928V174.624H136.264V176.96H134.28V178.944H132.296V188.864H130.312V190.848H125.992V188.48H129.992ZM137.896 188.48V186.496H139.848V182.56H141.832V178.944H140.2V180.928H138.216V182.88H135.912V180.576H137.896V178.592H139.848V176.608H141.832V160.8H144.168V182.88H142.184V186.848H140.2V188.864H138.216V190.848H133.928V188.48H137.896ZM137.896 171.04H135.912V166.72H138.216V170.688H140.2V174.976H137.896V171.04ZM157.992 182.56H165.928V178.944H160.008V166.72H169.896V164.736H171.848V160.8H174.184V165.088H172.2V166.72H174.184V172.672H177.8V160.8H180.104V170.688H188.008V172.992H180.104V178.592H181.736V176.608H183.72V174.624H186.024V176.96H184.072V178.944H182.088V186.496H184.072V188.48H185.672V182.56H188.008V188.864H186.024V190.848H183.72V188.864H181.736V186.848H179.752V184.864H178.12V186.848H176.168V188.864H173.832V186.496H175.816V184.864H168.264V190.848H165.928V184.864H157.992V182.56ZM160.008 163.104H157.992V160.8H160.36V162.784H162.312V165.088H160.008V163.104ZM165.928 163.104H163.944V160.8H166.28V162.784H168.264V165.088H165.928V163.104ZM183.72 165.088H181.736V162.784H184.072V164.736H186.024V169.056H183.72V165.088ZM165.928 170.688V169.056H162.312V170.688H165.928ZM171.848 170.688V169.056H168.264V170.688H171.848ZM171.848 176.608V172.992H168.264V176.608H171.848ZM165.928 176.608V172.992H162.312V176.608H165.928ZM176.168 182.56V184.544H177.8V182.56H179.752V178.944H177.8V174.976H174.184V178.944H168.264V182.56H176.168ZM198.92 176.992H196.936V175.008H193.352V176.992H190.984V174.656H193V172.704H196.936V169.088H194.984V162.816H197.288V168.736H199.272V170.72H202.888V168.736H206.824V165.12H204.84V160.832H207.176V164.768H209.16V168.736H215.08V170.72H217.064V172.704H219.016V178.976H217.064V180.96H213.096V182.912H204.84V180.608H212.744V178.624H216.712V173.024H214.728V171.072H203.208V173.024H199.272V176.64H201.256V184.576H203.208V190.88H200.904V184.896H198.92V176.992ZM225.992 176.96H224.36V182.88H221.992V176.608H224.008V172.672H225.992V171.04H221.992V168.704H225.992V160.8H228.296V168.704H232.264V171.04H228.296V172.672H230.28V174.624H231.912V172.672H233.896V170.688H235.848V169.056H233.896V167.072H231.912V164.736H235.848V160.8H238.184V164.736H239.816V160.8H242.12V164.736H245.736V160.8H248.072V164.736H250.024V169.056H248.072V170.688H250.024V172.672H252.008V174.976H250.024V176.608H252.008V178.944H244.104V184.544H245.736V182.56H247.72V180.576H250.024V182.88H248.072V184.864H246.088V186.496H248.072V188.48H249.672V184.544H252.008V188.864H250.024V190.848H247.72V188.864H245.736V186.848H244.104V188.864H240.168V190.848H235.848V188.48H239.816V186.496H243.752V184.864H241.8V178.944H236.2V180.576H238.184V182.56H240.168V184.864H237.832V182.88H236.2V184.864H234.216V188.864H232.264V190.848H229.928V188.48H231.912V184.544H233.896V178.944H229.928V174.976H228.296V190.848H225.992V176.96ZM247.72 168.704V165.088H246.088V168.704H247.72ZM237.832 166.72V165.088H236.2V166.72H237.832ZM243.752 172.672V170.688H245.736V169.056H243.752V167.072H242.12V172.672H243.752ZM239.816 170.688V167.072H238.184V170.688H239.816ZM237.832 172.672V171.04H236.2V172.672H237.832ZM247.72 172.672V171.04H246.088V172.672H247.72ZM239.816 176.608V172.992H238.184V174.976H232.264V176.608H239.816ZM249.672 174.624V172.992H248.072V174.624H249.672ZM247.72 176.608V174.976H242.12V176.608H247.72ZM253.992 172.672H257.992V170.688H259.944V168.704H261.928V166.72H263.912V164.736H265.896V162.784H267.848V160.8H270.184V162.784H272.168V164.736H274.12V166.72H276.104V168.704H278.088V170.688H280.072V172.672H284.008V174.976H279.72V172.992H277.736V171.04H276.104V172.992H261.928V171.04H260.296V172.992H258.312V174.976H253.992V172.672ZM275.752 170.688V169.056H273.8V167.072H271.816V165.088H269.832V163.104H268.2V165.088H266.216V167.072H264.264V169.056H262.28V170.688H275.752ZM256.008 186.496H259.944V184.544H261.928V182.56H263.912V180.576H265.896V178.944H256.008V176.608H282.024V178.944H268.2V180.928H266.216V182.88H264.264V184.864H262.28V186.496H267.848V184.544H275.752V182.88H273.8V180.576H276.104V182.56H278.088V184.544H280.072V186.496H282.024V190.848H279.72V186.848H268.2V188.864H256.008V186.496ZM287.976 180.608H289.96V176.64H291.912V174.656H293.896V170.72H295.88V169.088H287.976V166.752H297.864V160.832H300.168V166.752H310.056V169.088H298.184V170.72H302.152V172.704H304.136V176.64H305.768V174.656H309.704V172.704H313.992V175.008H310.056V176.992H306.088V178.976H304.136V186.88H301.8V180.96H298.184V182.912H296.232V188.512H312.04V190.88H295.88V188.896H293.896V182.592H295.88V180.608H297.864V178.624H301.8V173.024H296.232V175.008H294.248V176.992H292.264V180.96H290.28V182.912H287.976V180.608ZM320.008 188.48V186.496H321.992V184.544H323.944V174.976H317.992V172.672H326.28V176.608H327.912V174.624H329.896V172.672H331.848V171.04H329.896V169.056H327.912V164.736H330.216V168.704H331.848V160.8H334.184V178.944H332.2V182.88H330.216V184.864H328.264V186.496H332.2V188.48H348.008V190.848H331.848V188.864H327.912V186.848H325.928V184.864H324.296V186.848H322.312V188.864H320.36V190.848H317.992V188.48H320.008ZM337.8 160.8H340.104V168.704H341.736V166.72H343.72V164.736H346.024V167.072H344.072V169.056H342.088V171.04H340.104V172.672H342.088V174.624H346.024V176.96H341.736V174.976H340.104V182.56H345.672V178.592H348.008V184.864H339.752V182.88H337.8V160.8ZM323.944 163.104H321.992V160.8H324.296V162.784H326.28V167.072H323.944V163.104ZM327.912 184.544V182.56H329.896V178.592H331.848V174.976H330.216V176.96H328.264V178.944H326.28V184.544H327.912ZM353.96 180.608H355.944V178.624H357.896V176.64H371.752V175.008H369.768V173.024H367.784V171.072H351.944V168.736H365.8V167.104H363.848V165.12H361.864V160.832H364.168V164.768H366.152V166.752H368.136V168.736H371.752V166.752H378.024V169.088H372.072V171.072H370.12V172.704H372.072V174.656H374.056V176.64H376.04V178.624H378.024V180.96H371.752V178.976H358.248V180.96H356.264V184.576H358.248V186.528H373.704V184.576H376.04V186.88H374.056V188.896H357.896V186.88H355.944V184.896H353.96V180.608ZM373.704 178.624V176.992H372.072V178.624H373.704ZM393.896 188.512V186.528H395.848V184.576H397.832V180.96H396.2V182.912H389.928V180.96H387.944V174.656H389.928V172.704H396.2V174.656H397.832V169.088H381.992V166.752H397.832V160.832H400.168V166.752H405.736V165.12H403.752V163.136H401.8V160.832H404.104V162.816H405.736V160.832H408.072V162.816H410.024V164.768H412.008V167.104H409.672V165.12H408.072V169.088H400.168V184.896H398.184V186.88H396.2V188.896H394.216V190.88H389.928V188.512H393.896ZM407.72 164.768V163.136H406.088V164.768H407.72ZM395.848 180.608V178.624H397.832V176.992H395.848V175.008H390.28V180.608H395.848ZM415.016 182.592H417.32V184.576H419.304V186.528H421.288V190.88H418.952V188.896H417V186.88H415.016V182.592ZM445.992 178.592H448.008V174.624H449.992V172.992H445.992V170.688H451.944V165.088H445.992V162.784H453.928V160.8H458.216V163.104H454.28V170.688H456.264V172.992H454.28V174.624H456.264V176.608H458.216V178.944H455.912V176.96H454.28V190.848H451.944V174.976H450.312V178.944H448.36V182.88H445.992V178.592ZM457.896 170.688H465.8V169.056H461.832V166.72H465.8V165.088H459.848V162.784H465.8V160.8H468.104V162.784H474.024V165.088H468.104V166.72H472.072V169.056H468.104V170.688H476.008V172.992H457.896V170.688ZM463.816 188.48V186.848H459.848V174.624H474.024V186.848H472.072V188.48H476.008V190.848H471.72V188.864H469.736V186.848H466.12V188.864H464.168V190.848H459.848V188.48H463.816ZM471.72 180.576V178.944H462.184V180.576H471.72ZM471.72 184.544V182.88H462.184V184.544H471.72ZM481.992 178.944H480.36V182.88H477.992V178.592H480.008V172.672H481.992V171.04H477.992V168.704H481.992V160.8H484.296V168.704H488.264V171.04H484.296V172.672H486.28V174.624H488.264V178.944H485.928V174.976H484.296V190.848H481.992V178.944ZM493.832 184.544H497.8V171.04H491.848V168.704H493.832V165.088H489.896V162.784H508.008V165.088H496.168V168.704H500.104V184.864H498.12V186.848H493.832V184.544ZM501.736 182.56H503.72V178.944H501.736V174.624H504.072V178.592H505.672V172.992H501.736V170.688H508.008V178.944H506.024V180.576H508.008V186.848H505.672V182.88H504.072V186.848H501.736V182.56ZM489.896 172.672H496.168V182.88H489.896V172.672ZM493.832 180.576V174.976H492.2V180.576H493.832ZM508.008 188.48V190.848H487.912V188.48H508.008ZM510.984 166.72H512.968V164.736H514.92V160.8H517.256V165.088H515.272V166.72H521.192V186.848H513.288V190.848H510.984V166.72ZM534.696 188.48V186.496H536.648V167.072H527.144V169.056H525.16V172.992H522.824V168.704H524.808V160.8H527.144V164.736H538.984V186.848H537V188.864H535.048V190.848H528.776V188.48H534.696ZM518.888 174.624V169.056H513.288V174.624H518.888ZM528.776 176.96H526.792V172.672H529.096V176.608H531.08V180.928H528.776V176.96ZM518.888 184.544V176.96H513.288V184.544H518.888ZM544.968 168.736H546.952V162.816H549.256V169.088H547.272V188.896H544.968V168.736ZM552.872 166.752H569.032V169.088H552.872V166.752ZM552.872 180.608H555.176V184.576H557.16V186.528H569.032V188.896H556.808V186.88H554.856V184.896H552.872V180.608ZM573.992 168.704H577.992V166.72H579.944V162.784H581.928V160.8H584.264V163.104H582.28V167.072H580.296V169.056H578.312V171.04H573.992V168.704ZM587.848 162.784H602.024V165.088H587.848V162.784ZM579.944 176.96H578.312V178.944H573.992V176.608H577.992V174.624H579.944V172.672H581.928V170.688H583.912V168.704H586.216V170.688H604.008V172.992H598.088V188.864H596.104V190.848H589.832V188.48H595.752V172.992H585.896V171.04H584.264V172.992H582.28V190.848H579.944V176.96ZM613.928 188.48V184.864H608.008V182.56H613.928V180.928H608.008V170.688H613.928V169.056H605.992V166.72H613.928V165.088H608.008V162.784H617.896V160.8H622.184V163.104H618.216V165.088H616.264V166.72H622.184V168.704H625.8V160.8H628.104V168.704H636.008V188.864H634.024V190.848H627.752V188.48H633.672V171.04H628.104V182.88H626.12V188.864H624.168V190.848H621.832V188.864H616.264V190.848H605.992V188.48H613.928ZM621.832 170.688V169.056H616.264V170.688H621.832ZM622.184 186.496V188.48H623.816V182.56H625.8V171.04H622.184V180.928H616.264V182.56H622.184V184.864H616.264V186.496H622.184ZM613.928 174.624V172.992H610.312V174.624H613.928ZM619.848 174.624V172.992H616.264V174.624H619.848ZM619.848 178.592V176.96H616.264V178.592H619.848ZM613.928 178.592V176.96H610.312V178.592H613.928ZM640.968 162.816H643.272V184.576H645.256V186.528H654.792V184.576H658.728V182.592H660.712V180.608H662.696V178.624H665V180.96H663.048V182.912H661.064V184.896H659.08V186.88H655.144V188.896H644.904V186.88H642.92V184.896H640.968V162.816ZM672.968 182.592H674.952V180.608H684.808V175.008H672.968V172.704H684.808V169.088H672.968V166.752H684.808V160.832H687.144V166.752H697.032V169.088H687.144V172.704H697.032V175.008H687.144V182.592H691.08V184.576H693.064V186.528H695.048V188.512H697.032V190.88H694.696V188.896H692.712V186.88H690.76V184.896H687.144V188.896H685.16V190.88H674.952V188.896H672.968V182.592ZM684.808 188.512V182.912H675.272V188.512H684.808ZM714.888 188.512V186.528H716.84V184.576H718.824V180.96H717.192V182.912H710.92V180.96H708.936V174.656H710.92V172.704H717.192V174.656H718.824V169.088H702.984V166.752H718.824V160.832H721.16V166.752H731.016V169.088H721.16V184.896H719.176V186.88H717.192V188.896H715.208V190.88H710.92V188.512H714.888ZM716.84 180.608V178.624H718.824V176.992H716.84V175.008H711.272V180.608H716.84ZM735.016 182.592H737V180.608H743.272V182.592H745.224V188.896H743.272V190.88H737V188.896H735.016V182.592ZM742.92 188.512V182.912H737.32V188.512H742.92Z"></path>
</svg>
