<svg version="1.1" xmlns="http://www.w3.org/2000/svg" xmlns:xlink="http://www.w3.org/1999/xlink" width="90.792" height="21.048" viewBox="0,0,90.792,21.048"><g transform="translate(-194.604,-169.476)"><g data-paper-data="{&quot;isPaintingLayer&quot;:true}" fill="#ffffff" fill-rule="nonzero" stroke="none" stroke-width="1" stroke-linecap="butt" stroke-linejoin="miter" stroke-miterlimit="10" stroke-dasharray="" stroke-dashoffset="0" style="mix-blend-mode: normal"><path d="M199.044,184.308h1.488v-1.488h7.416v-7.152h-8.904v-1.752h8.904v-4.44h1.728v4.44h4.44v1.752h-4.44v8.64h1.488v1.488h1.488v1.464h1.464v1.776h-1.728v-1.512h-1.488v-1.488h-1.224v1.488h-1.488v1.512h-7.656v-1.512h-1.488zM194.604,172.428h1.488v-2.952h1.728v3.216h-1.488v16.344h-1.728zM207.948,187.26v-2.712h-7.152v2.712zM219.348,169.476h1.728v16.32h1.488v1.464h7.152v-1.464h2.952v-1.488h1.488v-1.488h1.488v-1.488h1.728v1.752h-1.464v1.464h-1.488v1.488h-1.488v1.488h-2.952v1.512h-7.68v-1.512h-1.488v-1.488h-1.464zM231.204,172.692h-1.488v-1.752h1.728v1.488h1.488v1.488h1.488v1.752h-1.752v-1.488h-1.464zM228.228,174.18h-1.488v-1.752h1.752v1.488h1.488v1.488h1.464v1.728h-1.728v-1.464h-1.488zM241.86,179.844h1.512v-1.488h1.488v-8.88h1.728v5.928h2.712v-1.488h5.928v-4.44h1.728v5.928h2.976v1.488h1.488v1.464h1.464v6.192h-1.464v1.488h-1.488v1.488h-1.488v1.512h-1.488v1.488h-3.216v-1.776h2.976v-1.488h1.464v-1.464h1.488v-1.488h1.488v-5.688h-1.488v-1.488h-2.952v-1.464h-1.224v1.464h-1.488v2.976h-1.488v2.976h-1.488v1.464h-1.464v1.248h1.464v1.728h-1.728v-1.488h-1.224v1.488h-1.488v1.512h-3.216v-1.512h-1.512zM250.788,182.82v-2.976h1.464v-2.952h1.488v-1.224h-4.176v1.464h-1.488v5.688zM246.324,187.26v-1.464h1.488v-2.712h-1.488v-4.464h-1.224v1.488h-1.464v7.152zM268.836,184.308h1.464v-1.488h4.704v1.488h1.488v2.952h4.2v-1.464h1.464v-1.488h1.488v-2.712h-1.488v-1.488h-10.104v1.488h-2.976v1.488h-1.728v-1.752h1.488v-1.488h2.952v-1.488h1.488v-1.464h1.488v-1.488h2.952v-1.488h1.488v-1.224h-10.368v-1.752h13.584v1.752h-1.488v1.488h-1.464v1.488h-1.488v1.464h-2.976v1.224h7.416v1.488h1.488v1.488h1.488v3.216h-1.488v2.976h-2.976v1.512h-10.632v-1.512h-1.464zM274.764,187.26v-2.712h-4.2v2.712z"/></g></g></svg>