<svg xmlns="http://www.w3.org/2000/svg" fill="none" viewBox="0 0 142 12" height="12" width="142">
<path fill="white" d="M2.568 2.164H0.336V1.288H5.664V2.164H3.444V10.336H2.568V2.164ZM6.336 1.288H7.224V4.264H7.836V3.52H10.188V4.264H10.92V4.996H11.664V10.336H10.8V5.128H10.056V4.384H7.956V5.128H7.224V10.336H6.336V1.288ZM12.336 7.228H13.092V6.484H16.056V4.384H13.224V5.872H12.336V4.264H13.092V3.52H16.188V4.264H16.92V9.448H17.664V10.336H16.8V9.58H15.444V10.336H13.092V9.58H12.336V7.228ZM15.312 9.448V8.716H16.056V7.36H13.224V9.448H15.312ZM18.336 3.52H19.224V4.264H19.836V3.52H22.188V4.264H22.92V4.996H23.664V10.336H22.8V5.128H22.056V4.384H19.956V5.128H19.224V10.336H18.336V3.52ZM24.336 1.288H25.224V6.484H25.836V5.74H26.568V4.996H28.056V4.264H28.8V3.52H29.664V4.384H28.92V5.128H28.188V5.872H26.7V6.616H25.956V7.228H26.7V7.972H28.188V8.716H28.92V9.448H29.664V10.336H28.8V9.58H28.056V8.836H26.568V8.092H25.836V7.36H25.224V10.336H24.336V1.288ZM38.568 10.192V8.836H37.836V7.36H37.092V5.128H36.336V3.52H37.224V4.996H37.956V7.228H38.7V8.716H39.312V7.228H40.056V4.996H40.8V3.52H41.664V5.128H40.92V7.36H40.188V8.836H39.444V10.336H38.7V11.08H36.336V10.192H38.568ZM43.092 8.836H42.336V4.996H43.092V4.264H43.836V3.52H46.188V4.264H46.92V4.996H47.664V8.836H46.92V9.58H46.188V10.336H43.836V9.58H43.092V8.836ZM43.956 8.716V9.448H46.056V8.716H46.8V5.128H46.056V4.384H43.956V5.128H43.224V8.716H43.956ZM49.092 8.836H48.336V3.52H49.224V8.716H49.956V9.448H52.056V8.716H52.8V3.52H53.664V10.336H52.8V9.58H52.188V10.336H49.836V9.58H49.092V8.836ZM62.208 4.384H60.708V3.52H62.208V1.288H62.94V0.555999H65.292V1.42H63.072V3.52H65.292V4.384H63.072V10.336H62.208V4.384ZM67.092 8.836H66.336V4.996H67.092V4.264H67.836V3.52H70.188V4.264H70.92V4.996H71.664V8.836H70.92V9.58H70.188V10.336H67.836V9.58H67.092V8.836ZM67.956 8.716V9.448H70.056V8.716H70.8V5.128H70.056V4.384H67.956V5.128H67.224V8.716H67.956ZM73.08 3.52H73.944V4.264H74.556V3.52H76.908V4.384H74.688V5.128H73.944V10.336H73.08V3.52ZM84.336 3.52H85.224V4.264H85.836V3.52H88.188V4.264H88.92V4.996H89.664V8.092H88.92V8.836H88.188V9.58H85.836V8.836H85.224V11.08H84.336V3.52ZM88.056 8.716V7.972H88.8V5.128H88.056V4.384H85.956V5.128H85.224V7.972H85.956V8.716H88.056ZM92.556 1.288H93.432V10.336H92.556V1.288ZM96.336 7.228H97.092V6.484H100.056V4.384H97.224V5.872H96.336V4.264H97.092V3.52H100.188V4.264H100.92V9.448H101.664V10.336H100.8V9.58H99.444V10.336H97.092V9.58H96.336V7.228ZM99.312 9.448V8.716H100.056V7.36H97.224V9.448H99.312ZM104.568 10.192V8.836H103.836V7.36H103.092V5.128H102.336V3.52H103.224V4.996H103.956V7.228H104.7V8.716H105.312V7.228H106.056V4.996H106.8V3.52H107.664V5.128H106.92V7.36H106.188V8.836H105.444V10.336H104.7V11.08H102.336V10.192H104.568ZM110.556 1.288H111.432V2.908H110.556V1.288ZM110.556 3.52H111.432V10.336H110.556V3.52ZM114.336 3.52H115.224V4.264H115.836V3.52H118.188V4.264H118.92V4.996H119.664V10.336H118.8V5.128H118.056V4.384H115.956V5.128H115.224V10.336H114.336V3.52ZM120.336 8.716H121.092V8.092H120.336V7.228H121.092V6.616H120.336V4.264H121.092V3.52H124.188V4.264H124.8V3.52H125.664V4.384H124.92V6.616H124.188V7.36H121.224V7.972H124.92V8.716H125.664V10.336H124.92V11.08H121.092V10.336H120.336V8.716ZM124.056 6.484V4.384H121.224V6.484H124.056ZM124.8 10.192V8.836H121.224V10.192H124.8ZM134.556 0.555999H135.432V8.092H134.556V0.555999ZM134.556 8.716H135.432V10.336H134.556V8.716ZM140.556 0.555999H141.432V8.092H140.556V0.555999ZM140.556 8.716H141.432V10.336H140.556V8.716Z"></path>
</svg>
