<svg xmlns="http://www.w3.org/2000/svg" fill="none" viewBox="0 0 71 13" height="13" width="71">
<path fill="white" d="M1.872 6.86H1.26V7.604H0.372V6.728H1.128V5.252H1.872V3.02H2.604V0.8H3.48V3.152H2.736V12.068H1.872V6.86ZM9.276 11.18V3.152H4.092V2.276H11.628V3.152H10.152V11.324H9.408V12.068H7.056V11.18H9.276ZM4.836 4.508H7.92V8.348H4.836V4.508ZM7.056 7.472V5.372H5.7V7.472H7.056ZM14.976 6.872H12.744V5.996H14.976V3.908H13.5V3.032H15.72V0.812H16.596V3.032H19.56V3.908H15.852V5.996H19.56V6.872H15.852V10.448H16.596V11.192H20.904V10.448H21.648V9.716H22.392V6.872H21.648V5.384H20.904V4.52H21.78V5.264H22.524V6.74H23.256V9.836H22.524V10.58H21.78V11.336H21.036V12.08H16.464V11.336H15.72V10.58H14.976V6.872ZM24.372 10.436H25.128V9.704H25.872V8.216H26.604V7.604H25.128V4.508H27.348V3.152H24.372V2.276H27.348V0.8H28.224V2.276H30.312V1.544H34.884V2.408H33.408V3.152H32.664V3.764H34.884V9.824H34.152V10.436H34.884V11.18H35.628V12.068H34.752V11.324H34.02V10.568H33.276V9.824H32.664V10.568H31.92V11.324H31.188V12.068H30.312V11.18H31.056V10.436H31.8V9.824H30.312V3.764H31.8V3.02H32.532V2.408H30.444V3.152H28.224V4.508H29.7V7.604H28.956V8.96H29.7V10.568H28.836V9.08H28.224V12.068H27.348V8.348H26.736V9.824H25.992V10.568H25.26V11.324H24.372V10.436ZM34.02 5.252V4.64H31.188V5.252H34.02ZM27.348 6.728V5.372H25.992V6.728H27.348ZM28.836 6.728V5.372H28.224V6.728H28.836ZM34.02 6.728V6.116H31.188V6.728H34.02ZM34.02 8.96V7.604H31.188V8.96H34.02ZM37.488 8.972H38.232V8.228H41.928V6.128H37.488V5.264H41.928V3.908H37.488V3.032H41.928V0.812H42.804V3.032H46.512V3.908H42.804V5.264H46.512V6.128H42.804V8.972H44.28V9.716H45.024V10.448H45.768V11.192H46.512V12.08H45.636V11.336H44.892V10.58H44.16V9.836H42.804V11.336H42.06V12.08H38.232V11.336H37.488V8.972ZM41.928 11.192V9.092H38.352V11.192H41.928ZM48.744 8.972H49.488V7.484H50.22V5.996H50.964V4.52H51.708V3.908H48.744V3.032H51.708V2.288H52.452V0.812H53.316V2.42H52.572V3.032H54.804V3.908H52.572V4.652H51.84V6.128H51.096V7.616H50.352V9.092H49.608V9.836H48.744V8.972ZM55.416 3.032H58.5V3.776H59.244V4.652H58.368V3.908H55.416V3.032ZM51.708 8.972H52.452V8.228H55.416V5.264H56.28V8.972H57.024V9.716H57.768V10.448H58.5V11.336H57.636V10.58H56.892V9.836H56.28V10.58H55.536V11.336H54.804V12.08H52.452V11.336H51.708V8.972ZM54.672 11.192V10.448H55.416V9.092H52.572V11.192H54.672ZM61.86 9.092H61.116V2.288H61.98V8.972H62.724V10.448H64.824V9.716H65.556V8.228H66.432V9.836H65.688V10.58H64.944V11.336H62.592V10.58H61.86V9.092ZM69.264 5.384H68.52V3.908H67.788V2.288H68.652V3.776H69.396V5.264H70.14V7.484H70.872V9.836H70.008V7.616H69.264V5.384Z"></path>
</svg>
