<svg xmlns="http://www.w3.org/2000/svg" fill="none" viewBox="0 0 111 21" height="21" width="111">
<path fill="white" d="M7.00781 2.38281V4.375H15V12.3672H13.0078V6.36719H7.00781V8.38281H4.99219V2.38281H7.00781ZM4.99219 10.375H3V8.38281H4.99219V10.375ZM3 12.3672H0.984375V10.375H3V12.3672ZM13.0078 16.375H10.9922V12.3672H13.0078V16.375ZM10.9922 18.3906H7.00781V16.375H10.9922V18.3906ZM7.00781 20.3828H3V18.3906H7.00781V20.3828ZM27 2.38281H28.9922V18.3906H33V20.3828H27V2.38281ZM39 14.3828V12.3672H41.0156V14.3828H39ZM39 16.375H37.0078V14.3828H39V16.375ZM37.0078 18.3906H33V16.375H37.0078V18.3906ZM61.0078 2.38281V0.390625H63V2.38281H61.0078ZM48.9844 2.38281H52.9922V4.375H48.9844V2.38281ZM57 2.38281H58.9922V4.375H57V2.38281ZM63 4.375V2.38281H65.0156V4.375H63ZM57 4.375V6.36719H52.9922V4.375H57ZM61.0078 4.375V6.36719H58.9922V4.375H61.0078ZM48.9844 8.38281H52.9922V10.375H48.9844V8.38281ZM65.0156 12.3672H63V8.38281H65.0156V12.3672ZM57 10.375V12.3672H52.9922V10.375H57ZM63 14.3828H61.0078V12.3672H63V14.3828ZM61.0078 16.375H58.9922V14.3828H61.0078V16.375ZM58.9922 18.3906H55.0078V16.375H58.9922V18.3906ZM55.0078 20.3828H48.9844V18.3906H55.0078V20.3828ZM75 8.38281H76.9922V14.3828H75V8.38281ZM79.0078 8.38281H81V14.3828H79.0078V8.38281ZM85.0078 16.375V8.38281H87V16.375H85.0078ZM85.0078 18.3906H82.9922V16.375H85.0078V18.3906ZM82.9922 20.3828H76.9922V18.3906H82.9922V20.3828ZM100.992 2.38281V8.38281H103.008V10.375H100.992V20.3828H99V2.38281H100.992ZM103.008 12.3672V10.375H106.992V12.3672H103.008ZM106.992 14.3828V12.3672H111V14.3828H106.992Z"></path>
</svg>
