<svg version="1.1" xmlns="http://www.w3.org/2000/svg" xmlns:xlink="http://www.w3.org/1999/xlink" width="126.072" height="11.28" viewBox="0,0,126.072,11.28"><g transform="translate(-177.244,-174.3)"><g data-paper-data="{&quot;isPaintingLayer&quot;:true}" fill="#ffffff" fill-rule="nonzero" stroke="none" stroke-width="1" stroke-linecap="butt" stroke-linejoin="miter" stroke-miterlimit="10" stroke-dasharray="" stroke-dashoffset="0" style="mix-blend-mode: normal"><path d="M180.22,180.372h-0.744v-0.744h-1.344v0.744h-0.888v-0.876h0.756v-0.732h1.476v-1.356h-0.732v-2.352h0.864v2.22h0.744v0.744h1.356v-0.744h1.476v-1.356h-0.744v-1.608h0.876v1.476h0.744v1.488h2.22v0.744h0.744v0.744h0.732v2.352h-0.732v0.744h-1.488v0.732h-3.096v-0.864h2.964v-0.744h1.488v-2.1h-0.744v-0.732h-4.32v0.732h-1.476v1.356h0.744v2.976h0.732v2.364h-0.864v-2.244h-0.744zM192.208,183.948h3.708v-0.732h1.476v-0.744h0.744v-2.1h-0.744v-0.744h-5.052v0.744h-2.352v-0.876h2.22v-0.732h5.316v0.732h0.744v0.744h0.744v2.352h-0.744v0.744h-0.744v0.744h-1.476v0.756h-3.84zM203.104,182.472h0.744v-0.744h3.708v-3.576h-4.452v-0.876h4.452v-2.22h0.864v2.22h1.356v-0.612h-0.744v-1.608h0.744v-0.744h1.608v0.744h0.744v1.608h-0.744v0.744h-0.732v0.744h-2.232v4.32h0.744v0.744h0.744v0.732h0.744v0.888h-0.876v-0.756h-0.744v-0.744h-0.612v0.744h-0.732v0.756h-3.84v-0.756h-0.744zM200.872,176.532h0.756v-1.476h0.864v1.608h-0.732v8.172h-0.888zM211.252,176.532v-1.356h-1.344v1.356zM207.556,183.948v-1.356h-3.576v1.356zM218.056,184.692v-0.744h2.232v-0.732h0.732v-1.488h0.744v-4.32h-0.744v-1.488h-2.832v0.744h-0.744v0.744h-0.732v1.476h-0.744v1.488h-0.744v1.488h-0.864v-5.328h0.732v-1.476h0.876v1.608h-0.744v2.1h0.612v-1.488h0.744v-0.744h0.744v-0.744h0.732v-0.732h3.096v0.732h0.744v1.488h0.744v4.584h-0.744v1.476h-0.744v0.744h-0.744v0.756h-2.22v0.744h-3.096v-0.888zM225.628,184.68v-1.476h0.744v-2.232h0.732v-6.672h0.876v3.708h0.612v-1.488h0.864v1.62h-0.732v0.732h-0.744v2.1h0.744v0.744h0.612v-0.744h1.476v-1.356h-1.476v-0.864h1.476v-1.488h0.876v1.488h0.612v-2.1h-2.232v-0.876h2.232v-1.476h0.864v1.476h2.22v0.876h-2.22v2.1h0.612v-1.488h0.876v1.488h1.476v0.864h-1.476v1.356h1.476v0.876h-2.22v2.832h1.344v-1.476h0.876v2.364h-2.352v-0.744h-0.744v-2.976h-0.612v0.732h-0.732v1.488h-0.744v0.756h-0.744v0.744h-1.608v-0.888h1.476v-0.744h0.744v-1.476h0.744v-0.612h-2.1v1.476h-0.864v-1.476h-0.744v-0.744h-0.612v2.22h-0.744v1.5h-0.732v0.744h-0.888v-0.888zM224.872,178.752h0.756v-2.232h0.864v2.352h-0.732v1.488h-0.888zM233.776,180.972v-1.356h-2.088v1.356zM237.616,176.52h4.44v-2.22h0.876v2.22h4.44v8.304h-0.732v0.744h-2.352v-0.888h2.22v-7.284h-3.576v0.612h0.744v0.744h1.476v0.732h0.744v0.876h-0.876v-0.744h-1.476v-0.744h-0.744v-0.732h-0.612v0.732h-0.744v0.744h-0.732v0.744h-1.62v-0.876h1.488v-0.732h0.744v-0.744h0.732v-0.612h-3.576v8.172h-0.864zM239.092,182.46h1.488v-0.744h0.744v-0.744h0.732v-1.488h0.876v1.488h0.744v0.744h1.476v0.744h0.744v0.864h-0.876v-0.744h-1.476v-0.732h-0.744v-0.744h-0.612v0.744h-0.744v0.732h-0.732v0.744h-1.62zM251.836,182.472h0.744v-0.744h3.708v-3.576h-4.452v-0.876h4.452v-2.22h0.864v2.22h2.22v0.876h-2.22v4.32h0.744v0.744h0.744v0.732h0.732v0.888h-0.864v-0.756h-0.744v-0.744h-0.612v0.744h-0.744v0.756h-3.828v-0.756h-0.744zM249.616,176.532h0.744v-1.476h0.864v1.608h-0.744v8.172h-0.864zM256.288,183.948v-1.356h-3.576v1.356zM263.104,175.044h6.804v3.828h-6.804zM269.032,176.52v-0.612h-5.052v0.612zM269.032,178.008v-0.612h-5.052v0.612zM262.372,184.68v-4.32h-1.5v-0.876h11.256v0.876h-5.928v5.208h-0.864v-0.744h-2.844v0.744h-1.62v-0.888zM265.336,180.972v-0.612h-2.1v0.612zM268.3,184.68v-1.356h-0.744v-1.476h-0.744v-0.876h4.572v1.608h-0.732v0.744h-0.744v0.612h0.744v0.744h1.476v0.888h-1.608v-0.744h-0.744v-0.756h-0.612v0.756h-0.744v0.744h-1.608v-0.888zM269.776,183.204v-0.744h0.744v-0.612h-2.1v1.356zM265.336,182.46v-0.612h-2.1v0.612zM265.336,183.936v-0.612h-2.1v0.612zM272.872,175.776h5.196v-1.476h0.876v1.476h5.184v0.876h-11.256zM275.104,177.264h6.804v2.352h-6.804zM281.032,178.752v-0.612h-5.052v0.612zM273.628,180.228h9.756v4.596h-0.732v0.744h-2.352v-0.888h2.22v-3.576h-8.028v4.464h-0.864zM275.848,181.716h5.316v2.352h-5.316zM280.3,183.204v-0.624h-3.576v0.624zM285.244,183.216h0.744v-2.232h0.732v-2.964h0.744v-0.612h-2.22v-0.876h2.22v-2.22h0.876v2.22h2.964v0.876h-2.964v0.744h-0.744v2.964h-0.744v2.22h-0.744v1.5h-0.864zM294.136,175.176h-0.744v-0.864h0.876v0.744h0.732v0.732h0.744v0.876h-0.876v-0.744h-0.732zM292.648,175.92h-0.732v-0.864h0.864v0.732h0.744v0.744h0.744v0.876h-0.876v-0.744h-0.744zM289.684,178.764h5.316v0.864h-5.316zM288.952,182.472h0.732v-0.744h0.876v0.864h-0.744v1.356h5.184v0.888h-5.316v-0.756h-0.732zM302.44,175.056h0.876v7.536h-0.876zM301.696,183.216h1.62v1.62h-1.62z"/></g></g></svg>