<svg xmlns="http://www.w3.org/2000/svg" fill="none" viewBox="0 0 794 159" height="159" width="794">
<path fill="black" d="M0.968 14.656H4.904V12.704H8.872V10.72H12.808V8.736H16.776V6.752H20.712V4.768H25.032V7.104H21.064V9.088H17.128V11.072H13.16V13.024H9.224V15.008H5.256V18.624H9.224V20.608H13.16V22.592H17.128V24.576H21.064V26.528H25.032V28.896H20.712V26.88H16.776V24.896H12.808V22.912H8.872V20.96H4.904V18.976H0.968V14.656ZM47.784 16.64H49.768V14.656H51.72V12.704H53.704V8.736H55.688V5.12H31.976V2.816H57.992V9.088H56.04V13.024H54.056V15.008H52.072V16.992H50.088V18.976H47.784V16.64ZM31.976 26.528H35.912V24.576H37.896V22.592H39.88V18.624H41.864V8.736H44.168V18.976H42.184V22.912H40.232V24.896H38.248V26.88H36.264V28.896H31.976V26.528ZM65.96 0.831999H68.296V10.72H72.232V12.704H78.184V14.656H82.12V16.64H86.088V18.976H81.768V16.992H77.832V15.008H71.912V13.024H68.296V30.88H65.96V0.831999ZM83.752 3.136H81.768V0.831999H84.104V2.816H86.088V4.768H88.04V7.104H85.736V5.12H83.752V3.136ZM81.768 7.104H79.816V5.12H77.832V2.816H80.136V4.768H82.12V6.752H84.104V9.088H81.768V7.104ZM115.752 2.816H117.736V0.831999H120.072V2.816H122.024V4.768H124.008V7.104H122.024V9.088H119.72V7.104H117.736V5.12H115.752V2.816ZM119.72 4.768V3.136H118.088V4.768H119.72ZM93.992 26.528H96.008V22.592H97.992V18.624H99.944V12.704H101.928V4.768H104.264V13.024H102.28V18.976H100.296V22.912H98.312V26.88H96.36V28.896H93.992V26.528ZM117.736 16.992H115.752V13.024H113.8V9.088H111.816V4.768H114.12V8.736H116.104V12.704H118.088V16.64H120.072V22.592H122.024V26.88H119.72V22.912H117.736V16.992ZM121.672 6.752V5.12H120.072V6.752H121.672ZM127.944 18.624H131.944V16.64H135.88V14.656H139.848V12.704H141.8V10.72H143.784V8.736H145.768V6.752H147.752V4.768H149.704V2.816H151.688V0.831999H154.024V3.136H152.04V5.12H150.056V7.104H148.072V9.088H146.12V30.88H143.784V13.024H142.152V15.008H140.168V16.992H136.232V18.976H132.264V20.96H127.944V18.624ZM158.984 26.528H162.984V24.576H166.92V22.592H170.888V20.608H172.84V18.624H174.824V14.656H176.808V10.72H178.792V7.104H161V4.768H181.096V11.072H179.112V15.008H177.16V18.624H179.112V20.608H181.096V22.592H183.08V24.576H185.064V26.528H187.016V28.896H184.712V26.88H182.728V24.896H180.744V22.912H178.792V20.96H176.808V18.976H175.176V20.96H173.192V22.912H171.208V24.896H167.272V26.88H163.304V28.896H158.984V26.528ZM192.968 26.528H196.904V24.576H200.872V22.592H204.808V20.608H208.776V18.624H212.712V15.008H208.776V13.024H204.808V11.072H200.872V9.088H196.904V7.104H192.968V4.768H197.256V6.752H201.224V8.736H205.16V10.72H209.128V12.704H213.064V14.656H217.032V18.976H213.064V20.96H209.128V22.912H205.16V24.896H201.224V26.88H197.256V28.896H192.968V26.528ZM33.96 36.736H41.864V34.784H43.816V32.8H46.152V35.104H44.168V36.736H56.04V62.848H53.704V60.864H36.264V62.848H33.96V36.736ZM53.704 44.672V39.072H36.264V44.672H53.704ZM53.704 50.592V46.976H36.264V50.592H53.704ZM53.704 58.496V52.928H36.264V58.496H53.704ZM64.968 38.72H74.856V32.8H77.16V38.72H89.032V62.848H86.696V60.864H67.272V62.848H64.968V38.72ZM86.696 48.608V41.056H77.16V48.608H86.696ZM74.856 48.608V41.056H67.272V48.608H74.856ZM86.696 58.496V50.944H77.16V58.496H86.696ZM74.856 58.496V50.944H67.272V58.496H74.856ZM94.984 54.592H96.968V50.624H98.92V46.656H100.904V42.72H102.888V41.088H94.984V38.752H102.888V36.768H104.872V32.832H107.176V37.12H105.192V38.752H111.144V41.088H105.192V43.072H103.24V47.008H101.256V50.976H99.272V54.912H97.288V56.896H94.984V54.592ZM112.776 38.752H121V40.736H122.984V43.072H120.648V41.088H112.776V38.752ZM102.888 54.592H104.872V52.608H112.776V44.704H115.08V54.592H117.064V56.576H119.048V58.528H121V60.896H118.696V58.88H116.712V56.896H115.08V58.88H113.096V60.896H111.144V62.88H104.872V60.896H102.888V54.592ZM110.792 60.512V58.528H112.776V54.912H105.192V60.512H110.792ZM131.944 60.48V58.496H135.912V54.88H128.008V52.576H135.912V48.96H131.944V46.976H130.312V48.96H125.992V46.624H129.992V44.672H133.928V43.04H131.944V41.056H129.992V38.72H132.296V40.704H134.28V42.688H135.912V40.704H137.896V38.72H139.848V37.088H128.008V34.784H142.184V38.72H143.816V36.736H145.8V34.784H147.752V32.8H150.088V35.104H148.104V37.088H146.12V39.072H144.168V40.704H146.12V42.688H147.752V40.704H149.736V38.72H151.72V36.736H154.024V39.072H152.072V41.056H150.088V43.04H148.104V44.672H150.088V46.624H156.008V48.96H149.736V46.976H148.104V48.96H146.12V52.576H154.024V54.88H146.12V60.48H151.72V56.544H154.024V60.864H152.072V62.848H145.8V60.864H143.816V54.88H138.216V58.848H136.264V60.864H132.296V62.848H125.992V60.48H131.944ZM147.752 46.624V44.992H145.8V43.04H143.816V41.056H141.832V39.072H140.2V41.056H138.216V43.04H136.264V44.992H134.28V46.624H147.752ZM143.816 52.576V48.96H138.216V52.576H143.816ZM157.992 46.624H160.008V44.672H161.992V40.704H163.944V39.072H157.992V36.736H165.928V32.8H168.264V36.736H172.2V39.072H168.264V40.704H170.216V42.688H172.2V46.976H169.896V43.04H168.264V50.944H165.928V41.056H164.296V44.992H162.312V46.976H160.36V48.96H157.992V46.624ZM171.848 50.592H173.832V34.784H186.024V50.944H174.184V52.576H176.168V54.56H178.12V56.864H175.816V54.88H173.832V52.928H171.848V50.592ZM183.72 38.72V37.088H176.168V38.72H183.72ZM183.72 42.688V41.056H176.168V42.688H183.72ZM183.72 48.608V44.992H176.168V48.608H183.72ZM167.912 52.576H170.216V60.48H179.752V56.544H182.088V60.864H180.104V62.848H169.896V60.864H167.912V52.576ZM157.992 58.496H160.008V56.544H161.992V52.576H164.296V56.864H162.312V58.848H160.36V60.864H157.992V58.496ZM181.736 52.576H184.072V54.56H186.024V56.544H188.008V60.864H185.672V56.864H183.72V54.88H181.736V52.576ZM191.976 52.608H193.96V48.64H195.912V46.656H197.896V42.72H199.88V41.088H191.976V38.752H201.864V32.832H204.168V38.752H214.056V41.088H202.184V42.72H206.152V44.704H208.136V48.64H209.768V46.656H213.704V44.704H217.992V47.008H214.056V48.992H210.088V50.976H208.136V58.88H205.8V52.96H202.184V54.912H200.232V60.512H216.04V62.88H199.88V60.896H197.896V54.592H199.88V52.608H201.864V50.624H205.8V45.024H200.232V47.008H198.248V48.992H196.264V52.96H194.28V54.912H191.976V52.608ZM225.992 60.48V58.496H227.944V56.544H229.928V54.56H231.912V50.592H233.896V46.624H235.848V44.992H221.992V42.688H235.848V32.8H238.184V42.688H252.008V44.992H238.184V46.624H240.168V50.592H242.12V54.56H244.104V56.544H246.088V58.496H248.072V60.48H252.008V62.848H247.72V60.864H245.736V58.848H243.752V56.864H241.8V54.88H239.816V50.944H237.832V46.976H236.2V50.944H234.216V54.88H232.264V56.864H230.28V58.848H228.296V60.864H226.312V62.848H221.992V60.48H225.992ZM258.984 46.976H254.984V44.672H258.984V32.8H261.288V42.688H264.904V40.704H269.192V43.04H265.256V44.992H261.288V56.544H266.888V50.592H269.192V56.864H267.208V58.848H260.936V56.864H258.984V46.976ZM268.84 60.48V58.496H270.824V54.56H272.808V39.072H268.84V36.736H283.016V58.848H281.064V60.864H276.744V58.496H280.712V39.072H275.112V54.88H273.16V58.848H271.176V60.864H269.192V62.848H266.888V60.48H268.84ZM288.968 40.736H290.952V34.816H293.256V41.088H291.272V60.896H288.968V40.736ZM296.872 38.752H313.032V41.088H296.872V38.752ZM296.872 52.608H299.176V56.576H301.16V58.528H313.032V60.896H300.808V58.88H298.856V56.896H296.872V52.608ZM320.968 34.816H323.272V56.576H325.256V58.528H334.792V56.576H338.728V54.592H340.712V52.608H342.696V50.624H345V52.96H343.048V54.912H341.064V56.896H339.08V58.88H335.144V60.896H324.904V58.88H322.92V56.896H320.968V34.816ZM356.936 58.528H366.824V56.576H372.744V54.592H374.728V52.608H376.712V45.024H374.728V43.072H372.744V41.088H359.272V43.072H350.984V40.736H358.92V38.752H373.096V40.736H375.08V42.72H377.064V44.704H379.016V52.96H377.064V54.912H375.08V56.896H373.096V58.88H367.176V60.896H356.936V58.528ZM388.936 58.528H398.824V56.576H404.744V54.592H406.728V52.608H408.712V45.024H406.728V43.072H404.744V41.088H391.272V43.072H382.984V40.736H390.92V38.752H405.096V40.736H407.08V42.72H409.064V44.704H411.016V52.96H409.064V54.912H407.08V56.896H405.096V58.88H399.176V60.896H388.936V58.528ZM420.936 48.992H414.984V46.656H420.936V41.088H417V38.752H422.92V32.832H425.256V38.752H433.16V41.088H423.272V46.656H433.16V48.992H423.272V58.528H425.256V60.512H436.744V58.528H438.728V56.576H440.712V48.992H438.728V45.024H436.744V42.72H439.08V44.704H441.064V48.64H443.016V56.896H441.064V58.88H439.08V60.896H437.096V62.88H424.904V60.896H422.92V58.88H420.936V48.992ZM447.016 54.592H449.32V56.576H451.304V58.528H453.288V62.88H450.952V60.896H449V58.88H447.016V54.592ZM480.008 36.736H491.848V32.8H494.184V36.736H506.024V43.04H503.72V39.072H482.312V43.04H480.008V36.736ZM483.944 60.48V58.496H487.912V56.544H489.896V54.88H480.008V52.576H491.848V50.944H483.944V48.608H491.848V46.976H481.992V44.672H491.848V40.704H494.184V44.672H504.072V46.976H494.184V48.608H502.088V50.944H494.184V52.576H506.024V54.88H496.168V56.544H498.12V58.496H502.088V60.48H508.008V62.848H501.736V60.864H497.8V58.848H495.816V56.864H493.832V54.88H492.2V56.864H490.216V58.848H488.264V60.864H484.296V62.848H477.992V60.48H483.944ZM509.992 40.704H513.992V38.72H515.944V34.784H517.928V32.8H520.264V35.104H518.28V39.072H516.296V41.056H514.312V43.04H509.992V40.704ZM523.848 34.784H538.024V37.088H523.848V34.784ZM515.944 48.96H514.312V50.944H509.992V48.608H513.992V46.624H515.944V44.672H517.928V42.688H519.912V40.704H522.216V42.688H540.008V44.992H534.088V60.864H532.104V62.848H525.832V60.48H531.752V44.992H521.896V43.04H520.264V44.992H518.28V62.848H515.944V48.96ZM563.752 60.48V37.088H541.992V34.784H572.008V37.088H566.088V60.864H564.104V62.848H555.848V60.48H563.752ZM545.992 42.688H558.184V52.928H548.296V56.864H545.992V42.688ZM555.848 50.592V44.992H548.296V50.592H555.848ZM591.816 32.8H594.12V36.736H597.736V34.784H602.024V37.088H598.088V39.072H594.12V44.672H601.672V40.704H604.008V44.992H602.024V46.976H593.8V44.992H591.816V32.8ZM573.992 40.704H576.008V36.736H577.992V32.8H580.296V37.088H578.312V40.704H581.928V38.72H583.912V34.784H586.216V38.72H588.2V43.04H585.896V41.056H582.28V43.04H573.992V40.704ZM576.008 44.672H588.2V60.864H586.216V62.848H581.928V60.48H585.896V54.88H578.312V62.848H576.008V44.672ZM585.896 48.608V46.976H578.312V48.608H585.896ZM591.816 48.608H594.12V52.576H597.736V50.592H602.024V52.928H598.088V54.88H594.12V60.48H601.672V56.544H604.008V60.864H602.024V62.848H593.8V60.864H591.816V48.608ZM585.896 52.576V50.944H578.312V52.576H585.896ZM606.984 54.592H608.968V50.624H610.92V46.656H612.904V42.72H614.888V41.088H606.984V38.752H614.888V36.768H616.872V32.832H619.176V37.12H617.192V38.752H623.144V41.088H617.192V43.072H615.24V47.008H613.256V50.976H611.272V54.912H609.288V56.896H606.984V54.592ZM624.776 38.752H633V40.736H634.984V43.072H632.648V41.088H624.776V38.752ZM614.888 54.592H616.872V52.608H624.776V44.704H627.08V54.592H629.064V56.576H631.048V58.528H633V60.896H630.696V58.88H628.712V56.896H627.08V58.88H625.096V60.896H623.144V62.88H616.872V60.896H614.888V54.592ZM622.792 60.512V58.528H624.776V54.912H617.192V60.512H622.792ZM651.848 44.672H657.8V32.8H660.104V44.672H668.008V46.976H660.104V62.848H657.8V46.976H651.848V44.672ZM640.008 34.784H650.216V37.088H640.008V34.784ZM637.992 40.704H652.2V43.04H637.992V40.704ZM640.008 44.672H650.216V46.976H640.008V44.672ZM640.008 48.608H650.216V50.944H640.008V48.608ZM640.008 52.576H650.216V60.864H642.312V62.848H640.008V52.576ZM647.912 58.496V54.88H642.312V58.496H647.912ZM675.944 38.72H683.848V35.104H669.992V32.8H700.008V35.104H686.184V38.72H694.088V54.88H675.944V38.72ZM669.992 40.704H672.36V58.496H697.672V40.704H700.008V62.848H697.672V60.864H672.36V62.848H669.992V40.704ZM683.848 44.672V41.056H678.28V44.672H683.848ZM691.752 44.672V41.056H686.184V44.672H691.752ZM683.848 52.576V46.976H678.28V52.576H683.848ZM691.752 52.576V46.976H686.184V52.576H691.752ZM703.976 52.608H705.96V48.64H707.912V46.656H709.896V42.72H711.88V41.088H703.976V38.752H713.864V32.832H716.168V38.752H726.056V41.088H714.184V42.72H718.152V44.704H720.136V48.64H721.768V46.656H725.704V44.704H729.992V47.008H726.056V48.992H722.088V50.976H720.136V58.88H717.8V52.96H714.184V54.912H712.232V60.512H728.04V62.88H711.88V60.896H709.896V54.592H711.88V52.608H713.864V50.624H717.8V45.024H712.232V47.008H710.248V48.992H708.264V52.96H706.28V54.912H703.976V52.608ZM32.008 70.72H43.848V64.8H46.184V70.72H58.024V73.056H32.008V70.72ZM29.992 90.496H45.832V88.544H47.816V84.576H49.8V80.608H51.752V74.688H54.088V80.96H52.104V84.928H50.12V88.864H48.168V90.496H60.008V92.864H29.992V90.496ZM39.912 84.928H37.928V80.96H35.944V76.672H38.28V80.608H40.264V84.576H42.216V88.864H39.912V84.928ZM70.92 78.656H72.904V76.704H74.888V74.72H76.84V72.736H78.824V71.104H62.984V68.768H91.016V71.104H83.112V73.088H79.176V75.072H77.192V77.024H75.208V79.008H73.256V86.592H75.208V88.576H77.192V90.528H87.08V92.896H76.84V90.88H72.904V86.912H70.92V78.656ZM98.952 86.592H100.904V84.608H107.176V86.592H109.16V90.528H114.76V88.576H116.712V86.592H118.696V82.976H116.712V80.992H103.24V82.976H99.272V84.96H96.968V82.624H98.952V80.64H102.888V78.656H104.872V76.704H106.856V74.72H110.792V72.736H112.776V71.104H98.952V68.768H117.064V71.104H115.08V73.088H113.128V75.072H111.144V77.024H107.176V78.656H117.064V80.64H119.048V82.624H121.032V86.912H119.048V90.88H115.08V92.896H100.904V90.88H98.952V86.592ZM106.856 90.528V86.912H101.256V90.528H106.856ZM130.952 68.768H151.048V71.104H130.952V68.768ZM128.968 84.608H130.952V82.624H133.256V84.96H131.272V88.576H135.24V90.528H150.696V88.576H153.032V90.88H151.048V92.896H134.888V90.88H130.952V88.896H128.968V84.608ZM160.968 82.624H162.952V80.64H164.904V78.656H168.872V64.832H171.176V76.704H174.792V74.72H185.032V77.024H175.144V79.008H169.224V80.992H165.256V82.976H163.272V88.576H167.24V90.528H185.032V92.896H166.888V90.88H162.952V88.896H160.968V82.624ZM190.984 88.576H192.968V84.608H194.92V78.656H196.904V75.072H190.984V72.736H198.888V64.832H201.192V72.736H207.144V74.72H209.096V86.912H207.144V90.88H205.16V92.896H196.904V90.528H204.808V86.592H206.792V75.072H199.24V79.008H197.256V84.96H195.272V88.896H193.288V92.896H190.984V88.576ZM212.712 69.12H210.728V66.816H212.712V64.832H215.048V66.816H217V68.768H218.984V71.104H217V73.088H214.696V71.104H212.712V69.12ZM214.696 68.768V67.136H213.064V68.768H214.696ZM216.648 70.752V69.12H215.048V70.752H216.648ZM208.776 70.752H211.08V72.736H213.064V74.72H215.048V76.704H217V80.64H218.984V82.976H216.648V80.992H214.696V77.024H212.712V75.072H210.728V73.088H208.776V70.752ZM235.848 92.48V90.848H224.008V88.544H235.848V86.88H225.992V74.688H235.848V73.056H221.992V70.72H235.848V69.088H225.992V66.784H241.8V64.8H248.072V67.104H242.12V69.088H238.184V70.72H252.008V73.056H238.184V74.688H248.072V86.88H238.184V88.544H250.024V90.848H238.184V92.48H252.008V94.848H221.992V92.48H235.848ZM235.848 78.624V76.992H228.296V78.624H235.848ZM245.736 78.624V76.992H238.184V78.624H245.736ZM235.848 84.576V80.96H228.296V84.576H235.848ZM245.736 84.576V80.96H238.184V84.576H245.736ZM261.928 92.48V90.496H265.896V88.864H257.992V86.56H259.944V84.928H253.992V82.592H265.896V78.976H256.008V70.72H263.912V67.104H253.992V64.8H284.008V67.104H274.12V70.72H282.024V78.976H268.2V82.592H284.008V84.928H278.088V86.88H276.104V88.864H272.168V90.496H278.088V92.48H282.024V94.848H277.736V92.864H271.816V90.848H266.216V92.864H262.28V94.848H253.992V92.48H261.928ZM271.816 70.72V67.104H266.216V70.72H271.816ZM279.72 76.672V73.056H274.12V76.672H279.72ZM263.912 76.672V73.056H258.312V76.672H263.912ZM271.816 76.672V73.056H266.216V76.672H271.816ZM266.216 86.56V88.544H271.816V86.56H275.752V84.928H262.28V86.56H266.216ZM293.928 78.656H295.912V76.704H297.896V74.72H299.848V72.736H301.832V71.104H285.992V68.768H314.024V71.104H306.12V73.088H302.184V75.072H300.2V77.024H298.216V79.008H296.264V86.592H298.216V88.576H300.2V90.528H310.088V92.896H299.848V90.88H295.912V86.912H293.928V78.656ZM309.736 72.736H312.072V74.72H314.024V76.704H316.008V79.008H313.672V77.024H311.72V75.072H309.736V72.736ZM305.8 74.72H308.104V76.704H310.088V78.656H312.072V80.992H309.736V79.008H307.752V77.024H305.8V74.72ZM330.888 92.512V90.528H332.84V88.576H334.824V84.96H333.192V86.912H326.92V84.96H324.936V78.656H326.92V76.704H333.192V78.656H334.824V73.088H318.984V70.752H334.824V64.832H337.16V70.752H347.016V73.088H337.16V88.896H335.176V90.88H333.192V92.896H331.208V94.88H326.92V92.512H330.888ZM332.84 84.608V82.624H334.824V80.992H332.84V79.008H327.272V84.608H332.84ZM351.016 86.592H353V84.608H359.272V86.592H361.224V92.896H359.272V94.88H353V92.896H351.016V86.592ZM358.92 92.512V86.912H353.32V92.512H358.92ZM385.96 68.736H393.864V66.784H395.816V64.8H398.152V67.104H396.168V68.736H408.04V94.848H405.704V92.864H388.264V94.848H385.96V68.736ZM405.704 76.672V71.072H388.264V76.672H405.704ZM405.704 82.592V78.976H388.264V82.592H405.704ZM405.704 90.496V84.928H388.264V90.496H405.704ZM416.968 70.72H426.856V64.8H429.16V70.72H441.032V94.848H438.696V92.864H419.272V94.848H416.968V70.72ZM438.696 80.608V73.056H429.16V80.608H438.696ZM426.856 80.608V73.056H419.272V80.608H426.856ZM438.696 90.496V82.944H429.16V90.496H438.696ZM426.856 90.496V82.944H419.272V90.496H426.856ZM458.888 92.512V90.528H460.84V88.576H462.824V84.96H461.192V86.912H454.92V84.96H452.936V78.656H454.92V76.704H461.192V78.656H462.824V73.088H446.984V70.752H462.824V64.832H465.16V70.752H475.016V73.088H465.16V88.896H463.176V90.88H461.192V92.896H459.208V94.88H454.92V92.512H458.888ZM460.84 84.608V82.624H462.824V80.992H460.84V79.008H455.272V84.608H460.84ZM480.968 84.608H482.92V82.624H496.776V80.992H494.792V79.008H478.984V76.704H492.808V75.072H490.824V73.088H478.984V70.752H488.872V69.12H486.888V64.832H489.192V68.768H491.176V70.752H498.728V69.12H496.776V66.816H499.08V68.768H501.064V70.752H503.048V73.088H500.712V71.104H499.08V73.088H493.16V74.72H495.144V76.704H496.776V74.72H503.048V77.024H497.096V80.64H499.08V82.624H501.064V84.608H503.048V86.912H498.728V84.96H483.272V90.528H501.064V92.896H482.92V90.88H480.968V84.608ZM502.696 67.136H500.712V64.832H503.048V66.816H505V68.768H506.984V71.104H504.648V69.12H502.696V67.136ZM514.952 86.592H516.904V84.608H523.176V86.592H525.16V90.528H530.76V88.576H532.712V86.592H534.696V82.976H532.712V80.992H519.24V82.976H515.272V84.96H512.968V82.624H514.952V80.64H518.888V78.656H520.872V76.704H522.856V74.72H526.792V72.736H528.776V71.104H514.952V68.768H533.064V71.104H531.08V73.088H529.128V75.072H527.144V77.024H523.176V78.656H533.064V80.64H535.048V82.624H537.032V86.912H535.048V90.88H531.08V92.896H516.904V90.88H514.952V86.592ZM522.856 90.528V86.912H517.256V90.528H522.856ZM544.968 82.624H546.952V80.64H548.904V78.656H552.872V64.832H555.176V76.704H558.792V74.72H569.032V77.024H559.144V79.008H553.224V80.992H549.256V82.976H547.272V88.576H551.24V90.528H569.032V92.896H550.888V90.88H546.952V88.896H544.968V82.624ZM574.984 90.496H577V84.576H578.984V66.784H603.016V92.864H601.064V94.848H594.792V92.48H600.712V69.088H581.288V78.624H588.84V75.04H582.92V72.704H588.84V70.72H591.176V72.704H597.096V75.04H591.176V78.624H599.08V80.96H581.288V84.928H579.304V90.848H577.352V94.848H574.984V90.496ZM584.904 82.592H597.096V90.848H584.904V82.592ZM594.792 88.544V84.928H587.208V88.544H594.792ZM607.976 66.784H633.992V94.848H631.688V92.864H610.28V94.848H607.976V66.784ZM631.688 90.496V69.088H610.28V90.496H631.688ZM611.912 86.56H613.896V84.576H615.88V82.944H611.912V80.608H615.88V76.992H611.912V74.688H615.88V70.72H618.184V74.688H621.8V70.72H624.136V74.688H628.072V76.992H624.136V80.608H630.056V82.944H624.136V88.864H621.8V82.944H618.184V84.928H616.232V86.88H614.248V88.864H611.912V86.56ZM621.8 80.608V76.992H618.184V80.608H621.8ZM640.968 82.624H642.952V80.64H644.904V78.656H648.872V64.832H651.176V76.704H654.792V74.72H665.032V77.024H655.144V79.008H649.224V80.992H645.256V82.976H643.272V88.576H647.24V90.528H665.032V92.896H646.888V90.88H642.952V88.896H640.968V82.624ZM673 88.896H670.984V78.656H673V74.72H674.984V72.736H676.936V70.752H680.904V68.768H691.112V70.752H695.08V72.736H697.064V76.704H699.016V86.912H697.064V90.88H695.08V92.896H691.112V94.88H684.84V92.512H690.792V90.528H694.728V86.592H696.712V77.024H694.728V73.088H690.792V71.104H687.176V77.024H685.192V82.976H683.208V86.912H681.256V90.88H679.272V92.896H674.984V90.88H673V88.896ZM675.304 88.576V90.528H678.92V86.592H680.904V82.624H682.888V76.704H684.84V71.104H681.256V73.088H677.288V75.072H675.304V79.008H673.352V88.576H675.304ZM33 116.576H41.256V122.496H42.888V98.784H59.016V124.864H57.064V126.848H52.744V124.48H56.712V110.976H45.192V122.848H43.208V126.848H40.904V124.864H35.304V126.848H33V116.576ZM33 98.784H41.256V101.088H33V98.784ZM56.712 104.704V101.088H51.112V104.704H56.712ZM48.808 104.704V101.088H45.192V104.704H48.808ZM30.984 104.704H41.256V107.04H30.984V104.704ZM56.712 108.672V107.04H51.112V108.672H56.712ZM48.808 108.672V107.04H45.192V108.672H48.808ZM33 108.672H41.256V110.976H33V108.672ZM46.824 112.608H55.08V120.864H46.824V112.608ZM33 112.608H41.256V114.944H33V112.608ZM52.744 118.56V114.944H49.16V118.56H52.744ZM38.92 122.496V118.88H35.304V122.496H38.92ZM62.984 116.576H65V114.592H66.984V110.624H68.936V108.992H62.984V106.688H70.92V101.088H65V98.784H72.904V96.8H77.192V99.104H73.256V106.688H79.176V108.992H73.256V110.624H75.208V112.608H77.192V114.592H79.176V116.928H76.84V114.944H74.888V112.96H73.256V126.848H70.92V110.976H69.288V114.944H67.304V116.928H65.352V120.864H62.984V116.576ZM80.808 100.736H91.016V124.864H88.712V120.864H83.112V124.864H80.808V100.736ZM88.712 118.56V103.072H83.112V118.56H88.712ZM94.984 120.576H96.968V116.608H98.92V110.656H100.904V107.072H94.984V104.736H102.888V96.832H105.192V104.736H111.144V106.72H113.096V118.912H111.144V122.88H109.16V124.896H100.904V122.528H108.808V118.592H110.792V107.072H103.24V111.008H101.256V116.96H99.272V120.896H97.288V124.896H94.984V120.576ZM116.712 101.12H114.728V98.816H116.712V96.832H119.048V98.816H121V100.768H122.984V103.104H121V105.088H118.696V103.104H116.712V101.12ZM118.696 100.768V99.136H117.064V100.768H118.696ZM120.648 102.752V101.12H119.048V102.752H120.648ZM112.776 102.752H115.08V104.736H117.064V106.72H119.048V108.704H121V112.64H122.984V114.976H120.648V112.992H118.696V109.024H116.712V107.072H114.728V105.088H112.776V102.752ZM125.992 118.56H129.992V101.088H125.992V98.784H142.184V100.736H154.024V108.992H152.072V114.944H150.088V120.544H152.072V124.48H156.008V126.848H151.72V124.864H149.736V120.864H147.752V118.88H146.12V122.848H144.168V124.864H142.184V126.848H137.896V118.88H134.28V120.864H125.992V118.56ZM141.832 124.48V122.496H143.816V118.56H145.8V114.944H143.816V108.992H141.832V104.704H144.168V108.672H146.12V114.592H149.736V108.672H151.72V103.072H141.832V101.088H140.2V124.48H141.832ZM137.896 104.704V101.088H132.296V104.704H137.896ZM137.896 110.624V107.04H132.296V110.624H137.896ZM133.928 118.56V116.576H137.896V112.96H132.296V118.56H133.928ZM157.992 120.576H160.008V116.608H161.992V112.64H163.944V107.072H157.992V104.736H163.944V96.832H166.28V110.656H167.912V108.704H169.896V106.72H171.848V104.736H173.832V102.752H180.104V104.736H182.088V114.976H180.104V122.528H185.672V120.576H188.008V122.88H186.024V124.896H179.752V122.88H177.8V114.624H179.752V105.088H174.184V107.072H172.2V109.024H170.216V111.008H168.264V112.992H166.28V126.88H163.944V116.96H162.312V120.896H160.36V124.896H157.992V120.576ZM190.984 118.592H192.968V114.624H194.92V110.656H196.904V106.72H198.888V105.088H190.984V102.752H198.888V100.768H200.872V96.832H203.176V101.12H201.192V102.752H207.144V105.088H201.192V107.072H199.24V111.008H197.256V114.976H195.272V118.912H193.288V120.896H190.984V118.592ZM208.776 102.752H217V104.736H218.984V107.072H216.648V105.088H208.776V102.752ZM198.888 118.592H200.872V116.608H208.776V108.704H211.08V118.592H213.064V120.576H215.048V122.528H217V124.896H214.696V122.88H212.712V120.896H211.08V122.88H209.096V124.896H207.144V126.88H200.872V124.896H198.888V118.592ZM206.792 124.512V122.528H208.776V118.912H201.192V124.512H206.792ZM225.96 118.912H223.976V100.768H226.28V118.592H228.264V122.528H233.864V120.576H235.816V116.608H238.152V120.896H236.168V122.88H234.184V124.896H227.912V122.88H225.96V118.912ZM245.704 109.024H243.72V105.088H241.768V100.768H244.072V104.736H246.056V108.704H248.04V114.624H249.992V120.896H247.688V114.976H245.704V109.024ZM258.952 100.768H279.048V103.104H258.952V100.768ZM256.968 116.608H258.952V114.624H261.256V116.96H259.272V120.576H263.24V122.528H278.696V120.576H281.032V122.88H279.048V124.896H262.888V122.88H258.952V120.896H256.968V116.608ZM288.968 114.624H290.952V112.64H292.904V110.656H296.872V96.832H299.176V108.704H302.792V106.72H313.032V109.024H303.144V111.008H297.224V112.992H293.256V114.976H291.272V120.576H295.24V122.528H313.032V124.896H294.888V122.88H290.952V120.896H288.968V114.624ZM318.984 120.576H320.968V116.608H322.92V110.656H324.904V107.072H318.984V104.736H326.888V96.832H329.192V104.736H335.144V106.72H337.096V118.912H335.144V122.88H333.16V124.896H324.904V122.528H332.808V118.592H334.792V107.072H327.24V111.008H325.256V116.96H323.272V120.896H321.288V124.896H318.984V120.576ZM340.712 101.12H338.728V98.816H340.712V96.832H343.048V98.816H345V100.768H346.984V103.104H345V105.088H342.696V103.104H340.712V101.12ZM342.696 100.768V99.136H341.064V100.768H342.696ZM344.648 102.752V101.12H343.048V102.752H344.648ZM336.776 102.752H339.08V104.736H341.064V106.72H343.048V108.704H345V112.64H346.984V114.976H344.648V112.992H342.696V109.024H340.712V107.072H338.728V105.088H336.776V102.752ZM350.984 114.624H353V112.64H354.984V110.656H356.936V108.704H360.904V103.104H353V100.768H360.904V96.832H363.208V100.768H377.064V103.104H363.208V106.72H369.16V108.704H370.792V106.72H372.744V104.736H375.08V107.072H373.096V108.704H375.08V110.656H377.064V112.64H379.016V120.896H377.064V122.88H375.08V124.896H373.096V126.88H366.824V124.512H372.744V122.528H374.728V120.576H376.712V112.992H374.728V111.008H371.112V112.992H369.16V116.96H367.176V118.912H365.192V120.896H363.208V122.528H365.192V124.896H362.888V122.88H359.272V124.896H353V122.88H350.984V114.624ZM364.84 118.592V116.608H366.824V112.64H368.808V109.024H363.208V118.592H364.84ZM358.92 122.528V120.576H360.904V111.008H357.288V112.992H355.304V114.976H353.352V122.528H358.92ZM386.952 118.592H388.904V116.608H395.176V118.592H397.16V122.528H402.76V120.576H404.712V118.592H406.696V114.976H404.712V112.992H391.24V114.976H387.272V116.96H384.968V114.624H386.952V112.64H390.888V110.656H392.872V108.704H394.856V106.72H398.792V104.736H400.776V103.104H386.952V100.768H405.064V103.104H403.08V105.088H401.128V107.072H399.144V109.024H395.176V110.656H405.064V112.64H407.048V114.624H409.032V118.912H407.048V122.88H403.08V124.896H388.904V122.88H386.952V118.592ZM394.856 122.528V118.912H389.256V122.528H394.856ZM417 120.896H414.984V110.656H417V106.72H418.984V104.736H420.936V102.752H424.904V100.768H435.112V102.752H439.08V104.736H441.064V108.704H443.016V118.912H441.064V122.88H439.08V124.896H435.112V126.88H428.84V124.512H434.792V122.528H438.728V118.592H440.712V109.024H438.728V105.088H434.792V103.104H431.176V109.024H429.192V114.976H427.208V118.912H425.256V122.88H423.272V124.896H418.984V122.88H417V120.896ZM419.304 120.576V122.528H422.92V118.592H424.904V114.624H426.888V108.704H428.84V103.104H425.256V105.088H421.288V107.072H419.304V111.008H417.352V120.576H419.304ZM453.928 110.656H455.912V108.704H457.896V106.72H459.848V104.736H461.832V103.104H445.992V100.768H474.024V103.104H466.12V105.088H462.184V107.072H460.2V109.024H458.216V111.008H456.264V118.592H458.216V120.576H460.2V122.528H470.088V124.896H459.848V122.88H455.912V118.912H453.928V110.656ZM469.736 104.736H472.072V106.72H474.024V108.704H476.008V111.008H473.672V109.024H471.72V107.072H469.736V104.736ZM465.8 106.72H468.104V108.704H470.088V110.656H472.072V112.992H469.736V111.008H467.752V109.024H465.8V106.72ZM479.016 118.592H481.32V120.576H483.304V122.528H485.288V126.88H482.952V124.896H481V122.88H479.016V118.592ZM520.872 112.608H532.712V108.992H520.872V106.688H528.776V103.072H522.824V100.736H528.776V96.8H531.08V100.736H537V103.072H531.08V106.688H538.984V108.992H535.048V112.608H538.984V114.944H535.048V124.864H533.064V126.848H526.792V124.48H532.712V114.944H520.872V112.608ZM510.984 100.736H519.24V118.88H513.288V122.848H510.984V100.736ZM516.904 108.672V103.072H513.288V108.672H516.904ZM516.904 116.576V110.976H513.288V116.576H516.904ZM524.808 116.576H527.144V118.56H529.096V120.864H526.792V118.88H524.808V116.576ZM544.968 104.736H546.952V98.816H549.256V105.088H547.272V124.896H544.968V104.736ZM552.872 102.752H569.032V105.088H552.872V102.752ZM552.872 116.608H555.176V120.576H557.16V122.528H569.032V124.896H556.808V122.88H554.856V120.896H552.872V116.608ZM581.896 118.592H583.88V116.608H593.768V107.072H581.896V104.736H593.768V98.816H596.072V104.736H601.992V107.072H596.072V118.592H598.056V120.576H600.04V122.528H601.992V124.896H599.688V122.88H597.704V120.896H596.072V122.88H594.088V124.896H583.88V122.88H581.896V118.592ZM575.976 102.752H577.96V98.816H580.264V103.104H578.28V124.896H575.976V102.752ZM593.768 122.528V118.912H584.232V122.528H593.768ZM606.984 122.496H609V116.576H610.984V98.784H635.016V124.864H633.064V126.848H626.792V124.48H632.712V101.088H613.288V110.624H620.84V107.04H614.92V104.704H620.84V102.72H623.176V104.704H629.096V107.04H623.176V110.624H631.08V112.96H613.288V116.928H611.304V122.848H609.352V126.848H606.984V122.496ZM616.904 114.592H629.096V122.848H616.904V114.592ZM626.792 120.544V116.928H619.208V120.544H626.792ZM639.976 98.784H665.992V126.848H663.688V124.864H642.28V126.848H639.976V98.784ZM663.688 122.496V101.088H642.28V122.496H663.688ZM643.912 118.56H645.896V116.576H647.88V114.944H643.912V112.608H647.88V108.992H643.912V106.688H647.88V102.72H650.184V106.688H653.8V102.72H656.136V106.688H660.072V108.992H656.136V112.608H662.056V114.944H656.136V120.864H653.8V114.944H650.184V116.928H648.232V118.88H646.248V120.864H643.912V118.56ZM653.8 112.608V108.992H650.184V112.608H653.8ZM673 120.896H670.984V110.656H673V106.72H674.984V104.736H676.936V102.752H680.904V100.768H691.112V102.752H695.08V104.736H697.064V108.704H699.016V118.912H697.064V122.88H695.08V124.896H691.112V126.88H684.84V124.512H690.792V122.528H694.728V118.592H696.712V109.024H694.728V105.088H690.792V103.104H687.176V109.024H685.192V114.976H683.208V118.912H681.256V122.88H679.272V124.896H674.984V122.88H673V120.896ZM675.304 120.576V122.528H678.92V118.592H680.904V114.624H682.888V108.704H684.84V103.104H681.256V105.088H677.288V107.072H675.304V111.008H673.352V120.576H675.304ZM715.848 124.48V120.544H717.832V114.592H719.816V108.992H713.896V106.688H719.816V96.8H722.12V106.688H732.008V108.992H722.12V110.624H724.104V114.592H726.088V118.56H728.072V122.496H730.024V124.48H732.008V126.848H729.672V124.864H727.72V122.848H725.736V118.88H723.752V114.944H720.168V120.864H718.184V124.864H716.2V126.848H713.896V124.48H715.848ZM701.992 120.544H704.008V118.56H705.992V114.592H707.944V112.608H709.928V96.8H712.264V126.848H709.928V114.944H708.296V118.88H706.312V120.864H704.36V122.848H701.992V120.544ZM727.72 99.104H725.736V96.8H728.072V98.784H730.024V103.072H727.72V99.104ZM705.992 107.04H704.008V105.056H701.992V102.72H704.36V104.704H706.312V106.688H708.296V108.992H705.992V107.04ZM745.896 124.48V122.496H747.848V118.56H749.832V112.96H745.896V98.784H762.024V112.96H758.088V124.48H761.672V118.56H764.008V124.864H762.024V126.848H757.736V124.864H755.752V112.96H752.168V118.88H750.184V122.848H748.2V124.864H746.216V126.848H741.928V124.48H745.896ZM739.944 103.072H737.992V101.088H736.008V98.784H738.312V100.736H740.296V102.72H742.28V105.056H739.944V103.072ZM759.72 110.624V101.088H748.2V110.624H759.72ZM739.944 110.976H737.992V108.992H736.008V106.688H738.312V108.672H740.296V110.624H742.28V112.96H739.944V110.976ZM736.008 124.48V122.496H737.992V118.56H739.944V114.592H742.28V118.88H740.296V122.848H738.312V124.864H736.36V126.848H733.992V124.48H736.008ZM768.968 104.736H770.952V98.816H773.256V105.088H771.272V124.896H768.968V104.736ZM776.872 102.752H793.032V105.088H776.872V102.752ZM776.872 116.608H779.176V120.576H781.16V122.528H793.032V124.896H780.808V122.88H778.856V120.896H776.872V116.608ZM29.992 136.704H39.912V135.072H37.928V133.088H33.992V130.784H43.848V128.8H46.184V130.784H56.072V133.088H52.104V135.072H50.12V136.704H60.008V139.04H29.992V136.704ZM47.816 136.704V134.72H49.8V133.088H40.264V134.72H42.216V136.704H47.816ZM37.928 150.88H35.944V140.672H54.088V150.88H46.184V152.544H48.168V154.848H45.832V152.864H43.848V150.88H40.264V156.48H51.752V152.544H54.088V156.864H52.104V158.848H39.912V156.864H37.928V150.88ZM51.752 144.608V142.976H38.28V144.608H51.752ZM51.752 148.576V146.944H38.28V148.576H51.752ZM29.992 154.496H32.008V150.56H34.312V154.848H32.36V156.864H29.992V154.496ZM55.72 150.56H58.024V152.544H60.008V156.864H57.672V152.864H55.72V150.56ZM73.896 144.608H82.12V154.496H83.752V152.544H85.736V150.88H83.752V142.976H71.912V140.672H75.848V139.04H73.896V135.072H71.912V132.736H75.848V128.8H78.184V132.736H83.752V128.8H86.088V140.672H92.008V142.976H86.088V150.56H87.72V146.592H89.672V144.608H92.008V146.944H90.024V150.88H88.072V156.48H89.672V152.544H92.008V158.848H87.72V156.864H85.736V154.848H84.104V156.864H82.12V158.848H77.832V156.48H81.8V154.848H76.2V156.864H73.896V144.608ZM89.672 135.072H87.72V130.784H90.024V134.72H92.008V139.04H89.672V135.072ZM64.008 130.784H70.28V133.088H64.008V130.784ZM79.816 138.688V135.072H76.2V138.688H79.816ZM83.752 140.672V135.072H82.12V139.04H80.168V140.672H83.752ZM61.992 136.704H72.264V139.04H61.992V136.704ZM64.008 140.672H70.28V142.976H64.008V140.672ZM64.008 144.608H70.28V146.944H64.008V144.608ZM79.816 148.576V146.944H76.2V148.576H79.816ZM64.008 148.576H70.28V156.864H66.312V158.848H64.008V148.576ZM67.944 154.496V150.88H66.312V154.496H67.944ZM79.816 152.544V150.88H76.2V152.544H79.816ZM95.976 148.608H97.96V144.64H99.912V142.656H101.896V138.72H103.88V137.088H95.976V134.752H105.864V128.832H108.168V134.752H118.056V137.088H106.184V138.72H110.152V140.704H112.136V144.64H113.768V142.656H117.704V140.704H121.992V143.008H118.056V144.992H114.088V146.976H112.136V154.88H109.8V148.96H106.184V150.912H104.232V156.512H120.04V158.88H103.88V156.896H101.896V150.592H103.88V148.608H105.864V146.624H109.8V141.024H104.232V143.008H102.248V144.992H100.264V148.96H98.28V150.912H95.976V148.608ZM127.976 134.72H135.88V132.736H137.864V130.784H139.816V128.8H142.152V131.104H140.168V133.088H138.184V134.72H153.992V156.864H152.04V158.848H145.768V156.48H151.688V137.056H130.28V158.848H127.976V134.72ZM133.896 140.672H148.072V150.88H133.896V140.672ZM145.768 148.576V142.976H136.232V148.576H145.768ZM173.8 156.512V154.528H175.784V150.592H177.768V139.072H165.896V136.736H177.768V130.816H180.072V136.736H185.992V139.072H180.072V150.912H178.088V154.88H176.136V156.896H174.152V158.88H169.864V156.512H173.8ZM159.976 134.752H161.96V130.816H164.264V135.104H162.28V158.88H159.976V134.752ZM198.92 142.656H200.904V140.704H202.888V138.72H204.84V136.736H206.824V135.104H190.984V132.768H219.016V135.104H211.112V137.088H207.176V139.072H205.192V141.024H203.208V143.008H201.256V150.592H203.208V152.576H205.192V154.528H215.08V156.896H204.84V154.88H200.904V150.912H198.92V142.656ZM243.752 130.816H245.736V128.832H248.072V130.816H250.024V132.768H252.008V135.104H250.024V137.088H247.72V135.104H245.736V133.12H243.752V130.816ZM247.72 132.768V131.136H246.088V132.768H247.72ZM221.992 154.528H224.008V150.592H225.992V146.624H227.944V140.704H229.928V132.768H232.264V141.024H230.28V146.976H228.296V150.912H226.312V154.88H224.36V156.896H221.992V154.528ZM245.736 144.992H243.752V141.024H241.8V137.088H239.816V132.768H242.12V136.736H244.104V140.704H246.088V144.64H248.072V150.592H250.024V154.88H247.72V150.912H245.736V144.992ZM249.672 134.752V133.12H248.072V134.752H249.672ZM258.952 130.816H279.048V133.12H258.952V130.816ZM268.808 156.512V154.528H272.776V152.576H274.76V150.592H276.712V146.624H278.696V141.024H256.968V138.72H281.032V146.976H279.048V150.912H277.064V152.896H275.08V154.88H273.128V156.896H269.16V158.88H258.952V156.512H268.808ZM294.888 137.088H290.952V135.104H288.968V132.768H291.272V134.752H295.24V136.736H299.176V138.72H301.16V141.024H298.856V139.072H294.888V137.088ZM288.968 154.528H294.888V152.576H298.856V150.592H302.792V148.608H304.776V146.624H306.76V144.64H308.712V140.704H310.696V134.752H313.032V141.024H311.048V144.992H309.064V146.976H307.08V148.96H305.128V150.912H303.144V152.896H299.176V154.88H295.24V156.896H288.968V154.528ZM318.984 154.528H322.984V152.576H326.92V150.592H330.888V148.608H332.84V146.624H334.824V142.656H336.808V138.72H338.792V135.104H321V132.768H341.096V139.072H339.112V143.008H337.16V146.624H339.112V148.608H341.096V150.592H343.08V152.576H345.064V154.528H347.016V156.896H344.712V154.88H342.728V152.896H340.744V150.912H338.792V148.96H336.808V146.976H335.176V148.96H333.192V150.912H331.208V152.896H327.272V154.88H323.304V156.896H318.984V154.528ZM351.976 148.608H353.96V144.64H355.912V142.656H357.896V138.72H359.88V137.088H351.976V134.752H361.864V128.832H364.168V134.752H374.056V137.088H362.184V138.72H366.152V140.704H368.136V144.64H369.768V142.656H373.704V140.704H377.992V143.008H374.056V144.992H370.088V146.976H368.136V154.88H365.8V148.96H362.184V150.912H360.232V156.512H376.04V158.88H359.88V156.896H357.896V150.592H359.88V148.608H361.864V146.624H365.8V141.024H360.232V143.008H358.248V144.992H356.264V148.96H354.28V150.912H351.976V148.608ZM381.992 150.56H385.992V133.088H381.992V130.784H398.184V132.736H410.024V140.992H408.072V146.944H406.088V152.544H408.072V156.48H412.008V158.848H407.72V156.864H405.736V152.864H403.752V150.88H402.12V154.848H400.168V156.864H398.184V158.848H393.896V150.88H390.28V152.864H381.992V150.56ZM397.832 156.48V154.496H399.816V150.56H401.8V146.944H399.816V140.992H397.832V136.704H400.168V140.672H402.12V146.592H405.736V140.672H407.72V135.072H397.832V133.088H396.2V156.48H397.832ZM393.896 136.704V133.088H388.296V136.704H393.896ZM393.896 142.624V139.04H388.296V142.624H393.896ZM389.928 150.56V148.576H393.896V144.96H388.296V150.56H389.928ZM418.952 150.592H420.904V148.608H427.176V150.592H429.16V154.528H434.76V152.576H436.712V150.592H438.696V146.976H436.712V144.992H423.24V146.976H419.272V148.96H416.968V146.624H418.952V144.64H422.888V142.656H424.872V140.704H426.856V138.72H430.792V136.736H432.776V135.104H418.952V132.768H437.064V135.104H435.08V137.088H433.128V139.072H431.144V141.024H427.176V142.656H437.064V144.64H439.048V146.624H441.032V150.912H439.048V154.88H435.08V156.896H420.904V154.88H418.952V150.592ZM426.856 154.528V150.912H421.256V154.528H426.856ZM448.968 146.624H450.952V144.64H452.904V142.656H456.872V128.832H459.176V140.704H462.792V138.72H473.032V141.024H463.144V143.008H457.224V144.992H453.256V146.976H451.272V152.576H455.24V154.528H473.032V156.896H454.888V154.88H450.952V152.896H448.968V146.624ZM481.992 156.48V132.736H489.896V128.8H492.2V132.736H502.088V146.944H492.2V148.576H494.184V150.56H496.168V152.544H499.752V150.56H501.736V148.576H503.72V146.592H506.024V148.928H504.072V150.88H502.088V152.864H500.104V154.496H504.072V156.48H508.008V158.848H503.72V156.864H499.752V154.848H495.816V152.864H493.832V150.88H491.848V148.928H489.896V146.944H484.296V156.48H485.928V154.496H492.2V156.864H486.28V158.848H477.992V156.48H481.992ZM499.752 138.688V135.072H484.296V138.688H499.752ZM499.752 144.608V140.992H484.296V144.608H499.752ZM513.96 150.912H511.976V132.768H514.28V150.592H516.264V154.528H521.864V152.576H523.816V148.608H526.152V152.896H524.168V154.88H522.184V156.896H515.912V154.88H513.96V150.912ZM533.704 141.024H531.72V137.088H529.768V132.768H532.072V136.736H534.056V140.704H536.04V146.624H537.992V152.896H535.688V146.976H533.704V141.024ZM549.928 142.656H551.912V140.704H553.896V138.72H555.848V136.736H557.832V135.104H541.992V132.768H570.024V135.104H562.12V137.088H558.184V139.072H556.2V141.024H554.216V143.008H552.264V150.592H554.216V152.576H556.2V154.528H566.088V156.896H555.848V154.88H551.912V150.912H549.928V142.656ZM565.736 136.736H568.072V138.72H570.024V140.704H572.008V143.008H569.672V141.024H567.72V139.072H565.736V136.736ZM561.8 138.72H564.104V140.704H566.088V142.656H568.072V144.992H565.736V143.008H563.752V141.024H561.8V138.72ZM576.968 130.816H579.272V152.576H581.256V154.528H590.792V152.576H594.728V150.592H596.712V148.608H598.696V146.624H601V148.96H599.048V150.912H597.064V152.896H595.08V154.88H591.144V156.896H580.904V154.88H578.92V152.896H576.968V130.816ZM609.96 150.592H611.912V148.608H619.816V134.752H622.152V140.704H630.056V143.008H622.152V150.592H626.088V152.576H630.056V154.528H632.04V156.896H629.704V154.88H625.768V152.896H622.152V154.88H620.168V156.896H611.912V154.88H609.96V150.592ZM619.816 154.528V150.912H612.264V154.528H619.816ZM644.904 130.816H657.128V132.768H663.048V135.104H656.776V133.12H644.904V130.816ZM642.952 154.528H654.792V152.576H658.76V150.592H660.712V148.608H662.696V143.008H660.712V141.024H647.24V143.008H640.968V140.704H646.888V138.72H661.064V140.704H663.048V142.656H665.032V148.96H663.048V150.912H661.064V152.896H659.08V154.88H655.144V156.896H642.952V154.528ZM671.016 150.592H673V148.608H679.272V150.592H681.224V156.896H679.272V158.88H673V156.896H671.016V150.592ZM678.92 156.512V150.912H673.32V156.512H678.92Z"></path>
</svg>
