<svg xmlns="http://www.w3.org/2000/svg" fill="none" viewBox="0 0 343 115" height="115" width="343">
<rect stroke-width="2" stroke="black" fill="#FFF4E4" rx="11" height="109" width="326" y="1" x="16"></rect>
<path fill="black" d="M39.679 33.77H43.213V32.801H40.876V25.543H43.213V24.574H39.679V23.187H43.213V20.85H44.6V23.187H47.906V22.028H56.323V24.574H55.164V25.752H53.986V27.899H55.164V29.058H57.501V30.445H54.955V29.267H53.777V28.089H51.63V29.267H50.471V30.445H47.906V29.058H50.262V27.899H51.44V26.93H50.262V24.574H49.084V23.396H48.115V24.574H44.6V25.543H46.937V32.801H44.6V33.77H47.906V32.592H51.44V30.236H52.808V32.592H56.323V33.96H52.808V36.107H57.501V37.513H46.747V36.107H51.44V33.96H48.115V35.138H44.6V38.691H43.213V35.138H39.679V33.77ZM52.599 26.721V25.543H53.777V24.365H54.955V23.396H50.471V24.365H51.63V26.721H52.599ZM43.213 27.899V26.93H42.244V27.899H43.213ZM45.569 27.899V26.93H44.6V27.899H45.569ZM45.569 31.414V29.267H44.6V31.414H45.569ZM43.213 31.414V29.267H42.244V31.414H43.213ZM62.194 37.285V36.107H63.353V33.77H64.531V31.623H59.819V30.236H64.531V26.93H61.016V25.543H64.531V20.85H65.918V25.543H70.402V20.85H71.77V25.543H76.463V26.93H71.77V30.236H77.641V31.623H71.77V38.691H70.402V31.623H65.918V33.96H64.74V36.316H63.562V37.513H62.384V38.691H59.819V37.285H62.194ZM70.402 30.236V26.93H65.918V30.236H70.402ZM83.493 23.396H82.334V22.218H81.156V20.85H82.524V22.028H83.702V23.187H84.88V24.574H83.493V23.396ZM84.671 36.107H85.849V32.592H87.027V22.028H96.603V29.267H93.088V31.414H94.266V33.77H95.444V36.107H96.603V37.285H97.781V38.691H96.394V37.513H95.235V36.316H94.057V33.96H92.879V31.623H91.72V29.267H88.395V32.801H87.217V36.316H86.058V38.691H84.671V36.107ZM95.235 27.899V23.396H88.395V27.899H95.235ZM83.493 28.089H82.334V26.93H81.156V25.543H82.524V26.721H83.702V27.899H84.88V29.267H83.493V28.089ZM79.959 36.107H81.156V34.948H82.334V32.592H83.493V30.236H84.88V32.801H83.702V35.138H82.524V36.316H81.365V37.513H79.959V36.107ZM100.099 36.107H101.296V33.77H102.664V36.107H103.633V33.77H105.02V36.107H105.989V33.77H107.357V36.316H106.198V37.285H108.326V32.801H101.296V22.028H108.535V23.396H106.198V25.543H108.535V26.93H106.198V27.899H108.535V29.267H106.198V31.414H109.713V36.107H110.682V22.028H116.743V29.267H114.406V31.414H115.584V34.948H116.743V37.285H117.921V38.691H116.534V37.513H115.375V35.138H114.197V31.623H113.019V29.267H112.05V36.316H110.891V38.691H109.504V37.513H108.535V38.691H104.811V36.316H103.842V38.691H102.474V36.316H101.505V38.691H100.099V36.107ZM115.375 27.899V23.396H112.05V27.899H115.375ZM104.811 25.543V23.396H102.664V25.543H104.811ZM104.811 27.899V26.93H102.664V27.899H104.811ZM104.811 31.414V29.267H102.664V31.414H104.811ZM131.411 25.562H132.57V23.206H133.748V22.047H134.926V20.869H136.294V22.237H135.135V23.415H133.957V25.771H132.779V33.789H133.957V36.126H135.135V37.304H136.294V38.71H134.926V37.532H133.748V36.335H132.57V33.979H131.411V25.562ZM146.839 22.028H156.434V38.691H155.047V37.513H148.207V38.691H146.839V22.028ZM142.146 22.028H143.514V38.691H142.146V22.028ZM155.047 29.058V23.396H148.207V29.058H155.047ZM155.047 36.107V30.445H148.207V36.107H155.047ZM160.519 33.77H164.053V32.801H161.716V25.543H164.053V24.574H160.519V23.187H164.053V20.85H165.44V23.187H168.746V22.028H177.163V24.574H176.004V25.752H174.826V27.899H176.004V29.058H178.341V30.445H175.795V29.267H174.617V28.089H172.47V29.267H171.311V30.445H168.746V29.058H171.102V27.899H172.28V26.93H171.102V24.574H169.924V23.396H168.955V24.574H165.44V25.543H167.777V32.801H165.44V33.77H168.746V32.592H172.28V30.236H173.648V32.592H177.163V33.96H173.648V36.107H178.341V37.513H167.587V36.107H172.28V33.96H168.955V35.138H165.44V38.691H164.053V35.138H160.519V33.77ZM173.439 26.721V25.543H174.617V24.365H175.795V23.396H171.311V24.365H172.47V26.721H173.439ZM164.053 27.899V26.93H163.084V27.899H164.053ZM166.409 27.899V26.93H165.44V27.899H166.409ZM166.409 31.414V29.267H165.44V31.414H166.409ZM164.053 31.414V29.267H163.084V31.414H164.053ZM183.034 37.285V36.107H184.193V33.77H185.371V31.623H180.659V30.236H185.371V26.93H181.856V25.543H185.371V20.85H186.758V25.543H191.242V20.85H192.61V25.543H197.303V26.93H192.61V30.236H198.481V31.623H192.61V38.691H191.242V31.623H186.758V33.96H185.58V36.316H184.402V37.513H183.224V38.691H180.659V37.285H183.034ZM191.242 30.236V26.93H186.758V30.236H191.242ZM204.333 23.396H203.174V22.218H201.996V20.85H203.364V22.028H204.542V23.187H205.72V24.574H204.333V23.396ZM205.511 36.107H206.689V32.592H207.867V22.028H217.443V29.267H213.928V31.414H215.106V33.77H216.284V36.107H217.443V37.285H218.621V38.691H217.234V37.513H216.075V36.316H214.897V33.96H213.719V31.623H212.56V29.267H209.235V32.801H208.057V36.316H206.898V38.691H205.511V36.107ZM216.075 27.899V23.396H209.235V27.899H216.075ZM204.333 28.089H203.174V26.93H201.996V25.543H203.364V26.721H204.542V27.899H205.72V29.267H204.333V28.089ZM200.799 36.107H201.996V34.948H203.174V32.592H204.333V30.236H205.72V32.801H204.542V35.138H203.364V36.316H202.205V37.513H200.799V36.107ZM224.473 37.285V31.623H220.939V30.236H224.473V28.089H222.136V26.93H220.939V25.543H222.136V24.365H223.314V22.028H224.473V20.85H225.86V22.028H227.038V23.187H228.197V25.543H229.166V22.028H236.424V30.445H232.89V32.592H234.068V33.77H235.037V32.592H236.215V31.414H237.374V30.236H238.761V31.623H237.583V32.801H236.424V33.96H235.246V36.107H236.424V37.285H238.761V38.691H236.215V37.513H235.037V36.316H233.859V33.96H232.7V32.801H231.522V30.445H230.553V36.107H232.89V37.513H230.553V38.691H228.007V37.513H224.682V38.691H220.939V37.285H224.473ZM228.007 26.721V25.752H226.829V23.396H225.651V22.218H224.682V24.574H223.504V25.752H222.345V26.721H228.007ZM235.037 25.543V23.396H230.553V25.543H235.037ZM226.829 34.948V32.592H228.197V35.138H227.038V36.107H228.197V37.285H229.166V26.93H228.197V28.089H225.86V30.236H228.197V31.623H225.86V34.948H226.829ZM235.037 29.058V26.93H230.553V29.058H235.037ZM222.136 33.96H220.939V32.592H222.345V33.77H223.504V36.316H222.136V33.96ZM241.079 36.107H242.276V31.414H243.454V23.187H250.484V20.85H251.871V23.187H258.901V24.574H244.822V31.414H245.791V30.236H246.969V26.721H248.337V29.058H249.515V30.236H250.484V25.543H251.871V31.414H252.84V30.236H253.999V26.721H255.386V29.058H256.564V30.236H257.723V32.801H256.355V30.445H254.208V31.623H253.03V32.801H251.871V33.77H257.723V35.138H251.871V37.285H258.901V38.691H243.454V37.285H250.484V35.138H244.613V33.77H250.484V31.623H249.306V30.445H247.178V31.623H246V32.801H244.613V31.623H243.644V36.316H242.485V38.691H241.079V36.107ZM262.416 37.285V36.107H263.594V34.948H264.753V30.445H261.219V29.058H266.14V34.948H267.318V36.107H268.287V25.543H271.802V24.574H270.624V23.396H268.287V22.028H276.704V23.396H275.526V24.574H274.348V25.543H277.863V35.138H276.704V36.316H274.139V34.948H276.495V32.801H273.17V36.316H271.802V32.801H269.655V37.285H279.041V38.691H269.446V37.513H267.109V36.316H265.931V35.138H264.962V36.316H263.784V37.513H262.625V38.691H261.219V37.285H262.416ZM264.753 24.574H263.594V23.396H262.416V22.028H263.784V23.187H264.962V24.365H266.14V25.752H264.753V24.574ZM274.139 24.365V23.396H272.011V24.365H274.139ZM276.495 29.058V26.93H273.17V29.058H276.495ZM271.802 29.058V26.93H269.655V29.058H271.802ZM276.495 31.414V30.445H273.17V31.414H276.495ZM271.802 31.414V30.445H269.655V31.414H271.802ZM289.567 37.304V36.126H293.101V34.967H294.26V32.611H295.438V25.771H294.26V23.415H289.776V24.593H288.598V25.771H287.439V28.108H286.261V30.464H285.083V32.82H283.715V24.384H284.874V22.047H286.261V24.593H285.083V27.918H286.052V25.562H287.23V24.384H288.408V23.206H289.567V22.047H294.469V23.206H295.647V25.562H296.825V32.82H295.647V35.157H294.469V36.335H293.291V37.532H289.776V38.71H284.874V37.304H289.567ZM304.444 37.304V36.126H305.603V33.789H306.781V25.771H305.603V23.415H304.444V22.237H303.266V20.869H304.634V22.047H305.812V23.206H306.99V25.562H308.168V33.979H306.99V36.335H305.812V37.532H304.634V38.71H303.266V37.304H304.444Z"></path>
<path fill="black" d="M30.034 67.933H29.341V66.459H30.034V65.777H30.716V65.095H31.387V64.413H32.751V62.499H30.034V61.696H32.751V59.661H33.543V61.696H35.589V62.499H33.543V63.742H36.942V64.413H38.306V65.095H38.977V67.933H38.306V68.615H37.624V69.308H36.942V69.99H34.104V69.176H36.821V68.494H37.503V67.823H38.185V65.216H36.821V64.534H33.543V68.615H32.872V69.308H30.716V68.615H30.034V67.933ZM36.15 61.014H37.624V61.696H38.977V62.378H39.659V63.181H38.856V62.499H37.503V61.817H36.15V61.014ZM30.826 67.823V68.494H32.751V65.216H31.508V65.898H30.826V66.58H30.155V67.823H30.826ZM43.267 61.124H42.596V60.442H41.914V59.65H42.706V60.332H43.388V61.003H44.07V61.806H43.267V61.124ZM44.631 63.049H46.666V61.124H44.631V60.332H51.539V61.124H49.504V63.049H51.539V69.979H50.736V69.297H45.423V69.979H44.631V63.049ZM48.701 63.049V61.124H47.469V63.049H48.701ZM43.267 63.841H42.596V63.17H41.914V62.367H42.706V63.049H43.388V63.731H44.07V64.523H43.267V63.841ZM50.736 68.483V66.569H49.383V65.887H48.701V63.841H47.469V65.887H46.787V66.569H46.105V67.24H45.423V68.483H50.736ZM45.984 66.448V65.766H46.666V63.841H45.423V66.448H45.984ZM50.736 65.766V63.841H49.504V65.766H50.736ZM41.221 68.483H41.914V67.812H42.596V66.448H43.267V65.084H44.07V66.569H43.388V67.922H42.706V68.604H42.035V69.297H41.221V68.483ZM55.829 61.806H53.101V61.003H55.829V59.65H56.632V61.003H59.91V59.65H60.702V61.003H63.419V61.806H60.702V62.488H59.91V61.806H56.632V62.488H55.829V61.806ZM53.794 69.165V68.483H54.476V67.812H55.147V66.448H55.95V67.13H56.511V66.448H57.864V65.766H58.546V65.205H57.864V64.523H57.303V65.205H56.511V64.402H57.193V63.731H57.864V62.367H58.667V63.049H61.384V64.523H60.702V65.205H60.02V65.766H61.384V66.448H63.419V67.24H62.066V69.979H61.263V69.297H57.985V69.979H57.193V67.24H56.632V67.922H55.268V68.604H54.586V69.297H53.915V69.979H53.101V69.165H53.794ZM54.476 63.17H53.794V62.367H54.586V63.049H55.95V63.841H54.476V63.17ZM58.667 64.402V65.084H59.91V64.402H60.581V63.841H57.985V64.402H58.667ZM54.476 65.205H53.794V64.402H54.586V65.084H55.95V65.887H54.476V65.205ZM61.263 67.13V66.569H59.91V65.887H58.667V66.569H57.985V67.13H61.263ZM61.263 68.483V67.922H57.985V68.483H61.263ZM65.322 67.141H66.004V65.777H66.675V64.413H67.357V63.06H68.039V62.499H65.322V61.696H68.039V61.014H68.721V59.661H69.513V61.135H68.831V61.696H70.877V62.499H68.831V63.181H68.16V64.534H67.478V65.898H66.796V67.251H66.114V67.933H65.322V67.141ZM71.438 61.696H74.265V62.378H74.947V63.181H74.144V62.499H71.438V61.696ZM68.039 67.141H68.721V66.459H71.438V63.742H72.23V67.141H72.912V67.823H73.594V68.494H74.265V69.308H73.473V68.615H72.791V67.933H72.23V68.615H71.548V69.308H70.877V69.99H68.721V69.308H68.039V67.141ZM70.756 69.176V68.494H71.438V67.251H68.831V69.176H70.756ZM77.884 68.494H78.566V67.823H79.237V67.141H79.919V65.777H80.601V63.742H81.283V62.499H77.884V61.696H81.283V59.661H82.075V61.696H86.156V67.933H85.474V68.615H84.792V69.308H81.954V68.494H84.671V67.823H85.353V62.499H82.075V63.852H81.393V65.898H80.722V67.251H80.04V67.933H79.358V68.615H78.676V69.308H77.884V68.494ZM90.446 68.494H92.481V67.823H93.834V67.141H95.198V66.459H95.88V65.095H96.551V63.742H97.233V61.817H89.764V61.014H98.036V63.852H97.354V65.216H96.672V66.58H95.99V67.251H95.319V67.933H93.955V68.615H92.602V69.308H90.446V68.494ZM101.644 68.494H105.043V63.852H102.326V63.06H109.234V63.852H105.835V68.494H109.916V69.308H101.644V68.494ZM115.57 65.216H114.888V64.534H113.656V65.216H112.842V64.413H113.535V63.742H114.888V62.499H114.217V60.343H115.009V62.378H115.691V63.06H116.934V62.378H118.287V61.135H117.605V59.661H118.408V61.014H119.09V62.378H121.125V63.06H121.807V63.742H122.478V65.898H121.807V66.58H120.443V67.251H117.605V66.459H120.322V65.777H121.686V63.852H121.004V63.181H117.044V63.852H115.691V65.095H116.373V67.823H117.044V69.99H116.252V67.933H115.57V65.216ZM124.381 66.448H126.427V65.766H128.473V65.084H129.826V64.523H125.074V63.731H129.144V61.806H125.756V61.003H129.144V59.65H129.947V61.003H132.664V61.685H133.225V61.003H134.017V61.806H133.346V62.488H132.664V63.17H131.982V63.731H134.699V64.523H130.629V65.205H129.947V65.887H128.583V67.13H129.826V66.448H131.861V65.766H134.017V66.569H131.982V67.24H129.947V67.922H128.583V69.165H133.896V67.812H134.699V69.297H134.017V69.979H128.473V69.297H127.791V66.569H126.548V67.24H124.381V66.448ZM131.19 63.731V63.049H131.861V62.367H132.543V61.806H129.947V63.731H131.19ZM136.261 65.084H138.307V64.523H136.954V63.841H136.261V63.049H136.954V61.685H137.636V60.332H138.307V59.65H139.11V60.332H139.792V61.003H143.07V59.65H143.862V61.003H145.105V60.442H144.423V59.65H145.226V60.332H145.897V61.003H146.579V61.806H143.862V63.049H145.897V69.297H145.226V69.979H143.07V67.922H141.827V69.979H141.024V65.887H136.261V65.084ZM141.024 65.084V63.049H143.07V61.806H140.463V62.488H139.671V61.124H138.989V60.442H138.428V61.806H137.746V63.17H137.075V63.731H138.307V62.367H139.11V63.731H140.463V64.523H139.11V65.084H141.024ZM143.07 65.084V63.841H141.827V65.084H143.07ZM145.105 65.084V63.841H143.862V65.084H145.105ZM145.105 67.13V65.887H143.862V67.13H145.105ZM143.07 67.13V65.887H141.827V67.13H143.07ZM136.954 66.448H140.463V69.297H137.746V69.979H136.954V66.448ZM139.671 68.483V67.24H137.746V68.483H139.671ZM145.105 69.165V67.922H143.862V69.165H145.105ZM149.175 67.933H148.482V64.413H149.175V63.06H149.857V62.378H150.528V61.696H151.892V61.014H155.401V61.696H156.765V62.378H157.447V63.742H158.118V67.251H157.447V68.615H156.765V69.308H155.401V69.99H153.245V69.176H155.291V68.494H156.644V67.141H157.326V63.852H156.644V62.499H155.291V61.817H154.048V63.852H153.366V65.898H152.684V67.251H152.013V68.615H151.331V69.308H149.857V68.615H149.175V67.933ZM149.967 67.823V68.494H151.21V67.141H151.892V65.777H152.574V63.742H153.245V61.817H152.013V62.499H150.649V63.181H149.967V64.534H149.296V67.823H149.967ZM168.183 60.343H168.986V61.014H169.657V61.696H170.339V62.499H169.536V61.817H168.865V61.135H168.183V60.343ZM166.83 61.014H167.622V61.696H168.304V62.378H168.986V63.181H168.183V62.499H167.501V61.817H166.83V61.014ZM160.021 66.459H160.714V65.095H161.396V64.413H162.067V63.06H162.749V62.378H163.431V61.696H164.905V62.378H165.587V63.742H166.269V64.413H166.94V65.095H167.622V65.777H168.304V67.141H168.986V67.823H169.657V68.494H170.339V69.308H169.536V68.615H168.865V67.933H168.183V67.251H167.501V65.898H166.83V65.216H166.148V64.534H165.466V63.852H164.784V62.499H163.552V63.181H162.87V64.534H162.188V65.216H161.506V66.58H160.835V67.251H160.021V66.459ZM172.924 64.413H181.196V65.216H172.924V64.413ZM184.804 68.494H185.486V67.823H186.157V67.141H186.839V65.777H187.521V63.742H188.203V62.499H184.804V61.696H188.203V59.661H188.995V61.696H193.076V67.933H192.394V68.615H191.712V69.308H188.874V68.494H191.591V67.823H192.273V62.499H188.995V63.852H188.313V65.898H187.642V67.251H186.96V67.933H186.278V68.615H185.596V69.308H184.804V68.494ZM200.754 69.176V68.494H202.118V67.823H202.8V66.459H203.471V60.343H204.274V66.58H203.592V67.933H202.91V68.615H202.239V69.308H200.875V69.99H198.037V69.176H200.754ZM197.366 60.343H198.158V66.58H197.366V60.343ZM208.564 64.413H216.836V65.216H208.564V64.413ZM220.114 66.448H226.23V65.887H219.421V65.084H224.184V63.841H220.796V63.049H224.184V61.685H224.866V61.124H222.952V61.685H223.623V62.488H222.831V61.806H222.149V61.124H221.588V61.806H220.906V62.488H219.421V61.685H220.796V61.003H221.467V59.65H222.27V60.332H224.987V61.003H225.548V59.65H226.34V60.332H229.739V61.124H227.704V61.685H228.386V62.488H227.583V61.806H226.901V61.124H225.669V61.806H224.987V63.049H228.386V63.841H224.987V65.084H229.739V65.887H227.022V66.448H229.057V67.24H227.022V69.297H226.34V69.979H224.184V69.165H226.23V67.24H220.114V66.448ZM221.467 67.812H222.952V68.483H223.623V69.297H222.831V68.604H221.467V67.812ZM231.301 68.483H231.994V65.766H232.676V60.332H241.619V61.124H239.584V62.367H241.619V63.17H240.266V63.731H240.937V64.402H241.619V65.205H240.816V64.523H240.145V63.841H239.584V66.569H238.781V63.841H238.22V64.523H237.549V65.205H236.746V64.523H236.185V66.569H235.393V63.841H234.832V64.523H234.15V65.205H233.468V65.887H232.786V68.604H232.115V69.979H231.301V68.483ZM238.781 62.367V61.124H236.185V62.367H238.781ZM235.393 62.367V61.124H233.468V62.367H235.393ZM236.867 63.731V64.402H237.428V63.731H238.11V63.17H236.185V63.731H236.867ZM234.029 64.402V63.731H234.711V63.17H233.468V64.402H234.029ZM234.711 69.165V67.13H235.503V69.165H237.428V65.766H238.22V67.13H240.937V67.922H238.22V69.165H241.619V69.979H233.347V69.165H234.711ZM245.227 69.165V68.483H246.591V67.812H247.273V67.24H246.591V66.569H245.227V65.766H246.712V66.448H247.944V65.205H244.556V61.685H247.944V59.65H248.747V61.685H252.817V65.205H248.747V66.569H248.065V67.812H249.429V68.483H251.464V69.165H253.499V69.979H251.343V69.297H249.308V68.604H247.944V67.922H247.383V68.604H246.712V69.297H245.348V69.979H243.181V69.165H245.227ZM252.025 64.402V62.488H248.747V64.402H252.025ZM247.944 64.402V62.488H245.348V64.402H247.944ZM256.084 65.777H256.766V65.095H257.437V64.413H258.801V59.661H259.593V63.742H260.836V63.06H264.356V63.852H260.957V64.534H258.922V65.216H257.558V65.898H256.876V67.823H258.24V68.494H264.356V69.308H258.119V68.615H256.766V67.933H256.084V65.777ZM271.033 69.165V68.483H271.704V67.13H272.386V66.569H271.033V59.65H275.906V66.569H274.542V69.165H276.456V67.13H277.259V69.297H276.577V69.979H274.421V69.297H273.75V66.569H273.189V67.24H272.507V68.604H271.825V69.297H271.143V69.979H269.669V69.165H271.033ZM266.941 67.812H268.316V64.523H266.941V63.731H268.316V61.124H266.941V60.332H270.472V61.124H269.108V63.731H270.472V64.523H269.108V67.13H270.472V67.922H268.426V68.604H266.941V67.812ZM275.103 61.685V60.442H271.825V61.685H275.103ZM275.103 63.731V62.488H271.825V63.731H275.103ZM275.103 65.766V64.523H271.825V65.766H275.103ZM282.231 63.731H284.266V59.65H285.069V63.731H285.63V63.049H289.139V63.841H285.74V64.523H285.069V65.084H285.74V67.13H286.422V68.483H287.104V69.165H287.665V68.483H288.336V67.13H289.139V68.604H288.457V69.297H287.786V69.979H286.983V69.297H286.301V68.604H285.63V67.24H284.948V65.205H284.266V64.523H282.231V63.731ZM280.867 64.523H280.306V65.205H279.635V65.887H278.821V65.084H279.514V64.402H280.196V63.049H280.867V61.685H281.549V59.65H282.352V61.806H281.67V69.979H280.867V64.523ZM286.983 61.124H286.301V60.332H287.104V61.003H287.786V62.488H286.983V61.124ZM291.042 67.823H291.724V66.459H292.395V64.413H293.077V63.181H291.042V62.378H293.759V59.661H294.551V62.378H296.597V63.06H297.268V67.251H296.597V68.615H295.915V69.308H293.077V68.494H295.794V67.141H296.476V63.181H293.88V64.534H293.198V66.58H292.516V67.933H291.834V69.308H291.042V67.823ZM298.511 61.135H297.829V60.343H298.511V59.661H299.314V60.343H299.985V61.014H300.667V61.817H299.985V62.499H299.193V61.817H298.511V61.135ZM299.193 61.014V60.453H298.632V61.014H299.193ZM299.864 61.696V61.135H299.314V61.696H299.864ZM297.158 61.696H297.95V62.378H298.632V63.06H299.314V63.742H299.985V65.095H300.667V65.898H299.864V65.216H299.193V63.852H298.511V63.181H297.829V62.499H297.158V61.696ZM302.581 61.685H307.344V59.65H308.147V61.685H312.899V62.488H302.581V61.685ZM304.627 69.165V68.483H306.673V67.812H307.344V67.24H306.673V66.569H305.991V65.887H305.309V65.205H304.627V64.523H304.066V65.205H302.581V64.402H303.956V63.731H305.309V63.049H306.112V63.841H305.43V65.084H306.112V65.766H306.783V66.448H307.465V67.13H308.026V66.448H308.708V65.766H309.39V65.084H310.061V64.402H310.743V63.841H310.061V63.049H310.864V63.731H311.546V64.402H312.217V65.205H311.425V64.523H310.864V65.205H310.182V65.887H309.5V66.569H308.829V67.24H308.147V67.812H308.829V68.483H310.182V69.165H312.899V69.979H310.061V69.297H308.708V68.604H308.026V67.922H307.465V68.604H306.783V69.297H304.748V69.979H302.581V69.165H304.627ZM315.154 69.165V68.483H315.836V67.812H316.507V66.448H317.189V65.887H314.461V65.084H319.224V63.841H315.836V63.049H319.224V61.806H315.154V61.003H317.189V60.442H316.507V59.65H317.31V60.332H317.992V61.003H320.588V60.332H321.27V59.65H322.062V60.442H321.38V61.003H324.097V61.806H320.027V63.049H323.426V63.841H320.027V65.084H324.779V65.887H317.992V66.448H323.426V67.24H320.709V69.165H324.779V69.979H316.507V69.165H319.906V67.24H317.871V66.569H317.31V67.922H316.628V68.604H315.946V69.297H315.275V69.979H314.461V69.165H315.154ZM326.693 67.141H327.375V66.459H329.531V67.141H330.202V69.308H329.531V69.99H327.375V69.308H326.693V67.141ZM329.41 69.176V67.251H327.485V69.176H329.41ZM75.684 85.165V80.523H70.921V79.731H75.684V79.17H75.013V78.488H74.331V77.685H75.123V78.367H77.048V77.685H77.73V77.124H72.296V76.332H79.204V77.124H78.522V77.806H77.84V78.488H77.169V79.17H76.487V79.731H81.239V80.523H80.557V81.205H79.886V81.887H79.204V82.569H78.401V81.766H79.083V81.084H79.765V80.523H76.487V85.297H75.805V85.979H73.649V85.165H75.684ZM83.142 82.448H84.517V77.806H83.142V77.003H84.517V75.65H85.309V77.003H87.234V75.65H88.026V77.003H88.708V77.806H88.026V82.448H89.269V76.332H92.778V85.297H92.107V85.979H90.622V85.165H91.986V81.887H90.061V83.922H89.39V85.297H88.708V85.979H87.905V85.297H87.234V84.604H86.552V83.812H87.344V84.483H88.026V85.165H88.587V83.812H89.269V83.24H83.142V82.448ZM91.986 79.049V77.124H90.061V79.049H91.986ZM87.234 79.049V77.806H85.309V79.049H87.234ZM91.986 81.084V79.841H90.061V81.084H91.986ZM87.234 80.402V79.841H85.309V80.402H87.234ZM87.234 82.448V81.205H85.309V82.448H87.234ZM83.835 85.165V84.483H84.517V83.812H85.309V84.604H84.627V85.297H83.956V85.979H83.142V85.165H83.835ZM95.704 76.343H96.496V83.823H97.178V84.494H100.456V83.823H101.809V83.141H102.491V82.459H103.173V81.777H103.965V82.58H103.294V83.251H102.612V83.933H101.93V84.615H100.577V85.308H97.057V84.615H96.375V83.933H95.704V76.343ZM106.902 83.141H107.584V81.777H108.255V80.413H108.937V79.06H109.619V78.499H106.902V77.696H109.619V77.014H110.301V75.661H111.093V77.135H110.411V77.696H112.457V78.499H110.411V79.181H109.74V80.534H109.058V81.898H108.376V83.251H107.694V83.933H106.902V83.141ZM113.018 77.696H115.845V78.378H116.527V79.181H115.724V78.499H113.018V77.696ZM109.619 83.141H110.301V82.459H113.018V79.742H113.81V83.141H114.492V83.823H115.174V84.494H115.845V85.308H115.053V84.615H114.371V83.933H113.81V84.615H113.128V85.308H112.457V85.99H110.301V85.308H109.619V83.141ZM112.336 85.176V84.494H113.018V83.251H110.411V85.176H112.336ZM119.805 83.251H119.123V77.014H119.915V83.141H120.597V84.494H122.522V83.823H123.193V82.459H123.996V83.933H123.314V84.615H122.632V85.308H120.476V84.615H119.805V83.251ZM126.592 79.852H125.91V78.499H125.239V77.014H126.031V78.378H126.713V79.742H127.395V81.777H128.066V83.933H127.274V81.898H126.592V79.852ZM132.367 85.165V84.483H133.731V83.24H131.014V82.448H133.731V81.205H132.367V80.523H131.806V81.205H130.321V80.402H131.696V79.731H133.049V79.17H132.367V78.488H131.696V77.685H132.488V78.367H133.17V79.049H133.731V78.367H134.413V77.685H135.084V77.124H131.014V76.332H135.887V77.685H136.448V77.003H137.13V76.332H137.801V75.65H138.604V76.442H137.922V77.124H137.24V77.806H136.569V78.367H137.24V79.049H137.801V78.367H138.483V77.685H139.165V77.003H139.957V77.806H139.286V78.488H138.604V79.17H137.922V79.731H138.604V80.402H140.639V81.205H138.483V80.523H137.922V81.205H137.24V82.448H139.957V83.24H137.24V85.165H139.165V83.812H139.957V85.297H139.286V85.979H137.13V85.297H136.448V83.24H134.523V84.604H133.852V85.297H132.488V85.979H130.321V85.165H132.367ZM137.801 80.402V79.841H137.13V79.17H136.448V78.488H135.766V77.806H135.205V78.488H134.523V79.17H133.852V79.841H133.17V80.402H137.801ZM136.448 82.448V81.205H134.523V82.448H136.448ZM144.247 85.165V84.483H145.611V83.24H144.247V75.65H150.484V83.24H149.12V85.165H151.716V83.13H152.519V85.297H151.837V85.979H149.01V85.297H148.328V83.24H146.403V84.604H145.732V85.297H144.368V85.979H142.201V85.165H144.247ZM149.681 77.685V76.442H145.05V77.685H149.681ZM149.681 79.731V78.488H145.05V79.731H149.681ZM149.681 82.448V80.523H145.05V82.448H149.681ZM154.763 82.459H155.445V81.095H156.116V80.413H156.798V79.06H157.48V78.499H154.763V77.696H158.162V75.661H158.954V77.696H162.353V78.499H158.272V79.06H159.636V79.742H160.318V81.095H160.879V80.413H162.232V79.742H163.706V80.534H162.353V81.216H160.989V81.898H160.318V84.615H159.515V82.58H158.272V83.251H157.601V85.176H163.035V85.99H157.48V85.308H156.798V83.141H157.48V82.459H158.162V81.777H159.515V79.852H157.601V80.534H156.919V81.216H156.237V82.58H155.555V83.251H154.763V82.459ZM165.961 84.483H167.336V83.812H168.689V83.13H170.053V82.569H165.961V81.766H170.724V81.205H169.371V77.003H170.053V76.332H170.724V75.65H171.527V76.442H170.845V77.003H172.88V81.205H171.527V81.766H176.279V82.569H172.209V83.13H173.562V83.812H174.926V84.483H176.279V85.297H174.805V84.604H173.441V83.922H172.088V83.24H171.527V85.979H170.724V83.24H170.163V83.922H168.81V84.604H167.446V85.297H165.961V84.483ZM168.007 77.806H167.336V77.124H166.654V76.332H167.446V77.003H168.128V77.685H168.81V78.488H168.007V77.806ZM173.441 77.685H174.123V77.003H174.805V76.332H175.597V77.124H174.926V77.806H174.244V78.488H173.441V77.685ZM172.088 78.367V77.806H170.163V78.367H172.088ZM165.961 80.402H167.336V79.731H168.007V79.049H168.81V79.841H168.128V80.523H167.446V81.205H165.961V80.402ZM173.441 79.049H174.244V79.731H174.926V80.402H176.279V81.205H174.805V80.523H174.123V79.841H173.441V79.049ZM172.088 80.402V79.17H170.163V80.402H172.088ZM178.864 76.343H179.656V83.823H180.338V84.494H183.616V83.823H184.969V83.141H185.651V82.459H186.333V81.777H187.125V82.58H186.454V83.251H185.772V83.933H185.09V84.615H183.737V85.308H180.217V84.615H179.535V83.933H178.864V76.343ZM191.085 83.251H190.403V80.413H191.085V79.742H192.438V78.499H190.403V77.696H192.438V75.661H193.241V77.696H195.958V78.499H193.241V83.251H192.559V85.176H197.19V84.494H197.872V82.58H197.19V81.777H197.993V82.459H198.675V84.615H197.993V85.308H197.311V85.99H192.438V85.308H191.756V83.933H191.085V83.251ZM198.554 79.181H197.872V78.499H197.19V77.817H196.519V77.014H197.311V77.696H197.993V78.378H198.675V79.06H199.346V80.534H198.554V79.181ZM192.438 83.141V80.534H191.195V83.141H192.438ZM203.306 77.014H210.214V77.817H203.306V77.014ZM202.624 82.459H203.306V81.777H204.098V82.58H203.416V83.823H204.78V84.494H210.093V83.823H210.896V84.615H210.214V85.308H204.659V84.615H203.306V83.933H202.624V82.459ZM214.504 81.777H215.186V81.095H215.857V80.413H217.221V75.661H218.013V79.742H219.256V79.06H222.776V79.852H219.377V80.534H217.342V81.216H215.978V81.898H215.296V83.823H216.66V84.494H222.776V85.308H216.539V84.615H215.186V83.933H214.504V81.777ZM225.702 83.823H226.384V82.459H227.055V80.413H227.737V79.181H225.702V78.378H228.419V75.661H229.211V78.378H231.257V79.06H231.928V83.251H231.257V84.615H230.575V85.308H227.737V84.494H230.454V83.141H231.136V79.181H228.54V80.534H227.858V82.58H227.176V83.933H226.494V85.308H225.702V83.823ZM233.171 77.135H232.489V76.343H233.171V75.661H233.974V76.343H234.645V77.014H235.327V77.817H234.645V78.499H233.853V77.817H233.171V77.135ZM233.853 77.014V76.453H233.292V77.014H233.853ZM234.524 77.696V77.135H233.974V77.696H234.524ZM231.818 77.696H232.61V78.378H233.292V79.06H233.974V79.742H234.645V81.095H235.327V81.898H234.524V81.216H233.853V79.852H233.171V79.181H232.489V78.499H231.818V77.696ZM239.969 80.413H240.651V79.742H241.333V79.06H242.004V78.378H242.686V77.817H237.241V77.014H246.877V77.817H244.16V78.499H242.807V79.181H242.125V79.852H241.443V80.534H240.772V83.141H241.443V83.823H242.125V84.494H245.524V85.308H242.004V84.615H240.651V83.251H239.969V80.413ZM245.403 78.378H246.206V79.06H246.877V79.742H247.559V80.534H246.756V79.852H246.085V79.181H245.403V78.378ZM244.05 79.06H244.842V79.742H245.524V80.413H246.206V81.216H245.403V80.534H244.721V79.852H244.05V79.06ZM250.826 82.459H251.497V81.777H256.26V81.216H255.578V80.534H250.144V79.742H254.896V79.181H254.214V78.499H250.144V77.696H253.543V77.135H252.861V75.661H253.653V77.014H254.335V77.696H255.578V77.014H257.734V77.817H255.699V78.499H255.017V79.06H255.699V79.742H256.26V79.06H258.416V79.852H256.37V81.095H257.052V81.777H257.734V82.459H258.416V83.251H256.931V82.58H251.618V84.494H257.734V85.308H251.497V84.615H250.826V82.459ZM262.024 83.141H262.706V82.459H266.094V80.534H262.024V79.742H266.094V78.499H262.024V77.696H266.094V75.661H266.897V77.696H270.296V78.499H266.897V79.742H270.296V80.534H266.897V83.141H268.25V83.823H268.932V84.494H269.614V85.176H270.296V85.99H269.493V85.308H268.811V84.615H268.14V83.933H266.897V85.308H266.215V85.99H262.706V85.308H262.024V83.141ZM266.094 85.176V83.251H262.816V85.176H266.094ZM277.314 85.176V84.494H277.985V83.823H278.667V82.58H278.106V83.251H275.95V82.58H275.268V80.413H275.95V79.742H278.106V80.413H278.667V78.499H273.222V77.696H278.667V75.661H279.47V77.696H282.858V78.499H279.47V83.933H278.788V84.615H278.106V85.308H277.424V85.99H275.95V85.176H277.314ZM277.985 82.459V81.777H278.667V81.216H277.985V80.534H276.071V82.459H277.985ZM285.113 83.141H285.795V82.459H287.951V83.141H288.622V85.308H287.951V85.99H285.795V85.308H285.113V83.141ZM287.83 85.176V83.251H285.905V85.176H287.83Z"></path>
</svg>
