<svg version="1.1" xmlns="http://www.w3.org/2000/svg" xmlns:xlink="http://www.w3.org/1999/xlink" width="258.536" height="52.32" viewBox="0,0,258.536,52.32"><g transform="translate(-115.61832,-109.7259)"><g data-paper-data="{&quot;isPaintingLayer&quot;:true}" fill-rule="nonzero" stroke="none" stroke-width="1" stroke-linecap="butt" stroke-linejoin="miter" stroke-miterlimit="10" stroke-dasharray="" stroke-dashoffset="0" style="mix-blend-mode: normal"><path d="M124.54633,112.92591v-2h2v2zM130.05032,110.92591h2v2h-2zM130.05032,123.80591h-2v-2h2zM133.02633,119.80591h2v2h-2zM133.02633,126.78191h-2v-2h2zM135.95433,122.78191h2v2h-2zM135.95433,129.75791h-2v-2h2zM140.40232,127.75791v2h-2v-2zM136.40232,115.90191v-2h2v2zM141.90633,113.90191h2v2h-2zM141.90633,126.78191h-2v-2h2zM149.33032,124.78191v2h-2v-2zM145.33032,112.92591v-2h2v2zM150.78633,110.92591h2v2h-2zM150.78633,126.78191h-2v-2h2zM159.66633,122.78191h2v2h-2zM161.66633,128.28591v2h-2v-2zM148.78633,128.28591v-2h2v2zM150.78633,138.6379h-2v-2h2zM159.66633,134.6379h2v2h-2zM161.66633,140.14191v2h-2v-2zM148.78633,140.14191v-2h2v2zM150.78633,153.46991h-2v-2h2zM162.64233,149.46991h2v2h-2zM164.64233,155.02191v2h-2v-2zM132.49833,157.02191h-2v-2h2zM130.49833,151.46991v-2h2v2zM149.33032,151.46991v2h-2v-2zM147.33032,138.14191h2v2h-2zM138.40232,142.14191h-2v-2h2zM136.40232,136.6379v-2h2v2zM149.33032,136.6379v2h-2v-2zM147.33032,126.28591h2v2h-2zM136.93033,128.28591v-2h2v2zM140.93033,134.18991v2h-2v-2zM133.95433,134.18991v-2h2v2zM137.95433,137.16591v2h-2v-2zM132.49833,139.16591h-2v-2h2zM130.49833,133.6619v-2h2v2zM137.47433,133.6619v2h-2v-2zM135.47433,129.21391h2v2h-2zM132.49833,133.21391h-2v-2h2zM132.49833,123.30991h2v2h-2zM128.05032,125.30991v-2h2v2zM132.05032,157.99791v2h-2v-2zM126.54633,159.99791h-2v-2h2zM115.61833,133.6619v-2h2v2zM122.64233,133.6619v2h-2v-2zM118.64233,124.78191v-2h2v2zM124.09833,122.78191h2v2h-2zM126.09833,134.18991v2h-2v-2zM119.17033,134.18991v-2h2v2zM123.17033,140.14191v2h-2v-2zM117.61833,142.14191h-2v-2h2zM126.54633,110.92591h3.504v4h-3.504zM132.05032,112.92591v8.88h-4v-8.88zM130.05032,119.80591h2.976v4h-2.976zM135.02633,121.80591v2.976h-4v-2.976zM133.02633,122.78191h2.928v4h-2.928zM137.95433,124.78191v2.976h-4v-2.976zM135.95433,125.75791h2.448v4h-2.448zM136.40232,127.75791v-11.856h4v11.856zM138.40232,113.90191h3.504v4h-3.504zM143.90633,115.90191v8.88h-4v-8.88zM141.90633,122.78191h5.424v4h-5.424zM145.33032,124.78191v-11.856h4v11.856zM147.33032,110.92591h3.456v4h-3.456zM152.78633,112.92591v11.856h-4v-11.856zM150.78633,122.78191h8.88v4h-8.88zM161.66633,124.78191v3.504h-4v-3.504zM159.66633,130.28591h-8.88v-4h8.88zM152.78633,128.28591v8.352h-4v-8.352zM150.78633,134.6379h8.88v4h-8.88zM161.66633,136.6379v3.504h-4v-3.504zM159.66633,142.14191h-8.88v-4h8.88zM152.78633,140.14191v11.328h-4v-11.328zM150.78633,149.46991h11.856v4h-11.856zM164.64233,151.46991v3.552h-4v-3.552zM162.64233,157.02191h-30.144v-4h30.144zM130.49833,155.02191v-3.552h4v3.552zM132.49833,149.46991h14.832v4h-14.832zM145.33032,151.46991v-11.328h4v11.328zM147.33032,142.14191h-8.928v-4h8.928zM136.40232,140.14191v-3.504h4v3.504zM138.40232,134.6379h8.928v4h-8.928zM145.33032,136.6379v-8.352h4v8.352zM147.33032,130.28591h-8.4v-4h8.4zM140.93033,128.28591v5.904h-4v-5.904zM138.93033,136.18991h-2.976v-4h2.976zM137.95433,134.18991v2.976h-4v-2.976zM135.95433,139.16591h-3.456v-4h3.456zM130.49833,137.16591v-3.504h4v3.504zM132.49833,131.6619h2.976v4h-2.976zM133.47433,133.6619v-2.448h4v2.448zM135.47433,133.21391h-2.976v-4h2.976zM130.49833,131.21391v-5.904h4v5.904zM132.49833,127.30991h-2.448v-4h2.448zM132.05032,125.30991v32.688h-4v-32.688zM130.05032,159.99791h-3.504v-4h3.504zM124.54633,157.99791v-45.072h4v45.072zM117.61833,131.6619h3.024v4h-3.024zM118.64233,133.6619v-8.88h4v8.88zM120.64233,122.78191h3.456v4h-3.456zM126.09833,124.78191v9.408h-4v-9.408zM124.09833,136.18991h-2.928v-4h2.928zM123.17033,134.18991v5.952h-4v-5.952zM121.17033,142.14191h-3.552v-4h3.552zM115.61833,140.14191v-6.48h4v6.48z" fill="#ffffff"/><path d="M126.54633,112.92591h3.504v8.88h2.976v2.976h2.928v2.976h2.448v-11.856h3.504v8.88h5.424v-11.856h3.456v11.856h8.88v3.504h-8.88v8.352h8.88v3.504h-8.88v11.328h11.856v3.552h-30.144v-3.552h14.832v-11.328h-8.928v-3.504h8.928v-8.352h-8.4v5.904h-2.976v2.976h-3.456v-3.504h2.976v-2.448h-2.976v-5.904h-2.448v32.688h-3.504zM117.61833,133.6619h3.024v-8.88h3.456v9.408h-2.928v5.952h-3.552z" fill="#ff9a51"/><path d="M174.74633,138.07391h2v2h-2zM170.91033,140.07391v-2h2v2zM174.91033,146.76991v2h-2v-2zM170.24633,148.76991h-2v-2h2zM168.24633,139.67791v-2h2v2zM174.51433,139.67791v2h-2v-2zM172.51433,133.64591h2v2h-2zM170.24633,137.64591h-2v-2h2zM168.24633,133.01791v-2h2v2zM176.74633,133.01791v2h-2v-2zM172.74633,124.12591v-2h2v2zM177.33833,122.12591h2v2h-2zM177.33833,135.01791h-2v-2h2zM181.80233,131.01791h2v2h-2zM181.80233,137.24991h-2v-2h2zM185.63833,135.24991v2h-2v-2zM181.63833,130.78591v-2h2v2zM187.83433,130.78591v2h-2v-2zM183.83433,124.12591v-2h2v2zM188.46233,122.12591h2v2h-2zM188.46233,130.5539h-2v-2h2zM199.58633,126.55391h2v2h-2zM201.58633,133.41391v2h-2v-2zM195.35433,133.41391v-2h2v2zM199.35433,135.64591v2h-2v-2zM193.12233,135.64591v-2h2v2zM197.12233,137.84191v2h-2v-2zM190.89033,137.84191v-2h2v2zM192.89033,141.67791h-2v-2h2zM197.35433,137.67791h2v2h-2zM197.35433,143.90991h-2v-2h2zM204.01433,139.90991h2v2h-2zM206.01433,144.53791v2h-2v-2zM197.58633,144.53791v-2h2v2zM201.58633,157.92991v2h-2v-2zM196.95833,159.92991h-2v-2h2zM196.95833,153.69791h2v2h-2zM184.23033,155.69791v-2h2v2zM188.23033,157.92991v2h-2v-2zM183.63833,159.92991h-2v-2h2zM183.63833,142.53791h2v2h-2zM181.40633,146.53791h-2v-2h2zM181.40633,140.30591h2v2h-2zM179.17433,144.30591h-2v-2h2zM179.17433,138.07391h2v2h-2zM175.33833,140.07391v-2h2v2zM179.33833,157.92991v2h-2v-2zM174.74633,159.92991h-2v-2h2zM190.69433,133.24991h2v2h-2zM190.69433,139.48191h-2v-2h2zM194.53033,137.48191v2h-2v-2zM190.53033,135.24991v-2h2v2zM196.72633,135.24991v2h-2v-2zM192.72633,133.01791v-2h2v2zM198.95833,133.01791v2h-2v-2zM196.95833,129.18191h2v2h-2zM184.23033,131.18191v-2h2v2zM186.23033,135.01791h-2v-2h2zM188.46233,131.01791h2v2h-2zM188.46233,137.24991h-2v-2h2zM187.83433,141.90991v2h-2v-2zM183.83433,139.67791v-2h2v2zM192.29833,139.67791v2h-2v-2zM190.29833,135.84191h2v2h-2zM188.06633,139.84191h-2v-2h2zM188.06633,133.64591h2v2h-2zM181.99833,135.64591v-2h2v2zM185.99833,137.84191v2h-2v-2zM181.40633,139.84191h-2v-2h2zM181.40633,133.64591h2v2h-2zM175.33833,135.64591v-2h2v2zM177.33833,139.48191h-2v-2h2zM179.57033,135.48191h2v2h-2zM179.57033,141.67791h-2v-2h2zM181.80233,137.67791h2v2h-2zM181.80233,143.90991h-2v-2h2zM198.95833,144.14191v2h-2v-2zM196.95833,140.30591h2v2h-2zM192.53033,144.30591h-2v-2h2zM192.53033,138.07391h2v2h-2zM188.69433,140.07391v-2h2v2zM192.69433,142.30591v2h-2v-2zM184.23033,142.30591v-2h2v2zM186.23033,146.14191h-2v-2h2zM198.95833,153.03391v2h-2v-2zM196.95833,144.76991h2v2h-2zM184.23033,146.76991v-2h2v2zM186.23033,155.03391h-2v-2h2zM174.74633,142.07391h-1.836v-4h1.836zM174.91033,140.07391v6.696h-4v-6.696zM172.91033,148.76991h-2.664v-4h2.664zM168.24633,146.76991v-7.092h4v7.092zM170.24633,137.67791h2.268v4h-2.268zM170.51433,139.67791v-4.032h4v4.032zM172.51433,137.64591h-2.268v-4h2.268zM168.24633,135.64591v-2.628h4v2.628zM170.24633,131.01791h4.5v4h-4.5zM172.74633,133.01791v-8.892h4v8.892zM174.74633,122.12591h2.592v4h-2.592zM179.33833,124.12591v8.892h-4v-8.892zM177.33833,131.01791h4.464v4h-4.464zM183.80233,133.01791v2.232h-4v-2.232zM181.80233,133.24991h1.836v4h-1.836zM181.63833,135.24991v-4.464h4v4.464zM183.63833,128.78591h2.196v4h-2.196zM183.83433,130.78591v-6.66h4v6.66zM185.83433,122.12591h2.628v4h-2.628zM190.46233,124.12591v4.428h-4v-4.428zM188.46233,126.55391h11.124v4h-11.124zM201.58633,128.5539v4.86h-4v-4.86zM199.58633,135.41391h-2.232v-4h2.232zM199.35433,133.41391v2.232h-4v-2.232zM197.35433,137.64591h-2.232v-4h2.232zM197.12233,135.64591v2.196h-4v-2.196zM195.12233,139.84191h-2.232v-4h2.232zM194.89033,137.84191v1.836h-4v-1.836zM192.89033,137.67791h4.464v4h-4.464zM199.35433,139.67791v2.232h-4v-2.232zM197.35433,139.90991h6.66v4h-6.66zM206.01433,141.90991v2.628h-4v-2.628zM204.01433,146.53791h-4.428v-4h4.428zM201.58633,144.53791v13.392h-4v-13.392zM199.58633,159.92991h-2.628v-4h2.628zM194.95833,157.92991v-2.232h4v2.232zM196.95833,157.69791h-10.728v-4h10.728zM188.23033,155.69791v2.232h-4v-2.232zM186.23033,159.92991h-2.592v-4h2.592zM181.63833,157.92991v-13.392h4v13.392zM183.63833,146.53791h-2.232v-4h2.232zM179.40633,144.53791v-2.232h4v2.232zM181.40633,144.30591h-2.232v-4h2.232zM177.17433,142.30591v-2.232h4v2.232zM179.17433,142.07391h-1.836v-4h1.836zM179.33833,140.07391v17.856h-4v-17.856zM177.33833,159.92991h-2.592v-4h2.592zM172.74633,157.92991v-17.856h4v17.856zM192.69433,135.24991v2.232h-4v-2.232zM190.69433,135.48191h1.836v4h-1.836zM190.53033,137.48191v-2.232h4v2.232zM192.53033,133.24991h2.196v4h-2.196zM192.72633,135.24991v-2.232h4v2.232zM194.72633,131.01791h2.232v4h-2.232zM194.95833,133.01791v-1.836h4v1.836zM196.95833,133.18191h-10.728v-4h10.728zM188.23033,131.18191v1.836h-4v-1.836zM186.23033,131.01791h2.232v4h-2.232zM190.46233,133.01791v2.232h-4v-2.232zM188.46233,133.24991h2.232v4h-2.232zM183.83433,141.90991v-2.232h4v2.232zM185.83433,137.67791h4.464v4h-4.464zM188.29833,139.67791v-1.836h4v1.836zM190.29833,139.84191h-2.232v-4h2.232zM186.06633,137.84191v-2.196h4v2.196zM188.06633,137.64591h-4.068v-4h4.068zM185.99833,135.64591v2.196h-4v-2.196zM183.99833,139.84191h-2.592v-4h2.592zM179.40633,137.84191v-2.196h4v2.196zM181.40633,137.64591h-4.068v-4h4.068zM179.33833,135.64591v1.836h-4v-1.836zM177.33833,135.48191h2.232v4h-2.232zM181.57033,137.48191v2.196h-4v-2.196zM179.57033,137.67791h2.232v4h-2.232zM183.80233,139.67791v2.232h-4v-2.232zM181.80233,139.90991h4.032v4h-4.032zM194.95833,144.14191v-1.836h4v1.836zM196.95833,144.30591h-4.428v-4h4.428zM190.53033,142.30591v-2.232h4v2.232zM192.53033,142.07391h-1.836v-4h1.836zM192.69433,140.07391v2.232h-4v-2.232zM190.69433,144.30591h-4.464v-4h4.464zM188.23033,142.30591v1.836h-4v-1.836zM186.23033,142.14191h10.728v4h-10.728zM194.95833,153.03391v-6.264h4v6.264zM196.95833,148.76991h-10.728v-4h10.728zM188.23033,146.76991v6.264h-4v-6.264zM186.23033,151.03391h10.728v4h-10.728z" fill="#ffffff"/><path d="M174.74633,140.07391h-1.836v6.696h-2.664v-7.092h2.268v-4.032h-2.268v-2.628h4.5v-8.892h2.592v8.892h4.464v2.232h1.836v-4.464h2.196v-6.66h2.628v4.428h11.124v4.86h-2.232v2.232h-2.232v2.196h-2.232v1.836h4.464v2.232h6.66v2.628h-4.428v13.392h-2.628v-2.232h-10.728v2.232h-2.592v-13.392h-2.232v-2.232h-2.232v-2.232h-1.836v17.856h-2.592zM190.69433,135.24991v2.232h1.836v-2.232h2.196v-2.232h2.232v-1.836h-10.728v1.836h2.232v2.232zM185.83433,141.90991v-2.232h4.464v-1.836h-2.232v-2.196h-4.068v2.196h-2.592v-2.196h-4.068v1.836h2.232v2.196h2.232v2.232zM196.95833,144.14191v-1.836h-4.428v-2.232h-1.836v2.232h-4.464v1.836zM196.95833,153.03391v-6.264h-10.728v6.264z" fill="#000000"/><path d="M207.37033,121.60591v-2h2v2zM231.17033,121.60591v2h-2v-2zM227.17033,119.12591v-2h2v2zM233.65033,119.12591v2h-2v-2zM229.65033,116.64591v-2h2v2zM236.13033,116.64591v2h-2v-2zM232.13033,111.72591v-2h2v2zM237.01033,109.72591h2v2h-2zM237.01033,118.64591h-2v-2h2zM239.49033,114.64591h2v2h-2zM239.49033,121.12591h-2v-2h2zM241.97033,117.12591h2v2h-2zM241.97033,123.60591h-2v-2h2zM246.89033,119.60591h2v2h-2zM248.89033,124.52591v2h-2v-2zM241.53033,126.52591h-2v-2h2zM241.53033,120.04591h2v2h-2zM239.05033,124.04591h-2v-2h2zM239.05033,117.56591h2v2h-2zM236.57033,121.56591h-2v-2h2zM236.57033,115.08591h2v2h-2zM232.53033,117.08591v-2h2v2zM236.53033,119.56591v2h-2v-2zM230.09033,119.56591v-2h2v2zM234.09033,122.04591v2h-2v-2zM227.61033,122.04591v-2h2v2zM231.61033,124.52591v2h-2v-2zM209.37033,126.52591h-2v-2h2zM209.89033,114.20591v-2h2v2zM222.21033,112.20591h2v2h-2zM224.21033,117.08591v2h-2v-2zM211.89033,119.08591h-2v-2h2zM224.69033,129.00591v-2h2v2zM233.65033,129.00591v2h-2v-2zM229.65033,126.56591v-2h2v2zM238.57033,126.56591v2h-2v-2zM234.57033,124.08591v-2h2v2zM239.49033,122.08591h2v2h-2zM241.49033,126.96591v2h-2v-2zM235.01033,126.96591v-2h2v2zM239.01033,129.44591v2h-2v-2zM230.09033,129.44591v-2h2v2zM234.09033,131.92591v2h-2v-2zM226.69033,133.92591h-2v-2h2zM209.89033,126.56591v-2h2v2zM222.21033,124.56591h2v2h-2zM224.21033,129.44591v2h-2v-2zM211.89033,131.44591h-2v-2h2zM224.69033,136.44591v-2h2v2zM236.13033,136.44591v2h-2v-2zM232.13033,133.96591v-2h2v2zM241.05033,133.96591v2h-2v-2zM237.05033,131.48591v-2h2v2zM241.97033,129.48591h2v2h-2zM243.97033,134.4059v2h-2v-2zM237.49033,134.4059v-2h2v2zM241.49033,136.88591v2h-2v-2zM232.53033,136.88591v-2h2v2zM236.53033,139.32591v2h-2v-2zM226.69033,141.32591h-2v-2h2zM209.89033,131.48591v-2h2v2zM222.21033,129.48591h2v2h-2zM224.21033,134.4059v2h-2v-2zM211.89033,136.4059h-2v-2h2zM209.89033,136.44591v-2h2v2zM222.21033,134.44591h2v2h-2zM224.21033,146.80591v2h-2v-2zM212.77033,146.80591v-2h2v2zM216.77033,149.28591v2h-2v-2zM211.89033,151.28591h-2v-2h2zM236.13033,146.32591v2h-2v-2zM232.13033,143.8459v-2h2v2zM238.57033,143.8459v2h-2v-2zM234.57033,141.4059v-2h2v2zM243.53033,141.4059v2h-2v-2zM239.53033,138.92591v-2h2v2zM245.97033,138.92591v2h-2v-2zM241.97033,136.44591v-2h2v2zM246.89033,134.44591h2v2h-2zM248.89033,139.32591v2h-2v-2zM242.41033,139.32591v-2h2v2zM246.41033,141.80591v2h-2v-2zM239.97033,141.80591v-2h2v2zM243.97033,144.28591v2h-2v-2zM235.01033,144.28591v-2h2v2zM239.01033,146.80591v2h-2v-2zM232.53033,146.80591v-2h2v2zM236.53033,149.28591v2h-2v-2zM226.69033,151.28591h-2v-2h2zM224.69033,146.32591v-2h2v2zM221.29033,143.8459v2h-2v-2zM219.29033,137.32591h2v2h-2zM212.77033,139.32591v-2h2v2zM214.77033,145.8459h-2v-2h2zM209.37033,119.60591h19.8v4h-19.8zM227.17033,121.60591v-2.48h4v2.48zM229.17033,117.12591h2.48v4h-2.48zM229.65033,119.12591v-2.48h4v2.48zM231.65033,114.64591h2.48v4h-2.48zM232.13033,116.64591v-4.92h4v4.92zM234.13033,109.72591h2.88v4h-2.88zM239.01033,111.72591v4.92h-4v-4.92zM237.01033,114.64591h2.48v4h-2.48zM241.49033,116.64591v2.48h-4v-2.48zM239.49033,117.12591h2.48v4h-2.48zM243.97033,119.12591v2.48h-4v-2.48zM241.97033,119.60591h4.92v4h-4.92zM248.89033,121.60591v2.92h-4v-2.92zM246.89033,126.52591h-5.36v-4h5.36zM239.53033,124.52591v-2.48h4v2.48zM241.53033,124.04591h-2.48v-4h2.48zM237.05033,122.04591v-2.48h4v2.48zM239.05033,121.56591h-2.48v-4h2.48zM234.57033,119.56591v-2.48h4v2.48zM236.57033,119.08591h-2.04v-4h2.04zM236.53033,117.08591v2.48h-4v-2.48zM234.53033,121.56591h-2.44v-4h2.44zM234.09033,119.56591v2.48h-4v-2.48zM232.09033,124.04591h-2.48v-4h2.48zM231.61033,122.04591v2.48h-4v-2.48zM229.61033,126.52591h-20.24v-4h20.24zM207.37033,124.52591v-2.92h4v2.92zM211.89033,112.20591h10.32v4h-10.32zM224.21033,114.20591v2.88h-4v-2.88zM222.21033,119.08591h-10.32v-4h10.32zM209.89033,117.08591v-2.88h4v2.88zM226.69033,127.00591h4.96v4h-4.96zM229.65033,129.00591v-2.44h4v2.44zM231.65033,124.56591h4.92v4h-4.92zM234.57033,126.56591v-2.48h4v2.48zM236.57033,122.08591h2.92v4h-2.92zM241.49033,124.08591v2.88h-4v-2.88zM239.49033,128.96591h-2.48v-4h2.48zM239.01033,126.96591v2.48h-4v-2.48zM237.01033,131.44591h-4.92v-4h4.92zM234.09033,129.44591v2.48h-4v-2.48zM232.09033,133.92591h-5.4v-4h5.4zM224.69033,131.92591v-2.92h4v2.92zM211.89033,124.56591h10.32v4h-10.32zM224.21033,126.56591v2.88h-4v-2.88zM222.21033,131.44591h-10.32v-4h10.32zM209.89033,129.44591v-2.88h4v2.88zM226.69033,134.44591h7.44v4h-7.44zM232.13033,136.44591v-2.48h4v2.48zM234.13033,131.96591h4.92v4h-4.92zM237.05033,133.96591v-2.48h4v2.48zM239.05033,129.48591h2.92v4h-2.92zM243.97033,131.48591v2.92h-4v-2.92zM241.97033,136.4059h-2.48v-4h2.48zM241.49033,134.4059v2.48h-4v-2.48zM239.49033,138.88591h-4.96v-4h4.96zM236.53033,136.88591v2.44h-4v-2.44zM234.53033,141.32591h-7.84v-4h7.84zM224.69033,139.32591v-2.88h4v2.88zM211.89033,129.48591h10.32v4h-10.32zM224.21033,131.48591v2.92h-4v-2.92zM222.21033,136.4059h-10.32v-4h10.32zM209.89033,134.4059v-2.92h4v2.92zM211.89033,134.44591h10.32v4h-10.32zM224.21033,136.44591v10.36h-4v-10.36zM222.21033,148.80591h-7.44v-4h7.44zM216.77033,146.80591v2.48h-4v-2.48zM214.77033,151.28591h-2.88v-4h2.88zM209.89033,149.28591v-12.84h4v12.84zM232.13033,146.32591v-2.48h4v2.48zM234.13033,141.8459h2.44v4h-2.44zM234.57033,143.8459v-2.44h4v2.44zM236.57033,139.4059h4.96v4h-4.96zM239.53033,141.4059v-2.48h4v2.48zM241.53033,136.92591h2.44v4h-2.44zM241.97033,138.92591v-2.48h4v2.48zM243.97033,134.44591h2.92v4h-2.92zM248.89033,136.44591v2.88h-4v-2.88zM246.89033,141.32591h-2.48v-4h2.48zM246.41033,139.32591v2.48h-4v-2.48zM244.41033,143.80591h-2.44v-4h2.44zM243.97033,141.80591v2.48h-4v-2.48zM241.97033,146.28591h-4.96v-4h4.96zM239.01033,144.28591v2.52h-4v-2.52zM237.01033,148.80591h-2.48v-4h2.48zM236.53033,146.80591v2.48h-4v-2.48zM234.53033,151.28591h-7.84v-4h7.84zM224.69033,149.28591v-2.96h4v2.96zM226.69033,144.32591h7.44v4h-7.44zM217.29033,143.8459v-4.52h4v4.52zM219.29033,141.32591h-4.52v-4h4.52zM216.77033,139.32591v4.52h-4v-4.52zM214.77033,141.8459h4.52v4h-4.52z" fill="#ffffff"/><path d="M209.37033,121.60591h19.8v-2.48h2.48v-2.48h2.48v-4.92h2.88v4.92h2.48v2.48h2.48v2.48h4.92v2.92h-5.36v-2.48h-2.48v-2.48h-2.48v-2.48h-2.04v2.48h-2.44v2.48h-2.48v2.48h-20.24zM211.89033,114.20591h10.32v2.88h-10.32zM226.69033,129.00591h4.96v-2.44h4.92v-2.48h2.92v2.88h-2.48v2.48h-4.92v2.48h-5.4zM211.89033,126.56591h10.32v2.88h-10.32zM226.69033,136.44591h7.44v-2.48h4.92v-2.48h2.92v2.92h-2.48v2.48h-4.96v2.44h-7.84zM211.89033,131.48591h10.32v2.92h-10.32zM211.89033,136.44591h10.32v10.36h-7.44v2.48h-2.88zM234.13033,146.32591v-2.48h2.44v-2.44h4.96v-2.48h2.44v-2.48h2.92v2.88h-2.48v2.48h-2.44v2.48h-4.96v2.52h-2.48v2.48h-7.84v-2.96zM219.29033,143.8459v-4.52h-4.52v4.52z" fill="#ff9a51"/><path d="M250.36233,126.35791v-2h2v2zM257.18633,124.35791h2v2h-2zM257.18633,130.5539h-2v-2h2zM259.41833,126.55391h2v2h-2zM259.41833,132.78591h-2v-2h2zM263.25433,130.78591v2h-2v-2zM259.25433,124.12591v-2h2v2zM263.84632,122.12591h2v2h-2zM263.84632,132.78591h-2v-2h2zM267.68233,130.78591v2h-2v-2zM263.68233,126.35791v-2h2v2zM268.31032,124.35791h2v2h-2zM270.31032,131.18191v2h-2v-2zM264.07833,131.18191v-2h2v2zM268.07833,133.41391v2h-2v-2zM261.84632,133.41391v-2h2v2zM263.84632,137.24991h-2v-2h2zM268.31032,133.24991h2v2h-2zM270.31032,137.84191v2h-2v-2zM264.07833,137.84191v-2h2v2zM266.07833,141.67791h-2v-2h2zM268.31032,137.67791h2v2h-2zM270.31032,146.76991v2h-2v-2zM265.68233,148.76991h-2v-2h2zM265.68233,138.07391h2v2h-2zM261.84632,140.07391v-2h2v2zM265.84632,151.19791v2h-2v-2zM261.25433,153.19791h-2v-2h2zM261.25433,140.30591h2v2h-2zM257.41833,142.30591v-2h2v2zM261.41833,146.76991v2h-2v-2zM255.18633,146.76991v-2h2v2zM259.18633,148.96591v2h-2v-2zM252.95433,148.96591v-2h2v2zM254.95433,155.03391h-2v-2h2zM272.14633,153.03391v2h-2v-2zM268.14633,126.35791v-2h2v2zM278.80633,126.35791v2h-2v-2zM274.80633,124.12591v-2h2v2zM281.63033,122.12591h2v2h-2zM283.63033,126.71791v2h-2v-2zM275.20232,126.71791v-2h2v2zM279.20232,128.94991v2h-2v-2zM270.73832,128.94991v-2h2v2zM272.73832,137.24991h-2v-2h2zM283.86233,133.24991h2v2h-2zM285.86233,137.84191v2h-2v-2zM277.43433,137.84191v-2h2v2zM281.43433,157.92991v2h-2v-2zM276.80633,159.92991h-2v-2h2zM276.80633,135.84191h2v2h-2zM270.73832,137.84191v-2h2v2zM274.73832,153.42991v2h-2v-2zM268.54233,153.42991v-2h2v2zM272.54233,157.92991v2h-2v-2zM267.91433,159.92991h-2v-2h2zM267.91433,153.69791h2v2h-2zM252.95433,155.69791v-2h2v2zM256.95433,157.92991v2h-2v-2zM252.36233,159.92991h-2v-2h2zM263.25433,135.24991v2h-2v-2zM261.25433,131.41391h2v2h-2zM259.02233,135.41391h-2v-2h2zM259.02233,129.18191h2v2h-2zM256.79033,133.18191h-2v-2h2zM256.79033,126.94991h2v2h-2zM252.95433,128.94991v-2h2v2zM254.95433,137.24991h-2v-2h2zM258.79033,146.37391v2h-2v-2zM254.79033,141.90991v-2h2v2zM261.02233,141.90991v2h-2v-2zM257.02233,139.67791v-2h2v2zM263.25433,139.67791v2h-2v-2zM261.25433,135.84191h2v2h-2zM252.95433,137.84191v-2h2v2zM254.95433,148.37391h-2v-2h2zM252.36233,124.35791h4.824v4h-4.824zM259.18633,126.35791v2.196h-4v-2.196zM257.18633,126.55391h2.232v4h-2.232zM261.41833,128.5539v2.232h-4v-2.232zM259.41833,128.78591h1.836v4h-1.836zM259.25433,130.78591v-6.66h4v6.66zM261.25433,122.12591h2.592v4h-2.592zM265.84632,124.12591v6.66h-4v-6.66zM263.84632,128.78591h1.836v4h-1.836zM263.68233,130.78591v-4.428h4v4.428zM265.68233,124.35791h2.628v4h-2.628zM270.31032,126.35791v4.824h-4v-4.824zM268.31032,133.18191h-2.232v-4h2.232zM268.07833,131.18191v2.232h-4v-2.232zM266.07833,135.41391h-2.232v-4h2.232zM265.84632,133.41391v1.836h-4v-1.836zM263.84632,133.24991h4.464v4h-4.464zM270.31032,135.24991v2.592h-4v-2.592zM268.31032,139.84191h-2.232v-4h2.232zM268.07833,137.84191v1.836h-4v-1.836zM266.07833,137.67791h2.232v4h-2.232zM270.31032,139.67791v7.092h-4v-7.092zM268.31032,148.76991h-2.628v-4h2.628zM263.68233,146.76991v-6.696h4v6.696zM265.68233,142.07391h-1.836v-4h1.836zM265.84632,140.07391v11.124h-4v-11.124zM263.84632,153.19791h-2.592v-4h2.592zM259.25433,151.19791v-8.892h4v8.892zM261.25433,144.30591h-1.836v-4h1.836zM261.41833,142.30591v4.464h-4v-4.464zM259.41833,148.76991h-2.232v-4h2.232zM259.18633,146.76991v2.196h-4v-2.196zM257.18633,150.96591h-2.232v-4h2.232zM256.95433,148.96591v4.068h-4v-4.068zM254.95433,151.03391h15.192v4h-15.192zM268.14633,153.03391v-26.676h4v26.676zM270.14633,124.35791h6.66v4h-6.66zM274.80633,126.35791v-2.232h4v2.232zM276.80633,122.12591h4.824v4h-4.824zM283.63033,124.12591v2.592h-4v-2.592zM281.63033,128.71791h-4.428v-4h4.428zM279.20232,126.71791v2.232h-4v-2.232zM277.20232,130.94991h-4.464v-4h4.464zM274.73832,128.94991v6.3h-4v-6.3zM272.73832,133.24991h11.124v4h-11.124zM285.86233,135.24991v2.592h-4v-2.592zM283.86233,139.84191h-4.428v-4h4.428zM281.43433,137.84191v20.088h-4v-20.088zM279.43433,159.92991h-2.628v-4h2.628zM274.80633,157.92991v-20.088h4v20.088zM276.80633,139.84191h-4.068v-4h4.068zM274.73832,137.84191v15.588h-4v-15.588zM272.73832,155.42991h-2.196v-4h2.196zM272.54233,153.42991v4.5h-4v-4.5zM270.54233,159.92991h-2.628v-4h2.628zM265.91433,157.92991v-2.232h4v2.232zM267.91433,157.69791h-12.96v-4h12.96zM256.95433,155.69791v2.232h-4v-2.232zM254.95433,159.92991h-2.592v-4h2.592zM250.36233,157.92991v-31.572h4v31.572zM259.25433,135.24991v-1.836h4v1.836zM261.25433,135.41391h-2.232v-4h2.232zM257.02233,133.41391v-2.232h4v2.232zM259.02233,133.18191h-2.232v-4h2.232zM254.79033,131.18191v-2.232h4v2.232zM256.79033,130.94991h-1.836v-4h1.836zM256.95433,128.94991v6.3h-4v-6.3zM254.95433,133.24991h6.3v4h-6.3zM254.79033,146.37391v-4.464h4v4.464zM256.79033,139.90991h2.232v4h-2.232zM257.02233,141.90991v-2.232h4v2.232zM259.02233,137.67791h2.232v4h-2.232zM259.25433,139.67791v-1.836h4v1.836zM261.25433,139.84191h-6.3v-4h6.3zM256.95433,137.84191v8.532h-4v-8.532zM254.95433,144.37391h1.836v4h-1.836z" fill="#ffffff"/><path d="M252.36233,126.35791h4.824v2.196h2.232v2.232h1.836v-6.66h2.592v6.66h1.836v-4.428h2.628v4.824h-2.232v2.232h-2.232v1.836h4.464v2.592h-2.232v1.836h2.232v7.092h-2.628v-6.696h-1.836v11.124h-2.592v-8.892h-1.836v4.464h-2.232v2.196h-2.232v4.068h15.192v-26.676h6.66v-2.232h4.824v2.592h-4.428v2.232h-4.464v6.3h11.124v2.592h-4.428v20.088h-2.628v-20.088h-4.068v15.588h-2.196v4.5h-2.628v-2.232h-12.96v2.232h-2.592zM261.25433,135.24991v-1.836h-2.232v-2.232h-2.232v-2.232h-1.836v6.3zM256.79033,146.37391v-4.464h2.232v-2.232h2.232v-1.836h-6.3v8.532z" fill="#000000"/><path d="M308.19433,115.07791h2v2h-2zM306.73033,119.07791h-2v-2h2zM304.73033,115.34991v-2h2v2zM308.45833,113.34991h2v2h-2zM308.45833,118.83791h-2v-2h2zM311.68233,116.83791v2h-2v-2zM307.68233,115.34991v-2h2v2zM311.43433,113.34991h2v2h-2zM311.43433,118.83791h-2v-2h2zM312.89833,114.83791h2v2h-2zM312.89833,120.30191h-2v-2h2zM314.38633,116.30191h2v2h-2zM316.38633,120.05391v2h-2v-2zM312.63433,122.05391h-2v-2h2zM312.63433,116.56591h2v2h-2zM309.43433,118.56591v-2h2v2zM313.43433,120.05391v2h-2v-2zM309.68233,122.05391h-2v-2h2zM309.68233,116.56591h2v2h-2zM308.19433,120.56591h-2v-2h2zM299.82633,136.10991v2h-2v-2zM295.82633,134.62191v-2h2v2zM302.80233,134.62191v2h-2v-2zM298.80233,133.15791v-2h2v2zM304.26633,133.15791v2h-2v-2zM300.26633,130.18191v-2h2v2zM305.75433,130.18191v2h-2v-2zM301.75433,127.20591v-2h2v2zM307.24233,127.20591v2h-2v-2zM305.24233,121.02991h2v2h-2zM294.60233,123.02991v-2h2v2zM298.60233,125.98191v2h-2v-2zM293.11433,125.98191v-2h2v2zM297.11433,127.46991v2h-2v-2zM291.65033,127.46991v-2h2v2zM295.65033,128.95791v2h-2v-2zM291.87433,130.95791h-2v-2h2zM289.87433,127.20591v-2h2v2zM295.38633,127.20591v2h-2v-2zM291.38633,125.71791v-2h2v2zM296.87433,125.71791v2h-2v-2zM292.87433,122.76591v-2h2v2zM298.33833,122.76591v2h-2v-2zM294.33833,119.78991v-2h2v2zM299.82633,119.78991v2h-2v-2zM295.82633,116.83791v-2h2v2zM299.57833,114.83791h2v2h-2zM301.57833,120.05391v2h-2v-2zM296.09033,120.05391v-2h2v2zM298.09033,123.27791h-2v-2h2zM312.89833,119.27791h2v2h-2zM314.89833,123.02991v2h-2v-2zM304.97033,123.02991v-2h2v2zM308.97033,127.46991v2h-2v-2zM303.50633,127.46991v-2h2v2zM307.50633,130.44591v2h-2v-2zM302.01833,130.44591v-2h2v2zM306.01833,133.39791v2h-2v-2zM300.53033,133.39791v-2h2v2zM304.53033,134.88591v2h-2v-2zM299.04233,134.88591v-2h2v2zM303.04233,136.39791v2h-2v-2zM296.09033,136.39791v-2h2v2zM300.09033,137.88591v2h-2v-2zM294.87433,139.88591h-2v-2h2zM292.87433,136.10991v-2h2v2zM313.17033,118.30191v2h-2v-2zM311.17033,115.07791h2v2h-2zM307.94633,117.07791v-2h2v2zM309.94633,120.30191h-2v-2h2zM308.19433,119.07791h-1.464v-4h1.464zM304.73033,117.07791v-1.728h4v1.728zM306.73033,113.34991h1.728v4h-1.728zM310.45833,115.34991v1.488h-4v-1.488zM308.45833,114.83791h1.224v4h-1.224zM307.68233,116.83791v-1.488h4v1.488zM309.68233,113.34991h1.752v4h-1.752zM313.43433,115.34991v1.488h-4v-1.488zM311.43433,114.83791h1.464v4h-1.464zM314.89833,116.83791v1.464h-4v-1.464zM312.89833,116.30191h1.488v4h-1.488zM316.38633,118.30191v1.752h-4v-1.752zM314.38633,122.05391h-1.752v-4h1.752zM310.63433,120.05391v-1.488h4v1.488zM312.63433,120.56591h-1.2v-4h1.2zM313.43433,118.56591v1.488h-4v-1.488zM311.43433,122.05391h-1.752v-4h1.752zM307.68233,120.05391v-1.488h4v1.488zM309.68233,120.56591h-1.488v-4h1.488zM306.19433,118.56591v-1.488h4v1.488zM295.82633,136.10991v-1.488h4v1.488zM297.82633,132.62191h2.976v4h-2.976zM298.80233,134.62191v-1.464h4v1.464zM300.80233,131.15791h1.464v4h-1.464zM300.26633,133.15791v-2.976h4v2.976zM302.26633,128.18191h1.488v4h-1.488zM301.75433,130.18191v-2.976h4v2.976zM303.75433,125.20591h1.488v4h-1.488zM303.24233,127.20591v-4.176h4v4.176zM305.24233,125.02991h-8.64v-4h8.64zM298.60233,123.02991v2.952h-4v-2.952zM296.60233,127.98191h-1.488v-4h1.488zM297.11433,125.98191v1.488h-4v-1.488zM295.11433,129.46991h-1.464v-4h1.464zM295.65033,127.46991v1.488h-4v-1.488zM293.65033,130.95791h-1.776v-4h1.776zM289.87433,128.95791v-1.752h4v1.752zM291.87433,125.20591h1.512v4h-1.512zM291.38633,127.20591v-1.488h4v1.488zM293.38633,123.71791h1.488v4h-1.488zM292.87433,125.71791v-2.952h4v2.952zM294.87433,120.76591h1.464v4h-1.464zM294.33833,122.76591v-2.976h4v2.976zM296.33833,117.78991h1.488v4h-1.488zM295.82633,119.78991v-2.952h4v2.952zM297.82633,114.83791h1.752v4h-1.752zM301.57833,116.83791v3.216h-4v-3.216zM299.57833,122.05391h-1.488v-4h1.488zM300.09033,120.05391v1.224h-4v-1.224zM298.09033,119.27791h14.808v4h-14.808zM314.89833,121.27791v1.752h-4v-1.752zM312.89833,125.02991h-5.928v-4h5.928zM308.97033,123.02991v4.44h-4v-4.44zM306.97033,129.46991h-1.464v-4h1.464zM307.50633,127.46991v2.976h-4v-2.976zM305.50633,132.44591h-1.488v-4h1.488zM306.01833,130.44591v2.952h-4v-2.952zM304.01833,135.39791h-1.488v-4h1.488zM304.53033,133.39791v1.488h-4v-1.488zM302.53033,136.88591h-1.488v-4h1.488zM303.04233,134.88591v1.512h-4v-1.512zM301.04233,138.39791h-2.952v-4h2.952zM300.09033,136.39791v1.488h-4v-1.488zM298.09033,139.88591h-3.216v-4h3.216zM292.87433,137.88591v-1.776h4v1.776zM294.87433,134.10991h2.952v4h-2.952zM309.17033,118.30191v-1.224h4v1.224zM311.17033,119.07791h-1.224v-4h1.224zM311.94633,117.07791v1.224h-4v-1.224zM309.94633,116.30191h1.224v4h-1.224z" fill="#ffffff"/><path d="M308.19433,117.07791h-1.464v-1.728h1.728v1.488h1.224v-1.488h1.752v1.488h1.464v1.464h1.488v1.752h-1.752v-1.488h-1.2v1.488h-1.752v-1.488h-1.488zM297.82633,136.10991v-1.488h2.976v-1.464h1.464v-2.976h1.488v-2.976h1.488v-4.176h-8.64v2.952h-1.488v1.488h-1.464v1.488h-1.776v-1.752h1.512v-1.488h1.488v-2.952h1.464v-2.976h1.488v-2.952h1.752v3.216h-1.488v1.224h14.808v1.752h-5.928v4.44h-1.464v2.976h-1.488v2.952h-1.488v1.488h-1.488v1.512h-2.952v1.488h-3.216v-1.776zM311.17033,118.30191v-1.224h-1.224v1.224z" fill="#000000"/><path d="M309.10633,139.71791v-2h2v2zM329.15432,137.71791h2v2h-2zM331.15432,141.46991v2h-2v-2zM311.10633,143.46991h-2v-2h2zM311.10633,137.71791h18.048v4h-18.048zM331.15432,139.71791v1.752h-4v-1.752zM329.15432,143.46991h-18.048v-4h18.048zM309.10633,141.46991v-1.752h4v1.752z" fill="#ffffff"/><path d="M311.10633,139.71791h18.048v1.752h-18.048z" fill="#000000"/><path d="M328.10633,153.51791v-2h2v2zM338.10633,153.51791v2h-2v-2zM334.10633,147.6139v-2h2v2zM341.03433,147.6139v2h-2v-2zM337.03433,141.6619v-2h2v2zM344.01033,141.6619v2h-2v-2zM340.01033,132.78191v-2h2v2zM346.98633,132.78191v2h-2v-2zM342.98633,126.82991v-2h2v2zM349.96233,126.82991v2h-2v-2zM345.96233,117.94991v-2h2v2zM351.41833,115.94991h2v2h-2zM353.41833,127.35791v2h-2v-2zM346.44233,127.35791v-2h2v2zM350.44233,133.26191v2h-2v-2zM343.51433,133.26191v-2h2v2zM347.51433,142.18991v2h-2v-2zM340.53833,142.18991v-2h2v2zM344.53833,148.09391v2h-2v-2zM337.56233,148.09391v-2h2v2zM339.56233,155.51791h-2v-2h2zM352.89033,153.51791v2h-2v-2zM348.89033,150.5899v-2h2v2zM367.72233,150.5899v2h-2v-2zM365.72233,146.09391h2v2h-2zM362.74633,150.09391h-2v-2h2zM362.74633,143.16591h2v2h-2zM359.81833,147.16591h-2v-2h2zM359.81833,137.21391h2v2h-2zM356.84233,141.21391h-2v-2h2zM354.84233,135.70991v-2h2v2zM360.29833,133.70991h2v2h-2zM360.29833,140.68591h-2v-2h2zM363.27433,136.68591h2v2h-2zM363.27433,146.6379h-2v-2h2zM366.25033,142.6379h2v2h-2zM366.25033,149.6139h-2v-2h2zM369.22633,145.6139h2v2h-2zM369.22633,155.51791h-2v-2h2zM372.15433,151.51791h2v2h-2zM374.15433,160.04591v2h-2v-2zM368.69833,162.04591h-2v-2h2zM368.69833,152.04591h2v2h-2zM349.41833,154.04591v-2h2v2zM353.41833,157.06991v2h-2v-2zM330.10633,159.06991h-2v-2h2zM330.10633,151.51791h6v4h-6zM334.10633,153.51791v-5.904h4v5.904zM336.10633,145.6139h2.928v4h-2.928zM337.03433,147.6139v-5.952h4v5.952zM339.03433,139.6619h2.976v4h-2.976zM340.01033,141.6619v-8.88h4v8.88zM342.01033,130.78191h2.976v4h-2.976zM342.98633,132.78191v-5.952h4v5.952zM344.98633,124.82991h2.976v4h-2.976zM345.96233,126.82991v-8.88h4v8.88zM347.96233,115.94991h3.456v4h-3.456zM353.41833,117.94991v9.408h-4v-9.408zM351.41833,129.3579h-2.976v-4h2.976zM350.44233,127.35791v5.904h-4v-5.904zM348.44233,135.26191h-2.928v-4h2.928zM347.51433,133.26191v8.928h-4v-8.928zM345.51433,144.18991h-2.976v-4h2.976zM344.53833,142.18991v5.904h-4v-5.904zM342.53833,150.09391h-2.976v-4h2.976zM341.56233,148.09391v5.424h-4v-5.424zM339.56233,151.51791h11.328v4h-11.328zM348.89033,153.51791v-2.928h4v2.928zM350.89033,148.5899h14.832v4h-14.832zM363.72233,150.5899v-2.496h4v2.496zM365.72233,150.09391h-2.976v-4h2.976zM360.74633,148.09391v-2.928h4v2.928zM362.74633,147.16591h-2.928v-4h2.928zM357.81833,145.16591v-5.952h4v5.952zM359.81833,141.21391h-2.976v-4h2.976zM354.84233,139.21391v-3.504h4v3.504zM356.84233,133.70991h3.456v4h-3.456zM362.29833,135.70991v2.976h-4v-2.976zM360.29833,136.68591h2.976v4h-2.976zM365.27433,138.68591v5.952h-4v-5.952zM363.27433,142.6379h2.976v4h-2.976zM368.25033,144.6379v2.976h-4v-2.976zM366.25033,145.6139h2.976v4h-2.976zM371.22633,147.6139v5.904h-4v-5.904zM369.22633,151.51791h2.928v4h-2.928zM374.15433,153.51791v6.528h-4v-6.528zM372.15433,162.04591h-3.456v-4h3.456zM366.69833,160.04591v-6h4v6zM368.69833,156.04591h-17.28v-4h17.28zM353.41833,154.04591v3.024h-4v-3.024zM351.41833,159.06991h-21.312v-4h21.312zM328.10633,157.06991v-3.552h4v3.552z" fill="#ffffff"/><path d="M330.10633,153.51791h6v-5.904h2.928v-5.952h2.976v-8.88h2.976v-5.952h2.976v-8.88h3.456v9.408h-2.976v5.904h-2.928v8.928h-2.976v5.904h-2.976v5.424h11.328v-2.928h14.832v-2.496h-2.976v-2.928h-2.928v-5.952h-2.976v-3.504h3.456v2.976h2.976v5.952h2.976v2.976h2.976v5.904h2.928v6.528h-3.456v-6h-17.28v3.024h-21.312z" fill="#000000"/><path d="" fill="#ffffff"/><path d="" fill="#ffffff"/><path d="" fill="#ffffff"/><path d="" fill="#ffffff"/></g></g></svg>