<svg version="1.1" xmlns="http://www.w3.org/2000/svg" xmlns:xlink="http://www.w3.org/1999/xlink" width="415.90667" height="312.80333" viewBox="0,0,415.90667,312.80333"><g transform="translate(-32.44667,-24.03268)"><g data-paper-data="{&quot;isPaintingLayer&quot;:true}" fill-rule="nonzero" stroke-linecap="butt" stroke-miterlimit="10" stroke-dasharray="" stroke-dashoffset="0" style="mix-blend-mode: normal"><path d="M39.86648,335.33601c-3.26942,0 -4.86637,-2.45802 -4.86637,-2.45802c0,0 -1.05344,-0.36577 -1.05344,-5.47073c0,-45.72892 0,-274.50125 0,-296.28287c0,-3.28274 1.63265,-4.36722 1.63265,-4.36722c0,0 1.01774,-1.22449 4.28715,-1.22449h401.06706c3.26941,0 4.54725,1.37255 4.54725,1.37255c0,0 1.37255,0.83913 1.37255,4.00184c0,21.64787 0,256.01277 0,298.2248c0,4.2029 -1.49864,4.70551 -1.49864,4.70551c0,0 -1.15175,1.49863 -4.42116,1.49863z" fill="#fff4e4" stroke="#000000" stroke-width="3" stroke-linejoin="round"/><path d="M45.54148,46.41704h1.34v-1.31872h1.31872v-1.31872h1.29746v-1.29746h2.63746v-3.72221h-5.25364v-1.55269h5.25364v-2.61619h1.53142v2.61619h9.20982v1.55269h-9.20982v2.40349h3.95618v1.31872h1.08476v-1.31872h1.29746v-1.31872h1.55269v1.55269h-1.31872v1.08476h1.31872v1.29746h1.31872v1.31872h1.29746v5.48761h-1.29746v1.31872h-1.31872v1.34h-1.31872v1.31872h-4.16888v-1.57397h3.93491v-1.31872h1.31872v-1.29746h1.31872v-5.04094h-1.31872v-1.31872h-2.40349v1.31872h-1.29746v2.63746h-1.31872v1.29746h-1.31872v1.31872h-1.31872v1.08476h1.31872v1.57397h-1.53142v-1.34h-2.40349v1.34h-4.16888v-1.34h-1.34zM54.75131,49.05449v-1.31872h1.31872v-2.63746h1.31872v-2.40349h-3.72221v6.35967zM50.8164,51.67068v-1.29746h1.31872v-6.35967h-2.40349v1.31872h-1.31872v1.31872h-1.29746v5.01968zM66.81129,49.05449h1.31872v-2.63746h1.29746v-2.63746h1.31872v-2.61619h1.31872v-1.08476h-5.25364v-1.55269h5.25364v-1.31872h1.31872v-2.61619h1.53142v2.85016h-1.31872v1.08476h3.95618v1.55269h-3.95618v1.31872h-1.29746v2.61619h-1.31872v2.63746h-1.31872v2.61619h-1.31872v1.31872h-1.53142zM78.63729,38.52593h5.46634v1.31872h1.31872v1.55269h-1.55269v-1.31872h-5.23237zM72.06492,49.05449h1.31872v-1.31872h5.25364v-5.25364h1.53142v6.57237h1.31872v1.31872h1.31872v1.29746h1.29746v1.57397h-1.53142v-1.34h-1.31872v-1.31872h-1.08476v1.31872h-1.31872v1.34h-1.29746v1.31872h-4.16888v-1.31872h-1.31872zM77.31857,52.9894v-1.31872h1.31872v-2.40349h-5.04094v3.72221zM88.74045,50.37322h1.31872v-3.95618h1.29746v-5.25364h1.31872v-1.08476h-3.93491v-1.55269h3.93491v-3.93491h1.55269v3.93491h6.5511v1.55269h-6.5511v1.31872h-1.31872v5.25364h-1.31872v3.93491h-1.31872v2.65872h-1.53142zM96.61029,42.48212h9.42252v1.53142h-9.42252zM95.31281,49.05449h1.29746v-1.31872h1.55269v1.53142h-1.31872v2.40349h9.18856v1.57397h-9.42252v-1.34h-1.29746zM110.69088,50.58591h-1.34v-6.80634h1.34v-2.61619h1.31872v-1.31872h1.29746v-1.31872h2.63746v-1.31872h6.78507v1.31872h2.63746v1.31872h1.31872v2.63746h1.29746v6.78507h-1.29746v2.63746h-1.31872v1.34h-2.63746v1.31872h-4.16888v-1.57397h3.95618v-1.31872h2.61619v-2.61619h1.31872v-6.35967h-1.31872v-2.61619h-2.61619v-1.31872h-2.40349v3.93491h-1.31872v3.95618h-1.31872v2.61619h-1.29746v2.63746h-1.31872v1.34h-2.85016v-1.34h-1.31872zM112.22231,50.37322v1.29746h2.40349v-2.61619h1.31872v-2.63746h1.31872v-3.93491h1.29746v-3.72221h-2.38222v1.31872h-2.63746v1.31872h-1.31872v2.61619h-1.29746v6.35967zM133.9175,34.56974h1.55269v3.93491h1.31872v1.31872h1.29746v1.31872h1.08476v-5.25364h1.55269v3.93491h2.40349v-5.25364h1.53142v5.25364h3.93491v1.55269h-3.93491v3.70094h3.93491v1.55269h-3.93491v5.01968h5.25364v1.57397h-13.35744v-1.57397h6.57237v-5.01968h-3.95618v-1.55269h3.95618v-3.70094h-3.72221v2.61619h-1.31872v1.31872h-1.53142v-1.55269h1.31872v-1.08476h-1.31872v-2.61619h-1.08476v14.48473h-1.55269zM129.96132,43.75831h1.34v-3.93491h1.53142v4.16888h-1.29746v2.63746h-1.57397zM153.88986,43.99228h-1.08476v3.95618h-1.57397v-4.19015h1.34v-2.38222h-1.34v-1.55269h2.65872v-5.25364h1.53142v5.25364h2.63746v1.31872h1.08476v-2.63746h1.29746v-3.93491h1.55269v2.61619h6.57237v2.87142h-1.31872v1.31872h-1.31872v1.29746h-1.31872v1.08476h2.63746v1.31872h3.93491v1.55269h-2.61619v7.91237h-1.55269v-1.31872h-6.3384v1.31872h-1.53142v-7.91237h-1.31872v-1.31872h-1.31872v-1.31872h-1.08476v10.54982h-1.53142zM163.31237,41.14211v1.31872h1.08476v-1.31872h1.29746v-1.31872h1.31872v-1.08476h-6.3384v1.08476h1.31872v1.31872zM160.44094,45.07704v-1.31872h2.63746v-1.08476h-1.31872v-1.29746h-2.40349v1.29746h-1.53142v-1.29746h-2.40349v1.08476h1.31872v1.29746h1.31872v1.31872zM167.01331,46.39576v-1.08476h-2.61619v-1.31872h-1.08476v1.31872h-2.63746v1.08476zM167.01331,51.64941v-3.70094h-6.3384v3.70094zM179.07329,52.9894v-1.31872h3.93491v-1.29746h1.31872v-2.40349h-1.31872v-1.31872h-2.61619v-1.31872h-1.31872v-1.55269h1.55269v1.31872h2.61619v1.31872h1.31872v1.31872h2.40349v-1.31872h1.29746v-2.63746h1.31872v-3.70094h-8.95459v1.31872h-1.31872v1.29746h-1.31872v1.31872h-1.31872v1.31872h-1.29746v1.31872h-1.57397v-1.55269h1.34v-1.31872h1.31872v-1.29746h1.29746v-1.31872h1.31872v-1.31872h1.31872v-2.63746h1.31872v-2.61619h1.53142v2.85016h-1.31872v1.08476h9.20982v5.48761h-1.31872v2.63746h-1.31872v1.31872h-1.31872v1.29746h-1.29746v1.31872h-1.31872v1.31872h-1.31872v1.34h-3.93491v1.31872h-4.16888v-1.57397zM195.06819,46.41704h2.65872v-1.31872h2.61619v-1.31872h2.63746v-1.29746h1.29746v-1.31872h1.31872v-1.31872h1.31872v-1.31872h1.31872v-1.31872h1.29746v-1.29746h1.31872v-1.31872h1.55269v1.53142h-1.31872v1.31872h-1.31872v1.31872h-1.31872v1.31872h-1.29746v14.48473h-1.55269v-11.86855h-1.08476v1.31872h-1.31872v1.31872h-2.61619v1.31872h-2.63746v1.31872h-2.87142zM216.38053,51.67068h3.93491v-1.29746h2.63746v-1.31872h2.61619v-1.31872h1.31872v-2.63746h1.31872v-2.61619h1.29746v-3.72221h-14.46347v-1.55269h14.46347v-1.29746h1.31872v-1.31872h2.85016v1.31872h1.31872v2.85016h-1.31872v1.31872h-2.61619v2.61619h-1.31872v2.63746h-1.31872v2.63746h-1.29746v1.29746h-1.31872v1.31872h-2.63746v1.31872h-2.61619v1.34h-4.16888zM233.4389,38.52593v-2.40349h-2.38222v2.40349zM241.56396,49.05449h1.31872v-1.31872h6.57237v-6.3384h-7.8911v-1.55269h7.8911v-3.93491h1.53142v3.93491h3.93491v1.55269h-3.93491v7.65713h1.31872v1.31872h1.31872v1.29746h1.29746v1.57397h-1.53142v-1.34h-1.31872v-1.31872h-1.08476v1.31872h-1.31872v1.34h-6.78507v-1.34h-1.31872zM237.62905,38.52593h1.31872v-2.61619h1.53142v2.85016h-1.31872v14.48473h-1.53142zM249.45506,51.67068v-2.40349h-6.3384v2.40349zM258.26075,49.05449h2.85016v2.85016h-2.85016zM268.89565,49.05449h2.85016v2.85016h-2.85016zM279.53055,49.05449h2.85016v2.85016h-2.85016z" fill="#000000" stroke="none" stroke-width="1" stroke-linejoin="miter"/></g></g></svg>