<svg version="1.1" xmlns="http://www.w3.org/2000/svg" xmlns:xlink="http://www.w3.org/1999/xlink" width="118.872" height="11.28" viewBox="0,0,118.872,11.28"><g transform="translate(-183.872,-157.3)"><g data-paper-data="{&quot;isPaintingLayer&quot;:true}" fill="#ffffff" fill-rule="nonzero" stroke="none" stroke-width="1" stroke-linecap="butt" stroke-linejoin="miter" stroke-miterlimit="10" stroke-dasharray="" stroke-dashoffset="0" style="mix-blend-mode: normal"><path d="M185.372,159.52h8.28v0.876h-8.28zM183.872,166.204h11.256v0.864h-11.256zM196.628,167.68v-0.744h0.744v-0.732h0.732v-0.744h0.744v-0.744h0.744v-0.744h0.744v-1.488h0.732v-5.184h0.876v5.184h0.744v1.488h0.732v1.488h0.744v0.744h0.744v0.732h0.744v0.744h1.476v0.888h-1.608v-0.744h-0.744v-0.756h-0.744v-0.744h-0.732v-0.744h-0.744v-1.476h-0.744v-1.488h-0.612v1.488h-0.744v0.744h-0.732v0.732h-0.744v0.744h-0.744v0.744h-0.744v0.756h-0.732v0.744h-0.888v-0.888zM210.848,162.496h0.744v-0.732h0.744v-0.744h0.732v-0.744h0.744v-0.612h-5.94v-0.876h10.512v0.876h-2.964v0.744h-1.476v0.744h-0.744v0.732h-0.744v0.744h-0.732v2.844h0.732v0.744h0.744v0.732h3.708v0.888h-3.84v-0.756h-1.476v-1.488h-0.744zM216.776,160.276h0.876v0.744h0.732v0.744h0.744v0.864h-0.876v-0.744h-0.732v-0.732h-0.744zM215.3,161.02h0.864v0.744h0.744v0.732h0.744v0.876h-0.876v-0.744h-0.744v-0.744h-0.732zM222.104,162.616h-0.612v1.488h-0.732v0.744h-0.888v-0.876h0.756v-1.488h0.744v-4.44h8.28v3.096h-1.488v0.612h0.744v1.476h0.744v0.744h1.476v0.876h-1.608v-0.744h-0.744v-0.744h-0.612v3.708h-6.06zM228.776,160.264v-1.356h-6.54v1.356zM228.032,162.484v-0.612h-0.732v-0.732h-5.064v1.344zM227.3,163.972v-0.612h-4.32v0.612zM227.3,166.204v-1.356h-4.32v1.356zM231.128,167.68v0.888h-11.256v-0.888zM234.104,167.68v-6.54h-0.612v0.732h-1.62v-0.864h1.5v-0.744h1.476v-0.744h0.744v-0.744h0.744v-0.732h0.732v-0.744h0.876v0.744h0.744v0.732h0.732v0.744h0.744v0.744h1.488v0.744h1.476v0.864h-1.608v-0.732h-1.356v3.708h-2.22v0.612h0.744v0.744h1.344v-0.744h0.744v-0.744h0.876v0.864h-0.744v0.744h-0.744v0.612h1.488v0.744h1.476v0.888h-1.608v-0.744h-1.488v-0.756h-1.476v-0.744h-0.744v-0.744h-0.744v-0.732h-2.088v2.088h2.964v0.888h-2.964v0.744h-2.352v-0.888zM237.068,161.008v-1.488h0.876v1.488h2.088v-0.612h-0.732v-0.744h-0.744v-0.744h-0.744v-0.744h-0.612v0.744h-0.744v0.744h-0.732v0.744h-0.744v0.612zM239.3,162.484v-0.612h-4.32v0.612zM239.3,163.972v-0.612h-4.32v0.612zM244.616,164.728h0.744v-1.488h0.732v-0.744h0.744v-1.476h0.744v-0.612h-2.964v-0.876h3.708v-2.22h0.864v2.22h3.708v0.876h-4.452v0.612h1.488v0.744h0.744v1.476h0.612v-0.744h1.476v-0.732h1.608v0.864h-1.476v0.744h-1.488v0.744h-0.732v2.964h-0.876v-2.22h-1.356v0.732h-0.732v2.1h5.928v0.888h-6.06v-0.744h-0.744v-2.364h0.744v-0.744h0.744v-0.744h1.476v-2.1h-2.088v0.744h-0.744v0.744h-0.744v1.488h-0.744v0.732h-0.864zM255.872,166.936h1.5v-0.732h1.476v-0.744h1.488v-0.612h-4.464v-0.876h5.196v-0.612h-1.476v-4.584h0.744v-0.732h0.732v-0.744h0.876v0.864h-0.744v0.612h2.22v4.584h-1.476v0.612h5.184v0.876h-4.44v0.612h1.476v0.744h1.488v0.732h1.476v0.888h-1.608v-0.756h-1.488v-0.744h-1.476v-0.744h-0.612v2.988h-0.876v-2.988h-0.612v0.744h-1.476v0.744h-1.488v0.756h-1.62zM258.104,159.652h-0.732v-0.744h-0.744v-0.864h0.864v0.732h0.744v0.744h0.744v0.876h-0.876zM264.032,159.52h0.744v-0.744h0.744v-0.732h0.864v0.864h-0.732v0.744h-0.744v0.744h-0.876zM262.556,160.264v-0.612h-2.1v0.612zM255.872,162.484h1.5v-0.732h0.732v-0.744h0.876v0.864h-0.744v0.744h-0.744v0.744h-1.62zM264.032,161.008h0.876v0.744h0.744v0.732h1.476v0.876h-1.608v-0.744h-0.744v-0.744h-0.744zM262.556,162.484v-1.344h-2.1v1.344zM268.988,158.056h0.864v8.16h0.744v0.732h3.576v-0.732h1.476v-0.744h0.744v-0.744h0.744v-0.744h0.864v0.876h-0.732v0.732h-0.744v0.744h-0.744v0.744h-1.476v0.756h-3.84v-0.756h-0.744v-0.744h-0.732zM280.244,166.216h0.756v-1.488h0.744v-2.232h0.732v-1.476h0.744v-1.488h0.744v-2.22h0.864v2.352h-0.732v1.488h-0.744v1.476h-0.744v1.356h0.612v-0.744h0.744v-0.744h1.608v0.744h0.744v3.708h2.088v-0.732h0.744v-1.488h0.744v-2.232h0.864v2.364h-0.732v1.476h-0.744v0.744h-0.744v0.756h-2.352v-0.756h-0.744v-3.708h-1.344v0.744h-0.744v0.744h-0.744v0.732h-0.744v0.744h-0.732v1.5h-0.888zM292.244,166.216h0.744v-2.232h0.732v-2.964h0.744v-0.612h-2.22v-0.876h2.22v-2.22h0.876v2.22h2.964v0.876h-2.964v0.744h-0.744v2.964h-0.744v2.22h-0.744v1.5h-0.864zM301.136,158.176h-0.744v-0.864h0.876v0.744h0.732v0.732h0.744v0.876h-0.876v-0.744h-0.732zM299.648,158.92h-0.732v-0.864h0.864v0.732h0.744v0.744h0.744v0.876h-0.876v-0.744h-0.744zM296.684,161.764h5.316v0.864h-5.316zM295.952,165.472h0.732v-0.744h0.876v0.864h-0.744v1.356h5.184v0.888h-5.316v-0.756h-0.732z"/></g></g></svg>