<svg version="1.1" xmlns="http://www.w3.org/2000/svg" xmlns:xlink="http://www.w3.org/1999/xlink" width="23.43015" height="26.59939" viewBox="0,0,23.43015,26.59939"><g transform="translate(-220.40969,-160.55291)"><g data-paper-data="{&quot;isPaintingLayer&quot;:true}" fill="#6fbbe6" fill-rule="nonzero" stroke="none" stroke-width="1" stroke-linecap="butt" stroke-linejoin="miter" stroke-miterlimit="10" stroke-dasharray="" stroke-dashoffset="0" style="mix-blend-mode: normal"><path d="M235.5,172.15234h8.33984v3.32032h-1.67968v-1.66016h-6.66016zM240.5,175.47266h1.66016v3.33984h-1.66016zM238.83984,178.8125h1.66016v1.66016h-1.66016zM237.16016,180.47266h1.67968v3.33984h-1.67968zM235.5,187.1523v-3.3398h1.66016v1.6602h6.67968v1.6796z"/><path d="M220.40969,160.55291h11.7717v4.68663h-2.37087v-2.34332h-9.40082zM227.46719,165.23954h2.34332v4.71419h-2.34332zM225.12388,169.95373h2.34332v2.34332h-2.34332zM222.75301,172.29705h2.37087v4.71419h-2.37087zM220.40969,181.72537v-4.71413h2.34332v2.34337h9.42838v2.37076z"/></g></g></svg>