<svg xmlns="http://www.w3.org/2000/svg" fill="none" viewBox="0 0 343 115" height="115" width="343">
<rect stroke-width="2" stroke="black" fill="#FFF4E4" rx="11" height="109" width="326" y="1" x="16"></rect>
<path fill="black" d="M35.877 25.803H43.238V24.936H38.002V23.695H43.238V22.828H36.948V21.604H43.238V20.55H44.479V21.604H50.769V22.828H44.479V23.695H49.732V24.936H44.479V25.803H51.823V27.027H35.877V25.803ZM38.002 27.894H49.732V35.459H48.678V36.513H45.346V35.255H48.491V33.334H39.226V36.513H38.002V27.894ZM48.491 30.002V29.135H39.226V30.002H48.491ZM48.491 32.11V31.243H39.226V32.11H48.491ZM53.897 26.857H56.022V25.803H58.113V24.749H59.167V23.882H54.968V22.641H61.258V20.55H62.499V22.641H68.789V23.882H63.553V24.749H64.59V25.803H66.698V26.857H69.843V28.081H66.511V27.027H64.42V25.99H63.366V24.936H62.499V28.081H61.258V23.882H60.391V24.936H59.354V25.99H58.3V27.027H56.192V28.081H53.897V26.857ZM61.258 34.201H62.312V32.11H63.366V30.189H62.312V28.948H64.42V27.894H65.644V28.948H69.843V30.189H66.698V31.056H67.752V33.164H68.789V34.201H69.843V35.459H68.602V34.388H67.565V33.334H66.511V31.243H65.644V36.513H64.42V32.28H63.553V34.388H62.499V35.459H61.258V34.201ZM53.897 34.201H54.968V33.164H56.022V31.056H57.059V30.189H53.897V28.948H58.113V27.894H59.354V28.948H61.445V30.189H59.354V31.056H60.391V32.11H61.445V33.334H60.221V32.28H59.354V36.513H58.113V31.243H57.246V33.334H56.192V34.388H55.155V35.459H53.897V34.201ZM71.917 34.201H72.988V32.11H74.212V34.201H75.079V32.11H76.32V34.201H77.187V32.11H78.411V34.388H77.374V35.255H79.278V31.243H72.988V21.604H79.465V22.828H77.374V24.749H79.465V25.99H77.374V26.857H79.465V28.081H77.374V30.002H80.519V34.201H81.386V21.604H86.809V28.081H84.718V30.002H85.772V33.164H86.809V35.255H87.863V36.513H86.622V35.459H85.585V33.334H84.531V30.189H83.477V28.081H82.61V34.388H81.573V36.513H80.332V35.459H79.465V36.513H76.133V34.388H75.266V36.513H74.042V34.388H73.175V36.513H71.917V34.201ZM85.585 26.857V22.828H82.61V26.857H85.585ZM76.133 24.749V22.828H74.212V24.749H76.133ZM76.133 26.857V25.99H74.212V26.857H76.133ZM76.133 30.002V28.081H74.212V30.002H76.133ZM96.771 23.712H99.049V26.007H96.771V23.712ZM96.771 32.127H99.049V34.405H96.771V32.127ZM107.957 25.803H115.318V24.936H110.082V23.695H115.318V22.828H109.028V21.604H115.318V20.55H116.559V21.604H122.849V22.828H116.559V23.695H121.812V24.936H116.559V25.803H123.903V27.027H107.957V25.803ZM110.082 27.894H121.812V35.459H120.758V36.513H117.426V35.255H120.571V33.334H111.306V36.513H110.082V27.894ZM120.571 30.002V29.135H111.306V30.002H120.571ZM120.571 32.11V31.243H111.306V32.11H120.571ZM125.977 26.857H128.102V25.803H130.193V24.749H131.247V23.882H127.048V22.641H133.338V20.55H134.579V22.641H140.869V23.882H135.633V24.749H136.67V25.803H138.778V26.857H141.923V28.081H138.591V27.027H136.5V25.99H135.446V24.936H134.579V28.081H133.338V23.882H132.471V24.936H131.434V25.99H130.38V27.027H128.272V28.081H125.977V26.857ZM133.338 34.201H134.392V32.11H135.446V30.189H134.392V28.948H136.5V27.894H137.724V28.948H141.923V30.189H138.778V31.056H139.832V33.164H140.869V34.201H141.923V35.459H140.682V34.388H139.645V33.334H138.591V31.243H137.724V36.513H136.5V32.28H135.633V34.388H134.579V35.459H133.338V34.201ZM125.977 34.201H127.048V33.164H128.102V31.056H129.139V30.189H125.977V28.948H130.193V27.894H131.434V28.948H133.525V30.189H131.434V31.056H132.471V32.11H133.525V33.334H132.301V32.28H131.434V36.513H130.193V31.243H129.326V33.334H128.272V34.388H127.235V35.459H125.977V34.201ZM149.267 21.604H157.852V29.135H149.267V21.604ZM146.122 22.641H147.346V30.002H159.943V31.243H153.653V36.513H152.412V31.243H146.122V22.641ZM156.611 23.695V22.828H150.491V23.695H156.611ZM156.611 25.803V24.936H150.491V25.803H156.611ZM156.611 27.894V27.027H150.491V27.894H156.611ZM143.997 34.201H147.159V33.164H149.267V32.11H150.491V33.334H149.454V34.388H147.346V35.459H143.997V34.201ZM155.557 32.11H156.798V33.164H158.889V34.201H159.943V35.459H158.702V34.388H156.611V33.334H155.557V32.11ZM163.088 30.189H162.017V28.948H163.088V27.894H164.142V27.027H162.017V25.803H165.179V23.882H163.275V24.936H162.017V23.695H163.088V22.641H164.142V20.55H165.366V22.641H169.565V23.882H166.42V25.803H170.619V27.027H168.511V27.894H170.619V29.135H167.474V30.002H169.565V31.243H167.474V32.11H169.565V33.334H167.474V34.201H170.619V35.255H171.486V33.164H172.54V31.243H171.486V21.604H176.909V31.243H175.872V35.255H176.722V33.164H177.963V36.513H175.685V35.459H174.631V31.243H173.764V33.334H172.71V35.459H171.673V36.513H170.432V35.459H164.312V36.513H163.088V30.189ZM175.685 24.749V22.828H172.71V24.749H175.685ZM175.685 26.857V25.99H172.71V26.857H175.685ZM167.287 27.894V27.027H165.366V27.894H167.287ZM175.685 30.002V28.081H172.71V30.002H175.685ZM166.233 30.002V29.135H164.312V30.002H166.233ZM166.233 32.11V31.243H164.312V32.11H166.233ZM166.233 34.201V33.334H164.312V34.201H166.233ZM182.162 35.255V34.201H183.199V33.164H184.253V31.056H185.307V29.135H180.037V27.894H187.398V20.55H188.639V27.894H195.983V29.135H190.73V35.255H194.742V32.11H195.983V35.459H194.929V36.513H190.56V35.459H189.506V29.135H186.531V31.243H185.494V33.334H184.44V34.388H183.386V35.459H182.332V36.513H180.037V35.255H182.162ZM184.253 24.936H183.199V23.882H182.162V22.641H183.386V23.695H184.44V24.749H185.494V27.027H184.253V24.936ZM190.56 25.803H191.597V24.749H192.651V22.641H193.892V24.936H192.838V25.99H191.784V27.027H190.56V25.803ZM198.584 31.056H199.655V30.002H201.746V25.99H199.842V29.135H198.584V25.803H199.655V21.604H200.879V24.749H201.746V20.55H202.987V24.749H205.945V20.55H207.186V23.695H213.476V33.334H212.439V35.459H211.385V36.513H208.053V35.255H211.198V33.164H212.252V24.936H211.385V28.081H210.331V30.189H209.277V32.28H208.24V33.334H207.186V34.388H206.132V35.459H204.908V34.201H205.945V33.164H206.999V32.11H208.053V30.002H209.107V27.894H210.144V24.936H208.24V28.081H207.186V30.189H206.132V31.243H205.078V32.28H203.854V31.056H204.908V30.002H205.945V27.894H206.999V24.936H206.132V27.027H204.908V25.99H202.987V28.948H203.854V27.894H205.078V29.135H204.041V30.189H202.987V36.513H201.746V31.243H199.842V32.28H198.584V31.056ZM216.077 34.201H217.148V31.056H218.202V27.027H217.148V25.803H222.401V24.936H221.347V23.882H217.148V22.641H224.492V20.55H225.733V22.641H232.023V23.882H228.878V24.936H227.824V25.803H232.023V27.027H226.77V28.948H230.969V30.189H226.77V32.11H230.969V33.334H226.77V35.255H232.023V36.513H220.293V35.255H225.546V33.334H222.401V32.11H225.546V30.189H222.571V31.243H221.534V32.28H220.293V31.056H221.347V30.002H222.401V27.894H223.625V28.948H225.546V27.027H219.426V31.243H218.372V34.388H217.335V36.513H216.077V34.201ZM226.6 25.803V24.749H227.637V23.882H222.571V24.749H223.625V25.803H226.6ZM235.168 35.255V25.99H234.097V24.749H235.168V23.695H236.222V21.604H237.259V20.55H238.5V21.604H239.554V22.641H244.62V20.55H245.844V22.641H250.043V27.027H248.802V23.882H241.645V27.027H240.591V31.243H236.392V34.201H239.367V33.334H238.313V32.11H239.554V33.164H240.591V36.513H239.367V35.459H236.392V36.513H234.097V35.255H235.168ZM240.421 25.803V23.882H239.367V22.828H238.313V21.774H237.446V23.695H238.5V25.803H240.421ZM237.259 25.803V23.882H236.392V24.936H235.355V25.803H237.259ZM242.512 24.749H247.952V29.135H243.753V30.002H248.989V36.513H247.765V35.459H243.753V36.513H242.512V24.749ZM246.711 27.894V25.99H243.753V27.894H246.711ZM239.367 27.894V27.027H236.392V27.894H239.367ZM239.367 30.002V29.135H236.392V30.002H239.367ZM247.765 34.201V31.243H243.753V34.201H247.765ZM261.569 28.965H262.623V27.911H263.66V26.874H264.714V24.766H265.768V22.845H253.171V21.621H266.992V24.953H265.955V27.044H264.901V28.098H263.847V29.152H262.793V30.206H261.569V28.965ZM253.171 34.218H255.262V33.181H256.316V32.127H257.37V30.019H258.424V24.766H259.648V30.206H258.594V32.297H257.557V33.351H256.503V34.405H255.449V35.476H253.171V34.218ZM270.664 34.218H272.789V33.181H274.88V32.127H276.988V31.073H278.025V30.019H279.079V27.911H280.133V25.82H281.187V23.899H271.735V22.658H282.411V26.007H281.357V28.098H280.32V30.019H281.357V31.073H282.411V32.127H283.465V33.181H284.519V34.218H285.556V35.476H284.332V34.405H283.278V33.351H282.224V32.297H281.187V31.26H280.133V30.206H279.266V31.26H278.212V32.297H277.158V33.351H275.067V34.405H272.959V35.476H270.664V34.218ZM299.717 21.621H300.771V20.567H303.049V21.621H304.103V23.899H303.049V24.953H300.771V23.899H299.717V21.621ZM302.862 23.712V21.791H300.958V23.712H302.862ZM288.157 34.218H289.228V32.127H290.282V30.019H291.319V26.874H292.373V22.658H293.614V27.044H292.56V30.206H291.506V32.297H290.452V34.405H289.415V35.476H288.157V34.218ZM300.771 29.152H299.717V27.044H298.68V24.953H297.626V22.658H298.85V24.766H299.904V26.874H300.958V28.965H302.012V32.127H303.049V34.405H301.825V32.297H300.771V29.152ZM306.704 34.218H308.829V32.127H309.866V30.019H310.92V26.874H311.974V24.766H313.028V21.621H314.252V24.953H313.198V27.044H312.161V30.206H311.107V32.297H310.053V34.218H314.065V33.181H319.318V32.297H318.264V31.26H317.227V29.152H316.173V27.911H317.397V28.965H318.451V31.073H319.505V32.127H320.559V34.218H321.596V36.53H320.372V34.405H314.252V35.476H306.704V34.218Z"></path>
<path fill="black" d="M35.26 70.18V68.08H33.772V67.216H35.26V65.86H33.028V64.984H35.26V64.372H33.772V62.02H34.516V59.8H35.38V60.544H37.612V62.896H36.868V63.508H38.344V64.984H39.088V65.86H38.344V68.08H36.124V70.324H35.38V71.068H33.772V70.18H35.26ZM27.832 63.508H30.064V62.896H28.588V62.02H30.064V61.408H27.832V60.544H30.064V59.8H30.94V60.544H33.16V61.408H30.94V62.02H32.416V62.896H30.94V63.508H33.16V64.372H27.832V63.508ZM35.992 63.508V62.764H36.736V61.408H35.38V62.152H34.648V63.508H35.992ZM37.48 64.984V64.372H36.124V64.984H37.48ZM28.588 64.984H32.416V71.068H30.064V70.18H31.552V68.824H29.452V71.068H28.588V64.984ZM37.48 67.216V65.86H36.124V67.216H37.48ZM31.552 66.472V65.86H29.452V66.472H31.552ZM31.552 67.96V67.348H29.452V67.96H31.552ZM41.164 68.716H41.908V67.228H42.64V64.996H43.384V63.652H41.164V62.776H44.128V59.812H44.992V62.776H47.224V63.52H47.956V68.092H47.224V69.58H46.48V70.336H43.384V69.448H46.348V67.972H47.092V63.652H44.26V65.128H43.516V67.36H42.772V68.836H42.028V70.336H41.164V68.716ZM50.056 64.384H49.312V62.908H48.568V62.164H47.836V61.288H48.7V62.032H49.444V62.776H50.188V64.264H50.92V65.74H51.664V66.616H50.788V65.872H50.056V64.384ZM56.728 64.996H57.472V64.264H58.216V63.52H58.948V62.776H59.692V62.164H53.752V61.288H64.264V62.164H61.3V62.908H59.824V63.652H59.08V64.384H58.336V65.128H57.604V67.972H58.336V68.716H59.08V69.448H62.788V70.336H58.948V69.58H57.472V68.092H56.728V64.996ZM62.656 62.776H63.532V63.52H64.264V64.264H65.008V65.128H64.132V64.384H63.4V63.652H62.656V62.776ZM61.18 63.52H62.044V64.264H62.788V64.996H63.532V65.872H62.656V65.128H61.912V64.384H61.18V63.52ZM69.688 62.152H66.712V61.276H69.688V59.8H70.564V61.276H74.14V59.8H75.004V61.276H77.968V62.152H75.004V62.896H74.14V62.152H70.564V62.896H69.688V62.152ZM67.468 70.18V69.436H68.212V68.704H68.944V67.216H69.82V67.96H70.432V67.216H71.908V66.472H72.652V65.86H71.908V65.116H71.296V65.86H70.432V64.984H71.176V64.252H71.908V62.764H72.784V63.508H75.748V65.116H75.004V65.86H74.26V66.472H75.748V67.216H77.968V68.08H76.492V71.068H75.616V70.324H72.04V71.068H71.176V68.08H70.564V68.824H69.076V69.568H68.332V70.324H67.6V71.068H66.712V70.18H67.468ZM68.212 63.64H67.468V62.764H68.332V63.508H69.82V64.372H68.212V63.64ZM72.784 64.984V65.728H74.14V64.984H74.872V64.372H72.04V64.984H72.784ZM68.212 65.86H67.468V64.984H68.332V65.728H69.82V66.604H68.212V65.86ZM75.616 67.96V67.348H74.14V66.604H72.784V67.348H72.04V67.96H75.616ZM75.616 69.436V68.824H72.04V69.436H75.616ZM82.264 69.448H87.46V68.716H88.936V66.616H88.192V65.872H83.884V66.616H82.396V67.36H81.532V65.74H82.264V64.264H83.008V62.908H80.788V62.032H83.752V61.288H84.496V59.812H85.36V61.42H84.616V62.032H89.068V62.908H83.884V64.384H83.14V65.74H83.752V64.996H88.324V65.74H89.068V66.484H89.812V68.836H89.068V69.58H87.58V70.336H82.264V69.448ZM92.632 69.436H93.388V68.704H94.132V67.216H94.864V64.372H92.632V63.508H97.828V62.896H94.132V62.02H97.828V61.408H93.388V60.544H95.608V59.8H96.484V60.544H100.06V59.8H100.924V60.544H103.144V61.408H98.704V62.02H102.412V62.896H98.704V63.508H103.888V64.372H95.74V67.348H94.996V68.824H94.252V69.568H93.52V70.324H92.632V69.436ZM96.352 64.984H102.412V71.068H101.536V70.324H97.216V71.068H96.352V64.984ZM101.536 66.472V65.86H97.216V66.472H101.536ZM101.536 67.96V67.348H97.216V67.96H101.536ZM101.536 69.436V68.824H97.216V69.436H101.536ZM107.08 68.092H106.336V61.288H107.2V67.972H107.944V69.448H110.044V68.716H110.776V67.228H111.652V68.836H110.908V69.58H110.164V70.336H107.812V69.58H107.08V68.092ZM114.484 64.384H113.74V62.908H113.008V61.288H113.872V62.776H114.616V64.264H115.36V66.484H116.092V68.836H115.228V66.616H114.484V64.384ZM119.296 68.716H120.04V66.484H120.772V63.52H121.516V62.908H119.296V62.032H121.516V59.812H122.392V62.032H126.088V62.908H122.392V63.652H121.648V66.616H120.904V68.836H120.16V70.336H119.296V68.716ZM123.736 64.264H129.052V65.128H123.736V64.264ZM123.004 67.972H123.736V67.228H124.612V68.092H123.868V69.448H129.052V70.336H123.736V69.58H123.004V67.972ZM131.512 63.508H136.708V62.896H133.012V62.02H136.708V61.408H132.268V60.544H136.708V59.8H137.584V60.544H142.024V61.408H137.584V62.02H141.292V62.896H137.584V63.508H142.768V64.372H131.512V63.508ZM133.012 64.984H141.292V70.324H140.548V71.068H138.196V70.18H140.416V68.824H133.876V71.068H133.012V64.984ZM140.416 66.472V65.86H133.876V66.472H140.416ZM140.416 67.96V67.348H133.876V67.96H140.416ZM144.472 64.252H145.972V63.508H147.448V62.764H148.192V62.152H145.228V61.276H149.668V59.8H150.544V61.276H154.984V62.152H151.288V62.764H152.02V63.508H153.508V64.252H155.728V65.116H153.376V64.372H151.9V63.64H151.156V62.896H150.544V65.116H149.668V62.152H149.056V62.896H148.324V63.64H147.58V64.372H146.092V65.116H144.472V64.252ZM149.668 69.436H150.412V67.96H151.156V66.604H150.412V65.728H151.9V64.984H152.764V65.728H155.728V66.604H153.508V67.216H154.252V68.704H154.984V69.436H155.728V70.324H154.852V69.568H154.12V68.824H153.376V67.348H152.764V71.068H151.9V68.08H151.288V69.568H150.544V70.324H149.668V69.436ZM144.472 69.436H145.228V68.704H145.972V67.216H146.704V66.604H144.472V65.728H147.448V64.984H148.324V65.728H149.8V66.604H148.324V67.216H149.056V67.96H149.8V68.824H148.936V68.08H148.324V71.068H147.448V67.348H146.836V68.824H146.092V69.568H145.36V70.324H144.472V69.436ZM158.56 68.836H157.804V64.996H158.56V63.52H159.304V62.776H160.036V62.032H161.524V61.288H165.352V62.032H166.84V62.776H167.584V64.264H168.316V68.092H167.584V69.58H166.84V70.336H165.352V71.08H163V70.192H165.232V69.448H166.708V67.972H167.452V64.384H166.708V62.908H165.232V62.164H163.876V64.384H163.132V66.616H162.388V68.092H161.656V69.58H160.912V70.336H159.304V69.58H158.56V68.836ZM159.424 68.716V69.448H160.78V67.972H161.524V66.484H162.268V64.264H163V62.164H161.656V62.908H160.168V63.652H159.424V65.128H158.692V68.716H159.424ZM171.88 61.276H174.844V60.544H175.576V59.8H176.452V60.664H175.708V61.276H180.16V71.068H179.284V70.324H172.744V71.068H171.88V61.276ZM179.284 64.252V62.152H172.744V64.252H179.284ZM179.284 66.472V65.116H172.744V66.472H179.284ZM179.284 69.436V67.348H172.744V69.436H179.284ZM183.352 67.216H184.852V66.472H186.328V65.86H185.584V65.116H184.24V65.86H183.352V64.984H184.108V63.508H184.852V62.02H185.584V59.8H186.46V61.276H189.424V62.896H188.68V63.508H190.78V59.8H191.644V63.508H194.608V64.372H192.388V65.728H193.132V66.472H193.864V67.216H194.608V68.08H193.732V67.348H193V66.604H192.256V65.86H191.512V65.116H190.9V66.604H190.168V67.348H189.424V68.08H187.816V67.216H189.292V66.472H190.036V64.984H190.78V64.372H187.936V65.86H187.204V66.604H186.46V67.348H184.972V68.08H183.352V67.216ZM193 61.408H192.256V60.544H193.132V61.276H193.864V62.896H193V61.408ZM187.816 64.252V62.764H188.548V62.152H185.716V62.764H186.46V63.508H187.204V64.252H187.816ZM187.072 65.728V64.372H186.328V63.64H184.972V64.252H185.716V64.984H186.46V65.728H187.072ZM184.108 70.18V69.436H184.852V68.704H185.716V69.568H184.972V70.324H184.24V71.068H183.352V70.18H184.108ZM192.256 68.704H193.132V69.436H193.864V71.068H193V69.568H192.256V68.704ZM187.072 68.704H187.936V69.436H188.68V71.068H187.816V69.568H187.072V68.704ZM189.292 68.704H190.168V69.436H190.9V71.068H190.036V69.568H189.292V68.704ZM199.66 65.872H198.916V65.128H197.572V65.872H196.684V64.996H197.44V64.264H198.916V62.908H198.184V60.556H199.048V62.776H199.792V63.52H201.148V62.776H202.624V61.42H201.88V59.812H202.756V61.288H203.5V62.776H205.72V63.52H206.464V64.264H207.196V66.616H206.464V67.36H204.976V68.092H201.88V67.228H204.844V66.484H206.332V64.384H205.588V63.652H201.268V64.384H199.792V65.74H200.536V68.716H201.268V71.08H200.404V68.836H199.66V65.872ZM210.772 70.18V69.436H212.248V68.704H213.736V67.96H214.468V67.348H213.736V66.604H212.992V65.86H212.248V64.372H211.504V63.64H209.272V62.764H214.468V59.8H215.344V62.764H220.528V63.64H218.308V64.372H217.564V65.86H216.82V66.604H216.088V67.348H215.344V67.96H216.088V68.704H217.564V69.436H219.052V70.18H220.528V71.068H218.92V70.324H217.432V69.568H215.956V68.824H215.212V68.08H214.6V68.824H213.856V69.568H212.38V70.324H210.892V71.068H209.272V70.18H210.772ZM213.856 65.728V66.472H214.6V67.216H215.212V66.472H215.956V65.728H216.7V64.252H217.432V63.64H212.38V64.252H213.124V65.728H213.856ZM228.172 59.8H229.048V64.984H229.66V64.252H231.136V63.508H231.88V62.02H232.744V63.64H232.012V64.372H231.268V65.116H229.78V65.86H229.048V70.18H232.612V67.96H233.488V70.324H232.744V71.068H228.916V70.324H228.172V59.8ZM224.464 65.116H223.852V65.86H223.12V66.604H222.232V65.728H222.988V64.984H223.732V64.252H224.464V62.764H225.208V61.276H225.952V59.8H226.816V61.408H226.084V62.896H225.34V71.068H224.464V65.116ZM235.936 67.228H236.68V65.74H237.412V64.996H238.156V63.52H238.9V62.908H235.936V62.032H239.644V59.812H240.508V62.032H244.216V62.908H239.764V63.52H241.252V64.264H241.996V65.74H242.608V64.996H244.084V64.264H245.692V65.128H244.216V65.872H242.728V66.616H241.996V69.58H241.12V67.36H239.764V68.092H239.032V70.192H244.96V71.08H238.9V70.336H238.156V67.972H238.9V67.228H239.644V66.484H241.12V64.384H239.032V65.128H238.288V65.872H237.544V67.36H236.8V68.092H235.936V67.228ZM250.384 65.116H249.772V65.86H249.04V66.604H248.152V65.728H248.908V64.984H249.652V63.508H250.384V62.02H251.128V59.8H252.004V62.152H251.26V68.704H251.872V67.96H252.616V66.472H253.348V64.984H254.092V63.64H251.872V62.764H254.836V59.8H255.7V62.764H259.408V63.64H256.444V64.252H257.188V65.728H257.932V67.216H258.664V68.704H259.408V69.568H258.532V68.824H255.7V71.068H254.836V68.824H252.004V69.568H251.26V71.068H250.384V65.116ZM257.8 67.96V67.348H257.056V65.86H256.312V64.372H255.7V67.96H257.8ZM254.836 67.96V65.116H254.224V66.604H253.48V67.96H254.836ZM261.112 69.436H261.868V67.96H262.732V69.436H263.344V67.96H264.964V70.18H265.576V67.348H261.868V60.544H266.44V61.408H264.964V62.764H266.308V62.02H267.052V61.276H267.796V60.544H268.54V59.8H269.404V60.544H270.148V61.276H270.892V62.02H272.368V62.896H271.624V63.64H269.404V64.984H271.624V68.08H270.148V68.704H270.892V69.436H271.624V70.18H272.368V71.068H271.492V70.324H270.76V69.568H270.016V68.824H268.66V69.568H267.928V70.324H267.184V71.068H266.308V70.324H265.696V71.068H264.088V69.568H263.476V71.068H262.612V69.568H262V71.068H261.112V69.436ZM270.76 62.764V62.152H270.016V61.408H269.272V60.664H268.66V61.408H267.928V62.152H267.184V62.764H270.76ZM264.088 62.764V61.408H262.732V62.764H264.088ZM267.052 70.18V69.436H267.796V68.704H268.54V68.08H267.052V64.984H268.54V63.64H267.052V62.896H266.44V63.64H264.964V64.252H266.44V65.116H264.964V66.472H266.44V70.18H267.052ZM264.088 64.252V63.64H262.732V64.252H264.088ZM264.088 66.472V65.116H262.732V66.472H264.088ZM270.76 67.216V65.86H269.404V67.216H270.76ZM268.54 67.216V65.86H267.928V67.216H268.54ZM277.048 64.996H277.792V64.264H278.536V63.52H279.268V62.776H280.012V62.164H274.072V61.288H284.584V62.164H281.62V62.908H280.144V63.652H279.4V64.384H278.656V65.128H277.924V67.972H278.656V68.716H279.4V69.448H283.108V70.336H279.268V69.58H277.792V68.092H277.048V64.996ZM282.976 62.776H283.852V63.52H284.584V64.264H285.328V65.128H284.452V64.384H283.72V63.652H282.976V62.776ZM281.5 63.52H282.364V64.264H283.108V64.996H283.852V65.872H282.976V65.128H282.232V64.384H281.5V63.52ZM288.892 67.228H289.624V66.484H294.82V65.872H294.076V65.128H288.148V64.264H293.332V63.652H292.588V62.908H288.148V62.032H291.856V61.42H291.112V59.812H291.976V61.288H292.72V62.032H294.076V61.288H296.428V62.164H294.208V62.908H293.464V63.52H294.208V64.264H294.82V63.52H297.172V64.384H294.94V65.74H295.684V66.484H296.428V67.228H297.172V68.092H295.552V67.36H289.756V69.448H296.428V70.336H289.624V69.58H288.892V67.228ZM301.108 67.972H301.852V67.228H305.548V65.128H301.108V64.264H305.548V62.908H301.108V62.032H305.548V59.812H306.424V62.032H310.132V62.908H306.424V64.264H310.132V65.128H306.424V67.972H307.9V68.716H308.644V69.448H309.388V70.192H310.132V71.08H309.256V70.336H308.512V69.58H307.78V68.836H306.424V70.336H305.68V71.08H301.852V70.336H301.108V67.972ZM305.548 70.192V68.092H301.972V70.192H305.548ZM317.788 70.192V69.448H318.52V68.716H319.264V67.36H318.652V68.092H316.3V67.36H315.556V64.996H316.3V64.264H318.652V64.996H319.264V62.908H313.324V62.032H319.264V59.812H320.14V62.032H323.836V62.908H320.14V68.836H319.396V69.58H318.652V70.336H317.908V71.08H316.3V70.192H317.788ZM318.52 67.228V66.484H319.264V65.872H318.52V65.128H316.432V67.228H318.52ZM326.296 67.972H327.04V67.228H329.392V67.972H330.124V70.336H329.392V71.08H327.04V70.336H326.296V67.972ZM329.26 70.192V68.092H327.16V70.192H329.26ZM27.832 85.704H28.588V83.472H29.332V76.8H38.344V79.896H36.124V81.252H38.344V82.116H36.124V83.472H39.088V84.348H38.344V85.08H37.612V85.824H36.868V87.18H39.088V88.068H36.736V87.324H35.26V86.568H34.516V85.08H33.772V84.348H32.416V86.436H33.904V87.324H32.416V88.068H29.332V87.18H31.552V84.348H30.064V83.604H29.452V85.824H28.72V88.068H27.832V85.704ZM37.48 79.02V77.664H30.196V79.02H37.48ZM32.296 83.472V82.116H30.808V81.252H32.296V79.896H30.196V83.472H32.296ZM35.26 81.252V79.896H33.16V81.252H35.26ZM35.26 83.472V82.116H33.16V83.472H35.26ZM35.38 84.96V86.436H35.992V85.704H36.736V84.96H37.48V84.348H34.648V84.96H35.38ZM42.292 82.116H41.548V79.152H40.792V78.276H43.024V76.8H43.9V78.276H46.12V79.152H42.412V81.984H45.376V82.86H42.292V82.116ZM45.988 81.252H46.732V77.544H50.572V82.86H48.952V81.984H49.696V81.372H46.864V82.86H45.988V81.252ZM49.696 79.02V78.408H47.608V79.02H49.696ZM49.696 80.508V79.896H47.608V80.508H49.696ZM45.988 87.18V85.824H42.292V84.96H45.988V84.348H41.548V83.472H51.304V84.348H46.864V84.96H49.828V85.824H46.864V87.18H52.048V88.068H40.792V87.18H45.988ZM54.124 81.252H56.344V80.508H57.088V79.764H57.832V78.276H58.564V76.8H59.44V78.408H58.696V79.896H57.952V80.64H57.22V81.252H60.052V80.508H63.016V79.896H62.272V79.152H61.528V78.276H62.404V79.02H63.148V79.764H63.88V81.252H64.624V82.86H63.748V81.372H60.184V82.116H54.124V81.252ZM55.6 83.472H63.88V88.068H63.016V87.324H56.476V88.068H55.6V83.472ZM63.016 86.436V84.348H56.476V86.436H63.016ZM67.084 85.716H67.828V84.228H68.56V81.996H69.304V80.652H67.084V79.776H70.048V76.812H70.912V79.776H73.144V80.52H73.876V85.092H73.144V86.58H72.4V87.336H69.304V86.448H72.268V84.972H73.012V80.652H70.18V82.128H69.436V84.36H68.692V85.836H67.948V87.336H67.084V85.716ZM75.976 81.384H75.232V79.908H74.488V79.164H73.756V78.288H74.62V79.032H75.364V79.776H76.108V81.264H76.84V82.74H77.584V83.616H76.708V82.872H75.976V81.384ZM81.892 77.556H86.476V78.288H87.952V79.164H86.344V78.42H81.892V77.556ZM81.892 86.448H87.088V85.716H88.564V83.616H87.82V82.872H84.244V83.616H82.768V84.36H81.16V81.264H81.892V79.776H82.768V81.384H82.024V83.484H82.636V82.74H84.124V81.996H87.952V82.74H88.696V83.484H89.44V85.836H88.696V86.58H87.208V87.336H81.892V86.448ZM92.632 86.436H93.388V84.216H94.132V77.544H102.412V87.18H103.012V84.216H103.888V87.324H103.144V88.068H102.28V87.324H101.668V88.068H100.792V87.324H94.864V86.436H97.828V84.348H95.608V81.252H97.828V80.64H95.608V79.764H97.828V79.02H100.924V79.896H98.704V81.252H100.924V84.348H98.704V86.436H100.06V84.96H100.924V87.18H101.536V78.408H94.996V84.348H94.252V86.568H93.52V88.068H92.632V86.436ZM97.828 83.472V82.116H96.484V83.472H97.828ZM100.06 83.472V82.116H98.704V83.472H100.06ZM105.592 81.252H110.788V80.64H107.824V76.8H114.628V80.64H111.664V81.252H116.848V82.116H105.592V81.252ZM113.752 78.276V77.664H108.7V78.276H113.752ZM113.752 79.764V79.152H108.7V79.764H113.752ZM107.824 82.728H114.628V85.08H111.664V87.324H110.92V88.068H109.312V87.18H110.788V85.08H107.824V82.728ZM113.752 84.216V83.604H108.7V84.216H113.752ZM105.592 86.436H107.824V85.704H109.444V86.568H107.956V87.324H105.592V86.436ZM113.02 85.704H114.628V86.436H116.104V87.324H114.496V86.568H113.02V85.704ZM121.156 82.872H118.924V81.996H121.156V79.908H119.68V79.032H121.9V76.812H122.776V79.032H125.74V79.908H122.032V81.996H125.74V82.872H122.032V86.448H122.776V87.192H127.084V86.448H127.828V85.716H128.572V82.872H127.828V81.384H127.084V80.52H127.96V81.264H128.704V82.74H129.436V85.836H128.704V86.58H127.96V87.336H127.216V88.08H122.644V87.336H121.9V86.58H121.156V82.872ZM131.512 86.436H133.012V85.704H134.488V84.96H135.976V84.348H131.512V83.472H136.708V82.86H135.232V78.276H135.976V77.544H136.708V76.8H137.584V77.664H136.84V78.276H139.06V82.86H137.584V83.472H142.768V84.348H138.328V84.96H139.804V85.704H141.292V86.436H142.768V87.324H141.16V86.568H139.672V85.824H138.196V85.08H137.584V88.068H136.708V85.08H136.096V85.824H134.62V86.568H133.132V87.324H131.512V86.436ZM133.744 79.152H133.012V78.408H132.268V77.544H133.132V78.276H133.876V79.02H134.62V79.896H133.744V79.152ZM139.672 79.02H140.416V78.276H141.16V77.544H142.024V78.408H141.292V79.152H140.548V79.896H139.672V79.02ZM138.196 79.764V79.152H136.096V79.764H138.196ZM131.512 81.984H133.012V81.252H133.744V80.508H134.62V81.372H133.876V82.116H133.132V82.86H131.512V81.984ZM139.672 80.508H140.548V81.252H141.292V81.984H142.768V82.86H141.16V82.116H140.416V81.372H139.672V80.508ZM138.196 81.984V80.64H136.096V81.984H138.196ZM145.588 77.556H146.452V85.716H147.196V86.448H150.772V85.716H152.248V84.972H152.992V84.228H153.736V83.484H154.6V84.36H153.868V85.092H153.124V85.836H152.38V86.58H150.904V87.336H147.064V86.58H146.32V85.836H145.588V77.556ZM157.804 82.74H158.56V81.996H159.304V77.556H160.168V80.52H161.524V79.776H164.488V77.556H165.352V80.52H166.84V81.264H167.584V81.996H168.316V85.092H167.584V85.836H166.84V86.58H166.096V87.336H165.352V88.08H163.744V87.192H165.232V86.448H165.964V85.716H166.708V84.972H167.452V82.128H166.708V81.384H165.232V80.652H164.62V81.384H163.876V82.872H163.132V84.36H162.388V85.092H161.656V85.716H162.388V86.58H161.524V85.836H160.912V86.58H160.168V87.336H158.56V86.58H157.804V82.74ZM162.268 84.228V82.74H163V81.264H163.744V80.652H161.656V81.384H160.912V84.228H162.268ZM160.036 86.448V85.716H160.78V84.36H160.036V82.128H159.424V82.872H158.692V86.448H160.036ZM170.776 84.972H171.64V85.716H172.384V86.448H173.128V88.08H172.252V87.336H171.52V86.58H170.776V84.972ZM190.78 87.18V85.08H189.292V84.216H190.78V82.86H188.548V81.984H190.78V81.372H189.292V79.02H190.036V76.8H190.9V77.544H193.132V79.896H192.388V80.508H193.864V81.984H194.608V82.86H193.864V85.08H191.644V87.324H190.9V88.068H189.292V87.18H190.78ZM183.352 80.508H185.584V79.896H184.108V79.02H185.584V78.408H183.352V77.544H185.584V76.8H186.46V77.544H188.68V78.408H186.46V79.02H187.936V79.896H186.46V80.508H188.68V81.372H183.352V80.508ZM191.512 80.508V79.764H192.256V78.408H190.9V79.152H190.168V80.508H191.512ZM193 81.984V81.372H191.644V81.984H193ZM184.108 81.984H187.936V88.068H185.584V87.18H187.072V85.824H184.972V88.068H184.108V81.984ZM193 84.216V82.86H191.644V84.216H193ZM187.072 83.472V82.86H184.972V83.472H187.072ZM187.072 84.96V84.348H184.972V84.96H187.072ZM196.684 85.716H197.428V84.228H198.16V81.996H198.904V80.652H196.684V79.776H199.648V76.812H200.512V79.776H202.744V80.52H203.476V85.092H202.744V86.58H202V87.336H198.904V86.448H201.868V84.972H202.612V80.652H199.78V82.128H199.036V84.36H198.292V85.836H197.548V87.336H196.684V85.716ZM205.576 81.384H204.832V79.908H204.088V79.164H203.356V78.288H204.22V79.032H204.964V79.776H205.708V81.264H206.44V82.74H207.184V83.616H206.308V82.872H205.576V81.384ZM209.644 84.972H210.388V83.484H211.12V81.996H211.864V80.52H212.608V79.908H209.644V79.032H212.608V78.288H213.352V76.812H214.216V78.42H213.472V79.032H215.704V79.908H213.472V80.652H212.74V82.128H211.996V83.616H211.252V85.092H210.508V85.836H209.644V84.972ZM216.316 79.032H219.4V79.776H220.144V80.652H219.268V79.908H216.316V79.032ZM212.608 84.972H213.352V84.228H216.316V81.264H217.18V84.972H217.924V85.716H218.668V86.448H219.4V87.336H218.536V86.58H217.792V85.836H217.18V86.58H216.436V87.336H215.704V88.08H213.352V87.336H212.608V84.972ZM215.572 87.192V86.448H216.316V85.092H213.472V87.192H215.572ZM226.312 82.728H230.752V81.372H226.312V80.508H229.276V79.152H227.044V78.276H229.276V76.8H230.14V78.276H232.36V79.152H230.14V80.508H233.104V81.372H231.628V82.728H233.104V83.604H231.628V87.324H230.884V88.068H228.532V87.18H230.752V83.604H226.312V82.728ZM222.604 78.276H225.7V85.08H223.468V86.568H222.604V78.276ZM224.824 81.252V79.152H223.468V81.252H224.824ZM224.824 84.216V82.116H223.468V84.216H224.824ZM227.788 84.216H228.664V84.96H229.396V85.824H228.532V85.08H227.788V84.216ZM244.828 87.18V81.372H241.12V76.8H245.692V87.324H244.96V88.068H242.608V87.18H244.828ZM235.936 76.8H240.508V81.372H236.8V88.068H235.936V76.8ZM239.644 78.276V77.664H236.8V78.276H239.644ZM244.828 78.276V77.664H241.996V78.276H244.828ZM239.644 80.508V79.152H236.8V80.508H239.644ZM244.828 80.508V79.152H241.996V80.508H244.828ZM238.156 81.984H242.728V86.568H238.156V81.984ZM241.864 83.472V82.86H239.032V83.472H241.864ZM241.864 85.704V84.348H239.032V85.704H241.864ZM248.896 84.228H249.64V82.74H250.372V81.996H251.116V80.52H251.86V79.908H248.896V79.032H252.604V76.812H253.468V79.032H257.176V79.908H252.724V80.52H254.212V81.264H254.956V82.74H255.568V81.996H257.044V81.264H258.652V82.128H257.176V82.872H255.688V83.616H254.956V86.58H254.08V84.36H252.724V85.092H251.992V87.192H257.92V88.08H251.86V87.336H251.116V84.972H251.86V84.228H252.604V83.484H254.08V81.384H251.992V82.128H251.248V82.872H250.504V84.36H249.76V85.092H248.896V84.228ZM262.612 87.18V86.436H263.344V82.86H261.112V81.984H264.22V86.436H265.576V80.508H266.308V76.8H270.892V80.508H272.368V85.824H271.624V86.568H269.272V85.704H271.492V81.372H266.44V86.568H265.696V87.18H272.368V88.068H265.576V87.324H264.088V86.568H263.476V87.324H262.732V88.068H261.112V87.18H262.612ZM263.344 78.408H262.612V77.664H261.868V76.8H262.732V77.544H263.476V78.276H264.22V79.152H263.344V78.408ZM267.796 80.508V78.276H270.016V77.664H267.184V80.508H267.796ZM270.016 80.508V79.152H268.66V80.508H270.016ZM267.052 81.984H270.892V85.08H267.052V81.984ZM270.016 84.216V82.86H267.928V84.216H270.016ZM283.336 77.676H282.592V76.812H283.468V77.556H284.2V78.288H284.944V79.164H284.068V78.42H283.336V77.676ZM275.188 78.288H281.116V77.556H281.98V78.288H282.724V79.032H283.468V79.908H282.592V79.164H275.188V78.288ZM275.188 85.836H274.444V84.228H275.188V83.484H276.052V84.36H275.308V85.716H276.796V86.448H282.592V85.716H283.468V86.58H282.724V87.336H276.664V86.58H275.188V85.836ZM289.636 81.384H287.404V80.52H289.636V77.556H290.512V80.52H294.832V77.556H295.696V80.52H297.916V81.384H295.696V84.36H294.952V85.092H292.6V84.228H294.832V81.384H290.512V85.716H291.256V86.448H296.44V87.336H291.124V86.58H290.38V85.836H289.636V81.384ZM301.108 84.972H301.852V84.228H305.548V82.128H301.108V81.264H305.548V79.908H301.108V79.032H305.548V76.812H306.424V79.032H310.132V79.908H306.424V81.264H310.132V82.128H306.424V84.972H307.9V85.716H308.644V86.448H309.388V87.192H310.132V88.08H309.256V87.336H308.512V86.58H307.78V85.836H306.424V87.336H305.68V88.08H301.852V87.336H301.108V84.972ZM305.548 87.192V85.092H301.972V87.192H305.548ZM317.788 87.192V86.448H318.52V85.716H319.264V84.36H318.652V85.092H316.3V84.36H315.556V81.996H316.3V81.264H318.652V81.996H319.264V79.908H313.324V79.032H319.264V76.812H320.14V79.032H323.836V79.908H320.14V85.836H319.396V86.58H318.652V87.336H317.908V88.08H316.3V87.192H317.788ZM318.52 84.228V83.484H319.264V82.872H318.52V82.128H316.432V84.228H318.52ZM326.296 84.972H327.04V84.228H329.392V84.972H330.124V87.336H329.392V88.08H327.04V87.336H326.296V84.972ZM329.26 87.192V85.092H327.16V87.192H329.26Z"></path>
</svg>
