<svg xmlns="http://www.w3.org/2000/svg" fill="none" viewBox="0 0 746 159" height="159" width="746">
<path fill="black" d="M0.968 14.656H4.904V12.704H8.872V10.72H12.808V8.736H16.776V6.752H20.712V4.768H25.032V7.104H21.064V9.088H17.128V11.072H13.16V13.024H9.224V15.008H5.256V18.624H9.224V20.608H13.16V22.592H17.128V24.576H21.064V26.528H25.032V28.896H20.712V26.88H16.776V24.896H12.808V22.912H8.872V20.96H4.904V18.976H0.968V14.656ZM47.784 16.64H49.768V14.656H51.72V12.704H53.704V8.736H55.688V5.12H31.976V2.816H57.992V9.088H56.04V13.024H54.056V15.008H52.072V16.992H50.088V18.976H47.784V16.64ZM31.976 26.528H35.912V24.576H37.896V22.592H39.88V18.624H41.864V8.736H44.168V18.976H42.184V22.912H40.232V24.896H38.248V26.88H36.264V28.896H31.976V26.528ZM65.96 0.831999H68.296V10.72H72.232V12.704H78.184V14.656H82.12V16.64H86.088V18.976H81.768V16.992H77.832V15.008H71.912V13.024H68.296V30.88H65.96V0.831999ZM83.752 3.136H81.768V0.831999H84.104V2.816H86.088V4.768H88.04V7.104H85.736V5.12H83.752V3.136ZM81.768 7.104H79.816V5.12H77.832V2.816H80.136V4.768H82.12V6.752H84.104V9.088H81.768V7.104ZM115.752 2.816H117.736V0.831999H120.072V2.816H122.024V4.768H124.008V7.104H122.024V9.088H119.72V7.104H117.736V5.12H115.752V2.816ZM119.72 4.768V3.136H118.088V4.768H119.72ZM93.992 26.528H96.008V22.592H97.992V18.624H99.944V12.704H101.928V4.768H104.264V13.024H102.28V18.976H100.296V22.912H98.312V26.88H96.36V28.896H93.992V26.528ZM117.736 16.992H115.752V13.024H113.8V9.088H111.816V4.768H114.12V8.736H116.104V12.704H118.088V16.64H120.072V22.592H122.024V26.88H119.72V22.912H117.736V16.992ZM121.672 6.752V5.12H120.072V6.752H121.672ZM127.944 18.624H131.944V16.64H135.88V14.656H139.848V12.704H141.8V10.72H143.784V8.736H145.768V6.752H147.752V4.768H149.704V2.816H151.688V0.831999H154.024V3.136H152.04V5.12H150.056V7.104H148.072V9.088H146.12V30.88H143.784V13.024H142.152V15.008H140.168V16.992H136.232V18.976H132.264V20.96H127.944V18.624ZM158.984 26.528H162.984V24.576H166.92V22.592H170.888V20.608H172.84V18.624H174.824V14.656H176.808V10.72H178.792V7.104H161V4.768H181.096V11.072H179.112V15.008H177.16V18.624H179.112V20.608H181.096V22.592H183.08V24.576H185.064V26.528H187.016V28.896H184.712V26.88H182.728V24.896H180.744V22.912H178.792V20.96H176.808V18.976H175.176V20.96H173.192V22.912H171.208V24.896H167.272V26.88H163.304V28.896H158.984V26.528ZM192.968 26.528H196.904V24.576H200.872V22.592H204.808V20.608H208.776V18.624H212.712V15.008H208.776V13.024H204.808V11.072H200.872V9.088H196.904V7.104H192.968V4.768H197.256V6.752H201.224V8.736H205.16V10.72H209.128V12.704H213.064V14.656H217.032V18.976H213.064V20.96H209.128V22.912H205.16V24.896H201.224V26.88H197.256V28.896H192.968V26.528ZM33.96 36.736H41.864V34.784H43.816V32.8H46.152V35.104H44.168V36.736H56.04V62.848H53.704V60.864H36.264V62.848H33.96V36.736ZM53.704 44.672V39.072H36.264V44.672H53.704ZM53.704 50.592V46.976H36.264V50.592H53.704ZM53.704 58.496V52.928H36.264V58.496H53.704ZM61.992 44.672H64.008V42.688H65.992V40.704H67.944V38.72H69.928V34.784H71.912V32.8H74.216V35.104H72.264V39.072H70.28V41.056H68.296V43.04H66.312V44.992H64.36V46.976H61.992V44.672ZM81.8 35.104H79.816V32.8H82.12V34.784H84.104V38.72H86.088V40.704H88.072V42.688H90.024V44.672H92.008V46.976H89.672V44.992H87.72V43.04H85.736V41.056H83.752V39.072H81.8V35.104ZM65.992 60.48V58.496H67.944V56.544H69.928V52.576H71.912V48.96H65.992V46.624H86.088V60.864H84.104V62.848H75.848V60.48H83.752V48.96H74.216V52.928H72.264V56.864H70.28V58.848H68.296V60.864H66.312V62.848H61.992V60.48H65.992ZM97 56.896H94.984V46.656H97V42.72H98.984V40.736H100.936V38.752H104.904V36.768H115.112V38.752H119.08V40.736H121.064V44.704H123.016V54.912H121.064V58.88H119.08V60.896H115.112V62.88H108.84V60.512H114.792V58.528H118.728V54.592H120.712V45.024H118.728V41.088H114.792V39.104H111.176V45.024H109.192V50.976H107.208V54.912H105.256V58.88H103.272V60.896H98.984V58.88H97V56.896ZM99.304 56.576V58.528H102.92V54.592H104.904V50.624H106.888V44.704H108.84V39.104H105.256V41.088H101.288V43.072H99.304V47.008H97.352V56.576H99.304ZM144.776 60.48V54.88H138.824V46.624H144.776V43.04H138.824V40.704H140.808V36.736H142.792V32.8H145.096V37.088H143.144V40.704H148.712V37.088H146.728V34.784H149.064V36.736H151.048V40.704H153V43.04H150.696V41.056H149.064V43.04H147.08V46.624H153V54.88H147.08V58.496H150.696V56.544H153V60.48H154.984V62.848H152.648V60.864H145.096V62.848H138.824V60.48H144.776ZM134.888 60.48V50.944H126.984V42.688H134.888V37.088H126.984V34.784H137.192V44.992H129.288V48.608H137.192V60.864H135.24V62.848H126.984V60.48H134.888ZM144.776 52.576V48.96H141.16V52.576H144.776ZM150.696 52.576V48.96H147.08V52.576H150.696ZM157.992 52.608H160.008V50.624H161.992V48.64H165.928V46.656H169.896V44.704H171.848V40.736H173.832V39.104H163.944V36.768H176.168V41.088H174.184V45.024H172.2V46.656H178.12V48.64H181.736V42.72H184.072V50.624H186.024V52.608H188.008V54.912H185.672V52.96H182.088V56.896H180.104V58.88H178.12V60.896H176.168V62.88H171.848V60.512H175.816V58.528H177.8V56.576H179.752V52.608H181.736V50.976H177.8V48.992H170.216V52.96H168.264V56.896H166.28V58.88H164.296V60.896H160.008V58.88H157.992V52.608ZM163.944 58.528V56.576H165.928V52.608H167.912V48.992H166.28V50.976H162.312V52.96H160.36V58.528H163.944ZM191.976 52.608H193.96V48.64H195.912V46.656H197.896V42.72H199.88V41.088H191.976V38.752H201.864V32.832H204.168V38.752H214.056V41.088H202.184V42.72H206.152V44.704H208.136V48.64H209.768V46.656H213.704V44.704H217.992V47.008H214.056V48.992H210.088V50.976H208.136V58.88H205.8V52.96H202.184V54.912H200.232V60.512H216.04V62.88H199.88V60.896H197.896V54.592H199.88V52.608H201.864V50.624H205.8V45.024H200.232V47.008H198.248V48.992H196.264V52.96H194.28V54.912H191.976V52.608ZM233.896 50.592H239.816V44.992H231.912V42.688H239.816V37.088H233.896V34.784H243.752V32.8H250.024V35.104H244.104V37.088H242.12V42.688H252.008V44.992H242.12V50.592H250.024V62.848H247.72V60.864H236.2V62.848H233.896V50.592ZM227.944 37.088H225.992V35.104H224.008V32.8H226.312V34.784H228.296V36.736H230.28V39.072H227.944V37.088ZM227.944 44.992H225.992V43.04H224.008V40.704H226.312V42.688H228.296V44.672H230.28V46.976H227.944V44.992ZM221.992 58.496H224.008V56.544H225.992V52.576H227.944V48.608H230.28V52.928H228.296V56.864H226.312V58.848H224.36V60.864H221.992V58.496ZM247.72 58.496V52.928H236.2V58.496H247.72ZM254.984 56.576H256.968V52.608H258.92V46.656H260.904V43.072H254.984V40.736H262.888V32.832H265.192V40.736H271.144V42.72H273.096V54.912H271.144V58.88H269.16V60.896H260.904V58.528H268.808V54.592H270.792V43.072H263.24V47.008H261.256V52.96H259.272V56.896H257.288V60.896H254.984V56.576ZM278.696 45.024H276.712V41.088H274.728V39.104H272.776V36.768H275.08V38.752H277.064V40.736H279.048V44.704H281V48.64H282.984V50.976H280.648V48.992H278.696V45.024ZM288.968 34.816H291.272V56.576H293.256V58.528H302.792V56.576H306.728V54.592H308.712V52.608H310.696V50.624H313V52.96H311.048V54.912H309.064V56.896H307.08V58.88H303.144V60.896H292.904V58.88H290.92V56.896H288.968V34.816ZM326.92 46.656H328.904V44.704H330.888V42.72H332.84V40.736H334.824V39.104H318.984V36.768H347.016V39.104H339.112V41.088H335.176V43.072H333.192V45.024H331.208V47.008H329.256V54.592H331.208V56.576H333.192V58.528H343.08V60.896H332.84V58.88H328.904V54.912H326.92V46.656ZM364.808 60.512V58.528H368.776V56.576H370.76V52.608H372.712V34.816H375.048V52.96H373.064V56.896H371.08V58.88H369.128V60.896H365.16V62.88H356.904V60.512H364.808ZM354.952 34.816H357.256V52.96H354.952V34.816ZM384.968 46.656H409.032V48.992H384.968V46.656ZM421.928 60.512V58.528H427.848V56.576H429.832V52.96H427.848V50.976H423.912V48.992H421.928V46.656H424.264V48.64H428.2V50.624H430.184V52.608H433.8V50.624H435.752V46.656H437.736V41.088H424.264V43.072H422.28V45.024H420.296V47.008H418.312V48.992H416.36V50.976H413.992V48.64H416.008V46.656H417.992V44.704H419.944V42.72H421.928V40.736H423.912V36.768H425.896V32.832H428.2V37.12H426.216V38.752H437.736V37.12H435.752V35.136H433.8V32.832H436.104V34.816H437.736V32.832H440.072V34.816H442.024V36.768H444.008V39.104H441.672V37.12H440.072V47.008H438.088V50.976H436.104V52.96H434.12V54.912H432.168V56.896H430.184V58.88H428.2V60.896H422.28V62.88H416.008V60.512H421.928ZM439.72 36.768V35.136H438.088V36.768H439.72ZM448.968 46.656H473.032V48.992H448.968V46.656ZM487.88 37.12H483.912V34.816H488.232V36.768H492.168V38.752H494.152V41.088H491.816V39.104H487.88V37.12ZM481.96 58.528H487.88V56.576H493.8V54.592H497.768V52.608H499.72V50.624H501.704V46.656H503.688V40.736H505.992V47.008H504.04V50.976H502.056V52.96H500.072V54.912H498.088V56.896H494.152V58.88H488.232V60.896H481.96V58.528ZM483.912 43.072H479.976V40.736H484.264V42.72H488.232V44.704H490.184V47.008H487.88V45.024H483.912V43.072ZM523.848 43.072H521.864V41.088H519.88V38.752H522.216V40.736H524.168V42.72H526.152V47.008H523.848V43.072ZM517.896 58.528H523.848V56.576H527.784V54.592H529.768V52.608H531.752V48.64H533.704V40.736H536.04V48.992H534.056V52.96H532.072V54.912H530.12V56.896H528.136V58.88H524.168V60.896H517.896V58.528ZM517.896 45.024H515.944V43.072H513.96V40.736H516.264V42.72H518.248V44.704H520.232V48.992H517.896V45.024ZM544.008 58.528H549.928V56.576H553.896V54.592H557.832V52.608H559.816V48.64H561.8V44.704H563.752V39.104H541.992V36.768H563.752V34.816H565.736V32.832H570.024V34.816H572.008V39.104H570.024V41.088H566.088V45.024H564.104V48.992H562.12V52.96H560.168V54.912H558.184V56.896H554.216V58.88H550.28V60.896H544.008V58.528ZM569.672 38.752V35.136H566.088V38.752H569.672ZM577 56.896H574.984V46.656H577V42.72H578.984V40.736H580.936V38.752H584.904V36.768H595.112V38.752H599.08V40.736H601.064V44.704H603.016V54.912H601.064V58.88H599.08V60.896H595.112V62.88H588.84V60.512H594.792V58.528H598.728V54.592H600.712V45.024H598.728V41.088H594.792V39.104H591.176V45.024H589.192V50.976H587.208V54.912H585.256V58.88H583.272V60.896H578.984V58.88H577V56.896ZM579.304 56.576V58.528H582.92V54.592H584.904V50.624H586.888V44.704H588.84V39.104H585.256V41.088H581.288V43.072H579.304V47.008H577.352V56.576H579.304ZM605.992 40.704H609.992V38.72H611.944V34.784H613.928V32.8H616.264V35.104H614.28V39.072H612.296V41.056H610.312V43.04H605.992V40.704ZM619.848 60.48V58.496H623.816V56.864H621.832V54.88H619.848V50.944H617.896V48.96H615.912V46.624H617.896V44.672H619.848V34.784H630.088V44.672H633.672V40.704H636.008V44.992H634.024V46.976H629.736V44.992H627.752V37.088H622.184V44.992H620.2V46.976H618.216V48.608H632.072V52.928H630.088V54.88H628.104V58.496H632.072V60.48H636.008V62.848H631.72V60.864H627.752V58.848H624.168V60.864H620.2V62.848H615.912V60.48H619.848ZM611.944 48.96H610.312V50.944H605.992V48.608H609.992V46.624H611.944V44.672H613.928V40.704H615.912V38.72H618.216V41.056H616.264V44.992H614.28V62.848H611.944V48.96ZM624.168 54.56V56.544H625.8V54.56H627.752V52.576H629.736V50.944H622.184V54.56H624.168ZM638.984 48.608H646.92V46.976H642.984V44.672H646.92V43.04H641V41.056H638.984V36.736H646.92V32.8H649.256V36.736H657.16V41.056H655.176V43.04H649.256V44.672H653.192V46.976H649.256V48.608H657.16V50.944H638.984V48.608ZM664.712 60.48V32.8H667.016V60.864H665.064V62.848H658.792V60.48H664.712ZM658.792 36.736H661.096V54.88H658.792V36.736ZM646.92 40.704V39.072H641.352V40.704H646.92ZM654.824 40.704V39.072H649.256V40.704H654.824ZM641 52.576H655.176V60.864H643.304V62.848H641V52.576ZM652.84 58.496V54.88H643.304V58.496H652.84ZM671.976 52.608H673.96V48.64H675.912V46.656H677.896V42.72H679.88V41.088H671.976V38.752H681.864V32.832H684.168V38.752H694.056V41.088H682.184V42.72H686.152V44.704H688.136V48.64H689.768V46.656H693.704V44.704H697.992V47.008H694.056V48.992H690.088V50.976H688.136V58.88H685.8V52.96H682.184V54.912H680.232V60.512H696.04V62.88H679.88V60.896H677.896V54.592H679.88V52.608H681.864V50.624H685.8V45.024H680.232V47.008H678.248V48.992H676.264V52.96H674.28V54.912H671.976V52.608ZM54.696 64.8H57.032V94.848H54.696V64.8ZM44.808 92.48V82.944H32.968V78.624H34.952V74.688H44.808V69.088H32.968V66.784H47.144V76.992H37.256V78.976H35.272V80.608H47.144V92.864H45.16V94.848H36.904V92.48H44.808ZM66.952 84.608H68.904V82.624H82.76V80.992H80.776V79.008H64.968V76.704H78.792V75.072H76.808V73.088H64.968V70.752H74.856V69.12H72.872V64.832H75.176V68.768H77.16V70.752H80.776V68.768H87.048V71.104H81.128V73.088H79.144V74.72H81.128V76.704H82.76V74.72H89.032V77.024H83.08V80.64H85.064V82.624H87.048V84.608H89.032V86.912H84.712V84.96H69.256V90.528H87.048V92.896H68.904V90.88H66.952V84.608ZM94.984 74.688H98.92V71.072H96.968V69.088H94.984V66.784H110.792V64.8H119.048V67.104H111.144V69.088H107.176V70.72H109.16V74.688H112.776V72.704H114.728V68.736H117.064V73.056H115.08V74.688H121V82.944H118.696V76.992H97.288V82.944H94.984V74.688ZM106.824 74.688V71.072H104.872V69.088H99.272V70.72H101.256V74.688H106.824ZM100.904 92.48V90.496H104.872V88.544H106.824V86.88H104.872V84.928H102.888V82.944H98.92V80.608H117.064V82.944H115.08V84.928H113.096V86.88H111.144V88.544H113.096V90.496H117.064V92.48H122.984V94.848H116.712V92.864H112.776V90.848H110.792V88.864H107.176V90.848H105.192V92.864H101.256V94.848H94.984V92.48H100.904ZM107.176 84.576V86.56H110.792V84.576H112.776V82.944H105.192V84.576H107.176ZM141.8 92.512V90.528H143.784V86.592H145.768V75.072H133.896V72.736H145.768V66.816H148.072V72.736H153.992V75.072H148.072V86.912H146.088V90.88H144.136V92.896H142.152V94.88H137.864V92.512H141.8ZM127.976 70.752H129.96V66.816H132.264V71.104H130.28V94.88H127.976V70.752ZM162.952 86.592H164.904V84.608H171.176V86.592H173.16V90.528H178.76V88.576H180.712V86.592H182.696V82.976H180.712V80.992H167.24V82.976H163.272V84.96H160.968V82.624H162.952V80.64H166.888V78.656H168.872V76.704H170.856V74.72H174.792V72.736H176.776V71.104H162.952V68.768H181.064V71.104H179.08V73.088H177.128V75.072H175.144V77.024H171.176V78.656H181.064V80.64H183.048V82.624H185.032V86.912H183.048V90.88H179.08V92.896H164.904V90.88H162.952V86.592ZM170.856 90.528V86.912H165.256V90.528H170.856ZM192.968 82.624H194.952V80.64H196.904V78.656H200.872V64.832H203.176V76.704H206.792V74.72H217.032V77.024H207.144V79.008H201.224V80.992H197.256V82.976H195.272V88.576H199.24V90.528H217.032V92.896H198.888V90.88H194.952V88.896H192.968V82.624ZM225.992 92.48V68.736H233.896V64.8H236.2V68.736H246.088V82.944H236.2V84.576H238.184V86.56H240.168V88.544H243.752V86.56H245.736V84.576H247.72V82.592H250.024V84.928H248.072V86.88H246.088V88.864H244.104V90.496H248.072V92.48H252.008V94.848H247.72V92.864H243.752V90.848H239.816V88.864H237.832V86.88H235.848V84.928H233.896V82.944H228.296V92.48H229.928V90.496H236.2V92.864H230.28V94.848H221.992V92.48H225.992ZM243.752 74.688V71.072H228.296V74.688H243.752ZM243.752 80.608V76.992H228.296V80.608H243.752ZM257.96 86.912H255.976V68.768H258.28V86.592H260.264V90.528H265.864V88.576H267.816V84.608H270.152V88.896H268.168V90.88H266.184V92.896H259.912V90.88H257.96V86.912ZM277.704 77.024H275.72V73.088H273.768V68.768H276.072V72.736H278.056V76.704H280.04V82.624H281.992V88.896H279.688V82.976H277.704V77.024ZM293.928 78.656H295.912V76.704H297.896V74.72H299.848V72.736H301.832V71.104H285.992V68.768H314.024V71.104H306.12V73.088H302.184V75.072H300.2V77.024H298.216V79.008H296.264V86.592H298.216V88.576H300.2V90.528H310.088V92.896H299.848V90.88H295.912V86.912H293.928V78.656ZM309.736 72.736H312.072V74.72H314.024V76.704H316.008V79.008H313.672V77.024H311.72V75.072H309.736V72.736ZM305.8 74.72H308.104V76.704H310.088V78.656H312.072V80.992H309.736V79.008H307.752V77.024H305.8V74.72ZM320.968 66.816H323.272V88.576H325.256V90.528H334.792V88.576H338.728V86.592H340.712V84.608H342.696V82.624H345V84.96H343.048V86.912H341.064V88.896H339.08V90.88H335.144V92.896H324.904V90.88H322.92V88.896H320.968V66.816ZM353.96 86.592H355.912V84.608H363.816V70.752H366.152V76.704H374.056V79.008H366.152V86.592H370.088V88.576H374.056V90.528H376.04V92.896H373.704V90.88H369.768V88.896H366.152V90.88H364.168V92.896H355.912V90.88H353.96V86.592ZM363.816 90.528V86.912H356.264V90.528H363.816ZM388.904 66.816H401.128V68.768H407.048V71.104H400.776V69.12H388.904V66.816ZM386.952 90.528H398.792V88.576H402.76V86.592H404.712V84.608H406.696V79.008H404.712V77.024H391.24V79.008H384.968V76.704H390.888V74.72H405.064V76.704H407.048V78.656H409.032V84.96H407.048V86.912H405.064V88.896H403.08V90.88H399.144V92.896H386.952V90.528ZM415.016 86.592H417V84.608H423.272V86.592H425.224V92.896H423.272V94.88H417V92.896H415.016V86.592ZM422.92 92.512V86.912H417.32V92.512H422.92ZM31.976 120.576H33.96V114.624H35.912V106.72H37.896V105.088H31.976V102.752H37.896V96.832H40.232V102.752H50.088V105.088H40.232V107.072H38.248V114.976H36.264V120.896H34.28V124.896H31.976V120.576ZM43.816 108.704H57.992V111.008H43.816V108.704ZM41.864 118.592H43.816V116.608H46.152V118.912H44.168V122.528H57.992V124.896H43.816V122.88H41.864V118.592ZM62.984 120.576H64.968V114.624H66.92V106.72H68.904V105.088H62.984V102.752H68.904V96.832H71.24V102.752H79.144V105.088H71.24V107.072H69.256V114.976H67.272V120.896H65.288V124.896H62.984V120.576ZM86.696 99.136H84.712V96.832H87.048V98.816H89V100.768H90.984V103.104H88.648V101.12H86.696V99.136ZM82.728 101.12H80.776V98.816H83.08V100.768H85.064V102.752H87.048V105.088H84.712V103.104H82.728V101.12ZM74.824 108.704H89V111.008H74.824V108.704ZM72.872 118.592H74.824V116.608H77.16V118.912H75.176V122.528H89V124.896H74.824V122.88H72.872V118.592ZM96.968 98.816H99.272V120.576H101.256V122.528H110.792V120.576H114.728V118.592H116.712V116.608H118.696V114.624H121V116.96H119.048V118.912H117.064V120.896H115.08V122.88H111.144V124.896H100.904V122.88H98.92V120.896H96.968V98.816ZM127.016 118.592H129.32V120.576H131.304V122.528H133.288V126.88H130.952V124.896H129V122.88H127.016V118.592ZM169.896 110.976H165.928V108.672H169.896V102.72H172.2V106.688H175.816V96.8H178.12V104.704H181.736V102.72H186.024V114.944H184.072V116.928H179.752V114.592H183.72V105.056H182.088V107.04H178.12V118.88H175.816V108.992H172.2V124.48H185.672V118.56H188.008V124.864H186.024V126.848H171.848V124.864H169.896V110.976ZM161.992 112.96H160.36V114.944H157.992V112.608H160.008V108.672H161.992V104.704H163.944V100.736H165.928V96.8H168.264V101.088H166.28V105.056H164.296V126.848H161.992V112.96ZM192.008 124.48V122.496H193.992V120.544H195.944V118.56H197.928V116.576H199.912V114.592H201.896V110.624H203.848V96.8H206.184V110.624H208.168V114.592H210.12V118.56H212.104V120.544H214.088V122.496H216.072V124.48H220.008V126.848H215.72V124.864H213.736V122.848H211.752V120.864H209.8V118.88H207.816V114.944H205.832V110.976H204.2V114.944H202.216V116.928H200.264V118.88H198.28V120.864H196.296V122.848H194.312V124.864H192.36V126.848H189.992V124.48H192.008ZM225 120.896H222.984V110.656H225V106.72H226.984V104.736H228.936V102.752H232.904V100.768H243.112V102.752H247.08V104.736H249.064V108.704H251.016V118.912H249.064V122.88H247.08V124.896H243.112V126.88H236.84V124.512H242.792V122.528H246.728V118.592H248.712V109.024H246.728V105.088H242.792V103.104H239.176V109.024H237.192V114.976H235.208V118.912H233.256V122.88H231.272V124.896H226.984V122.88H225V120.896ZM227.304 120.576V122.528H230.92V118.592H232.904V114.624H234.888V108.704H236.84V103.104H233.256V105.088H229.288V107.072H227.304V111.008H225.352V120.576H227.304ZM253.992 104.704H263.912V103.072H261.928V101.088H257.992V98.784H267.848V96.8H270.184V98.784H280.072V101.088H276.104V103.072H274.12V104.704H284.008V107.04H253.992V104.704ZM271.816 104.704V102.72H273.8V101.088H264.264V102.72H266.216V104.704H271.816ZM261.928 118.88H259.944V108.672H278.088V118.88H270.184V120.544H272.168V122.848H269.832V120.864H267.848V118.88H264.264V124.48H275.752V120.544H278.088V124.864H276.104V126.848H263.912V124.864H261.928V118.88ZM275.752 112.608V110.976H262.28V112.608H275.752ZM275.752 116.576V114.944H262.28V116.576H275.752ZM253.992 122.496H256.008V118.56H258.312V122.848H256.36V124.864H253.992V122.496ZM279.72 118.56H282.024V120.544H284.008V124.864H281.672V120.864H279.72V118.56ZM291.944 124.48V122.496H295.912V118.88H291.944V96.8H310.088V118.88H306.12V124.48H313.672V118.56H316.008V124.864H314.024V126.848H305.8V124.864H303.816V118.88H298.216V122.848H296.264V124.864H292.296V126.848H285.992V124.48H291.944ZM307.752 102.72V99.104H294.28V102.72H307.752ZM307.752 108.672V105.056H294.28V108.672H307.752ZM307.752 116.576V110.976H294.28V116.576H307.752ZM320.968 104.736H322.952V98.816H325.256V105.088H323.272V124.896H320.968V104.736ZM328.872 102.752H345.032V105.088H328.872V102.752ZM328.872 116.608H331.176V120.576H333.16V122.528H345.032V124.896H332.808V122.88H330.856V120.896H328.872V116.608ZM356.936 112.992H350.984V110.656H356.936V105.088H353V102.752H358.92V96.832H361.256V102.752H369.16V105.088H359.272V110.656H369.16V112.992H359.272V122.528H361.256V124.512H372.744V122.528H374.728V120.576H376.712V112.992H374.728V109.024H372.744V106.72H375.08V108.704H377.064V112.64H379.016V120.896H377.064V122.88H375.08V124.896H373.096V126.88H360.904V124.896H358.92V122.88H356.936V112.992ZM381.992 118.56H389.928V101.088H381.992V98.784H412.008V101.088H404.104V114.592H412.008V116.928H404.104V124.864H401.8V118.88H394.216V120.864H381.992V118.56ZM401.8 104.704V101.088H392.264V104.704H401.8ZM401.8 110.624V107.04H392.264V110.624H401.8ZM393.896 118.56V116.576H401.8V112.96H392.264V118.56H393.896ZM415.976 116.608H417.96V112.64H419.912V110.656H421.896V106.72H423.88V105.088H415.976V102.752H425.864V96.832H428.168V102.752H438.056V105.088H426.184V106.72H430.152V108.704H432.136V112.64H433.768V110.656H437.704V108.704H441.992V111.008H438.056V112.992H434.088V114.976H432.136V122.88H429.8V116.96H426.184V118.912H424.232V124.512H440.04V126.88H423.88V124.896H421.896V118.592H423.88V116.608H425.864V114.624H429.8V109.024H424.232V111.008H422.248V112.992H420.264V116.96H418.28V118.912H415.976V116.608ZM449.992 110.976H448.36V114.944H445.992V110.624H448.008V106.688H449.992V100.736H451.944V96.8H454.28V101.088H452.296V126.848H449.992V110.976ZM453.928 102.72H456.264V108.672H457.896V106.688H459.848V104.704H463.816V102.72H465.8V101.088H459.848V98.784H476.008V101.088H468.104V103.072H466.12V104.704H474.024V120.864H472.072V122.496H474.024V124.48H476.008V126.848H473.672V124.864H471.72V122.848H469.736V120.864H466.12V122.848H464.168V124.864H462.184V126.848H459.848V124.48H461.832V122.496H463.816V120.864H461.832V118.88H460.2V120.864H455.912V118.88H453.928V102.72ZM459.848 118.56V114.592H461.832V107.04H460.2V108.992H458.216V110.976H456.264V118.56H459.848ZM471.72 108.672V107.04H464.168V108.672H471.72ZM471.72 112.608V110.976H464.168V112.608H471.72ZM471.72 118.56V114.944H464.168V118.56H471.72ZM493.8 124.512V122.528H495.784V118.592H497.768V107.072H485.896V104.736H497.768V98.816H500.072V104.736H505.992V107.072H500.072V118.912H498.088V122.88H496.136V124.896H494.152V126.88H489.864V124.512H493.8ZM479.976 102.752H481.96V98.816H484.264V103.104H482.28V126.88H479.976V102.752ZM511.016 118.592H513.32V120.576H515.304V122.528H517.288V126.88H514.952V124.896H513V122.88H511.016V118.592ZM51.752 130.816H53.736V128.832H56.072V130.816H58.024V132.768H60.008V135.104H58.024V137.088H55.72V135.104H53.736V133.12H51.752V130.816ZM55.72 132.768V131.136H54.088V132.768H55.72ZM29.992 154.528H32.008V150.592H33.992V146.624H35.944V140.704H37.928V132.768H40.264V141.024H38.28V146.976H36.296V150.912H34.312V154.88H32.36V156.896H29.992V154.528ZM53.736 144.992H51.752V141.024H49.8V137.088H47.816V132.768H50.12V136.736H52.104V140.704H54.088V144.64H56.072V150.592H58.024V154.88H55.72V150.912H53.736V144.992ZM57.672 134.752V133.12H56.072V134.752H57.672ZM66.952 130.816H87.048V133.12H66.952V130.816ZM76.808 156.512V154.528H80.776V152.576H82.76V150.592H84.712V146.624H86.696V141.024H64.968V138.72H89.032V146.976H87.048V150.912H85.064V152.896H83.08V154.88H81.128V156.896H77.16V158.88H66.952V156.512H76.808ZM102.888 137.088H98.952V135.104H96.968V132.768H99.272V134.752H103.24V136.736H107.176V138.72H109.16V141.024H106.856V139.072H102.888V137.088ZM96.968 154.528H102.888V152.576H106.856V150.592H110.792V148.608H112.776V146.624H114.76V144.64H116.712V140.704H118.696V134.752H121.032V141.024H119.048V144.992H117.064V146.976H115.08V148.96H113.128V150.912H111.144V152.896H107.176V154.88H103.24V156.896H96.968V154.528ZM126.984 154.528H130.984V152.576H134.92V150.592H138.888V148.608H140.84V146.624H142.824V142.656H144.808V138.72H146.792V135.104H129V132.768H149.096V139.072H147.112V143.008H145.16V146.624H147.112V148.608H149.096V150.592H151.08V152.576H153.064V154.528H155.016V156.896H152.712V154.88H150.728V152.896H148.744V150.912H146.792V148.96H144.808V146.976H143.176V148.96H141.192V150.912H139.208V152.896H135.272V154.88H131.304V156.896H126.984V154.528ZM159.976 148.608H161.96V144.64H163.912V142.656H165.896V138.72H167.88V137.088H159.976V134.752H169.864V128.832H172.168V134.752H182.056V137.088H170.184V138.72H174.152V140.704H176.136V144.64H177.768V142.656H181.704V140.704H185.992V143.008H182.056V144.992H178.088V146.976H176.136V154.88H173.8V148.96H170.184V150.912H168.232V156.512H184.04V158.88H167.88V156.896H165.896V150.592H167.88V148.608H169.864V146.624H173.8V141.024H168.232V143.008H166.248V144.992H164.264V148.96H162.28V150.912H159.976V148.608ZM189.992 150.56H193.992V133.088H189.992V130.784H206.184V132.736H218.024V140.992H216.072V146.944H214.088V152.544H216.072V156.48H220.008V158.848H215.72V156.864H213.736V152.864H211.752V150.88H210.12V154.848H208.168V156.864H206.184V158.848H201.896V150.88H198.28V152.864H189.992V150.56ZM205.832 156.48V154.496H207.816V150.56H209.8V146.944H207.816V140.992H205.832V136.704H208.168V140.672H210.12V146.592H213.736V140.672H215.72V135.072H205.832V133.088H204.2V156.48H205.832ZM201.896 136.704V133.088H196.296V136.704H201.896ZM201.896 142.624V139.04H196.296V142.624H201.896ZM197.928 150.56V148.576H201.896V144.96H196.296V150.56H197.928ZM226.952 150.592H228.904V148.608H235.176V150.592H237.16V154.528H242.76V152.576H244.712V150.592H246.696V146.976H244.712V144.992H231.24V146.976H227.272V148.96H224.968V146.624H226.952V144.64H230.888V142.656H232.872V140.704H234.856V138.72H238.792V136.736H240.776V135.104H226.952V132.768H245.064V135.104H243.08V137.088H241.128V139.072H239.144V141.024H235.176V142.656H245.064V144.64H247.048V146.624H249.032V150.912H247.048V154.88H243.08V156.896H228.904V154.88H226.952V150.592ZM234.856 154.528V150.912H229.256V154.528H234.856ZM258.952 132.768H279.048V135.104H258.952V132.768ZM256.968 148.608H258.952V146.624H261.256V148.96H259.272V152.576H263.24V154.528H278.696V152.576H281.032V154.88H279.048V156.896H262.888V154.88H258.952V152.896H256.968V148.608ZM288.968 146.624H290.952V144.64H292.904V142.656H296.872V128.832H299.176V140.704H302.792V138.72H313.032V141.024H303.144V143.008H297.224V144.992H293.256V146.976H291.272V152.576H295.24V154.528H313.032V156.896H294.888V154.88H290.952V152.896H288.968V146.624ZM319.976 148.608H321.96V144.64H323.912V142.656H325.896V138.72H327.88V137.088H319.976V134.752H329.864V128.832H332.168V134.752H342.056V137.088H330.184V138.72H334.152V140.704H336.136V144.64H337.768V142.656H341.704V140.704H345.992V143.008H342.056V144.992H338.088V146.976H336.136V154.88H333.8V148.96H330.184V150.912H328.232V156.512H344.04V158.88H327.88V156.896H325.896V150.592H327.88V148.608H329.864V146.624H333.8V141.024H328.232V143.008H326.248V144.992H324.264V148.96H322.28V150.912H319.976V148.608ZM357.928 142.976H355.944V135.072H349.992V132.736H363.848V128.8H366.184V132.736H380.008V135.072H358.28V142.624H376.072V144.96H357.928V142.976ZM363.848 146.592H366.184V148.576H368.168V150.56H370.12V152.864H367.816V150.88H365.832V148.928H363.848V146.592ZM359.912 148.576H362.216V156.48H371.752V150.56H374.088V156.864H372.104V158.848H361.896V156.864H359.912V148.576ZM349.992 154.496H352.008V152.544H353.992V148.576H356.296V152.864H354.312V154.848H352.36V156.864H349.992V154.496ZM375.72 148.576H378.024V150.56H380.008V156.864H377.672V150.88H375.72V148.576ZM381.992 152.576H384.008V148.608H385.992V144.64H387.944V139.072H381.992V136.736H387.944V128.832H390.28V142.656H391.912V140.704H393.896V138.72H395.848V136.736H397.832V134.752H404.104V136.736H406.088V146.976H404.104V154.528H409.672V152.576H412.008V154.88H410.024V156.896H403.752V154.88H401.8V146.624H403.752V137.088H398.184V139.072H396.2V141.024H394.216V143.008H392.264V144.992H390.28V158.88H387.944V148.96H386.312V152.896H384.36V156.896H381.992V152.576ZM414.984 150.592H416.968V146.624H418.92V142.656H420.904V138.72H422.888V137.088H414.984V134.752H422.888V132.768H424.872V128.832H427.176V133.12H425.192V134.752H431.144V137.088H425.192V139.072H423.24V143.008H421.256V146.976H419.272V150.912H417.288V152.896H414.984V150.592ZM432.776 134.752H441V136.736H442.984V139.072H440.648V137.088H432.776V134.752ZM422.888 150.592H424.872V148.608H432.776V140.704H435.08V150.592H437.064V152.576H439.048V154.528H441V156.896H438.696V154.88H436.712V152.896H435.08V154.88H433.096V156.896H431.144V158.88H424.872V156.896H422.888V150.592ZM430.792 156.512V154.528H432.776V150.912H425.192V156.512H430.792ZM449.96 150.912H447.976V132.768H450.28V150.592H452.264V154.528H457.864V152.576H459.816V148.608H462.152V152.896H460.168V154.88H458.184V156.896H451.912V154.88H449.96V150.912ZM469.704 141.024H467.72V137.088H465.768V132.768H468.072V136.736H470.056V140.704H472.04V146.624H473.992V152.896H471.688V146.976H469.704V141.024ZM479.976 148.608H481.96V146.624H491.816V128.832H494.152V136.736H504.04V139.072H494.152V148.608H498.088V150.592H502.056V152.576H504.04V154.528H505.992V156.896H503.688V154.88H501.704V152.896H497.768V150.912H494.152V154.88H492.168V156.896H481.96V154.88H479.976V148.608ZM491.816 154.528V148.96H482.28V154.528H491.816ZM516.904 130.816H529.128V132.768H535.048V135.104H528.776V133.12H516.904V130.816ZM514.952 154.528H526.792V152.576H530.76V150.592H532.712V148.608H534.696V143.008H532.712V141.024H519.24V143.008H512.968V140.704H518.888V138.72H533.064V140.704H535.048V142.656H537.032V148.96H535.048V150.912H533.064V152.896H531.08V154.88H527.144V156.896H514.952V154.528ZM544.968 136.736H546.952V130.816H549.256V137.088H547.272V156.896H544.968V136.736ZM552.872 134.752H569.032V137.088H552.872V134.752ZM552.872 148.608H555.176V152.576H557.16V154.528H569.032V156.896H556.808V154.88H554.856V152.896H552.872V148.608ZM576.968 130.816H579.272V152.576H581.256V154.528H590.792V152.576H594.728V150.592H596.712V148.608H598.696V146.624H601V148.96H599.048V150.912H597.064V152.896H595.08V154.88H591.144V156.896H580.904V154.88H578.92V152.896H576.968V130.816ZM608.968 150.592H610.952V148.608H620.808V143.008H608.968V140.704H620.808V137.088H608.968V134.752H620.808V128.832H623.144V134.752H633.032V137.088H623.144V140.704H633.032V143.008H623.144V150.592H627.08V152.576H629.064V154.528H631.048V156.512H633.032V158.88H630.696V156.896H628.712V154.88H626.76V152.896H623.144V156.896H621.16V158.88H610.952V156.896H608.968V150.592ZM620.808 156.512V150.912H611.272V156.512H620.808ZM640.968 130.816H643.272V152.576H645.256V154.528H654.792V152.576H658.728V150.592H660.712V148.608H662.696V146.624H665V148.96H663.048V150.912H661.064V152.896H659.08V154.88H655.144V156.896H644.904V154.88H642.92V152.896H640.968V130.816ZM673.96 150.592H675.912V148.608H683.816V134.752H686.152V140.704H694.056V143.008H686.152V150.592H690.088V152.576H694.056V154.528H696.04V156.896H693.704V154.88H689.768V152.896H686.152V154.88H684.168V156.896H675.912V154.88H673.96V150.592ZM683.816 154.528V150.912H676.264V154.528H683.816ZM708.904 130.816H721.128V132.768H727.048V135.104H720.776V133.12H708.904V130.816ZM706.952 154.528H718.792V152.576H722.76V150.592H724.712V148.608H726.696V143.008H724.712V141.024H711.24V143.008H704.968V140.704H710.888V138.72H725.064V140.704H727.048V142.656H729.032V148.96H727.048V150.912H725.064V152.896H723.08V154.88H719.144V156.896H706.952V154.528ZM735.016 150.592H737V148.608H743.272V150.592H745.224V156.896H743.272V158.88H737V156.896H735.016V150.592ZM742.92 156.512V150.912H737.32V156.512H742.92Z"></path>
</svg>
