<svg xmlns="http://www.w3.org/2000/svg" fill="none" viewBox="0 0 796 159" height="159" width="796">
<path fill="black" d="M0.968 14.656H4.904V12.704H8.872V10.72H12.808V8.736H16.776V6.752H20.712V4.768H25.032V7.104H21.064V9.088H17.128V11.072H13.16V13.024H9.224V15.008H5.256V18.624H9.224V20.608H13.16V22.592H17.128V24.576H21.064V26.528H25.032V28.896H20.712V26.88H16.776V24.896H12.808V22.912H8.872V20.96H4.904V18.976H0.968V14.656ZM47.784 16.64H49.768V14.656H51.72V12.704H53.704V8.736H55.688V5.12H31.976V2.816H57.992V9.088H56.04V13.024H54.056V15.008H52.072V16.992H50.088V18.976H47.784V16.64ZM31.976 26.528H35.912V24.576H37.896V22.592H39.88V18.624H41.864V8.736H44.168V18.976H42.184V22.912H40.232V24.896H38.248V26.88H36.264V28.896H31.976V26.528ZM65.96 0.831999H68.296V10.72H72.232V12.704H78.184V14.656H82.12V16.64H86.088V18.976H81.768V16.992H77.832V15.008H71.912V13.024H68.296V30.88H65.96V0.831999ZM83.752 3.136H81.768V0.831999H84.104V2.816H86.088V4.768H88.04V7.104H85.736V5.12H83.752V3.136ZM81.768 7.104H79.816V5.12H77.832V2.816H80.136V4.768H82.12V6.752H84.104V9.088H81.768V7.104ZM115.752 2.816H117.736V0.831999H120.072V2.816H122.024V4.768H124.008V7.104H122.024V9.088H119.72V7.104H117.736V5.12H115.752V2.816ZM119.72 4.768V3.136H118.088V4.768H119.72ZM93.992 26.528H96.008V22.592H97.992V18.624H99.944V12.704H101.928V4.768H104.264V13.024H102.28V18.976H100.296V22.912H98.312V26.88H96.36V28.896H93.992V26.528ZM117.736 16.992H115.752V13.024H113.8V9.088H111.816V4.768H114.12V8.736H116.104V12.704H118.088V16.64H120.072V22.592H122.024V26.88H119.72V22.912H117.736V16.992ZM121.672 6.752V5.12H120.072V6.752H121.672ZM127.944 18.624H131.944V16.64H135.88V14.656H139.848V12.704H141.8V10.72H143.784V8.736H145.768V6.752H147.752V4.768H149.704V2.816H151.688V0.831999H154.024V3.136H152.04V5.12H150.056V7.104H148.072V9.088H146.12V30.88H143.784V13.024H142.152V15.008H140.168V16.992H136.232V18.976H132.264V20.96H127.944V18.624ZM158.984 26.528H162.984V24.576H166.92V22.592H170.888V20.608H172.84V18.624H174.824V14.656H176.808V10.72H178.792V7.104H161V4.768H181.096V11.072H179.112V15.008H177.16V18.624H179.112V20.608H181.096V22.592H183.08V24.576H185.064V26.528H187.016V28.896H184.712V26.88H182.728V24.896H180.744V22.912H178.792V20.96H176.808V18.976H175.176V20.96H173.192V22.912H171.208V24.896H167.272V26.88H163.304V28.896H158.984V26.528ZM192.968 26.528H196.904V24.576H200.872V22.592H204.808V20.608H208.776V18.624H212.712V15.008H208.776V13.024H204.808V11.072H200.872V9.088H196.904V7.104H192.968V4.768H197.256V6.752H201.224V8.736H205.16V10.72H209.128V12.704H213.064V14.656H217.032V18.976H213.064V20.96H209.128V22.912H205.16V24.896H201.224V26.88H197.256V28.896H192.968V26.528ZM29.992 46.624H60.008V48.96H29.992V46.624ZM64.008 60.48V58.496H65.992V56.544H67.944V54.56H69.928V52.576H71.912V50.592H73.896V46.624H75.848V32.8H78.184V46.624H80.168V50.592H82.12V54.56H84.104V56.544H86.088V58.496H88.072V60.48H92.008V62.848H87.72V60.864H85.736V58.848H83.752V56.864H81.8V54.88H79.816V50.944H77.832V46.976H76.2V50.944H74.216V52.928H72.264V54.88H70.28V56.864H68.296V58.848H66.312V60.864H64.36V62.848H61.992V60.48H64.008ZM97 56.896H94.984V46.656H97V42.72H98.984V40.736H100.936V38.752H104.904V36.768H115.112V38.752H119.08V40.736H121.064V44.704H123.016V54.912H121.064V58.88H119.08V60.896H115.112V62.88H108.84V60.512H114.792V58.528H118.728V54.592H120.712V45.024H118.728V41.088H114.792V39.104H111.176V45.024H109.192V50.976H107.208V54.912H105.256V58.88H103.272V60.896H98.984V58.88H97V56.896ZM99.304 56.576V58.528H102.92V54.592H104.904V50.624H106.888V44.704H108.84V39.104H105.256V41.088H101.288V43.072H99.304V47.008H97.352V56.576H99.304ZM136.872 48.608H148.712V44.992H136.872V42.688H144.776V39.072H138.824V36.736H144.776V32.8H147.08V36.736H153V39.072H147.08V42.688H154.984V44.992H151.048V48.608H154.984V50.944H151.048V60.864H149.064V62.848H142.792V60.48H148.712V50.944H136.872V48.608ZM126.984 36.736H135.24V54.88H129.288V58.848H126.984V36.736ZM132.904 44.672V39.072H129.288V44.672H132.904ZM132.904 52.576V46.976H129.288V52.576H132.904ZM140.808 52.576H143.144V54.56H145.096V56.864H142.792V54.88H140.808V52.576ZM183.688 60.48V44.992H173.8V32.8H185.992V60.864H184.04V62.848H177.768V60.48H183.688ZM159.976 32.8H172.168V44.992H162.28V62.848H159.976V32.8ZM169.864 36.736V35.104H162.28V36.736H169.864ZM183.688 36.736V35.104H176.136V36.736H183.688ZM169.864 42.688V39.072H162.28V42.688H169.864ZM183.688 42.688V39.072H176.136V42.688H183.688ZM165.896 46.624H178.088V58.848H165.896V46.624ZM175.784 50.592V48.96H168.232V50.592H175.784ZM175.784 56.544V52.928H168.232V56.544H175.784ZM191.976 52.608H193.96V48.64H195.912V46.656H197.896V42.72H199.88V41.088H191.976V38.752H201.864V32.832H204.168V38.752H214.056V41.088H202.184V42.72H206.152V44.704H208.136V48.64H209.768V46.656H213.704V44.704H217.992V47.008H214.056V48.992H210.088V50.976H208.136V58.88H205.8V52.96H202.184V54.912H200.232V60.512H216.04V62.88H199.88V60.896H197.896V54.592H199.88V52.608H201.864V50.624H205.8V45.024H200.232V47.008H198.248V48.992H196.264V52.96H194.28V54.912H191.976V52.608ZM225.992 60.48V58.496H227.944V56.544H229.928V54.56H231.912V50.592H233.896V46.624H235.848V44.992H221.992V42.688H235.848V32.8H238.184V42.688H252.008V44.992H238.184V46.624H240.168V50.592H242.12V54.56H244.104V56.544H246.088V58.496H248.072V60.48H252.008V62.848H247.72V60.864H245.736V58.848H243.752V56.864H241.8V54.88H239.816V50.944H237.832V46.976H236.2V50.944H234.216V54.88H232.264V56.864H230.28V58.848H228.296V60.864H226.312V62.848H221.992V60.48H225.992ZM258.984 46.976H254.984V44.672H258.984V32.8H261.288V42.688H264.904V40.704H269.192V43.04H265.256V44.992H261.288V56.544H266.888V50.592H269.192V56.864H267.208V58.848H260.936V56.864H258.984V46.976ZM268.84 60.48V58.496H270.824V54.56H272.808V39.072H268.84V36.736H283.016V58.848H281.064V60.864H276.744V58.496H280.712V39.072H275.112V54.88H273.16V58.848H271.176V60.864H269.192V62.848H266.888V60.48H268.84ZM288.968 40.736H290.952V34.816H293.256V41.088H291.272V60.896H288.968V40.736ZM296.872 38.752H313.032V41.088H296.872V38.752ZM296.872 52.608H299.176V56.576H301.16V58.528H313.032V60.896H300.808V58.88H298.856V56.896H296.872V52.608ZM320.968 34.816H323.272V56.576H325.256V58.528H334.792V56.576H338.728V54.592H340.712V52.608H342.696V50.624H345V52.96H343.048V54.912H341.064V56.896H339.08V58.88H335.144V60.896H324.904V58.88H322.92V56.896H320.968V34.816ZM356.936 58.528H366.824V56.576H372.744V54.592H374.728V52.608H376.712V45.024H374.728V43.072H372.744V41.088H359.272V43.072H350.984V40.736H358.92V38.752H373.096V40.736H375.08V42.72H377.064V44.704H379.016V52.96H377.064V54.912H375.08V56.896H373.096V58.88H367.176V60.896H356.936V58.528ZM388.936 58.528H398.824V56.576H404.744V54.592H406.728V52.608H408.712V45.024H406.728V43.072H404.744V41.088H391.272V43.072H382.984V40.736H390.92V38.752H405.096V40.736H407.08V42.72H409.064V44.704H411.016V52.96H409.064V54.912H407.08V56.896H405.096V58.88H399.176V60.896H388.936V58.528ZM415.016 54.592H417.32V56.576H419.304V58.528H421.288V62.88H418.952V60.896H417V58.88H415.016V54.592ZM457.896 46.976H453.928V44.672H457.896V38.72H460.2V42.688H463.816V32.8H466.12V40.704H469.736V38.72H474.024V50.944H472.072V52.928H467.752V50.592H471.72V41.056H470.088V43.04H466.12V54.88H463.816V44.992H460.2V60.48H473.672V54.56H476.008V60.864H474.024V62.848H459.848V60.864H457.896V46.976ZM449.992 48.96H448.36V50.944H445.992V48.608H448.008V44.672H449.992V40.704H451.944V36.736H453.928V32.8H456.264V37.088H454.28V41.056H452.296V62.848H449.992V48.96ZM480.008 60.48V58.496H481.992V56.544H483.944V54.56H485.928V52.576H487.912V50.592H489.896V46.624H491.848V32.8H494.184V46.624H496.168V50.592H498.12V54.56H500.104V56.544H502.088V58.496H504.072V60.48H508.008V62.848H503.72V60.864H501.736V58.848H499.752V56.864H497.8V54.88H495.816V50.944H493.832V46.976H492.2V50.944H490.216V52.928H488.264V54.88H486.28V56.864H484.296V58.848H482.312V60.864H480.36V62.848H477.992V60.48H480.008ZM512.968 50.624H514.952V48.64H516.904V46.656H520.872V32.832H523.176V44.704H526.792V42.72H537.032V45.024H527.144V47.008H521.224V48.992H517.256V50.976H515.272V56.576H519.24V58.528H537.032V60.896H518.888V58.88H514.952V56.896H512.968V50.624ZM545 56.896H542.984V46.656H545V42.72H546.984V40.736H548.936V38.752H552.904V36.768H563.112V38.752H567.08V40.736H569.064V44.704H571.016V54.912H569.064V58.88H567.08V60.896H563.112V62.88H556.84V60.512H562.792V58.528H566.728V54.592H568.712V45.024H566.728V41.088H562.792V39.104H559.176V45.024H557.192V50.976H555.208V54.912H553.256V58.88H551.272V60.896H546.984V58.88H545V56.896ZM547.304 56.576V58.528H550.92V54.592H552.904V50.624H554.888V44.704H556.84V39.104H553.256V41.088H549.288V43.072H547.304V47.008H545.352V56.576H547.304ZM573.992 38.72H587.848V32.8H590.184V38.72H604.008V41.056H573.992V38.72ZM579.944 60.48V58.496H585.896V56.544H587.848V54.88H585.896V52.928H583.912V50.944H581.928V48.96H579.944V46.976H578.312V48.96H573.992V46.624H577.992V44.672H581.928V42.688H584.264V44.992H582.28V48.608H584.264V50.592H586.216V52.576H588.2V54.56H589.832V52.576H591.816V50.592H593.8V48.608H595.752V46.624H597.736V44.992H595.752V42.688H598.088V44.672H600.072V46.624H602.024V48.96H599.72V46.976H598.088V48.96H596.104V50.944H594.12V52.928H592.168V54.88H590.184V56.544H592.168V58.496H596.104V60.48H604.008V62.848H595.752V60.864H591.816V58.848H589.832V56.864H588.2V58.848H586.216V60.864H580.296V62.848H573.992V60.48H579.944ZM615.912 46.624H617.896V44.672H619.848V40.704H621.832V39.072H615.912V36.736H623.816V32.8H626.12V36.736H636.008V39.072H624.168V41.056H622.184V44.992H620.2V46.624H623.816V44.672H629.736V43.04H627.752V40.704H630.088V42.688H632.072V46.624H634.024V48.96H631.72V46.976H624.168V48.96H615.912V46.624ZM611.944 37.088H609.992V35.104H608.008V32.8H610.312V34.784H612.296V36.736H614.28V39.072H611.944V37.088ZM611.944 44.992H609.992V43.04H608.008V40.704H610.312V42.688H612.296V44.672H614.28V46.976H611.944V44.992ZM627.752 48.608H630.088V60.48H633.672V56.544H636.008V60.864H634.024V62.848H629.736V60.864H627.752V48.608ZM605.992 58.496H608.008V56.544H609.992V52.576H611.944V48.608H614.28V52.928H612.296V56.864H610.312V58.848H608.36V60.864H605.992V58.496ZM615.912 60.48V56.544H617.896V50.592H620.2V56.864H618.216V60.864H616.264V62.848H611.944V60.48H615.912ZM621.832 50.592H624.168V62.848H621.832V50.592ZM644.936 48.992H638.984V46.656H644.936V41.088H641V38.752H646.92V32.832H649.256V38.752H657.16V41.088H647.272V46.656H657.16V48.992H647.272V58.528H649.256V60.512H660.744V58.528H662.728V56.576H664.712V48.992H662.728V45.024H660.744V42.72H663.08V44.704H665.064V48.64H667.016V56.896H665.064V58.88H663.08V60.896H661.096V62.88H648.904V60.896H646.92V58.88H644.936V48.992ZM29.992 72.704H39.912V71.072H37.928V69.088H33.992V66.784H43.848V64.8H46.184V66.784H56.072V69.088H52.104V71.072H50.12V72.704H60.008V75.04H29.992V72.704ZM47.816 72.704V70.72H49.8V69.088H40.264V70.72H42.216V72.704H47.816ZM37.928 86.88H35.944V76.672H54.088V86.88H46.184V88.544H48.168V90.848H45.832V88.864H43.848V86.88H40.264V92.48H51.752V88.544H54.088V92.864H52.104V94.848H39.912V92.864H37.928V86.88ZM51.752 80.608V78.976H38.28V80.608H51.752ZM51.752 84.576V82.944H38.28V84.576H51.752ZM29.992 90.496H32.008V86.56H34.312V90.848H32.36V92.864H29.992V90.496ZM55.72 86.56H58.024V88.544H60.008V92.864H57.672V88.864H55.72V86.56ZM73.896 80.608H82.12V90.496H83.752V88.544H85.736V86.88H83.752V78.976H71.912V76.672H75.848V75.04H73.896V71.072H71.912V68.736H75.848V64.8H78.184V68.736H83.752V64.8H86.088V76.672H92.008V78.976H86.088V86.56H87.72V82.592H89.672V80.608H92.008V82.944H90.024V86.88H88.072V92.48H89.672V88.544H92.008V94.848H87.72V92.864H85.736V90.848H84.104V92.864H82.12V94.848H77.832V92.48H81.8V90.848H76.2V92.864H73.896V80.608ZM89.672 71.072H87.72V66.784H90.024V70.72H92.008V75.04H89.672V71.072ZM64.008 66.784H70.28V69.088H64.008V66.784ZM79.816 74.688V71.072H76.2V74.688H79.816ZM83.752 76.672V71.072H82.12V75.04H80.168V76.672H83.752ZM61.992 72.704H72.264V75.04H61.992V72.704ZM64.008 76.672H70.28V78.976H64.008V76.672ZM64.008 80.608H70.28V82.944H64.008V80.608ZM79.816 84.576V82.944H76.2V84.576H79.816ZM64.008 84.576H70.28V92.864H66.312V94.848H64.008V84.576ZM67.944 90.496V86.88H66.312V90.496H67.944ZM79.816 88.544V86.88H76.2V88.544H79.816ZM94.984 70.72H96.968V68.736H98.92V64.8H101.256V69.088H99.272V70.72H105.192V90.848H97.288V94.848H94.984V70.72ZM118.696 92.48V90.496H120.648V71.072H111.144V73.056H109.16V76.992H106.824V72.704H108.808V64.8H111.144V68.736H122.984V90.848H121V92.864H119.048V94.848H112.776V92.48H118.696ZM102.888 78.624V73.056H97.288V78.624H102.888ZM112.776 80.96H110.792V76.672H113.096V80.608H115.08V84.928H112.776V80.96ZM102.888 88.544V80.96H97.288V88.544H102.888ZM128.968 72.736H130.952V66.816H133.256V73.088H131.272V92.896H128.968V72.736ZM136.872 70.752H153.032V73.088H136.872V70.752ZM136.872 84.608H139.176V88.576H141.16V90.528H153.032V92.896H140.808V90.88H138.856V88.896H136.872V84.608ZM169.896 68.736H175.816V67.104H173.832V64.8H176.168V66.784H178.12V68.736H181.736V66.784H183.72V64.8H186.024V67.104H184.072V68.736H188.008V78.976H169.896V68.736ZM157.992 86.56H161.992V75.04H157.992V72.704H161.992V64.8H164.296V72.704H168.264V75.04H164.296V84.576H168.264V86.88H162.312V88.864H157.992V86.56ZM177.8 72.704V71.072H172.2V72.704H177.8ZM185.672 72.704V71.072H180.104V72.704H185.672ZM177.8 76.672V75.04H172.2V76.672H177.8ZM185.672 76.672V75.04H180.104V76.672H185.672ZM171.848 80.608H186.024V94.848H183.72V92.864H174.184V94.848H171.848V80.608ZM183.72 84.576V82.944H174.184V84.576H183.72ZM183.72 90.496V86.88H174.184V90.496H183.72ZM198.92 80.992H196.936V79.008H193.352V80.992H190.984V78.656H193V76.704H196.936V73.088H194.984V66.816H197.288V72.736H199.272V74.72H202.888V72.736H206.824V69.12H204.84V64.832H207.176V68.768H209.16V72.736H215.08V74.72H217.064V76.704H219.016V82.976H217.064V84.96H213.096V86.912H204.84V84.608H212.744V82.624H216.712V77.024H214.728V75.072H203.208V77.024H199.272V80.64H201.256V88.576H203.208V94.88H200.904V88.896H198.92V80.992ZM234.888 92.512V90.528H236.84V88.576H238.824V84.96H237.192V86.912H230.92V84.96H228.936V78.656H230.92V76.704H237.192V78.656H238.824V73.088H222.984V70.752H238.824V64.832H241.16V70.752H251.016V73.088H241.16V88.896H239.176V90.88H237.192V92.896H235.208V94.88H230.92V92.512H234.888ZM236.84 84.608V82.624H238.824V80.992H236.84V79.008H231.272V84.608H236.84ZM256.968 82.624H258.952V80.64H260.904V78.656H264.872V64.832H267.176V76.704H270.792V74.72H281.032V77.024H271.144V79.008H265.224V80.992H261.256V82.976H259.272V88.576H263.24V90.528H281.032V92.896H262.888V90.88H258.952V88.896H256.968V82.624ZM289.992 92.48V68.736H297.896V64.8H300.2V68.736H310.088V82.944H300.2V84.576H302.184V86.56H304.168V88.544H307.752V86.56H309.736V84.576H311.72V82.592H314.024V84.928H312.072V86.88H310.088V88.864H308.104V90.496H312.072V92.48H316.008V94.848H311.72V92.864H307.752V90.848H303.816V88.864H301.832V86.88H299.848V84.928H297.896V82.944H292.296V92.48H293.928V90.496H300.2V92.864H294.28V94.848H285.992V92.48H289.992ZM307.752 74.688V71.072H292.296V74.688H307.752ZM307.752 80.608V76.992H292.296V80.608H307.752ZM321.96 86.912H319.976V68.768H322.28V86.592H324.264V90.528H329.864V88.576H331.816V84.608H334.152V88.896H332.168V90.88H330.184V92.896H323.912V90.88H321.96V86.912ZM341.704 77.024H339.72V73.088H337.768V68.768H340.072V72.736H342.056V76.704H344.04V82.624H345.992V88.896H343.688V82.976H341.704V77.024ZM357.928 78.656H359.912V76.704H361.896V74.72H363.848V72.736H365.832V71.104H349.992V68.768H378.024V71.104H370.12V73.088H366.184V75.072H364.2V77.024H362.216V79.008H360.264V86.592H362.216V88.576H364.2V90.528H374.088V92.896H363.848V90.88H359.912V86.912H357.928V78.656ZM373.736 72.736H376.072V74.72H378.024V76.704H380.008V79.008H377.672V77.024H375.72V75.072H373.736V72.736ZM369.8 74.72H372.104V76.704H374.088V78.656H376.072V80.992H373.736V79.008H371.752V77.024H369.8V74.72ZM384.968 66.816H387.272V88.576H389.256V90.528H398.792V88.576H402.728V86.592H404.712V84.608H406.696V82.624H409V84.96H407.048V86.912H405.064V88.896H403.08V90.88H399.144V92.896H388.904V90.88H386.92V88.896H384.968V66.816ZM417.96 86.592H419.912V84.608H427.816V70.752H430.152V76.704H438.056V79.008H430.152V86.592H434.088V88.576H438.056V90.528H440.04V92.896H437.704V90.88H433.768V88.896H430.152V90.88H428.168V92.896H419.912V90.88H417.96V86.592ZM427.816 90.528V86.912H420.264V90.528H427.816ZM452.904 66.816H465.128V68.768H471.048V71.104H464.776V69.12H452.904V66.816ZM450.952 90.528H462.792V88.576H466.76V86.592H468.712V84.608H470.696V79.008H468.712V77.024H455.24V79.008H448.968V76.704H454.888V74.72H469.064V76.704H471.048V78.656H473.032V84.96H471.048V86.912H469.064V88.896H467.08V90.88H463.144V92.896H450.952V90.528ZM479.016 86.592H481V84.608H487.272V86.592H489.224V92.896H487.272V94.88H481V92.896H479.016V86.592ZM486.92 92.512V86.912H481.32V92.512H486.92ZM33.96 100.736H41.864V98.784H43.816V96.8H46.152V99.104H44.168V100.736H56.04V126.848H53.704V124.864H36.264V126.848H33.96V100.736ZM53.704 108.672V103.072H36.264V108.672H53.704ZM53.704 114.592V110.976H36.264V114.592H53.704ZM53.704 122.496V116.928H36.264V122.496H53.704ZM61.992 108.672H64.008V106.688H65.992V104.704H67.944V102.72H69.928V98.784H71.912V96.8H74.216V99.104H72.264V103.072H70.28V105.056H68.296V107.04H66.312V108.992H64.36V110.976H61.992V108.672ZM81.8 99.104H79.816V96.8H82.12V98.784H84.104V102.72H86.088V104.704H88.072V106.688H90.024V108.672H92.008V110.976H89.672V108.992H87.72V107.04H85.736V105.056H83.752V103.072H81.8V99.104ZM65.992 124.48V122.496H67.944V120.544H69.928V116.576H71.912V112.96H65.992V110.624H86.088V124.864H84.104V126.848H75.848V124.48H83.752V112.96H74.216V116.928H72.264V120.864H70.28V122.848H68.296V124.864H66.312V126.848H61.992V124.48H65.992ZM97 120.896H94.984V110.656H97V106.72H98.984V104.736H100.936V102.752H104.904V100.768H115.112V102.752H119.08V104.736H121.064V108.704H123.016V118.912H121.064V122.88H119.08V124.896H115.112V126.88H108.84V124.512H114.792V122.528H118.728V118.592H120.712V109.024H118.728V105.088H114.792V103.104H111.176V109.024H109.192V114.976H107.208V118.912H105.256V122.88H103.272V124.896H98.984V122.88H97V120.896ZM99.304 120.576V122.528H102.92V118.592H104.904V114.624H106.888V108.704H108.84V103.104H105.256V105.088H101.288V107.072H99.304V111.008H97.352V120.576H99.304ZM145.8 100.768H147.752V98.816H152.072V100.768H154.024V105.088H152.072V107.072H147.752V105.088H145.8V100.768ZM151.72 104.736V101.12H148.104V104.736H151.72ZM125.992 116.608H128.008V112.64H129.992V110.656H131.944V106.72H133.928V104.736H135.912V102.752H140.2V104.736H142.184V108.704H144.168V110.656H146.12V112.64H148.104V114.624H150.088V118.592H152.072V120.576H154.024V122.528H156.008V124.896H153.672V122.88H151.72V120.896H149.736V118.912H147.752V114.976H145.8V112.992H143.816V111.008H141.832V109.024H139.848V105.088H136.264V107.072H134.28V111.008H132.296V112.992H130.312V116.96H128.36V118.912H125.992V116.608ZM160.968 110.656H185.032V112.992H160.968V110.656ZM190.984 122.528H194.984V120.576H198.92V118.592H202.888V116.608H204.84V114.624H206.824V110.656H208.808V106.72H210.792V103.104H193V100.768H213.096V107.072H211.112V111.008H209.16V114.624H211.112V116.608H213.096V118.592H215.08V120.576H217.064V122.528H219.016V124.896H216.712V122.88H214.728V120.896H212.744V118.912H210.792V116.96H208.808V114.976H207.176V116.96H205.192V118.912H203.208V120.896H199.272V122.88H195.304V124.896H190.984V122.528ZM229.928 110.656H231.912V108.704H233.896V106.72H235.848V104.736H237.832V103.104H221.992V100.768H250.024V103.104H242.12V105.088H238.184V107.072H236.2V109.024H234.216V111.008H232.264V118.592H234.216V120.576H236.2V122.528H246.088V124.896H235.848V122.88H231.912V118.912H229.928V110.656ZM245.736 104.736H248.072V106.72H250.024V108.704H252.008V111.008H249.672V109.024H247.72V107.072H245.736V104.736ZM241.8 106.72H244.104V108.704H246.088V110.656H248.072V112.992H245.736V111.008H243.752V109.024H241.8V106.72ZM253.992 104.704H271.816V102.72H273.8V100.736H275.752V96.8H278.088V101.088H276.104V103.072H274.12V104.704H282.024V110.976H279.72V107.04H256.36V110.976H253.992V104.704ZM267.848 99.104H265.896V96.8H268.2V98.784H270.184V103.072H267.848V99.104ZM259.944 99.104H257.992V96.8H260.296V98.784H262.28V103.072H259.944V99.104ZM253.992 116.576H267.848V114.592H269.832V112.96H259.944V110.624H276.104V112.96H272.168V114.944H270.184V116.576H284.008V118.88H270.184V124.864H268.2V126.848H261.928V124.48H267.848V118.88H253.992V116.576ZM293.928 98.816H300.2V100.768H305.8V98.816H308.104V100.768H309.736V98.816H312.072V100.768H314.024V102.752H316.008V105.088H313.672V103.104H312.072V105.088H309.736V103.104H307.752V101.12H306.12V103.104H299.848V101.12H293.928V98.816ZM311.72 102.752V101.12H310.088V102.752H311.72ZM291.944 120.576H294.28V122.528H301.832V120.576H303.816V112.992H301.832V111.008H297.896V109.024H295.912V106.72H298.216V108.704H302.184V110.656H304.168V112.64H306.12V120.896H304.168V122.88H302.184V124.896H293.928V122.88H291.944V120.576ZM285.992 118.592H288.008V114.624H289.992V110.656H292.296V114.976H290.312V118.912H288.36V122.88H285.992V118.592ZM307.752 110.656H310.088V112.64H312.072V116.608H314.024V122.88H311.72V116.96H309.736V112.992H307.752V110.656ZM322.952 100.768H343.048V103.104H322.952V100.768ZM320.968 116.608H322.952V114.624H325.256V116.96H323.272V120.576H327.24V122.528H342.696V120.576H345.032V122.88H343.048V124.896H326.888V122.88H322.952V120.896H320.968V116.608ZM352.968 114.624H354.952V112.64H356.904V110.656H360.872V96.832H363.176V108.704H366.792V106.72H377.032V109.024H367.144V111.008H361.224V112.992H357.256V114.976H355.272V120.576H359.24V122.528H377.032V124.896H358.888V122.88H354.952V120.896H352.968V114.624ZM383.976 116.608H385.96V112.64H387.912V110.656H389.896V106.72H391.88V105.088H383.976V102.752H393.864V96.832H396.168V102.752H406.056V105.088H394.184V106.72H398.152V108.704H400.136V112.64H401.768V110.656H405.704V108.704H409.992V111.008H406.056V112.992H402.088V114.976H400.136V122.88H397.8V116.96H394.184V118.912H392.232V124.512H408.04V126.88H391.88V124.896H389.896V118.592H391.88V116.608H393.864V114.624H397.8V109.024H392.232V111.008H390.248V112.992H388.264V116.96H386.28V118.912H383.976V116.608ZM413.992 120.544H416.008V114.944H413.992V112.608H416.008V110.624H417.992V108.672H419.944V107.04H417.992V105.056H416.008V103.072H413.992V100.736H416.36V102.72H417.992V100.736H419.944V96.8H422.28V101.088H420.296V103.072H418.312V104.704H420.296V106.688H421.928V102.72H424.264V107.04H422.28V108.672H424.264V112.608H425.896V110.624H442.024V116.928H439.72V112.96H428.2V116.928H426.216V122.848H423.912V116.576H425.896V114.944H423.912V112.96H422.28V126.848H419.944V114.944H418.312V120.864H416.36V124.864H413.992V120.544ZM427.848 106.688H433.8V103.072H425.896V100.736H433.8V96.8H436.104V100.736H444.008V103.072H436.104V106.688H442.024V108.992H427.848V106.688ZM421.928 112.608V108.992H420.296V110.976H418.312V112.608H421.928ZM435.752 114.592H438.088V124.48H441.672V120.544H444.008V124.864H442.024V126.848H437.736V124.864H435.752V114.592ZM427.848 124.48V122.496H429.832V114.592H432.168V122.848H430.184V124.864H428.2V126.848H423.912V124.48H427.848ZM461.8 124.512V122.528H463.784V118.592H465.768V107.072H453.896V104.736H465.768V98.816H468.072V104.736H473.992V107.072H468.072V118.912H466.088V122.88H464.136V124.896H462.152V126.88H457.864V124.512H461.8ZM447.976 102.752H449.96V98.816H452.264V103.104H450.28V126.88H447.976V102.752ZM479.016 118.592H481.32V120.576H483.304V122.528H485.288V126.88H482.952V124.896H481V122.88H479.016V118.592ZM509.992 116.576H512.008V98.784H517.928V96.8H520.264V98.784H530.12V116.576H535.72V112.96H531.752V110.624H535.72V107.04H531.752V104.704H535.72V101.088H531.752V98.784H538.024V116.576H540.008V118.88H509.992V116.576ZM519.912 116.576V99.104H518.28V101.088H514.312V104.704H518.28V107.04H514.312V110.624H518.28V112.96H514.312V116.576H519.912ZM527.816 116.576V114.944H523.848V106.688H527.816V105.056H523.848V102.72H527.816V101.088H522.216V116.576H527.816ZM527.816 112.608V108.992H526.184V112.608H527.816ZM513.992 124.48V122.496H517.928V120.544H520.264V122.848H518.28V124.864H514.312V126.848H509.992V124.48H513.992ZM529.8 120.544H532.104V122.496H536.072V124.48H540.008V126.848H535.72V124.864H531.752V122.848H529.8V120.544ZM549.928 122.496H551.912V120.544H553.896V118.56H555.848V114.592H557.832V112.96H551.912V110.624H559.816V105.056H553.896V102.72H559.816V96.8H562.12V102.72H570.024V105.056H562.12V110.624H572.008V112.96H564.104V114.592H566.088V118.56H568.072V120.544H570.024V122.496H572.008V124.864H569.672V122.848H567.72V120.864H565.736V118.88H563.752V114.944H562.12V126.848H559.816V114.944H558.184V118.88H556.2V120.864H554.216V122.848H552.264V124.864H549.928V122.496ZM541.992 100.736H550.28V118.88H544.36V122.848H541.992V100.736ZM547.944 116.576V103.072H544.36V116.576H547.944ZM577 120.896H574.984V110.656H577V106.72H578.984V104.736H580.936V102.752H584.904V100.768H595.112V102.752H599.08V104.736H601.064V108.704H603.016V118.912H601.064V122.88H599.08V124.896H595.112V126.88H588.84V124.512H594.792V122.528H598.728V118.592H600.712V109.024H598.728V105.088H594.792V103.104H591.176V109.024H589.192V114.976H587.208V118.912H585.256V122.88H583.272V124.896H578.984V122.88H577V120.896ZM579.304 120.576V122.528H582.92V118.592H584.904V114.624H586.888V108.704H588.84V103.104H585.256V105.088H581.288V107.072H579.304V111.008H577.352V120.576H579.304ZM606.984 114.624H609V112.64H610.984V110.656H612.936V108.704H616.904V103.104H609V100.768H616.904V96.832H619.208V100.768H633.064V103.104H619.208V106.72H625.16V108.704H626.792V106.72H628.744V104.736H631.08V107.072H629.096V108.704H631.08V110.656H633.064V112.64H635.016V120.896H633.064V122.88H631.08V124.896H629.096V126.88H622.824V124.512H628.744V122.528H630.728V120.576H632.712V112.992H630.728V111.008H627.112V112.992H625.16V116.96H623.176V118.912H621.192V120.896H619.208V122.528H621.192V124.896H618.888V122.88H615.272V124.896H609V122.88H606.984V114.624ZM620.84 118.592V116.608H622.824V112.64H624.808V109.024H619.208V118.592H620.84ZM614.92 122.528V120.576H616.904V111.008H613.288V112.992H611.304V114.976H609.352V122.528H614.92ZM642.952 118.592H644.904V116.608H651.176V118.592H653.16V122.528H658.76V120.576H660.712V118.592H662.696V114.976H660.712V112.992H647.24V114.976H643.272V116.96H640.968V114.624H642.952V112.64H646.888V110.656H648.872V108.704H650.856V106.72H654.792V104.736H656.776V103.104H642.952V100.768H661.064V103.104H659.08V105.088H657.128V107.072H655.144V109.024H651.176V110.656H661.064V112.64H663.048V114.624H665.032V118.912H663.048V122.88H659.08V124.896H644.904V122.88H642.952V118.592ZM650.856 122.528V118.912H645.256V122.528H650.856ZM669.992 108.672H672.008V106.688H673.992V104.704H675.944V102.72H677.928V98.784H679.912V96.8H682.216V99.104H680.264V103.072H678.28V105.056H676.296V107.04H674.312V108.992H672.36V110.976H669.992V108.672ZM689.8 99.104H687.816V96.8H690.12V98.784H692.104V102.72H694.088V104.704H696.072V106.688H698.024V108.672H700.008V110.976H697.672V108.992H695.72V107.04H693.736V105.056H691.752V103.072H689.8V99.104ZM673.992 124.48V122.496H675.944V120.544H677.928V116.576H679.912V112.96H673.992V110.624H694.088V124.864H692.104V126.848H683.848V124.48H691.752V112.96H682.216V116.928H680.264V120.864H678.28V122.848H676.296V124.864H674.312V126.848H669.992V124.48H673.992ZM707.944 124.48V118.88H704.008V116.576H707.944V112.96H704.008V98.784H716.2V112.96H710.28V116.576H716.2V118.88H710.28V122.496H716.2V124.864H708.296V126.848H701.992V124.48H707.944ZM723.752 124.48V110.976H717.832V108.672H723.752V107.04H721.8V105.056H719.816V102.72H722.12V104.704H725.736V102.72H727.72V101.088H717.832V98.784H730.024V103.072H728.072V105.056H726.088V108.672H732.008V112.96H730.024V114.944H727.72V112.608H729.672V110.976H726.088V124.864H724.104V126.848H717.832V124.48H723.752ZM713.896 104.704V101.088H710.28V104.704H713.896ZM707.944 104.704V101.088H706.312V104.704H707.944ZM713.896 110.624V107.04H710.28V110.624H713.896ZM707.944 110.624V107.04H706.312V110.624H707.944ZM741.928 110.656H743.912V108.704H745.896V106.72H747.848V104.736H749.832V103.104H733.992V100.768H762.024V103.104H754.12V105.088H750.184V107.072H748.2V109.024H746.216V111.008H744.264V118.592H746.216V120.576H748.2V122.528H758.088V124.896H747.848V122.88H743.912V118.912H741.928V110.656ZM757.736 104.736H760.072V106.72H762.024V108.704H764.008V111.008H761.672V109.024H759.72V107.072H757.736V104.736ZM753.8 106.72H756.104V108.704H758.088V110.656H760.072V112.992H757.736V111.008H755.752V109.024H753.8V106.72ZM769 120.896H766.984V110.656H769V106.72H770.984V104.736H772.936V102.752H776.904V100.768H787.112V102.752H791.08V104.736H793.064V108.704H795.016V118.912H793.064V122.88H791.08V124.896H787.112V126.88H780.84V124.512H786.792V122.528H790.728V118.592H792.712V109.024H790.728V105.088H786.792V103.104H783.176V109.024H781.192V114.976H779.208V118.912H777.256V122.88H775.272V124.896H770.984V122.88H769V120.896ZM771.304 120.576V122.528H774.92V118.592H776.904V114.624H778.888V108.704H780.84V103.104H777.256V105.088H773.288V107.072H771.304V111.008H769.352V120.576H771.304ZM30.984 154.528H34.984V152.576H38.92V150.592H42.888V148.608H44.84V146.624H46.824V142.656H48.808V138.72H50.792V135.104H33V132.768H53.096V139.072H51.112V143.008H49.16V146.624H51.112V148.608H53.096V150.592H55.08V152.576H57.064V154.528H59.016V156.896H56.712V154.88H54.728V152.896H52.744V150.912H50.792V148.96H48.808V146.976H47.176V148.96H45.192V150.912H43.208V152.896H39.272V154.88H35.304V156.896H30.984V154.528ZM62.984 146.624H74.888V139.072H62.984V136.736H72.904V128.832H75.208V134.752H87.08V137.088H77.192V144.64H91.016V146.976H79.176V158.88H76.84V148.96H62.984V146.624ZM108.84 130.816H111.176V154.528H112.808V152.576H114.792V150.592H116.744V148.608H118.728V144.64H120.712V140.704H123.016V144.992H121.064V148.96H119.08V150.912H117.096V152.896H115.112V154.88H113.16V156.896H108.84V130.816ZM94.984 154.528H97V152.576H98.984V148.608H100.936V142.656H102.92V130.816H105.256V143.008H103.272V148.96H101.288V152.896H99.304V154.88H97.352V156.896H94.984V154.528ZM127.976 148.608H129.96V144.64H131.912V142.656H133.896V138.72H135.88V137.088H127.976V134.752H137.864V128.832H140.168V134.752H150.056V137.088H138.184V138.72H142.152V140.704H144.136V144.64H145.768V142.656H149.704V140.704H153.992V143.008H150.056V144.992H146.088V146.976H144.136V154.88H141.8V148.96H138.184V150.912H136.232V156.512H152.04V158.88H135.88V156.896H133.896V150.592H135.88V148.608H137.864V146.624H141.8V141.024H136.232V143.008H134.248V144.992H132.264V148.96H130.28V150.912H127.976V148.608ZM157.992 154.496H160.008V148.576H161.992V130.784H173.832V128.8H176.168V130.784H188.008V133.088H182.088V136.704H188.008V139.04H184.072V140.672H186.024V142.624H188.008V144.96H185.672V142.976H183.72V140.992H182.088V144.96H179.752V140.992H178.12V144.96H175.816V142.976H173.832V139.04H172.2V144.96H169.896V140.992H168.264V142.976H166.28V144.96H164.296V146.592H188.008V148.928H172.2V150.56H186.024V158.848H167.912V154.848H166.28V156.864H161.992V154.848H160.36V158.848H157.992V154.496ZM179.752 136.704V133.088H172.2V136.704H179.752ZM169.896 136.704V133.088H164.296V136.704H169.896ZM165.928 142.624V140.672H167.912V139.04H164.296V142.624H165.928ZM177.8 140.672V139.04H176.168V140.672H177.8ZM165.928 154.496V152.544H167.912V150.56H169.896V148.928H162.312V154.496H165.928ZM183.72 156.48V152.864H170.216V156.48H183.72ZM196.904 146.976H194.952V142.656H196.904V140.704H200.872V138.72H202.856V136.736H206.792V134.752H208.776V132.768H210.76V130.816H213.064V133.12H211.08V135.104H209.128V137.088H207.144V139.072H203.176V141.024H201.224V143.008H197.256V146.624H199.24V148.608H203.176V150.592H207.144V152.576H209.128V154.528H213.064V156.512H215.048V158.88H212.712V156.896H208.776V154.88H206.792V152.896H202.856V150.912H198.888V148.96H196.904V146.976ZM224.968 146.624H226.952V144.64H228.904V142.656H232.872V128.832H235.176V140.704H238.792V138.72H249.032V141.024H239.144V143.008H233.224V144.992H229.256V146.976H227.272V152.576H231.24V154.528H249.032V156.896H230.888V154.88H226.952V152.896H224.968V146.624ZM261.928 156.48V154.496H265.896V152.864H259.944V150.88H256.008V148.576H260.296V150.56H267.848V146.944H256.008V134.72H267.848V133.088H253.992V130.784H284.008V133.088H270.184V134.72H282.024V146.944H270.184V150.88H268.2V152.544H274.12V154.496H278.088V156.48H284.008V158.848H277.736V156.864H273.8V154.848H266.216V156.864H262.28V158.848H253.992V156.48H261.928ZM267.848 138.688V137.056H258.312V138.688H267.848ZM279.72 138.688V137.056H270.184V138.688H279.72ZM279.72 144.608V140.992H270.184V144.608H279.72ZM267.848 144.608V140.992H258.312V144.608H267.848ZM288.968 136.736H290.952V130.816H293.256V137.088H291.272V156.896H288.968V136.736ZM296.872 134.752H313.032V137.088H296.872V134.752ZM296.872 148.608H299.176V152.576H301.16V154.528H313.032V156.896H300.808V154.88H298.856V152.896H296.872V148.608ZM327.912 142.624H335.816V140.992H327.912V138.688H331.848V135.072H325.928V132.736H331.848V128.8H334.184V132.736H339.752V128.8H342.088V132.736H348.008V135.072H342.088V138.688H346.024V140.992H338.12V142.624H348.008V156.864H346.024V158.848H339.752V156.48H345.672V144.96H338.12V152.544H341.736V146.592H344.072V154.848H331.848V146.592H334.184V152.544H335.816V144.96H330.216V158.848H327.912V142.624ZM321.992 133.088H320.008V131.104H317.992V128.8H320.36V130.784H322.312V132.736H324.296V135.072H321.992V133.088ZM339.752 138.688V135.072H334.184V138.688H339.752ZM321.992 140.992H320.008V139.04H317.992V136.704H320.36V138.688H322.312V140.672H324.296V142.976H321.992V140.992ZM317.992 154.496H320.008V152.544H321.992V148.576H323.944V144.608H326.28V148.928H324.296V152.864H322.312V154.848H320.36V156.864H317.992V154.496ZM352.008 156.48V152.544H353.992V144.608H356.296V150.56H358.28V152.544H360.264V154.496H363.848V140.992H353.992V130.784H376.072V140.992H366.184V146.592H378.024V148.928H366.184V156.48H380.008V158.848H365.832V156.864H359.912V154.848H357.928V152.864H354.312V156.864H352.36V158.848H349.992V156.48H352.008ZM373.736 138.688V133.088H356.296V138.688H373.736ZM381.992 146.592H384.008V142.624H385.992V132.736H397.832V128.8H400.168V132.736H407.72V131.104H405.736V128.8H408.072V130.784H410.024V132.736H412.008V135.072H400.168V138.688H402.12V142.624H403.752V140.672H405.736V136.704H408.072V140.992H406.088V142.976H404.104V144.608H406.088V146.592H409.672V142.624H412.008V146.944H410.024V148.928H405.736V146.944H403.752V144.96H402.12V146.944H400.168V148.928H398.184V150.56H400.168V152.864H397.832V150.88H395.848V148.576H397.832V146.944H389.928V140.672H398.184V146.592H399.816V144.608H401.8V142.976H399.816V139.04H388.296V142.976H386.312V146.944H384.36V148.928H381.992V146.592ZM397.832 136.704V135.072H388.296V136.704H397.832ZM395.848 144.608V142.976H392.264V144.608H395.848ZM391.912 150.56H394.216V156.48H403.752V152.544H406.088V156.864H404.104V158.848H393.896V156.864H391.912V150.56ZM407.72 150.56H410.024V154.496H412.008V158.848H409.672V154.848H407.72V150.56ZM384.008 154.496H385.992V150.56H388.296V154.848H386.312V158.848H384.008V154.496ZM414.984 152.576H416.968V148.608H418.92V142.656H420.904V139.072H414.984V136.736H422.888V128.832H425.192V136.736H431.144V138.72H433.096V150.912H431.144V154.88H429.16V156.896H420.904V154.528H428.808V150.592H430.792V139.072H423.24V143.008H421.256V148.96H419.272V152.896H417.288V156.896H414.984V152.576ZM436.712 133.12H434.728V130.816H436.712V128.832H439.048V130.816H441V132.768H442.984V135.104H441V137.088H438.696V135.104H436.712V133.12ZM438.696 132.768V131.136H437.064V132.768H438.696ZM440.648 134.752V133.12H439.048V134.752H440.648ZM432.776 134.752H435.08V136.736H437.064V138.72H439.048V140.704H441V144.64H442.984V146.976H440.648V144.992H438.696V141.024H436.712V139.072H434.728V137.088H432.776V134.752ZM459.848 128.8H472.072V140.992H459.848V128.8ZM448.008 136.704H449.992V134.72H451.944V130.784H453.928V128.8H456.264V131.104H454.28V135.072H452.296V137.056H450.312V139.04H448.008V136.704ZM469.736 132.736V131.104H462.184V132.736H469.736ZM469.736 138.688V135.072H462.184V138.688H469.736ZM451.944 144.96H450.312V146.944H445.992V144.608H449.992V142.624H451.944V140.672H453.928V138.688H455.912V136.704H458.216V139.04H456.264V140.992H454.28V158.848H451.944V144.96ZM455.912 146.592H467.752V144.96H457.896V142.624H474.024V144.96H470.088V146.592H476.008V148.928H470.088V156.864H468.104V158.848H461.832V156.48H467.752V148.928H455.912V146.592ZM459.848 150.56H462.184V152.544H464.168V154.848H461.832V152.864H459.848V150.56ZM483.912 130.816H496.136V132.768H500.072V135.104H495.784V133.12H483.912V130.816ZM483.912 154.528H497.768V152.576H501.704V146.976H499.72V144.992H490.184V146.976H486.248V148.96H481.96V140.704H483.912V136.736H486.248V141.024H484.264V146.624H485.896V144.64H489.864V142.656H500.072V144.64H502.056V146.624H504.04V152.896H502.056V154.88H498.088V156.896H483.912V154.528ZM509.992 152.576H512.008V148.608H513.992V144.64H515.944V139.072H509.992V136.736H515.944V128.832H518.28V142.656H519.912V140.704H521.896V138.72H523.848V136.736H525.832V134.752H532.104V136.736H534.088V146.976H532.104V154.528H537.672V152.576H540.008V154.88H538.024V156.896H531.752V154.88H529.8V146.624H531.752V137.088H526.184V139.072H524.2V141.024H522.216V143.008H520.264V144.992H518.28V158.88H515.944V148.96H514.312V152.896H512.36V156.896H509.992V152.576ZM546.952 150.592H548.904V148.608H555.176V150.592H557.16V154.528H562.76V152.576H564.712V150.592H566.696V146.976H564.712V144.992H551.24V146.976H547.272V148.96H544.968V146.624H546.952V144.64H550.888V142.656H552.872V140.704H554.856V138.72H558.792V136.736H560.776V135.104H546.952V132.768H565.064V135.104H563.08V137.088H561.128V139.072H559.144V141.024H555.176V142.656H565.064V144.64H567.048V146.624H569.032V150.912H567.048V154.88H563.08V156.896H548.904V154.88H546.952V150.592ZM554.856 154.528V150.912H549.256V154.528H554.856ZM581.928 142.656H583.912V140.704H585.896V138.72H587.848V136.736H589.832V135.104H573.992V132.768H602.024V135.104H594.12V137.088H590.184V139.072H588.2V141.024H586.216V143.008H584.264V150.592H586.216V152.576H588.2V154.528H598.088V156.896H587.848V154.88H583.912V150.912H581.928V142.656ZM597.736 136.736H600.072V138.72H602.024V140.704H604.008V143.008H601.672V141.024H599.72V139.072H597.736V136.736ZM593.8 138.72H596.104V140.704H598.088V142.656H600.072V144.992H597.736V143.008H595.752V141.024H593.8V138.72ZM608.968 130.816H611.272V152.576H613.256V154.528H622.792V152.576H626.728V150.592H628.712V148.608H630.696V146.624H633V148.96H631.048V150.912H629.064V152.896H627.08V154.88H623.144V156.896H612.904V154.88H610.92V152.896H608.968V130.816ZM641.96 150.592H643.912V148.608H651.816V134.752H654.152V140.704H662.056V143.008H654.152V150.592H658.088V152.576H662.056V154.528H664.04V156.896H661.704V154.88H657.768V152.896H654.152V154.88H652.168V156.896H643.912V154.88H641.96V150.592ZM651.816 154.528V150.912H644.264V154.528H651.816ZM676.904 130.816H689.128V132.768H695.048V135.104H688.776V133.12H676.904V130.816ZM674.952 154.528H686.792V152.576H690.76V150.592H692.712V148.608H694.696V143.008H692.712V141.024H679.24V143.008H672.968V140.704H678.888V138.72H693.064V140.704H695.048V142.656H697.032V148.96H695.048V150.912H693.064V152.896H691.08V154.88H687.144V156.896H674.952V154.528ZM703.016 150.592H705V148.608H711.272V150.592H713.224V156.896H711.272V158.88H705V156.896H703.016V150.592ZM710.92 156.512V150.912H705.32V156.512H710.92Z"></path>
</svg>
