<svg xmlns="http://www.w3.org/2000/svg" fill="none" viewBox="0 0 9 16" height="16" width="9">
<mask fill="black" height="18" width="11" y="-1" x="-1" maskUnits="userSpaceOnUse" id="path-1-outside-1_169_31">
<rect height="18" width="11" y="-1" x="-1" fill="white"></rect>
<path d="M6.66016 0.152344H8.33984V1.8125H6.66016V0.152344ZM5 1.8125H6.66016V3.47266H5V1.8125ZM3.33984 3.47266H5V5.15234H3.33984V3.47266ZM1.66016 5.15234H3.33984V6.8125H1.66016V5.15234ZM0 8.47266V6.8125H1.66016V8.47266H0ZM3.33984 8.47266V10.1523H1.66016V8.47266H3.33984ZM5 10.1523V11.8125H3.33984V10.1523H5ZM6.66016 11.8125V13.4727H5V11.8125H6.66016ZM8.33984 13.4727V15.1523H6.66016V13.4727H8.33984Z"></path>
</mask>
<path fill="black" d="M6.66016 0.152344H8.33984V1.8125H6.66016V0.152344ZM5 1.8125H6.66016V3.47266H5V1.8125ZM3.33984 3.47266H5V5.15234H3.33984V3.47266ZM1.66016 5.15234H3.33984V6.8125H1.66016V5.15234ZM0 8.47266V6.8125H1.66016V8.47266H0ZM3.33984 8.47266V10.1523H1.66016V8.47266H3.33984ZM5 10.1523V11.8125H3.33984V10.1523H5ZM6.66016 11.8125V13.4727H5V11.8125H6.66016ZM8.33984 13.4727V15.1523H6.66016V13.4727H8.33984Z"></path>
<path mask="url(#path-1-outside-1_169_31)" fill="black" d="M6.66016 0.152344V-0.847656H5.66016V0.152344H6.66016ZM8.33984 0.152344H9.33984V-0.847656H8.33984V0.152344ZM8.33984 1.8125V2.8125H9.33984V1.8125H8.33984ZM6.66016 1.8125H5.66016V2.8125H6.66016V1.8125ZM5 1.8125V0.8125H4V1.8125H5ZM6.66016 1.8125H7.66016V0.8125H6.66016V1.8125ZM6.66016 3.47266V4.47266H7.66016V3.47266H6.66016ZM5 3.47266H4V4.47266H5V3.47266ZM3.33984 3.47266V2.47266H2.33984V3.47266H3.33984ZM5 3.47266H6V2.47266H5V3.47266ZM5 5.15234V6.15234H6V5.15234H5ZM3.33984 5.15234H2.33984V6.15234H3.33984V5.15234ZM1.66016 5.15234V4.15234H0.660156V5.15234H1.66016ZM3.33984 5.15234H4.33984V4.15234H3.33984V5.15234ZM3.33984 6.8125V7.8125H4.33984V6.8125H3.33984ZM1.66016 6.8125H0.660156V7.8125H1.66016V6.8125ZM0 8.47266H-1V9.47266H0V8.47266ZM0 6.8125V5.8125H-1V6.8125H0ZM1.66016 6.8125H2.66016V5.8125H1.66016V6.8125ZM1.66016 8.47266V9.47266H2.66016V8.47266H1.66016ZM3.33984 8.47266H4.33984V7.47266H3.33984V8.47266ZM3.33984 10.1523V11.1523H4.33984V10.1523H3.33984ZM1.66016 10.1523H0.660156V11.1523H1.66016V10.1523ZM1.66016 8.47266V7.47266H0.660156V8.47266H1.66016ZM5 10.1523H6V9.15234H5V10.1523ZM5 11.8125V12.8125H6V11.8125H5ZM3.33984 11.8125H2.33984V12.8125H3.33984V11.8125ZM3.33984 10.1523V9.15234H2.33984V10.1523H3.33984ZM6.66016 11.8125H7.66016V10.8125H6.66016V11.8125ZM6.66016 13.4727V14.4727H7.66016V13.4727H6.66016ZM5 13.4727H4V14.4727H5V13.4727ZM5 11.8125V10.8125H4V11.8125H5ZM8.33984 13.4727H9.33984V12.4727H8.33984V13.4727ZM8.33984 15.1523V16.1523H9.33984V15.1523H8.33984ZM6.66016 15.1523H5.66016V16.1523H6.66016V15.1523ZM6.66016 13.4727V12.4727H5.66016V13.4727H6.66016ZM6.66016 1.15234H8.33984V-0.847656H6.66016V1.15234ZM7.33984 0.152344V1.8125H9.33984V0.152344H7.33984ZM8.33984 0.8125H6.66016V2.8125H8.33984V0.8125ZM7.66016 1.8125V0.152344H5.66016V1.8125H7.66016ZM5 2.8125H6.66016V0.8125H5V2.8125ZM5.66016 1.8125V3.47266H7.66016V1.8125H5.66016ZM6.66016 2.47266H5V4.47266H6.66016V2.47266ZM6 3.47266V1.8125H4V3.47266H6ZM3.33984 4.47266H5V2.47266H3.33984V4.47266ZM4 3.47266V5.15234H6V3.47266H4ZM5 4.15234H3.33984V6.15234H5V4.15234ZM4.33984 5.15234V3.47266H2.33984V5.15234H4.33984ZM1.66016 6.15234H3.33984V4.15234H1.66016V6.15234ZM2.33984 5.15234V6.8125H4.33984V5.15234H2.33984ZM3.33984 5.8125H1.66016V7.8125H3.33984V5.8125ZM2.66016 6.8125V5.15234H0.660156V6.8125H2.66016ZM1 8.47266V6.8125H-1V8.47266H1ZM0 7.8125H1.66016V5.8125H0V7.8125ZM0.660156 6.8125V8.47266H2.66016V6.8125H0.660156ZM1.66016 7.47266H0V9.47266H1.66016V7.47266ZM2.33984 8.47266V10.1523H4.33984V8.47266H2.33984ZM3.33984 9.15234H1.66016V11.1523H3.33984V9.15234ZM2.66016 10.1523V8.47266H0.660156V10.1523H2.66016ZM1.66016 9.47266H3.33984V7.47266H1.66016V9.47266ZM4 10.1523V11.8125H6V10.1523H4ZM5 10.8125H3.33984V12.8125H5V10.8125ZM4.33984 11.8125V10.1523H2.33984V11.8125H4.33984ZM3.33984 11.1523H5V9.15234H3.33984V11.1523ZM5.66016 11.8125V13.4727H7.66016V11.8125H5.66016ZM6.66016 12.4727H5V14.4727H6.66016V12.4727ZM6 13.4727V11.8125H4V13.4727H6ZM5 12.8125H6.66016V10.8125H5V12.8125ZM7.33984 13.4727V15.1523H9.33984V13.4727H7.33984ZM8.33984 14.1523H6.66016V16.1523H8.33984V14.1523ZM7.66016 15.1523V13.4727H5.66016V15.1523H7.66016ZM6.66016 14.4727H8.33984V12.4727H6.66016V14.4727Z"></path>
</svg>
