<svg version="1.1" xmlns="http://www.w3.org/2000/svg" xmlns:xlink="http://www.w3.org/1999/xlink" width="64.72222" height="32.44767" viewBox="0,0,64.72222,32.44767"><g transform="translate(-207.63889,-163.77617)"><g data-paper-data="{&quot;isPaintingLayer&quot;:true}" fill-rule="nonzero" stroke-linecap="butt" stroke-linejoin="miter" stroke-miterlimit="10" stroke-dasharray="" stroke-dashoffset="0" style="mix-blend-mode: normal"><path d="M213.51052,195.22384c-2.69053,0 -3.77788,-1.25 -3.77788,-1.25c0,0 -1.09375,-1.51295 -1.09375,-3.86616c0,-3.58942 0,-14.16113 0,-20.45581c0,-2.888 1.31894,-3.68865 1.31894,-3.68865c0,0 0.86216,-1.18705 3.55269,-1.18705h52.97896c2.69052,0 3.56728,0.97826 3.56728,0.97826c0,0 1.30435,0.79641 1.30435,3.42956c0,6.25008 0,17.33681 0,21.00785c0,2.32164 -1.28571,3.88915 -1.28571,3.88915c0,0 -0.89539,1.14285 -3.58591,1.14285z" fill="#d6d6d6" stroke="#000000" stroke-width="2"/><path d="M228.13028,171.34312h17.0507v1.40303h-17.0507zM226.90263,185.78263h1.22765v-3.60501h1.20816v-8.43766h14.63438v5.02752h-13.23135v3.41014h5.80698v-2.41633h1.42252v2.41633h7.21001v1.40303h-7.21001v1.0133h1.18868v1.18868h2.41633v1.20816h3.605v1.44201h-3.81936v-1.20817h-2.39684v-1.22765h-1.20816v-1.20816h-0.99381v1.20816h-1.20816v1.22765h-1.20817v1.20817h-3.81936v-1.44201h3.62449v-1.20816h1.18867v-1.18868h1.20817v-1.0133h-6.02133v-1.18868h-0.99381v3.60501h-1.18868v2.43582h-1.442zM242.56979,177.36445v-2.20198h-11.82832v2.20198zM249.40955,183.40527h1.18868v-1.20817h3.81936v1.20817h1.20817v2.39684h3.41014v-1.18867h1.18867v-1.20817h1.20817v-2.20198h-1.20817v-1.20816h-8.20382v1.20816h-2.41633v1.20816h-1.40303v-1.42251h1.20817v-1.20817h2.39685v-1.20816h1.20816v-1.18868h1.20817v-1.20817h2.39684v-1.20817h1.20817v-0.99381h-8.41817v-1.42252h11.02937v1.42252h-1.20817v1.20817h-1.18867v1.20817h-1.20817v1.18867h-2.41633v0.99382h6.02133v1.20816h1.20817v1.20817h1.20816v2.61119h-1.20816v2.41633h-2.41633v1.22765h-8.63252v-1.22765h-1.18868zM254.22272,185.80211v-2.20198h-3.41014v2.20198z" fill="#000000" stroke="none" stroke-width="1"/><path d="M220.57658,172.56831h1.58652v1.56808h-1.58652zM219.0085,174.13639h1.56808v1.56808h-1.56808zM217.44041,175.70447h1.56808v1.58652h-1.56808zM215.85389,177.291h1.58652v1.56808h-1.58652zM214.28581,180.42716v-1.56808h1.56808v1.56808zM217.44041,180.42716v1.58648h-1.58652v-1.58648zM219.0085,182.01365v1.56812h-1.56808v-1.56812zM220.57658,183.58177v1.56812h-1.56808v-1.56812zM222.1631,185.14989v1.58645h-1.58652v-1.58645z" fill="#000000" stroke="none" stroke-width="1"/></g></g></svg>