<svg xmlns="http://www.w3.org/2000/svg" fill="none" viewBox="0 0 12 12" height="12" width="12">
<path fill="white" d="M3.348 10.18V9.436H4.836V8.824H4.092V8.08H3.48V8.824H1.128V7.96H3.348V7.216H4.092V6.604H2.604V2.02H4.836V1.408H0.372V0.543999H11.628V1.408H5.7V2.02H9.408V6.604H4.956V7.216H9.408V8.824H8.664V9.568H7.92V10.18H11.628V11.068H7.8V10.324H3.48V11.068H0.372V10.18H3.348ZM8.532 3.508V2.896H3.48V3.508H8.532ZM8.532 5.728V4.372H3.48V5.728H8.532ZM5.7 8.704V9.436H7.056V8.704H8.532V8.08H4.956V8.704H5.7Z"></path>
</svg>
