<svg xmlns="http://www.w3.org/2000/svg" fill="none" viewBox="0 0 484 61" height="61" width="484">
<path fill="black" d="M12.888 36.888H0.984V32.216H5.016V28.248H8.984V24.344H12.888V21.08H8.984V17.112H5.016V13.144H0.984V8.472H5.72V12.44H8.984V8.472H12.888V0.599998H17.56V9.176H13.592V13.144H9.624V16.408H13.592V20.376H16.856V16.408H20.824V8.472H25.432V17.112H21.528V21.08H17.56V24.984H13.592V28.952H9.624V32.216H20.824V24.344H25.432V32.216H29.4V36.888H24.792V32.92H21.528V36.888H17.56V60.696H12.888V36.888ZM32.664 55.96V4.568H57.048V55.96H61.016V60.696H24.792V55.96H32.664ZM52.44 20.376V9.176H37.336V20.376H52.44ZM52.44 36.184V24.984H37.336V36.184H52.44ZM0.984 48.088H5.016V40.152H9.624V48.728H5.72V56.728H0.984V48.088ZM20.824 40.152H25.432V52.696H20.824V40.152ZM52.44 55.96V40.856H37.336V55.96H52.44ZM76.888 36.888H64.984V32.216H69.016V28.248H72.984V24.344H76.888V21.08H72.984V17.112H69.016V13.144H64.984V8.472H69.72V12.44H72.984V8.472H76.888V0.599998H81.56V9.176H77.592V13.144H73.624V16.408H77.592V20.376H80.856V12.44H84.824V8.472H92.696V0.599998H97.368V8.472H108.504V0.599998H113.176V24.344H125.016V28.952H113.176V44.12H116.44V36.184H120.344V32.216H125.016V36.888H121.048V44.76H117.144V55.96H120.344V48.088H125.016V60.696H116.44V56.728H112.472V52.696H109.208V56.728H105.24V60.696H96.664V55.96H104.6V52.696H93.4V56.728H88.792V36.888H84.824V32.92H81.56V40.152H85.528V52.696H81.56V60.696H76.888V36.888ZM120.344 13.144H116.44V4.568H121.048V12.44H125.016V21.08H120.344V13.144ZM92.696 24.344V21.08H88.792V13.144H85.528V21.08H81.56V24.344H92.696ZM100.632 20.376V13.144H93.4V20.376H100.632ZM108.504 24.344V13.144H105.24V21.08H101.336V24.344H108.504ZM80.856 32.216V24.984H77.592V28.952H73.624V32.216H80.856ZM105.24 32.216V51.992H108.504V48.088H112.472V44.76H108.504V28.952H85.528V32.216H105.24ZM100.632 40.152V36.888H93.4V40.152H100.632ZM64.984 48.088H69.016V40.152H73.624V48.728H69.72V56.728H64.984V48.088ZM100.632 48.088V44.76H93.4V48.088H100.632ZM135 48.792H130.968V28.312H135V20.44H138.968V16.472H142.872V12.504H150.808V8.536H171.224V12.504H179.16V16.472H183.128V24.408H187.032V44.824H183.128V52.76H179.16V56.792H171.224V60.76H158.68V56.024H170.584V52.056H178.456V44.184H182.424V25.048H178.456V17.176H170.584V13.208H163.352V25.048H159.384V36.952H155.416V44.824H151.512V52.76H147.544V56.792H138.968V52.76H135V48.792ZM139.608 48.152V52.056H146.84V44.184H150.808V36.248H154.776V24.408H158.68V13.208H151.512V17.176H143.576V21.144H139.608V29.016H135.704V48.152H139.608ZM200.984 55.96V48.728H197.016V40.152H201.624V48.088H205.592V51.992H208.856V48.088H212.824V40.152H217.432V48.728H213.528V51.992H217.432V55.96H228.632V52.696H224.664V16.408H232.6V12.44H236.504V9.176H220.696V4.568H253.016V9.176H241.176V13.144H237.208V16.408H249.048V52.696H245.144V55.96H253.016V60.696H244.44V56.728H240.472V52.696H233.24V56.728H229.336V60.696H216.792V56.728H201.624V60.696H192.984V55.96H200.984ZM192.984 4.568H217.432V9.176H192.984V4.568ZM197.016 16.408H217.432V36.888H197.016V16.408ZM212.824 32.216V21.08H201.624V32.216H212.824ZM244.44 28.248V21.08H229.336V28.248H244.44ZM244.44 36.184V32.92H229.336V36.184H244.44ZM244.44 48.088V40.856H229.336V48.088H244.44ZM276.76 56.024V52.056H288.6V48.152H292.568V40.92H288.6V36.952H280.728V32.984H276.76V28.312H281.432V32.28H289.304V36.248H293.272V40.216H300.504V36.248H304.408V28.312H308.376V17.176H281.432V21.144H277.464V25.048H273.496V29.016H269.528V32.984H265.624V36.952H260.888V32.28H264.92V28.312H268.888V24.408H272.792V20.44H276.76V16.472H280.728V8.536H284.696V0.663998H289.304V9.24H285.336V12.504H313.048V29.016H309.08V36.952H305.112V40.92H301.144V44.824H297.24V48.792H293.272V52.76H289.304V56.792H277.464V60.76H264.92V56.024H276.76ZM324.888 36.248H332.888V32.28H340.76V28.312H348.696V24.408H352.6V20.44H356.568V16.472H360.536V12.504H364.504V8.536H368.408V4.632H372.376V0.663998H377.048V5.272H373.08V9.24H369.112V13.208H365.144V17.176H361.24V60.76H356.568V25.048H353.304V29.016H349.336V32.984H341.464V36.952H333.528V40.92H324.888V36.248ZM389.016 52.056H400.856V48.152H408.792V44.184H416.664V40.216H420.632V32.28H424.6V24.408H428.504V13.208H384.984V8.536H428.504V4.632H432.472V0.663998H441.048V4.632H445.016V13.208H441.048V17.176H433.176V25.048H429.208V32.984H425.24V40.92H421.336V44.824H417.368V48.792H409.432V52.76H401.56V56.792H389.016V52.056ZM440.344 12.504V5.272H433.176V12.504H440.344ZM478.68 4.632H483.352V44.824H478.68V4.632ZM474.712 48.152H483.352V56.792H474.712V48.152Z"></path>
</svg>
