<svg version="1.1" xmlns="http://www.w3.org/2000/svg" xmlns:xlink="http://www.w3.org/1999/xlink" width="38.76" height="18.78" viewBox="0,0,38.76,18.78"><g transform="translate(-220.62,-170.61)"><g data-paper-data="{&quot;isPaintingLayer&quot;:true}" fill="#000000" fill-rule="nonzero" stroke="none" stroke-width="1" stroke-linecap="butt" stroke-linejoin="miter" stroke-miterlimit="10" stroke-dasharray="" stroke-dashoffset="0" style="mix-blend-mode: normal"><path d="M230.52,170.61h1.46v2.46h3.48v-1.22h2.68v1.44h-2.46v1.24h-3.7v2.26h5.94v-2.48h1.46v2.7h-1.24v1.22h-6.38v-1.22h-1.24zM220.62,176.79h3.72v-1.24h2.48v-1.02h-6.2v-1.46h6.2v-2.46h1.44v7.62h-1.44v-1.22h-2.26v1.22h-3.94zM223.12,179.25h13.8v8.9h-1.24v1.24h-5.16v-1.48h4.94v-2.26h-10.9v3.74h-1.44zM235.46,181.73v-1.02h-10.9v1.02zM235.46,184.21v-1.02h-10.9v1.02zM240.62,178.03h8.66v-1.02h-4.94v-6.4h11.34v6.4h-4.94v1.02h8.64v1.44h-18.76zM254.22,173.07v-1.02h-8.42v1.02zM254.22,175.55v-1.02h-8.42v1.02zM244.34,180.49h11.34v3.92h-4.94v3.74h-1.24v1.24h-2.68v-1.48h2.46v-3.5h-4.94zM254.22,182.97v-1.02h-8.42v1.02zM240.62,186.67h3.72v-1.22h2.7v1.44h-2.48v1.26h-3.94zM253,185.45h2.68v1.22h2.46v1.48h-2.68v-1.26h-2.46z"/></g></g></svg>