<svg version="1.1" xmlns="http://www.w3.org/2000/svg" xmlns:xlink="http://www.w3.org/1999/xlink" width="40.99103" height="21.383" viewBox="0,0,40.99103,21.383"><g transform="translate(-219.50449,-169.3085)"><g data-paper-data="{&quot;isPaintingLayer&quot;:true}" fill="#ffffff" fill-rule="nonzero" stroke="none" stroke-width="1" stroke-linecap="butt" stroke-linejoin="miter" stroke-miterlimit="10" stroke-dasharray="" stroke-dashoffset="0" style="mix-blend-mode: normal"><path d="M224.85024,172.87929h-5.34575v-1.79583h5.34575zM237.3167,178.22503v-1.79582h1.79582v3.57079h-5.34575v-7.12071h-3.57078v5.34574h-1.77497v-7.14157h7.12072v7.14157zM224.85024,176.42921h-5.34575v-1.77496h5.34575zM224.85024,180h-5.34575v-1.77497h5.34575zM228.42102,180h-1.79582v-1.77497h1.79582zM235.54173,185.34575v-1.77497h-5.34575v3.54993h-1.77497v-3.54993h-1.79582v-1.79582h10.69151v3.57078zM224.85024,190.6915h-5.34575v-7.12072h5.34575zM223.07528,185.34575h-1.79583v3.57078h1.79583zM233.76677,187.12072v-1.77497h1.77497v3.57078h-5.34575v-1.79582zM230.19598,190.6915h-3.57079v-1.77497h3.57079zM239.11252,190.6915h-3.57078v-1.77497h3.57078zM251.57898,169.3085v3.57079h8.91653v3.54992h-1.79582v-1.77496h-16.03725v3.57078h-1.77497v-5.34574h8.91653v-3.57079zM258.6997,183.57078v1.77497h-7.12072v3.57078h-7.12072v-5.34575h1.77497v3.54993h3.57078v-7.12072h-5.34575v-1.77497h14.24143v1.77497h-7.12072v3.57078zM244.45827,190.6915h-3.57078v-1.77497h3.57078zM260.49551,190.6915h-8.91653v-1.77497h8.91653z"/></g></g></svg>