<svg version="1.1" xmlns="http://www.w3.org/2000/svg" xmlns:xlink="http://www.w3.org/1999/xlink" width="257.13889" height="312.80333" viewBox="0,0,257.13889,312.80333"><g transform="translate(-111.43056,-23.59834)"><g data-paper-data="{&quot;isPaintingLayer&quot;:true}" fill-rule="nonzero" stroke-linecap="butt" stroke-miterlimit="10" stroke-dasharray="" stroke-dashoffset="0" style="mix-blend-mode: normal"><path d="M116.57413,334.90166c-2.01229,0 -2.99519,-2.45802 -2.99519,-2.45802c0,0 -0.64838,-0.36577 -0.64838,-5.47073c0,-45.72892 0,-274.50125 0,-296.28287c0,-3.28274 1.00488,-4.36722 1.00488,-4.36722c0,0 0.62641,-1.22449 2.63869,-1.22449h246.85176c2.01228,0 2.79878,1.37255 2.79878,1.37255c0,0 0.84479,0.83913 0.84479,4.00184c0,21.64787 0,256.01277 0,298.2248c0,4.2029 -0.92239,4.70551 -0.92239,4.70551c0,0 -0.70889,1.49863 -2.72117,1.49863z" fill="#fff4e4" stroke="#000000" stroke-width="3" stroke-linejoin="round"/><path d="M201.47642,46.10332h2.46v-1.22h2.48v-1.24h2.46v-1.24h2.48v-1.24h2.46v-1.24h2.7v1.46h-2.48v1.24h-2.46v1.24h-2.48v1.22h-2.46v1.24h-2.48v2.26h2.48v1.24h2.46v1.24h2.48v1.24h2.46v1.22h2.48v1.48h-2.7v-1.26h-2.46v-1.24h-2.48v-1.24h-2.46v-1.22h-2.48v-1.24h-2.46zM220.87641,47.32332h6.18v-1.02h-6.18v-1.44h6.38v1.22h1.02v-1.22h1.24v-6.18h5.16v6.18h2.24v-2.48h1.46v2.68h-1.24v1.24h-2.68v-1.24h-1.24v-4.94h-2.24v4.94h-1.24v1.24h-1.24v1.02h7.42v3.92h-1.24v1.24h-1.24v1.02h2.48v1.24h2.46v1.48h-2.68v-1.24h-2.48v-1.26h-1.02v1.26h-1.22v1.24h-2.7v-1.48h2.48v-1.24h1.24v-1.02h-1.24v-1.24h-1.24v-2.46h-1.24v-1.24h-1.02v1.24h-6.38zM220.87641,38.68332h6.38v1.44h-6.38zM219.61642,42.38332h8.88v1.46h-8.88zM232.19642,51.04332v1.24h1.02v-1.24h1.24v-2.26h-3.48v2.26zM220.87641,49.80332h6.38v5.18h-4.94v1.24h-1.44zM225.81642,53.50332v-2.26h-3.5v2.26zM241.47642,54.74332v-2.46h1.22v-4.96h1.46v3.72h1.24v1.24h2.24v-7.22h-6.16v-1.22h-1.24v-3.94h7.4v-2.46h1.46v2.46h7.4v3.94h-1.22v1.22h-6.18v2.26h6.18v1.46h-6.18v4.72h8.64v1.48h-10.1v-1.26h-2.46v-1.24h-2.26v2.5h-1.24v1.24h-1.44v-1.48zM255.05642,43.62332v-2.26h-13.38v2.26zM261.47641,53.52332h2.46v-1.22h2.48v-1.24h2.46v-1.24h2.48v-1.24h2.46v-2.26h-2.46v-1.24h-2.48v-1.22h-2.46v-1.24h-2.48v-1.24h-2.46v-1.46h2.68v1.24h2.48v1.24h2.46v1.24h2.48v1.24h2.46v1.22h2.48v2.7h-2.48v1.24h-2.46v1.22h-2.48v1.24h-2.46v1.24h-2.48v1.26h-2.68z" fill="#000000" stroke="none" stroke-width="1" stroke-linejoin="miter"/></g></g></svg>