<svg xmlns="http://www.w3.org/2000/svg" fill="none" viewBox="0 0 58 13" height="13" width="58">
<path fill="white" d="M0.116 10.436H9.008V8.348H0.86V7.472H9.008V6.116H0.116V5.252H4.556V0.8H5.432V5.252H9.872V12.068H9.008V11.324H0.116V10.436ZM2.336 3.152H1.592V2.408H0.86V1.544H1.724V2.276H2.468V3.02H3.212V4.64H2.336V3.152ZM6.788 3.764H7.52V3.02H8.264V1.544H9.14V3.152H8.396V3.896H7.652V4.64H6.788V3.764ZM14.72 5.996H15.464V5.264H16.208V4.52H16.94V3.776H17.684V3.164H11.744V2.288H22.256V3.164H19.292V3.908H17.816V4.652H17.072V5.384H16.328V6.128H15.596V8.972H16.328V9.716H17.072V10.448H20.78V11.336H16.94V10.58H15.464V9.092H14.72V5.996ZM26.336 8.972H27.08V8.228H30.788V4.652H26.336V3.776H30.788V1.556H31.652V3.776H33.872V4.652H31.652V8.972H32.396V9.716H33.14V10.448H33.872V11.336H33.008V10.58H32.264V9.836H31.652V10.58H30.908V11.336H27.08V10.58H26.336V8.972ZM24.116 3.032H24.86V1.556H25.724V3.164H24.98V11.336H24.116V3.032ZM30.788 10.448V9.092H27.212V10.448H30.788ZM36.488 8.972H37.232V8.228H40.928V6.128H36.488V5.264H40.928V3.908H36.488V3.032H40.928V0.812H41.804V3.032H45.512V3.908H41.804V5.264H45.512V6.128H41.804V8.972H43.28V9.716H44.024V10.448H44.768V11.192H45.512V12.08H44.636V11.336H43.892V10.58H43.16V9.836H41.804V11.336H41.06V12.08H37.232V11.336H36.488V8.972ZM40.928 11.192V9.092H37.352V11.192H40.928ZM49.232 8.972H49.964V8.228H52.316V8.972H53.06V10.448H55.16V9.716H55.892V8.972H56.636V7.616H55.892V6.872H50.84V7.616H49.352V8.36H48.488V7.484H49.232V6.74H50.708V5.996H51.452V5.264H52.196V4.52H53.672V3.776H54.416V3.164H49.232V2.288H56.024V3.164H55.28V3.908H54.548V4.652H53.804V5.384H52.316V5.996H56.024V6.74H56.768V7.484H57.512V9.092H56.768V10.58H55.28V11.336H49.964V10.58H49.232V8.972ZM52.196 10.448V9.092H50.096V10.448H52.196Z"></path>
</svg>
