<svg xmlns="http://www.w3.org/2000/svg" fill="none" viewBox="0 0 12 13" height="13" width="12">
<path fill="white" d="M0.372 7.472H2.604V6.728H4.092V5.984H5.568V5.372H4.836V4.64H4.092V3.896H3.48V4.64H2.736V5.372H1.128V4.508H2.604V3.764H3.348V3.02H4.092V0.8H4.956V2.276H9.408V3.152H8.664V3.896H7.92V4.64H7.188V5.372H6.444V5.984H8.664V6.728H11.628V7.604H8.532V6.86H6.312V6.116H5.7V6.86H4.224V7.604H2.736V8.348H0.372V7.472ZM6.312 5.252V4.508H7.056V3.764H7.8V3.152H4.224V3.764H4.956V4.508H5.7V5.252H6.312ZM4.836 7.472H6.444V8.216H7.92V9.08H6.312V8.348H4.836V7.472ZM3.348 9.704H5.7V10.436H7.92V11.18H9.408V12.068H7.8V11.324H5.568V10.568H3.348V9.704Z"></path>
</svg>
