<svg xmlns="http://www.w3.org/2000/svg" fill="none" viewBox="0 0 774 191" height="191" width="774">
<path fill="black" d="M0.968 14.656H4.904V12.704H8.872V10.72H12.808V8.736H16.776V6.752H20.712V4.768H25.032V7.104H21.064V9.088H17.128V11.072H13.16V13.024H9.224V15.008H5.256V18.624H9.224V20.608H13.16V22.592H17.128V24.576H21.064V26.528H25.032V28.896H20.712V26.88H16.776V24.896H12.808V22.912H8.872V20.96H4.904V18.976H0.968V14.656ZM29.992 20.576H33.992V18.592H35.944V11.04H32.36V16.96H29.992V10.688H32.008V2.784H34.312V8.704H35.944V0.799999H38.28V8.704H42.216V10.688H49.8V7.072H43.848V4.736H49.8V0.799999H52.104V4.736H58.024V7.072H52.104V10.688H60.008V12.992H56.072V16.608H60.008V18.944H56.072V28.864H54.088V30.848H47.816V28.48H53.736V18.944H41.896V16.96H40.264V18.944H38.28V30.848H35.944V20.928H34.312V22.88H29.992V20.576ZM39.912 16.608V14.624H42.216V16.608H53.736V12.992H41.896V11.04H38.28V16.608H39.912ZM45.832 20.576H48.168V22.56H50.12V24.864H47.816V22.88H45.832V20.576ZM69.928 24.544H75.848V20.928H71.912V18.592H75.848V16.96H71.912V14.624H81.8V12.672H83.752V0.799999H86.088V8.704H92.008V11.04H90.024V18.944H88.072V24.544H90.024V28.48H92.008V30.848H89.672V28.864H87.72V24.864H86.088V26.848H84.104V28.864H82.12V30.848H79.816V28.48H81.8V26.496H83.752V24.544H85.736V18.944H83.752V14.976H82.12V16.96H78.184V18.592H82.12V20.576H84.104V22.88H82.12V24.864H78.184V26.848H69.928V24.544ZM71.912 2.784H74.216V8.704H75.848V0.799999H78.184V8.704H79.816V2.784H82.12V11.04H71.912V2.784ZM61.992 8.704H64.008V6.72H65.992V4.736H67.944V0.799999H70.28V5.088H68.296V7.072H66.312V9.056H64.36V11.04H61.992V8.704ZM65.992 16.96H64.36V18.944H61.992V16.608H64.008V14.624H65.992V12.672H67.944V8.704H70.28V12.992H68.296V30.848H65.992V16.96ZM87.72 18.592V11.04H86.088V18.592H87.72ZM81.8 22.56V20.928H78.184V22.56H81.8ZM96.968 26.528H100.904V24.576H104.872V22.592H108.808V20.608H112.776V18.624H116.712V15.008H112.776V13.024H108.808V11.072H104.872V9.088H100.904V7.104H96.968V4.768H101.256V6.752H105.224V8.736H109.16V10.72H113.128V12.704H117.064V14.656H121.032V18.976H117.064V20.96H113.128V22.912H109.16V24.896H105.224V26.88H101.256V28.896H96.968V26.528ZM43.848 44.672H49.8V32.8H52.104V44.672H60.008V46.976H52.104V62.848H49.8V46.976H43.848V44.672ZM32.008 34.784H42.216V37.088H32.008V34.784ZM29.992 40.704H44.2V43.04H29.992V40.704ZM32.008 44.672H42.216V46.976H32.008V44.672ZM32.008 48.608H42.216V50.944H32.008V48.608ZM32.008 52.576H42.216V60.864H34.312V62.848H32.008V52.576ZM39.912 58.496V54.88H34.312V58.496H39.912ZM67.944 38.72H75.848V35.104H61.992V32.8H92.008V35.104H78.184V38.72H86.088V54.88H67.944V38.72ZM61.992 40.704H64.36V58.496H89.672V40.704H92.008V62.848H89.672V60.864H64.36V62.848H61.992V40.704ZM75.848 44.672V41.056H70.28V44.672H75.848ZM83.752 44.672V41.056H78.184V44.672H83.752ZM75.848 52.576V46.976H70.28V52.576H75.848ZM83.752 52.576V46.976H78.184V52.576H83.752ZM94.984 38.72H96.968V36.736H98.92V32.8H101.256V37.088H99.272V38.72H105.192V58.848H97.288V62.848H94.984V38.72ZM118.696 60.48V58.496H120.648V39.072H111.144V41.056H109.16V44.992H106.824V40.704H108.808V32.8H111.144V36.736H122.984V58.848H121V60.864H119.048V62.848H112.776V60.48H118.696ZM102.888 46.624V41.056H97.288V46.624H102.888ZM112.776 48.96H110.792V44.672H113.096V48.608H115.08V52.928H112.776V48.96ZM102.888 56.544V48.96H97.288V56.544H102.888ZM128.968 40.736H130.952V34.816H133.256V41.088H131.272V60.896H128.968V40.736ZM136.872 38.752H153.032V41.088H136.872V38.752ZM136.872 52.608H139.176V56.576H141.16V58.528H153.032V60.896H140.808V58.88H138.856V56.896H136.872V52.608ZM158.984 52.576H161V50.592H164.936V43.04H161.352V48.96H158.984V42.688H161V34.784H163.304V40.704H164.936V32.8H167.272V40.704H172.84V32.8H175.176V38.72H187.016V56.864H185.064V60.864H183.08V62.848H176.808V60.48H182.728V56.544H184.712V41.056H183.08V46.976H181.096V50.944H179.112V54.88H177.16V56.864H175.176V58.848H173.192V60.864H170.888V58.496H172.84V56.544H174.824V54.56H176.808V50.592H178.792V46.624H180.744V41.056H177.16V46.976H175.176V50.944H173.192V52.928H171.208V54.88H168.904V52.576H170.888V50.592H172.84V46.624H174.824V41.056H173.192V44.992H170.888V43.04H167.272V48.608H168.904V46.624H171.208V48.96H169.256V50.944H167.272V62.848H164.936V52.928H161.352V54.88H158.984V52.576ZM193.992 54.56H203.848V52.928H189.992V50.592H203.848V48.96H193.992V46.624H203.848V44.992H195.944V38.72H203.848V37.088H189.992V34.784H203.848V32.8H206.184V34.784H220.008V37.088H206.184V38.72H214.088V44.992H206.184V46.624H214.088V50.592H220.008V52.928H214.088V58.848H211.752V56.864H206.184V60.864H204.2V62.848H199.912V60.48H203.848V56.864H193.992V54.56ZM203.848 42.688V41.056H198.28V42.688H203.848ZM211.752 42.688V41.056H206.184V42.688H211.752ZM211.752 50.592V48.96H206.184V50.592H211.752ZM211.752 54.56V52.928H206.184V54.56H211.752ZM223.976 52.608H225.96V48.64H227.912V46.656H229.896V42.72H231.88V41.088H223.976V38.752H233.864V32.832H236.168V38.752H246.056V41.088H234.184V42.72H238.152V44.704H240.136V48.64H241.768V46.656H245.704V44.704H249.992V47.008H246.056V48.992H242.088V50.976H240.136V58.88H237.8V52.96H234.184V54.912H232.232V60.512H248.04V62.88H231.88V60.896H229.896V54.592H231.88V52.608H233.864V50.624H237.8V45.024H232.232V47.008H230.248V48.992H228.264V52.96H226.28V54.912H223.976V52.608ZM265.896 43.04H264.264V44.992H261.928V42.688H263.912V40.704H265.896V36.736H267.848V32.8H270.184V36.736H273.8V34.784H275.752V32.8H278.088V35.104H276.104V36.736H282.024V39.072H274.12V42.688H280.072V44.992H274.12V46.624H280.072V48.96H274.12V52.576H282.024V54.88H265.896V43.04ZM259.944 39.072H257.992V37.088H256.008V34.784H258.312V36.736H260.296V38.72H262.28V41.056H259.944V39.072ZM271.816 42.688V39.072H268.2V42.688H271.816ZM271.816 46.624V44.992H268.2V46.624H271.816ZM257.992 60.48V58.496H259.944V48.96H253.992V46.624H262.28V56.544H264.264V58.496H284.008V60.864H263.912V58.848H260.296V60.864H258.312V62.848H253.992V60.48H257.992ZM271.816 52.576V48.96H268.2V52.576H271.816ZM286.984 48.64H289V46.656H290.984V34.816H293.288V42.72H296.904V40.736H304.808V34.816H307.112V42.72H311.08V44.704H313.064V46.656H315.016V54.912H313.064V56.896H311.08V58.88H309.096V60.896H307.112V62.88H302.824V60.512H306.792V58.528H308.744V56.576H310.728V54.592H312.712V47.008H310.728V45.024H306.792V43.072H305.16V45.024H303.176V48.992H301.192V52.96H299.208V54.912H297.256V56.576H299.208V58.88H296.904V56.896H295.272V58.88H293.288V60.896H289V58.88H286.984V48.64ZM298.888 52.608V48.64H300.84V44.704H302.824V43.072H297.256V45.024H295.272V52.608H298.888ZM292.936 58.528V56.576H294.92V52.96H292.936V47.008H291.304V48.992H289.352V58.528H292.936ZM322.952 54.592H324.904V52.608H331.176V54.592H333.16V58.528H338.76V56.576H340.712V54.592H342.696V50.976H340.712V48.992H327.24V50.976H323.272V52.96H320.968V50.624H322.952V48.64H326.888V46.656H328.872V44.704H330.856V42.72H334.792V40.736H336.776V39.104H322.952V36.768H341.064V39.104H339.08V41.088H337.128V43.072H335.144V45.024H331.176V46.656H341.064V48.64H343.048V50.624H345.032V54.912H343.048V58.88H339.08V60.896H324.904V58.88H322.952V54.592ZM330.856 58.528V54.912H325.256V58.528H330.856ZM353 56.896H350.984V46.656H353V42.72H354.984V40.736H356.936V38.752H360.904V36.768H371.112V38.752H375.08V40.736H377.064V44.704H379.016V54.912H377.064V58.88H375.08V60.896H371.112V62.88H364.84V60.512H370.792V58.528H374.728V54.592H376.712V45.024H374.728V41.088H370.792V39.104H367.176V45.024H365.192V50.976H363.208V54.912H361.256V58.88H359.272V60.896H354.984V58.88H353V56.896ZM355.304 56.576V58.528H358.92V54.592H360.904V50.624H362.888V44.704H364.84V39.104H361.256V41.088H357.288V43.072H355.304V47.008H353.352V56.576H355.304ZM382.984 56.576H384.968V52.608H386.92V46.656H388.904V43.072H382.984V40.736H390.888V32.832H393.192V40.736H399.144V42.72H401.096V54.912H399.144V58.88H397.16V60.896H388.904V58.528H396.808V54.592H398.792V43.072H391.24V47.008H389.256V52.96H387.272V56.896H385.288V60.896H382.984V56.576ZM404.712 37.12H402.728V34.816H404.712V32.832H407.048V34.816H409V36.768H410.984V39.104H409V41.088H406.696V39.104H404.712V37.12ZM406.696 36.768V35.136H405.064V36.768H406.696ZM408.648 38.752V37.12H407.048V38.752H408.648ZM400.776 38.752H403.08V40.736H405.064V42.72H407.048V44.704H409V48.64H410.984V50.976H408.648V48.992H406.696V45.024H404.712V43.072H402.728V41.088H400.776V38.752ZM427.848 32.8H440.072V44.992H427.848V32.8ZM416.008 40.704H417.992V38.72H419.944V34.784H421.928V32.8H424.264V35.104H422.28V39.072H420.296V41.056H418.312V43.04H416.008V40.704ZM437.736 36.736V35.104H430.184V36.736H437.736ZM437.736 42.688V39.072H430.184V42.688H437.736ZM419.944 48.96H418.312V50.944H413.992V48.608H417.992V46.624H419.944V44.672H421.928V42.688H423.912V40.704H426.216V43.04H424.264V44.992H422.28V62.848H419.944V48.96ZM423.912 50.592H435.752V48.96H425.896V46.624H442.024V48.96H438.088V50.592H444.008V52.928H438.088V60.864H436.104V62.848H429.832V60.48H435.752V52.928H423.912V50.592ZM427.848 54.56H430.184V56.544H432.168V58.848H429.832V56.864H427.848V54.56ZM445.992 40.704H455.912V39.072H453.928V37.088H449.992V34.784H459.848V32.8H462.184V34.784H472.072V37.088H468.104V39.072H466.12V40.704H476.008V43.04H445.992V40.704ZM463.816 40.704V38.72H465.8V37.088H456.264V38.72H458.216V40.704H463.816ZM453.928 54.88H451.944V44.672H470.088V54.88H462.184V56.544H464.168V58.848H461.832V56.864H459.848V54.88H456.264V60.48H467.752V56.544H470.088V60.864H468.104V62.848H455.912V60.864H453.928V54.88ZM467.752 48.608V46.976H454.28V48.608H467.752ZM467.752 52.576V50.944H454.28V52.576H467.752ZM445.992 58.496H448.008V54.56H450.312V58.848H448.36V60.864H445.992V58.496ZM471.72 54.56H474.024V56.544H476.008V60.864H473.672V56.864H471.72V54.56ZM485.928 46.656H487.912V44.704H489.896V42.72H491.848V40.736H493.832V39.104H477.992V36.768H506.024V39.104H498.12V41.088H494.184V43.072H492.2V45.024H490.216V47.008H488.264V54.592H490.216V56.576H492.2V58.528H502.088V60.896H491.848V58.88H487.912V54.912H485.928V46.656ZM501.736 40.736H504.072V42.72H506.024V44.704H508.008V47.008H505.672V45.024H503.72V43.072H501.736V40.736ZM497.8 42.72H500.104V44.704H502.088V46.656H504.072V48.992H501.736V47.008H499.752V45.024H497.8V42.72ZM522.888 60.512V58.528H524.84V56.576H526.824V52.96H525.192V54.912H518.92V52.96H516.936V46.656H518.92V44.704H525.192V46.656H526.824V41.088H510.984V38.752H526.824V32.832H529.16V38.752H539.016V41.088H529.16V56.896H527.176V58.88H525.192V60.896H523.208V62.88H518.92V60.512H522.888ZM524.84 52.608V50.624H526.824V48.992H524.84V47.008H519.272V52.608H524.84ZM543.016 54.592H545V52.608H551.272V54.592H553.224V60.896H551.272V62.88H545V60.896H543.016V54.592ZM550.92 60.512V54.912H545.32V60.512H550.92ZM581.928 60.48V58.848H579.944V44.992H573.992V42.688H587.848V41.056H579.944V38.72H587.848V37.088H577.992V34.784H587.848V32.8H590.184V34.784H602.024V37.088H590.184V38.72H600.072V41.056H590.184V42.688H604.008V44.992H600.072V58.848H598.088V60.48H604.008V62.848H597.736V60.864H595.752V58.848H584.264V60.864H582.28V62.848H576.008V60.48H581.928ZM597.736 48.608V46.976H582.28V48.608H597.736ZM597.736 52.576V50.944H582.28V52.576H597.736ZM597.736 56.544V54.88H582.28V56.544H597.736ZM609.992 46.976H608.36V50.944H605.992V46.624H608.008V44.672H609.992V40.704H611.944V36.736H613.928V32.8H616.264V36.736H625.8V34.784H632.072V37.088H626.12V46.624H636.008V48.96H626.12V58.496H634.024V60.864H615.912V58.496H623.816V48.96H613.928V46.624H623.816V39.072H615.912V37.088H614.28V41.056H612.296V62.848H609.992V46.976ZM637.992 50.592H640.008V46.624H641.992V36.736H653.832V32.8H656.168V36.736H663.72V35.104H661.736V32.8H664.072V34.784H666.024V36.736H668.008V39.072H656.168V42.688H658.12V46.624H659.752V44.672H661.736V40.704H664.072V44.992H662.088V46.976H660.104V48.608H662.088V50.592H665.672V46.624H668.008V50.944H666.024V52.928H661.736V50.944H659.752V48.96H658.12V50.944H656.168V52.928H654.184V54.56H656.168V56.864H653.832V54.88H651.848V52.576H653.832V50.944H645.928V44.672H654.184V50.592H655.816V48.608H657.8V46.976H655.816V43.04H644.296V46.976H642.312V50.944H640.36V52.928H637.992V50.592ZM653.832 40.704V39.072H644.296V40.704H653.832ZM651.848 48.608V46.976H648.264V48.608H651.848ZM647.912 54.56H650.216V60.48H659.752V56.544H662.088V60.864H660.104V62.848H649.896V60.864H647.912V54.56ZM663.72 54.56H666.024V58.496H668.008V62.848H665.672V58.848H663.72V54.56ZM640.008 58.496H641.992V54.56H644.296V58.848H642.312V62.848H640.008V58.496ZM670.984 56.576H672.968V52.608H674.92V46.656H676.904V43.072H670.984V40.736H678.888V32.832H681.192V40.736H687.144V42.72H689.096V54.912H687.144V58.88H685.16V60.896H676.904V58.528H684.808V54.592H686.792V43.072H679.24V47.008H677.256V52.96H675.272V56.896H673.288V60.896H670.984V56.576ZM692.712 37.12H690.728V34.816H692.712V32.832H695.048V34.816H697V36.768H698.984V39.104H697V41.088H694.696V39.104H692.712V37.12ZM694.696 36.768V35.136H693.064V36.768H694.696ZM696.648 38.752V37.12H695.048V38.752H696.648ZM688.776 38.752H691.08V40.736H693.064V42.72H695.048V44.704H697V48.64H698.984V50.976H696.648V48.992H694.696V45.024H692.712V43.072H690.728V41.088H688.776V38.752ZM720.776 60.48V54.88H714.824V46.624H720.776V43.04H714.824V40.704H716.808V36.736H718.792V32.8H721.096V37.088H719.144V40.704H724.712V37.088H722.728V34.784H725.064V36.736H727.048V40.704H729V43.04H726.696V41.056H725.064V43.04H723.08V46.624H729V54.88H723.08V58.496H726.696V56.544H729V60.48H730.984V62.848H728.648V60.864H721.096V62.848H714.824V60.48H720.776ZM710.888 60.48V50.944H702.984V42.688H710.888V37.088H702.984V34.784H713.192V44.992H705.288V48.608H713.192V60.864H711.24V62.848H702.984V60.48H710.888ZM720.776 52.576V48.96H717.16V52.576H720.776ZM726.696 52.576V48.96H723.08V52.576H726.696ZM740.904 50.976H738.952V46.656H740.904V44.704H744.872V42.72H746.856V40.736H750.792V38.752H752.776V36.768H754.76V34.816H757.064V37.12H755.08V39.104H753.128V41.088H751.144V43.072H747.176V45.024H745.224V47.008H741.256V50.624H743.24V52.608H747.176V54.592H751.144V56.576H753.128V58.528H757.064V60.512H759.048V62.88H756.712V60.896H752.776V58.88H750.792V56.896H746.856V54.912H742.888V52.96H740.904V50.976ZM767.016 54.592H769.32V56.576H771.304V58.528H773.288V62.88H770.952V60.896H769V58.88H767.016V54.592ZM39.912 74.688H41.896V72.704H43.848V68.736H45.832V66.784H47.816V64.8H50.12V66.784H52.104V68.736H54.088V70.72H56.072V72.704H58.024V74.688H60.008V76.992H57.672V75.04H56.072V76.992H43.848V75.04H42.216V76.992H39.912V74.688ZM35.944 71.072H33.992V69.088H32.008V66.784H34.312V68.736H36.296V70.72H38.28V73.056H35.944V71.072ZM55.72 74.688V73.056H53.736V71.072H51.752V69.088H49.8V67.104H48.168V69.088H46.184V73.056H44.2V74.688H55.72ZM29.992 86.56H32.008V82.592H33.992V80.608H35.944V76.672H38.28V80.96H36.296V82.944H34.312V86.88H32.36V88.864H29.992V86.56ZM39.912 80.608H58.024V88.864H56.072V90.848H49.8V88.544H55.72V82.944H48.168V94.848H45.832V82.944H39.912V80.608ZM81.8 92.48V86.88H77.832V84.576H81.8V80.96H75.848V78.624H81.8V76.992H77.832V70.72H79.816V64.8H82.12V66.784H88.072V73.056H86.088V74.688H90.024V78.624H92.008V80.96H90.024V86.88H84.104V92.864H82.12V94.848H77.832V92.48H81.8ZM61.992 74.688H67.944V73.056H64.008V70.72H67.944V69.088H61.992V66.784H67.944V64.8H70.28V66.784H76.2V69.088H70.28V70.72H74.216V73.056H70.28V74.688H76.2V76.992H61.992V74.688ZM83.752 74.688V72.704H85.736V69.088H82.12V71.072H80.168V74.688H83.752ZM87.72 78.624V76.992H84.104V78.624H87.72ZM64.008 78.624H74.216V94.848H67.944V92.48H71.912V88.864H66.312V94.848H64.008V78.624ZM87.72 84.576V80.96H84.104V84.576H87.72ZM71.912 82.592V80.96H66.312V82.592H71.912ZM71.912 86.56V84.928H66.312V86.56H71.912ZM94.984 86.592H96.968V82.624H98.92V78.656H100.904V74.72H102.888V73.088H94.984V70.752H102.888V68.768H104.872V64.832H107.176V69.12H105.192V70.752H111.144V73.088H105.192V75.072H103.24V79.008H101.256V82.976H99.272V86.912H97.288V88.896H94.984V86.592ZM112.776 70.752H121V72.736H122.984V75.072H120.648V73.088H112.776V70.752ZM102.888 86.592H104.872V84.608H112.776V76.704H115.08V86.592H117.064V88.576H119.048V90.528H121V92.896H118.696V90.88H116.712V88.896H115.08V90.88H113.096V92.896H111.144V94.88H104.872V92.896H102.888V86.592ZM110.792 92.512V90.528H112.776V86.912H105.192V92.512H110.792ZM126.984 84.576H134.92V80.96H129V78.624H134.92V64.8H137.256V78.624H143.176V80.96H137.256V84.576H145.16V86.88H137.256V94.848H134.92V86.88H126.984V84.576ZM152.712 92.48V64.8H155.016V92.864H153.064V94.848H146.792V92.48H152.712ZM138.888 72.704H140.84V66.784H143.176V73.056H141.192V76.992H138.888V72.704ZM130.984 71.072H129V66.784H131.304V70.72H133.288V76.992H130.984V71.072ZM146.792 68.736H149.096V86.88H146.792V68.736ZM158.984 66.784H163.272V68.736H165.256V70.72H166.888V64.8H169.192V70.72H170.824V66.784H173.16V71.072H171.176V73.056H169.192V74.688H173.16V76.992H171.176V78.624H173.16V84.928H170.824V78.976H169.192V88.864H166.888V80.96H165.256V84.928H163.272V86.88H161.288V90.496H174.792V66.784H180.712V64.8H185V67.104H181.064V69.088H177.096V74.688H186.984V76.992H183.048V94.848H180.712V76.992H177.096V90.848H175.144V94.848H172.808V92.864H161.288V94.848H158.984V66.784ZM166.888 74.688V73.056H164.904V71.072H162.92V69.088H161.288V74.688H166.888ZM162.92 84.576V80.608H164.904V78.624H166.888V76.992H161.288V84.576H162.92ZM194.984 92.48V90.496H196.936V88.544H198.92V86.56H200.904V82.592H202.888V78.624H204.84V75.04H193V72.704H204.84V64.8H207.176V72.704H219.016V88.864H217.064V92.864H215.08V94.848H206.824V92.48H214.728V88.544H216.712V75.04H207.176V78.976H205.192V82.944H203.208V86.88H201.256V88.864H199.272V90.848H197.288V92.864H195.304V94.848H190.984V92.48H194.984ZM223.976 84.608H225.96V80.64H227.912V78.656H229.896V74.72H231.88V73.088H223.976V70.752H233.864V64.832H236.168V70.752H246.056V73.088H234.184V74.72H238.152V76.704H240.136V80.64H241.768V78.656H245.704V76.704H249.992V79.008H246.056V80.992H242.088V82.976H240.136V90.88H237.8V84.96H234.184V86.912H232.232V92.512H248.04V94.88H231.88V92.896H229.896V86.592H231.88V84.608H233.864V82.624H237.8V77.024H232.232V79.008H230.248V80.992H228.264V84.96H226.28V86.912H223.976V84.608ZM259.944 92.48V82.944H253.992V80.608H259.944V75.04H253.992V72.704H259.944V64.8H262.28V72.704H266.216V74.688H273.8V71.072H267.848V68.736H273.8V64.8H276.104V68.736H282.024V71.072H276.104V74.688H284.008V76.992H280.072V80.608H284.008V82.944H280.072V92.864H278.088V94.848H271.816V92.48H277.736V82.944H265.896V80.96H262.28V92.864H260.296V94.848H256.008V92.48H259.944ZM266.216 78.624V80.608H277.736V76.992H265.896V75.04H262.28V78.624H266.216ZM269.832 84.576H272.168V86.56H274.12V88.864H271.816V86.88H269.832V84.576ZM294.888 90.528H304.776V88.576H308.712V86.592H310.696V80.992H308.712V79.008H295.24V80.992H288.968V78.656H294.888V76.704H309.064V78.656H311.048V80.64H313.032V86.912H311.048V88.896H309.064V90.88H305.128V92.896H294.888V90.528ZM326.92 78.656H328.904V76.704H330.888V74.72H332.84V72.736H334.824V71.104H318.984V68.768H347.016V71.104H339.112V73.088H335.176V75.072H333.192V77.024H331.208V79.008H329.256V86.592H331.208V88.576H333.192V90.528H343.08V92.896H332.84V90.88H328.904V86.912H326.92V78.656ZM353.96 86.912H351.976V68.768H354.28V86.592H356.264V90.528H361.864V88.576H363.816V84.608H366.152V88.896H364.168V90.88H362.184V92.896H355.912V90.88H353.96V86.912ZM373.704 77.024H371.72V73.088H369.768V68.768H372.072V72.736H374.056V76.704H376.04V82.624H377.992V88.896H375.688V82.976H373.704V77.024ZM384.968 86.592H386.952V84.608H396.808V79.008H384.968V76.704H396.808V73.088H384.968V70.752H396.808V64.832H399.144V70.752H409.032V73.088H399.144V76.704H409.032V79.008H399.144V86.592H403.08V88.576H405.064V90.528H407.048V92.512H409.032V94.88H406.696V92.896H404.712V90.88H402.76V88.896H399.144V92.896H397.16V94.88H386.952V92.896H384.968V86.592ZM396.808 92.512V86.912H387.272V92.512H396.808ZM426.888 92.512V90.528H428.84V88.576H430.824V84.96H429.192V86.912H422.92V84.96H420.936V78.656H422.92V76.704H429.192V78.656H430.824V73.088H414.984V70.752H430.824V64.832H433.16V70.752H443.016V73.088H433.16V88.896H431.176V90.88H429.192V92.896H427.208V94.88H422.92V92.512H426.888ZM428.84 84.608V82.624H430.824V80.992H428.84V79.008H423.272V84.608H428.84ZM447.016 86.592H449V84.608H455.272V86.592H457.224V92.896H455.272V94.88H449V92.896H447.016V86.592ZM454.92 92.512V86.912H449.32V92.512H454.92ZM489.896 78.976H485.928V76.672H489.896V70.72H492.2V74.688H495.816V64.8H498.12V72.704H501.736V70.72H506.024V82.944H504.072V84.928H499.752V82.592H503.72V73.056H502.088V75.04H498.12V86.88H495.816V76.992H492.2V92.48H505.672V86.56H508.008V92.864H506.024V94.848H491.848V92.864H489.896V78.976ZM481.992 80.96H480.36V82.944H477.992V80.608H480.008V76.672H481.992V72.704H483.944V68.736H485.928V64.8H488.264V69.088H486.28V73.056H484.296V94.848H481.992V80.96ZM512.008 92.48V90.496H513.992V88.544H515.944V86.56H517.928V84.576H519.912V82.592H521.896V78.624H523.848V64.8H526.184V78.624H528.168V82.592H530.12V86.56H532.104V88.544H534.088V90.496H536.072V92.48H540.008V94.848H535.72V92.864H533.736V90.848H531.752V88.864H529.8V86.88H527.816V82.944H525.832V78.976H524.2V82.944H522.216V84.928H520.264V86.88H518.28V88.864H516.296V90.848H514.312V92.864H512.36V94.848H509.992V92.48H512.008ZM545 88.896H542.984V78.656H545V74.72H546.984V72.736H548.936V70.752H552.904V68.768H563.112V70.752H567.08V72.736H569.064V76.704H571.016V86.912H569.064V90.88H567.08V92.896H563.112V94.88H556.84V92.512H562.792V90.528H566.728V86.592H568.712V77.024H566.728V73.088H562.792V71.104H559.176V77.024H557.192V82.976H555.208V86.912H553.256V90.88H551.272V92.896H546.984V90.88H545V88.896ZM547.304 88.576V90.528H550.92V86.592H552.904V82.624H554.888V76.704H556.84V71.104H553.256V73.088H549.288V75.072H547.304V79.008H545.352V88.576H547.304ZM573.992 76.672H576.008V74.688H577.992V70.72H579.944V64.8H582.28V68.736H602.024V71.072H580.296V75.04H578.312V76.672H598.088V90.496H600.072V92.48H601.672V86.56H604.008V92.864H602.024V94.848H599.72V92.864H597.736V90.848H595.752V78.976H577.992V76.992H576.36V78.976H573.992V76.672ZM581.928 72.704H600.072V75.04H581.928V72.704ZM577.992 92.48V90.496H581.928V88.544H583.912V84.928H579.944V82.944H577.992V80.608H580.296V82.592H584.264V84.576H587.848V82.592H589.832V80.608H592.168V82.944H590.184V84.928H588.2V88.544H590.184V90.496H592.168V92.48H594.12V94.848H591.816V92.864H589.832V90.848H587.848V88.864H584.264V90.848H582.28V92.864H578.312V94.848H576.008V92.48H577.992ZM611.944 92.48V82.944H605.992V80.608H611.944V75.04H605.992V72.704H611.944V64.8H614.28V72.704H618.216V74.688H625.8V71.072H619.848V68.736H625.8V64.8H628.104V68.736H634.024V71.072H628.104V74.688H636.008V76.992H632.072V80.608H636.008V82.944H632.072V92.864H630.088V94.848H623.816V92.48H629.736V82.944H617.896V80.96H614.28V92.864H612.296V94.848H608.008V92.48H611.944ZM618.216 78.624V80.608H629.736V76.992H617.896V75.04H614.28V78.624H618.216ZM621.832 84.576H624.168V86.56H626.12V88.864H623.816V86.88H621.832V84.576ZM644.904 90.528H658.76V88.576H662.696V82.976H660.712V80.992H649.224V82.976H645.256V84.96H642.952V80.64H644.904V76.704H646.888V73.088H640.968V70.752H648.872V68.768H650.856V64.832H653.16V69.12H651.176V70.752H663.048V73.088H649.224V77.024H647.24V80.64H648.872V78.656H661.064V80.64H663.048V82.624H665.032V88.896H663.048V90.88H659.08V92.896H644.904V90.528ZM671.976 84.608H673.96V80.64H675.912V78.656H677.896V74.72H679.88V73.088H671.976V70.752H681.864V64.832H684.168V70.752H694.056V73.088H682.184V74.72H686.152V76.704H688.136V80.64H689.768V78.656H693.704V76.704H697.992V79.008H694.056V80.992H690.088V82.976H688.136V90.88H685.8V84.96H682.184V86.912H680.232V92.512H696.04V94.88H679.88V92.896H677.896V86.592H679.88V84.608H681.864V82.624H685.8V77.024H680.232V79.008H678.248V80.992H676.264V84.96H674.28V86.912H671.976V84.608ZM29.992 112.608H35.944V110.976H29.992V108.672H33.992V106.688H35.944V103.072H32.36V105.056H29.992V100.736H43.848V96.8H46.184V100.736H60.008V105.056H57.672V103.072H38.28V104.704H56.072V108.992H54.088V110.624H56.072V112.608H60.008V114.944H55.72V112.96H52.104V114.944H37.928V112.96H36.296V114.944H29.992V112.608ZM50.12 108.672V110.624H51.752V108.672H53.736V107.04H48.168V108.672H50.12ZM39.912 110.624V108.992H37.928V107.04H36.296V110.624H39.912ZM43.848 108.672V107.04H40.264V108.672H43.848ZM49.8 112.608V110.976H47.816V108.992H44.2V110.976H40.264V112.608H49.8ZM32.008 116.576H58.024V118.88H46.184V126.848H39.912V124.48H43.848V118.88H32.008V116.576ZM33.992 124.48V122.496H37.928V120.544H40.264V122.848H38.28V124.864H34.312V126.848H29.992V124.48H33.992ZM49.8 120.544H52.104V122.496H56.072V124.48H60.008V126.848H55.72V124.864H51.752V122.848H49.8V120.544ZM74.888 124.512V122.528H76.84V120.576H78.824V116.96H77.192V118.912H70.92V116.96H68.936V110.656H70.92V108.704H77.192V110.656H78.824V105.088H62.984V102.752H78.824V96.832H81.16V102.752H91.016V105.088H81.16V120.896H79.176V122.88H77.192V124.896H75.208V126.88H70.92V124.512H74.888ZM76.84 116.608V114.624H78.824V112.992H76.84V111.008H71.272V116.608H76.84ZM98.952 118.592H100.904V116.608H107.176V118.592H109.16V122.528H114.76V120.576H116.712V118.592H118.696V114.976H116.712V112.992H103.24V114.976H99.272V116.96H96.968V114.624H98.952V112.64H102.888V110.656H104.872V108.704H106.856V106.72H110.792V104.736H112.776V103.104H98.952V100.768H117.064V103.104H115.08V105.088H113.128V107.072H111.144V109.024H107.176V110.656H117.064V112.64H119.048V114.624H121.032V118.912H119.048V122.88H115.08V124.896H100.904V122.88H98.952V118.592ZM106.856 122.528V118.912H101.256V122.528H106.856ZM143.816 96.8H146.12V100.736H149.736V98.784H154.024V101.088H150.088V103.072H146.12V108.672H153.672V104.704H156.008V108.992H154.024V110.976H145.8V108.992H143.816V96.8ZM125.992 104.704H128.008V100.736H129.992V96.8H132.296V101.088H130.312V104.704H133.928V102.72H135.912V98.784H138.216V102.72H140.2V107.04H137.896V105.056H134.28V107.04H125.992V104.704ZM128.008 108.672H140.2V124.864H138.216V126.848H133.928V124.48H137.896V118.88H130.312V126.848H128.008V108.672ZM137.896 112.608V110.976H130.312V112.608H137.896ZM143.816 112.608H146.12V116.576H149.736V114.592H154.024V116.928H150.088V118.88H146.12V124.48H153.672V120.544H156.008V124.864H154.024V126.848H145.8V124.864H143.816V112.608ZM137.896 116.576V114.944H130.312V116.576H137.896ZM162.984 124.48V122.496H164.936V120.544H166.92V118.56H168.904V114.592H170.888V110.624H172.84V107.04H161V104.704H172.84V96.8H175.176V104.704H187.016V120.864H185.064V124.864H183.08V126.848H174.824V124.48H182.728V120.544H184.712V107.04H175.176V110.976H173.192V114.944H171.208V118.88H169.256V120.864H167.272V122.848H165.288V124.864H163.304V126.848H158.984V124.48H162.984ZM196.936 112.992H190.984V110.656H196.936V105.088H193V102.752H198.92V96.832H201.256V102.752H209.16V105.088H199.272V110.656H209.16V112.992H199.272V122.528H201.256V124.512H212.744V122.528H214.728V120.576H216.712V112.992H214.728V109.024H212.744V106.72H215.08V108.704H217.064V112.64H219.016V120.896H217.064V122.88H215.08V124.896H213.096V126.88H200.904V124.896H198.92V122.88H196.936V112.992ZM222.984 114.624H225V112.64H226.984V110.656H228.936V108.704H232.904V103.104H225V100.768H232.904V96.832H235.208V100.768H249.064V103.104H235.208V106.72H241.16V108.704H242.792V106.72H244.744V104.736H247.08V107.072H245.096V108.704H247.08V110.656H249.064V112.64H251.016V120.896H249.064V122.88H247.08V124.896H245.096V126.88H238.824V124.512H244.744V122.528H246.728V120.576H248.712V112.992H246.728V111.008H243.112V112.992H241.16V116.96H239.176V118.912H237.192V120.896H235.208V122.528H237.192V124.896H234.888V122.88H231.272V124.896H225V122.88H222.984V114.624ZM236.84 118.592V116.608H238.824V112.64H240.808V109.024H235.208V118.592H236.84ZM230.92 122.528V120.576H232.904V111.008H229.288V112.992H227.304V114.976H225.352V122.528H230.92ZM267.816 124.512V122.528H273.768V120.576H275.72V116.608H277.704V105.088H275.72V101.12H268.168V103.104H266.184V105.088H264.232V109.024H262.248V112.992H260.264V116.96H257.96V102.752H259.912V98.816H262.248V103.104H260.264V108.704H261.896V104.736H263.88V102.752H265.864V100.768H267.816V98.816H276.072V100.768H278.056V104.736H280.04V116.96H278.056V120.896H276.072V122.88H274.088V124.896H268.168V126.88H259.912V124.512H267.816ZM287.016 118.592H289.32V120.576H291.304V122.528H293.288V126.88H290.952V124.896H289V122.88H287.016V118.592ZM320.008 124.48V122.496H321.992V118.56H323.944V114.944H321.992V112.96H320.008V110.624H322.312V112.608H324.296V114.592H325.928V110.624H327.912V107.04H317.992V104.704H323.944V96.8H326.28V104.704H332.2V107.04H330.216V110.976H328.264V114.944H326.28V116.576H328.264V118.56H330.216V122.848H327.912V118.88H324.296V122.848H322.312V124.864H320.36V126.848H317.992V124.48H320.008ZM341.736 124.48V107.04H333.832V104.704H341.736V96.8H344.072V104.704H348.008V107.04H344.072V124.864H342.088V126.848H335.816V124.48H341.736ZM335.816 112.96H333.832V108.672H336.168V112.608H338.12V116.928H335.816V112.96ZM352.008 124.48V122.496H353.992V120.544H355.944V118.56H357.928V116.576H359.912V114.592H361.896V110.624H363.848V96.8H366.184V110.624H368.168V114.592H370.12V118.56H372.104V120.544H374.088V122.496H376.072V124.48H380.008V126.848H375.72V124.864H373.736V122.848H371.752V120.864H369.8V118.88H367.816V114.944H365.832V110.976H364.2V114.944H362.216V116.928H360.264V118.88H358.28V120.864H356.296V122.848H354.312V124.864H352.36V126.848H349.992V124.48H352.008ZM387.912 122.496H391.88V120.544H393.864V118.88H387.912V116.576H395.816V114.944H389.896V112.608H393.864V110.976H391.88V108.672H394.184V110.624H396.168V112.608H397.8V110.624H399.784V108.672H402.088V110.976H400.136V112.608H404.072V114.944H398.152V116.576H406.056V118.88H400.136V120.544H402.088V122.496H404.072V124.48H407.688V107.04H397.8V96.8H409.992V124.864H408.04V126.848H403.72V124.864H401.768V122.848H399.784V120.864H397.8V118.88H396.168V120.864H394.184V122.848H392.232V124.864H387.912V122.496ZM383.976 96.8H396.168V107.04H386.28V126.848H383.976V96.8ZM407.688 100.736V99.104H400.136V100.736H407.688ZM393.864 100.736V99.104H386.28V100.736H393.864ZM407.688 104.704V103.072H400.136V104.704H407.688ZM393.864 104.704V103.072H386.28V104.704H393.864ZM419.944 110.976H418.312V112.96H416.36V114.944H413.992V112.608H416.008V110.624H417.992V106.688H419.944V102.72H421.928V96.8H424.264V103.072H422.28V107.04H420.296V108.672H422.28V126.848H419.944V110.976ZM423.912 114.592H429.832V112.608H431.816V110.976H425.896V108.672H427.848V106.688H429.832V104.704H431.816V103.072H425.896V100.736H433.8V98.784H442.024V101.088H434.12V105.056H432.168V107.04H430.184V108.672H432.168V110.624H433.8V108.672H435.752V104.704H438.088V108.992H436.104V110.976H434.12V112.96H432.168V114.592H437.736V110.624H440.072V112.608H442.024V114.592H444.008V116.928H441.672V114.944H438.088V116.928H436.104V126.848H433.8V116.928H423.912V114.592ZM423.912 122.496H427.848V120.544H429.832V118.56H432.168V120.864H430.184V122.848H428.2V124.864H423.912V122.496ZM437.736 118.56H440.072V120.544H442.024V122.496H444.008V124.864H441.672V122.848H439.72V120.864H437.736V118.56ZM453.928 110.656H455.912V108.704H457.896V106.72H459.848V104.736H461.832V103.104H445.992V100.768H474.024V103.104H466.12V105.088H462.184V107.072H460.2V109.024H458.216V111.008H456.264V118.592H458.216V120.576H460.2V122.528H470.088V124.896H459.848V122.88H455.912V118.912H453.928V110.656ZM469.736 104.736H472.072V106.72H474.024V108.704H476.008V111.008H473.672V109.024H471.72V107.072H469.736V104.736ZM465.8 106.72H468.104V108.704H470.088V110.656H472.072V112.992H469.736V111.008H467.752V109.024H465.8V106.72ZM484.936 112.992H478.984V110.656H484.936V105.088H481V102.752H486.92V96.832H489.256V102.752H497.16V105.088H487.272V110.656H497.16V112.992H487.272V122.528H489.256V124.512H500.744V122.528H502.728V120.576H504.712V112.992H502.728V109.024H500.744V106.72H503.08V108.704H505.064V112.64H507.016V120.896H505.064V122.88H503.08V124.896H501.096V126.88H488.904V124.896H486.92V122.88H484.936V112.992ZM512.008 104.704H515.944V101.088H509.992V98.784H526.184V101.088H522.216V104.704H526.184V124.864H514.312V126.848H512.008V104.704ZM527.816 110.624H535.72V101.088H527.816V98.784H538.024V112.96H530.12V124.48H537.672V118.56H540.008V124.864H538.024V126.848H529.8V124.864H527.816V110.624ZM519.912 104.704V101.088H518.28V104.704H519.912ZM523.848 118.56V114.944H519.912V107.04H518.28V114.944H516.296V116.928H514.312V118.56H523.848ZM515.944 114.592V107.04H514.312V114.592H515.944ZM523.848 112.608V107.04H522.216V112.608H523.848ZM523.848 122.496V120.864H514.312V122.496H523.848ZM544.008 124.48V118.56H545.992V100.736H555.848V96.8H568.072V99.104H558.184V100.736H572.008V105.056H569.672V103.072H564.104V105.056H558.184V106.688H565.736V104.704H568.072V107.04H566.088V108.672H570.024V118.88H562.12V120.544H564.104V122.848H561.8V120.864H557.832V118.88H549.928V108.672H557.832V107.04H549.928V104.704H555.848V103.072H548.296V118.88H546.312V124.864H544.36V126.848H541.992V124.48H544.008ZM567.72 112.608V110.976H560.168V112.608H567.72ZM557.832 112.608V110.976H552.264V112.608H557.832ZM567.72 116.576V114.944H560.168V116.576H567.72ZM557.832 116.576V114.944H552.264V116.576H557.832ZM553.896 120.544H556.2V124.48H565.736V122.496H567.72V120.544H570.024V122.496H572.008V126.848H569.672V122.848H568.072V126.848H555.848V124.864H553.896V120.544ZM549.928 124.48V120.544H552.264V124.864H550.28V126.848H547.944V124.48H549.928ZM574.984 120.576H576.968V116.608H578.92V110.656H580.904V107.072H574.984V104.736H582.888V96.832H585.192V104.736H591.144V106.72H593.096V118.912H591.144V122.88H589.16V124.896H580.904V122.528H588.808V118.592H590.792V107.072H583.24V111.008H581.256V116.96H579.272V120.896H577.288V124.896H574.984V120.576ZM596.712 101.12H594.728V98.816H596.712V96.832H599.048V98.816H601V100.768H602.984V103.104H601V105.088H598.696V103.104H596.712V101.12ZM598.696 100.768V99.136H597.064V100.768H598.696ZM600.648 102.752V101.12H599.048V102.752H600.648ZM592.776 102.752H595.08V104.736H597.064V106.72H599.048V108.704H601V112.64H602.984V114.976H600.648V112.992H598.696V109.024H596.712V107.072H594.728V105.088H592.776V102.752ZM29.992 136.704H33.992V134.72H35.944V130.784H37.928V128.8H40.264V131.104H38.28V135.072H36.296V137.056H34.312V139.04H29.992V136.704ZM43.848 130.784H58.024V133.088H43.848V130.784ZM35.944 144.96H34.312V146.944H29.992V144.608H33.992V142.624H35.944V140.672H37.928V138.688H39.912V136.704H42.216V138.688H60.008V140.992H54.088V156.864H52.104V158.848H45.832V156.48H51.752V140.992H41.896V139.04H40.264V140.992H38.28V158.848H35.944V144.96ZM66.952 148.608H68.904V146.624H82.76V144.992H80.776V143.008H64.968V140.704H78.792V139.072H76.808V137.088H64.968V134.752H74.856V133.12H72.872V128.832H75.176V132.768H77.16V134.752H80.776V132.768H87.048V135.104H81.128V137.088H79.144V138.72H81.128V140.704H82.76V138.72H89.032V141.024H83.08V144.64H85.064V146.624H87.048V148.608H89.032V150.912H84.712V148.96H69.256V154.528H87.048V156.896H68.904V154.88H66.952V148.608ZM93.992 154.496H96.008V148.576H97.992V128.8H122.024V137.056H114.12V142.624H124.008V158.848H121.672V156.864H104.264V158.848H101.928V142.624H111.816V137.056H100.296V148.928H98.312V154.848H96.36V158.848H93.992V154.496ZM119.72 134.72V131.104H100.296V134.72H119.72ZM121.672 148.576V144.96H114.12V148.576H121.672ZM111.816 148.576V144.96H104.264V148.576H111.816ZM111.816 154.496V150.88H104.264V154.496H111.816ZM121.672 154.496V150.88H114.12V154.496H121.672ZM129.96 150.912H127.976V132.768H130.28V150.592H132.264V154.528H137.864V152.576H139.816V148.608H142.152V152.896H140.168V154.88H138.184V156.896H131.912V154.88H129.96V150.912ZM149.704 141.024H147.72V137.088H145.768V132.768H148.072V136.736H150.056V140.704H152.04V146.624H153.992V152.896H151.688V146.976H149.704V141.024ZM166.92 142.656H168.904V140.704H170.888V138.72H172.84V136.736H174.824V135.104H158.984V132.768H187.016V135.104H179.112V137.088H175.176V139.072H173.192V141.024H171.208V143.008H169.256V150.592H171.208V152.576H173.192V154.528H183.08V156.896H172.84V154.88H168.904V150.912H166.92V142.656ZM193.96 150.912H191.976V132.768H194.28V150.592H196.264V154.528H201.864V152.576H203.816V148.608H206.152V152.896H204.168V154.88H202.184V156.896H195.912V154.88H193.96V150.912ZM213.704 141.024H211.72V137.088H209.768V132.768H212.072V136.736H214.056V140.704H216.04V146.624H217.992V152.896H215.688V146.976H213.704V141.024ZM224.968 150.592H226.952V148.608H236.808V143.008H224.968V140.704H236.808V137.088H224.968V134.752H236.808V128.832H239.144V134.752H249.032V137.088H239.144V140.704H249.032V143.008H239.144V150.592H243.08V152.576H245.064V154.528H247.048V156.512H249.032V158.88H246.696V156.896H244.712V154.88H242.76V152.896H239.144V156.896H237.16V158.88H226.952V156.896H224.968V150.592ZM236.808 156.512V150.912H227.272V156.512H236.808ZM266.888 156.512V154.528H268.84V152.576H270.824V148.96H269.192V150.912H262.92V148.96H260.936V142.656H262.92V140.704H269.192V142.656H270.824V137.088H254.984V134.752H270.824V128.832H273.16V134.752H283.016V137.088H273.16V152.896H271.176V154.88H269.192V156.896H267.208V158.88H262.92V156.512H266.888ZM268.84 148.608V146.624H270.824V144.992H268.84V143.008H263.272V148.608H268.84ZM287.016 150.592H289V148.608H295.272V150.592H297.224V156.896H295.272V158.88H289V156.896H287.016V150.592ZM294.92 156.512V150.912H289.32V156.512H294.92ZM321.96 130.784H344.04V158.848H341.704V156.864H324.264V158.848H321.96V130.784ZM341.704 138.688V133.088H324.264V138.688H341.704ZM341.704 144.608V140.992H324.264V144.608H341.704ZM341.704 154.496V146.944H324.264V154.496H341.704ZM361.896 132.736H365.832V131.104H359.912V128.8H380.008V131.104H374.088V132.736H378.024V140.992H361.896V132.736ZM353.992 140.992H352.36V148.928H349.992V140.672H352.008V137.056H349.992V134.72H353.992V128.8H356.296V134.72H360.264V137.056H356.296V138.688H358.28V140.672H360.264V144.96H357.928V140.992H356.296V158.848H353.992V140.992ZM371.752 132.736V131.104H368.168V132.736H371.752ZM371.752 138.688V135.072H368.168V138.688H371.752ZM365.832 138.688V135.072H364.2V138.688H365.832ZM375.72 138.688V135.072H374.088V138.688H375.72ZM361.896 142.624H378.024V144.96H361.896V142.624ZM359.912 146.592H380.008V148.928H372.104V156.864H370.12V158.848H365.832V156.48H369.8V148.928H359.912V146.592ZM359.912 154.496H361.896V152.544H363.848V150.56H366.184V152.864H364.2V154.848H362.216V156.864H359.912V154.496ZM373.736 150.56H376.072V152.544H378.024V154.496H380.008V156.864H377.672V154.848H375.72V152.864H373.736V150.56ZM384.968 136.736H386.952V130.816H389.256V137.088H387.272V156.896H384.968V136.736ZM392.872 134.752H409.032V137.088H392.872V134.752ZM392.872 148.608H395.176V152.576H397.16V154.528H409.032V156.896H396.808V154.88H394.856V152.896H392.872V148.608ZM416.008 156.48V154.496H417.992V150.56H419.944V146.944H417.992V144.96H416.008V142.624H418.312V144.608H420.296V146.592H421.928V142.624H423.912V139.04H413.992V136.704H419.944V128.8H422.28V136.704H428.2V139.04H426.216V142.976H424.264V146.944H422.28V148.576H424.264V150.56H426.216V154.848H423.912V150.88H420.296V154.848H418.312V156.864H416.36V158.848H413.992V156.48H416.008ZM437.736 156.48V139.04H429.832V136.704H437.736V128.8H440.072V136.704H444.008V139.04H440.072V156.864H438.088V158.848H431.816V156.48H437.736ZM431.816 144.96H429.832V140.672H432.168V144.608H434.12V148.928H431.816V144.96ZM448.968 130.816H451.272V152.576H453.256V154.528H462.792V152.576H466.728V150.592H468.712V148.608H470.696V146.624H473V148.96H471.048V150.912H469.064V152.896H467.08V154.88H463.144V156.896H452.904V154.88H450.92V152.896H448.968V130.816ZM486.92 142.656H488.904V140.704H490.888V138.72H492.84V136.736H494.824V135.104H478.984V132.768H507.016V135.104H499.112V137.088H495.176V139.072H493.192V141.024H491.208V143.008H489.256V150.592H491.208V152.576H493.192V154.528H503.08V156.896H492.84V154.88H488.904V150.912H486.92V142.656ZM509.992 154.496H512.008V152.544H513.992V148.576H515.944V140.992H509.992V138.688H523.848V137.056H513.992V134.72H523.848V133.088H512.008V130.784H517.928V128.8H520.264V130.784H529.8V128.8H532.104V130.784H538.024V133.088H526.184V134.72H536.072V137.056H526.184V138.688H540.008V140.992H518.28V148.928H516.296V152.864H514.312V154.848H512.36V156.864H509.992V154.496ZM519.912 142.624H536.072V158.848H533.736V156.864H522.216V158.848H519.912V142.624ZM533.736 146.592V144.96H522.216V146.592H533.736ZM533.736 150.56V148.928H522.216V150.56H533.736ZM533.736 154.496V152.864H522.216V154.496H533.736ZM544.008 132.736H555.848V128.8H558.184V132.736H570.024V139.04H567.72V135.072H546.312V139.04H544.008V132.736ZM547.944 156.48V154.496H551.912V152.544H553.896V150.88H544.008V148.576H555.848V146.944H547.944V144.608H555.848V142.976H545.992V140.672H555.848V136.704H558.184V140.672H568.072V142.976H558.184V144.608H566.088V146.944H558.184V148.576H570.024V150.88H560.168V152.544H562.12V154.496H566.088V156.48H572.008V158.848H565.736V156.864H561.8V154.848H559.816V152.864H557.832V150.88H556.2V152.864H554.216V154.848H552.264V156.864H548.296V158.848H541.992V156.48H547.944ZM576.968 136.736H578.952V130.816H581.256V137.088H579.272V156.896H576.968V136.736ZM584.872 134.752H601.032V137.088H584.872V134.752ZM584.872 148.608H587.176V152.576H589.16V154.528H601.032V156.896H588.808V154.88H586.856V152.896H584.872V148.608ZM617.896 139.04H616.264V140.992H613.928V138.688H615.912V136.704H617.896V132.736H619.848V128.8H622.184V132.736H625.8V130.784H627.752V128.8H630.088V131.104H628.104V132.736H634.024V135.072H626.12V138.688H632.072V140.992H626.12V142.624H632.072V144.96H626.12V148.576H634.024V150.88H617.896V139.04ZM611.944 135.072H609.992V133.088H608.008V130.784H610.312V132.736H612.296V134.72H614.28V137.056H611.944V135.072ZM623.816 138.688V135.072H620.2V138.688H623.816ZM623.816 142.624V140.992H620.2V142.624H623.816ZM609.992 156.48V154.496H611.944V144.96H605.992V142.624H614.28V152.544H616.264V154.496H636.008V156.864H615.912V154.848H612.296V156.864H610.312V158.848H605.992V156.48H609.992ZM623.816 148.576V144.96H620.2V148.576H623.816ZM641.96 150.912H639.976V142.656H641.96V140.704H645.896V137.088H639.976V134.752H645.896V128.832H648.232V134.752H656.136V137.088H648.232V150.912H646.248V156.512H659.72V154.528H661.704V148.96H659.72V146.624H662.056V148.608H664.04V154.88H662.056V156.896H660.072V158.88H645.896V156.896H643.912V152.896H641.96V150.912ZM663.688 139.072H661.704V137.088H659.72V135.104H657.768V132.768H660.072V134.752H662.056V136.736H664.04V138.72H665.992V143.008H663.688V139.072ZM645.896 150.592V143.008H642.28V150.592H645.896ZM677.928 156.48V154.496H681.896V152.864H673.992V150.56H675.944V148.928H669.992V146.592H679.912V142.624H683.848V140.672H685.832V138.688H687.816V135.072H684.2V137.056H679.912V135.072H675.944V133.088H672.008V130.784H676.296V132.736H680.264V134.72H683.848V128.8H686.184V132.736H698.024V137.056H696.072V139.04H693.736V136.704H695.72V135.072H690.12V138.688H692.104V140.672H696.072V142.624H700.008V144.96H695.72V142.976H691.752V140.992H689.8V139.04H688.168V140.992H686.184V142.976H684.2V144.96H682.216V146.592H700.008V148.928H692.104V150.88H690.12V154.496H694.088V156.48H698.024V158.848H693.736V156.864H689.8V154.848H684.2V156.864H678.28V158.848H669.992V156.48H677.928ZM669.992 140.672H675.944V138.688H680.264V140.992H676.296V142.976H669.992V140.672ZM682.216 150.56V152.544H687.816V150.56H689.8V148.928H678.28V150.56H682.216ZM707.944 156.48V154.496H711.912V152.544H713.896V150.88H704.008V148.576H713.896V146.944H701.992V144.608H709.928V142.976H705.992V140.992H704.36V142.976H701.992V140.672H704.008V138.688H705.992V137.056H701.992V134.72H709.928V133.088H704.008V130.784H709.928V128.8H712.264V130.784H716.2V133.088H712.264V134.72H717.832V132.736H719.816V128.8H722.12V132.736H728.072V144.608H729.672V140.672H732.008V146.944H727.72V144.96H725.736V135.072H722.12V138.688H724.104V140.992H722.12V142.976H720.168V146.944H716.2V148.576H728.072V156.864H726.088V158.848H717.832V156.48H725.736V150.88H716.2V152.864H714.216V154.848H712.264V156.864H708.296V158.848H701.992V156.48H707.944ZM719.816 136.704V135.072H718.184V136.704H719.816ZM709.928 140.672V138.688H711.912V137.056H708.296V139.04H706.312V140.672H709.928ZM717.832 138.688V137.056H714.216V138.688H717.832ZM717.832 144.608V142.624H719.816V139.04H718.184V140.992H716.2V142.976H712.264V144.608H717.832ZM713.896 140.672V139.04H712.264V140.672H713.896ZM734.984 152.576H736.968V148.608H738.92V142.656H740.904V139.072H734.984V136.736H742.888V128.832H745.192V136.736H751.144V138.72H753.096V150.912H751.144V154.88H749.16V156.896H740.904V154.528H748.808V150.592H750.792V139.072H743.24V143.008H741.256V148.96H739.272V152.896H737.288V156.896H734.984V152.576ZM756.712 133.12H754.728V130.816H756.712V128.832H759.048V130.816H761V132.768H762.984V135.104H761V137.088H758.696V135.104H756.712V133.12ZM758.696 132.768V131.136H757.064V132.768H758.696ZM760.648 134.752V133.12H759.048V134.752H760.648ZM752.776 134.752H755.08V136.736H757.064V138.72H759.048V140.704H761V144.64H762.984V146.976H760.648V144.992H758.696V141.024H756.712V139.072H754.728V137.088H752.776V134.752ZM32.008 176.608H49.8V165.088H43.848V162.784H58.024V165.088H52.104V176.608H60.008V178.944H52.104V190.848H49.8V178.944H32.008V176.608ZM32.008 162.784H40.264V165.088H32.008V162.784ZM53.736 172.672H55.72V166.72H58.024V172.992H56.072V174.976H53.736V172.672ZM45.832 171.04H43.848V166.72H46.184V170.688H48.168V174.976H45.832V171.04ZM29.992 168.704H42.216V171.04H29.992V168.704ZM32.008 172.672H42.216V174.976H32.008V172.672ZM32.008 180.576H42.216V188.864H34.312V190.848H32.008V180.576ZM39.912 186.496V182.88H34.312V186.496H39.912ZM65.992 176.96H64.36V178.944H61.992V176.608H64.008V172.672H65.992V166.72H67.944V160.8H70.28V167.072H68.296V190.848H65.992V176.96ZM71.912 170.688H77.832V165.088H71.912V162.784H92.008V165.088H86.088V170.688H92.008V190.848H89.672V188.864H74.216V190.848H71.912V170.688ZM83.752 170.688V165.088H80.168V170.688H83.752ZM83.752 186.496V172.992H80.168V186.496H83.752ZM89.672 186.496V172.992H86.088V186.496H89.672ZM77.832 186.496V172.992H74.216V186.496H77.832ZM97.96 180.608H99.944V178.624H101.896V176.64H115.752V175.008H113.768V173.024H111.784V171.072H95.944V168.736H109.8V167.104H107.848V165.12H105.864V160.832H108.168V164.768H110.152V166.752H112.136V168.736H115.752V166.752H122.024V169.088H116.072V171.072H114.12V172.704H116.072V174.656H118.056V176.64H120.04V178.624H122.024V180.96H115.752V178.976H102.248V180.96H100.264V184.576H102.248V186.528H117.704V184.576H120.04V186.88H118.056V188.896H101.896V186.88H99.944V184.896H97.96V180.608ZM117.704 178.624V176.992H116.072V178.624H117.704ZM125.992 184.576H128.008V180.608H129.992V176.64H131.944V171.072H125.992V168.736H131.944V160.832H134.28V174.656H135.912V172.704H137.896V170.72H139.848V168.736H141.832V166.752H148.104V168.736H150.088V178.976H148.104V186.528H153.672V184.576H156.008V186.88H154.024V188.896H147.752V186.88H145.8V178.624H147.752V169.088H142.184V171.072H140.2V173.024H138.216V175.008H136.264V176.992H134.28V190.88H131.944V180.96H130.312V184.896H128.36V188.896H125.992V184.576ZM162.952 182.592H164.904V180.608H171.176V182.592H173.16V186.528H178.76V184.576H180.712V182.592H182.696V178.976H180.712V176.992H167.24V178.976H163.272V180.96H160.968V178.624H162.952V176.64H166.888V174.656H168.872V172.704H170.856V170.72H174.792V168.736H176.776V167.104H162.952V164.768H181.064V167.104H179.08V169.088H177.128V171.072H175.144V173.024H171.176V174.656H181.064V176.64H183.048V178.624H185.032V182.912H183.048V186.88H179.08V188.896H164.904V186.88H162.952V182.592ZM170.856 186.528V182.912H165.256V186.528H170.856ZM194.952 164.768H215.048V167.104H194.952V164.768ZM192.968 180.608H194.952V178.624H197.256V180.96H195.272V184.576H199.24V186.528H214.696V184.576H217.032V186.88H215.048V188.896H198.888V186.88H194.952V184.896H192.968V180.608ZM224.968 178.624H226.952V176.64H228.904V174.656H232.872V160.832H235.176V172.704H238.792V170.72H249.032V173.024H239.144V175.008H233.224V176.992H229.256V178.976H227.272V184.576H231.24V186.528H249.032V188.896H230.888V186.88H226.952V184.896H224.968V178.624ZM254.984 184.576H256.968V180.608H258.92V174.656H260.904V171.072H254.984V168.736H262.888V160.832H265.192V168.736H271.144V170.72H273.096V182.912H271.144V186.88H269.16V188.896H260.904V186.528H268.808V182.592H270.792V171.072H263.24V175.008H261.256V180.96H259.272V184.896H257.288V188.896H254.984V184.576ZM276.712 165.12H274.728V162.816H276.712V160.832H279.048V162.816H281V164.768H282.984V167.104H281V169.088H278.696V167.104H276.712V165.12ZM278.696 164.768V163.136H277.064V164.768H278.696ZM280.648 166.752V165.12H279.048V166.752H280.648ZM272.776 166.752H275.08V168.736H277.064V170.72H279.048V172.704H281V176.64H282.984V178.976H280.648V176.992H278.696V173.024H276.712V171.072H274.728V169.088H272.776V166.752ZM298.888 188.48V186.496H302.824V182.88H300.84V180.928H297.256V182.88H290.984V180.576H296.904V178.592H300.84V176.608H302.824V174.976H299.208V176.96H293.288V178.944H286.984V176.608H292.936V174.624H298.888V171.04H296.904V169.056H295.272V171.04H289V168.704H294.92V166.72H296.904V164.736H298.888V160.8H301.192V164.736H311.08V167.072H309.096V169.056H307.112V171.04H305.16V172.672H307.112V174.976H305.16V176.608H315.016V178.944H313.064V180.928H311.08V182.88H309.096V184.864H307.112V186.848H303.176V188.864H299.208V190.848H289V188.48H298.888ZM302.824 172.672V170.688H304.808V168.704H306.792V167.072H297.256V168.704H299.208V170.688H301.192V172.672H302.824ZM304.808 174.624V172.992H303.176V174.624H304.808ZM303.176 180.576V182.56H305.16V184.544H306.792V182.56H308.744V180.576H310.728V178.944H301.192V180.576H303.176ZM321.96 182.912H319.976V164.768H322.28V182.592H324.264V186.528H329.864V184.576H331.816V180.608H334.152V184.896H332.168V186.88H330.184V188.896H323.912V186.88H321.96V182.912ZM341.704 173.024H339.72V169.088H337.768V164.768H340.072V168.736H342.056V172.704H344.04V178.624H345.992V184.896H343.688V178.976H341.704V173.024ZM357.928 174.656H359.912V172.704H361.896V170.72H363.848V168.736H365.832V167.104H349.992V164.768H378.024V167.104H370.12V169.088H366.184V171.072H364.2V173.024H362.216V175.008H360.264V182.592H362.216V184.576H364.2V186.528H374.088V188.896H363.848V186.88H359.912V182.912H357.928V174.656ZM373.736 168.736H376.072V170.72H378.024V172.704H380.008V175.008H377.672V173.024H375.72V171.072H373.736V168.736ZM369.8 170.72H372.104V172.704H374.088V174.656H376.072V176.992H373.736V175.008H371.752V173.024H369.8V170.72ZM394.888 188.512V186.528H396.84V184.576H398.824V180.96H397.192V182.912H390.92V180.96H388.936V174.656H390.92V172.704H397.192V174.656H398.824V169.088H382.984V166.752H398.824V160.832H401.16V166.752H411.016V169.088H401.16V184.896H399.176V186.88H397.192V188.896H395.208V190.88H390.92V188.512H394.888ZM396.84 180.608V178.624H398.824V176.992H396.84V175.008H391.272V180.608H396.84ZM415.016 182.592H417V180.608H423.272V182.592H425.224V188.896H423.272V190.88H417V188.896H415.016V182.592ZM422.92 188.512V182.912H417.32V188.512H422.92Z"></path>
</svg>
