<svg xmlns="http://www.w3.org/2000/svg" fill="none" viewBox="0 0 12 13" height="13" width="12">
<path fill="white" d="M0.372 8.216H1.872V7.472H2.604V6.86H0.372V5.984H3.348V5.252H4.092V4.64H1.872V3.764H4.092V3.152H1.128V2.276H4.836V0.8H5.7V2.276H10.884V3.152H4.956V3.764H10.152V4.64H7.188V5.252H7.92V5.984H11.628V6.86H9.408V7.472H10.152V8.216H11.628V9.08H10.02V8.348H9.408V12.068H8.532V11.324H3.48V12.068H2.604V8.348H1.992V9.08H0.372V8.216ZM7.056 5.984V5.372H6.312V4.64H4.956V5.372H4.224V5.984H7.056ZM8.532 7.472V6.86H3.48V7.472H8.532ZM8.532 8.96V8.348H3.48V8.96H8.532ZM8.532 10.436V9.824H3.48V10.436H8.532Z"></path>
</svg>
