<svg xmlns="http://www.w3.org/2000/svg" fill="none" viewBox="0 0 60 30" height="30" width="60">
<path fill="white" d="M0.744 10.448H1.5V8.972H2.244V7.484H2.976V5.264H3.72V2.288H4.596V5.384H3.852V7.616H3.108V9.092H2.364V10.58H1.632V11.336H0.744V10.448ZM9.648 6.872H8.904V5.384H8.172V3.908H7.428V2.288H8.292V3.776H9.036V5.264H9.78V6.74H10.524V8.972H11.256V10.58H10.392V9.092H9.648V6.872ZM15.708 3.908H14.232V3.164H13.488V2.288H14.352V3.032H15.84V3.776H17.316V4.52H18.06V5.384H17.196V4.652H15.708V3.908ZM13.488 10.448H15.708V9.716H17.196V8.972H18.672V8.228H19.416V7.484H20.16V6.74H20.892V5.264H21.636V3.032H22.512V5.384H21.768V6.872H21.024V7.616H20.28V8.36H19.548V9.092H18.804V9.836H17.316V10.58H15.84V11.336H13.488V10.448ZM32.532 1.556H33.276V0.812H34.152V1.556H34.884V2.288H35.628V3.164H34.884V3.908H34.02V3.164H33.276V2.42H32.532V1.556ZM34.02 2.288V1.676H33.408V2.288H34.02ZM24.372 10.448H25.128V8.972H25.872V7.484H26.604V5.264H27.348V2.288H28.224V5.384H27.48V7.616H26.736V9.092H25.992V10.58H25.26V11.336H24.372V10.448ZM33.276 6.872H32.532V5.384H31.8V3.908H31.056V2.288H31.92V3.776H32.664V5.264H33.408V6.74H34.152V8.972H34.884V10.58H34.02V9.092H33.276V6.872ZM34.752 3.032V2.42H34.152V3.032H34.752ZM37.488 5.996H46.512V6.872H37.488V5.996ZM50.964 11.192V10.448H52.452V9.716H53.928V8.972H54.672V8.228H55.416V6.74H56.148V5.264H56.892V3.908H51.84V5.384H51.096V6.128H50.352V6.872H49.608V7.616H48.744V6.74H49.488V5.996H50.22V5.264H50.964V3.776H51.708V2.288H52.452V0.812H53.316V2.42H52.572V3.032H56.892V2.42H56.148V1.676H55.416V0.812H56.28V1.556H56.892V0.812H57.768V1.556H58.5V2.288H59.244V3.164H58.368V2.42H57.768V5.384H57.024V6.872H56.28V8.36H55.536V9.092H54.804V9.836H54.06V10.58H52.572V11.336H51.096V12.08H48.744V11.192H50.964ZM57.636 2.288V1.676H57.024V2.288H57.636ZM20.604 28.18V27.436H21.348V25.96H22.092V25.348H18.372V24.472H22.092V22.372H19.128V21.508H21.348V20.764H22.092V19.276H22.836V17.8H23.7V19.408H22.956V20.896H22.224V21.508H24.312V20.764H26.532V20.152H25.8V19.276H26.664V20.02H27.408V20.764H28.152V21.508H28.884V22.372H28.02V21.64H26.664V24.472H29.628V25.348H26.664V29.068H25.8V25.348H22.956V26.08H22.224V27.568H21.48V28.324H20.736V29.068H19.128V28.18H20.604ZM25.8 24.472V21.64H24.444V22.372H22.956V24.472H25.8ZM31.116 27.436H40.008V25.348H31.86V24.472H40.008V23.116H31.116V22.252H35.556V17.8H36.432V22.252H40.872V29.068H40.008V28.324H31.116V27.436ZM33.336 20.152H32.592V19.408H31.86V18.544H32.724V19.276H33.468V20.02H34.212V21.64H33.336V20.152ZM37.788 20.764H38.52V20.02H39.264V18.544H40.14V20.152H39.396V20.896H38.652V21.64H37.788V20.764Z"></path>
</svg>
