<svg xmlns="http://www.w3.org/2000/svg" fill="none" viewBox="0 0 548 61" height="61" width="548">
<path fill="black" d="M16.856 16.408H28.696V13.144H0.984V8.472H28.696V0.599998H33.368V8.472H61.016V13.144H33.368V16.408H49.176V48.728H16.856V16.408ZM5.016 20.376H9.624V51.992H61.016V56.728H9.624V60.696H5.016V20.376ZM44.504 24.344V21.08H21.528V24.344H44.504ZM44.504 32.216V28.952H21.528V32.216H44.504ZM44.504 44.12V36.888H21.528V44.12H44.504ZM64.984 36.184H69.016V28.248H72.984V8.472H96.664V0.599998H101.336V8.472H116.44V5.208H112.472V0.599998H117.144V4.568H121.048V8.472H125.016V13.144H101.336V20.376H105.24V28.248H108.504V24.344H112.472V16.408H117.144V24.984H113.176V28.952H109.208V32.216H113.176V36.184H120.344V28.248H125.016V36.888H121.048V40.856H112.472V36.888H108.504V32.92H105.24V36.888H101.336V40.856H97.368V44.12H101.336V48.728H96.664V44.76H92.696V40.152H96.664V36.888H80.856V24.344H97.368V36.184H100.632V32.216H104.6V28.952H100.632V21.08H77.592V28.952H73.624V36.888H69.72V40.856H64.984V36.184ZM96.664 16.408V13.144H77.592V16.408H96.664ZM92.696 32.216V28.952H85.528V32.216H92.696ZM84.824 44.12H89.432V55.96H108.504V48.088H113.176V56.728H109.208V60.696H88.792V56.728H84.824V44.12ZM116.44 44.12H121.048V51.992H125.016V60.696H120.344V52.696H116.44V44.12ZM69.016 51.992H72.984V44.12H77.592V52.696H73.624V60.696H69.016V51.992ZM135 48.792H130.968V28.312H135V20.44H138.968V16.472H142.872V12.504H150.808V8.536H171.224V12.504H179.16V16.472H183.128V24.408H187.032V44.824H183.128V52.76H179.16V56.792H171.224V60.76H158.68V56.024H170.584V52.056H178.456V44.184H182.424V25.048H178.456V17.176H170.584V13.208H163.352V25.048H159.384V36.952H155.416V44.824H151.512V52.76H147.544V56.792H138.968V52.76H135V48.792ZM139.608 48.152V52.056H146.84V44.184H150.808V36.248H154.776V24.408H158.68V13.208H151.512V17.176H143.576V21.144H139.608V29.016H135.704V48.152H139.608ZM224.664 32.92H220.696V28.248H228.632V24.344H236.504V20.376H240.472V17.112H225.368V21.08H221.4V24.984H216.792V20.376H220.696V12.44H224.664V0.599998H229.336V12.44H253.016V17.112H245.144V21.08H241.176V24.984H237.208V32.216H241.176V36.184H244.44V32.216H248.344V28.248H253.016V32.92H249.048V36.888H245.144V48.088H249.048V55.96H253.016V60.696H248.344V56.728H244.44V48.728H240.472V40.856H236.504V32.92H232.6V28.952H229.336V60.696H224.664V32.92ZM192.984 51.992H197.016V40.152H200.984V17.112H192.984V12.44H204.888V0.599998H209.56V12.44H217.432V17.112H205.592V28.248H217.432V56.728H213.528V60.696H204.888V55.96H212.824V32.92H205.592V40.856H201.624V52.696H197.72V60.696H192.984V51.992ZM261.016 55.96V51.992H264.984V48.088H268.888V44.12H272.856V40.152H276.824V36.184H280.792V28.248H284.696V0.599998H289.368V28.248H293.336V36.184H297.24V44.12H301.208V48.088H305.176V51.992H309.144V55.96H317.016V60.696H308.44V56.728H304.472V52.696H300.504V48.728H296.6V44.76H292.632V36.888H288.664V28.952H285.4V36.888H281.432V40.856H277.528V44.76H273.56V48.728H269.592V52.696H265.624V56.728H261.72V60.696H256.984V55.96H261.016ZM340.76 56.024V52.056H352.6V48.152H356.568V40.92H352.6V36.952H344.728V32.984H340.76V28.312H345.432V32.28H353.304V36.248H357.272V40.216H364.504V36.248H368.408V28.312H372.376V17.176H345.432V21.144H341.464V25.048H337.496V29.016H333.528V32.984H329.624V36.952H324.888V32.28H328.92V28.312H332.888V24.408H336.792V20.44H340.76V16.472H344.728V8.536H348.696V0.663998H353.304V9.24H349.336V12.504H377.048V29.016H373.08V36.952H369.112V40.92H365.144V44.824H361.24V48.792H357.272V52.76H353.304V56.792H341.464V60.76H328.92V56.024H340.76ZM388.888 36.248H396.888V32.28H404.76V28.312H412.696V24.408H416.6V20.44H420.568V16.472H424.536V12.504H428.504V8.536H432.408V4.632H436.376V0.663998H441.048V5.272H437.08V9.24H433.112V13.208H429.144V17.176H425.24V60.76H420.568V25.048H417.304V29.016H413.336V32.984H405.464V36.952H397.528V40.92H388.888V36.248ZM453.016 52.056H464.856V48.152H472.792V44.184H480.664V40.216H484.632V32.28H488.6V24.408H492.504V13.208H448.984V8.536H492.504V4.632H496.472V0.663998H505.048V4.632H509.016V13.208H505.048V17.176H497.176V25.048H493.208V32.984H489.24V40.92H485.336V44.824H481.368V48.792H473.432V52.76H465.56V56.792H453.016V52.056ZM504.344 12.504V5.272H497.176V12.504H504.344ZM542.68 4.632H547.352V44.824H542.68V4.632ZM538.712 48.152H547.352V56.792H538.712V48.152Z"></path>
</svg>
