<svg xmlns="http://www.w3.org/2000/svg" fill="none" viewBox="0 0 47 30" height="30" width="47">
<path fill="white" d="M12.044 6.74H12.788V5.996H13.52V5.264H14.264V3.776H15.008V2.42H6.116V1.556H15.872V3.908H15.14V5.384H14.396V6.128H13.652V6.872H12.908V7.616H12.044V6.74ZM6.116 10.448H7.592V9.716H8.336V8.972H9.08V7.484H9.824V3.776H10.688V7.616H9.944V9.092H9.212V9.836H8.468V10.58H7.724V11.336H6.116V10.448ZM18.104 7.484H19.604V6.74H21.08V5.996H22.568V5.264H23.3V4.52H24.044V3.776H24.788V3.032H25.532V2.288H26.264V1.556H27.008V0.812H27.884V1.676H27.14V2.42H26.396V3.164H25.652V3.908H24.92V12.08H24.044V5.384H23.432V6.128H22.688V6.872H21.212V7.616H19.724V8.36H18.104V7.484ZM29.744 10.448H31.244V9.716H32.72V8.972H34.208V8.228H34.94V7.484H35.684V5.996H36.428V4.52H37.172V3.164H30.5V2.288H38.036V4.652H37.292V6.128H36.56V7.484H37.292V8.228H38.036V8.972H38.78V9.716H39.524V10.448H40.256V11.336H39.392V10.58H38.648V9.836H37.904V9.092H37.172V8.36H36.428V7.616H35.816V8.36H35.072V9.092H34.328V9.836H32.852V10.58H31.364V11.336H29.744V10.448ZM2.708 28.192V27.448H4.196V26.716H5.672V25.972H6.416V25.228H7.16V23.74H7.892V22.264H8.636V20.908H3.584V22.384H2.84V23.128H2.096V23.872H1.352V24.616H0.488V23.74H1.232V22.996H1.964V22.264H2.708V20.776H3.452V19.288H4.196V17.812H5.06V19.42H4.316V20.032H9.512V22.384H8.768V23.872H8.024V25.36H7.28V26.092H6.548V26.836H5.804V27.58H4.316V28.336H2.84V29.08H0.488V28.192H2.708ZM16.928 28.192V27.448H18.416V26.716H19.16V25.228H19.892V18.556H20.768V25.36H20.024V26.836H19.28V27.58H18.548V28.336H17.06V29.08H13.964V28.192H16.928ZM13.232 18.556H14.096V25.36H13.232V18.556ZM24.488 22.996H33.512V23.872H24.488V22.996ZM35.744 27.448H37.244V25.972H37.976V24.484H38.72V22.264H39.464V20.776H40.208V18.556H41.072V20.908H40.328V22.384H39.596V24.616H38.852V26.092H38.108V27.448H40.94V26.716H44.648V26.092H43.904V25.36H43.172V23.872H42.428V22.996H43.292V23.74H44.036V25.228H44.78V25.972H45.524V27.448H46.256V29.08H45.392V27.58H41.072V28.336H35.744V27.448Z"></path>
</svg>
