<svg version="1.1" xmlns="http://www.w3.org/2000/svg" xmlns:xlink="http://www.w3.org/1999/xlink" width="72" height="38" viewBox="0,0,72,38"><g transform="translate(-204,-161)"><g data-paper-data="{&quot;isPaintingLayer&quot;:true}" fill-rule="nonzero" stroke-linecap="butt" stroke-linejoin="miter" stroke-miterlimit="10" stroke-dasharray="" stroke-dashoffset="0" style="mix-blend-mode: normal"><path d="M209,199c-2.76142,0 -5,0 -5,0c0,0 0,-27.2617 0,-33.31796c0,-2.2703 0,-4.68204 0,-4.68204c0,0 2.23858,0 5,0h62c2.76142,0 5,0 5,0v38c0,0 -2.23858,0 -5,0z" fill="#a3b7ff" stroke="#000000" stroke-width="0"/><path d="M244,196c-2.20914,0 -4,0 -4,0v-32c0,0 1.79086,0 4,0h25c2.20914,0 4,0 4,0v32c0,0 -1.79086,0 -4,0z" fill="#ffffff" stroke="none" stroke-width="1"/></g></g></svg>