<svg version="1.1" xmlns="http://www.w3.org/2000/svg" xmlns:xlink="http://www.w3.org/1999/xlink" width="174.072" height="11.28" viewBox="0,0,174.072,11.28"><g transform="translate(-153.244,-174.3)"><g data-paper-data="{&quot;isPaintingLayer&quot;:true}" fill="#ffffff" fill-rule="nonzero" stroke="none" stroke-width="1" stroke-linecap="butt" stroke-linejoin="miter" stroke-miterlimit="10" stroke-dasharray="" stroke-dashoffset="0" style="mix-blend-mode: normal"><path d="M153.244,183.948h0.756v-1.476h0.744v-1.488h0.732v-2.22h0.744v-2.976h0.876v3.096h-0.744v2.232h-0.744v1.476h-0.744v1.488h-0.732v0.756h-0.888zM162.148,180.372h-0.744v-1.488h-0.732v-1.476h-0.744v-1.62h0.864v1.488h0.744v1.488h0.744v1.476h0.744v2.232h0.732v1.608h-0.864v-1.488h-0.744zM168.208,177.408h-1.476v-0.744h-0.744v-0.876h0.864v0.744h1.488v0.744h1.476v0.744h0.744v0.864h-0.864v-0.732h-1.488zM165.988,183.948h2.22v-0.732h1.488v-0.744h1.476v-0.744h0.744v-0.744h0.744v-0.744h0.732v-1.476h0.744v-2.232h0.876v2.352h-0.744v1.488h-0.744v0.744h-0.744v0.744h-0.732v0.732h-0.744v0.744h-1.488v0.744h-1.476v0.756h-2.352zM185.032,175.056h0.744v-0.744h0.876v0.744h0.732v0.732h0.744v0.876h-0.744v0.744h-0.864v-0.744h-0.744v-0.744h-0.744zM186.52,175.788v-0.612h-0.612v0.612zM176.872,183.948h0.756v-1.476h0.744v-1.488h0.732v-2.22h0.744v-2.976h0.876v3.096h-0.744v2.232h-0.744v1.476h-0.744v1.488h-0.732v0.756h-0.888zM185.776,180.372h-0.744v-1.488h-0.732v-1.476h-0.744v-1.62h0.864v1.488h0.744v1.488h0.744v1.476h0.744v2.232h0.732v1.608h-0.864v-1.488h-0.744zM187.252,176.532v-0.612h-0.6v0.612zM189.988,179.496h9.024v0.876h-9.024zM203.464,184.692v-0.744h1.488v-0.732h1.476v-0.744h0.744v-0.744h0.744v-1.488h0.732v-1.476h0.744v-1.356h-5.052v1.476h-0.744v0.744h-0.744v0.744h-0.744v0.744h-0.864v-0.876h0.744v-0.744h0.732v-0.732h0.744v-1.488h0.744v-1.488h0.744v-1.476h0.864v1.608h-0.744v0.612h4.32v-0.612h-0.744v-0.744h-0.732v-0.864h0.864v0.744h0.612v-0.744h0.876v0.744h0.732v0.732h0.744v0.876h-0.876v-0.744h-0.6v2.964h-0.744v1.488h-0.744v1.488h-0.744v0.732h-0.732v0.744h-0.744v0.744h-1.488v0.756h-1.476v0.744h-2.352v-0.888zM210.136,175.788v-0.612h-0.612v0.612zM214,183.336h-0.756v-3.84h0.756v-1.476h0.744v-0.744h0.732v-0.744h1.488v-0.744h3.828v0.744h1.488v0.744h0.744v1.488h0.732v3.828h-0.732v1.488h-0.744v0.756h-1.488v0.744h-2.352v-0.888h2.232v-0.744h1.476v-1.476h0.744v-3.588h-0.744v-1.476h-1.476v-0.744h-1.356v2.22h-0.744v2.232h-0.744v1.476h-0.732v1.488h-0.744v0.756h-1.608v-0.756h-0.744zM214.864,183.216v0.732h1.356v-1.476h0.744v-1.488h0.744v-2.22h0.732v-2.1h-1.344v0.744h-1.488v0.744h-0.744v1.476h-0.732v3.588zM225.616,176.52h4.44v-2.22h0.876v2.22h4.44v8.304h-0.732v0.744h-2.352v-0.888h2.22v-7.284h-3.576v0.612h0.744v0.744h1.476v0.732h0.744v0.876h-0.876v-0.744h-1.476v-0.744h-0.744v-0.732h-0.612v0.732h-0.744v0.744h-0.732v0.744h-1.62v-0.876h1.488v-0.732h0.744v-0.744h0.732v-0.612h-3.576v8.172h-0.864zM227.092,182.46h1.488v-0.744h0.744v-0.744h0.732v-1.488h0.876v1.488h0.744v0.744h1.476v0.744h0.744v0.864h-0.876v-0.744h-1.476v-0.732h-0.744v-0.744h-0.612v0.744h-0.744v0.732h-0.732v0.744h-1.62zM241.336,178.752h2.964v-4.452h0.864v4.452h2.964v0.864h-2.964v5.952h-0.864v-5.952h-2.964zM239.848,175.908h-0.744v-0.744h-0.732v-0.864h0.864v0.744h0.744v0.732h0.744v0.876h-0.876zM239.104,178.872h-0.732v-0.732h-0.744v-0.876h0.864v0.744h0.744v0.744h0.744v0.864h-0.876zM236.872,183.936h0.756v-0.732h0.744v-0.744h0.732v-1.488h0.744v-0.744h0.876v0.876h-0.744v1.476h-0.744v0.744h-0.744v0.744h-0.732v0.756h-0.888zM249.244,183.216h0.744v-1.488h0.732v-2.232h0.744v-1.344h-2.22v-0.876h2.964v-2.964h0.864v2.964h2.232v0.744h0.732v4.572h-0.732v1.488h-0.744v0.756h-3.096v-0.888h2.964v-1.476h0.744v-4.32h-2.832v1.476h-0.744v2.232h-0.744v1.476h-0.744v1.5h-0.864zM257.392,175.92h-0.744v-0.864h0.744v-0.744h0.876v0.744h0.732v0.732h0.744v0.876h-0.744v0.744h-0.864v-0.744h-0.744zM258.136,175.788v-0.612h-0.612v0.612zM258.868,176.532v-0.612h-0.6v0.612zM255.916,176.532h0.864v0.744h0.744v0.744h0.744v0.744h0.732v1.476h0.744v0.876h-0.876v-0.744h-0.732v-1.488h-0.744v-0.732h-0.744v-0.744h-0.732zM269.392,175.92h-0.744v-0.744h-0.732v-0.864h0.864v0.744h0.612v-0.744h0.876v0.744h0.732v0.732h0.744v0.876h-0.876v-0.744h-0.6v0.744h-0.876zM264.208,175.92h-1.488v-0.864h1.62v0.732h1.476v0.744h0.744v0.876h-0.876v-0.744h-1.476zM270.136,175.788v-0.612h-0.612v0.612zM261.988,183.948h2.22v-0.732h2.22v-0.744h1.488v-0.744h0.732v-0.744h0.744v-1.488h0.744v-2.22h0.864v2.352h-0.732v1.488h-0.744v0.744h-0.744v0.732h-0.744v0.744h-1.476v0.744h-2.22v0.756h-2.352zM262.72,178.152h-1.476v-0.876h1.608v0.744h1.488v0.744h0.732v0.864h-0.864v-0.744h-1.488zM273.988,183.948h5.928v-2.964h0.744v-2.1h-5.928v-0.864h6.792v3.096h-0.744v2.832h2.232v0.888h-9.024zM285.988,179.496h9.024v0.876h-9.024zM300.58,175.92h-1.488v-0.864h1.62v0.732h1.476v0.744h0.744v0.876h-0.876v-0.744h-1.476zM298.36,183.948h2.22v-0.732h2.22v-0.744h1.488v-0.744h0.732v-0.744h0.744v-1.488h0.744v-2.22h0.864v2.352h-0.732v1.488h-0.744v0.744h-0.744v0.732h-0.744v0.744h-1.476v0.744h-2.22v0.756h-2.352zM299.092,178.152h-1.476v-0.876h1.608v0.744h1.488v0.744h0.732v0.864h-0.864v-0.744h-1.488zM309.988,179.496h9.024v0.876h-9.024zM326.44,175.056h0.876v7.536h-0.876zM325.696,183.216h1.62v1.62h-1.62z"/></g></g></svg>