<svg version="1.1" xmlns="http://www.w3.org/2000/svg" xmlns:xlink="http://www.w3.org/1999/xlink" width="116.10706" height="80.92371" viewBox="0,0,116.10706,80.92371"><g transform="translate(-180.95528,-135.39189)"><g data-paper-data="{&quot;isPaintingLayer&quot;:true}" fill-rule="nonzero" stroke-width="1" stroke-linecap="butt" stroke-linejoin="miter" stroke-miterlimit="10" stroke-dasharray="" stroke-dashoffset="0" style="mix-blend-mode: normal"><g><path d="M181.12767,165.6192c-0.84664,-3.7611 1.50714,-7.4987 5.26484,-8.3603l94.59949,-21.68843c3.779,-0.86634 7.542,1.50353 8.394,5.2857l3.746,16.64313l3.758,16.6916c0.847,3.7632 -1.51,7.5026 -5.271,8.3615l-62.4429,14.2632l8.5,19.5l-23.6415,-15.8707l-17.0294,3.8334c-3.7716,0.849 -7.5173,-1.5202 -8.3663,-5.2918z" fill="#ff56a7" stroke="none"/><path d="M229.0648,196.3281l-0.588,0.1344l0.241,0.5529l7.8162,17.9312l-22.2207,-14.9168l-0.1786,-0.1199l-0.2099,0.0472l-17.0294,3.8334c-3.5022,0.7884 -6.9804,-1.4116 -7.7688,-4.9138l-7.51114,-33.3673c-0.78617,-3.4924 1.39949,-6.9631 4.88874,-7.7631l94.5998,-21.68847c3.509,-0.80446 7.003,1.39614 7.794,4.90815l3.746,16.64312l3.758,16.6916c0.786,3.4944 -1.402,6.9667 -4.894,7.7643z" fill="none" stroke="#000000"/></g><path d="M196.8133,186.1995l-1.2262,0.2897l-0.6162,-2.6082l1.2262,-0.2897l-0.2851,-1.2068l1.2068,-0.2851l-0.2851,-1.2068l1.1873,-0.2805l-0.2851,-1.2068l2.4135,-0.5702l-0.8001,-3.3868l-4.8077,1.1359l-0.3356,-1.4209l4.8076,-1.1358l-0.8507,-3.6009l1.4014,-0.3311l0.8507,3.6009l3.6204,-0.8554l0.3357,1.4209l-3.6204,0.8554l0.5196,2.1994l6.0145,-1.4209l0.2805,1.1873l2.4135,-0.5702l0.2851,1.2067l1.1874,-0.2805l1.1864,5.0218l-1.1873,0.2805l0.2851,1.2068l-1.2068,0.2851l0.2897,1.2262l-1.2068,0.2851l0.2851,1.2068l-5.0217,1.1864l-0.3403,-1.4403l4.8076,-1.1359l-0.2851,-1.2067l1.2068,-0.2851l-0.2805,-1.1874l1.2068,-0.2851l-1.0899,-4.613l-2.4135,0.5702l-0.2851,-1.2067l-5.8004,1.3703l1.7061,7.2212l-1.1873,0.2805l0.2897,1.2263l-3.815,0.9013l-0.2897,-1.2263l-1.2068,0.2852zM204.7429,171.3997l2.6082,-0.6162l0.2851,1.2068l2.3941,-0.5656l0.2851,1.2068l1.2068,-0.2851l0.3357,1.4209l-1.4209,0.3357l-0.2851,-1.2068l-2.3941,0.5656l-0.2851,-1.2068l-2.3941,0.5656zM198.1687,185.6737l0.2806,1.1874l3.4062,-0.8048l-1.3704,-5.8003l-2.1994,0.5196l0.2851,1.2068l-1.2068,0.2851l0.2851,1.2068l-1.1873,0.2805l0.5196,2.1995zM223.9943,182.0795l-1.3704,-5.8003l-8.428,1.9911l-0.3357,-1.4208l8.428,-1.9912l-0.8001,-3.3868l-5.995,1.4164l-0.3357,-1.4209l5.995,-1.4164l-0.5197,-2.1994l-5.9949,1.4163l-0.3311,-1.4014l7.2017,-1.7014l-0.2851,-1.2068l5.0218,-1.1864l0.3311,1.4014l-4.8077,1.1358l0.8048,3.4063l6.0144,-1.421l0.3357,1.4209l-6.0145,1.4209l0.8002,3.3868l8.4085,-1.9866l0.3357,1.4209l-8.4085,1.9866l1.4255,6.0339l-1.2068,0.2851l0.2851,1.2068l-3.8149,0.9013l-0.3403,-1.4404zM234.1797,175.8713l3.6203,-0.8553l-0.2345,-0.9927l-2.3941,0.5656l-1.7566,-7.4353l2.3941,-0.5656l-0.2345,-0.9927l-3.6204,0.8553l-0.3357,-1.4209l3.6204,-0.8553l-0.5656,-2.3941l1.4208,-0.3357l0.5657,2.3941l3.3867,-0.8001l-0.2805,-1.1873l8.6226,-2.0372l0.6162,2.6082l-1.1873,0.2805l0.2851,1.2068l-1.2067,0.2851l0.5196,2.1995l1.2068,-0.2851l0.2805,1.1873l2.3941,-0.5656l0.3357,1.4208l-2.6082,0.6162l-0.2851,-1.2067l-1.2068,0.2851l-0.2851,-1.2068l-2.1995,0.5196l0.2851,1.2068l-1.1873,0.2805l0.2851,1.2068l-2.6276,0.6208l-0.3357,-1.4209l2.4135,-0.5702l-0.2805,-1.1873l1.2068,-0.2851l-0.2345,-0.9927l-1.2068,0.2851l-0.5702,-2.4136l-1.2068,0.2852l-0.2851,-1.2068l-0.9927,0.2345l0.2851,1.2068l-3.6009,0.8507l0.2346,0.9927l2.3941,-0.5656l1.7566,7.4353l-2.3941,0.5656l0.2345,0.9927l3.3868,-0.8002l-0.2851,-1.2068l3.6203,-0.8553l-0.5702,-2.4135l1.4014,-0.3311l0.5702,2.4135l3.6009,-0.8507l0.3311,1.4014l-3.6009,0.8507l0.5197,2.1995l4.8076,-1.1358l0.3403,1.4403l-11.0167,2.6028l-0.3403,-1.4404l4.8076,-1.1358l-0.5196,-2.1995l-3.4062,0.8048l0.2851,1.2068l-3.6009,0.8507l0.8599,3.6398l-1.4208,0.3357l-0.86,-3.6398l-3.6203,0.8553zM245.7093,165.5231l-0.2851,-1.2068l1.2068,-0.2851l-0.2851,-1.2068l1.2067,-0.2851l-0.2345,-0.9927l-4.5935,1.0853l0.2345,0.9927l1.1873,-0.2805l0.5702,2.4135zM236.3791,169.0015l-0.2345,-0.9926l-0.9927,0.2345l0.2345,0.9926zM238.7927,168.4313l-0.2346,-0.9927l-0.9926,0.2346l0.2345,0.9926zM239.6434,172.0322l-0.5196,-2.1995l-0.9927,0.2346l0.5196,2.1994zM237.2298,172.6024l-0.5196,-2.1995l-0.9927,0.2346l0.5197,2.1994zM262.4739,165.5903l-1.2068,0.2851l-0.3357,-1.4209l2.4136,-0.5702l-0.2805,-1.1873l2.3941,-0.5656l-0.2851,-1.2068l1.2067,-0.2851l-0.2345,-0.9927l-4.5935,1.0852l0.2851,1.2068l-1.2068,0.2851l0.2805,1.1873l-1.4014,0.3311l-0.3311,-1.4014l1.1873,-0.2805l-0.5702,-2.4136l1.2068,-0.2851l-0.8508,-3.6008l1.4209,-0.3357l0.8508,3.6008l7.2017,-1.7014l0.3357,1.4209l-2.3941,0.5656l0.2851,1.2068l-1.2068,0.2851l0.2805,1.1873l-1.2067,0.2851l0.5196,2.1995l1.2068,-0.2851l0.2851,1.2067l0.9926,-0.2345l-0.2851,-1.2068l1.1874,-0.2805l-0.2852,-1.2068l1.4209,-0.3357l0.3357,1.4209l-1.2068,0.2851l0.2852,1.2068l-1.1874,0.2805l0.8048,3.4063l1.1873,-0.2806l0.5656,2.3941l1.2068,-0.2851l0.3403,1.4404l-1.4209,0.3357l-0.2851,-1.2068l-1.1873,0.2805l-0.5748,-2.433l-1.2068,0.2851l-0.5656,-2.3941l-1.2068,0.2851l-0.5702,-2.4136l-1.1873,0.2806l-0.2852,-1.2068l-0.9926,0.2345l2.2808,9.6542l-1.4208,0.3357zM254.2095,173.6669l1.2262,-0.2897l-0.8507,-3.6009l1.2068,-0.2851l-1.6555,-7.0071l-2.433,0.5748l-0.3357,-1.4209l3.6203,-0.8553l-0.8507,-3.6009l1.4209,-0.3357l0.8507,3.6009l2.3941,-0.5656l0.3357,1.4209l-3.6009,0.8507l0.8002,3.3867l3.6009,-0.8507l2.0463,8.6616l-1.1873,0.2805l0.2851,1.2068l-2.6277,0.6208l-0.3403,-1.4404l2.4136,-0.5702l-1.6555,-7.0071l-2.1994,0.5196l0.5702,2.4136l-1.2068,0.2851l0.8507,3.6009l-1.1873,0.2805l0.5748,2.433l-1.4403,0.3403zM279.302,152.5312l1.421,-0.3357l2.888,12.2235l-1.421,0.3357zM281.222,166.0519l2.628,-0.6208l0.621,2.6277l-2.628,0.6208z" fill="#ffffff" stroke="none"/></g></g></svg>