<svg version="1.1" xmlns="http://www.w3.org/2000/svg" xmlns:xlink="http://www.w3.org/1999/xlink" width="112.56" height="22.536" viewBox="0,0,112.56,22.536"><g transform="translate(-183.72,-168.732)"><g data-paper-data="{&quot;isPaintingLayer&quot;:true}" fill="#ffffff" fill-rule="nonzero" stroke="none" stroke-width="1" stroke-linecap="butt" stroke-linejoin="miter" stroke-miterlimit="10" stroke-dasharray="" stroke-dashoffset="0" style="mix-blend-mode: normal"><path d="M188.16,189.492v-1.488h2.976v-1.464h2.952v-1.488h1.488v-1.488h1.488v-2.976h1.464v-2.952h1.488v-2.712h-10.104v2.952h-1.488v1.488h-1.488v1.488h-1.488v1.488h-1.728v-1.752h1.488v-1.488h1.464v-1.464h1.488v-2.976h1.488v-2.976h1.488v-2.952h1.728v3.216h-1.488v1.224h10.392v4.704h-1.488v2.976h-1.488v2.976h-1.488v1.464h-1.464v1.488h-1.488v1.488h-2.976v1.512h-2.952v1.488h-4.704v-1.776zM207.72,170.22h1.728v17.784h2.712v-1.464h2.952v-1.488h2.976v-1.488h1.488v-1.488h1.464v-1.488h1.488v-1.488h1.488v-1.464h1.728v1.728h-1.464v1.488h-1.488v1.488h-1.488v1.488h-1.488v1.464h-1.464v1.488h-2.976v1.488h-2.952v1.512h-4.704zM246.528,171.948h-1.488v-1.488h-1.464v-1.728h1.728v1.488h1.224v-1.488h1.752v1.488h1.464v1.464h1.488v1.752h-1.752v-1.488h-1.2v1.488h-1.752zM236.16,171.948h-2.976v-1.728h3.24v1.464h2.952v1.488h1.488v1.752h-1.752v-1.488h-2.952zM248.016,171.684v-1.224h-1.224v1.224zM231.72,188.004h4.44v-1.464h4.44v-1.488h2.976v-1.488h1.464v-1.488h1.488v-2.976h1.488v-4.44h1.728v4.704h-1.464v2.976h-1.488v1.488h-1.488v1.464h-1.488v1.488h-2.952v1.488h-4.44v1.512h-4.704zM233.184,176.412h-2.952v-1.752h3.216v1.488h2.976v1.488h1.464v1.728h-1.728v-1.488h-2.976zM263.88,176.412h-1.488v-1.488h-1.488v-1.752h1.752v1.488h1.464v1.488h1.488v3.216h-1.728zM259.416,188.004h4.464v-1.464h2.952v-1.488h1.488v-1.488h1.488v-2.976h1.464v-5.928h1.752v6.192h-1.488v2.976h-1.488v1.464h-1.464v1.488h-1.488v1.488h-2.976v1.512h-4.704zM259.416,177.876h-1.464v-1.464h-1.488v-1.752h1.728v1.488h1.488v1.488h1.488v3.216h-1.752zM281.184,168.732h1.752v7.416h2.952v1.488h4.464v1.464h2.952v1.488h2.976v1.752h-3.24v-1.488h-2.952v-1.488h-4.44v-1.488h-2.712v13.392h-1.752z"/></g></g></svg>