<svg xmlns="http://www.w3.org/2000/svg" fill="none" viewBox="0 0 47 30" height="30" width="47">
<path fill="white" d="M1.128 4.64H0.372V3.764H1.128V2.276H1.872V0.8H2.736V1.544H4.956V3.152H4.224V3.764H4.956V9.08H1.128V4.64ZM5.568 4.508H7.8V3.896H5.568V3.02H7.8V2.408H5.568V1.544H7.8V0.8H8.664V1.544H10.884V2.408H8.664V3.02H10.884V3.896H8.664V4.508H11.628V5.372H5.568V4.508ZM3.348 3.764V3.02H4.092V2.408H1.992V3.764H3.348ZM4.092 5.984V4.64H3.48V5.984H4.092ZM2.604 5.984V4.64H1.992V5.984H2.604ZM0.372 10.436H1.128V9.704H1.992V10.436H2.604V9.704H3.48V10.436H4.092V9.704H4.956V10.436H5.568V5.984H10.884V11.324H10.152V12.068H7.8V11.18H10.02V9.08H6.444V12.068H4.836V10.568H4.224V12.068H3.348V10.568H2.736V12.068H1.872V10.568H1.26V12.068H0.372V10.436ZM10.02 8.216V6.86H8.664V8.216H10.02ZM7.8 8.216V6.86H6.444V8.216H7.8ZM2.604 8.216V6.86H1.992V8.216H2.604ZM4.092 8.216V6.86H3.48V8.216H4.092ZM21.276 0.812H22.152V1.556H22.884V2.288H23.628V3.164H22.752V2.42H22.02V1.676H21.276V0.812ZM14.604 10.448H18.312V9.716H20.532V8.972H21.276V8.228H22.02V5.384H21.276V4.652H20.532V3.908H15.48V4.652H12.372V3.776H15.348V3.032H20.532V2.42H19.8V1.556H20.664V2.288H21.408V3.032H22.152V3.908H21.408V4.52H22.152V5.264H22.884V8.36H22.152V9.092H21.408V9.836H20.664V10.58H18.444V11.336H14.604V10.448ZM21.276 3.776V3.164H20.664V3.776H21.276ZM26.964 7.616H26.232V5.996H26.964V5.264H28.452V4.52H29.196V3.776H30.672V3.032H31.416V2.288H32.16V1.556H33.024V2.42H32.28V3.164H31.548V3.908H30.804V4.652H29.316V5.384H28.584V6.128H27.096V7.484H27.84V8.228H29.316V8.972H30.804V9.716H31.548V10.448H33.024V11.192H33.768V12.08H32.892V11.336H31.416V10.58H30.672V9.836H29.196V9.092H27.708V8.36H26.964V7.616ZM37.488 1.556H38.352V9.716H39.096V10.448H42.672V9.716H44.148V8.972H44.892V8.228H45.636V7.484H46.5V8.36H45.768V9.092H45.024V9.836H44.28V10.58H42.804V11.336H38.964V10.58H38.22V9.836H37.488V1.556ZM14.604 28.18V27.436H15.348V25.96H16.092V25.348H12.372V24.472H16.092V22.372H13.128V21.508H15.348V20.764H16.092V19.276H16.836V17.8H17.7V19.408H16.956V20.896H16.224V21.508H18.312V20.764H20.532V20.152H19.8V19.276H20.664V20.02H21.408V20.764H22.152V21.508H22.884V22.372H22.02V21.64H20.664V24.472H23.628V25.348H20.664V29.068H19.8V25.348H16.956V26.08H16.224V27.568H15.48V28.324H14.736V29.068H13.128V28.18H14.604ZM19.8 24.472V21.64H18.444V22.372H16.956V24.472H19.8ZM25.116 27.436H34.008V25.348H25.86V24.472H34.008V23.116H25.116V22.252H29.556V17.8H30.432V22.252H34.872V29.068H34.008V28.324H25.116V27.436ZM27.336 20.152H26.592V19.408H25.86V18.544H26.724V19.276H27.468V20.02H28.212V21.64H27.336V20.152ZM31.788 20.764H32.52V20.02H33.264V18.544H34.14V20.152H33.396V20.896H32.652V21.64H31.788V20.764Z"></path>
</svg>
