<svg xmlns="http://www.w3.org/2000/svg" fill="none" viewBox="0 0 778 159" height="159" width="778">
<path fill="black" d="M0.968 14.656H4.904V12.704H8.872V10.72H12.808V8.736H16.776V6.752H20.712V4.768H25.032V7.104H21.064V9.088H17.128V11.072H13.16V13.024H9.224V15.008H5.256V18.624H9.224V20.608H13.16V22.592H17.128V24.576H21.064V26.528H25.032V28.896H20.712V26.88H16.776V24.896H12.808V22.912H8.872V20.96H4.904V18.976H0.968V14.656ZM47.784 16.64H49.768V14.656H51.72V12.704H53.704V8.736H55.688V5.12H31.976V2.816H57.992V9.088H56.04V13.024H54.056V15.008H52.072V16.992H50.088V18.976H47.784V16.64ZM31.976 26.528H35.912V24.576H37.896V22.592H39.88V18.624H41.864V8.736H44.168V18.976H42.184V22.912H40.232V24.896H38.248V26.88H36.264V28.896H31.976V26.528ZM65.96 0.831999H68.296V10.72H72.232V12.704H78.184V14.656H82.12V16.64H86.088V18.976H81.768V16.992H77.832V15.008H71.912V13.024H68.296V30.88H65.96V0.831999ZM83.752 3.136H81.768V0.831999H84.104V2.816H86.088V4.768H88.04V7.104H85.736V5.12H83.752V3.136ZM81.768 7.104H79.816V5.12H77.832V2.816H80.136V4.768H82.12V6.752H84.104V9.088H81.768V7.104ZM115.752 2.816H117.736V0.831999H120.072V2.816H122.024V4.768H124.008V7.104H122.024V9.088H119.72V7.104H117.736V5.12H115.752V2.816ZM119.72 4.768V3.136H118.088V4.768H119.72ZM93.992 26.528H96.008V22.592H97.992V18.624H99.944V12.704H101.928V4.768H104.264V13.024H102.28V18.976H100.296V22.912H98.312V26.88H96.36V28.896H93.992V26.528ZM117.736 16.992H115.752V13.024H113.8V9.088H111.816V4.768H114.12V8.736H116.104V12.704H118.088V16.64H120.072V22.592H122.024V26.88H119.72V22.912H117.736V16.992ZM121.672 6.752V5.12H120.072V6.752H121.672ZM127.944 18.624H131.944V16.64H135.88V14.656H139.848V12.704H141.8V10.72H143.784V8.736H145.768V6.752H147.752V4.768H149.704V2.816H151.688V0.831999H154.024V3.136H152.04V5.12H150.056V7.104H148.072V9.088H146.12V30.88H143.784V13.024H142.152V15.008H140.168V16.992H136.232V18.976H132.264V20.96H127.944V18.624ZM158.984 26.528H162.984V24.576H166.92V22.592H170.888V20.608H172.84V18.624H174.824V14.656H176.808V10.72H178.792V7.104H161V4.768H181.096V11.072H179.112V15.008H177.16V18.624H179.112V20.608H181.096V22.592H183.08V24.576H185.064V26.528H187.016V28.896H184.712V26.88H182.728V24.896H180.744V22.912H178.792V20.96H176.808V18.976H175.176V20.96H173.192V22.912H171.208V24.896H167.272V26.88H163.304V28.896H158.984V26.528ZM192.968 26.528H196.904V24.576H200.872V22.592H204.808V20.608H208.776V18.624H212.712V15.008H208.776V13.024H204.808V11.072H200.872V9.088H196.904V7.104H192.968V4.768H197.256V6.752H201.224V8.736H205.16V10.72H209.128V12.704H213.064V14.656H217.032V18.976H213.064V20.96H209.128V22.912H205.16V24.896H201.224V26.88H197.256V28.896H192.968V26.528ZM29.992 50.592H37.928V43.04H32.008V40.704H37.928V32.8H40.264V40.704H49.8V32.8H52.104V40.704H58.024V43.04H52.104V50.592H60.008V52.928H29.992V50.592ZM49.8 50.592V43.04H40.264V50.592H49.8ZM32.008 60.48V58.496H35.944V56.544H37.928V54.56H40.264V56.864H38.28V58.848H36.296V60.864H32.36V62.848H29.992V60.48H32.008ZM49.8 54.56H52.104V56.544H54.088V58.496H58.024V60.48H60.008V62.848H57.672V60.864H53.736V58.848H51.752V56.864H49.8V54.56ZM61.992 50.592H64.008V46.624H65.992V36.736H77.832V32.8H80.168V36.736H87.72V35.104H85.736V32.8H88.072V34.784H90.024V36.736H92.008V39.072H80.168V42.688H82.12V46.624H83.752V44.672H85.736V40.704H88.072V44.992H86.088V46.976H84.104V48.608H86.088V50.592H89.672V46.624H92.008V50.944H90.024V52.928H85.736V50.944H83.752V48.96H82.12V50.944H80.168V52.928H78.184V54.56H80.168V56.864H77.832V54.88H75.848V52.576H77.832V50.944H69.928V44.672H78.184V50.592H79.816V48.608H81.8V46.976H79.816V43.04H68.296V46.976H66.312V50.944H64.36V52.928H61.992V50.592ZM77.832 40.704V39.072H68.296V40.704H77.832ZM75.848 48.608V46.976H72.264V48.608H75.848ZM71.912 54.56H74.216V60.48H83.752V56.544H86.088V60.864H84.104V62.848H73.896V60.864H71.912V54.56ZM87.72 54.56H90.024V58.496H92.008V62.848H89.672V58.848H87.72V54.56ZM64.008 58.496H65.992V54.56H68.296V58.848H66.312V62.848H64.008V58.496ZM98.984 60.48V58.496H100.936V56.544H102.92V54.56H104.904V50.592H106.888V46.624H108.84V43.04H97V40.704H108.84V32.8H111.176V40.704H123.016V56.864H121.064V60.864H119.08V62.848H110.824V60.48H118.728V56.544H120.712V43.04H111.176V46.976H109.192V50.944H107.208V54.88H105.256V56.864H103.272V58.848H101.288V60.864H99.304V62.848H94.984V60.48H98.984ZM127.976 52.608H129.96V48.64H131.912V46.656H133.896V42.72H135.88V41.088H127.976V38.752H137.864V32.832H140.168V38.752H150.056V41.088H138.184V42.72H142.152V44.704H144.136V48.64H145.768V46.656H149.704V44.704H153.992V47.008H150.056V48.992H146.088V50.976H144.136V58.88H141.8V52.96H138.184V54.912H136.232V60.512H152.04V62.88H135.88V60.896H133.896V54.592H135.88V52.608H137.864V50.624H141.8V45.024H136.232V47.008H134.248V48.992H132.264V52.96H130.28V54.912H127.976V52.608ZM169.896 50.592H175.816V44.992H167.912V42.688H175.816V37.088H169.896V34.784H179.752V32.8H186.024V35.104H180.104V37.088H178.12V42.688H188.008V44.992H178.12V50.592H186.024V62.848H183.72V60.864H172.2V62.848H169.896V50.592ZM163.944 37.088H161.992V35.104H160.008V32.8H162.312V34.784H164.296V36.736H166.28V39.072H163.944V37.088ZM163.944 44.992H161.992V43.04H160.008V40.704H162.312V42.688H164.296V44.672H166.28V46.976H163.944V44.992ZM157.992 58.496H160.008V56.544H161.992V52.576H163.944V48.608H166.28V52.928H164.296V56.864H162.312V58.848H160.36V60.864H157.992V58.496ZM183.72 58.496V52.928H172.2V58.496H183.72ZM190.984 56.576H192.968V52.608H194.92V46.656H196.904V43.072H190.984V40.736H198.888V32.832H201.192V40.736H207.144V42.72H209.096V54.912H207.144V58.88H205.16V60.896H196.904V58.528H204.808V54.592H206.792V43.072H199.24V47.008H197.256V52.96H195.272V56.896H193.288V60.896H190.984V56.576ZM214.696 45.024H212.712V41.088H210.728V39.104H208.776V36.768H211.08V38.752H213.064V40.736H215.048V44.704H217V48.64H218.984V50.976H216.648V48.992H214.696V45.024ZM224.968 34.816H227.272V56.576H229.256V58.528H238.792V56.576H242.728V54.592H244.712V52.608H246.696V50.624H249V52.96H247.048V54.912H245.064V56.896H243.08V58.88H239.144V60.896H228.904V58.88H226.92V56.896H224.968V34.816ZM262.92 46.656H264.904V44.704H266.888V42.72H268.84V40.736H270.824V39.104H254.984V36.768H283.016V39.104H275.112V41.088H271.176V43.072H269.192V45.024H267.208V47.008H265.256V54.592H267.208V56.576H269.192V58.528H279.08V60.896H268.84V58.88H264.904V54.912H262.92V46.656ZM288.008 60.48V58.496H289.992V56.544H291.944V54.56H293.928V52.576H295.912V50.592H297.896V46.624H299.848V32.8H302.184V46.624H304.168V50.592H306.12V54.56H308.104V56.544H310.088V58.496H312.072V60.48H316.008V62.848H311.72V60.864H309.736V58.848H307.752V56.864H305.8V54.88H303.816V50.944H301.832V46.976H300.2V50.944H298.216V52.928H296.264V54.88H294.28V56.864H292.296V58.848H290.312V60.864H288.36V62.848H285.992V60.48H288.008ZM343.688 60.48V44.992H333.8V32.8H345.992V60.864H344.04V62.848H337.768V60.48H343.688ZM319.976 32.8H332.168V44.992H322.28V62.848H319.976V32.8ZM329.864 36.736V35.104H322.28V36.736H329.864ZM343.688 36.736V35.104H336.136V36.736H343.688ZM329.864 42.688V39.072H322.28V42.688H329.864ZM343.688 42.688V39.072H336.136V42.688H343.688ZM325.896 46.624H338.088V58.848H325.896V46.624ZM335.784 50.592V48.96H328.232V50.592H335.784ZM335.784 56.544V52.928H328.232V56.544H335.784ZM355.912 58.496H359.88V56.544H361.864V54.88H355.912V52.576H363.816V50.944H357.896V48.608H361.864V46.976H359.88V44.672H362.184V46.624H364.168V48.608H365.8V46.624H367.784V44.672H370.088V46.976H368.136V48.608H372.072V50.944H366.152V52.576H374.056V54.88H368.136V56.544H370.088V58.496H372.072V60.48H375.688V43.04H365.8V32.8H377.992V60.864H376.04V62.848H371.72V60.864H369.768V58.848H367.784V56.864H365.8V54.88H364.168V56.864H362.184V58.848H360.232V60.864H355.912V58.496ZM351.976 32.8H364.168V43.04H354.28V62.848H351.976V32.8ZM375.688 36.736V35.104H368.136V36.736H375.688ZM361.864 36.736V35.104H354.28V36.736H361.864ZM375.688 40.704V39.072H368.136V40.704H375.688ZM361.864 40.704V39.072H354.28V40.704H361.864ZM387.944 46.976H386.312V48.96H384.36V50.944H381.992V48.608H384.008V46.624H385.992V42.688H387.944V38.72H389.928V32.8H392.264V39.072H390.28V43.04H388.296V44.672H390.28V62.848H387.944V46.976ZM391.912 50.592H397.832V48.608H399.816V46.976H393.896V44.672H395.848V42.688H397.832V40.704H399.816V39.072H393.896V36.736H401.8V34.784H410.024V37.088H402.12V41.056H400.168V43.04H398.184V44.672H400.168V46.624H401.8V44.672H403.752V40.704H406.088V44.992H404.104V46.976H402.12V48.96H400.168V50.592H405.736V46.624H408.072V48.608H410.024V50.592H412.008V52.928H409.672V50.944H406.088V52.928H404.104V62.848H401.8V52.928H391.912V50.592ZM391.912 58.496H395.848V56.544H397.832V54.56H400.168V56.864H398.184V58.848H396.2V60.864H391.912V58.496ZM405.736 54.56H408.072V56.544H410.024V58.496H412.008V60.864H409.672V58.848H407.72V56.864H405.736V54.56ZM415.976 52.608H417.96V48.64H419.912V46.656H421.896V42.72H423.88V41.088H415.976V38.752H425.864V32.832H428.168V38.752H438.056V41.088H426.184V42.72H430.152V44.704H432.136V48.64H433.768V46.656H437.704V44.704H441.992V47.008H438.056V48.992H434.088V50.976H432.136V58.88H429.8V52.96H426.184V54.912H424.232V60.512H440.04V62.88H423.88V60.896H421.896V54.592H423.88V52.608H425.864V50.624H429.8V45.024H424.232V47.008H422.248V48.992H420.264V52.96H418.28V54.912H415.976V52.608ZM451.944 37.088H449.992V35.104H448.008V32.8H450.312V34.784H452.296V36.736H454.28V39.072H451.944V37.088ZM455.912 34.784H476.008V41.056H473.672V37.088H458.216V41.056H455.912V34.784ZM467.752 38.72H470.088V44.672H473.672V42.688H476.008V44.992H474.024V46.976H469.736V44.992H467.752V38.72ZM455.912 44.672H459.848V42.688H461.832V38.72H464.168V43.04H462.184V44.992H460.2V46.976H455.912V44.672ZM451.944 44.992H449.992V43.04H448.008V40.704H450.312V42.688H452.296V44.672H454.28V46.976H451.944V44.992ZM451.944 58.496H455.912V56.544H457.896V54.56H459.848V52.576H461.832V50.944H455.912V48.608H463.816V46.624H466.12V48.608H476.008V50.944H468.104V52.576H470.088V54.56H472.072V56.544H474.024V58.496H476.008V60.864H473.672V58.848H471.72V56.864H469.736V54.88H467.752V52.928H466.12V62.848H463.816V52.928H462.184V54.88H460.2V56.864H458.216V58.848H456.264V60.864H451.944V58.496ZM445.992 58.496H448.008V56.544H449.992V52.576H451.944V48.608H454.28V52.928H452.296V56.864H450.312V58.848H448.36V60.864H445.992V58.496ZM478.984 48.64H481V46.656H482.984V34.816H485.288V42.72H488.904V40.736H496.808V34.816H499.112V42.72H503.08V44.704H505.064V46.656H507.016V54.912H505.064V56.896H503.08V58.88H501.096V60.896H499.112V62.88H494.824V60.512H498.792V58.528H500.744V56.576H502.728V54.592H504.712V47.008H502.728V45.024H498.792V43.072H497.16V45.024H495.176V48.992H493.192V52.96H491.208V54.912H489.256V56.576H491.208V58.88H488.904V56.896H487.272V58.88H485.288V60.896H481V58.88H478.984V48.64ZM490.888 52.608V48.64H492.84V44.704H494.824V43.072H489.256V45.024H487.272V52.608H490.888ZM484.936 58.528V56.576H486.92V52.96H484.936V47.008H483.304V48.992H481.352V58.528H484.936ZM514.952 54.592H516.904V52.608H523.176V54.592H525.16V58.528H530.76V56.576H532.712V54.592H534.696V50.976H532.712V48.992H519.24V50.976H515.272V52.96H512.968V50.624H514.952V48.64H518.888V46.656H520.872V44.704H522.856V42.72H526.792V40.736H528.776V39.104H514.952V36.768H533.064V39.104H531.08V41.088H529.128V43.072H527.144V45.024H523.176V46.656H533.064V48.64H535.048V50.624H537.032V54.912H535.048V58.88H531.08V60.896H516.904V58.88H514.952V54.592ZM522.856 58.528V54.912H517.256V58.528H522.856ZM544.968 50.624H546.952V48.64H548.904V46.656H552.872V32.832H555.176V44.704H558.792V42.72H569.032V45.024H559.144V47.008H553.224V48.992H549.256V50.976H547.272V56.576H551.24V58.528H569.032V60.896H550.888V58.88H546.952V56.896H544.968V50.624ZM577.992 60.48V36.736H585.896V32.8H588.2V36.736H598.088V50.944H588.2V52.576H590.184V54.56H592.168V56.544H595.752V54.56H597.736V52.576H599.72V50.592H602.024V52.928H600.072V54.88H598.088V56.864H596.104V58.496H600.072V60.48H604.008V62.848H599.72V60.864H595.752V58.848H591.816V56.864H589.832V54.88H587.848V52.928H585.896V50.944H580.296V60.48H581.928V58.496H588.2V60.864H582.28V62.848H573.992V60.48H577.992ZM595.752 42.688V39.072H580.296V42.688H595.752ZM595.752 48.608V44.992H580.296V48.608H595.752ZM609.96 54.912H607.976V36.768H610.28V54.592H612.264V58.528H617.864V56.576H619.816V52.608H622.152V56.896H620.168V58.88H618.184V60.896H611.912V58.88H609.96V54.912ZM629.704 45.024H627.72V41.088H625.768V36.768H628.072V40.736H630.056V44.704H632.04V50.624H633.992V56.896H631.688V50.976H629.704V45.024ZM645.928 46.656H647.912V44.704H649.896V42.72H651.848V40.736H653.832V39.104H637.992V36.768H666.024V39.104H658.12V41.088H654.184V43.072H652.2V45.024H650.216V47.008H648.264V54.592H650.216V56.576H652.2V58.528H662.088V60.896H651.848V58.88H647.912V54.912H645.928V46.656ZM661.736 40.736H664.072V42.72H666.024V44.704H668.008V47.008H665.672V45.024H663.72V43.072H661.736V40.736ZM657.8 42.72H660.104V44.704H662.088V46.656H664.072V48.992H661.736V47.008H659.752V45.024H657.8V42.72ZM672.968 34.816H675.272V56.576H677.256V58.528H686.792V56.576H690.728V54.592H692.712V52.608H694.696V50.624H697V52.96H695.048V54.912H693.064V56.896H691.08V58.88H687.144V60.896H676.904V58.88H674.92V56.896H672.968V34.816ZM705.96 54.592H707.912V52.608H715.816V38.752H718.152V44.704H726.056V47.008H718.152V54.592H722.088V56.576H726.056V58.528H728.04V60.896H725.704V58.88H721.768V56.896H718.152V58.88H716.168V60.896H707.912V58.88H705.96V54.592ZM715.816 58.528V54.912H708.264V58.528H715.816ZM740.904 34.816H753.128V36.768H759.048V39.104H752.776V37.12H740.904V34.816ZM738.952 58.528H750.792V56.576H754.76V54.592H756.712V52.608H758.696V47.008H756.712V45.024H743.24V47.008H736.968V44.704H742.888V42.72H757.064V44.704H759.048V46.656H761.032V52.96H759.048V54.912H757.064V56.896H755.08V58.88H751.144V60.896H738.952V58.528ZM767.016 54.592H769V52.608H775.272V54.592H777.224V60.896H775.272V62.88H769V60.896H767.016V54.592ZM774.92 60.512V54.912H769.32V60.512H774.92ZM31.976 88.576H33.96V82.624H35.912V74.72H37.896V73.088H31.976V70.752H37.896V64.832H40.232V70.752H50.088V73.088H40.232V75.072H38.248V82.976H36.264V88.896H34.28V92.896H31.976V88.576ZM43.816 76.704H57.992V79.008H43.816V76.704ZM41.864 86.592H43.816V84.608H46.152V86.912H44.168V90.528H57.992V92.896H43.816V90.88H41.864V86.592ZM62.984 88.576H64.968V82.624H66.92V74.72H68.904V73.088H62.984V70.752H68.904V64.832H71.24V70.752H79.144V73.088H71.24V75.072H69.256V82.976H67.272V88.896H65.288V92.896H62.984V88.576ZM86.696 67.136H84.712V64.832H87.048V66.816H89V68.768H90.984V71.104H88.648V69.12H86.696V67.136ZM82.728 69.12H80.776V66.816H83.08V68.768H85.064V70.752H87.048V73.088H84.712V71.104H82.728V69.12ZM74.824 76.704H89V79.008H74.824V76.704ZM72.872 86.592H74.824V84.608H77.16V86.912H75.176V90.528H89V92.896H74.824V90.88H72.872V86.592ZM96.968 66.816H99.272V88.576H101.256V90.528H110.792V88.576H114.728V86.592H116.712V84.608H118.696V82.624H121V84.96H119.048V86.912H117.064V88.896H115.08V90.88H111.144V92.896H100.904V90.88H98.92V88.896H96.968V66.816ZM127.016 86.592H129.32V88.576H131.304V90.528H133.288V94.88H130.952V92.896H129V90.88H127.016V86.592ZM172.808 92.512V90.528H176.776V88.576H178.76V84.608H180.712V66.816H183.048V84.96H181.064V88.896H179.08V90.88H177.128V92.896H173.16V94.88H164.904V92.512H172.808ZM162.952 66.816H165.256V84.96H162.952V66.816ZM190.984 90.528H194.984V88.576H198.92V86.592H202.888V84.608H204.84V82.624H206.824V78.656H208.808V74.72H210.792V71.104H193V68.768H213.096V75.072H211.112V79.008H209.16V82.624H211.112V84.608H213.096V86.592H215.08V88.576H217.064V90.528H219.016V92.896H216.712V90.88H214.728V88.896H212.744V86.912H210.792V84.96H208.808V82.976H207.176V84.96H205.192V86.912H203.208V88.896H199.272V90.88H195.304V92.896H190.984V90.528ZM230.888 92.512V90.528H234.856V88.576H238.792V86.592H240.776V84.608H242.76V80.64H244.712V76.704H246.696V73.088H233.224V77.024H231.24V79.008H229.256V80.992H227.272V82.976H224.968V80.64H226.952V78.656H228.904V76.704H230.888V72.736H232.872V68.768H234.856V64.832H237.16V69.12H235.176V70.752H249.032V77.024H247.048V80.992H245.064V84.96H243.08V86.912H241.128V88.896H239.144V90.88H235.176V92.896H231.24V94.88H224.968V92.512H230.888ZM255.976 84.608H257.96V80.64H259.912V78.656H261.896V74.72H263.88V73.088H255.976V70.752H265.864V64.832H268.168V70.752H278.056V73.088H266.184V74.72H270.152V76.704H272.136V80.64H273.768V78.656H277.704V76.704H281.992V79.008H278.056V80.992H274.088V82.976H272.136V90.88H269.8V84.96H266.184V86.912H264.232V92.512H280.04V94.88H263.88V92.896H261.896V86.592H263.88V84.608H265.864V82.624H269.8V77.024H264.232V79.008H262.248V80.992H260.264V84.96H258.28V86.912H255.976V84.608ZM285.992 86.56H289.992V69.088H285.992V66.784H302.184V68.736H314.024V76.992H312.072V82.944H310.088V88.544H312.072V92.48H316.008V94.848H311.72V92.864H309.736V88.864H307.752V86.88H306.12V90.848H304.168V92.864H302.184V94.848H297.896V86.88H294.28V88.864H285.992V86.56ZM301.832 92.48V90.496H303.816V86.56H305.8V82.944H303.816V76.992H301.832V72.704H304.168V76.672H306.12V82.592H309.736V76.672H311.72V71.072H301.832V69.088H300.2V92.48H301.832ZM297.896 72.704V69.088H292.296V72.704H297.896ZM297.896 78.624V75.04H292.296V78.624H297.896ZM293.928 86.56V84.576H297.896V80.96H292.296V86.56H293.928ZM322.952 86.592H324.904V84.608H331.176V86.592H333.16V90.528H338.76V88.576H340.712V86.592H342.696V82.976H340.712V80.992H327.24V82.976H323.272V84.96H320.968V82.624H322.952V80.64H326.888V78.656H328.872V76.704H330.856V74.72H334.792V72.736H336.776V71.104H322.952V68.768H341.064V71.104H339.08V73.088H337.128V75.072H335.144V77.024H331.176V78.656H341.064V80.64H343.048V82.624H345.032V86.912H343.048V90.88H339.08V92.896H324.904V90.88H322.952V86.592ZM330.856 90.528V86.912H325.256V90.528H330.856ZM350.984 66.784H359.24V70.72H360.872V68.736H362.824V64.8H365.16V66.784H369.096V70.72H371.08V72.704H372.712V70.72H374.696V69.088H370.728V66.784H377V71.072H375.048V73.056H373.064V74.688H375.048V76.672H378.984V78.976H375.048V80.96H362.824V78.976H359.24V84.928H357.256V86.88H353.288V94.848H350.984V66.784ZM354.92 74.688V72.704H356.904V69.088H353.288V74.688H354.92ZM366.792 70.72V69.088H365.16V70.72H366.792ZM374.696 78.624V76.992H372.712V75.04H370.728V73.056H368.776V71.072H367.144V75.04H365.16V76.992H363.176V78.624H374.696ZM364.808 72.704V71.072H361.192V72.704H364.808ZM358.888 78.624V76.672H362.824V75.04H360.872V73.056H357.256V75.04H355.272V76.672H357.256V78.624H358.888ZM356.904 84.576V78.976H354.92V76.992H353.288V84.576H356.904ZM366.792 92.48V84.928H360.872V82.592H378.984V84.928H369.096V92.864H367.144V94.848H362.824V92.48H366.792ZM370.728 86.56H373.064V88.544H375.048V90.496H378.984V92.864H374.696V90.848H372.712V88.864H370.728V86.56ZM358.888 90.496H360.872V88.544H362.824V86.56H365.16V88.864H363.176V90.848H361.192V92.864H358.888V90.496ZM384.968 72.736H386.952V66.816H389.256V73.088H387.272V92.896H384.968V72.736ZM392.872 70.752H409.032V73.088H392.872V70.752ZM392.872 84.608H395.176V88.576H397.16V90.528H409.032V92.896H396.808V90.88H394.856V88.896H392.872V84.608ZM421.896 86.592H423.88V84.608H433.768V75.072H421.896V72.736H433.768V66.816H436.072V72.736H441.992V75.072H436.072V86.592H438.056V88.576H440.04V90.528H441.992V92.896H439.688V90.88H437.704V88.896H436.072V90.88H434.088V92.896H423.88V90.88H421.896V86.592ZM415.976 70.752H417.96V66.816H420.264V71.104H418.28V92.896H415.976V70.752ZM433.768 90.528V86.912H424.232V90.528H433.768ZM459.848 76.672H465.8V64.8H468.104V76.672H476.008V78.976H468.104V94.848H465.8V78.976H459.848V76.672ZM448.008 66.784H458.216V69.088H448.008V66.784ZM445.992 72.704H460.2V75.04H445.992V72.704ZM448.008 76.672H458.216V78.976H448.008V76.672ZM448.008 80.608H458.216V82.944H448.008V80.608ZM448.008 84.576H458.216V92.864H450.312V94.848H448.008V84.576ZM455.912 90.496V86.88H450.312V90.496H455.912ZM483.944 70.72H491.848V67.104H477.992V64.8H508.008V67.104H494.184V70.72H502.088V86.88H483.944V70.72ZM477.992 72.704H480.36V90.496H505.672V72.704H508.008V94.848H505.672V92.864H480.36V94.848H477.992V72.704ZM491.848 76.672V73.056H486.28V76.672H491.848ZM499.752 76.672V73.056H494.184V76.672H499.752ZM491.848 84.576V78.976H486.28V84.576H491.848ZM499.752 84.576V78.976H494.184V84.576H499.752ZM510.984 70.72H512.968V68.736H514.92V64.8H517.256V69.088H515.272V70.72H521.192V90.848H513.288V94.848H510.984V70.72ZM534.696 92.48V90.496H536.648V71.072H527.144V73.056H525.16V76.992H522.824V72.704H524.808V64.8H527.144V68.736H538.984V90.848H537V92.864H535.048V94.848H528.776V92.48H534.696ZM518.888 78.624V73.056H513.288V78.624H518.888ZM528.776 80.96H526.792V76.672H529.096V80.608H531.08V84.928H528.776V80.96ZM518.888 88.544V80.96H513.288V88.544H518.888ZM544.968 72.736H546.952V66.816H549.256V73.088H547.272V92.896H544.968V72.736ZM552.872 70.752H569.032V73.088H552.872V70.752ZM552.872 84.608H555.176V88.576H557.16V90.528H569.032V92.896H556.808V90.88H554.856V88.896H552.872V84.608ZM573.992 72.704H577.992V70.72H579.944V66.784H581.928V64.8H584.264V67.104H582.28V71.072H580.296V73.056H578.312V75.04H573.992V72.704ZM587.848 66.784H602.024V69.088H587.848V66.784ZM579.944 80.96H578.312V82.944H573.992V80.608H577.992V78.624H579.944V76.672H581.928V74.688H583.912V72.704H586.216V74.688H604.008V76.992H598.088V92.864H596.104V94.848H589.832V92.48H595.752V76.992H585.896V75.04H584.264V76.992H582.28V94.848H579.944V80.96ZM613.928 92.48V88.864H608.008V86.56H613.928V84.928H608.008V74.688H613.928V73.056H605.992V70.72H613.928V69.088H608.008V66.784H617.896V64.8H622.184V67.104H618.216V69.088H616.264V70.72H622.184V72.704H625.8V64.8H628.104V72.704H636.008V92.864H634.024V94.848H627.752V92.48H633.672V75.04H628.104V86.88H626.12V92.864H624.168V94.848H621.832V92.864H616.264V94.848H605.992V92.48H613.928ZM621.832 74.688V73.056H616.264V74.688H621.832ZM622.184 90.496V92.48H623.816V86.56H625.8V75.04H622.184V84.928H616.264V86.56H622.184V88.864H616.264V90.496H622.184ZM613.928 78.624V76.992H610.312V78.624H613.928ZM619.848 78.624V76.992H616.264V78.624H619.848ZM619.848 82.592V80.96H616.264V82.592H619.848ZM613.928 82.592V80.96H610.312V82.592H613.928ZM640.968 66.816H643.272V88.576H645.256V90.528H654.792V88.576H658.728V86.592H660.712V84.608H662.696V82.624H665V84.96H663.048V86.912H661.064V88.896H659.08V90.88H655.144V92.896H644.904V90.88H642.92V88.896H640.968V66.816ZM671.016 86.592H673.32V88.576H675.304V90.528H677.288V94.88H674.952V92.896H673V90.88H671.016V86.592ZM44.808 124.512V122.528H48.776V120.576H50.76V116.608H52.712V98.816H55.048V116.96H53.064V120.896H51.08V122.88H49.128V124.896H45.16V126.88H36.904V124.512H44.808ZM34.952 98.816H37.256V116.96H34.952V98.816ZM62.984 122.528H66.984V120.576H70.92V118.592H74.888V116.608H76.84V114.624H78.824V110.656H80.808V106.72H82.792V103.104H65V100.768H85.096V107.072H83.112V111.008H81.16V114.624H83.112V116.608H85.096V118.592H87.08V120.576H89.064V122.528H91.016V124.896H88.712V122.88H86.728V120.896H84.744V118.912H82.792V116.96H80.808V114.976H79.176V116.96H77.192V118.912H75.208V120.896H71.272V122.88H67.304V124.896H62.984V122.528ZM102.888 124.512V122.528H106.856V120.576H110.792V118.592H112.776V116.608H114.76V112.64H116.712V108.704H118.696V105.088H105.224V109.024H103.24V111.008H101.256V112.992H99.272V114.976H96.968V112.64H98.952V110.656H100.904V108.704H102.888V104.736H104.872V100.768H106.856V96.832H109.16V101.12H107.176V102.752H121.032V109.024H119.048V112.992H117.064V116.96H115.08V118.912H113.128V120.896H111.144V122.88H107.176V124.896H103.24V126.88H96.968V124.512H102.888ZM125.992 102.72H128.008V100.736H129.992V96.8H132.296V98.784H142.184V100.736H143.816V96.8H146.12V98.784H156.008V101.088H150.088V102.72H152.072V104.704H156.008V110.976H153.672V107.04H128.36V110.976H125.992V102.72ZM149.736 104.704V103.072H147.752V101.088H144.168V103.072H142.184V104.704H149.736ZM135.912 104.704V103.072H133.928V101.088H130.312V103.072H128.36V104.704H135.912ZM139.848 104.704V102.72H141.832V101.088H136.264V102.72H138.216V104.704H139.848ZM131.944 108.672H150.088V114.944H134.28V116.576H152.072V126.848H149.736V124.864H134.28V126.848H131.944V108.672ZM147.752 112.608V110.976H134.28V112.608H147.752ZM149.736 122.496V118.88H134.28V122.496H149.736ZM175.816 124.48V120.864H169.896V118.56H175.816V114.944H169.896V98.784H186.024V114.944H178.12V118.56H186.024V120.864H178.12V124.48H188.008V126.848H167.912V124.48H175.816ZM157.992 122.496H161.992V112.96H157.992V110.624H161.992V103.072H157.992V100.736H168.264V103.072H164.296V110.624H168.264V112.96H164.296V120.544H168.264V122.848H162.312V124.864H157.992V122.496ZM183.72 104.704V101.088H178.12V104.704H183.72ZM175.816 104.704V101.088H172.2V104.704H175.816ZM183.72 112.608V107.04H178.12V112.608H183.72ZM175.816 112.608V107.04H172.2V112.608H175.816ZM191.976 116.608H193.96V112.64H195.912V110.656H197.896V106.72H199.88V105.088H191.976V102.752H201.864V96.832H204.168V102.752H214.056V105.088H202.184V106.72H206.152V108.704H208.136V112.64H209.768V110.656H213.704V108.704H217.992V111.008H214.056V112.992H210.088V114.976H208.136V122.88H205.8V116.96H202.184V118.912H200.232V124.512H216.04V126.88H199.88V124.896H197.896V118.592H199.88V116.608H201.864V114.624H205.8V109.024H200.232V111.008H198.248V112.992H196.264V116.96H194.28V118.912H191.976V116.608ZM221.992 104.704H231.912V103.072H229.928V101.088H225.992V98.784H235.848V96.8H238.184V98.784H248.072V101.088H244.104V103.072H242.12V104.704H252.008V107.04H221.992V104.704ZM239.816 104.704V102.72H241.8V101.088H232.264V102.72H234.216V104.704H239.816ZM229.928 118.88H227.944V108.672H246.088V118.88H238.184V120.544H240.168V122.848H237.832V120.864H235.848V118.88H232.264V124.48H243.752V120.544H246.088V124.864H244.104V126.848H231.912V124.864H229.928V118.88ZM243.752 112.608V110.976H230.28V112.608H243.752ZM243.752 116.576V114.944H230.28V116.576H243.752ZM221.992 122.496H224.008V118.56H226.312V122.848H224.36V124.864H221.992V122.496ZM247.72 118.56H250.024V120.544H252.008V124.864H249.672V120.864H247.72V118.56ZM265.896 112.608H274.12V122.496H275.752V120.544H277.736V118.88H275.752V110.976H263.912V108.672H267.848V107.04H265.896V103.072H263.912V100.736H267.848V96.8H270.184V100.736H275.752V96.8H278.088V108.672H284.008V110.976H278.088V118.56H279.72V114.592H281.672V112.608H284.008V114.944H282.024V118.88H280.072V124.48H281.672V120.544H284.008V126.848H279.72V124.864H277.736V122.848H276.104V124.864H274.12V126.848H269.832V124.48H273.8V122.848H268.2V124.864H265.896V112.608ZM281.672 103.072H279.72V98.784H282.024V102.72H284.008V107.04H281.672V103.072ZM256.008 98.784H262.28V101.088H256.008V98.784ZM271.816 106.688V103.072H268.2V106.688H271.816ZM275.752 108.672V103.072H274.12V107.04H272.168V108.672H275.752ZM253.992 104.704H264.264V107.04H253.992V104.704ZM256.008 108.672H262.28V110.976H256.008V108.672ZM256.008 112.608H262.28V114.944H256.008V112.608ZM271.816 116.576V114.944H268.2V116.576H271.816ZM256.008 116.576H262.28V124.864H258.312V126.848H256.008V116.576ZM259.944 122.496V118.88H258.312V122.496H259.944ZM271.816 120.544V118.88H268.2V120.544H271.816ZM298.888 124.512V122.528H300.84V120.576H302.824V116.96H301.192V118.912H294.92V116.96H292.936V110.656H294.92V108.704H301.192V110.656H302.824V105.088H286.984V102.752H302.824V96.832H305.16V102.752H315.016V105.088H305.16V120.896H303.176V122.88H301.192V124.896H299.208V126.88H294.92V124.512H298.888ZM300.84 116.608V114.624H302.824V112.992H300.84V111.008H295.272V116.608H300.84ZM322.952 118.592H324.904V116.608H331.176V118.592H333.16V122.528H338.76V120.576H340.712V118.592H342.696V114.976H340.712V112.992H327.24V114.976H323.272V116.96H320.968V114.624H322.952V112.64H326.888V110.656H328.872V108.704H330.856V106.72H334.792V104.736H336.776V103.104H322.952V100.768H341.064V103.104H339.08V105.088H337.128V107.072H335.144V109.024H331.176V110.656H341.064V112.64H343.048V114.624H345.032V118.912H343.048V122.88H339.08V124.896H324.904V122.88H322.952V118.592ZM330.856 122.528V118.912H325.256V122.528H330.856ZM352.968 114.624H354.952V112.64H356.904V110.656H360.872V96.832H363.176V108.704H366.792V106.72H377.032V109.024H367.144V111.008H361.224V112.992H357.256V114.976H355.272V120.576H359.24V122.528H377.032V124.896H358.888V122.88H354.952V120.896H352.968V114.624ZM384.008 100.736H395.848V96.8H398.184V100.736H410.024V107.04H407.72V103.072H386.312V107.04H384.008V100.736ZM389.928 124.48V122.496H393.896V120.544H395.848V118.88H391.912V116.928H390.28V118.88H385.992V116.576H389.928V114.592H391.912V112.96H381.992V110.624H393.896V104.704H396.2V110.624H412.008V112.96H406.088V114.944H404.104V116.928H402.12V118.88H400.168V120.544H404.104V122.496H408.072V124.48H410.024V126.848H407.72V124.864H403.752V122.848H399.816V120.864H398.184V122.848H394.216V124.864H390.28V126.848H381.992V124.48H389.928ZM396.2 116.576V118.56H399.816V116.576H401.8V114.592H403.752V112.96H394.216V114.944H392.264V116.576H396.2ZM427.848 101.088H425.896V98.784H428.2V100.736H432.168V102.72H434.12V105.056H431.816V103.072H427.848V101.088ZM421.928 104.704H424.264V122.496H435.752V116.576H438.088V122.848H436.104V124.864H423.912V122.848H421.928V104.704ZM413.992 116.576H416.008V110.624H418.312V116.928H416.36V120.864H413.992V116.576ZM439.72 110.624H442.024V114.592H444.008V118.88H441.672V114.944H439.72V110.624ZM453.928 110.656H455.912V108.704H457.896V106.72H459.848V104.736H461.832V103.104H445.992V100.768H474.024V103.104H466.12V105.088H462.184V107.072H460.2V109.024H458.216V111.008H456.264V118.592H458.216V120.576H460.2V122.528H470.088V124.896H459.848V122.88H455.912V118.912H453.928V110.656ZM469.736 104.736H472.072V106.72H474.024V108.704H476.008V111.008H473.672V109.024H471.72V107.072H469.736V104.736ZM465.8 106.72H468.104V108.704H470.088V110.656H472.072V112.992H469.736V111.008H467.752V109.024H465.8V106.72ZM490.888 124.512V122.528H492.84V120.576H494.824V116.96H493.192V118.912H486.92V116.96H484.936V110.656H486.92V108.704H493.192V110.656H494.824V105.088H478.984V102.752H494.824V96.832H497.16V102.752H507.016V105.088H497.16V120.896H495.176V122.88H493.192V124.896H491.208V126.88H486.92V124.512H490.888ZM492.84 116.608V114.624H494.824V112.992H492.84V111.008H487.272V116.608H492.84ZM511.016 118.592H513V116.608H519.272V118.592H521.224V124.896H519.272V126.88H513V124.896H511.016V118.592ZM518.92 124.512V118.912H513.32V124.512H518.92ZM545.96 100.736H553.864V98.784H555.816V96.8H558.152V99.104H556.168V100.736H568.04V126.848H565.704V124.864H548.264V126.848H545.96V100.736ZM565.704 108.672V103.072H548.264V108.672H565.704ZM565.704 114.592V110.976H548.264V114.592H565.704ZM565.704 122.496V116.928H548.264V122.496H565.704ZM575.976 108.672H595.72V101.088H575.976V98.784H598.056V110.976H578.28V124.48H599.688V116.576H601.992V124.864H600.04V126.848H577.96V124.864H575.976V108.672ZM609 120.896H606.984V110.656H609V106.72H610.984V104.736H612.936V102.752H616.904V100.768H627.112V102.752H631.08V104.736H633.064V108.704H635.016V118.912H633.064V122.88H631.08V124.896H627.112V126.88H620.84V124.512H626.792V122.528H630.728V118.592H632.712V109.024H630.728V105.088H626.792V103.104H623.176V109.024H621.192V114.976H619.208V118.912H617.256V122.88H615.272V124.896H610.984V122.88H609V120.896ZM611.304 120.576V122.528H614.92V118.592H616.904V114.624H618.888V108.704H620.84V103.104H617.256V105.088H613.288V107.072H611.304V111.008H609.352V120.576H611.304ZM650.824 124.48V98.784H663.048V112.96H657.096V116.576H659.08V118.56H660.712V116.576H662.696V114.592H664.648V112.608H666.984V114.944H665V116.928H663.048V118.88H661.064V122.496H663.048V124.48H666.984V126.848H662.696V124.864H660.712V122.848H658.728V118.88H656.776V116.928H654.792V112.96H653.16V122.496H657.096V124.864H651.176V126.848H646.888V124.48H650.824ZM638.984 98.784H649.192V103.072H647.24V107.04H645.256V108.672H647.24V110.624H649.192V116.928H647.24V118.88H641.288V126.848H638.984V98.784ZM646.888 116.576V110.976H644.904V108.992H642.92V106.688H644.904V102.72H646.888V101.088H641.288V116.576H646.888ZM660.712 104.704V101.088H653.16V104.704H660.712ZM660.712 110.624V107.04H653.16V110.624H660.712ZM677.928 124.48V120.544H679.912V114.944H678.28V116.928H674.312V118.88H669.992V116.576H673.992V114.592H677.928V112.608H679.912V110.976H673.992V96.8H696.072V110.976H690.12V112.608H692.104V114.592H696.072V116.576H700.008V118.88H695.72V116.928H691.752V114.944H690.12V126.848H687.816V114.592H689.8V112.96H687.816V110.976H682.216V112.96H680.264V114.592H682.216V120.864H680.264V124.864H678.28V126.848H673.992V124.48H677.928ZM693.736 102.72V99.104H686.184V102.72H693.736ZM683.848 102.72V99.104H676.296V102.72H683.848ZM693.736 108.672V105.056H686.184V108.672H693.736ZM683.848 108.672V105.056H676.296V108.672H683.848ZM703.976 116.608H705.96V112.64H707.912V110.656H709.896V106.72H711.88V105.088H703.976V102.752H713.864V96.832H716.168V102.752H726.056V105.088H714.184V106.72H718.152V108.704H720.136V112.64H721.768V110.656H725.704V108.704H729.992V111.008H726.056V112.992H722.088V114.976H720.136V122.88H717.8V116.96H714.184V118.912H712.232V124.512H728.04V126.88H711.88V124.896H709.896V118.592H711.88V116.608H713.864V114.624H717.8V109.024H712.232V111.008H710.248V112.992H708.264V116.96H706.28V118.912H703.976V116.608ZM33 156.48V152.544H34.984V148.576H36.936V144.96H30.984V142.624H36.936V137.056H33.352V140.992H30.984V136.704H33V128.8H35.304V134.72H45.192V137.056H39.272V142.624H45.192V144.96H39.272V146.592H41.256V148.576H43.208V152.544H45.192V156.864H42.888V152.864H40.904V148.928H37.288V152.864H35.304V156.864H33.352V158.848H30.984V156.48H33ZM46.824 132.736H59.016V156.864H56.712V154.848H49.16V156.864H46.824V132.736ZM56.712 152.544V135.072H49.16V152.544H56.712ZM75.816 156.512V154.528H81.768V152.576H83.72V148.608H85.704V137.088H83.72V133.12H76.168V135.104H74.184V137.088H72.232V141.024H70.248V144.992H68.264V148.96H65.96V134.752H67.912V130.816H70.248V135.104H68.264V140.704H69.896V136.736H71.88V134.752H73.864V132.768H75.816V130.816H84.072V132.768H86.056V136.736H88.04V148.96H86.056V152.896H84.072V154.88H82.088V156.896H76.168V158.88H67.912V156.512H75.816ZM95.016 150.592H97.32V152.576H99.304V154.528H101.288V158.88H98.952V156.896H97V154.88H95.016V150.592ZM129.992 156.48V154.496H131.944V144.96H125.992V142.624H134.28V154.496H137.896V138.688H139.848V128.8H152.072V138.688H156.008V152.864H154.024V154.848H147.752V152.544H153.672V140.992H140.2V154.848H138.216V156.48H156.008V158.848H137.896V156.864H133.928V154.848H132.296V156.864H130.312V158.848H125.992V156.48H129.992ZM131.944 133.088H129.992V131.104H128.008V128.8H130.312V130.784H132.296V132.736H134.28V135.072H131.944V133.088ZM143.816 138.688V132.736H149.736V131.104H142.184V138.688H143.816ZM149.736 138.688V135.072H146.12V138.688H149.736ZM141.832 142.624H152.072V150.88H141.832V142.624ZM149.736 148.576V144.96H144.168V148.576H149.736ZM157.992 154.496H160.008V148.576H161.992V132.736H173.832V128.8H176.168V132.736H186.024V135.072H180.104V138.688H186.024V140.992H180.104V144.96H169.896V140.992H164.296V148.928H162.312V154.848H160.36V158.848H157.992V154.496ZM169.896 138.688V135.072H164.296V138.688H169.896ZM177.8 138.688V135.072H172.2V138.688H177.8ZM177.8 142.624V140.992H172.2V142.624H177.8ZM169.896 156.48V154.496H173.832V152.864H171.848V150.88H169.896V148.928H165.928V146.592H184.072V148.928H182.088V150.88H180.104V152.864H178.12V154.496H182.088V156.48H188.008V158.848H181.736V156.864H177.8V154.848H174.184V156.864H170.216V158.848H163.944V156.48H169.896ZM174.184 150.56V152.544H177.8V150.56H179.752V148.928H172.2V150.56H174.184ZM190.984 150.592H192.968V146.624H194.92V142.656H196.904V138.72H198.888V137.088H190.984V134.752H198.888V132.768H200.872V128.832H203.176V133.12H201.192V134.752H207.144V137.088H201.192V139.072H199.24V143.008H197.256V146.976H195.272V150.912H193.288V152.896H190.984V150.592ZM208.776 134.752H217V136.736H218.984V139.072H216.648V137.088H208.776V134.752ZM198.888 150.592H200.872V148.608H208.776V140.704H211.08V150.592H213.064V152.576H215.048V154.528H217V156.896H214.696V154.88H212.712V152.896H211.08V154.88H209.096V156.896H207.144V158.88H200.872V156.896H198.888V150.592ZM206.792 156.512V154.528H208.776V150.912H201.192V156.512H206.792ZM228.936 156.48V154.848H226.984V140.992H222.984V138.688H226.984V136.704H228.936V132.736H230.92V128.8H233.256V132.736H241.16V137.056H239.176V138.688H247.08V154.848H245.096V156.48H251.016V158.848H244.744V156.864H240.808V154.848H233.256V156.864H229.288V158.848H222.984V156.48H228.936ZM236.84 138.688V136.704H238.824V135.072H231.272V137.056H229.288V138.688H236.84ZM244.744 142.624V140.992H229.288V142.624H244.744ZM244.744 146.592V144.96H229.288V146.592H244.744ZM244.744 152.544V148.928H229.288V152.544H244.744ZM259.944 156.48V146.944H258.312V148.928H253.992V146.592H257.992V144.608H259.944V139.04H253.992V136.704H259.944V128.8H262.28V136.704H266.216V139.04H262.28V144.608H263.912V142.624H266.216V144.96H264.264V146.944H262.28V156.864H260.296V158.848H256.008V156.48H259.944ZM267.848 130.784H282.024V150.88H267.848V130.784ZM279.72 138.688V133.088H270.184V138.688H279.72ZM279.72 148.576V140.992H270.184V148.576H279.72ZM265.896 154.496H284.008V156.864H265.896V154.496ZM287.976 148.608H289.96V144.64H291.912V142.656H293.896V138.72H295.88V137.088H287.976V134.752H297.864V128.832H300.168V134.752H310.056V137.088H298.184V138.72H302.152V140.704H304.136V144.64H305.768V142.656H309.704V140.704H313.992V143.008H310.056V144.992H306.088V146.976H304.136V154.88H301.8V148.96H298.184V150.912H296.232V156.512H312.04V158.88H295.88V156.896H293.896V150.592H295.88V148.608H297.864V146.624H301.8V141.024H296.232V143.008H294.248V144.992H292.264V148.96H290.28V150.912H287.976V148.608ZM320.008 156.48V154.496H321.992V144.96H317.992V142.624H324.296V146.592H325.928V142.624H327.912V130.784H334.184V140.992H330.216V142.624H334.184V152.864H327.912V146.944H326.28V148.928H324.296V152.544H326.28V154.496H339.752V148.928H335.816V146.592H339.752V142.976H335.816V140.672H339.752V139.04H337.8V135.072H335.816V132.736H339.752V128.8H342.088V132.736H348.008V135.072H346.024V139.04H344.072V140.672H348.008V142.976H342.088V146.592H348.008V148.928H342.088V154.496H348.008V156.864H325.928V154.848H322.312V156.864H320.36V158.848H317.992V156.48H320.008ZM321.992 135.072H320.008V133.088H317.992V130.784H320.36V132.736H322.312V134.72H324.296V137.056H321.992V135.072ZM331.848 138.688V133.088H330.216V138.688H331.848ZM343.72 138.688V135.072H340.104V138.688H343.72ZM331.848 150.56V144.96H330.216V150.56H331.848ZM365.8 156.512V154.528H367.784V150.592H369.768V139.072H357.896V136.736H369.768V130.816H372.072V136.736H377.992V139.072H372.072V150.912H370.088V154.88H368.136V156.896H366.152V158.88H361.864V156.512H365.8ZM351.976 134.752H353.96V130.816H356.264V135.104H354.28V158.88H351.976V134.752ZM386.952 150.592H388.904V148.608H395.176V150.592H397.16V154.528H402.76V152.576H404.712V150.592H406.696V146.976H404.712V144.992H391.24V146.976H387.272V148.96H384.968V146.624H386.952V144.64H390.888V142.656H392.872V140.704H394.856V138.72H398.792V136.736H400.776V135.104H386.952V132.768H405.064V135.104H403.08V137.088H401.128V139.072H399.144V141.024H395.176V142.656H405.064V144.64H407.048V146.624H409.032V150.912H407.048V154.88H403.08V156.896H388.904V154.88H386.952V150.592ZM394.856 154.528V150.912H389.256V154.528H394.856ZM415.976 148.608H417.96V146.624H427.816V128.832H430.152V136.736H440.04V139.072H430.152V148.608H434.088V150.592H438.056V152.576H440.04V154.528H441.992V156.896H439.688V154.88H437.704V152.896H433.768V150.912H430.152V154.88H428.168V156.896H417.96V154.88H415.976V148.608ZM427.816 154.528V148.96H418.28V154.528H427.816ZM452.904 130.816H465.128V132.768H471.048V135.104H464.776V133.12H452.904V130.816ZM450.952 154.528H462.792V152.576H466.76V150.592H468.712V148.608H470.696V143.008H468.712V141.024H455.24V143.008H448.968V140.704H454.888V138.72H469.064V140.704H471.048V142.656H473.032V148.96H471.048V150.912H469.064V152.896H467.08V154.88H463.144V156.896H450.952V154.528ZM480.968 136.736H482.952V130.816H485.256V137.088H483.272V156.896H480.968V136.736ZM488.872 134.752H505.032V137.088H488.872V134.752ZM488.872 148.608H491.176V152.576H493.16V154.528H505.032V156.896H492.808V154.88H490.856V152.896H488.872V148.608ZM512.968 130.816H515.272V152.576H517.256V154.528H526.792V152.576H530.728V150.592H532.712V148.608H534.696V146.624H537V148.96H535.048V150.912H533.064V152.896H531.08V154.88H527.144V156.896H516.904V154.88H514.92V152.896H512.968V130.816ZM544.968 150.592H546.952V148.608H556.808V143.008H544.968V140.704H556.808V137.088H544.968V134.752H556.808V128.832H559.144V134.752H569.032V137.088H559.144V140.704H569.032V143.008H559.144V150.592H563.08V152.576H565.064V154.528H567.048V156.512H569.032V158.88H566.696V156.896H564.712V154.88H562.76V152.896H559.144V156.896H557.16V158.88H546.952V156.896H544.968V150.592ZM556.808 156.512V150.912H547.272V156.512H556.808ZM576.968 130.816H579.272V152.576H581.256V154.528H590.792V152.576H594.728V150.592H596.712V148.608H598.696V146.624H601V148.96H599.048V150.912H597.064V152.896H595.08V154.88H591.144V156.896H580.904V154.88H578.92V152.896H576.968V130.816ZM609.96 150.592H611.912V148.608H619.816V134.752H622.152V140.704H630.056V143.008H622.152V150.592H626.088V152.576H630.056V154.528H632.04V156.896H629.704V154.88H625.768V152.896H622.152V154.88H620.168V156.896H611.912V154.88H609.96V150.592ZM619.816 154.528V150.912H612.264V154.528H619.816ZM644.904 130.816H657.128V132.768H663.048V135.104H656.776V133.12H644.904V130.816ZM642.952 154.528H654.792V152.576H658.76V150.592H660.712V148.608H662.696V143.008H660.712V141.024H647.24V143.008H640.968V140.704H646.888V138.72H661.064V140.704H663.048V142.656H665.032V148.96H663.048V150.912H661.064V152.896H659.08V154.88H655.144V156.896H642.952V154.528ZM671.016 150.592H673V148.608H679.272V150.592H681.224V156.896H679.272V158.88H673V156.896H671.016V150.592ZM678.92 156.512V150.912H673.32V156.512H678.92Z"></path>
</svg>
