<svg version="1.1" xmlns="http://www.w3.org/2000/svg" xmlns:xlink="http://www.w3.org/1999/xlink" width="567" height="399" viewBox="0,0,567,399"><g transform="translate(41.39999,16.69998)"><g data-paper-data="{&quot;isPaintingLayer&quot;:true}" fill-rule="nonzero" stroke-linecap="butt" stroke-linejoin="miter" stroke-miterlimit="10" stroke-dasharray="" stroke-dashoffset="0" style="mix-blend-mode: normal"><path d="M-40.39999,381.30002v-397h565v397z" fill="#000000" stroke="#000000" stroke-width="2"/><path d="M53.81789,170.04173h-6.08289v-2.38737h14.52044v2.38737h-6.05018v22.27122h-2.38737zM64.08685,167.65436h2.42007v8.11051h1.66789v-2.02763h6.40992v2.02763h1.99493v1.99492h2.02763v14.55315h-2.35467v-14.19341h-2.02763v-2.02763h-5.72315v2.02763h-1.99493v14.19341h-2.42007zM80.43869,183.84268h2.06033v-2.02763h8.07781v-5.72315h-7.71807v4.05526h-2.42007v-4.38229h2.06033v-2.02763h8.43755v2.02763h1.99492v14.12799h2.02763v2.42007h-2.35466v-2.06034h-3.69552v2.06034h-6.40992v-2.06034h-2.06033zM88.54921,189.89287v-1.99492h2.02763v-3.69552h-7.71807v5.69044zM96.79054,173.73724h2.42007v2.02763h1.66789v-2.02763h6.40992v2.02763h1.99492v1.99492h2.02763v14.55315h-2.35466v-14.19341h-2.02763v-2.02763h-5.72315v2.02763h-1.99492v14.19341h-2.42007zM113.14238,167.65436h2.42007v14.1607h1.66789v-2.02763h1.99492v-2.02763h4.05526v-1.99492h2.02763v-2.02763h2.35466v2.35467h-2.02763v2.02763h-1.99493v2.02763h-4.05526v2.02763h-2.02763v1.66789h2.02763v2.02763h4.05526v2.02763h1.99493v1.99492h2.02763v2.42007h-2.35466v-2.06034h-2.02763v-2.02763h-4.05526v-2.02763h-1.99492v-1.99492h-1.66789v8.11051h-2.42007zM151.92896,191.9205v-3.69552h-1.99492v-4.02255h-2.02763v-6.08289h-2.06033v-4.38229h2.42007v4.02256h1.99492v6.08289h2.02763v4.05526h1.66789v-4.05526h2.02763v-6.08289h2.02763v-4.02256h2.35466v4.38229h-2.02763v6.08289h-1.99492v4.02255h-2.02763v4.08796h-2.02763v2.02763h-6.44262v-2.42007zM164.25825,188.22498h-2.06033v-10.46518h2.06033v-1.99492h2.02763v-2.02763h6.40992v2.02763h1.99492v1.99492h2.02763v10.46518h-2.02763v2.02763h-1.99492v2.06034h-6.40992v-2.06034h-2.02763zM166.61292,187.89794v1.99492h5.72315v-1.99492h2.02763v-9.77841h-2.02763v-2.02763h-5.72315v2.02763h-1.99492v9.77841zM180.6101,188.22498h-2.06033v-14.48774h2.42007v14.1607h1.99493v1.99492h5.72314v-1.99492h2.02763v-14.1607h2.35467v18.5757h-2.35467v-2.06034h-1.66789v2.06034h-6.40992v-2.06034h-2.02763zM216.35523,176.09191h-4.08796v-2.35467h4.08796v-6.08288h1.99493v-1.99493h6.40992v2.35467h-6.05018v5.72314h6.05018v2.35467h-6.05018v16.22104h-2.35467zM229.66564,188.22498h-2.06033v-10.46518h2.06033v-1.99492h2.02763v-2.02763h6.40993v2.02763h1.99492v1.99492h2.02763v10.46518h-2.02763v2.02763h-1.99492v2.06034h-6.40993v-2.06034h-2.02763zM232.0203,187.89794v1.99492h5.72314v-1.99492h2.02763v-9.77841h-2.02763v-2.02763h-5.72314v2.02763h-1.99492v9.77841zM245.98478,173.73724h2.35467v2.02763h1.66789v-2.02763h6.40992v2.35467h-6.05018v2.02763h-2.02763v14.19341h-2.35467zM276.66084,173.73724h2.42007v2.02763h1.66789v-2.02763h6.40993v2.02763h1.99492v1.99492h2.02763v8.43756h-2.02763v2.02763h-1.99492v2.02763h-6.40993v-2.02763h-1.66789v6.11559h-2.42007zM286.79898,187.89794v-2.02763h2.02763v-7.75078h-2.02763v-2.02763h-5.72315v2.02763h-1.99492v7.75078h1.99492v2.02763zM299.06287,167.65436h2.38737v24.65858h-2.38737zM309.36453,183.84268h2.06033v-2.02763h8.07782v-5.72315h-7.71807v4.05526h-2.42007v-4.38229h2.06033v-2.02763h8.43756v2.02763h1.99492v14.12799h2.02763v2.42007h-2.35467v-2.06034h-3.69552v2.06034h-6.40993v-2.06034h-2.06033zM317.47505,189.89287v-1.99492h2.02763v-3.69552h-7.71807v5.69044zM331.79926,191.9205v-3.69552h-1.99492v-4.02255h-2.02763v-6.08289h-2.06033v-4.38229h2.42007v4.02256h1.99493v6.08289h2.02762v4.05526h1.66789v-4.05526h2.02763v-6.08289h2.02763v-4.02256h2.35467v4.38229h-2.02763v6.08289h-1.99493v4.02255h-2.02763v4.08796h-2.02763v2.02763h-6.44263v-2.42007zM348.11841,167.65436h2.38736v4.415h-2.38736zM348.11841,173.73724h2.38736v18.5757h-2.38736zM358.42007,173.73724h2.42007v2.02763h1.66788v-2.02763h6.40993v2.02763h1.99492v1.99492h2.02763v14.55315h-2.35467v-14.19341h-2.02763v-2.02763h-5.72315v2.02763h-1.99492v14.19341h-2.42007zM374.77191,187.89794h2.06034v-1.70059h-2.06034v-2.35467h2.06034v-1.66789h-2.06034v-6.40992h2.06034v-2.02763h8.43755v2.02763h1.66789v-2.02763h2.35467v2.35467h-2.02763v6.08289h-1.99492v2.02763h-8.07781v1.66788h10.07273v2.02763h2.02763v4.415h-2.02763v2.02763h-10.43247v-2.02763h-2.06034zM384.91006,181.81506v-5.72315h-7.71807v5.72315zM386.93769,191.9205v-3.69552h-9.7457v3.69552zM413.52579,165.65943h2.38737v20.53792h-2.38737zM413.52579,187.89794h2.38737v4.415h-2.38737zM429.87763,165.65943h2.38737v20.53792h-2.38737zM429.87763,187.89794h2.38737v4.415h-2.38737z" fill="#ffffff" stroke="none" stroke-width="1"/></g></g></svg>