<svg xmlns="http://www.w3.org/2000/svg" fill="none" viewBox="0 0 47 13" height="13" width="47">
<path fill="white" d="M4.092 8.96H4.836V7.604H4.092V6.728H5.568V3.896H4.956V4.64H4.092V3.764H4.836V3.02H5.568V0.8H6.444V2.276H11.628V3.152H5.7V3.764H10.884V6.728H11.628V7.604H10.884V9.08H10.152V9.704H11.628V10.568H10.152V11.324H9.408V12.068H7.056V11.18H9.276V10.568H4.956V11.324H4.092V8.96ZM2.604 2.408H1.872V1.664H1.128V0.8H1.992V1.544H2.736V2.276H3.48V3.152H2.604V2.408ZM2.604 5.372H1.872V4.64H1.128V3.764H1.992V4.508H2.736V5.252H3.48V6.116H2.604V5.372ZM7.8 6.728V4.64H6.444V6.728H7.8ZM10.02 6.728V4.64H8.664V6.728H10.02ZM0.372 10.436H1.128V9.704H1.872V8.216H2.604V6.728H3.48V8.348H2.736V9.824H1.992V10.568H1.26V11.324H0.372V10.436ZM9.276 9.704V8.96H10.02V7.604H7.92V9.704H9.276ZM7.056 9.704V7.604H5.7V9.08H4.956V9.704H7.056ZM13.128 5.372H12.372V4.508H13.128V3.02H13.872V0.8H14.736V1.544H16.956V3.152H16.224V3.764H17.568V3.02H19.056V2.408H18.312V0.8H19.188V2.276H19.92V3.02H20.532V2.276H21.276V0.8H22.152V2.408H21.408V3.02H23.628V3.896H20.664V5.252H22.884V6.116H20.664V8.216H23.628V9.08H20.664V12.068H19.8V9.08H13.128V5.372ZM15.348 3.764V3.02H16.092V2.408H14.736V3.152H13.992V3.764H15.348ZM19.8 8.216V6.116H18.312V5.252H19.8V3.896H17.7V8.216H19.8ZM16.836 5.984V4.64H15.48V5.984H16.836ZM14.604 5.984V4.64H13.992V5.984H14.604ZM16.836 8.216V6.86H15.48V8.216H16.836ZM14.604 8.216V6.86H13.992V8.216H14.604ZM12.372 10.436H13.128V9.704H13.992V10.568H13.26V12.068H12.372V10.436ZM14.604 9.704H15.48V12.068H14.604V9.704ZM16.836 9.704H17.7V12.068H16.836V9.704ZM26.604 11.18V10.436H27.348V8.96H28.092V8.348H24.372V7.472H28.092V5.372H25.128V4.508H27.348V3.764H28.092V2.276H28.836V0.8H29.7V2.408H28.956V3.896H28.224V4.508H30.312V3.764H32.532V3.152H31.8V2.276H32.664V3.02H33.408V3.764H34.152V4.508H34.884V5.372H34.02V4.64H32.664V7.472H35.628V8.348H32.664V12.068H31.8V8.348H28.956V9.08H28.224V10.568H27.48V11.324H26.736V12.068H25.128V11.18H26.604ZM31.8 7.472V4.64H30.444V5.372H28.956V7.472H31.8ZM37.116 10.436H46.008V8.348H37.86V7.472H46.008V6.116H37.116V5.252H41.556V0.8H42.432V5.252H46.872V12.068H46.008V11.324H37.116V10.436ZM39.336 3.152H38.592V2.408H37.86V1.544H38.724V2.276H39.468V3.02H40.212V4.64H39.336V3.152ZM43.788 3.764H44.52V3.02H45.264V1.544H46.14V3.152H45.396V3.896H44.652V4.64H43.788V3.764Z"></path>
</svg>
