<svg version="1.1" xmlns="http://www.w3.org/2000/svg" xmlns:xlink="http://www.w3.org/1999/xlink" width="61.51547" height="32.44767" viewBox="0,0,61.51547,32.44767"><g transform="translate(-206.49219,-163.77617)"><g data-paper-data="{&quot;isPaintingLayer&quot;:true}" fill-rule="nonzero" stroke-linecap="butt" stroke-linejoin="miter" stroke-miterlimit="10" stroke-dasharray="" stroke-dashoffset="0" style="mix-blend-mode: normal"><path d="M212.11475,195.22384c-2.55297,0 -3.58473,-1.25 -3.58473,-1.25c0,0 -1.03783,-1.51295 -1.03783,-3.86616c0,-3.58942 0,-14.16113 0,-20.45581c0,-2.888 1.25151,-3.68865 1.25151,-3.68865c0,0 0.81807,-1.18705 3.37105,-1.18705h50.27034c2.55297,0 3.3849,0.97826 3.3849,0.97826c0,0 1.23767,0.79641 1.23767,3.42956c0,6.25008 0,17.33681 0,21.00785c0,2.32164 -1.21999,3.88915 -1.21999,3.88915c0,0 -0.84961,1.14285 -3.40257,1.14285z" fill="#d6d6d6" stroke="#000000" stroke-width="2"/><path d="M220.49676,177.68444h1.12063v-2.24126h1.10256v-4.46446h1.31945v3.34383h6.68766v3.54266h-1.10254v1.12064h-1.31946v-1.30139h1.12063v-2.04244h-6.5069v2.22319h-1.12063v1.12064h-1.30139zM218.25551,175.64199h-1.10256v-1.12063h-1.12063v-1.31946h1.30137v1.12063h1.12064v1.12063h1.12062v1.31945h-1.31945zM221.61739,186.61338v-1.12063h1.10256v-2.2232h1.12064v-3.3619h1.12063v-3.34384h1.30138v3.34384h1.12063v2.24126h1.12063v2.24125h1.12063v1.10257h1.10254v1.12063h1.12064v1.33753h-1.31945v-1.12064h-1.10256v-1.1387h-1.12063v-1.12064h-1.12063v-2.2232h-1.10256v-2.24126h-0.9218v3.34384h-1.12064v2.24126h-1.12063v1.1387h-1.12063v1.12064h-2.42203v-1.33753zM214.89359,184.39018h1.13871v-1.12062h1.12063v-2.24127h1.10256v-2.24126h1.31945v2.4401h-1.12062v2.2232h-1.12064v1.12063h-1.10256v1.12064h-1.33752zM233.52867,181.04636h1.1387v-2.24126h1.12064v-1.10257h1.10256v-2.24125h1.12064v-1.12064h2.42203v1.12064h1.12063v1.12062h1.12064v1.12064h1.12063v2.2232h1.10254v1.12062h1.12064v1.12064h1.12064v2.24125h1.12063v1.10256h1.10256v1.33753h-1.30137v-1.1387h-1.12063v-1.12064h-1.12063v-2.22319h-1.10255v-1.12064h-1.12064v-1.12064h-1.12063v-2.24125h-1.12063v-1.10256h-1.10256v-1.12063h-2.04244v2.2232h-1.12064v1.12064h-1.12062v2.24126h-1.10257v1.12064h-1.33753z" fill="#000000" stroke="none" stroke-width="1"/><path d="M256.12693,175.60459h-1.38856v-1.37242h1.38856zM257.49934,176.97702h-1.37241v-1.37242h1.37241zM258.87177,178.36557h-1.37243v-1.38855h1.37243zM260.26034,179.738h-1.38857v-1.37243h1.38857zM260.26034,181.11042v-1.37242h1.37241v1.37242zM260.26034,181.11042v1.38852h-1.38857v-1.38852zM258.87177,182.49895v1.37246h-1.37243v-1.37246zM257.49934,183.8714v1.37246h-1.37241v-1.37246zM256.12693,185.24386v1.38849h-1.38856v-1.38849z" data-paper-data="{&quot;index&quot;:null}" fill="#000000" stroke="none" stroke-width="1"/></g></g></svg>