<svg xmlns="http://www.w3.org/2000/svg" fill="none" viewBox="0 0 48 29" height="29" width="48">
<path fill="white" d="M11.928 11.192V10.448H13.416V9.716H14.16V8.228H14.892V1.556H15.768V8.36H15.024V9.836H14.28V10.58H13.548V11.336H12.06V12.08H8.964V11.192H11.928ZM8.232 1.556H9.096V8.36H8.232V1.556ZM21.708 3.908H20.232V3.164H19.488V2.288H20.352V3.032H21.84V3.776H23.316V4.52H24.06V5.384H23.196V4.652H21.708V3.908ZM19.488 10.448H21.708V9.716H23.196V8.972H24.672V8.228H25.416V7.484H26.16V6.74H26.892V5.264H27.636V3.032H28.512V5.384H27.768V6.872H27.024V7.616H26.28V8.36H25.548V9.092H24.804V9.836H23.316V10.58H21.84V11.336H19.488V10.448ZM30.744 10.448H38.892V3.908H30.744V3.032H38.892V2.42H38.148V1.676H37.416V0.812H38.28V1.556H38.892V0.812H39.768V1.556H40.5V2.288H41.244V3.164H40.368V2.42H39.768V12.08H38.892V11.336H30.744V10.448ZM39.636 2.288V1.676H39.024V2.288H39.636ZM8.892 19.42H8.148V18.676H7.416V17.812H8.28V18.556H8.892V17.812H9.768V18.556H10.5V19.288H11.244V20.164H10.368V19.42H9.768V20.164H8.892V19.42ZM3.708 19.42H2.22V18.556H3.84V19.288H5.316V20.032H6.06V20.908H5.184V20.164H3.708V19.42ZM9.636 19.288V18.676H9.024V19.288H9.636ZM1.488 27.448H3.708V26.716H5.928V25.972H7.416V25.228H8.148V24.484H8.892V22.996H9.636V20.776H10.5V23.128H9.768V24.616H9.024V25.36H8.28V26.092H7.536V26.836H6.06V27.58H3.84V28.336H1.488V27.448ZM2.22 21.652H0.744V20.776H2.352V21.52H3.84V22.264H4.572V23.128H3.708V22.384H2.22V21.652ZM13.488 27.448H19.416V24.484H20.16V22.384H14.232V21.52H21.024V24.616H20.28V27.448H22.512V28.336H13.488V27.448ZM25.488 22.996H34.512V23.872H25.488V22.996ZM36.744 27.448H38.244V26.716H39.72V25.972H41.208V25.228H41.94V24.484H42.684V22.996H43.428V21.52H44.172V20.164H37.5V19.288H45.036V21.652H44.292V23.128H43.56V24.484H44.292V25.228H45.036V25.972H45.78V26.716H46.524V27.448H47.256V28.336H46.392V27.58H45.648V26.836H44.904V26.092H44.172V25.36H43.428V24.616H42.816V25.36H42.072V26.092H41.328V26.836H39.852V27.58H38.364V28.336H36.744V27.448Z"></path>
</svg>
