<svg xmlns="http://www.w3.org/2000/svg" fill="none" viewBox="0 0 612 61" height="61" width="612">
<path fill="black" d="M40.6 55.96V44.76H32.664V40.152H40.6V32.92H28.696V28.248H40.6V24.984H32.664V12.44H36.632V0.599998H41.24V4.568H53.144V17.112H49.176V20.376H57.048V28.248H61.016V32.92H57.048V44.76H45.208V56.728H41.24V60.696H32.664V55.96H40.6ZM0.984 20.376H12.888V17.112H5.016V12.44H12.888V9.176H0.984V4.568H12.888V0.599998H17.56V4.568H29.4V9.176H17.56V12.44H25.432V17.112H17.56V20.376H29.4V24.984H0.984V20.376ZM44.504 20.376V16.408H48.472V9.176H41.24V13.144H37.336V20.376H44.504ZM52.44 28.248V24.984H45.208V28.248H52.44ZM5.016 28.248H25.432V60.696H12.888V55.96H20.824V48.728H9.624V60.696H5.016V28.248ZM52.44 40.152V32.92H45.208V40.152H52.44ZM20.824 36.184V32.92H9.624V36.184H20.824ZM20.824 44.12V40.856H9.624V44.12H20.824ZM80.856 55.96V36.888H69.016V32.216H80.856V13.144H73.624V21.08H69.016V8.472H92.696V0.599998H97.368V8.472H125.016V21.08H121.048V36.888H117.144V44.76H113.176V48.088H117.144V51.992H121.048V55.96H125.016V60.696H120.344V56.728H116.44V52.696H109.208V56.728H105.24V60.696H96.664V55.96H104.6V51.992H108.504V44.76H104.6V36.888H100.632V28.248H105.24V36.184H109.208V44.12H112.472V36.184H116.44V24.984H100.632V20.376H120.344V13.144H85.528V20.376H97.368V24.984H85.528V32.216H97.368V36.888H85.528V56.728H81.56V60.696H72.984V55.96H80.856ZM64.984 51.992H69.016V44.12H72.984V40.152H77.592V44.76H73.624V52.696H69.72V56.728H64.984V51.992ZM88.792 40.152H93.4V44.12H97.368V48.088H101.336V52.696H96.664V48.728H92.696V44.76H88.792V40.152ZM135 48.792H130.968V28.312H135V20.44H138.968V16.472H142.872V12.504H150.808V8.536H171.224V12.504H179.16V16.472H183.128V24.408H187.032V44.824H183.128V52.76H179.16V56.792H171.224V60.76H158.68V56.024H170.584V52.056H178.456V44.184H182.424V25.048H178.456V17.176H170.584V13.208H163.352V25.048H159.384V36.952H155.416V44.824H151.512V52.76H147.544V56.792H138.968V52.76H135V48.792ZM139.608 48.152V52.056H146.84V44.184H150.808V36.248H154.776V24.408H158.68V13.208H151.512V17.176H143.576V21.144H139.608V29.016H135.704V48.152H139.608ZM200.984 55.96V40.856H192.984V36.184H200.984V21.08H192.984V16.408H200.984V0.599998H205.592V16.408H212.824V4.568H253.016V17.112H248.344V9.176H217.432V17.112H213.528V21.08H205.592V32.216H208.856V28.248H213.528V32.216H228.632V28.248H233.24V32.216H253.016V36.888H237.208V40.152H241.176V44.12H245.144V48.088H249.048V51.992H253.016V56.728H248.344V52.696H244.44V48.728H240.472V44.76H236.504V40.856H233.24V60.696H228.632V40.856H225.368V44.76H221.4V48.728H217.432V52.696H213.528V56.728H208.856V51.992H212.824V48.088H216.792V44.12H220.696V40.152H224.664V36.888H212.824V32.92H209.56V36.888H205.592V56.728H201.624V60.696H192.984V55.96H200.984ZM236.504 12.44H241.176V24.344H248.344V20.376H253.016V24.984H249.048V28.952H240.472V24.984H236.504V12.44ZM216.792 24.344H220.696V20.376H224.664V12.44H229.336V21.08H225.368V24.984H221.4V28.952H216.792V24.344ZM256.984 48.088H264.984V44.12H272.856V40.152H276.824V36.184H280.792V32.216H284.696V17.112H261.016V12.44H284.696V0.599998H289.368V12.44H304.472V9.176H300.504V5.208H296.6V0.599998H301.208V4.568H305.176V8.472H309.144V12.44H317.016V17.112H289.368V28.248H293.336V32.216H300.504V28.248H304.472V24.344H308.44V20.376H313.048V24.984H309.144V28.952H305.176V32.92H301.208V40.152H305.176V44.12H309.144V48.088H317.016V52.696H308.44V48.728H304.472V44.76H300.504V40.856H296.6V36.888H292.632V32.92H289.368V56.728H285.4V60.696H272.856V55.96H284.696V36.888H281.432V40.856H277.528V44.76H273.56V48.728H265.624V52.696H256.984V48.088ZM272.856 28.952H268.888V24.984H264.984V20.376H269.592V24.344H273.56V28.248H277.528V32.92H272.856V28.952ZM336.856 36.888H325.016V32.216H340.824V28.248H348.696V24.984H320.984V20.376H348.696V13.144H332.888V8.472H348.696V0.599998H353.368V8.472H365.208V12.44H368.472V8.472H372.44V4.568H377.048V9.176H373.144V13.144H369.176V17.112H365.208V20.376H381.016V24.984H357.336V28.952H349.4V32.216H373.144V60.696H368.472V56.728H341.528V60.696H336.856V36.888ZM360.6 20.376V16.408H364.504V13.144H353.368V20.376H360.6ZM368.472 40.152V36.888H341.528V40.152H368.472ZM368.472 51.992V44.76H341.528V51.992H368.472ZM404.76 56.024V52.056H416.6V48.152H420.568V40.92H416.6V36.952H408.728V32.984H404.76V28.312H409.432V32.28H417.304V36.248H421.272V40.216H428.504V36.248H432.408V28.312H436.376V17.176H409.432V21.144H405.464V25.048H401.496V29.016H397.528V32.984H393.624V36.952H388.888V32.28H392.92V28.312H396.888V24.408H400.792V20.44H404.76V16.472H408.728V8.536H412.696V0.663998H417.304V9.24H413.336V12.504H441.048V29.016H437.08V36.952H433.112V40.92H429.144V44.824H425.24V48.792H421.272V52.76H417.304V56.792H405.464V60.76H392.92V56.024H404.76ZM452.888 36.248H460.888V32.28H468.76V28.312H476.696V24.408H480.6V20.44H484.568V16.472H488.536V12.504H492.504V8.536H496.408V4.632H500.376V0.663998H505.048V5.272H501.08V9.24H497.112V13.208H493.144V17.176H489.24V60.76H484.568V25.048H481.304V29.016H477.336V32.984H469.464V36.952H461.528V40.92H452.888V36.248ZM517.016 52.056H528.856V48.152H536.792V44.184H544.664V40.216H548.632V32.28H552.6V24.408H556.504V13.208H512.984V8.536H556.504V4.632H560.472V0.663998H569.048V4.632H573.016V13.208H569.048V17.176H561.176V25.048H557.208V32.984H553.24V40.92H549.336V44.824H545.368V48.792H537.432V52.76H529.56V56.792H517.016V52.056ZM568.344 12.504V5.272H561.176V12.504H568.344ZM606.68 4.632H611.352V44.824H606.68V4.632ZM602.712 48.152H611.352V56.792H602.712V48.152Z"></path>
</svg>
