<svg version="1.1" xmlns="http://www.w3.org/2000/svg" xmlns:xlink="http://www.w3.org/1999/xlink" width="404.25652" height="128.89638" viewBox="0,0,404.25652,128.89638"><g transform="translate(-37.87175,-115.55182)"><g data-paper-data="{&quot;isPaintingLayer&quot;:true}" fill="#fff4e4" fill-rule="nonzero" stroke="#000000" stroke-width="2" stroke-linecap="butt" stroke-linejoin="round" stroke-miterlimit="10" stroke-dasharray="" stroke-dashoffset="0" style="mix-blend-mode: normal"><path d="M44.89056,243.44819c-3.32409,0 -4.81868,-2.40024 -4.81868,-2.40024c0,0 -1.20012,-1.14484 -1.20012,-5.18192c0,-13.6179 0,-90.34984 0,-113.01203c0,-3.98851 1.52556,-5.03089 1.52556,-5.03089c0,0 1.16916,-1.27129 4.49325,-1.27129h390.21891c3.32409,0 4.42289,1.59591 4.42289,1.59591c0,0 1.59591,0.78293 1.59591,4.87569c0,23.00097 0,100.13326 0,113.37379c0,3.78305 -1.69828,5.35271 -1.69828,5.35271c0,0 -0.99643,1.69828 -4.32052,1.69828z"/></g></g></svg>