<svg xmlns="http://www.w3.org/2000/svg" fill="none" viewBox="0 0 188 33" height="33" width="188">
<rect stroke-width="1.0663" stroke="black" fill="#FFD5A4" rx="6.46685" height="25.9337" width="182.934" y="3.53315" x="2.53315"></rect>
<path fill="black" d="M27.128 19.836H26.372V18.228H27.128V17.484H27.872V16.74H28.604V15.996H30.092V13.908H27.128V13.032H30.092V10.812H30.956V13.032H33.188V13.908H30.956V15.264H34.664V15.996H36.152V16.74H36.884V19.836H36.152V20.58H35.408V21.336H34.664V22.08H31.568V21.192H34.532V20.448H35.276V19.716H36.02V16.872H34.532V16.128H30.956V20.58H30.224V21.336H27.872V20.58H27.128V19.836ZM33.8 12.288H35.408V13.032H36.884V13.776H37.628V14.652H36.752V13.908H35.276V13.164H33.8V12.288ZM27.992 19.716V20.448H30.092V16.872H28.736V17.616H27.992V18.36H27.26V19.716H27.992ZM44.408 21.192V20.448H45.14V19.716H45.884V18.36H45.272V19.092H42.92V18.36H42.176V15.996H42.92V15.264H45.272V15.996H45.884V13.908H39.944V13.032H45.884V10.812H46.76V13.032H50.456V13.908H46.76V19.836H46.016V20.58H45.272V21.336H44.528V22.08H42.92V21.192H44.408ZM45.14 18.228V17.484H45.884V16.872H45.14V16.128H43.052V18.228H45.14ZM57.608 21.192V20.448H58.34V19.716H59.084V18.36H58.472V19.092H56.12V18.36H55.376V15.996H56.12V15.264H58.472V15.996H59.084V13.908H53.144V13.032H59.084V10.812H59.96V13.032H63.656V13.908H59.96V19.836H59.216V20.58H58.472V21.336H57.728V22.08H56.12V21.192H57.608ZM58.34 18.228V17.484H59.084V16.872H58.34V16.128H56.252V18.228H58.34ZM66.344 16.74H67.1V15.996H67.844V11.556H68.708V14.52H70.064V13.776H73.028V11.556H73.892V14.52H75.38V15.264H76.124V15.996H76.856V19.092H76.124V19.836H75.38V20.58H74.636V21.336H73.892V22.08H72.284V21.192H73.772V20.448H74.504V19.716H75.248V18.972H75.992V16.128H75.248V15.384H73.772V14.652H73.16V15.384H72.416V16.872H71.672V18.36H70.928V19.092H70.196V19.716H70.928V20.58H70.064V19.836H69.452V20.58H68.708V21.336H67.1V20.58H66.344V16.74ZM70.808 18.228V16.74H71.54V15.264H72.284V14.652H70.196V15.384H69.452V18.228H70.808ZM68.576 20.448V19.716H69.32V18.36H68.576V16.128H67.964V16.872H67.232V20.448H68.576ZM80.3 19.836H79.544V15.996H80.3V14.52H81.044V13.776H81.776V13.032H83.264V12.288H87.092V13.032H88.58V13.776H89.324V15.264H90.056V19.092H89.324V20.58H88.58V21.336H87.092V22.08H84.74V21.192H86.972V20.448H88.448V18.972H89.192V15.384H88.448V13.908H86.972V13.164H85.616V15.384H84.872V17.616H84.128V19.092H83.396V20.58H82.652V21.336H81.044V20.58H80.3V19.836ZM81.164 19.716V20.448H82.52V18.972H83.264V17.484H84.008V15.264H84.74V13.164H83.396V13.908H81.908V14.652H81.164V16.128H80.432V19.716H81.164ZM93.128 17.604H92.372V16.728H93.128V15.984H93.872V15.372H92.372V14.508H94.604V13.152H93.26V13.896H92.372V13.02H93.128V12.276H93.872V10.8H94.736V12.276H97.7V13.152H95.48V14.508H98.444V15.372H96.956V15.984H98.444V16.86H96.224V17.472H97.7V18.348H96.224V18.96H97.7V19.824H96.224V20.436H98.444V21.18H99.056V19.704H99.8V18.348H99.056V11.544H102.884V18.348H102.152V21.18H102.752V19.704H103.628V22.068H102.02V21.324H101.276V18.348H100.664V19.824H99.92V21.324H99.188V22.068H98.312V21.324H93.992V22.068H93.128V17.604ZM102.02 13.764V12.408H99.92V13.764H102.02ZM102.02 15.252V14.64H99.92V15.252H102.02ZM96.092 15.984V15.372H94.736V15.984H96.092ZM102.02 17.472V16.116H99.92V17.472H102.02ZM95.348 17.472V16.86H93.992V17.472H95.348ZM95.348 18.96V18.348H93.992V18.96H95.348ZM95.348 20.436V19.824H93.992V20.436H95.348ZM107.072 21.18V20.436H107.804V19.704H108.548V18.216H109.292V16.86H105.572V15.984H110.768V10.8H111.644V15.984H116.828V16.86H113.12V21.18H115.952V18.96H116.828V21.324H116.084V22.068H113V21.324H112.256V16.86H110.156V18.348H109.424V19.824H108.68V20.568H107.936V21.324H107.192V22.068H105.572V21.18H107.072ZM108.548 13.896H107.804V13.152H107.072V12.276H107.936V13.02H108.68V13.764H109.424V15.372H108.548V13.896ZM113 14.508H113.732V13.764H114.476V12.276H115.352V13.896H114.608V14.64H113.864V15.372H113V14.508ZM123.968 16.116H123.236V15.252H123.968V12.276H124.844V14.508H126.2V10.8H127.064V13.764H127.676V13.02H129.284V17.604H128.552V18.348H127.676V17.472H128.42V13.896H127.808V14.64H127.064V19.08H126.2V15.372H124.844V21.18H129.152V18.216H130.028V21.324H129.284V22.068H124.712V21.324H123.968V16.116ZM118.772 19.704H120.272V16.116H118.772V15.252H120.272V11.544H121.136V15.252H122.624V16.116H121.136V18.96H122.624V19.824H121.136V20.568H118.772V19.704ZM132.716 18.228H133.46V16.74H134.192V15.996H134.936V14.52H135.68V13.908H132.716V13.032H136.424V10.812H137.288V13.032H140.996V13.908H136.544V14.52H138.032V15.264H138.776V16.74H139.388V15.996H140.864V15.264H142.472V16.128H140.996V16.872H139.508V17.616H138.776V20.58H137.9V18.36H136.544V19.092H135.812V21.192H141.74V22.08H135.68V21.336H134.936V18.972H135.68V18.228H136.424V17.484H137.9V15.384H135.812V16.128H135.068V16.872H134.324V18.36H133.58V19.092H132.716V18.228ZM147.404 21.18V20.436H148.892V19.08H147.404V10.8H154.208V19.08H152.72V21.18H155.552V18.96H156.428V21.324H155.684V22.068H152.6V21.324H151.856V19.08H149.756V20.568H149.024V21.324H147.536V22.068H145.172V21.18H147.404ZM153.332 13.02V11.664H148.28V13.02H153.332ZM153.332 15.252V13.896H148.28V15.252H153.332ZM153.332 18.216V16.116H148.28V18.216H153.332ZM160.232 18.972H160.964V18.228H163.316V18.972H164.06V20.448H166.16V19.716H166.892V18.972H167.636V17.616H166.892V16.872H161.84V17.616H160.352V18.36H159.488V17.484H160.232V16.74H161.708V15.996H162.452V15.264H163.196V14.52H164.672V13.776H165.416V13.164H160.232V12.288H167.024V13.164H166.28V13.908H165.548V14.652H164.804V15.384H163.316V15.996H167.024V16.74H167.768V17.484H168.512V19.092H167.768V20.58H166.28V21.336H160.964V20.58H160.232V18.972ZM163.196 20.448V19.092H161.096V20.448H163.196ZM175.94 11.556H176.816V19.092H175.94V11.556ZM175.196 19.716H176.816V21.336H175.196V19.716Z"></path>
<circle stroke-width="1.21739" stroke="black" r="4.56522" cy="14.1739" cx="16"></circle>
<path stroke-width="1.21739" stroke="black" d="M13.2608 18.1304L8.99997 23"></path>
</svg>
