<svg xmlns="http://www.w3.org/2000/svg" fill="none" viewBox="0 0 778 159" height="159" width="778">
<path fill="black" d="M0.968 14.656H4.904V12.704H8.872V10.72H12.808V8.736H16.776V6.752H20.712V4.768H25.032V7.104H21.064V9.088H17.128V11.072H13.16V13.024H9.224V15.008H5.256V18.624H9.224V20.608H13.16V22.592H17.128V24.576H21.064V26.528H25.032V28.896H20.712V26.88H16.776V24.896H12.808V22.912H8.872V20.96H4.904V18.976H0.968V14.656ZM29.992 20.576H33.992V18.592H35.944V11.04H32.36V16.96H29.992V10.688H32.008V2.784H34.312V8.704H35.944V0.799999H38.28V8.704H42.216V10.688H49.8V7.072H43.848V4.736H49.8V0.799999H52.104V4.736H58.024V7.072H52.104V10.688H60.008V12.992H56.072V16.608H60.008V18.944H56.072V28.864H54.088V30.848H47.816V28.48H53.736V18.944H41.896V16.96H40.264V18.944H38.28V30.848H35.944V20.928H34.312V22.88H29.992V20.576ZM39.912 16.608V14.624H42.216V16.608H53.736V12.992H41.896V11.04H38.28V16.608H39.912ZM45.832 20.576H48.168V22.56H50.12V24.864H47.816V22.88H45.832V20.576ZM69.928 24.544H75.848V20.928H71.912V18.592H75.848V16.96H71.912V14.624H81.8V12.672H83.752V0.799999H86.088V8.704H92.008V11.04H90.024V18.944H88.072V24.544H90.024V28.48H92.008V30.848H89.672V28.864H87.72V24.864H86.088V26.848H84.104V28.864H82.12V30.848H79.816V28.48H81.8V26.496H83.752V24.544H85.736V18.944H83.752V14.976H82.12V16.96H78.184V18.592H82.12V20.576H84.104V22.88H82.12V24.864H78.184V26.848H69.928V24.544ZM71.912 2.784H74.216V8.704H75.848V0.799999H78.184V8.704H79.816V2.784H82.12V11.04H71.912V2.784ZM61.992 8.704H64.008V6.72H65.992V4.736H67.944V0.799999H70.28V5.088H68.296V7.072H66.312V9.056H64.36V11.04H61.992V8.704ZM65.992 16.96H64.36V18.944H61.992V16.608H64.008V14.624H65.992V12.672H67.944V8.704H70.28V12.992H68.296V30.848H65.992V16.96ZM87.72 18.592V11.04H86.088V18.592H87.72ZM81.8 22.56V20.928H78.184V22.56H81.8ZM96.968 26.528H100.904V24.576H104.872V22.592H108.808V20.608H112.776V18.624H116.712V15.008H112.776V13.024H108.808V11.072H104.872V9.088H100.904V7.104H96.968V4.768H101.256V6.752H105.224V8.736H109.16V10.72H113.128V12.704H117.064V14.656H121.032V18.976H117.064V20.96H113.128V22.912H109.16V24.896H105.224V26.88H101.256V28.896H96.968V26.528ZM29.992 46.624H60.008V48.96H29.992V46.624ZM64.008 60.48V58.496H65.992V56.544H67.944V54.56H69.928V52.576H71.912V50.592H73.896V46.624H75.848V32.8H78.184V46.624H80.168V50.592H82.12V54.56H84.104V56.544H86.088V58.496H88.072V60.48H92.008V62.848H87.72V60.864H85.736V58.848H83.752V56.864H81.8V54.88H79.816V50.944H77.832V46.976H76.2V50.944H74.216V52.928H72.264V54.88H70.28V56.864H68.296V58.848H66.312V60.864H64.36V62.848H61.992V60.48H64.008ZM101.928 46.656H103.912V44.704H105.896V42.72H107.848V40.736H109.832V39.104H93.992V36.768H122.024V39.104H114.12V41.088H110.184V43.072H108.2V45.024H106.216V47.008H104.264V54.592H106.216V56.576H108.2V58.528H118.088V60.896H107.848V58.88H103.912V54.912H101.928V46.656ZM117.736 40.736H120.072V42.72H122.024V44.704H124.008V47.008H121.672V45.024H119.72V43.072H117.736V40.736ZM113.8 42.72H116.104V44.704H118.088V46.656H120.072V48.992H117.736V47.008H115.752V45.024H113.8V42.72ZM129.992 60.48V58.496H131.944V48.96H125.992V46.624H134.28V58.496H137.896V42.688H139.848V32.8H152.072V42.688H156.008V56.864H154.024V58.848H147.752V56.544H153.672V44.992H140.2V58.848H138.216V60.48H156.008V62.848H137.896V60.864H133.928V58.848H132.296V60.864H130.312V62.848H125.992V60.48H129.992ZM131.944 37.088H129.992V35.104H128.008V32.8H130.312V34.784H132.296V36.736H134.28V39.072H131.944V37.088ZM143.816 42.688V36.736H149.736V35.104H142.184V42.688H143.816ZM149.736 42.688V39.072H146.12V42.688H149.736ZM141.832 46.624H152.072V54.88H141.832V46.624ZM149.736 52.576V48.96H144.168V52.576H149.736ZM182.696 35.136H180.712V32.832H183.048V34.816H185V36.768H186.984V39.104H184.648V37.12H182.696V35.136ZM160.968 36.768H176.776V34.816H179.08V36.768H181.064V38.752H183.048V41.088H180.712V39.104H160.968V36.768ZM160.968 56.896H158.984V52.608H160.968V50.624H163.272V52.96H161.288V56.576H165.256V58.528H180.712V56.576H183.048V58.88H181.064V60.896H164.904V58.88H160.968V56.896ZM202.888 60.512V58.528H204.84V56.576H206.824V52.96H205.192V54.912H198.92V52.96H196.936V46.656H198.92V44.704H205.192V46.656H206.824V41.088H190.984V38.752H206.824V32.832H209.16V38.752H219.016V41.088H209.16V56.896H207.176V58.88H205.192V60.896H203.208V62.88H198.92V60.512H202.888ZM204.84 52.608V50.624H206.824V48.992H204.84V47.008H199.272V52.608H204.84ZM226.952 36.768H247.048V39.104H226.952V36.768ZM224.968 52.608H226.952V50.624H229.256V52.96H227.272V56.576H231.24V58.528H246.696V56.576H249.032V58.88H247.048V60.896H230.888V58.88H226.952V56.896H224.968V52.608ZM256.968 50.624H258.952V48.64H260.904V46.656H264.872V32.832H267.176V44.704H270.792V42.72H281.032V45.024H271.144V47.008H265.224V48.992H261.256V50.976H259.272V56.576H263.24V58.528H281.032V60.896H262.888V58.88H258.952V56.896H256.968V50.624ZM287.976 52.608H289.96V48.64H291.912V46.656H293.896V42.72H295.88V41.088H287.976V38.752H297.864V32.832H300.168V38.752H310.056V41.088H298.184V42.72H302.152V44.704H304.136V48.64H305.768V46.656H309.704V44.704H313.992V47.008H310.056V48.992H306.088V50.976H304.136V58.88H301.8V52.96H298.184V54.912H296.232V60.512H312.04V62.88H295.88V60.896H293.896V54.592H295.88V52.608H297.864V50.624H301.8V45.024H296.232V47.008H294.248V48.992H292.264V52.96H290.28V54.912H287.976V52.608ZM320.008 60.48V58.496H321.992V56.544H323.944V54.56H325.928V52.928H323.944V50.944H320.008V44.672H321.992V41.056H317.992V38.72H321.992V32.8H324.296V38.72H332.2V46.976H330.216V50.944H328.264V54.56H330.216V56.544H332.2V60.864H329.896V56.864H327.912V54.88H326.28V56.864H324.296V58.848H322.312V60.864H320.36V62.848H317.992V60.48H320.008ZM339.752 60.48V50.944H331.848V48.608H339.752V42.688H341.736V38.72H343.72V37.088H333.832V34.784H346.024V39.072H344.072V43.04H342.088V48.608H348.008V50.944H342.088V60.864H340.104V62.848H333.832V60.48H339.752ZM327.912 50.592V46.624H329.896V41.056H324.296V44.992H322.312V48.608H324.296V50.592H327.912ZM349.992 52.608H352.008V50.624H353.992V48.64H357.928V46.656H361.896V44.704H363.848V40.736H365.832V39.104H355.944V36.768H368.168V41.088H366.184V45.024H364.2V46.656H370.12V48.64H373.736V42.72H376.072V50.624H378.024V52.608H380.008V54.912H377.672V52.96H374.088V56.896H372.104V58.88H370.12V60.896H368.168V62.88H363.848V60.512H367.816V58.528H369.8V56.576H371.752V52.608H373.736V50.976H369.8V48.992H362.216V52.96H360.264V56.896H358.28V58.88H356.296V60.896H352.008V58.88H349.992V52.608ZM355.944 58.528V56.576H357.928V52.608H359.912V48.992H358.28V50.976H354.312V52.96H352.36V58.528H355.944ZM383.016 54.592H385.32V56.576H387.304V58.528H389.288V62.88H386.952V60.896H385V58.88H383.016V54.592ZM415.976 40.704H427.816V32.8H430.152V40.704H441.992V60.864H440.04V62.848H433.768V60.48H439.688V43.04H430.152V46.624H432.136V48.608H434.088V50.592H436.072V54.88H433.768V50.944H431.784V48.96H429.8V46.976H428.168V50.944H426.184V52.928H424.232V54.88H422.248V56.864H419.912V54.56H421.896V52.576H423.88V50.592H425.864V46.624H427.816V43.04H418.28V62.848H415.976V40.704ZM447.976 38.72H455.88V36.736H457.864V34.784H459.816V32.8H462.152V35.104H460.168V37.088H458.184V38.72H473.992V60.864H472.04V62.848H465.768V60.48H471.688V41.056H450.28V62.848H447.976V38.72ZM453.896 44.672H468.072V54.88H453.896V44.672ZM465.768 52.576V46.976H456.232V52.576H465.768ZM478.984 38.72H480.968V36.736H482.92V32.8H485.256V37.088H483.272V38.72H489.192V58.848H481.288V62.848H478.984V38.72ZM502.696 60.48V58.496H504.648V39.072H495.144V41.056H493.16V44.992H490.824V40.704H492.808V32.8H495.144V36.736H506.984V58.848H505V60.864H503.048V62.848H496.776V60.48H502.696ZM486.888 46.624V41.056H481.288V46.624H486.888ZM496.776 48.96H494.792V44.672H497.096V48.608H499.08V52.928H496.776V48.96ZM486.888 56.544V48.96H481.288V56.544H486.888ZM510.984 54.592H512.968V50.624H514.92V46.656H516.904V42.72H518.888V41.088H510.984V38.752H518.888V36.768H520.872V32.832H523.176V37.12H521.192V38.752H527.144V41.088H521.192V43.072H519.24V47.008H517.256V50.976H515.272V54.912H513.288V56.896H510.984V54.592ZM528.776 38.752H537V40.736H538.984V43.072H536.648V41.088H528.776V38.752ZM518.888 54.592H520.872V52.608H528.776V44.704H531.08V54.592H533.064V56.576H535.048V58.528H537V60.896H534.696V58.88H532.712V56.896H531.08V58.88H529.096V60.896H527.144V62.88H520.872V60.896H518.888V54.592ZM526.792 60.512V58.528H528.776V54.912H521.192V60.512H526.792ZM545.992 46.976H544.36V50.944H541.992V46.624H544.008V42.688H545.992V36.736H547.944V32.8H550.28V37.088H548.296V62.848H545.992V46.976ZM549.928 38.72H552.264V44.672H553.896V42.688H555.848V40.704H559.816V38.72H561.8V37.088H555.848V34.784H572.008V37.088H564.104V39.072H562.12V40.704H570.024V56.864H568.072V58.496H570.024V60.48H572.008V62.848H569.672V60.864H567.72V58.848H565.736V56.864H562.12V58.848H560.168V60.864H558.184V62.848H555.848V60.48H557.832V58.496H559.816V56.864H557.832V54.88H556.2V56.864H551.912V54.88H549.928V38.72ZM555.848 54.56V50.592H557.832V43.04H556.2V44.992H554.216V46.976H552.264V54.56H555.848ZM567.72 44.672V43.04H560.168V44.672H567.72ZM567.72 48.608V46.976H560.168V48.608H567.72ZM567.72 54.56V50.944H560.168V54.56H567.72ZM575.976 38.72H583.88V36.736H585.864V34.784H587.816V32.8H590.152V35.104H588.168V37.088H586.184V38.72H601.992V60.864H600.04V62.848H593.768V60.48H599.688V41.056H578.28V62.848H575.976V38.72ZM581.896 44.672H596.072V54.88H581.896V44.672ZM593.768 52.576V46.976H584.232V52.576H593.768ZM606.984 56.576H608.968V52.608H610.92V46.656H612.904V43.072H606.984V40.736H614.888V32.832H617.192V40.736H623.144V42.72H625.096V54.912H623.144V58.88H621.16V60.896H612.904V58.528H620.808V54.592H622.792V43.072H615.24V47.008H613.256V52.96H611.272V56.896H609.288V60.896H606.984V56.576ZM628.712 37.12H626.728V34.816H628.712V32.832H631.048V34.816H633V36.768H634.984V39.104H633V41.088H630.696V39.104H628.712V37.12ZM630.696 36.768V35.136H629.064V36.768H630.696ZM632.648 38.752V37.12H631.048V38.752H632.648ZM624.776 38.752H627.08V40.736H629.064V42.72H631.048V44.704H633V48.64H634.984V50.976H632.648V48.992H630.696V45.024H628.712V43.072H626.728V41.088H624.776V38.752ZM638.984 50.624H641V48.64H642.984V46.656H644.936V44.704H648.904V39.104H641V36.768H648.904V32.832H651.208V36.768H665.064V39.104H651.208V42.72H657.16V44.704H658.792V42.72H660.744V40.736H663.08V43.072H661.096V44.704H663.08V46.656H665.064V48.64H667.016V56.896H665.064V58.88H663.08V60.896H661.096V62.88H654.824V60.512H660.744V58.528H662.728V56.576H664.712V48.992H662.728V47.008H659.112V48.992H657.16V52.96H655.176V54.912H653.192V56.896H651.208V58.528H653.192V60.896H650.888V58.88H647.272V60.896H641V58.88H638.984V50.624ZM652.84 54.592V52.608H654.824V48.64H656.808V45.024H651.208V54.592H652.84ZM646.92 58.528V56.576H648.904V47.008H645.288V48.992H643.304V50.976H641.352V58.528H646.92ZM683.816 60.512V58.528H689.768V56.576H691.72V52.608H693.704V41.088H691.72V37.12H684.168V39.104H682.184V41.088H680.232V45.024H678.248V48.992H676.264V52.96H673.96V38.752H675.912V34.816H678.248V39.104H676.264V44.704H677.896V40.736H679.88V38.752H681.864V36.768H683.816V34.816H692.072V36.768H694.056V40.736H696.04V52.96H694.056V56.896H692.072V58.88H690.088V60.896H684.168V62.88H675.912V60.512H683.816ZM704.968 54.592H706.952V52.608H716.808V47.008H704.968V44.704H716.808V41.088H704.968V38.752H716.808V32.832H719.144V38.752H729.032V41.088H719.144V44.704H729.032V47.008H719.144V54.592H723.08V56.576H725.064V58.528H727.048V60.512H729.032V62.88H726.696V60.896H724.712V58.88H722.76V56.896H719.144V60.896H717.16V62.88H706.952V60.896H704.968V54.592ZM716.808 60.512V54.912H707.272V60.512H716.808ZM746.888 60.512V58.528H748.84V56.576H750.824V52.96H749.192V54.912H742.92V52.96H740.936V46.656H742.92V44.704H749.192V46.656H750.824V41.088H734.984V38.752H750.824V32.832H753.16V38.752H763.016V41.088H753.16V56.896H751.176V58.88H749.192V60.896H747.208V62.88H742.92V60.512H746.888ZM748.84 52.608V50.624H750.824V48.992H748.84V47.008H743.272V52.608H748.84ZM767.016 54.592H769V52.608H775.272V54.592H777.224V60.896H775.272V62.88H769V60.896H767.016V54.592ZM774.92 60.512V54.912H769.32V60.512H774.92ZM29.992 90.496H37.928V88.544H41.896V86.88H29.992V84.576H43.848V82.944H33.992V75.04H32.36V76.992H29.992V74.688H32.008V72.704H33.992V70.72H35.944V66.784H37.928V64.8H40.264V67.104H38.28V68.736H43.848V66.784H45.832V64.8H48.168V67.104H46.184V68.736H58.024V71.072H46.184V72.704H56.072V75.04H46.184V76.672H56.072V78.976H46.184V80.608H58.024V82.944H46.184V84.576H60.008V86.88H48.168V88.544H52.104V90.496H60.008V92.864H51.752V90.848H47.816V88.864H46.184V94.848H43.848V88.864H42.216V90.848H38.28V92.864H29.992V90.496ZM43.848 72.704V71.072H36.296V72.704H43.848ZM43.848 76.672V75.04H36.296V76.672H43.848ZM43.848 80.608V78.976H36.296V80.608H43.848ZM63.976 70.72H75.816V64.8H78.152V70.72H89.992V86.88H87.688V84.928H78.152V94.848H75.816V84.928H66.28V86.88H63.976V70.72ZM87.688 82.592V73.056H78.152V82.592H87.688ZM75.816 82.592V73.056H66.28V82.592H75.816ZM98.984 92.48V90.496H100.936V88.544H102.92V86.56H104.904V82.592H106.888V78.624H108.84V75.04H97V72.704H108.84V64.8H111.176V72.704H123.016V88.864H121.064V92.864H119.08V94.848H110.824V92.48H118.728V88.544H120.712V75.04H111.176V78.976H109.192V82.944H107.208V86.88H105.256V88.864H103.272V90.848H101.288V92.864H99.304V94.848H94.984V92.48H98.984ZM126.984 88.576H128.968V84.608H130.92V78.656H132.904V75.072H126.984V72.736H134.888V64.832H137.192V72.736H143.144V74.72H145.096V86.912H143.144V90.88H141.16V92.896H132.904V90.528H140.808V86.592H142.792V75.072H135.24V79.008H133.256V84.96H131.272V88.896H129.288V92.896H126.984V88.576ZM148.712 69.12H146.728V66.816H148.712V64.832H151.048V66.816H153V68.768H154.984V71.104H153V73.088H150.696V71.104H148.712V69.12ZM150.696 68.768V67.136H149.064V68.768H150.696ZM152.648 70.752V69.12H151.048V70.752H152.648ZM144.776 70.752H147.08V72.736H149.064V74.72H151.048V76.704H153V80.64H154.984V82.976H152.648V80.992H150.696V77.024H148.712V75.072H146.728V73.088H144.776V70.752ZM157.992 68.736H171.848V64.8H174.184V68.736H188.008V71.072H157.992V68.736ZM163.944 72.704H182.088V78.976H163.944V72.704ZM179.752 76.672V75.04H166.28V76.672H179.752ZM160.008 80.608H186.024V92.864H184.072V94.848H177.8V92.48H183.72V82.944H162.312V94.848H160.008V80.608ZM165.928 84.576H180.104V90.848H165.928V84.576ZM177.8 88.544V86.88H168.264V88.544H177.8ZM196.904 82.976H194.952V78.656H196.904V76.704H200.872V74.72H202.856V72.736H206.792V70.752H208.776V68.768H210.76V66.816H213.064V69.12H211.08V71.104H209.128V73.088H207.144V75.072H203.176V77.024H201.224V79.008H197.256V82.624H199.24V84.608H203.176V86.592H207.144V88.576H209.128V90.528H213.064V92.512H215.048V94.88H212.712V92.896H208.776V90.88H206.792V88.896H202.856V86.912H198.888V84.96H196.904V82.976ZM223.016 86.592H225.32V88.576H227.304V90.528H229.288V94.88H226.952V92.896H225V90.88H223.016V86.592ZM259.944 69.088H257.992V67.104H256.008V64.8H258.312V66.784H260.296V68.736H262.28V71.072H259.944V69.088ZM263.912 66.784H284.008V73.056H281.672V69.088H266.216V73.056H263.912V66.784ZM275.752 70.72H278.088V76.672H281.672V74.688H284.008V76.992H282.024V78.976H277.736V76.992H275.752V70.72ZM263.912 76.672H267.848V74.688H269.832V70.72H272.168V75.04H270.184V76.992H268.2V78.976H263.912V76.672ZM259.944 76.992H257.992V75.04H256.008V72.704H258.312V74.688H260.296V76.672H262.28V78.976H259.944V76.992ZM259.944 90.496H263.912V88.544H265.896V86.56H267.848V84.576H269.832V82.944H263.912V80.608H271.816V78.624H274.12V80.608H284.008V82.944H276.104V84.576H278.088V86.56H280.072V88.544H282.024V90.496H284.008V92.864H281.672V90.848H279.72V88.864H277.736V86.88H275.752V84.928H274.12V94.848H271.816V84.928H270.184V86.88H268.2V88.864H266.216V90.848H264.264V92.864H259.944V90.496ZM253.992 90.496H256.008V88.544H257.992V84.576H259.944V80.608H262.28V84.928H260.296V88.864H258.312V90.848H256.36V92.864H253.992V90.496ZM292.904 82.976H290.952V78.656H292.904V76.704H296.872V74.72H298.856V72.736H302.792V70.752H304.776V68.768H306.76V66.816H309.064V69.12H307.08V71.104H305.128V73.088H303.144V75.072H299.176V77.024H297.224V79.008H293.256V82.624H295.24V84.608H299.176V86.592H303.144V88.576H305.128V90.528H309.064V92.512H311.048V94.88H308.712V92.896H304.776V90.88H302.792V88.896H298.856V86.912H294.888V84.96H292.904V82.976ZM317.992 82.592H325.928V80.608H329.896V78.624H331.848V76.992H320.008V74.688H331.848V71.072H323.944V68.736H331.848V64.8H334.184V68.736H340.104V70.72H341.736V68.736H343.72V66.784H346.024V69.088H344.072V71.072H342.088V73.056H340.104V74.688H348.008V76.992H334.184V78.976H332.2V80.608H337.8V78.624H346.024V80.96H338.12V82.944H330.216V84.576H344.072V90.848H342.088V92.864H340.104V94.848H331.848V92.48H339.752V90.496H341.736V86.88H328.264V90.848H325.928V86.56H327.912V82.944H326.28V84.928H317.992V82.592ZM337.8 74.688V72.704H339.752V71.072H334.184V74.688H337.8ZM361.864 69.12H357.896V66.816H362.184V68.768H372.072V71.104H361.864V69.12ZM351.976 90.528H353.96V88.576H355.912V86.592H357.896V84.608H359.88V82.624H363.816V80.64H365.8V78.656H367.784V77.024H353.96V74.72H374.056V77.024H372.072V79.008H368.136V80.992H366.152V84.608H368.136V90.528H377.992V92.896H367.784V90.88H365.8V84.96H360.232V86.912H358.248V88.896H356.264V90.88H354.28V92.896H351.976V90.528ZM386.952 86.592H388.904V84.608H395.176V86.592H397.16V90.528H402.76V88.576H404.712V86.592H406.696V82.976H404.712V80.992H391.24V82.976H387.272V84.96H384.968V82.624H386.952V80.64H390.888V78.656H392.872V76.704H394.856V74.72H398.792V72.736H400.776V71.104H386.952V68.768H405.064V71.104H403.08V73.088H401.128V75.072H399.144V77.024H395.176V78.656H405.064V80.64H407.048V82.624H409.032V86.912H407.048V90.88H403.08V92.896H388.904V90.88H386.952V86.592ZM394.856 90.528V86.912H389.256V90.528H394.856ZM418.952 68.768H439.048V71.104H418.952V68.768ZM416.968 84.608H418.952V82.624H421.256V84.96H419.272V88.576H423.24V90.528H438.696V88.576H441.032V90.88H439.048V92.896H422.888V90.88H418.952V88.896H416.968V84.608ZM448.968 82.624H450.952V80.64H452.904V78.656H456.872V64.832H459.176V76.704H462.792V74.72H473.032V77.024H463.144V79.008H457.224V80.992H453.256V82.976H451.272V88.576H455.24V90.528H473.032V92.896H454.888V90.88H450.952V88.896H448.968V82.624ZM478.984 88.576H480.968V84.608H482.92V78.656H484.904V75.072H478.984V72.736H486.888V64.832H489.192V72.736H495.144V74.72H497.096V86.912H495.144V90.88H493.16V92.896H484.904V90.528H492.808V86.592H494.792V75.072H487.24V79.008H485.256V84.96H483.272V88.896H481.288V92.896H478.984V88.576ZM500.712 69.12H498.728V66.816H500.712V64.832H503.048V66.816H505V68.768H506.984V71.104H505V73.088H502.696V71.104H500.712V69.12ZM502.696 68.768V67.136H501.064V68.768H502.696ZM504.648 70.752V69.12H503.048V70.752H504.648ZM496.776 70.752H499.08V72.736H501.064V74.72H503.048V76.704H505V80.64H506.984V82.976H504.648V80.992H502.696V77.024H500.712V75.072H498.728V73.088H496.776V70.752ZM523.848 64.8H536.072V76.992H523.848V64.8ZM512.008 72.704H513.992V70.72H515.944V66.784H517.928V64.8H520.264V67.104H518.28V71.072H516.296V73.056H514.312V75.04H512.008V72.704ZM533.736 68.736V67.104H526.184V68.736H533.736ZM533.736 74.688V71.072H526.184V74.688H533.736ZM515.944 80.96H514.312V82.944H509.992V80.608H513.992V78.624H515.944V76.672H517.928V74.688H519.912V72.704H522.216V75.04H520.264V76.992H518.28V94.848H515.944V80.96ZM519.912 82.592H531.752V80.96H521.896V78.624H538.024V80.96H534.088V82.592H540.008V84.928H534.088V92.864H532.104V94.848H525.832V92.48H531.752V84.928H519.912V82.592ZM523.848 86.56H526.184V88.544H528.168V90.848H525.832V88.864H523.848V86.56ZM541.992 72.704H551.912V71.072H549.928V69.088H545.992V66.784H555.848V64.8H558.184V66.784H568.072V69.088H564.104V71.072H562.12V72.704H572.008V75.04H541.992V72.704ZM559.816 72.704V70.72H561.8V69.088H552.264V70.72H554.216V72.704H559.816ZM549.928 86.88H547.944V76.672H566.088V86.88H558.184V88.544H560.168V90.848H557.832V88.864H555.848V86.88H552.264V92.48H563.752V88.544H566.088V92.864H564.104V94.848H551.912V92.864H549.928V86.88ZM563.752 80.608V78.976H550.28V80.608H563.752ZM563.752 84.576V82.944H550.28V84.576H563.752ZM541.992 90.496H544.008V86.56H546.312V90.848H544.36V92.864H541.992V90.496ZM567.72 86.56H570.024V88.544H572.008V92.864H569.672V88.864H567.72V86.56ZM581.928 78.656H583.912V76.704H585.896V74.72H587.848V72.736H589.832V71.104H573.992V68.768H602.024V71.104H594.12V73.088H590.184V75.072H588.2V77.024H586.216V79.008H584.264V86.592H586.216V88.576H588.2V90.528H598.088V92.896H587.848V90.88H583.912V86.912H581.928V78.656ZM597.736 72.736H600.072V74.72H602.024V76.704H604.008V79.008H601.672V77.024H599.72V75.072H597.736V72.736ZM593.8 74.72H596.104V76.704H598.088V78.656H600.072V80.992H597.736V79.008H595.752V77.024H593.8V74.72ZM618.888 92.512V90.528H620.84V88.576H622.824V84.96H621.192V86.912H614.92V84.96H612.936V78.656H614.92V76.704H621.192V78.656H622.824V73.088H606.984V70.752H622.824V64.832H625.16V70.752H635.016V73.088H625.16V88.896H623.176V90.88H621.192V92.896H619.208V94.88H614.92V92.512H618.888ZM620.84 84.608V82.624H622.824V80.992H620.84V79.008H615.272V84.608H620.84ZM639.016 86.592H641V84.608H647.272V86.592H649.224V92.896H647.272V94.88H641V92.896H639.016V86.592ZM646.92 92.512V86.912H641.32V92.512H646.92ZM33.96 100.736H41.864V98.784H43.816V96.8H46.152V99.104H44.168V100.736H56.04V126.848H53.704V124.864H36.264V126.848H33.96V100.736ZM53.704 108.672V103.072H36.264V108.672H53.704ZM53.704 114.592V110.976H36.264V114.592H53.704ZM53.704 122.496V116.928H36.264V122.496H53.704ZM61.992 108.672H64.008V106.688H65.992V104.704H67.944V102.72H69.928V98.784H71.912V96.8H74.216V99.104H72.264V103.072H70.28V105.056H68.296V107.04H66.312V108.992H64.36V110.976H61.992V108.672ZM81.8 99.104H79.816V96.8H82.12V98.784H84.104V102.72H86.088V104.704H88.072V106.688H90.024V108.672H92.008V110.976H89.672V108.992H87.72V107.04H85.736V105.056H83.752V103.072H81.8V99.104ZM65.992 124.48V122.496H67.944V120.544H69.928V116.576H71.912V112.96H65.992V110.624H86.088V124.864H84.104V126.848H75.848V124.48H83.752V112.96H74.216V116.928H72.264V120.864H70.28V122.848H68.296V124.864H66.312V126.848H61.992V124.48H65.992ZM97 120.896H94.984V110.656H97V106.72H98.984V104.736H100.936V102.752H104.904V100.768H115.112V102.752H119.08V104.736H121.064V108.704H123.016V118.912H121.064V122.88H119.08V124.896H115.112V126.88H108.84V124.512H114.792V122.528H118.728V118.592H120.712V109.024H118.728V105.088H114.792V103.104H111.176V109.024H109.192V114.976H107.208V118.912H105.256V122.88H103.272V124.896H98.984V122.88H97V120.896ZM99.304 120.576V122.528H102.92V118.592H104.904V114.624H106.888V108.704H108.84V103.104H105.256V105.088H101.288V107.072H99.304V111.008H97.352V120.576H99.304ZM145.8 100.768H147.752V98.816H152.072V100.768H154.024V105.088H152.072V107.072H147.752V105.088H145.8V100.768ZM151.72 104.736V101.12H148.104V104.736H151.72ZM125.992 116.608H128.008V112.64H129.992V110.656H131.944V106.72H133.928V104.736H135.912V102.752H140.2V104.736H142.184V108.704H144.168V110.656H146.12V112.64H148.104V114.624H150.088V118.592H152.072V120.576H154.024V122.528H156.008V124.896H153.672V122.88H151.72V120.896H149.736V118.912H147.752V114.976H145.8V112.992H143.816V111.008H141.832V109.024H139.848V105.088H136.264V107.072H134.28V111.008H132.296V112.992H130.312V116.96H128.36V118.912H125.992V116.608ZM160.968 110.656H185.032V112.992H160.968V110.656ZM190.984 122.528H194.984V120.576H198.92V118.592H202.888V116.608H204.84V114.624H206.824V110.656H208.808V106.72H210.792V103.104H193V100.768H213.096V107.072H211.112V111.008H209.16V114.624H211.112V116.608H213.096V118.592H215.08V120.576H217.064V122.528H219.016V124.896H216.712V122.88H214.728V120.896H212.744V118.912H210.792V116.96H208.808V114.976H207.176V116.96H205.192V118.912H203.208V120.896H199.272V122.88H195.304V124.896H190.984V122.528ZM229.928 110.656H231.912V108.704H233.896V106.72H235.848V104.736H237.832V103.104H221.992V100.768H250.024V103.104H242.12V105.088H238.184V107.072H236.2V109.024H234.216V111.008H232.264V118.592H234.216V120.576H236.2V122.528H246.088V124.896H235.848V122.88H231.912V118.912H229.928V110.656ZM245.736 104.736H248.072V106.72H250.024V108.704H252.008V111.008H249.672V109.024H247.72V107.072H245.736V104.736ZM241.8 106.72H244.104V108.704H246.088V110.656H248.072V112.992H245.736V111.008H243.752V109.024H241.8V106.72ZM254.984 116.576H257V114.592H260.936V107.04H257.352V112.96H254.984V106.688H257V98.784H259.304V104.704H260.936V96.8H263.272V104.704H268.84V96.8H271.176V102.72H283.016V120.864H281.064V124.864H279.08V126.848H272.808V124.48H278.728V120.544H280.712V105.056H279.08V110.976H277.096V114.944H275.112V118.88H273.16V120.864H271.176V122.848H269.192V124.864H266.888V122.496H268.84V120.544H270.824V118.56H272.808V114.592H274.792V110.624H276.744V105.056H273.16V110.976H271.176V114.944H269.192V116.928H267.208V118.88H264.904V116.576H266.888V114.592H268.84V110.624H270.824V105.056H269.192V108.992H266.888V107.04H263.272V112.608H264.904V110.624H267.208V112.96H265.256V114.944H263.272V126.848H260.936V116.928H257.352V118.88H254.984V116.576ZM289.992 118.56H299.848V116.928H285.992V114.592H299.848V112.96H289.992V110.624H299.848V108.992H291.944V102.72H299.848V101.088H285.992V98.784H299.848V96.8H302.184V98.784H316.008V101.088H302.184V102.72H310.088V108.992H302.184V110.624H310.088V114.592H316.008V116.928H310.088V122.848H307.752V120.864H302.184V124.864H300.2V126.848H295.912V124.48H299.848V120.864H289.992V118.56ZM299.848 106.688V105.056H294.28V106.688H299.848ZM307.752 106.688V105.056H302.184V106.688H307.752ZM307.752 114.592V112.96H302.184V114.592H307.752ZM307.752 118.56V116.928H302.184V118.56H307.752ZM319.976 116.608H321.96V112.64H323.912V110.656H325.896V106.72H327.88V105.088H319.976V102.752H329.864V96.832H332.168V102.752H342.056V105.088H330.184V106.72H334.152V108.704H336.136V112.64H337.768V110.656H341.704V108.704H345.992V111.008H342.056V112.992H338.088V114.976H336.136V122.88H333.8V116.96H330.184V118.912H328.232V124.512H344.04V126.88H327.88V124.896H325.896V118.592H327.88V116.608H329.864V114.624H333.8V109.024H328.232V111.008H326.248V112.992H324.264V116.96H322.28V118.912H319.976V116.608ZM361.896 107.04H360.264V108.992H357.928V106.688H359.912V104.704H361.896V100.736H363.848V96.8H366.184V100.736H369.8V98.784H371.752V96.8H374.088V99.104H372.104V100.736H378.024V103.072H370.12V106.688H376.072V108.992H370.12V110.624H376.072V112.96H370.12V116.576H378.024V118.88H361.896V107.04ZM355.944 103.072H353.992V101.088H352.008V98.784H354.312V100.736H356.296V102.72H358.28V105.056H355.944V103.072ZM367.816 106.688V103.072H364.2V106.688H367.816ZM367.816 110.624V108.992H364.2V110.624H367.816ZM353.992 124.48V122.496H355.944V112.96H349.992V110.624H358.28V120.544H360.264V122.496H380.008V124.864H359.912V122.848H356.296V124.864H354.312V126.848H349.992V124.48H353.992ZM367.816 116.576V112.96H364.2V116.576H367.816ZM382.984 112.64H385V110.656H386.984V98.816H389.288V106.72H392.904V104.736H400.808V98.816H403.112V106.72H407.08V108.704H409.064V110.656H411.016V118.912H409.064V120.896H407.08V122.88H405.096V124.896H403.112V126.88H398.824V124.512H402.792V122.528H404.744V120.576H406.728V118.592H408.712V111.008H406.728V109.024H402.792V107.072H401.16V109.024H399.176V112.992H397.192V116.96H395.208V118.912H393.256V120.576H395.208V122.88H392.904V120.896H391.272V122.88H389.288V124.896H385V122.88H382.984V112.64ZM394.888 116.608V112.64H396.84V108.704H398.824V107.072H393.256V109.024H391.272V116.608H394.888ZM388.936 122.528V120.576H390.92V116.96H388.936V111.008H387.304V112.992H385.352V122.528H388.936ZM418.952 118.592H420.904V116.608H427.176V118.592H429.16V122.528H434.76V120.576H436.712V118.592H438.696V114.976H436.712V112.992H423.24V114.976H419.272V116.96H416.968V114.624H418.952V112.64H422.888V110.656H424.872V108.704H426.856V106.72H430.792V104.736H432.776V103.104H418.952V100.768H437.064V103.104H435.08V105.088H433.128V107.072H431.144V109.024H427.176V110.656H437.064V112.64H439.048V114.624H441.032V118.912H439.048V122.88H435.08V124.896H420.904V122.88H418.952V118.592ZM426.856 122.528V118.912H421.256V122.528H426.856ZM450.952 100.768H471.048V103.104H450.952V100.768ZM448.968 116.608H450.952V114.624H453.256V116.96H451.272V120.576H455.24V122.528H470.696V120.576H473.032V122.88H471.048V124.896H454.888V122.88H450.952V120.896H448.968V116.608ZM480.968 114.624H482.952V112.64H484.904V110.656H488.872V96.832H491.176V108.704H494.792V106.72H505.032V109.024H495.144V111.008H489.224V112.992H485.256V114.976H483.272V120.576H487.24V122.528H505.032V124.896H486.888V122.88H482.952V120.896H480.968V114.624ZM511.976 116.608H513.96V112.64H515.912V110.656H517.896V106.72H519.88V105.088H511.976V102.752H521.864V96.832H524.168V102.752H534.056V105.088H522.184V106.72H526.152V108.704H528.136V112.64H529.768V110.656H533.704V108.704H537.992V111.008H534.056V112.992H530.088V114.976H528.136V122.88H525.8V116.96H522.184V118.912H520.232V124.512H536.04V126.88H519.88V124.896H517.896V118.592H519.88V116.608H521.864V114.624H525.8V109.024H520.232V111.008H518.248V112.992H516.264V116.96H514.28V118.912H511.976V116.608ZM555.848 124.48V122.848H544.008V120.544H555.848V118.88H545.992V106.688H555.848V105.056H541.992V102.72H555.848V101.088H545.992V98.784H561.8V96.8H568.072V99.104H562.12V101.088H558.184V102.72H572.008V105.056H558.184V106.688H568.072V118.88H558.184V120.544H570.024V122.848H558.184V124.48H572.008V126.848H541.992V124.48H555.848ZM555.848 110.624V108.992H548.296V110.624H555.848ZM565.736 110.624V108.992H558.184V110.624H565.736ZM555.848 116.576V112.96H548.296V116.576H555.848ZM565.736 116.576V112.96H558.184V116.576H565.736ZM579.944 114.944H578.312V116.928H573.992V114.592H577.992V112.608H579.944V108.672H581.928V106.688H583.912V105.056H573.992V102.72H579.944V96.8H582.28V102.72H586.216V107.04H584.264V108.992H582.28V110.624H584.264V112.608H586.216V114.944H583.912V112.96H582.28V126.848H579.944V114.944ZM587.848 124.48V122.496H589.832V118.56H591.816V116.928H587.848V98.784H602.024V116.928H598.088V124.48H601.672V118.56H604.008V124.864H602.024V126.848H597.736V124.864H595.752V116.928H594.12V118.88H592.168V122.848H590.184V124.864H588.2V126.848H585.896V124.48H587.848ZM599.72 104.704V101.088H590.184V104.704H599.72ZM599.72 108.672V107.04H590.184V108.672H599.72ZM599.72 114.592V110.976H590.184V114.592H599.72ZM608.968 98.816H611.272V120.576H613.256V122.528H622.792V120.576H626.728V118.592H628.712V116.608H630.696V114.624H633V116.96H631.048V118.912H629.064V120.896H627.08V122.88H623.144V124.896H612.904V122.88H610.92V120.896H608.968V98.816ZM640.968 118.592H642.952V116.608H652.808V111.008H640.968V108.704H652.808V105.088H640.968V102.752H652.808V96.832H655.144V102.752H665.032V105.088H655.144V108.704H665.032V111.008H655.144V118.592H659.08V120.576H661.064V122.528H663.048V124.512H665.032V126.88H662.696V124.896H660.712V122.88H658.76V120.896H655.144V124.896H653.16V126.88H642.952V124.896H640.968V118.592ZM652.808 124.512V118.912H643.272V124.512H652.808ZM682.888 124.512V122.528H684.84V120.576H686.824V116.96H685.192V118.912H678.92V116.96H676.936V110.656H678.92V108.704H685.192V110.656H686.824V105.088H670.984V102.752H686.824V96.832H689.16V102.752H699.016V105.088H689.16V120.896H687.176V122.88H685.192V124.896H683.208V126.88H678.92V124.512H682.888ZM684.84 116.608V114.624H686.824V112.992H684.84V111.008H679.272V116.608H684.84ZM702.984 120.576H704.968V116.608H706.92V110.656H708.904V107.072H702.984V104.736H710.888V96.832H713.192V104.736H719.144V106.72H721.096V118.912H719.144V122.88H717.16V124.896H708.904V122.528H716.808V118.592H718.792V107.072H711.24V111.008H709.256V116.96H707.272V120.896H705.288V124.896H702.984V120.576ZM724.712 101.12H722.728V98.816H724.712V96.832H727.048V98.816H729V100.768H730.984V103.104H729V105.088H726.696V103.104H724.712V101.12ZM726.696 100.768V99.136H725.064V100.768H726.696ZM728.648 102.752V101.12H727.048V102.752H728.648ZM720.776 102.752H723.08V104.736H725.064V106.72H727.048V108.704H729V112.64H730.984V114.976H728.648V112.992H726.696V109.024H724.712V107.072H722.728V105.088H720.776V102.752ZM735.016 118.592H737.32V120.576H739.304V122.528H741.288V126.88H738.952V124.896H737V122.88H735.016V118.592ZM29.992 152.544H32.008V148.576H33.992V146.944H29.992V144.608H35.944V142.976H29.992V140.672H33.992V139.04H32.008V135.072H29.992V132.736H35.944V128.8H38.28V132.736H44.2V135.072H42.216V139.04H40.264V140.672H44.2V142.976H38.28V144.608H44.2V146.944H40.264V148.576H42.216V152.544H45.832V132.736H53.736V130.784H58.024V133.088H54.088V135.072H48.168V140.672H60.008V142.976H56.072V158.848H53.736V142.976H48.168V152.864H46.184V158.848H43.848V154.848H41.896V152.864H39.912V148.928H38.28V158.848H35.944V148.928H34.312V152.864H32.36V154.848H29.992V152.544ZM37.928 140.672V138.688H39.912V135.072H34.312V138.688H36.296V140.672H37.928ZM64.968 130.816H67.272V152.576H69.256V154.528H78.792V152.576H82.728V150.592H84.712V148.608H86.696V146.624H89V148.96H87.048V150.912H85.064V152.896H83.08V154.88H79.144V156.896H68.904V154.88H66.92V152.896H64.968V130.816ZM97.96 150.912H95.976V132.768H98.28V150.592H100.264V154.528H105.864V152.576H107.816V148.608H110.152V152.896H108.168V154.88H106.184V156.896H99.912V154.88H97.96V150.912ZM117.704 141.024H115.72V137.088H113.768V132.768H116.072V136.736H118.056V140.704H120.04V146.624H121.992V152.896H119.688V146.976H117.704V141.024ZM126.984 154.528H130.984V152.576H134.92V150.592H138.888V148.608H140.84V146.624H142.824V142.656H144.808V138.72H146.792V135.104H129V132.768H149.096V139.072H147.112V143.008H145.16V146.624H147.112V148.608H149.096V150.592H151.08V152.576H153.064V154.528H155.016V156.896H152.712V154.88H150.728V152.896H148.744V150.912H146.792V148.96H144.808V146.976H143.176V148.96H141.192V150.912H139.208V152.896H135.272V154.88H131.304V156.896H126.984V154.528ZM158.984 146.624H170.888V139.072H158.984V136.736H168.904V128.832H171.208V134.752H183.08V137.088H173.192V144.64H187.016V146.976H175.176V158.88H172.84V148.96H158.984V146.624ZM204.84 130.816H207.176V154.528H208.808V152.576H210.792V150.592H212.744V148.608H214.728V144.64H216.712V140.704H219.016V144.992H217.064V148.96H215.08V150.912H213.096V152.896H211.112V154.88H209.16V156.896H204.84V130.816ZM190.984 154.528H193V152.576H194.984V148.608H196.936V142.656H198.92V130.816H201.256V143.008H199.272V148.96H197.288V152.896H195.304V154.88H193.352V156.896H190.984V154.528ZM230.92 144.992H228.936V143.008H225.352V144.992H222.984V142.656H225V140.704H228.936V137.088H226.984V130.816H229.288V136.736H231.272V138.72H234.888V136.736H238.824V133.12H236.84V128.832H239.176V132.768H241.16V136.736H247.08V138.72H249.064V140.704H251.016V146.976H249.064V148.96H245.096V150.912H236.84V148.608H244.744V146.624H248.712V141.024H246.728V139.072H235.208V141.024H231.272V144.64H233.256V152.576H235.208V158.88H232.904V152.896H230.92V144.992ZM257 156.48V152.544H258.984V148.576H260.936V144.96H254.984V142.624H260.936V137.056H257.352V140.992H254.984V136.704H257V128.8H259.304V134.72H269.192V137.056H263.272V142.624H269.192V144.96H263.272V146.592H265.256V148.576H267.208V152.544H269.192V156.864H266.888V152.864H264.904V148.928H261.288V152.864H259.304V156.864H257.352V158.848H254.984V156.48H257ZM270.824 132.736H283.016V156.864H280.712V154.848H273.16V156.864H270.824V132.736ZM280.712 152.544V135.072H273.16V152.544H280.712ZM297.896 144.608H306.12V154.496H307.752V152.544H309.736V150.88H307.752V142.976H295.912V140.672H299.848V139.04H297.896V135.072H295.912V132.736H299.848V128.8H302.184V132.736H307.752V128.8H310.088V140.672H316.008V142.976H310.088V150.56H311.72V146.592H313.672V144.608H316.008V146.944H314.024V150.88H312.072V156.48H313.672V152.544H316.008V158.848H311.72V156.864H309.736V154.848H308.104V156.864H306.12V158.848H301.832V156.48H305.8V154.848H300.2V156.864H297.896V144.608ZM313.672 135.072H311.72V130.784H314.024V134.72H316.008V139.04H313.672V135.072ZM288.008 130.784H294.28V133.088H288.008V130.784ZM303.816 138.688V135.072H300.2V138.688H303.816ZM307.752 140.672V135.072H306.12V139.04H304.168V140.672H307.752ZM285.992 136.704H296.264V139.04H285.992V136.704ZM288.008 140.672H294.28V142.976H288.008V140.672ZM288.008 144.608H294.28V146.944H288.008V144.608ZM303.816 148.576V146.944H300.2V148.576H303.816ZM288.008 148.576H294.28V156.864H290.312V158.848H288.008V148.576ZM291.944 154.496V150.88H290.312V154.496H291.944ZM303.816 152.544V150.88H300.2V152.544H303.816ZM321 152.896H318.984V142.656H321V138.72H322.984V136.736H324.936V134.752H328.904V132.768H339.112V134.752H343.08V136.736H345.064V140.704H347.016V150.912H345.064V154.88H343.08V156.896H339.112V158.88H332.84V156.512H338.792V154.528H342.728V150.592H344.712V141.024H342.728V137.088H338.792V135.104H335.176V141.024H333.192V146.976H331.208V150.912H329.256V154.88H327.272V156.896H322.984V154.88H321V152.896ZM323.304 152.576V154.528H326.92V150.592H328.904V146.624H330.888V140.704H332.84V135.104H329.256V137.088H325.288V139.072H323.304V143.008H321.352V152.576H323.304ZM354.984 144.608H358.92V142.624H362.888V139.04H361.256V140.992H355.304V142.976H350.984V140.672H354.984V138.688H360.904V136.704H362.888V133.088H355.304V134.72H359.272V137.056H354.984V135.072H353V133.088H350.984V130.784H365.192V142.976H363.208V144.608H372.744V142.624H376.712V139.04H375.08V140.992H371.112V142.976H366.824V140.672H370.792V138.688H374.728V136.704H376.712V133.088H369.16V134.72H373.096V137.056H368.808V135.072H366.824V130.784H379.016V142.976H377.064V158.848H374.728V156.864H357.288V158.848H354.984V144.608ZM374.728 148.576V146.944H357.288V148.576H374.728ZM374.728 154.496V150.88H357.288V154.496H374.728ZM395.848 128.8H408.072V140.992H395.848V128.8ZM384.008 136.704H385.992V134.72H387.944V130.784H389.928V128.8H392.264V131.104H390.28V135.072H388.296V137.056H386.312V139.04H384.008V136.704ZM405.736 132.736V131.104H398.184V132.736H405.736ZM405.736 138.688V135.072H398.184V138.688H405.736ZM387.944 144.96H386.312V146.944H381.992V144.608H385.992V142.624H387.944V140.672H389.928V138.688H391.912V136.704H394.216V139.04H392.264V140.992H390.28V158.848H387.944V144.96ZM391.912 146.592H403.752V144.96H393.896V142.624H410.024V144.96H406.088V146.592H412.008V148.928H406.088V156.864H404.104V158.848H397.832V156.48H403.752V148.928H391.912V146.592ZM395.848 150.56H398.184V152.544H400.168V154.848H397.832V152.864H395.848V150.56ZM416.968 136.736H418.952V130.816H421.256V137.088H419.272V156.896H416.968V136.736ZM424.872 134.752H441.032V137.088H424.872V134.752ZM424.872 148.608H427.176V152.576H429.16V154.528H441.032V156.896H428.808V154.88H426.856V152.896H424.872V148.608ZM453.896 150.592H455.88V148.608H465.768V139.072H453.896V136.736H465.768V130.816H468.072V136.736H473.992V139.072H468.072V150.592H470.056V152.576H472.04V154.528H473.992V156.896H471.688V154.88H469.704V152.896H468.072V154.88H466.088V156.896H455.88V154.88H453.896V150.592ZM447.976 134.752H449.96V130.816H452.264V135.104H450.28V156.896H447.976V134.752ZM465.768 154.528V150.912H456.232V154.528H465.768ZM477.992 136.704H487.912V135.072H485.928V133.088H481.992V130.784H491.848V128.8H494.184V130.784H504.072V133.088H500.104V135.072H498.12V136.704H508.008V139.04H477.992V136.704ZM495.816 136.704V134.72H497.8V133.088H488.264V134.72H490.216V136.704H495.816ZM485.928 150.88H483.944V140.672H502.088V150.88H494.184V152.544H496.168V154.848H493.832V152.864H491.848V150.88H488.264V156.48H499.752V152.544H502.088V156.864H500.104V158.848H487.912V156.864H485.928V150.88ZM499.752 144.608V142.976H486.28V144.608H499.752ZM499.752 148.576V146.944H486.28V148.576H499.752ZM477.992 154.496H480.008V150.56H482.312V154.848H480.36V156.864H477.992V154.496ZM503.72 150.56H506.024V152.544H508.008V156.864H505.672V152.864H503.72V150.56ZM513.992 144.96H512.36V146.944H509.992V144.608H512.008V142.624H513.992V140.672H515.944V138.688H517.928V134.72H522.216V138.688H524.2V140.672H526.184V142.624H527.816V137.056H525.832V135.072H523.848V131.104H521.896V128.8H524.2V130.784H526.184V134.72H528.168V136.704H529.8V128.8H532.104V134.72H540.008V139.04H538.024V142.976H535.72V138.688H537.672V137.056H530.12V142.976H528.168V144.96H526.184V154.848H516.296V158.848H513.992V144.96ZM509.992 136.704H512.008V134.72H513.992V132.736H515.944V128.8H518.28V133.088H516.296V135.072H514.312V137.056H512.36V139.04H509.992V136.704ZM525.832 144.608V142.976H523.848V140.992H521.896V139.04H518.28V140.992H516.296V142.976H514.312V144.608H525.832ZM527.816 156.48V152.544H529.8V148.576H531.752V140.672H534.088V148.576H536.072V152.544H538.024V156.48H540.008V158.848H537.672V156.864H535.72V152.864H533.736V148.928H532.104V152.864H530.12V156.864H528.168V158.848H525.832V156.48H527.816ZM523.848 152.544V146.944H516.296V152.544H523.848ZM542.984 134.72H544.968V132.736H546.92V128.8H549.256V133.088H547.272V134.72H553.192V154.848H545.288V158.848H542.984V134.72ZM566.696 156.48V154.496H568.648V135.072H559.144V137.056H557.16V140.992H554.824V136.704H556.808V128.8H559.144V132.736H570.984V154.848H569V156.864H567.048V158.848H560.776V156.48H566.696ZM550.888 142.624V137.056H545.288V142.624H550.888ZM560.776 144.96H558.792V140.672H561.096V144.608H563.08V148.928H560.776V144.96ZM550.888 152.544V144.96H545.288V152.544H550.888ZM581.928 142.656H583.912V140.704H585.896V138.72H587.848V136.736H589.832V135.104H573.992V132.768H602.024V135.104H594.12V137.088H590.184V139.072H588.2V141.024H586.216V143.008H584.264V150.592H586.216V152.576H588.2V154.528H598.088V156.896H587.848V154.88H583.912V150.912H581.928V142.656ZM597.736 136.736H600.072V138.72H602.024V140.704H604.008V143.008H601.672V141.024H599.72V139.072H597.736V136.736ZM593.8 138.72H596.104V140.704H598.088V142.656H600.072V144.992H597.736V143.008H595.752V141.024H593.8V138.72ZM618.888 156.512V154.528H620.84V152.576H622.824V148.96H621.192V150.912H614.92V148.96H612.936V142.656H614.92V140.704H621.192V142.656H622.824V137.088H606.984V134.752H622.824V128.832H625.16V134.752H635.016V137.088H625.16V152.896H623.176V154.88H621.192V156.896H619.208V158.88H614.92V156.512H618.888ZM620.84 148.608V146.624H622.824V144.992H620.84V143.008H615.272V148.608H620.84ZM639.016 150.592H641V148.608H647.272V150.592H649.224V156.896H647.272V158.88H641V156.896H639.016V150.592ZM646.92 156.512V150.912H641.32V156.512H646.92Z"></path>
</svg>
