<svg version="1.1" xmlns="http://www.w3.org/2000/svg" xmlns:xlink="http://www.w3.org/1999/xlink" width="45.744" height="22.536" viewBox="0,0,45.744,22.536"><g transform="translate(-217.128,-168.732)"><g data-paper-data="{&quot;isPaintingLayer&quot;:true}" fill="#ffffff" fill-rule="nonzero" stroke="none" stroke-width="1" stroke-linecap="butt" stroke-linejoin="miter" stroke-miterlimit="10" stroke-dasharray="" stroke-dashoffset="0" style="mix-blend-mode: normal"><path d="M218.64,180.588h7.416v-1.224h-7.416v-1.728h7.656v1.464h1.224v-1.464h1.488v-7.416h6.192v7.416h2.688v-2.976h1.752v3.216h-1.488v1.488h-3.216v-1.488h-1.488v-5.928h-2.688v5.928h-1.488v1.488h-1.488v1.224h8.904v4.704h-1.488v1.488h-1.488v1.224h2.976v1.488h2.952v1.776h-3.216v-1.488h-2.976v-1.512h-1.224v1.512h-1.464v1.488h-3.24v-1.776h2.976v-1.488h1.488v-1.224h-1.488v-1.488h-1.488v-2.952h-1.488v-1.488h-1.224v1.488h-7.656zM218.64,170.22h7.656v1.728h-7.656zM217.128,174.66h10.656v1.752h-10.656zM232.224,185.052v1.488h1.224v-1.488h1.488v-2.712h-4.176v2.712zM218.64,183.564h7.656v6.216h-5.928v1.488h-1.728zM224.568,188.004v-2.712h-4.2v2.712zM243.36,189.492v-2.952h1.464v-5.952h1.752v4.464h1.488v1.488h2.688v-8.664h-7.392v-1.464h-1.488v-4.728h8.88v-2.952h1.752v2.952h8.88v4.728h-1.464v1.464h-7.416v2.712h7.416v1.752h-7.416v5.664h10.368v1.776h-12.12v-1.512h-2.952v-1.488h-2.712v3h-1.488v1.488h-1.728v-1.776zM259.656,176.148v-2.712h-16.056v2.712z"/></g></g></svg>