<svg xmlns="http://www.w3.org/2000/svg" fill="none" viewBox="0 0 58 30" height="30" width="58">
<path fill="white" d="M20.72 6.872H19.976V6.128H18.632V6.872H17.744V5.996H18.5V5.264H19.976V3.908H19.244V1.556H20.108V3.776H20.852V4.52H22.208V3.776H23.684V2.42H22.94V0.812H23.816V2.288H24.56V3.776H26.78V4.52H27.524V5.264H28.256V7.616H27.524V8.36H26.036V9.092H22.94V8.228H25.904V7.484H27.392V5.384H26.648V4.652H22.328V5.384H20.852V6.74H21.596V9.716H22.328V12.08H21.464V9.836H20.72V6.872ZM32.72 6.872H31.976V6.128H30.632V6.872H29.744V5.996H30.5V5.264H31.976V3.908H31.244V1.556H32.108V3.776H32.852V4.52H34.208V3.776H35.684V2.42H34.94V0.812H35.816V2.288H36.56V3.776H38.78V4.52H39.524V5.264H40.256V7.616H39.524V8.36H38.036V9.092H34.94V8.228H37.904V7.484H39.392V5.384H38.648V4.652H34.328V5.384H32.852V6.74H33.596V9.716H34.328V12.08H33.464V9.836H32.72V6.872ZM0.116 27.436H9.008V25.348H0.86V24.472H9.008V23.116H0.116V22.252H4.556V17.8H5.432V22.252H9.872V29.068H9.008V28.324H0.116V27.436ZM2.336 20.152H1.592V19.408H0.86V18.544H1.724V19.276H2.468V20.02H3.212V21.64H2.336V20.152ZM6.788 20.764H7.52V20.02H8.264V18.544H9.14V20.152H8.396V20.896H7.652V21.64H6.788V20.764ZM14.72 22.996H15.464V22.264H16.208V21.52H16.94V20.776H17.684V20.164H11.744V19.288H22.256V20.164H19.292V20.908H17.816V21.652H17.072V22.384H16.328V23.128H15.596V25.972H16.328V26.716H17.072V27.448H20.78V28.336H16.94V27.58H15.464V26.092H14.72V22.996ZM26.336 25.972H27.08V25.228H30.788V21.652H26.336V20.776H30.788V18.556H31.652V20.776H33.872V21.652H31.652V25.972H32.396V26.716H33.14V27.448H33.872V28.336H33.008V27.58H32.264V26.836H31.652V27.58H30.908V28.336H27.08V27.58H26.336V25.972ZM24.116 20.032H24.86V18.556H25.724V20.164H24.98V28.336H24.116V20.032ZM30.788 27.448V26.092H27.212V27.448H30.788ZM36.488 25.972H37.232V25.228H40.928V23.128H36.488V22.264H40.928V20.908H36.488V20.032H40.928V17.812H41.804V20.032H45.512V20.908H41.804V22.264H45.512V23.128H41.804V25.972H43.28V26.716H44.024V27.448H44.768V28.192H45.512V29.08H44.636V28.336H43.892V27.58H43.16V26.836H41.804V28.336H41.06V29.08H37.232V28.336H36.488V25.972ZM40.928 28.192V26.092H37.352V28.192H40.928ZM49.232 25.972H49.964V25.228H52.316V25.972H53.06V27.448H55.16V26.716H55.892V25.972H56.636V24.616H55.892V23.872H50.84V24.616H49.352V25.36H48.488V24.484H49.232V23.74H50.708V22.996H51.452V22.264H52.196V21.52H53.672V20.776H54.416V20.164H49.232V19.288H56.024V20.164H55.28V20.908H54.548V21.652H53.804V22.384H52.316V22.996H56.024V23.74H56.768V24.484H57.512V26.092H56.768V27.58H55.28V28.336H49.964V27.58H49.232V25.972ZM52.196 27.448V26.092H50.096V27.448H52.196Z"></path>
</svg>
