<svg xmlns="http://www.w3.org/2000/svg" fill="none" viewBox="0 0 778 191" height="191" width="778">
<path fill="black" d="M0.968 14.656H4.904V12.704H8.872V10.72H12.808V8.736H16.776V6.752H20.712V4.768H25.032V7.104H21.064V9.088H17.128V11.072H13.16V13.024H9.224V15.008H5.256V18.624H9.224V20.608H13.16V22.592H17.128V24.576H21.064V26.528H25.032V28.896H20.712V26.88H16.776V24.896H12.808V22.912H8.872V20.96H4.904V18.976H0.968V14.656ZM29.992 20.576H33.992V18.592H35.944V11.04H32.36V16.96H29.992V10.688H32.008V2.784H34.312V8.704H35.944V0.799999H38.28V8.704H42.216V10.688H49.8V7.072H43.848V4.736H49.8V0.799999H52.104V4.736H58.024V7.072H52.104V10.688H60.008V12.992H56.072V16.608H60.008V18.944H56.072V28.864H54.088V30.848H47.816V28.48H53.736V18.944H41.896V16.96H40.264V18.944H38.28V30.848H35.944V20.928H34.312V22.88H29.992V20.576ZM39.912 16.608V14.624H42.216V16.608H53.736V12.992H41.896V11.04H38.28V16.608H39.912ZM45.832 20.576H48.168V22.56H50.12V24.864H47.816V22.88H45.832V20.576ZM69.928 24.544H75.848V20.928H71.912V18.592H75.848V16.96H71.912V14.624H81.8V12.672H83.752V0.799999H86.088V8.704H92.008V11.04H90.024V18.944H88.072V24.544H90.024V28.48H92.008V30.848H89.672V28.864H87.72V24.864H86.088V26.848H84.104V28.864H82.12V30.848H79.816V28.48H81.8V26.496H83.752V24.544H85.736V18.944H83.752V14.976H82.12V16.96H78.184V18.592H82.12V20.576H84.104V22.88H82.12V24.864H78.184V26.848H69.928V24.544ZM71.912 2.784H74.216V8.704H75.848V0.799999H78.184V8.704H79.816V2.784H82.12V11.04H71.912V2.784ZM61.992 8.704H64.008V6.72H65.992V4.736H67.944V0.799999H70.28V5.088H68.296V7.072H66.312V9.056H64.36V11.04H61.992V8.704ZM65.992 16.96H64.36V18.944H61.992V16.608H64.008V14.624H65.992V12.672H67.944V8.704H70.28V12.992H68.296V30.848H65.992V16.96ZM87.72 18.592V11.04H86.088V18.592H87.72ZM81.8 22.56V20.928H78.184V22.56H81.8ZM96.968 26.528H100.904V24.576H104.872V22.592H108.808V20.608H112.776V18.624H116.712V15.008H112.776V13.024H108.808V11.072H104.872V9.088H100.904V7.104H96.968V4.768H101.256V6.752H105.224V8.736H109.16V10.72H113.128V12.704H117.064V14.656H121.032V18.976H117.064V20.96H113.128V22.912H109.16V24.896H105.224V26.88H101.256V28.896H96.968V26.528ZM37.928 40.704H43.848V39.072H29.992V36.736H43.848V32.8H46.184V36.736H60.008V39.072H46.184V40.704H54.088V56.864H37.928V40.704ZM32.008 42.688H34.312V58.496H60.008V60.864H34.312V62.848H32.008V42.688ZM51.752 44.672V43.04H40.264V44.672H51.752ZM51.752 48.608V46.976H40.264V48.608H51.752ZM51.752 54.56V50.944H40.264V54.56H51.752ZM61.992 50.592H64.008V46.624H65.992V36.736H77.832V32.8H80.168V36.736H87.72V35.104H85.736V32.8H88.072V34.784H90.024V36.736H92.008V39.072H80.168V42.688H82.12V46.624H83.752V44.672H85.736V40.704H88.072V44.992H86.088V46.976H84.104V48.608H86.088V50.592H89.672V46.624H92.008V50.944H90.024V52.928H85.736V50.944H83.752V48.96H82.12V50.944H80.168V52.928H78.184V54.56H80.168V56.864H77.832V54.88H75.848V52.576H77.832V50.944H69.928V44.672H78.184V50.592H79.816V48.608H81.8V46.976H79.816V43.04H68.296V46.976H66.312V50.944H64.36V52.928H61.992V50.592ZM77.832 40.704V39.072H68.296V40.704H77.832ZM75.848 48.608V46.976H72.264V48.608H75.848ZM71.912 54.56H74.216V60.48H83.752V56.544H86.088V60.864H84.104V62.848H73.896V60.864H71.912V54.56ZM87.72 54.56H90.024V58.496H92.008V62.848H89.672V58.848H87.72V54.56ZM64.008 58.496H65.992V54.56H68.296V58.848H66.312V62.848H64.008V58.496ZM95.976 52.608H97.96V48.64H99.912V46.656H101.896V42.72H103.88V41.088H95.976V38.752H105.864V32.832H108.168V38.752H118.056V41.088H106.184V42.72H110.152V44.704H112.136V48.64H113.768V46.656H117.704V44.704H121.992V47.008H118.056V48.992H114.088V50.976H112.136V58.88H109.8V52.96H106.184V54.912H104.232V60.512H120.04V62.88H103.88V60.896H101.896V54.592H103.88V52.608H105.864V50.624H109.8V45.024H104.232V47.008H102.248V48.992H100.264V52.96H98.28V54.912H95.976V52.608ZM139.848 60.48V58.848H128.008V56.544H139.848V54.88H129.992V42.688H139.848V41.056H125.992V38.72H139.848V37.088H129.992V34.784H145.8V32.8H152.072V35.104H146.12V37.088H142.184V38.72H156.008V41.056H142.184V42.688H152.072V54.88H142.184V56.544H154.024V58.848H142.184V60.48H156.008V62.848H125.992V60.48H139.848ZM139.848 46.624V44.992H132.296V46.624H139.848ZM149.736 46.624V44.992H142.184V46.624H149.736ZM139.848 52.576V48.96H132.296V52.576H139.848ZM149.736 52.576V48.96H142.184V52.576H149.736ZM163.944 50.944H162.312V52.928H157.992V50.592H161.992V48.608H163.944V44.672H165.928V42.688H167.912V41.056H157.992V38.72H163.944V32.8H166.28V38.72H170.216V43.04H168.264V44.992H166.28V46.624H168.264V48.608H170.216V50.944H167.912V48.96H166.28V62.848H163.944V50.944ZM171.848 60.48V58.496H173.832V54.56H175.816V52.928H171.848V34.784H186.024V52.928H182.088V60.48H185.672V54.56H188.008V60.864H186.024V62.848H181.736V60.864H179.752V52.928H178.12V54.88H176.168V58.848H174.184V60.864H172.2V62.848H169.896V60.48H171.848ZM183.72 40.704V37.088H174.184V40.704H183.72ZM183.72 44.672V43.04H174.184V44.672H183.72ZM183.72 50.592V46.976H174.184V50.592H183.72ZM192.968 34.816H195.272V56.576H197.256V58.528H206.792V56.576H210.728V54.592H212.712V52.608H214.696V50.624H217V52.96H215.048V54.912H213.064V56.896H211.08V58.88H207.144V60.896H196.904V58.88H194.92V56.896H192.968V34.816ZM223.016 54.592H225.32V56.576H227.304V58.528H229.288V62.88H226.952V60.896H225V58.88H223.016V54.592ZM257.992 34.784H280.072V48.96H257.992V34.784ZM267.848 40.704V37.088H260.296V40.704H267.848ZM277.736 40.704V37.088H270.184V40.704H277.736ZM267.848 46.624V43.04H260.296V46.624H267.848ZM277.736 46.624V43.04H270.184V46.624H277.736ZM265.896 50.592H270.184V52.576H274.12V54.88H269.832V52.928H265.896V50.592ZM261.928 52.576H264.264V60.48H275.752V56.544H278.088V60.864H276.104V62.848H263.912V60.864H261.928V52.576ZM253.992 56.544H256.008V52.576H258.312V56.864H256.36V60.864H253.992V56.544ZM279.72 52.576H282.024V54.56H284.008V60.864H281.672V54.88H279.72V52.576ZM289.96 54.912H287.976V36.768H290.28V54.592H292.264V58.528H297.864V56.576H299.816V52.608H302.152V56.896H300.168V58.88H298.184V60.896H291.912V58.88H289.96V54.912ZM309.704 45.024H307.72V41.088H305.768V36.768H308.072V40.736H310.056V44.704H312.04V50.624H313.992V56.896H311.688V50.976H309.704V45.024ZM324.936 58.528H334.824V56.576H340.744V54.592H342.728V52.608H344.712V45.024H342.728V43.072H340.744V41.088H327.272V43.072H318.984V40.736H326.92V38.752H341.096V40.736H343.08V42.72H345.064V44.704H347.016V52.96H345.064V54.912H343.08V56.896H341.096V58.88H335.176V60.896H324.936V58.528ZM354.952 52.608H356.904V50.624H370.76V48.992H368.776V47.008H352.968V44.704H366.792V43.072H364.808V41.088H352.968V38.752H362.856V37.12H360.872V32.832H363.176V36.768H365.16V38.752H368.776V36.768H375.048V39.104H369.128V41.088H367.144V42.72H369.128V44.704H370.76V42.72H377.032V45.024H371.08V48.64H373.064V50.624H375.048V52.608H377.032V54.912H372.712V52.96H357.256V58.528H375.048V60.896H356.904V58.88H354.952V52.608ZM389.928 46.656H391.912V44.704H393.896V42.72H395.848V40.736H397.832V39.104H381.992V36.768H410.024V39.104H402.12V41.088H398.184V43.072H396.2V45.024H394.216V47.008H392.264V54.592H394.216V56.576H396.2V58.528H406.088V60.896H395.848V58.88H391.912V54.912H389.928V46.656ZM405.736 40.736H408.072V42.72H410.024V44.704H412.008V47.008H409.672V45.024H407.72V43.072H405.736V40.736ZM401.8 42.72H404.104V44.704H406.088V46.656H408.072V48.992H405.736V47.008H403.752V45.024H401.8V42.72ZM413.992 40.704H417.992V38.72H419.944V34.784H421.928V32.8H424.264V35.104H422.28V39.072H420.296V41.056H418.312V43.04H413.992V40.704ZM427.848 34.784H442.024V37.088H427.848V34.784ZM419.944 48.96H418.312V50.944H413.992V48.608H417.992V46.624H419.944V44.672H421.928V42.688H423.912V40.704H426.216V42.688H444.008V44.992H438.088V60.864H436.104V62.848H429.832V60.48H435.752V44.992H425.896V43.04H424.264V44.992H422.28V62.848H419.944V48.96ZM453.928 60.48V56.864H448.008V54.56H453.928V52.928H448.008V42.688H453.928V41.056H445.992V38.72H453.928V37.088H448.008V34.784H457.896V32.8H462.184V35.104H458.216V37.088H456.264V38.72H462.184V40.704H465.8V32.8H468.104V40.704H476.008V60.864H474.024V62.848H467.752V60.48H473.672V43.04H468.104V54.88H466.12V60.864H464.168V62.848H461.832V60.864H456.264V62.848H445.992V60.48H453.928ZM461.832 42.688V41.056H456.264V42.688H461.832ZM462.184 58.496V60.48H463.816V54.56H465.8V43.04H462.184V52.928H456.264V54.56H462.184V56.864H456.264V58.496H462.184ZM453.928 46.624V44.992H450.312V46.624H453.928ZM459.848 46.624V44.992H456.264V46.624H459.848ZM459.848 50.592V48.96H456.264V50.592H459.848ZM453.928 50.592V48.96H450.312V50.592H453.928ZM490.888 60.512V58.528H492.84V56.576H494.824V52.96H493.192V54.912H486.92V52.96H484.936V46.656H486.92V44.704H493.192V46.656H494.824V41.088H478.984V38.752H494.824V32.832H497.16V38.752H507.016V41.088H497.16V56.896H495.176V58.88H493.192V60.896H491.208V62.88H486.92V60.512H490.888ZM492.84 52.608V50.624H494.824V48.992H492.84V47.008H487.272V52.608H492.84ZM514.952 54.592H516.904V52.608H523.176V54.592H525.16V58.528H530.76V56.576H532.712V54.592H534.696V50.976H532.712V48.992H519.24V50.976H515.272V52.96H512.968V50.624H514.952V48.64H518.888V46.656H520.872V44.704H522.856V42.72H526.792V40.736H528.776V39.104H514.952V36.768H533.064V39.104H531.08V41.088H529.128V43.072H527.144V45.024H523.176V46.656H533.064V48.64H535.048V50.624H537.032V54.912H535.048V58.88H531.08V60.896H516.904V58.88H514.952V54.592ZM522.856 58.528V54.912H517.256V58.528H522.856ZM546.952 36.768H567.048V39.104H546.952V36.768ZM544.968 52.608H546.952V50.624H549.256V52.96H547.272V56.576H551.24V58.528H566.696V56.576H569.032V58.88H567.048V60.896H550.888V58.88H546.952V56.896H544.968V52.608ZM576.968 50.624H578.952V48.64H580.904V46.656H584.872V32.832H587.176V44.704H590.792V42.72H601.032V45.024H591.144V47.008H585.224V48.992H581.256V50.976H579.272V56.576H583.24V58.528H601.032V60.896H582.888V58.88H578.952V56.896H576.968V50.624ZM606.984 56.576H608.968V52.608H610.92V46.656H612.904V43.072H606.984V40.736H614.888V32.832H617.192V40.736H623.144V42.72H625.096V54.912H623.144V58.88H621.16V60.896H612.904V58.528H620.808V54.592H622.792V43.072H615.24V47.008H613.256V52.96H611.272V56.896H609.288V60.896H606.984V56.576ZM628.712 37.12H626.728V34.816H628.712V32.832H631.048V34.816H633V36.768H634.984V39.104H633V41.088H630.696V39.104H628.712V37.12ZM630.696 36.768V35.136H629.064V36.768H630.696ZM632.648 38.752V37.12H631.048V38.752H632.648ZM624.776 38.752H627.08V40.736H629.064V42.72H631.048V44.704H633V48.64H634.984V50.976H632.648V48.992H630.696V45.024H628.712V43.072H626.728V41.088H624.776V38.752ZM650.888 60.48V58.496H654.824V54.88H652.84V52.928H649.256V54.88H642.984V52.576H648.904V50.592H652.84V48.608H654.824V46.976H651.208V48.96H645.288V50.944H638.984V48.608H644.936V46.624H650.888V43.04H648.904V41.056H647.272V43.04H641V40.704H646.92V38.72H648.904V36.736H650.888V32.8H653.192V36.736H663.08V39.072H661.096V41.056H659.112V43.04H657.16V44.672H659.112V46.976H657.16V48.608H667.016V50.944H665.064V52.928H663.08V54.88H661.096V56.864H659.112V58.848H655.176V60.864H651.208V62.848H641V60.48H650.888ZM654.824 44.672V42.688H656.808V40.704H658.792V39.072H649.256V40.704H651.208V42.688H653.192V44.672H654.824ZM656.808 46.624V44.992H655.176V46.624H656.808ZM655.176 52.576V54.56H657.16V56.544H658.792V54.56H660.744V52.576H662.728V50.944H653.192V52.576H655.176ZM673.96 54.912H671.976V36.768H674.28V54.592H676.264V58.528H681.864V56.576H683.816V52.608H686.152V56.896H684.168V58.88H682.184V60.896H675.912V58.88H673.96V54.912ZM693.704 45.024H691.72V41.088H689.768V36.768H692.072V40.736H694.056V44.704H696.04V50.624H697.992V56.896H695.688V50.976H693.704V45.024ZM709.928 46.656H711.912V44.704H713.896V42.72H715.848V40.736H717.832V39.104H701.992V36.768H730.024V39.104H722.12V41.088H718.184V43.072H716.2V45.024H714.216V47.008H712.264V54.592H714.216V56.576H716.2V58.528H726.088V60.896H715.848V58.88H711.912V54.912H709.928V46.656ZM725.736 40.736H728.072V42.72H730.024V44.704H732.008V47.008H729.672V45.024H727.72V43.072H725.736V40.736ZM721.8 42.72H724.104V44.704H726.088V46.656H728.072V48.992H725.736V47.008H723.752V45.024H721.8V42.72ZM746.888 60.512V58.528H748.84V56.576H750.824V52.96H749.192V54.912H742.92V52.96H740.936V46.656H742.92V44.704H749.192V46.656H750.824V41.088H734.984V38.752H750.824V32.832H753.16V38.752H763.016V41.088H753.16V56.896H751.176V58.88H749.192V60.896H747.208V62.88H742.92V60.512H746.888ZM748.84 52.608V50.624H750.824V48.992H748.84V47.008H743.272V52.608H748.84ZM767.016 54.592H769V52.608H775.272V54.592H777.224V60.896H775.272V62.88H769V60.896H767.016V54.592ZM774.92 60.512V54.912H769.32V60.512H774.92ZM29.992 90.496H37.928V88.544H41.896V86.88H29.992V84.576H43.848V82.944H39.912V80.96H36.296V82.944H29.992V80.608H35.944V78.624H39.912V76.992H32.008V74.688H43.848V73.056H39.912V70.72H44.2V72.704H45.832V70.72H49.8V69.088H33.992V66.784H54.088V69.088H52.104V71.072H50.12V73.056H46.184V74.688H56.072V78.976H54.088V80.96H51.752V78.624H53.736V76.992H46.184V80.96H44.2V82.592H46.184V84.576H58.024V86.88H48.168V88.544H52.104V90.496H60.008V92.864H51.752V90.848H47.816V88.864H46.184V94.848H43.848V88.864H42.216V90.848H38.28V92.864H29.992V90.496ZM43.848 80.608V76.992H42.216V78.976H40.264V80.608H43.848ZM61.992 86.56H67.944V84.928H64.008V72.704H67.944V71.072H61.992V68.736H67.944V64.8H70.28V68.736H78.184V71.072H70.28V72.704H76.2V78.624H77.832V72.704H79.816V64.8H82.12V70.72H90.024V75.04H88.072V78.976H85.736V74.688H87.72V73.056H80.168V78.976H78.184V80.96H76.2V84.928H70.28V86.56H78.184V88.864H70.28V94.848H67.944V88.864H61.992V86.56ZM77.832 92.48V90.496H79.816V84.576H81.8V74.688H84.104V82.592H86.088V86.56H88.072V90.496H90.024V92.48H92.008V94.848H89.672V92.864H87.72V90.848H85.736V86.88H83.752V84.928H82.12V90.848H80.168V92.864H78.184V94.848H75.848V92.48H77.832ZM73.896 76.672V75.04H70.28V76.672H73.896ZM67.944 76.672V75.04H66.312V76.672H67.944ZM73.896 82.592V78.976H70.28V82.592H73.896ZM67.944 82.592V78.976H66.312V82.592H67.944ZM99.944 64.8H102.28V70.72H104.264V72.704H106.216V74.688H107.848V66.784H110.184V72.704H113.8V64.8H116.104V72.704H122.024V75.04H116.104V80.608H122.024V82.944H116.104V90.496H124.008V92.864H103.912V90.496H113.8V82.944H107.848V80.608H113.8V75.04H108.2V78.976H106.216V80.96H103.912V78.624H105.896V76.992H103.912V73.056H102.28V94.848H99.944V64.8ZM93.992 78.624H96.008V72.704H98.312V78.976H96.36V82.944H93.992V78.624ZM126.984 88.576H128.968V84.608H130.92V78.656H132.904V75.072H126.984V72.736H134.888V64.832H137.192V72.736H143.144V74.72H145.096V86.912H143.144V90.88H141.16V92.896H132.904V90.528H140.808V86.592H142.792V75.072H135.24V79.008H133.256V84.96H131.272V88.896H129.288V92.896H126.984V88.576ZM148.712 69.12H146.728V66.816H148.712V64.832H151.048V66.816H153V68.768H154.984V71.104H153V73.088H150.696V71.104H148.712V69.12ZM150.696 68.768V67.136H149.064V68.768H150.696ZM152.648 70.752V69.12H151.048V70.752H152.648ZM144.776 70.752H147.08V72.736H149.064V74.72H151.048V76.704H153V80.64H154.984V82.976H152.648V80.992H150.696V77.024H148.712V75.072H146.728V73.088H144.776V70.752ZM158.984 82.624H161V80.64H162.984V78.656H164.936V76.704H168.904V71.104H161V68.768H168.904V64.832H171.208V68.768H185.064V71.104H171.208V74.72H177.16V76.704H178.792V74.72H180.744V72.736H183.08V75.072H181.096V76.704H183.08V78.656H185.064V80.64H187.016V88.896H185.064V90.88H183.08V92.896H181.096V94.88H174.824V92.512H180.744V90.528H182.728V88.576H184.712V80.992H182.728V79.008H179.112V80.992H177.16V84.96H175.176V86.912H173.192V88.896H171.208V90.528H173.192V92.896H170.888V90.88H167.272V92.896H161V90.88H158.984V82.624ZM172.84 86.592V84.608H174.824V80.64H176.808V77.024H171.208V86.592H172.84ZM166.92 90.528V88.576H168.904V79.008H165.288V80.992H163.304V82.976H161.352V90.528H166.92ZM203.816 92.512V90.528H209.768V88.576H211.72V84.608H213.704V73.088H211.72V69.12H204.168V71.104H202.184V73.088H200.232V77.024H198.248V80.992H196.264V84.96H193.96V70.752H195.912V66.816H198.248V71.104H196.264V76.704H197.896V72.736H199.88V70.752H201.864V68.768H203.816V66.816H212.072V68.768H214.056V72.736H216.04V84.96H214.056V88.896H212.072V90.88H210.088V92.896H204.168V94.88H195.912V92.512H203.816ZM223.016 86.592H225.32V88.576H227.304V90.528H229.288V94.88H226.952V92.896H225V90.88H223.016V86.592ZM267.848 76.672H273.8V64.8H276.104V76.672H284.008V78.976H276.104V94.848H273.8V78.976H267.848V76.672ZM256.008 66.784H266.216V69.088H256.008V66.784ZM253.992 72.704H268.2V75.04H253.992V72.704ZM256.008 76.672H266.216V78.976H256.008V76.672ZM256.008 80.608H266.216V82.944H256.008V80.608ZM256.008 84.576H266.216V92.864H258.312V94.848H256.008V84.576ZM263.912 90.496V86.88H258.312V90.496H263.912ZM291.944 70.72H299.848V67.104H285.992V64.8H316.008V67.104H302.184V70.72H310.088V86.88H291.944V70.72ZM285.992 72.704H288.36V90.496H313.672V72.704H316.008V94.848H313.672V92.864H288.36V94.848H285.992V72.704ZM299.848 76.672V73.056H294.28V76.672H299.848ZM307.752 76.672V73.056H302.184V76.672H307.752ZM299.848 84.576V78.976H294.28V84.576H299.848ZM307.752 84.576V78.976H302.184V84.576H307.752ZM319.976 84.608H321.96V82.624H331.816V64.832H334.152V72.736H344.04V75.072H334.152V84.608H338.088V86.592H342.056V88.576H344.04V90.528H345.992V92.896H343.688V90.88H341.704V88.896H337.768V86.912H334.152V90.88H332.168V92.896H321.96V90.88H319.976V84.608ZM331.816 90.528V84.96H322.28V90.528H331.816ZM363.816 92.512V90.528H369.768V88.576H371.72V84.608H373.704V73.088H371.72V69.12H364.168V71.104H362.184V73.088H360.232V77.024H358.248V80.992H356.264V84.96H353.96V70.752H355.912V66.816H358.248V71.104H356.264V76.704H357.896V72.736H359.88V70.752H361.864V68.768H363.816V66.816H372.072V68.768H374.056V72.736H376.04V84.96H374.056V88.896H372.072V90.88H370.088V92.896H364.168V94.88H355.912V92.512H363.816ZM388.936 80.992H382.984V78.656H388.936V73.088H385V70.752H390.92V64.832H393.256V70.752H401.16V73.088H391.272V78.656H401.16V80.992H391.272V90.528H393.256V92.512H404.744V90.528H406.728V88.576H408.712V80.992H406.728V77.024H404.744V74.72H407.08V76.704H409.064V80.64H411.016V88.896H409.064V90.88H407.08V92.896H405.096V94.88H392.904V92.896H390.92V90.88H388.936V80.992ZM422.92 84.608H424.904V82.624H426.888V80.64H430.824V79.008H425.256V80.992H414.984V78.656H420.936V76.704H424.904V74.72H426.888V72.736H430.824V70.752H432.808V69.12H420.936V66.816H439.08V69.12H437.096V71.104H433.16V73.088H431.176V75.072H427.208V76.704H443.016V79.008H435.112V80.992H431.176V82.976H427.208V84.96H425.256V90.528H427.208V92.512H439.08V94.88H426.888V92.896H424.904V90.88H422.92V84.608ZM449 88.896H446.984V78.656H449V74.72H450.984V72.736H452.936V70.752H456.904V68.768H467.112V70.752H471.08V72.736H473.064V76.704H475.016V86.912H473.064V90.88H471.08V92.896H467.112V94.88H460.84V92.512H466.792V90.528H470.728V86.592H472.712V77.024H470.728V73.088H466.792V71.104H463.176V77.024H461.192V82.976H459.208V86.912H457.256V90.88H455.272V92.896H450.984V90.88H449V88.896ZM451.304 88.576V90.528H454.92V86.592H456.904V82.624H458.888V76.704H460.84V71.104H457.256V73.088H453.288V75.072H451.304V79.008H449.352V88.576H451.304ZM477.992 88.544H481.992V76.992H477.992V74.688H481.992V64.8H484.296V74.688H488.264V76.992H484.296V86.56H489.896V82.592H491.848V80.96H487.912V78.624H508.008V80.96H494.184V82.592H506.024V92.864H504.072V94.848H499.752V92.48H503.72V84.928H502.088V86.88H500.104V90.848H498.12V92.864H496.168V94.848H493.832V92.48H495.816V90.496H497.8V86.56H499.752V84.928H496.168V88.864H494.184V90.848H492.2V92.864H489.896V90.496H491.848V88.544H493.832V84.928H492.2V86.88H490.216V88.864H482.312V90.848H477.992V88.544ZM489.896 66.784H504.072V76.992H489.896V66.784ZM501.736 70.72V69.088H492.2V70.72H501.736ZM501.736 74.688V73.056H492.2V74.688H501.736ZM513 88.896H510.984V78.656H513V74.72H514.984V72.736H516.936V70.752H520.904V68.768H531.112V70.752H535.08V72.736H537.064V76.704H539.016V86.912H537.064V90.88H535.08V92.896H531.112V94.88H524.84V92.512H530.792V90.528H534.728V86.592H536.712V77.024H534.728V73.088H530.792V71.104H527.176V77.024H525.192V82.976H523.208V86.912H521.256V90.88H519.272V92.896H514.984V90.88H513V88.896ZM515.304 88.576V90.528H518.92V86.592H520.904V82.624H522.888V76.704H524.84V71.104H521.256V73.088H517.288V75.072H515.304V79.008H513.352V88.576H515.304ZM555.848 92.48V88.544H557.832V82.592H559.816V76.992H553.896V74.688H559.816V64.8H562.12V74.688H572.008V76.992H562.12V78.624H564.104V82.592H566.088V86.56H568.072V90.496H570.024V92.48H572.008V94.848H569.672V92.864H567.72V90.848H565.736V86.88H563.752V82.944H560.168V88.864H558.184V92.864H556.2V94.848H553.896V92.48H555.848ZM541.992 88.544H544.008V86.56H545.992V82.592H547.944V80.608H549.928V64.8H552.264V94.848H549.928V82.944H548.296V86.88H546.312V88.864H544.36V90.848H541.992V88.544ZM567.72 67.104H565.736V64.8H568.072V66.784H570.024V71.072H567.72V67.104ZM545.992 75.04H544.008V73.056H541.992V70.72H544.36V72.704H546.312V74.688H548.296V76.992H545.992V75.04ZM585.896 92.48V90.496H587.848V86.56H589.832V80.96H585.896V66.784H602.024V80.96H598.088V92.48H601.672V86.56H604.008V92.864H602.024V94.848H597.736V92.864H595.752V80.96H592.168V86.88H590.184V90.848H588.2V92.864H586.216V94.848H581.928V92.48H585.896ZM579.944 71.072H577.992V69.088H576.008V66.784H578.312V68.736H580.296V70.72H582.28V73.056H579.944V71.072ZM599.72 78.624V69.088H588.2V78.624H599.72ZM579.944 78.976H577.992V76.992H576.008V74.688H578.312V76.672H580.296V78.624H582.28V80.96H579.944V78.976ZM576.008 92.48V90.496H577.992V86.56H579.944V82.592H582.28V86.88H580.296V90.848H578.312V92.864H576.36V94.848H573.992V92.48H576.008ZM608.968 72.736H610.952V66.816H613.256V73.088H611.272V92.896H608.968V72.736ZM616.872 70.752H633.032V73.088H616.872V70.752ZM616.872 84.608H619.176V88.576H621.16V90.528H633.032V92.896H620.808V90.88H618.856V88.896H616.872V84.608ZM637.992 90.496H640.008V82.592H641.992V68.736H653.832V64.8H656.168V68.736H668.008V71.072H644.296V82.944H642.312V90.848H640.36V94.848H637.992V90.496ZM653.832 72.704H656.168V74.688H658.12V76.672H660.104V78.976H657.8V76.992H655.816V75.04H653.832V72.704ZM651.848 78.624H654.184V92.48H661.736V86.56H664.072V92.864H662.088V94.848H653.832V92.864H651.848V78.624ZM663.72 80.608H666.024V84.576H668.008V90.848H665.672V84.928H663.72V80.608ZM645.928 86.56H647.912V82.592H650.216V86.88H648.264V90.848H645.928V86.56ZM672.968 66.816H675.272V88.576H677.256V90.528H686.792V88.576H690.728V86.592H692.712V84.608H694.696V82.624H697V84.96H695.048V86.912H693.064V88.896H691.08V90.88H687.144V92.896H676.904V90.88H674.92V88.896H672.968V66.816ZM688.776 71.104H686.792V68.768H689.096V70.752H691.08V72.736H693.064V75.072H690.728V73.088H688.776V71.104ZM684.808 73.088H682.824V70.752H685.16V72.736H687.144V74.72H689.096V77.024H686.792V75.072H684.808V73.088ZM710.92 78.656H712.904V76.704H714.888V74.72H716.84V72.736H718.824V71.104H702.984V68.768H731.016V71.104H723.112V73.088H719.176V75.072H717.192V77.024H715.208V79.008H713.256V86.592H715.208V88.576H717.192V90.528H727.08V92.896H716.84V90.88H712.904V86.912H710.92V78.656ZM29.992 104.704H33.992V102.72H35.944V98.784H37.928V96.8H40.264V99.104H38.28V103.072H36.296V105.056H34.312V107.04H29.992V104.704ZM43.848 98.784H58.024V101.088H43.848V98.784ZM35.944 112.96H34.312V114.944H29.992V112.608H33.992V110.624H35.944V108.672H37.928V106.688H39.912V104.704H42.216V106.688H60.008V108.992H54.088V124.864H52.104V126.848H45.832V124.48H51.752V108.992H41.896V107.04H40.264V108.992H38.28V126.848H35.944V112.96ZM69.928 124.48V120.864H64.008V118.56H69.928V116.928H64.008V106.688H69.928V105.056H61.992V102.72H69.928V101.088H64.008V98.784H73.896V96.8H78.184V99.104H74.216V101.088H72.264V102.72H78.184V104.704H81.8V96.8H84.104V104.704H92.008V124.864H90.024V126.848H83.752V124.48H89.672V107.04H84.104V118.88H82.12V124.864H80.168V126.848H77.832V124.864H72.264V126.848H61.992V124.48H69.928ZM77.832 106.688V105.056H72.264V106.688H77.832ZM78.184 122.496V124.48H79.816V118.56H81.8V107.04H78.184V116.928H72.264V118.56H78.184V120.864H72.264V122.496H78.184ZM69.928 110.624V108.992H66.312V110.624H69.928ZM75.848 110.624V108.992H72.264V110.624H75.848ZM75.848 114.592V112.96H72.264V114.592H75.848ZM69.928 114.592V112.96H66.312V114.592H69.928ZM95.976 116.608H97.96V112.64H99.912V110.656H101.896V106.72H103.88V105.088H95.976V102.752H105.864V96.832H108.168V102.752H118.056V105.088H106.184V106.72H110.152V108.704H112.136V112.64H113.768V110.656H117.704V108.704H121.992V111.008H118.056V112.992H114.088V114.976H112.136V122.88H109.8V116.96H106.184V118.912H104.232V124.512H120.04V126.88H103.88V124.896H101.896V118.592H103.88V116.608H105.864V114.624H109.8V109.024H104.232V111.008H102.248V112.992H100.264V116.96H98.28V118.912H95.976V116.608ZM125.992 122.496H128.008V120.544H129.992V118.56H131.944V114.592H133.928V112.608H141.832V105.056H135.912V103.072H133.928V101.088H131.944V99.104H129.992V96.8H132.296V98.784H134.28V100.736H136.264V102.72H141.832V96.8H144.168V102.72H152.072V112.608H156.008V114.944H144.168V116.576H146.12V118.56H148.104V120.544H150.088V122.496H152.072V124.48H156.008V126.848H151.72V124.864H149.736V122.848H147.752V120.864H145.8V118.88H143.816V116.928H142.184V120.864H140.2V122.848H138.216V124.864H136.264V126.848H131.944V124.48H135.912V122.496H137.896V120.544H139.848V116.576H141.832V114.944H134.28V118.88H132.296V120.864H130.312V122.848H128.36V124.864H125.992V122.496ZM131.944 108.992H129.992V107.04H128.008V104.704H130.312V106.688H132.296V108.672H134.28V110.976H131.944V108.992ZM149.736 112.608V105.056H144.168V112.608H149.736ZM158.984 112.64H161V110.656H162.984V98.816H165.288V106.72H168.904V104.736H176.808V98.816H179.112V106.72H183.08V108.704H185.064V110.656H187.016V118.912H185.064V120.896H183.08V122.88H181.096V124.896H179.112V126.88H174.824V124.512H178.792V122.528H180.744V120.576H182.728V118.592H184.712V111.008H182.728V109.024H178.792V107.072H177.16V109.024H175.176V112.992H173.192V116.96H171.208V118.912H169.256V120.576H171.208V122.88H168.904V120.896H167.272V122.88H165.288V124.896H161V122.88H158.984V112.64ZM170.888 116.608V112.64H172.84V108.704H174.824V107.072H169.256V109.024H167.272V116.608H170.888ZM164.936 122.528V120.576H166.92V116.96H164.936V111.008H163.304V112.992H161.352V122.528H164.936ZM194.952 118.592H196.904V116.608H203.176V118.592H205.16V122.528H210.76V120.576H212.712V118.592H214.696V114.976H212.712V112.992H199.24V114.976H195.272V116.96H192.968V114.624H194.952V112.64H198.888V110.656H200.872V108.704H202.856V106.72H206.792V104.736H208.776V103.104H194.952V100.768H213.064V103.104H211.08V105.088H209.128V107.072H207.144V109.024H203.176V110.656H213.064V112.64H215.048V114.624H217.032V118.912H215.048V122.88H211.08V124.896H196.904V122.88H194.952V118.592ZM202.856 122.528V118.912H197.256V122.528H202.856ZM226.952 100.768H247.048V103.104H226.952V100.768ZM224.968 116.608H226.952V114.624H229.256V116.96H227.272V120.576H231.24V122.528H246.696V120.576H249.032V122.88H247.048V124.896H230.888V122.88H226.952V120.896H224.968V116.608ZM256.968 114.624H258.952V112.64H260.904V110.656H264.872V96.832H267.176V108.704H270.792V106.72H281.032V109.024H271.144V111.008H265.224V112.992H261.256V114.976H259.272V120.576H263.24V122.528H281.032V124.896H262.888V122.88H258.952V120.896H256.968V114.624ZM286.984 120.576H288.968V116.608H290.92V110.656H292.904V107.072H286.984V104.736H294.888V96.832H297.192V104.736H303.144V106.72H305.096V118.912H303.144V122.88H301.16V124.896H292.904V122.528H300.808V118.592H302.792V107.072H295.24V111.008H293.256V116.96H291.272V120.896H289.288V124.896H286.984V120.576ZM308.712 101.12H306.728V98.816H308.712V96.832H311.048V98.816H313V100.768H314.984V103.104H313V105.088H310.696V103.104H308.712V101.12ZM310.696 100.768V99.136H309.064V100.768H310.696ZM312.648 102.752V101.12H311.048V102.752H312.648ZM304.776 102.752H307.08V104.736H309.064V106.72H311.048V108.704H313V112.64H314.984V114.976H312.648V112.992H310.696V109.024H308.712V107.072H306.728V105.088H304.776V102.752ZM330.888 124.48V122.496H334.824V118.88H332.84V116.928H329.256V118.88H322.984V116.576H328.904V114.592H332.84V112.608H334.824V110.976H331.208V112.96H325.288V114.944H318.984V112.608H324.936V110.624H330.888V107.04H328.904V105.056H327.272V107.04H321V104.704H326.92V102.72H328.904V100.736H330.888V96.8H333.192V100.736H343.08V103.072H341.096V105.056H339.112V107.04H337.16V108.672H339.112V110.976H337.16V112.608H347.016V114.944H345.064V116.928H343.08V118.88H341.096V120.864H339.112V122.848H335.176V124.864H331.208V126.848H321V124.48H330.888ZM334.824 108.672V106.688H336.808V104.704H338.792V103.072H329.256V104.704H331.208V106.688H333.192V108.672H334.824ZM336.808 110.624V108.992H335.176V110.624H336.808ZM335.176 116.576V118.56H337.16V120.544H338.792V118.56H340.744V116.576H342.728V114.944H333.192V116.576H335.176ZM353.96 118.912H351.976V100.768H354.28V118.592H356.264V122.528H361.864V120.576H363.816V116.608H366.152V120.896H364.168V122.88H362.184V124.896H355.912V122.88H353.96V118.912ZM373.704 109.024H371.72V105.088H369.768V100.768H372.072V104.736H374.056V108.704H376.04V114.624H377.992V120.896H375.688V114.976H373.704V109.024ZM389.928 110.656H391.912V108.704H393.896V106.72H395.848V104.736H397.832V103.104H381.992V100.768H410.024V103.104H402.12V105.088H398.184V107.072H396.2V109.024H394.216V111.008H392.264V118.592H394.216V120.576H396.2V122.528H406.088V124.896H395.848V122.88H391.912V118.912H389.928V110.656ZM405.736 104.736H408.072V106.72H410.024V108.704H412.008V111.008H409.672V109.024H407.72V107.072H405.736V104.736ZM401.8 106.72H404.104V108.704H406.088V110.656H408.072V112.992H405.736V111.008H403.752V109.024H401.8V106.72ZM426.888 124.512V122.528H428.84V120.576H430.824V116.96H429.192V118.912H422.92V116.96H420.936V110.656H422.92V108.704H429.192V110.656H430.824V105.088H414.984V102.752H430.824V96.832H433.16V102.752H443.016V105.088H433.16V120.896H431.176V122.88H429.192V124.896H427.208V126.88H422.92V124.512H426.888ZM428.84 116.608V114.624H430.824V112.992H428.84V111.008H423.272V116.608H428.84ZM447.016 118.592H449V116.608H455.272V118.592H457.224V124.896H455.272V126.88H449V124.896H447.016V118.592ZM454.92 124.512V118.912H449.32V124.512H454.92ZM30.984 154.496H33V130.784H45.192V144.96H35.304V152.544H38.92V150.56H40.904V146.592H43.208V152.544H45.192V156.864H42.888V152.864H39.272V154.848H35.304V156.864H30.984V154.496ZM48.808 130.784H59.016V150.88H57.064V152.864H52.744V150.56H56.712V133.088H51.112V158.848H48.808V130.784ZM42.888 136.704V133.088H35.304V136.704H42.888ZM42.888 142.624V139.04H35.304V142.624H42.888ZM61.992 148.576H64.008V130.784H69.928V128.8H72.264V130.784H82.12V148.576H87.72V144.96H83.752V142.624H87.72V139.04H83.752V136.704H87.72V133.088H83.752V130.784H90.024V148.576H92.008V150.88H61.992V148.576ZM71.912 148.576V131.104H70.28V133.088H66.312V136.704H70.28V139.04H66.312V142.624H70.28V144.96H66.312V148.576H71.912ZM79.816 148.576V146.944H75.848V138.688H79.816V137.056H75.848V134.72H79.816V133.088H74.216V148.576H79.816ZM79.816 144.608V140.992H78.184V144.608H79.816ZM65.992 156.48V154.496H69.928V152.544H72.264V154.848H70.28V156.864H66.312V158.848H61.992V156.48H65.992ZM81.8 152.544H84.104V154.496H88.072V156.48H92.008V158.848H87.72V156.864H83.752V154.848H81.8V152.544ZM101.928 142.656H103.912V140.704H105.896V138.72H107.848V136.736H109.832V135.104H93.992V132.768H122.024V135.104H114.12V137.088H110.184V139.072H108.2V141.024H106.216V143.008H104.264V150.592H106.216V152.576H108.2V154.528H118.088V156.896H107.848V154.88H103.912V150.912H101.928V142.656ZM117.736 136.736H120.072V138.72H122.024V140.704H124.008V143.008H121.672V141.024H119.72V139.072H117.736V136.736ZM113.8 138.72H116.104V140.704H118.088V142.656H120.072V144.992H117.736V143.008H115.752V141.024H113.8V138.72ZM129 152.896H126.984V142.656H129V138.72H130.984V136.736H132.936V134.752H136.904V132.768H147.112V134.752H151.08V136.736H153.064V140.704H155.016V150.912H153.064V154.88H151.08V156.896H147.112V158.88H140.84V156.512H146.792V154.528H150.728V150.592H152.712V141.024H150.728V137.088H146.792V135.104H143.176V141.024H141.192V146.976H139.208V150.912H137.256V154.88H135.272V156.896H130.984V154.88H129V152.896ZM131.304 152.576V154.528H134.92V150.592H136.904V146.624H138.888V140.704H140.84V135.104H137.256V137.088H133.288V139.072H131.304V143.008H129.352V152.576H131.304ZM158.984 148.576H166.92V144.96H161V142.624H166.92V128.8H169.256V142.624H175.176V144.96H169.256V148.576H177.16V150.88H169.256V158.848H166.92V150.88H158.984V148.576ZM184.712 156.48V128.8H187.016V156.864H185.064V158.848H178.792V156.48H184.712ZM170.888 136.704H172.84V130.784H175.176V137.056H173.192V140.992H170.888V136.704ZM162.984 135.072H161V130.784H163.304V134.72H165.288V140.992H162.984V135.072ZM178.792 132.736H181.096V150.88H178.792V132.736ZM190.984 130.784H195.272V132.736H197.256V134.72H198.888V128.8H201.192V134.72H202.824V130.784H205.16V135.072H203.176V137.056H201.192V138.688H205.16V140.992H203.176V142.624H205.16V148.928H202.824V142.976H201.192V152.864H198.888V144.96H197.256V148.928H195.272V150.88H193.288V154.496H206.792V130.784H212.712V128.8H217V131.104H213.064V133.088H209.096V138.688H218.984V140.992H215.048V158.848H212.712V140.992H209.096V154.848H207.144V158.848H204.808V156.864H193.288V158.848H190.984V130.784ZM198.888 138.688V137.056H196.904V135.072H194.92V133.088H193.288V138.688H198.888ZM194.92 148.576V144.608H196.904V142.624H198.888V140.992H193.288V148.576H194.92ZM230.92 144.992H228.936V143.008H225.352V144.992H222.984V142.656H225V140.704H228.936V137.088H226.984V130.816H229.288V136.736H231.272V138.72H234.888V136.736H238.824V133.12H236.84V128.832H239.176V132.768H241.16V136.736H247.08V138.72H249.064V140.704H251.016V146.976H249.064V148.96H245.096V150.912H236.84V148.608H244.744V146.624H248.712V141.024H246.728V139.072H235.208V141.024H231.272V144.64H233.256V152.576H235.208V158.88H232.904V152.896H230.92V144.992ZM253.992 136.704H257.992V134.72H259.944V130.784H261.928V128.8H264.264V131.104H262.28V135.072H260.296V137.056H258.312V139.04H253.992V136.704ZM267.848 130.784H282.024V133.088H267.848V130.784ZM259.944 144.96H258.312V146.944H253.992V144.608H257.992V142.624H259.944V140.672H261.928V138.688H263.912V136.704H266.216V138.688H284.008V140.992H278.088V156.864H276.104V158.848H269.832V156.48H275.752V140.992H265.896V139.04H264.264V140.992H262.28V158.848H259.944V144.96ZM293.928 156.48V152.864H288.008V150.56H293.928V148.928H288.008V138.688H293.928V137.056H285.992V134.72H293.928V133.088H288.008V130.784H297.896V128.8H302.184V131.104H298.216V133.088H296.264V134.72H302.184V136.704H305.8V128.8H308.104V136.704H316.008V156.864H314.024V158.848H307.752V156.48H313.672V139.04H308.104V150.88H306.12V156.864H304.168V158.848H301.832V156.864H296.264V158.848H285.992V156.48H293.928ZM301.832 138.688V137.056H296.264V138.688H301.832ZM302.184 154.496V156.48H303.816V150.56H305.8V139.04H302.184V148.928H296.264V150.56H302.184V152.864H296.264V154.496H302.184ZM293.928 142.624V140.992H290.312V142.624H293.928ZM299.848 142.624V140.992H296.264V142.624H299.848ZM299.848 146.592V144.96H296.264V146.592H299.848ZM293.928 146.592V144.96H290.312V146.592H293.928ZM320.968 136.736H322.952V130.816H325.256V137.088H323.272V156.896H320.968V136.736ZM328.872 134.752H345.032V137.088H328.872V134.752ZM328.872 148.608H331.176V152.576H333.16V154.528H345.032V156.896H332.808V154.88H330.856V152.896H328.872V148.608ZM353.96 132.736H361.864V130.784H363.816V128.8H366.152V131.104H364.168V132.736H376.04V158.848H373.704V156.864H356.264V158.848H353.96V132.736ZM373.704 140.672V135.072H356.264V140.672H373.704ZM373.704 146.592V142.976H356.264V146.592H373.704ZM373.704 154.496V148.928H356.264V154.496H373.704ZM385.992 142.976H384.36V146.944H381.992V142.624H384.008V138.688H385.992V134.72H387.944V128.8H390.28V135.072H388.296V158.848H385.992V142.976ZM393.896 130.784H410.024V133.088H393.896V130.784ZM391.912 134.72H412.008V137.056H391.912V134.72ZM393.896 138.688H410.024V140.992H393.896V138.688ZM393.896 142.624H410.024V144.96H393.896V142.624ZM393.896 146.592H410.024V158.848H407.72V156.864H396.2V158.848H393.896V146.592ZM407.72 154.496V148.928H396.2V154.496H407.72ZM415.976 148.608H417.96V144.64H419.912V142.656H421.896V138.72H423.88V137.088H415.976V134.752H425.864V128.832H428.168V134.752H438.056V137.088H426.184V138.72H430.152V140.704H432.136V144.64H433.768V142.656H437.704V140.704H441.992V143.008H438.056V144.992H434.088V146.976H432.136V154.88H429.8V148.96H426.184V150.912H424.232V156.512H440.04V158.88H423.88V156.896H421.896V150.592H423.88V148.608H425.864V146.624H429.8V141.024H424.232V143.008H422.248V144.992H420.264V148.96H418.28V150.912H415.976V148.608ZM451.944 156.48V146.944H445.992V144.608H451.944V139.04H445.992V136.704H451.944V128.8H454.28V136.704H458.216V138.688H465.8V135.072H459.848V132.736H465.8V128.8H468.104V132.736H474.024V135.072H468.104V138.688H476.008V140.992H472.072V144.608H476.008V146.944H472.072V156.864H470.088V158.848H463.816V156.48H469.736V146.944H457.896V144.96H454.28V156.864H452.296V158.848H448.008V156.48H451.944ZM458.216 142.624V144.608H469.736V140.992H457.896V139.04H454.28V142.624H458.216ZM461.832 148.576H464.168V150.56H466.12V152.864H463.816V150.88H461.832V148.576ZM484.904 154.528H498.76V152.576H502.696V146.976H500.712V144.992H489.224V146.976H485.256V148.96H482.952V144.64H484.904V140.704H486.888V137.088H480.968V134.752H488.872V132.768H490.856V128.832H493.16V133.12H491.176V134.752H503.048V137.088H489.224V141.024H487.24V144.64H488.872V142.656H501.064V144.64H503.048V146.624H505.032V152.896H503.048V154.88H499.08V156.896H484.904V154.528ZM511.016 150.592H513.32V152.576H515.304V154.528H517.288V158.88H514.952V156.896H513V154.88H511.016V150.592ZM30.984 186.496H33V180.576H34.984V162.784H59.016V188.864H57.064V190.848H50.792V188.48H56.712V165.088H37.288V174.624H44.84V171.04H38.92V168.704H44.84V166.72H47.176V168.704H53.096V171.04H47.176V174.624H55.08V176.96H37.288V180.928H35.304V186.848H33.352V190.848H30.984V186.496ZM40.904 178.592H53.096V186.848H40.904V178.592ZM50.792 184.544V180.928H43.208V184.544H50.792ZM63.976 162.784H89.992V190.848H87.688V188.864H66.28V190.848H63.976V162.784ZM87.688 186.496V165.088H66.28V186.496H87.688ZM67.912 182.56H69.896V180.576H71.88V178.944H67.912V176.608H71.88V172.992H67.912V170.688H71.88V166.72H74.184V170.688H77.8V166.72H80.136V170.688H84.072V172.992H80.136V176.608H86.056V178.944H80.136V184.864H77.8V178.944H74.184V180.928H72.232V182.88H70.248V184.864H67.912V182.56ZM77.8 176.608V172.992H74.184V176.608H77.8ZM97 184.896H94.984V174.656H97V170.72H98.984V168.736H100.936V166.752H104.904V164.768H115.112V166.752H119.08V168.736H121.064V172.704H123.016V182.912H121.064V186.88H119.08V188.896H115.112V190.88H108.84V188.512H114.792V186.528H118.728V182.592H120.712V173.024H118.728V169.088H114.792V167.104H111.176V173.024H109.192V178.976H107.208V182.912H105.256V186.88H103.272V188.896H98.984V186.88H97V184.896ZM99.304 184.576V186.528H102.92V182.592H104.904V178.624H106.888V172.704H108.84V167.104H105.256V169.088H101.288V171.072H99.304V175.008H97.352V184.576H99.304ZM133.928 188.48V186.496H139.848V184.864H135.912V182.88H132.296V184.864H128.008V182.56H131.944V180.576H133.928V178.592H135.912V176.96H131.944V174.624H135.912V172.672H137.896V167.072H125.992V164.736H139.848V160.8H142.184V164.736H156.008V167.072H146.12V174.976H144.168V176.96H139.848V174.624H143.816V167.072H140.2V172.992H138.216V174.976H136.264V176.608H138.216V178.592H152.072V180.928H150.088V182.88H148.104V184.864H144.168V186.496H150.088V188.48H156.008V190.848H149.736V188.864H143.816V186.848H140.2V188.864H134.28V190.848H125.992V188.48H133.928ZM125.992 172.672H129.992V170.688H131.944V168.704H134.28V171.04H132.296V172.992H130.312V174.976H125.992V172.672ZM147.752 168.704H150.088V170.688H154.024V172.672H156.008V174.976H153.672V172.992H149.736V171.04H147.752V168.704ZM140.2 182.56V184.544H143.816V182.56H147.752V180.928H136.264V182.56H140.2ZM173.832 160.8H176.168V174.624H177.8V172.672H181.736V170.688H183.72V166.72H186.024V171.04H184.072V172.992H182.088V174.976H178.12V176.96H176.168V188.48H185.672V182.56H188.008V188.864H186.024V190.848H175.816V188.864H173.832V160.8ZM163.944 174.976H162.312V176.96H160.36V178.944H157.992V176.608H160.008V174.624H161.992V172.672H163.944V168.704H165.928V164.736H167.912V160.8H170.216V165.088H168.264V169.056H166.28V190.848H163.944V174.976ZM192.968 168.736H194.952V162.816H197.256V169.088H195.272V188.896H192.968V168.736ZM200.872 166.752H217.032V169.088H200.872V166.752ZM200.872 180.608H203.176V184.576H205.16V186.528H217.032V188.896H204.808V186.88H202.856V184.896H200.872V180.608ZM243.752 165.088H233.896V162.784H246.088V180.576H248.072V182.56H249.672V178.592H252.008V182.88H250.024V184.864H247.72V182.88H245.736V180.928H243.752V165.088ZM227.944 167.072H225.992V165.088H224.008V162.784H226.312V164.736H228.296V166.72H230.28V169.056H227.944V167.072ZM235.848 174.976H231.912V172.672H235.848V166.72H238.184V172.672H242.12V174.976H238.184V184.864H235.848V174.976ZM225.992 188.48V186.496H227.944V176.96H221.992V174.624H230.28V184.544H232.264V186.496H252.008V188.864H231.912V186.848H228.296V188.864H226.312V190.848H221.992V188.48H225.992ZM263.912 180.576H267.848V178.592H269.832V176.96H265.896V168.704H271.816V165.088H263.912V162.784H271.816V160.8H274.12V162.784H284.008V165.088H274.12V168.704H282.024V176.96H278.088V178.592H280.072V180.576H284.008V182.88H279.72V180.928H277.736V178.944H275.752V176.96H274.12V184.864H271.816V178.944H270.184V180.928H268.2V182.88H263.912V180.576ZM259.944 167.072H257.992V165.088H256.008V162.784H258.312V164.736H260.296V166.72H262.28V169.056H259.944V167.072ZM279.72 174.624V171.04H274.12V174.624H279.72ZM271.816 174.624V171.04H268.2V174.624H271.816ZM257.992 188.48V186.496H259.944V176.96H253.992V174.624H262.28V184.544H264.264V186.496H284.008V188.864H263.912V186.848H260.296V188.864H258.312V190.848H253.992V188.48H257.992ZM288.968 168.736H290.952V162.816H293.256V169.088H291.272V188.896H288.968V168.736ZM296.872 166.752H313.032V169.088H296.872V166.752ZM296.872 180.608H299.176V184.576H301.16V186.528H313.032V188.896H300.808V186.88H298.856V184.896H296.872V180.608ZM320.008 188.48V186.496H321.992V182.56H323.944V178.944H321.992V176.96H320.008V174.624H322.312V176.608H324.296V178.592H325.928V174.624H327.912V171.04H317.992V168.704H323.944V160.8H326.28V168.704H332.2V171.04H330.216V174.976H328.264V178.944H326.28V180.576H328.264V182.56H330.216V186.848H327.912V182.88H324.296V186.848H322.312V188.864H320.36V190.848H317.992V188.48H320.008ZM341.736 188.48V171.04H333.832V168.704H341.736V160.8H344.072V168.704H348.008V171.04H344.072V188.864H342.088V190.848H335.816V188.48H341.736ZM335.816 176.96H333.832V172.672H336.168V176.608H338.12V180.928H335.816V176.96ZM349.992 186.496H352.008V178.592H353.992V164.736H365.832V160.8H368.168V164.736H380.008V167.072H356.296V178.944H354.312V186.848H352.36V190.848H349.992V186.496ZM365.832 168.704H368.168V170.688H370.12V172.672H372.104V174.976H369.8V172.992H367.816V171.04H365.832V168.704ZM363.848 174.624H366.184V188.48H373.736V182.56H376.072V188.864H374.088V190.848H365.832V188.864H363.848V174.624ZM375.72 176.608H378.024V180.576H380.008V186.848H377.672V180.928H375.72V176.608ZM357.928 182.56H359.912V178.592H362.216V182.88H360.264V186.848H357.928V182.56ZM384.968 162.816H387.272V184.576H389.256V186.528H398.792V184.576H402.728V182.592H404.712V180.608H406.696V178.624H409V180.96H407.048V182.912H405.064V184.896H403.08V186.88H399.144V188.896H388.904V186.88H386.92V184.896H384.968V162.816ZM416.968 182.592H418.952V180.608H428.808V175.008H416.968V172.704H428.808V169.088H416.968V166.752H428.808V160.832H431.144V166.752H441.032V169.088H431.144V172.704H441.032V175.008H431.144V182.592H435.08V184.576H437.064V186.528H439.048V188.512H441.032V190.88H438.696V188.896H436.712V186.88H434.76V184.896H431.144V188.896H429.16V190.88H418.952V188.896H416.968V182.592ZM428.808 188.512V182.912H419.272V188.512H428.808ZM458.888 188.512V186.528H460.84V184.576H462.824V180.96H461.192V182.912H454.92V180.96H452.936V174.656H454.92V172.704H461.192V174.656H462.824V169.088H446.984V166.752H462.824V160.832H465.16V166.752H475.016V169.088H465.16V184.896H463.176V186.88H461.192V188.896H459.208V190.88H454.92V188.512H458.888ZM460.84 180.608V178.624H462.824V176.992H460.84V175.008H455.272V180.608H460.84ZM479.016 182.592H481V180.608H487.272V182.592H489.224V188.896H487.272V190.88H481V188.896H479.016V182.592ZM486.92 188.512V182.912H481.32V188.512H486.92Z"></path>
</svg>
