<svg version="1.1" xmlns="http://www.w3.org/2000/svg" xmlns:xlink="http://www.w3.org/1999/xlink" width="61.2007" height="32.44767" viewBox="0,0,61.2007,32.44767"><g transform="translate(-206.80697,-163.77617)"><g data-paper-data="{&quot;isPaintingLayer&quot;:true}" fill-rule="nonzero" stroke-linecap="butt" stroke-linejoin="miter" stroke-miterlimit="10" stroke-dasharray="" stroke-dashoffset="0" style="mix-blend-mode: normal"><path d="M212.40508,195.22384c-2.53947,0 -3.56577,-1.25 -3.56577,-1.25c0,0 -1.03234,-1.51295 -1.03234,-3.86616c0,-3.58942 0,-14.16113 0,-20.45581c0,-2.888 1.24489,-3.68865 1.24489,-3.68865c0,0 0.81375,-1.18705 3.35322,-1.18705h50.00447c2.53947,0 3.367,0.97826 3.367,0.97826c0,0 1.23112,0.79641 1.23112,3.42956c0,6.25008 0,17.33681 0,21.00785c0,2.32164 -1.21353,3.88915 -1.21353,3.88915c0,0 -0.84512,1.14285 -3.38457,1.14285z" fill="#000000" stroke="#d6d6d6" stroke-width="2"/><path d="M220.31695,178.0139h1.08467v-2.16934h1.06718v-4.32119h1.27711v3.23652h6.47305v3.42897h-1.06716v1.08468h-1.27712v-1.25963h1.08467v-1.9769h-6.29809v2.15185h-1.08467v1.08468h-1.25963zM218.14762,176.037h-1.06718v-1.08467h-1.08467v-1.27712h1.25961v1.08467h1.08468v1.08467h1.08466v1.27711h-1.27711zM221.40162,186.6563v-1.08467h1.06718v-2.15186h1.08468v-3.25401h1.08467v-3.23653h1.25962v3.23653h1.08467v2.16934h1.08467v2.16933h1.08467v1.06719h1.06716v1.08467h1.08468v1.29461h-1.27711v-1.08468h-1.06718v-1.10216h-1.08467v-1.08468h-1.08467v-2.15186h-1.06718v-2.16934h-0.89222v3.23653h-1.08468v2.16934h-1.08467v1.10216h-1.08467v1.08468h-2.3443v-1.29461zM214.89359,184.50445h1.10217v-1.08466h1.08467v-2.16935h1.06718v-2.16934h1.27711v2.36179h-1.08466v2.15186h-1.08468v1.08467h-1.06718v1.08468h-1.2946zM232.93065,181.26793h1.10216v-2.16934h1.08468v-1.06719h1.06718v-2.16933h1.08468v-1.08468h2.3443v1.08468h1.08467v1.08466h1.08468v1.08468h1.08467v2.15186h1.06716v1.08466h1.08468v1.08468h1.08468v2.16933h1.08467v1.06718h1.06718v1.29461h-1.25961v-1.10216h-1.08467v-1.08468h-1.08467v-2.15185h-1.06717v-1.08468h-1.08468v-1.08468h-1.08467v-2.16933h-1.08467v-1.06718h-1.06718v-1.08467h-1.9769v2.15186h-1.08468v1.08468h-1.08466v2.16934h-1.06719v1.08468h-1.29461z" fill="#d6d6d6" stroke="none" stroke-width="1"/><path d="M256.12694,175.60459h-1.38856v-1.37242h1.38856zM257.49935,176.97702h-1.37241v-1.37242h1.37241zM258.87178,178.36557h-1.37243v-1.38855h1.37243zM260.26034,179.738h-1.38857v-1.37243h1.38857zM260.26034,181.11042v-1.37242h1.37241v1.37242zM260.26034,181.11042v1.38852h-1.38857v-1.38852zM258.87178,182.49895v1.37246h-1.37243v-1.37246zM257.49935,183.8714v1.37246h-1.37241v-1.37246zM256.12694,185.24386v1.38849h-1.38856v-1.38849z" data-paper-data="{&quot;index&quot;:null}" fill="#d6d6d6" stroke="none" stroke-width="1"/></g></g></svg>