<svg xmlns="http://www.w3.org/2000/svg" fill="none" viewBox="0 0 548 61" height="61" width="548">
<path fill="black" d="M28.696 24.344H40.6V0.599998H45.208V24.344H61.016V28.952H45.208V60.696H40.6V28.952H28.696V24.344ZM5.016 4.568H25.432V9.176H5.016V4.568ZM0.984 16.408H29.4V21.08H0.984V16.408ZM5.016 24.344H25.432V28.952H5.016V24.344ZM5.016 32.216H25.432V36.888H5.016V32.216ZM5.016 40.152H25.432V56.728H9.624V60.696H5.016V40.152ZM20.824 51.992V44.76H9.624V51.992H20.824ZM76.888 12.44H92.696V5.208H64.984V0.599998H125.016V5.208H97.368V12.44H113.176V44.76H76.888V12.44ZM64.984 16.408H69.72V51.992H120.344V16.408H125.016V60.696H120.344V56.728H69.72V60.696H64.984V16.408ZM92.696 24.344V17.112H81.56V24.344H92.696ZM108.504 24.344V17.112H97.368V24.344H108.504ZM92.696 40.152V28.952H81.56V40.152H92.696ZM108.504 40.152V28.952H97.368V40.152H108.504ZM135 48.792H130.968V28.312H135V20.44H138.968V16.472H142.872V12.504H150.808V8.536H171.224V12.504H179.16V16.472H183.128V24.408H187.032V44.824H183.128V52.76H179.16V56.792H171.224V60.76H158.68V56.024H170.584V52.056H178.456V44.184H182.424V25.048H178.456V17.176H170.584V13.208H163.352V25.048H159.384V36.952H155.416V44.824H151.512V52.76H147.544V56.792H138.968V52.76H135V48.792ZM139.608 48.152V52.056H146.84V44.184H150.808V36.248H154.776V24.408H158.68V13.208H151.512V17.176H143.576V21.144H139.608V29.016H135.704V48.152H139.608ZM212.824 40.152H228.632V36.888H216.792V32.216H228.632V28.952H212.824V24.344H220.696V21.08H212.824V16.408H228.632V13.144H216.792V8.472H228.632V0.599998H233.24V8.472H249.048V13.144H233.24V16.408H253.016V21.08H241.176V24.344H249.048V28.952H233.24V32.216H249.048V36.888H233.24V40.152H253.016V44.76H233.24V52.696H228.632V44.76H212.824V40.152ZM204.888 13.144H200.984V9.176H197.016V4.568H201.624V8.472H205.592V12.44H209.56V17.112H204.888V13.144ZM236.504 24.344V21.08H225.368V24.344H236.504ZM200.984 55.96V51.992H204.888V32.92H192.984V28.248H209.56V48.088H213.528V51.992H221.4V55.96H253.016V60.696H220.696V56.728H212.824V52.696H205.592V56.728H201.624V60.696H192.984V55.96H200.984ZM261.016 55.96V51.992H264.984V48.088H268.888V44.12H272.856V40.152H276.824V36.184H280.792V28.248H284.696V0.599998H289.368V28.248H293.336V36.184H297.24V44.12H301.208V48.088H305.176V51.992H309.144V55.96H317.016V60.696H308.44V56.728H304.472V52.696H300.504V48.728H296.6V44.76H292.632V36.888H288.664V28.952H285.4V36.888H281.432V40.856H277.528V44.76H273.56V48.728H269.592V52.696H265.624V56.728H261.72V60.696H256.984V55.96H261.016ZM340.76 56.024V52.056H352.6V48.152H356.568V40.92H352.6V36.952H344.728V32.984H340.76V28.312H345.432V32.28H353.304V36.248H357.272V40.216H364.504V36.248H368.408V28.312H372.376V17.176H345.432V21.144H341.464V25.048H337.496V29.016H333.528V32.984H329.624V36.952H324.888V32.28H328.92V28.312H332.888V24.408H336.792V20.44H340.76V16.472H344.728V8.536H348.696V0.663998H353.304V9.24H349.336V12.504H377.048V29.016H373.08V36.952H369.112V40.92H365.144V44.824H361.24V48.792H357.272V52.76H353.304V56.792H341.464V60.76H328.92V56.024H340.76ZM388.888 36.248H396.888V32.28H404.76V28.312H412.696V24.408H416.6V20.44H420.568V16.472H424.536V12.504H428.504V8.536H432.408V4.632H436.376V0.663998H441.048V5.272H437.08V9.24H433.112V13.208H429.144V17.176H425.24V60.76H420.568V25.048H417.304V29.016H413.336V32.984H405.464V36.952H397.528V40.92H388.888V36.248ZM453.016 52.056H464.856V48.152H472.792V44.184H480.664V40.216H484.632V32.28H488.6V24.408H492.504V13.208H448.984V8.536H492.504V4.632H496.472V0.663998H505.048V4.632H509.016V13.208H505.048V17.176H497.176V25.048H493.208V32.984H489.24V40.92H485.336V44.824H481.368V48.792H473.432V52.76H465.56V56.792H453.016V52.056ZM504.344 12.504V5.272H497.176V12.504H504.344ZM542.68 4.632H547.352V44.824H542.68V4.632ZM538.712 48.152H547.352V56.792H538.712V48.152Z"></path>
</svg>
