<svg version="1.1" xmlns="http://www.w3.org/2000/svg" xmlns:xlink="http://www.w3.org/1999/xlink" width="258.536" height="52.32" viewBox="0,0,258.536,52.32"><g transform="translate(-115.61833,-109.72591)"><g data-paper-data="{&quot;isPaintingLayer&quot;:true}" fill-rule="nonzero" stroke="none" stroke-width="1" stroke-linecap="butt" stroke-linejoin="miter" stroke-miterlimit="10" stroke-dasharray="" stroke-dashoffset="0" style="mix-blend-mode: normal"><path d="M124.54634,112.92592v-2h2v2zM130.05032,110.92592h2v2h-2zM130.05032,123.80592h-2v-2h2zM133.02633,119.80592h2v2h-2zM133.02633,126.78192h-2v-2h2zM135.95433,122.78192h2v2h-2zM135.95433,129.75792h-2v-2h2zM140.40232,127.75792v2h-2v-2zM136.40232,115.90192v-2h2v2zM141.90634,113.90192h2v2h-2zM141.90634,126.78192h-2v-2h2zM149.33032,124.78192v2h-2v-2zM145.33032,112.92592v-2h2v2zM150.78634,110.92592h2v2h-2zM150.78634,126.78192h-2v-2h2zM159.66634,122.78192h2v2h-2zM161.66634,128.28591v2h-2v-2zM148.78634,128.28591v-2h2v2zM150.78634,138.6379h-2v-2h2zM159.66634,134.6379h2v2h-2zM161.66634,140.14192v2h-2v-2zM148.78634,140.14192v-2h2v2zM150.78634,153.46991h-2v-2h2zM162.64234,149.46991h2v2h-2zM164.64234,155.02192v2h-2v-2zM132.49834,157.02192h-2v-2h2zM130.49834,151.46991v-2h2v2zM149.33032,151.46991v2h-2v-2zM147.33032,138.14192h2v2h-2zM138.40232,142.14192h-2v-2h2zM136.40232,136.6379v-2h2v2zM149.33032,136.6379v2h-2v-2zM147.33032,126.28592h2v2h-2zM136.93034,128.28591v-2h2v2zM140.93034,134.18992v2h-2v-2zM133.95433,134.18992v-2h2v2zM137.95433,137.16592v2h-2v-2zM132.49834,139.16592h-2v-2h2zM130.49834,133.6619v-2h2v2zM137.47434,133.6619v2h-2v-2zM135.47434,129.21391h2v2h-2zM132.49834,133.21391h-2v-2h2zM132.49834,123.30992h2v2h-2zM128.05032,125.30992v-2h2v2zM132.05032,157.99792v2h-2v-2zM126.54634,159.99792h-2v-2h2zM115.61834,133.6619v-2h2v2zM122.64234,133.6619v2h-2v-2zM118.64234,124.78192v-2h2v2zM124.09834,122.78192h2v2h-2zM126.09834,134.18992v2h-2v-2zM119.17034,134.18992v-2h2v2zM123.17034,140.14192v2h-2v-2zM117.61834,142.14192h-2v-2h2zM126.54634,110.92592h3.504v4h-3.504zM132.05032,112.92592v8.88h-4v-8.88zM130.05032,119.80592h2.976v4h-2.976zM135.02633,121.80592v2.976h-4v-2.976zM133.02633,122.78192h2.928v4h-2.928zM137.95433,124.78192v2.976h-4v-2.976zM135.95433,125.75792h2.448v4h-2.448zM136.40232,127.75792v-11.856h4v11.856zM138.40232,113.90192h3.504v4h-3.504zM143.90634,115.90192v8.88h-4v-8.88zM141.90634,122.78192h5.424v4h-5.424zM145.33032,124.78192v-11.856h4v11.856zM147.33032,110.92592h3.456v4h-3.456zM152.78634,112.92592v11.856h-4v-11.856zM150.78634,122.78192h8.88v4h-8.88zM161.66634,124.78192v3.504h-4v-3.504zM159.66634,130.28591h-8.88v-4h8.88zM152.78634,128.28591v8.352h-4v-8.352zM150.78634,134.6379h8.88v4h-8.88zM161.66634,136.6379v3.504h-4v-3.504zM159.66634,142.14192h-8.88v-4h8.88zM152.78634,140.14192v11.328h-4v-11.328zM150.78634,149.46991h11.856v4h-11.856zM164.64234,151.46991v3.552h-4v-3.552zM162.64234,157.02192h-30.144v-4h30.144zM130.49834,155.02192v-3.552h4v3.552zM132.49834,149.46991h14.832v4h-14.832zM145.33032,151.46991v-11.328h4v11.328zM147.33032,142.14192h-8.928v-4h8.928zM136.40232,140.14192v-3.504h4v3.504zM138.40232,134.6379h8.928v4h-8.928zM145.33032,136.6379v-8.352h4v8.352zM147.33032,130.28591h-8.4v-4h8.4zM140.93034,128.28591v5.904h-4v-5.904zM138.93034,136.18992h-2.976v-4h2.976zM137.95433,134.18992v2.976h-4v-2.976zM135.95433,139.16592h-3.456v-4h3.456zM130.49834,137.16592v-3.504h4v3.504zM132.49834,131.6619h2.976v4h-2.976zM133.47434,133.6619v-2.448h4v2.448zM135.47434,133.21391h-2.976v-4h2.976zM130.49834,131.21391v-5.904h4v5.904zM132.49834,127.30992h-2.448v-4h2.448zM132.05032,125.30992v32.688h-4v-32.688zM130.05032,159.99792h-3.504v-4h3.504zM124.54634,157.99792v-45.072h4v45.072zM117.61834,131.6619h3.024v4h-3.024zM118.64234,133.6619v-8.88h4v8.88zM120.64234,122.78192h3.456v4h-3.456zM126.09834,124.78192v9.408h-4v-9.408zM124.09834,136.18992h-2.928v-4h2.928zM123.17034,134.18992v5.952h-4v-5.952zM121.17034,142.14192h-3.552v-4h3.552zM115.61834,140.14192v-6.48h4v6.48z" fill="#ffffff"/><path d="M126.54634,112.92592h3.504v8.88h2.976v2.976h2.928v2.976h2.448v-11.856h3.504v8.88h5.424v-11.856h3.456v11.856h8.88v3.504h-8.88v8.352h8.88v3.504h-8.88v11.328h11.856v3.552h-30.144v-3.552h14.832v-11.328h-8.928v-3.504h8.928v-8.352h-8.4v5.904h-2.976v2.976h-3.456v-3.504h2.976v-2.448h-2.976v-5.904h-2.448v32.688h-3.504zM117.61834,133.6619h3.024v-8.88h3.456v9.408h-2.928v5.952h-3.552z" fill="#ff9a51"/><path d="M174.74634,138.07392h2v2h-2zM170.91034,140.07392v-2h2v2zM174.91034,146.76992v2h-2v-2zM170.24634,148.76992h-2v-2h2zM168.24634,139.67792v-2h2v2zM174.51434,139.67792v2h-2v-2zM172.51434,133.64592h2v2h-2zM170.24634,137.64592h-2v-2h2zM168.24634,133.01791v-2h2v2zM176.74634,133.01791v2h-2v-2zM172.74634,124.12592v-2h2v2zM177.33834,122.12592h2v2h-2zM177.33834,135.01791h-2v-2h2zM181.80234,131.01791h2v2h-2zM181.80234,137.24991h-2v-2h2zM185.63834,135.24991v2h-2v-2zM181.63834,130.78591v-2h2v2zM187.83434,130.78591v2h-2v-2zM183.83434,124.12592v-2h2v2zM188.46234,122.12592h2v2h-2zM188.46234,130.5539h-2v-2h2zM199.58634,126.55392h2v2h-2zM201.58634,133.41392v2h-2v-2zM195.35434,133.41392v-2h2v2zM199.35434,135.64592v2h-2v-2zM193.12234,135.64592v-2h2v2zM197.12234,137.84192v2h-2v-2zM190.89034,137.84192v-2h2v2zM192.89034,141.67792h-2v-2h2zM197.35434,137.67792h2v2h-2zM197.35434,143.90992h-2v-2h2zM204.01434,139.90992h2v2h-2zM206.01434,144.53792v2h-2v-2zM197.58634,144.53792v-2h2v2zM201.58634,157.92992v2h-2v-2zM196.95834,159.92992h-2v-2h2zM196.95834,153.69792h2v2h-2zM184.23034,155.69792v-2h2v2zM188.23034,157.92992v2h-2v-2zM183.63834,159.92992h-2v-2h2zM183.63834,142.53792h2v2h-2zM181.40634,146.53792h-2v-2h2zM181.40634,140.30592h2v2h-2zM179.17434,144.30592h-2v-2h2zM179.17434,138.07392h2v2h-2zM175.33834,140.07392v-2h2v2zM179.33834,157.92992v2h-2v-2zM174.74634,159.92992h-2v-2h2zM190.69434,133.24991h2v2h-2zM190.69434,139.48191h-2v-2h2zM194.53034,137.48191v2h-2v-2zM190.53034,135.24991v-2h2v2zM196.72634,135.24991v2h-2v-2zM192.72634,133.01791v-2h2v2zM198.95834,133.01791v2h-2v-2zM196.95834,129.18192h2v2h-2zM184.23034,131.18192v-2h2v2zM186.23034,135.01791h-2v-2h2zM188.46234,131.01791h2v2h-2zM188.46234,137.24991h-2v-2h2zM187.83434,141.90992v2h-2v-2zM183.83434,139.67792v-2h2v2zM192.29834,139.67792v2h-2v-2zM190.29834,135.84192h2v2h-2zM188.06634,139.84192h-2v-2h2zM188.06634,133.64592h2v2h-2zM181.99834,135.64592v-2h2v2zM185.99834,137.84192v2h-2v-2zM181.40634,139.84192h-2v-2h2zM181.40634,133.64592h2v2h-2zM175.33834,135.64592v-2h2v2zM177.33834,139.48191h-2v-2h2zM179.57034,135.48191h2v2h-2zM179.57034,141.67792h-2v-2h2zM181.80234,137.67792h2v2h-2zM181.80234,143.90992h-2v-2h2zM198.95834,144.14192v2h-2v-2zM196.95834,140.30592h2v2h-2zM192.53034,144.30592h-2v-2h2zM192.53034,138.07392h2v2h-2zM188.69434,140.07392v-2h2v2zM192.69434,142.30592v2h-2v-2zM184.23034,142.30592v-2h2v2zM186.23034,146.14192h-2v-2h2zM198.95834,153.03392v2h-2v-2zM196.95834,144.76992h2v2h-2zM184.23034,146.76992v-2h2v2zM186.23034,155.03392h-2v-2h2zM174.74634,142.07392h-1.836v-4h1.836zM174.91034,140.07392v6.696h-4v-6.696zM172.91034,148.76992h-2.664v-4h2.664zM168.24634,146.76992v-7.092h4v7.092zM170.24634,137.67792h2.268v4h-2.268zM170.51434,139.67792v-4.032h4v4.032zM172.51434,137.64592h-2.268v-4h2.268zM168.24634,135.64592v-2.628h4v2.628zM170.24634,131.01791h4.5v4h-4.5zM172.74634,133.01791v-8.892h4v8.892zM174.74634,122.12592h2.592v4h-2.592zM179.33834,124.12592v8.892h-4v-8.892zM177.33834,131.01791h4.464v4h-4.464zM183.80234,133.01791v2.232h-4v-2.232zM181.80234,133.24991h1.836v4h-1.836zM181.63834,135.24991v-4.464h4v4.464zM183.63834,128.78591h2.196v4h-2.196zM183.83434,130.78591v-6.66h4v6.66zM185.83434,122.12592h2.628v4h-2.628zM190.46234,124.12592v4.428h-4v-4.428zM188.46234,126.55392h11.124v4h-11.124zM201.58634,128.5539v4.86h-4v-4.86zM199.58634,135.41392h-2.232v-4h2.232zM199.35434,133.41392v2.232h-4v-2.232zM197.35434,137.64592h-2.232v-4h2.232zM197.12234,135.64592v2.196h-4v-2.196zM195.12234,139.84192h-2.232v-4h2.232zM194.89034,137.84192v1.836h-4v-1.836zM192.89034,137.67792h4.464v4h-4.464zM199.35434,139.67792v2.232h-4v-2.232zM197.35434,139.90992h6.66v4h-6.66zM206.01434,141.90992v2.628h-4v-2.628zM204.01434,146.53792h-4.428v-4h4.428zM201.58634,144.53792v13.392h-4v-13.392zM199.58634,159.92992h-2.628v-4h2.628zM194.95834,157.92992v-2.232h4v2.232zM196.95834,157.69792h-10.728v-4h10.728zM188.23034,155.69792v2.232h-4v-2.232zM186.23034,159.92992h-2.592v-4h2.592zM181.63834,157.92992v-13.392h4v13.392zM183.63834,146.53792h-2.232v-4h2.232zM179.40634,144.53792v-2.232h4v2.232zM181.40634,144.30592h-2.232v-4h2.232zM177.17434,142.30592v-2.232h4v2.232zM179.17434,142.07392h-1.836v-4h1.836zM179.33834,140.07392v17.856h-4v-17.856zM177.33834,159.92992h-2.592v-4h2.592zM172.74634,157.92992v-17.856h4v17.856zM192.69434,135.24991v2.232h-4v-2.232zM190.69434,135.48191h1.836v4h-1.836zM190.53034,137.48191v-2.232h4v2.232zM192.53034,133.24991h2.196v4h-2.196zM192.72634,135.24991v-2.232h4v2.232zM194.72634,131.01791h2.232v4h-2.232zM194.95834,133.01791v-1.836h4v1.836zM196.95834,133.18192h-10.728v-4h10.728zM188.23034,131.18192v1.836h-4v-1.836zM186.23034,131.01791h2.232v4h-2.232zM190.46234,133.01791v2.232h-4v-2.232zM188.46234,133.24991h2.232v4h-2.232zM183.83434,141.90992v-2.232h4v2.232zM185.83434,137.67792h4.464v4h-4.464zM188.29834,139.67792v-1.836h4v1.836zM190.29834,139.84192h-2.232v-4h2.232zM186.06634,137.84192v-2.196h4v2.196zM188.06634,137.64592h-4.068v-4h4.068zM185.99834,135.64592v2.196h-4v-2.196zM183.99834,139.84192h-2.592v-4h2.592zM179.40634,137.84192v-2.196h4v2.196zM181.40634,137.64592h-4.068v-4h4.068zM179.33834,135.64592v1.836h-4v-1.836zM177.33834,135.48191h2.232v4h-2.232zM181.57034,137.48191v2.196h-4v-2.196zM179.57034,137.67792h2.232v4h-2.232zM183.80234,139.67792v2.232h-4v-2.232zM181.80234,139.90992h4.032v4h-4.032zM194.95834,144.14192v-1.836h4v1.836zM196.95834,144.30592h-4.428v-4h4.428zM190.53034,142.30592v-2.232h4v2.232zM192.53034,142.07392h-1.836v-4h1.836zM192.69434,140.07392v2.232h-4v-2.232zM190.69434,144.30592h-4.464v-4h4.464zM188.23034,142.30592v1.836h-4v-1.836zM186.23034,142.14192h10.728v4h-10.728zM194.95834,153.03392v-6.264h4v6.264zM196.95834,148.76992h-10.728v-4h10.728zM188.23034,146.76992v6.264h-4v-6.264zM186.23034,151.03392h10.728v4h-10.728z" fill="#ffffff"/><path d="M174.74634,140.07392h-1.836v6.696h-2.664v-7.092h2.268v-4.032h-2.268v-2.628h4.5v-8.892h2.592v8.892h4.464v2.232h1.836v-4.464h2.196v-6.66h2.628v4.428h11.124v4.86h-2.232v2.232h-2.232v2.196h-2.232v1.836h4.464v2.232h6.66v2.628h-4.428v13.392h-2.628v-2.232h-10.728v2.232h-2.592v-13.392h-2.232v-2.232h-2.232v-2.232h-1.836v17.856h-2.592zM190.69434,135.24991v2.232h1.836v-2.232h2.196v-2.232h2.232v-1.836h-10.728v1.836h2.232v2.232zM185.83434,141.90992v-2.232h4.464v-1.836h-2.232v-2.196h-4.068v2.196h-2.592v-2.196h-4.068v1.836h2.232v2.196h2.232v2.232zM196.95834,144.14192v-1.836h-4.428v-2.232h-1.836v2.232h-4.464v1.836zM196.95834,153.03392v-6.264h-10.728v6.264z" fill="#000000"/><path d="M207.37034,121.60592v-2h2v2zM231.17034,121.60592v2h-2v-2zM227.17034,119.12592v-2h2v2zM233.65034,119.12592v2h-2v-2zM229.65034,116.64592v-2h2v2zM236.13034,116.64592v2h-2v-2zM232.13034,111.72592v-2h2v2zM237.01034,109.72592h2v2h-2zM237.01034,118.64592h-2v-2h2zM239.49034,114.64592h2v2h-2zM239.49034,121.12592h-2v-2h2zM241.97034,117.12592h2v2h-2zM241.97034,123.60592h-2v-2h2zM246.89034,119.60592h2v2h-2zM248.89034,124.52592v2h-2v-2zM241.53034,126.52592h-2v-2h2zM241.53034,120.04592h2v2h-2zM239.05034,124.04592h-2v-2h2zM239.05034,117.56592h2v2h-2zM236.57034,121.56592h-2v-2h2zM236.57034,115.08592h2v2h-2zM232.53034,117.08592v-2h2v2zM236.53034,119.56592v2h-2v-2zM230.09034,119.56592v-2h2v2zM234.09034,122.04592v2h-2v-2zM227.61034,122.04592v-2h2v2zM231.61034,124.52592v2h-2v-2zM209.37034,126.52592h-2v-2h2zM209.89034,114.20592v-2h2v2zM222.21034,112.20592h2v2h-2zM224.21034,117.08592v2h-2v-2zM211.89034,119.08592h-2v-2h2zM224.69034,129.00591v-2h2v2zM233.65034,129.00591v2h-2v-2zM229.65034,126.56592v-2h2v2zM238.57034,126.56592v2h-2v-2zM234.57034,124.08592v-2h2v2zM239.49034,122.08592h2v2h-2zM241.49034,126.96592v2h-2v-2zM235.01034,126.96592v-2h2v2zM239.01034,129.44592v2h-2v-2zM230.09034,129.44592v-2h2v2zM234.09034,131.92592v2h-2v-2zM226.69034,133.92592h-2v-2h2zM209.89034,126.56592v-2h2v2zM222.21034,124.56592h2v2h-2zM224.21034,129.44592v2h-2v-2zM211.89034,131.44592h-2v-2h2zM224.69034,136.44592v-2h2v2zM236.13034,136.44592v2h-2v-2zM232.13034,133.96592v-2h2v2zM241.05034,133.96592v2h-2v-2zM237.05034,131.48592v-2h2v2zM241.97034,129.48592h2v2h-2zM243.97034,134.4059v2h-2v-2zM237.49034,134.4059v-2h2v2zM241.49034,136.88592v2h-2v-2zM232.53034,136.88592v-2h2v2zM236.53034,139.32592v2h-2v-2zM226.69034,141.32592h-2v-2h2zM209.89034,131.48592v-2h2v2zM222.21034,129.48592h2v2h-2zM224.21034,134.4059v2h-2v-2zM211.89034,136.4059h-2v-2h2zM209.89034,136.44592v-2h2v2zM222.21034,134.44592h2v2h-2zM224.21034,146.80592v2h-2v-2zM212.77034,146.80592v-2h2v2zM216.77034,149.28591v2h-2v-2zM211.89034,151.28591h-2v-2h2zM236.13034,146.32592v2h-2v-2zM232.13034,143.8459v-2h2v2zM238.57034,143.8459v2h-2v-2zM234.57034,141.4059v-2h2v2zM243.53034,141.4059v2h-2v-2zM239.53034,138.92592v-2h2v2zM245.97034,138.92592v2h-2v-2zM241.97034,136.44592v-2h2v2zM246.89034,134.44592h2v2h-2zM248.89034,139.32592v2h-2v-2zM242.41034,139.32592v-2h2v2zM246.41034,141.80592v2h-2v-2zM239.97034,141.80592v-2h2v2zM243.97034,144.28591v2h-2v-2zM235.01034,144.28591v-2h2v2zM239.01034,146.80592v2h-2v-2zM232.53034,146.80592v-2h2v2zM236.53034,149.28591v2h-2v-2zM226.69034,151.28591h-2v-2h2zM224.69034,146.32592v-2h2v2zM221.29034,143.8459v2h-2v-2zM219.29034,137.32592h2v2h-2zM212.77034,139.32592v-2h2v2zM214.77034,145.8459h-2v-2h2zM209.37034,119.60592h19.8v4h-19.8zM227.17034,121.60592v-2.48h4v2.48zM229.17034,117.12592h2.48v4h-2.48zM229.65034,119.12592v-2.48h4v2.48zM231.65034,114.64592h2.48v4h-2.48zM232.13034,116.64592v-4.92h4v4.92zM234.13034,109.72592h2.88v4h-2.88zM239.01034,111.72592v4.92h-4v-4.92zM237.01034,114.64592h2.48v4h-2.48zM241.49034,116.64592v2.48h-4v-2.48zM239.49034,117.12592h2.48v4h-2.48zM243.97034,119.12592v2.48h-4v-2.48zM241.97034,119.60592h4.92v4h-4.92zM248.89034,121.60592v2.92h-4v-2.92zM246.89034,126.52592h-5.36v-4h5.36zM239.53034,124.52592v-2.48h4v2.48zM241.53034,124.04592h-2.48v-4h2.48zM237.05034,122.04592v-2.48h4v2.48zM239.05034,121.56592h-2.48v-4h2.48zM234.57034,119.56592v-2.48h4v2.48zM236.57034,119.08592h-2.04v-4h2.04zM236.53034,117.08592v2.48h-4v-2.48zM234.53034,121.56592h-2.44v-4h2.44zM234.09034,119.56592v2.48h-4v-2.48zM232.09034,124.04592h-2.48v-4h2.48zM231.61034,122.04592v2.48h-4v-2.48zM229.61034,126.52592h-20.24v-4h20.24zM207.37034,124.52592v-2.92h4v2.92zM211.89034,112.20592h10.32v4h-10.32zM224.21034,114.20592v2.88h-4v-2.88zM222.21034,119.08592h-10.32v-4h10.32zM209.89034,117.08592v-2.88h4v2.88zM226.69034,127.00592h4.96v4h-4.96zM229.65034,129.00591v-2.44h4v2.44zM231.65034,124.56592h4.92v4h-4.92zM234.57034,126.56592v-2.48h4v2.48zM236.57034,122.08592h2.92v4h-2.92zM241.49034,124.08592v2.88h-4v-2.88zM239.49034,128.96592h-2.48v-4h2.48zM239.01034,126.96592v2.48h-4v-2.48zM237.01034,131.44592h-4.92v-4h4.92zM234.09034,129.44592v2.48h-4v-2.48zM232.09034,133.92592h-5.4v-4h5.4zM224.69034,131.92592v-2.92h4v2.92zM211.89034,124.56592h10.32v4h-10.32zM224.21034,126.56592v2.88h-4v-2.88zM222.21034,131.44592h-10.32v-4h10.32zM209.89034,129.44592v-2.88h4v2.88zM226.69034,134.44592h7.44v4h-7.44zM232.13034,136.44592v-2.48h4v2.48zM234.13034,131.96592h4.92v4h-4.92zM237.05034,133.96592v-2.48h4v2.48zM239.05034,129.48592h2.92v4h-2.92zM243.97034,131.48592v2.92h-4v-2.92zM241.97034,136.4059h-2.48v-4h2.48zM241.49034,134.4059v2.48h-4v-2.48zM239.49034,138.88592h-4.96v-4h4.96zM236.53034,136.88592v2.44h-4v-2.44zM234.53034,141.32592h-7.84v-4h7.84zM224.69034,139.32592v-2.88h4v2.88zM211.89034,129.48592h10.32v4h-10.32zM224.21034,131.48592v2.92h-4v-2.92zM222.21034,136.4059h-10.32v-4h10.32zM209.89034,134.4059v-2.92h4v2.92zM211.89034,134.44592h10.32v4h-10.32zM224.21034,136.44592v10.36h-4v-10.36zM222.21034,148.80592h-7.44v-4h7.44zM216.77034,146.80592v2.48h-4v-2.48zM214.77034,151.28591h-2.88v-4h2.88zM209.89034,149.28591v-12.84h4v12.84zM232.13034,146.32592v-2.48h4v2.48zM234.13034,141.8459h2.44v4h-2.44zM234.57034,143.8459v-2.44h4v2.44zM236.57034,139.4059h4.96v4h-4.96zM239.53034,141.4059v-2.48h4v2.48zM241.53034,136.92592h2.44v4h-2.44zM241.97034,138.92592v-2.48h4v2.48zM243.97034,134.44592h2.92v4h-2.92zM248.89034,136.44592v2.88h-4v-2.88zM246.89034,141.32592h-2.48v-4h2.48zM246.41034,139.32592v2.48h-4v-2.48zM244.41034,143.80592h-2.44v-4h2.44zM243.97034,141.80592v2.48h-4v-2.48zM241.97034,146.28591h-4.96v-4h4.96zM239.01034,144.28591v2.52h-4v-2.52zM237.01034,148.80592h-2.48v-4h2.48zM236.53034,146.80592v2.48h-4v-2.48zM234.53034,151.28591h-7.84v-4h7.84zM224.69034,149.28591v-2.96h4v2.96zM226.69034,144.32592h7.44v4h-7.44zM217.29034,143.8459v-4.52h4v4.52zM219.29034,141.32592h-4.52v-4h4.52zM216.77034,139.32592v4.52h-4v-4.52zM214.77034,141.8459h4.52v4h-4.52z" fill="#ffffff"/><path d="M209.37034,121.60592h19.8v-2.48h2.48v-2.48h2.48v-4.92h2.88v4.92h2.48v2.48h2.48v2.48h4.92v2.92h-5.36v-2.48h-2.48v-2.48h-2.48v-2.48h-2.04v2.48h-2.44v2.48h-2.48v2.48h-20.24zM211.89034,114.20592h10.32v2.88h-10.32zM226.69034,129.00591h4.96v-2.44h4.92v-2.48h2.92v2.88h-2.48v2.48h-4.92v2.48h-5.4zM211.89034,126.56592h10.32v2.88h-10.32zM226.69034,136.44592h7.44v-2.48h4.92v-2.48h2.92v2.92h-2.48v2.48h-4.96v2.44h-7.84zM211.89034,131.48592h10.32v2.92h-10.32zM211.89034,136.44592h10.32v10.36h-7.44v2.48h-2.88zM234.13034,146.32592v-2.48h2.44v-2.44h4.96v-2.48h2.44v-2.48h2.92v2.88h-2.48v2.48h-2.44v2.48h-4.96v2.52h-2.48v2.48h-7.84v-2.96zM219.29034,143.8459v-4.52h-4.52v4.52z" fill="#ff9a51"/><path d="M250.36234,126.35792v-2h2v2zM257.18634,124.35792h2v2h-2zM257.18634,130.5539h-2v-2h2zM259.41834,126.55392h2v2h-2zM259.41834,132.78591h-2v-2h2zM263.25434,130.78591v2h-2v-2zM259.25434,124.12592v-2h2v2zM263.84632,122.12592h2v2h-2zM263.84632,132.78591h-2v-2h2zM267.68234,130.78591v2h-2v-2zM263.68234,126.35792v-2h2v2zM268.31032,124.35792h2v2h-2zM270.31032,131.18192v2h-2v-2zM264.07834,131.18192v-2h2v2zM268.07834,133.41392v2h-2v-2zM261.84632,133.41392v-2h2v2zM263.84632,137.24991h-2v-2h2zM268.31032,133.24991h2v2h-2zM270.31032,137.84192v2h-2v-2zM264.07834,137.84192v-2h2v2zM266.07834,141.67792h-2v-2h2zM268.31032,137.67792h2v2h-2zM270.31032,146.76992v2h-2v-2zM265.68234,148.76992h-2v-2h2zM265.68234,138.07392h2v2h-2zM261.84632,140.07392v-2h2v2zM265.84632,151.19792v2h-2v-2zM261.25434,153.19792h-2v-2h2zM261.25434,140.30592h2v2h-2zM257.41834,142.30592v-2h2v2zM261.41834,146.76992v2h-2v-2zM255.18634,146.76992v-2h2v2zM259.18634,148.96592v2h-2v-2zM252.95434,148.96592v-2h2v2zM254.95434,155.03392h-2v-2h2zM272.14634,153.03392v2h-2v-2zM268.14634,126.35792v-2h2v2zM278.80634,126.35792v2h-2v-2zM274.80634,124.12592v-2h2v2zM281.63034,122.12592h2v2h-2zM283.63034,126.71792v2h-2v-2zM275.20232,126.71792v-2h2v2zM279.20232,128.94992v2h-2v-2zM270.73832,128.94992v-2h2v2zM272.73832,137.24991h-2v-2h2zM283.86233,133.24991h2v2h-2zM285.86233,137.84192v2h-2v-2zM277.43433,137.84192v-2h2v2zM281.43433,157.92992v2h-2v-2zM276.80634,159.92992h-2v-2h2zM276.80634,135.84192h2v2h-2zM270.73832,137.84192v-2h2v2zM274.73832,153.42992v2h-2v-2zM268.54233,153.42992v-2h2v2zM272.54233,157.92992v2h-2v-2zM267.91434,159.92992h-2v-2h2zM267.91434,153.69792h2v2h-2zM252.95434,155.69792v-2h2v2zM256.95434,157.92992v2h-2v-2zM252.36234,159.92992h-2v-2h2zM263.25434,135.24991v2h-2v-2zM261.25434,131.41392h2v2h-2zM259.02234,135.41392h-2v-2h2zM259.02234,129.18192h2v2h-2zM256.79034,133.18192h-2v-2h2zM256.79034,126.94992h2v2h-2zM252.95434,128.94992v-2h2v2zM254.95434,137.24991h-2v-2h2zM258.79034,146.37392v2h-2v-2zM254.79034,141.90992v-2h2v2zM261.02234,141.90992v2h-2v-2zM257.02234,139.67792v-2h2v2zM263.25434,139.67792v2h-2v-2zM261.25434,135.84192h2v2h-2zM252.95434,137.84192v-2h2v2zM254.95434,148.37392h-2v-2h2zM252.36234,124.35792h4.824v4h-4.824zM259.18634,126.35792v2.196h-4v-2.196zM257.18634,126.55392h2.232v4h-2.232zM261.41834,128.5539v2.232h-4v-2.232zM259.41834,128.78591h1.836v4h-1.836zM259.25434,130.78591v-6.66h4v6.66zM261.25434,122.12592h2.592v4h-2.592zM265.84632,124.12592v6.66h-4v-6.66zM263.84632,128.78591h1.836v4h-1.836zM263.68234,130.78591v-4.428h4v4.428zM265.68234,124.35792h2.628v4h-2.628zM270.31032,126.35792v4.824h-4v-4.824zM268.31032,133.18192h-2.232v-4h2.232zM268.07834,131.18192v2.232h-4v-2.232zM266.07834,135.41392h-2.232v-4h2.232zM265.84632,133.41392v1.836h-4v-1.836zM263.84632,133.24991h4.464v4h-4.464zM270.31032,135.24991v2.592h-4v-2.592zM268.31032,139.84192h-2.232v-4h2.232zM268.07834,137.84192v1.836h-4v-1.836zM266.07834,137.67792h2.232v4h-2.232zM270.31032,139.67792v7.092h-4v-7.092zM268.31032,148.76992h-2.628v-4h2.628zM263.68234,146.76992v-6.696h4v6.696zM265.68234,142.07392h-1.836v-4h1.836zM265.84632,140.07392v11.124h-4v-11.124zM263.84632,153.19792h-2.592v-4h2.592zM259.25434,151.19792v-8.892h4v8.892zM261.25434,144.30592h-1.836v-4h1.836zM261.41834,142.30592v4.464h-4v-4.464zM259.41834,148.76992h-2.232v-4h2.232zM259.18634,146.76992v2.196h-4v-2.196zM257.18634,150.96592h-2.232v-4h2.232zM256.95434,148.96592v4.068h-4v-4.068zM254.95434,151.03392h15.192v4h-15.192zM268.14634,153.03392v-26.676h4v26.676zM270.14634,124.35792h6.66v4h-6.66zM274.80634,126.35792v-2.232h4v2.232zM276.80634,122.12592h4.824v4h-4.824zM283.63034,124.12592v2.592h-4v-2.592zM281.63034,128.71792h-4.428v-4h4.428zM279.20232,126.71792v2.232h-4v-2.232zM277.20232,130.94992h-4.464v-4h4.464zM274.73832,128.94992v6.3h-4v-6.3zM272.73832,133.24991h11.124v4h-11.124zM285.86233,135.24991v2.592h-4v-2.592zM283.86233,139.84192h-4.428v-4h4.428zM281.43433,137.84192v20.088h-4v-20.088zM279.43433,159.92992h-2.628v-4h2.628zM274.80634,157.92992v-20.088h4v20.088zM276.80634,139.84192h-4.068v-4h4.068zM274.73832,137.84192v15.588h-4v-15.588zM272.73832,155.42992h-2.196v-4h2.196zM272.54233,153.42992v4.5h-4v-4.5zM270.54233,159.92992h-2.628v-4h2.628zM265.91434,157.92992v-2.232h4v2.232zM267.91434,157.69792h-12.96v-4h12.96zM256.95434,155.69792v2.232h-4v-2.232zM254.95434,159.92992h-2.592v-4h2.592zM250.36234,157.92992v-31.572h4v31.572zM259.25434,135.24991v-1.836h4v1.836zM261.25434,135.41392h-2.232v-4h2.232zM257.02234,133.41392v-2.232h4v2.232zM259.02234,133.18192h-2.232v-4h2.232zM254.79034,131.18192v-2.232h4v2.232zM256.79034,130.94992h-1.836v-4h1.836zM256.95434,128.94992v6.3h-4v-6.3zM254.95434,133.24991h6.3v4h-6.3zM254.79034,146.37392v-4.464h4v4.464zM256.79034,139.90992h2.232v4h-2.232zM257.02234,141.90992v-2.232h4v2.232zM259.02234,137.67792h2.232v4h-2.232zM259.25434,139.67792v-1.836h4v1.836zM261.25434,139.84192h-6.3v-4h6.3zM256.95434,137.84192v8.532h-4v-8.532zM254.95434,144.37392h1.836v4h-1.836z" fill="#ffffff"/><path d="M252.36234,126.35792h4.824v2.196h2.232v2.232h1.836v-6.66h2.592v6.66h1.836v-4.428h2.628v4.824h-2.232v2.232h-2.232v1.836h4.464v2.592h-2.232v1.836h2.232v7.092h-2.628v-6.696h-1.836v11.124h-2.592v-8.892h-1.836v4.464h-2.232v2.196h-2.232v4.068h15.192v-26.676h6.66v-2.232h4.824v2.592h-4.428v2.232h-4.464v6.3h11.124v2.592h-4.428v20.088h-2.628v-20.088h-4.068v15.588h-2.196v4.5h-2.628v-2.232h-12.96v2.232h-2.592zM261.25434,135.24991v-1.836h-2.232v-2.232h-2.232v-2.232h-1.836v6.3zM256.79034,146.37392v-4.464h2.232v-2.232h2.232v-1.836h-6.3v8.532z" fill="#000000"/><path d="M308.19434,115.07792h2v2h-2zM306.73034,119.07792h-2v-2h2zM304.73034,115.34992v-2h2v2zM308.45833,113.34992h2v2h-2zM308.45833,118.83792h-2v-2h2zM311.68234,116.83792v2h-2v-2zM307.68234,115.34992v-2h2v2zM311.43433,113.34992h2v2h-2zM311.43433,118.83792h-2v-2h2zM312.89833,114.83792h2v2h-2zM312.89833,120.30192h-2v-2h2zM314.38633,116.30192h2v2h-2zM316.38633,120.05392v2h-2v-2zM312.63434,122.05392h-2v-2h2zM312.63434,116.56592h2v2h-2zM309.43433,118.56592v-2h2v2zM313.43433,120.05392v2h-2v-2zM309.68234,122.05392h-2v-2h2zM309.68234,116.56592h2v2h-2zM308.19434,120.56592h-2v-2h2zM299.82633,136.10992v2h-2v-2zM295.82633,134.62192v-2h2v2zM302.80234,134.62192v2h-2v-2zM298.80234,133.15792v-2h2v2zM304.26634,133.15792v2h-2v-2zM300.26634,130.18192v-2h2v2zM305.75434,130.18192v2h-2v-2zM301.75434,127.20592v-2h2v2zM307.24234,127.20592v2h-2v-2zM305.24234,121.02992h2v2h-2zM294.60234,123.02992v-2h2v2zM298.60234,125.98192v2h-2v-2zM293.11434,125.98192v-2h2v2zM297.11434,127.46992v2h-2v-2zM291.65034,127.46992v-2h2v2zM295.65034,128.95792v2h-2v-2zM291.87433,130.95792h-2v-2h2zM289.87433,127.20592v-2h2v2zM295.38633,127.20592v2h-2v-2zM291.38633,125.71792v-2h2v2zM296.87433,125.71792v2h-2v-2zM292.87433,122.76592v-2h2v2zM298.33833,122.76592v2h-2v-2zM294.33833,119.78992v-2h2v2zM299.82633,119.78992v2h-2v-2zM295.82633,116.83792v-2h2v2zM299.57834,114.83792h2v2h-2zM301.57834,120.05392v2h-2v-2zM296.09034,120.05392v-2h2v2zM298.09034,123.27792h-2v-2h2zM312.89833,119.27792h2v2h-2zM314.89833,123.02992v2h-2v-2zM304.97033,123.02992v-2h2v2zM308.97033,127.46992v2h-2v-2zM303.50633,127.46992v-2h2v2zM307.50633,130.44592v2h-2v-2zM302.01833,130.44592v-2h2v2zM306.01833,133.39792v2h-2v-2zM300.53033,133.39792v-2h2v2zM304.53033,134.88592v2h-2v-2zM299.04233,134.88592v-2h2v2zM303.04233,136.39792v2h-2v-2zM296.09034,136.39792v-2h2v2zM300.09034,137.88592v2h-2v-2zM294.87433,139.88592h-2v-2h2zM292.87433,136.10992v-2h2v2zM313.17034,118.30192v2h-2v-2zM311.17034,115.07792h2v2h-2zM307.94633,117.07792v-2h2v2zM309.94633,120.30192h-2v-2h2zM308.19434,119.07792h-1.464v-4h1.464zM304.73034,117.07792v-1.728h4v1.728zM306.73034,113.34992h1.728v4h-1.728zM310.45833,115.34992v1.488h-4v-1.488zM308.45833,114.83792h1.224v4h-1.224zM307.68234,116.83792v-1.488h4v1.488zM309.68234,113.34992h1.752v4h-1.752zM313.43433,115.34992v1.488h-4v-1.488zM311.43433,114.83792h1.464v4h-1.464zM314.89833,116.83792v1.464h-4v-1.464zM312.89833,116.30192h1.488v4h-1.488zM316.38633,118.30192v1.752h-4v-1.752zM314.38633,122.05392h-1.752v-4h1.752zM310.63434,120.05392v-1.488h4v1.488zM312.63434,120.56592h-1.2v-4h1.2zM313.43433,118.56592v1.488h-4v-1.488zM311.43433,122.05392h-1.752v-4h1.752zM307.68234,120.05392v-1.488h4v1.488zM309.68234,120.56592h-1.488v-4h1.488zM306.19434,118.56592v-1.488h4v1.488zM295.82633,136.10992v-1.488h4v1.488zM297.82633,132.62192h2.976v4h-2.976zM298.80234,134.62192v-1.464h4v1.464zM300.80234,131.15792h1.464v4h-1.464zM300.26634,133.15792v-2.976h4v2.976zM302.26634,128.18192h1.488v4h-1.488zM301.75434,130.18192v-2.976h4v2.976zM303.75434,125.20592h1.488v4h-1.488zM303.24234,127.20592v-4.176h4v4.176zM305.24234,125.02992h-8.64v-4h8.64zM298.60234,123.02992v2.952h-4v-2.952zM296.60234,127.98192h-1.488v-4h1.488zM297.11434,125.98192v1.488h-4v-1.488zM295.11434,129.46991h-1.464v-4h1.464zM295.65034,127.46992v1.488h-4v-1.488zM293.65034,130.95792h-1.776v-4h1.776zM289.87433,128.95792v-1.752h4v1.752zM291.87433,125.20592h1.512v4h-1.512zM291.38633,127.20592v-1.488h4v1.488zM293.38633,123.71792h1.488v4h-1.488zM292.87433,125.71792v-2.952h4v2.952zM294.87433,120.76592h1.464v4h-1.464zM294.33833,122.76592v-2.976h4v2.976zM296.33833,117.78992h1.488v4h-1.488zM295.82633,119.78992v-2.952h4v2.952zM297.82633,114.83792h1.752v4h-1.752zM301.57834,116.83792v3.216h-4v-3.216zM299.57834,122.05392h-1.488v-4h1.488zM300.09034,120.05392v1.224h-4v-1.224zM298.09034,119.27792h14.808v4h-14.808zM314.89833,121.27792v1.752h-4v-1.752zM312.89833,125.02992h-5.928v-4h5.928zM308.97033,123.02992v4.44h-4v-4.44zM306.97033,129.46991h-1.464v-4h1.464zM307.50633,127.46992v2.976h-4v-2.976zM305.50633,132.44592h-1.488v-4h1.488zM306.01833,130.44592v2.952h-4v-2.952zM304.01833,135.39792h-1.488v-4h1.488zM304.53033,133.39792v1.488h-4v-1.488zM302.53033,136.88592h-1.488v-4h1.488zM303.04233,134.88592v1.512h-4v-1.512zM301.04233,138.39792h-2.952v-4h2.952zM300.09034,136.39792v1.488h-4v-1.488zM298.09034,139.88592h-3.216v-4h3.216zM292.87433,137.88592v-1.776h4v1.776zM294.87433,134.10992h2.952v4h-2.952zM309.17034,118.30192v-1.224h4v1.224zM311.17034,119.07792h-1.224v-4h1.224zM311.94633,117.07792v1.224h-4v-1.224zM309.94633,116.30192h1.224v4h-1.224z" fill="#ffffff"/><path d="M308.19434,117.07792h-1.464v-1.728h1.728v1.488h1.224v-1.488h1.752v1.488h1.464v1.464h1.488v1.752h-1.752v-1.488h-1.2v1.488h-1.752v-1.488h-1.488zM297.82633,136.10992v-1.488h2.976v-1.464h1.464v-2.976h1.488v-2.976h1.488v-4.176h-8.64v2.952h-1.488v1.488h-1.464v1.488h-1.776v-1.752h1.512v-1.488h1.488v-2.952h1.464v-2.976h1.488v-2.952h1.752v3.216h-1.488v1.224h14.808v1.752h-5.928v4.44h-1.464v2.976h-1.488v2.952h-1.488v1.488h-1.488v1.512h-2.952v1.488h-3.216v-1.776zM311.17034,118.30192v-1.224h-1.224v1.224z" fill="#000000"/><path d="M309.10634,139.71792v-2h2v2zM329.15432,137.71792h2v2h-2zM331.15432,141.46991v2h-2v-2zM311.10634,143.46991h-2v-2h2zM311.10634,137.71792h18.048v4h-18.048zM331.15432,139.71792v1.752h-4v-1.752zM329.15432,143.46991h-18.048v-4h18.048zM309.10634,141.46991v-1.752h4v1.752z" fill="#ffffff"/><path d="M311.10634,139.71792h18.048v1.752h-18.048z" fill="#000000"/><path d="M328.10634,153.51791v-2h2v2zM338.10634,153.51791v2h-2v-2zM334.10634,147.6139v-2h2v2zM341.03434,147.6139v2h-2v-2zM337.03434,141.6619v-2h2v2zM344.01034,141.6619v2h-2v-2zM340.01034,132.78192v-2h2v2zM346.98634,132.78192v2h-2v-2zM342.98634,126.82992v-2h2v2zM349.96234,126.82992v2h-2v-2zM345.96234,117.94992v-2h2v2zM351.41834,115.94992h2v2h-2zM353.41834,127.35792v2h-2v-2zM346.44234,127.35792v-2h2v2zM350.44234,133.26191v2h-2v-2zM343.51434,133.26191v-2h2v2zM347.51434,142.18992v2h-2v-2zM340.53834,142.18992v-2h2v2zM344.53834,148.09392v2h-2v-2zM337.56234,148.09392v-2h2v2zM339.56234,155.51791h-2v-2h2zM352.89034,153.51791v2h-2v-2zM348.89034,150.5899v-2h2v2zM367.72234,150.5899v2h-2v-2zM365.72234,146.09392h2v2h-2zM362.74634,150.09392h-2v-2h2zM362.74634,143.16592h2v2h-2zM359.81834,147.16592h-2v-2h2zM359.81834,137.21391h2v2h-2zM356.84234,141.21391h-2v-2h2zM354.84234,135.70992v-2h2v2zM360.29834,133.70992h2v2h-2zM360.29834,140.68592h-2v-2h2zM363.27434,136.68592h2v2h-2zM363.27434,146.6379h-2v-2h2zM366.25034,142.6379h2v2h-2zM366.25034,149.6139h-2v-2h2zM369.22634,145.6139h2v2h-2zM369.22634,155.51791h-2v-2h2zM372.15434,151.51791h2v2h-2zM374.15434,160.04592v2h-2v-2zM368.69834,162.04592h-2v-2h2zM368.69834,152.04592h2v2h-2zM349.41834,154.04592v-2h2v2zM353.41834,157.06992v2h-2v-2zM330.10634,159.06992h-2v-2h2zM330.10634,151.51791h6v4h-6zM334.10634,153.51791v-5.904h4v5.904zM336.10634,145.6139h2.928v4h-2.928zM337.03434,147.6139v-5.952h4v5.952zM339.03434,139.6619h2.976v4h-2.976zM340.01034,141.6619v-8.88h4v8.88zM342.01034,130.78192h2.976v4h-2.976zM342.98634,132.78192v-5.952h4v5.952zM344.98634,124.82992h2.976v4h-2.976zM345.96234,126.82992v-8.88h4v8.88zM347.96234,115.94992h3.456v4h-3.456zM353.41834,117.94992v9.408h-4v-9.408zM351.41834,129.3579h-2.976v-4h2.976zM350.44234,127.35792v5.904h-4v-5.904zM348.44234,135.26191h-2.928v-4h2.928zM347.51434,133.26191v8.928h-4v-8.928zM345.51434,144.18992h-2.976v-4h2.976zM344.53834,142.18992v5.904h-4v-5.904zM342.53834,150.09392h-2.976v-4h2.976zM341.56234,148.09392v5.424h-4v-5.424zM339.56234,151.51791h11.328v4h-11.328zM348.89034,153.51791v-2.928h4v2.928zM350.89034,148.5899h14.832v4h-14.832zM363.72234,150.5899v-2.496h4v2.496zM365.72234,150.09392h-2.976v-4h2.976zM360.74634,148.09392v-2.928h4v2.928zM362.74634,147.16592h-2.928v-4h2.928zM357.81834,145.16592v-5.952h4v5.952zM359.81834,141.21391h-2.976v-4h2.976zM354.84234,139.21391v-3.504h4v3.504zM356.84234,133.70992h3.456v4h-3.456zM362.29834,135.70992v2.976h-4v-2.976zM360.29834,136.68592h2.976v4h-2.976zM365.27434,138.68592v5.952h-4v-5.952zM363.27434,142.6379h2.976v4h-2.976zM368.25034,144.6379v2.976h-4v-2.976zM366.25034,145.6139h2.976v4h-2.976zM371.22634,147.6139v5.904h-4v-5.904zM369.22634,151.51791h2.928v4h-2.928zM374.15434,153.51791v6.528h-4v-6.528zM372.15434,162.04592h-3.456v-4h3.456zM366.69834,160.04592v-6h4v6zM368.69834,156.04592h-17.28v-4h17.28zM353.41834,154.04592v3.024h-4v-3.024zM351.41834,159.06992h-21.312v-4h21.312zM328.10634,157.06992v-3.552h4v3.552z" fill="#ffffff"/><path d="M330.10634,153.51791h6v-5.904h2.928v-5.952h2.976v-8.88h2.976v-5.952h2.976v-8.88h3.456v9.408h-2.976v5.904h-2.928v8.928h-2.976v5.904h-2.976v5.424h11.328v-2.928h14.832v-2.496h-2.976v-2.928h-2.928v-5.952h-2.976v-3.504h3.456v2.976h2.976v5.952h2.976v2.976h2.976v5.904h2.928v6.528h-3.456v-6h-17.28v3.024h-21.312z" fill="#000000"/><path d="" fill="#ffffff"/><path d="" fill="#ffffff"/><path d="" fill="#ffffff"/><path d="" fill="#ffffff"/></g></g></svg>