<svg xmlns="http://www.w3.org/2000/svg" fill="none" viewBox="0 0 24 13" height="13" width="24">
<path fill="black" d="M6.312 6.86H5.568V5.984H7.056V5.252H8.532V4.508H9.276V3.896H6.444V4.64H5.7V5.372H4.836V4.508H5.568V3.02H6.312V0.8H7.188V3.02H11.628V3.896H10.152V4.64H9.408V5.372H8.664V6.728H9.408V7.472H10.02V6.728H10.752V5.984H11.628V6.86H10.884V7.604H10.152V9.704H10.884V11.18H11.628V12.068H10.752V11.324H10.02V9.824H9.276V8.348H8.532V6.86H7.8V6.116H7.188V12.068H6.312V6.86ZM0.372 10.436H1.128V8.216H1.872V3.896H0.372V3.02H2.604V0.8H3.48V3.02H4.956V3.896H2.736V5.984H4.956V11.324H4.224V12.068H2.604V11.18H4.092V6.86H2.736V8.348H1.992V10.568H1.26V12.068H0.372V10.436ZM13.128 11.18V4.64H12.372V3.764H13.128V3.02H13.872V1.544H14.604V0.8H15.48V1.544H16.224V2.276H19.8V0.8H20.664V2.276H23.628V5.372H22.752V3.152H17.7V5.372H16.956V8.348H13.992V10.436H16.092V9.824H15.348V8.96H16.224V9.704H16.956V12.068H16.092V11.324H13.992V12.068H12.372V11.18H13.128ZM16.836 4.508V3.152H16.092V2.408H15.348V1.664H14.736V3.02H15.48V4.508H16.836ZM14.604 4.508V3.152H13.992V3.896H13.26V4.508H14.604ZM18.312 3.764H22.152V6.86H19.188V7.472H22.884V12.068H22.02V11.324H19.188V12.068H18.312V3.764ZM21.276 5.984V4.64H19.188V5.984H21.276ZM16.092 5.984V5.372H13.992V5.984H16.092ZM16.092 7.472V6.86H13.992V7.472H16.092ZM22.02 10.436V8.348H19.188V10.436H22.02Z"></path>
</svg>
