<svg version="1.1" xmlns="http://www.w3.org/2000/svg" xmlns:xlink="http://www.w3.org/1999/xlink" width="265.23599" height="154.17285" viewBox="0,0,265.23599,154.17285"><g transform="translate(-105.40728,-89.09051)"><g data-paper-data="{&quot;isPaintingLayer&quot;:true}" fill="#fff4e4" fill-rule="nonzero" stroke="#000000" stroke-width="2" stroke-linecap="butt" stroke-linejoin="round" stroke-miterlimit="10" stroke-dasharray="" stroke-dashoffset="0" style="mix-blend-mode: normal"><path d="M110.34597,242.26334c-2.17528,0 -3.15333,-2.87834 -3.15333,-2.87834c0,0 -0.78536,-1.37288 -0.78536,-6.21411c0,-16.33045 0,-108.34661 0,-135.52287c0,-4.78298 0.99832,-6.03299 0.99832,-6.03299c0,0 0.76509,-1.52452 2.94038,-1.52452h255.35859c2.17528,0 2.89433,1.9138 2.89433,1.9138c0,0 1.04436,0.93888 1.04436,5.84688c0,27.58253 0,120.07878 0,135.95669c0,4.53659 -1.11135,6.41892 -1.11135,6.41892c0,0 -0.65206,2.03656 -2.82734,2.03656z"/></g></g></svg>