<svg xmlns="http://www.w3.org/2000/svg" fill="none" viewBox="0 0 668 61" height="61" width="668">
<path fill="black" d="M0.92 8.472H16.728V4.568H20.632V0.599998H25.304V5.208H21.336V8.472H45.08V60.696H40.408V56.728H5.528V60.696H0.92V8.472ZM40.408 24.344V13.144H5.528V24.344H40.408ZM40.408 36.184V28.952H5.528V36.184H40.408ZM40.408 51.992V40.856H5.528V51.992H40.408ZM62.936 12.44H82.712V0.599998H87.32V12.44H111.064V60.696H106.392V56.728H67.544V60.696H62.936V12.44ZM106.392 32.216V17.112H87.32V32.216H106.392ZM82.712 32.216V17.112H67.544V32.216H82.712ZM106.392 51.992V36.888H87.32V51.992H106.392ZM82.712 51.992V36.888H67.544V51.992H82.712ZM120.984 28.248H128.984V24.344H136.856V20.376H140.824V17.112H125.016V12.44H144.792V8.472H148.696V0.599998H153.368V9.176H149.4V12.44H181.016V17.112H161.24V20.376H165.208V24.344H169.176V28.248H181.016V32.92H168.472V28.952H165.208V32.92H153.368V36.888H148.696V32.92H136.856V28.952H129.624V32.92H120.984V28.248ZM148.696 28.248V20.376H153.368V28.248H164.504V24.984H160.6V21.08H156.632V17.112H145.432V21.08H141.528V24.984H137.56V28.248H148.696ZM132.888 55.96V51.992H136.856V44.76H120.984V40.152H136.856V36.184H141.528V40.152H160.6V36.184H165.208V40.152H181.016V44.76H165.208V60.696H160.6V44.76H141.528V52.696H137.56V56.728H133.592V60.696H125.016V55.96H132.888ZM184.984 51.992H189.016V36.184H192.984V17.112H184.984V12.44H196.888V0.599998H201.56V12.44H213.4V17.112H197.592V28.248H212.696V20.376H216.664V0.599998H221.336V12.44H245.016V17.112H237.144V32.92H233.176V40.856H229.208V48.088H233.176V51.992H237.144V55.96H245.016V60.696H236.44V56.728H232.472V52.696H228.504V48.728H225.24V52.696H221.336V56.728H217.368V60.696H212.696V55.96H216.664V51.992H220.632V48.088H224.6V40.856H220.632V36.888H216.664V28.952H213.4V32.92H209.432V56.728H205.528V60.696H196.888V55.96H204.824V32.92H197.592V36.888H193.624V52.696H189.72V60.696H184.984V51.992ZM225.24 36.184V40.152H228.504V32.216H232.472V17.112H221.336V21.08H217.368V28.248H221.336V36.184H225.24ZM250.968 44.184H254.936V36.248H258.84V28.312H262.808V20.44H266.776V17.176H250.968V12.504H266.776V8.536H270.744V0.663998H275.352V9.24H271.384V12.504H283.288V17.176H271.384V21.144H267.48V29.016H263.512V36.952H259.544V44.824H255.576V48.792H250.968V44.184ZM286.552 12.504H303V16.472H306.968V21.144H302.296V17.176H286.552V12.504ZM266.776 44.184H270.744V40.216H286.552V24.408H291.16V44.184H295.128V48.152H299.096V52.056H303V56.792H298.392V52.76H294.424V48.792H291.16V52.76H287.192V56.792H283.288V60.76H270.744V56.792H266.776V44.184ZM282.584 56.024V52.056H286.552V44.824H271.384V56.024H282.584ZM340.696 32.216H360.472V24.984H340.696V21.08H312.984V16.408H341.4V20.376H352.6V13.144H344.664V8.472H352.6V0.599998H357.208V8.472H369.048V13.144H357.208V20.376H373.016V24.984H365.144V32.216H373.016V36.888H365.144V56.728H361.176V60.696H348.632V55.96H360.472V36.888H340.696V32.216ZM317.016 4.568H337.432V9.176H317.016V4.568ZM317.016 24.344H337.432V28.952H317.016V24.344ZM317.016 32.216H337.432V36.888H317.016V32.216ZM317.016 40.152H337.432V56.728H321.624V60.696H317.016V40.152ZM344.664 40.152H349.336V44.12H353.24V48.728H348.632V44.76H344.664V40.152ZM332.824 51.992V44.76H321.624V51.992H332.824ZM381.016 55.96V51.992H384.984V48.088H388.888V44.12H392.856V40.152H396.824V36.184H400.792V28.248H404.696V0.599998H409.368V28.248H413.336V36.184H417.24V44.12H421.208V48.088H425.176V51.992H429.144V55.96H437.016V60.696H428.44V56.728H424.472V52.696H420.504V48.728H416.6V44.76H412.632V36.888H408.664V28.952H405.4V36.888H401.432V40.856H397.528V44.76H393.56V48.728H389.592V52.696H385.624V56.728H381.72V60.696H376.984V55.96H381.016ZM460.76 56.024V52.056H472.6V48.152H476.568V40.92H472.6V36.952H464.728V32.984H460.76V28.312H465.432V32.28H473.304V36.248H477.272V40.216H484.504V36.248H488.408V28.312H492.376V17.176H465.432V21.144H461.464V25.048H457.496V29.016H453.528V32.984H449.624V36.952H444.888V32.28H448.92V28.312H452.888V24.408H456.792V20.44H460.76V16.472H464.728V8.536H468.696V0.663998H473.304V9.24H469.336V12.504H497.048V29.016H493.08V36.952H489.112V40.92H485.144V44.824H481.24V48.792H477.272V52.76H473.304V56.792H461.464V60.76H448.92V56.024H460.76ZM508.888 36.248H516.888V32.28H524.76V28.312H532.696V24.408H536.6V20.44H540.568V16.472H544.536V12.504H548.504V8.536H552.408V4.632H556.376V0.663998H561.048V5.272H557.08V9.24H553.112V13.208H549.144V17.176H545.24V60.76H540.568V25.048H537.304V29.016H533.336V32.984H525.464V36.952H517.528V40.92H508.888V36.248ZM573.016 52.056H584.856V48.152H592.792V44.184H600.664V40.216H604.632V32.28H608.6V24.408H612.504V13.208H568.984V8.536H612.504V4.632H616.472V0.663998H625.048V4.632H629.016V13.208H625.048V17.176H617.176V25.048H613.208V32.984H609.24V40.92H605.336V44.824H601.368V48.792H593.432V52.76H585.56V56.792H573.016V52.056ZM624.344 12.504V5.272H617.176V12.504H624.344ZM662.68 4.632H667.352V44.824H662.68V4.632ZM658.712 48.152H667.352V56.792H658.712V48.152Z"></path>
</svg>
